<?xml version="1.0" encoding="UTF-8" standalone="no"?>
<!DOCTYPE svg PUBLIC "-//W3C//DTD SVG 1.1//EN" "http://www.w3.org/Graphics/SVG/1.1/DTD/svg11.dtd">
<svg xmlns="http://www.w3.org/2000/svg" xmlns:xlink="http://www.w3.org/1999/xlink" version="1.1" width="1600pt" height="800pt" viewBox="0 0 1600 800">
<g enable-background="new">
<path transform="matrix(2.7777777,0,0,-2.7777777,0,800)" d="M 0 0 L 576 0 L 576 288 L 0 288 Z " fill="#ffffff"/>
<path transform="matrix(2.7777777,0,0,-2.7777777,0,800)" d="M 43.2 43.2 L 278.83638 43.2 L 278.83638 273.6 L 43.2 273.6 Z " fill="#ffffff"/>
<clipPath id="cp0">
<path transform="matrix(2.7777777,0,0,-2.7777777,0,800)" d="M 43.2 43.2 L 278.83638 43.2 L 278.83638 273.6 L 43.2 273.6 Z "/>
</clipPath>
<g clip-path="url(#cp0)">
<g>
<path transform="matrix(2.7777777,0,0,-2.7777777,0,800)" d="M 53.910745 263.12727 L 53.910745 254.30136 L 57.206357 254.30136 L 60.501974 254.30136 L 63.797586 254.30136 L 67.0932 254.30136 L 70.38881 254.30136 L 73.684429 254.30136 L 76.98004 254.30136 L 80.27565 254.30136 L 83.571269 254.30136 L 86.86688 254.30136 L 90.16249 254.30136 L 93.45811 254.30136 L 96.753719 254.30136 L 100.04933 254.30136 L 103.34495 254.30136 L 106.64056 254.30136 L 109.93617 254.30136 L 113.23179 254.30136 L 116.5274 254.30136 L 119.82301 254.30136 L 123.11863 254.30136 L 126.41424 254.30136 L 129.70986 254.30136 L 133.00547 254.30136 L 136.30109 254.30136 L 139.5967 254.30136 L 142.8923 254.30136 L 146.18793 254.30136 L 149.48354 254.30136 L 152.77915 254.30136 L 156.07477 254.30136 L 159.37038 254.30136 L 162.66599 254.30136 L 165.96161 254.30136 L 169.25722 254.30136 L 172.55283 254.30136 L 175.84844 254.30136 L 179.14406 254.30136 L 182.43967 254.30136 L 185.73529 254.30136 L 189.0309 254.30136 L 192.3265 254.30136 L 195.62212 254.30136 L 198.91774 254.30136 L 202.21335 254.30136 L 205.50896 254.30136 L 208.80458 254.30136 L 212.10019 254.30136 L 215.3958 254.30136 L 218.69142 254.30136 L 221.98703 254.30136 L 225.28264 254.30136 L 228.57826 254.30136 L 231.87387 254.30136 L 235.16948 254.30136 L 238.4651 254.30136 L 241.76071 254.30136 L 245.05632 254.30136 L 248.35195 254.30136 L 251.64756 254.30136 L 254.94316 254.30136 L 258.23878 254.30136 L 261.5344 254.30136 L 264.83003 254.30136 L 268.1256 254.30136 L 268.1256 263.12727 L 264.83003 263.12727 L 261.5344 263.12727 L 258.23878 263.12727 L 254.94316 263.12727 L 251.64756 263.12727 L 248.35195 263.12727 L 245.05632 263.12727 L 241.76071 263.12727 L 238.4651 263.12727 L 235.16948 263.12727 L 231.87387 263.12727 L 228.57826 263.12727 L 225.28264 263.12727 L 221.98703 263.12727 L 218.69142 263.12727 L 215.3958 263.12727 L 212.10019 263.12727 L 208.80458 263.12727 L 205.50896 263.12727 L 202.21335 263.12727 L 198.91774 263.12727 L 195.62212 263.12727 L 192.3265 263.12727 L 189.0309 263.12727 L 185.73529 263.12727 L 182.43967 263.12727 L 179.14406 263.12727 L 175.84844 263.12727 L 172.55283 263.12727 L 169.25722 263.12727 L 165.96161 263.12727 L 162.66599 263.12727 L 159.37038 263.12727 L 156.07477 263.12727 L 152.77915 263.12727 L 149.48354 263.12727 L 146.18793 263.12727 L 142.8923 263.12727 L 139.5967 263.12727 L 136.30109 263.12727 L 133.00547 263.12727 L 129.70986 263.12727 L 126.41424 263.12727 L 123.11863 263.12727 L 119.82301 263.12727 L 116.5274 263.12727 L 113.23179 263.12727 L 109.93617 263.12727 L 106.64056 263.12727 L 103.34495 263.12727 L 100.04933 263.12727 L 96.753719 263.12727 L 93.45811 263.12727 L 90.16249 263.12727 L 86.86688 263.12727 L 83.571269 263.12727 L 80.27565 263.12727 L 76.98004 263.12727 L 73.684429 263.12727 L 70.38881 263.12727 L 67.0932 263.12727 L 63.797586 263.12727 L 60.501974 263.12727 L 57.206357 263.12727 L 53.910745 263.12727 Z " fill-opacity=".25"/>
<path transform="matrix(2.7777777,0,0,-2.7777777,0,800)" stroke-width="1" stroke-linecap="butt" stroke-linejoin="round" fill="none" stroke="#000000" stroke-opacity=".25" d="M 53.910745 263.12727 L 53.910745 254.30136 L 57.206357 254.30136 L 60.501974 254.30136 L 63.797586 254.30136 L 67.0932 254.30136 L 70.38881 254.30136 L 73.684429 254.30136 L 76.98004 254.30136 L 80.27565 254.30136 L 83.571269 254.30136 L 86.86688 254.30136 L 90.16249 254.30136 L 93.45811 254.30136 L 96.753719 254.30136 L 100.04933 254.30136 L 103.34495 254.30136 L 106.64056 254.30136 L 109.93617 254.30136 L 113.23179 254.30136 L 116.5274 254.30136 L 119.82301 254.30136 L 123.11863 254.30136 L 126.41424 254.30136 L 129.70986 254.30136 L 133.00547 254.30136 L 136.30109 254.30136 L 139.5967 254.30136 L 142.8923 254.30136 L 146.18793 254.30136 L 149.48354 254.30136 L 152.77915 254.30136 L 156.07477 254.30136 L 159.37038 254.30136 L 162.66599 254.30136 L 165.96161 254.30136 L 169.25722 254.30136 L 172.55283 254.30136 L 175.84844 254.30136 L 179.14406 254.30136 L 182.43967 254.30136 L 185.73529 254.30136 L 189.0309 254.30136 L 192.3265 254.30136 L 195.62212 254.30136 L 198.91774 254.30136 L 202.21335 254.30136 L 205.50896 254.30136 L 208.80458 254.30136 L 212.10019 254.30136 L 215.3958 254.30136 L 218.69142 254.30136 L 221.98703 254.30136 L 225.28264 254.30136 L 228.57826 254.30136 L 231.87387 254.30136 L 235.16948 254.30136 L 238.4651 254.30136 L 241.76071 254.30136 L 245.05632 254.30136 L 248.35195 254.30136 L 251.64756 254.30136 L 254.94316 254.30136 L 258.23878 254.30136 L 261.5344 254.30136 L 264.83003 254.30136 L 268.1256 254.30136 L 268.1256 263.12727 L 264.83003 263.12727 L 261.5344 263.12727 L 258.23878 263.12727 L 254.94316 263.12727 L 251.64756 263.12727 L 248.35195 263.12727 L 245.05632 263.12727 L 241.76071 263.12727 L 238.4651 263.12727 L 235.16948 263.12727 L 231.87387 263.12727 L 228.57826 263.12727 L 225.28264 263.12727 L 221.98703 263.12727 L 218.69142 263.12727 L 215.3958 263.12727 L 212.10019 263.12727 L 208.80458 263.12727 L 205.50896 263.12727 L 202.21335 263.12727 L 198.91774 263.12727 L 195.62212 263.12727 L 192.3265 263.12727 L 189.0309 263.12727 L 185.73529 263.12727 L 182.43967 263.12727 L 179.14406 263.12727 L 175.84844 263.12727 L 172.55283 263.12727 L 169.25722 263.12727 L 165.96161 263.12727 L 162.66599 263.12727 L 159.37038 263.12727 L 156.07477 263.12727 L 152.77915 263.12727 L 149.48354 263.12727 L 146.18793 263.12727 L 142.8923 263.12727 L 139.5967 263.12727 L 136.30109 263.12727 L 133.00547 263.12727 L 129.70986 263.12727 L 126.41424 263.12727 L 123.11863 263.12727 L 119.82301 263.12727 L 116.5274 263.12727 L 113.23179 263.12727 L 109.93617 263.12727 L 106.64056 263.12727 L 103.34495 263.12727 L 100.04933 263.12727 L 96.753719 263.12727 L 93.45811 263.12727 L 90.16249 263.12727 L 86.86688 263.12727 L 83.571269 263.12727 L 80.27565 263.12727 L 76.98004 263.12727 L 73.684429 263.12727 L 70.38881 263.12727 L 67.0932 263.12727 L 63.797586 263.12727 L 60.501974 263.12727 L 57.206357 263.12727 L 53.910745 263.12727 Z "/>
</g>
</g>
<clipPath id="cp1">
<path transform="matrix(2.7777777,0,0,-2.7777777,0,800)" d="M 43.2 43.2 L 278.83638 43.2 L 278.83638 273.6 L 43.2 273.6 Z "/>
</clipPath>
<g clip-path="url(#cp1)">
<g>
<path transform="matrix(2.7777777,0,0,-2.7777777,0,800)" d="M 53.910745 99.84785 L 53.910745 99.84785 L 57.206357 99.66154 L 60.501974 99.37688 L 63.797586 99.099498 L 67.0932 98.71279 L 70.38881 98.37476 L 73.684429 98.180728 L 76.98004 98.270069 L 80.27565 98.753269 L 83.571269 99.700298 L 86.86688 101.13302 L 90.16249 103.020969 L 93.45811 105.2808 L 96.753719 107.779758 L 100.04933 110.34296 L 103.34495 112.76434 L 106.64056 114.82031 L 109.93617 116.28498 L 113.23179 116.94584 L 116.5274 116.64641 L 119.82301 115.338848 L 123.11863 112.91165 L 126.41424 109.31973 L 129.70986 104.59496 L 133.00547 98.85475 L 136.30109 92.30544 L 139.5967 85.23764 L 142.8923 78.01159 L 146.18793 71.03295 L 149.48354 64.72267 L 152.77915 59.48745 L 156.07477 55.697137 L 159.37038 53.672727 L 162.66599 53.68363 L 165.96161 55.875715 L 169.25722 60.421854 L 172.55283 67.43226 L 175.84844 76.92285 L 179.14406 88.77287 L 182.43967 102.679538 L 185.73529 118.13153 L 189.0309 134.42998 L 192.3265 150.77472 L 195.62212 166.40139 L 198.91774 180.7168 L 202.21335 193.37558 L 205.50896 204.27373 L 208.80458 213.46416 L 212.10019 221.12343 L 215.3958 227.47151 L 218.69142 232.72774 L 221.98703 237.08931 L 225.28264 240.72336 L 228.57826 243.76609 L 231.87387 246.32489 L 235.16948 248.48126 L 238.4651 250.29291 L 241.76071 251.79454 L 245.05632 252.99683 L 248.35195 253.88289 L 251.64756 254.42563 L 254.94316 254.52445 L 258.23878 254.61083 L 261.5344 254.66115 L 264.83003 254.65415 L 268.1256 254.56743 L 268.1256 259.13206 L 264.83003 259.01255 L 261.5344 258.82188 L 258.23878 258.58216 L 254.94316 258.31425 L 251.64756 258.04096 L 248.35195 257.3353 L 245.05632 256.2918 L 241.76071 254.937 L 238.4651 253.28797 L 235.16948 251.33417 L 231.87387 249.041 L 228.57826 246.3509 L 225.28264 243.18264 L 221.98703 239.42917 L 218.69142 234.95502 L 215.3958 229.59416 L 212.10019 223.15105 L 208.80458 215.40863 L 205.50896 206.14954 L 202.21335 195.19426 L 198.91774 182.44922 L 195.62212 168.02301 L 192.3265 152.26952 L 189.0309 135.79232 L 185.73529 119.365489 L 182.43967 103.79617 L 179.14406 89.78741 L 175.84844 77.85205 L 172.55283 68.29256 L 169.25722 61.228216 L 165.96161 56.641096 L 162.66599 54.418527 L 159.37038 54.37892 L 156.07477 56.36642 L 152.77915 60.11288 L 149.48354 65.299068 L 146.18793 71.55722 L 142.8923 78.48286 L 139.5967 85.65711 L 136.30109 92.67613 L 133.00547 99.1811 L 129.70986 104.88242 L 126.41424 109.574398 L 123.11863 113.139858 L 119.82301 115.54689 L 116.5274 116.84026 L 113.23179 117.12885 L 109.93617 116.45671 L 106.64056 114.97747 L 103.34495 112.9045 L 100.04933 110.46462 L 96.753719 107.88237 L 93.45811 105.36471 L 90.16249 103.087299 L 86.86688 101.18359 L 83.571269 99.737499 L 80.27565 98.77986 L 76.98004 98.289058 L 73.684429 98.19518 L 70.38881 98.38764 L 67.0932 98.7242 L 63.797586 99.10712 L 60.501974 99.3833 L 57.206357 99.66523 L 53.910745 99.84785 Z " fill="#1f77b4" fill-opacity=".25"/>
<path transform="matrix(2.7777777,0,0,-2.7777777,0,800)" stroke-width="1" stroke-linecap="butt" stroke-linejoin="round" fill="none" stroke="#1f77b4" stroke-opacity=".25" d="M 53.910745 99.84785 L 53.910745 99.84785 L 57.206357 99.66154 L 60.501974 99.37688 L 63.797586 99.099498 L 67.0932 98.71279 L 70.38881 98.37476 L 73.684429 98.180728 L 76.98004 98.270069 L 80.27565 98.753269 L 83.571269 99.700298 L 86.86688 101.13302 L 90.16249 103.020969 L 93.45811 105.2808 L 96.753719 107.779758 L 100.04933 110.34296 L 103.34495 112.76434 L 106.64056 114.82031 L 109.93617 116.28498 L 113.23179 116.94584 L 116.5274 116.64641 L 119.82301 115.338848 L 123.11863 112.91165 L 126.41424 109.31973 L 129.70986 104.59496 L 133.00547 98.85475 L 136.30109 92.30544 L 139.5967 85.23764 L 142.8923 78.01159 L 146.18793 71.03295 L 149.48354 64.72267 L 152.77915 59.48745 L 156.07477 55.697137 L 159.37038 53.672727 L 162.66599 53.68363 L 165.96161 55.875715 L 169.25722 60.421854 L 172.55283 67.43226 L 175.84844 76.92285 L 179.14406 88.77287 L 182.43967 102.679538 L 185.73529 118.13153 L 189.0309 134.42998 L 192.3265 150.77472 L 195.62212 166.40139 L 198.91774 180.7168 L 202.21335 193.37558 L 205.50896 204.27373 L 208.80458 213.46416 L 212.10019 221.12343 L 215.3958 227.47151 L 218.69142 232.72774 L 221.98703 237.08931 L 225.28264 240.72336 L 228.57826 243.76609 L 231.87387 246.32489 L 235.16948 248.48126 L 238.4651 250.29291 L 241.76071 251.79454 L 245.05632 252.99683 L 248.35195 253.88289 L 251.64756 254.42563 L 254.94316 254.52445 L 258.23878 254.61083 L 261.5344 254.66115 L 264.83003 254.65415 L 268.1256 254.56743 L 268.1256 259.13206 L 264.83003 259.01255 L 261.5344 258.82188 L 258.23878 258.58216 L 254.94316 258.31425 L 251.64756 258.04096 L 248.35195 257.3353 L 245.05632 256.2918 L 241.76071 254.937 L 238.4651 253.28797 L 235.16948 251.33417 L 231.87387 249.041 L 228.57826 246.3509 L 225.28264 243.18264 L 221.98703 239.42917 L 218.69142 234.95502 L 215.3958 229.59416 L 212.10019 223.15105 L 208.80458 215.40863 L 205.50896 206.14954 L 202.21335 195.19426 L 198.91774 182.44922 L 195.62212 168.02301 L 192.3265 152.26952 L 189.0309 135.79232 L 185.73529 119.365489 L 182.43967 103.79617 L 179.14406 89.78741 L 175.84844 77.85205 L 172.55283 68.29256 L 169.25722 61.228216 L 165.96161 56.641096 L 162.66599 54.418527 L 159.37038 54.37892 L 156.07477 56.36642 L 152.77915 60.11288 L 149.48354 65.299068 L 146.18793 71.55722 L 142.8923 78.48286 L 139.5967 85.65711 L 136.30109 92.67613 L 133.00547 99.1811 L 129.70986 104.88242 L 126.41424 109.574398 L 123.11863 113.139858 L 119.82301 115.54689 L 116.5274 116.84026 L 113.23179 117.12885 L 109.93617 116.45671 L 106.64056 114.97747 L 103.34495 112.9045 L 100.04933 110.46462 L 96.753719 107.88237 L 93.45811 105.36471 L 90.16249 103.087299 L 86.86688 101.18359 L 83.571269 99.737499 L 80.27565 98.77986 L 76.98004 98.289058 L 73.684429 98.19518 L 70.38881 98.38764 L 67.0932 98.7242 L 63.797586 99.10712 L 60.501974 99.3833 L 57.206357 99.66523 L 53.910745 99.84785 Z "/>
</g>
</g>
<path transform="matrix(2.7777777,0,0,-2.7777777,0,800)" stroke-width=".8" stroke-linecap="butt" stroke-linejoin="round" fill="none" stroke="#000000" d="M 53.910745 43.2 L 53.910745 39.7 "/>
<symbol id="font_2_32">
<path d="M .407 .34100003 C .407 .42400003 .402 .50500008 .366 .58100005 C .32500003 .66400006 .253 .68600007 .204 .68600007 C .146 .68600007 .075 .65700009 .038000004 .57400009 C .010000002 .51100006 0 .44900004 0 .34100003 C 0 .244 .0069999995 .171 .043000007 .10000001 C .082 .024000003 .151 0 .20300001 0 C .29000003 0 .34 .052 .36900003 .11 C .405 .185 .407 .28300003 .407 .34100003 M .20300001 .020000002 C .171 .020000002 .106 .038000004 .087000008 .147 C .076000008 .207 .076000008 .28300003 .076000008 .35300002 C .076000008 .43500004 .076000008 .50900009 .092 .5680001 C .109000008 .63500007 .16 .66600009 .20300001 .66600009 C .241 .66600009 .299 .64300009 .31800003 .55700007 C .331 .50000008 .331 .421 .331 .35300002 C .331 .286 .331 .21000001 .32000003 .149 C .301 .039000006 .238 .020000002 .20300001 .020000002 Z "/>
</symbol>
<use xlink:href="#font_2_32" transform="matrix(38.7436,0,0,-38.7436,141.85654,727.8626)"/>
<path transform="matrix(2.7777777,0,0,-2.7777777,0,800)" stroke-width=".8" stroke-linecap="butt" stroke-linejoin="round" fill="none" stroke="#000000" d="M 119.82301 43.2 L 119.82301 39.7 "/>
<symbol id="font_2_33">
<path d="M .19700001 .64100006 C .19700001 .66400006 .19700001 .665 .177 .665 C .15300001 .638 .103 .601 0 .601 L 0 .572 C .023000002 .572 .073 .572 .128 .59800007 L .128 .07700001 C .128 .041 .125 .029000001 .037 .029000001 L .0059999974 .029000001 L .0059999974 0 C .033 .002 .13000001 .002 .163 .002 C .196 .002 .292 .002 .319 0 L .319 .029000001 L .288 .029000001 C .2 .029000001 .19700001 .041 .19700001 .07700001 L .19700001 .64100006 Z "/>
</symbol>
<use xlink:href="#font_2_33" transform="matrix(38.7436,0,0,-38.7436,326.88334,727.049)"/>
<path transform="matrix(2.7777777,0,0,-2.7777777,0,800)" stroke-width=".8" stroke-linecap="butt" stroke-linejoin="round" fill="none" stroke="#000000" d="M 185.73529 43.2 L 185.73529 39.7 "/>
<symbol id="font_2_34">
<path d="M .39100004 .16800002 L .36900003 .16800002 C .36600004 .15100001 .358 .096 .34800003 .080000009 C .34100003 .071 .284 .071 .254 .071 L .069000009 .071 C .09600001 .094000007 .157 .158 .183 .18200001 C .335 .32200004 .39100004 .374 .39100004 .47300003 C .39100004 .588 .3 .665 .18400002 .665 C .068 .665 0 .56600007 0 .48000003 C 0 .42900003 .044 .42900003 .047 .42900003 C .068 .42900003 .094000007 .44400005 .094000007 .476 C .094000007 .504 .075 .523 .047 .523 C .038000004 .523 .036 .523 .033 .522 C .052 .59000006 .106 .63600006 .171 .63600006 C .256 .63600006 .30800004 .565 .30800004 .47300003 C .30800004 .388 .25900004 .314 .20200002 .25 L 0 .024 L 0 0 L .36500005 0 L .39100004 .16800002 Z "/>
</symbol>
<use xlink:href="#font_2_34" transform="matrix(38.7436,0,0,-38.7436,508.34577,727.049)"/>
<path transform="matrix(2.7777777,0,0,-2.7777777,0,800)" stroke-width=".8" stroke-linecap="butt" stroke-linejoin="round" fill="none" stroke="#000000" d="M 251.64756 43.2 L 251.64756 39.7 "/>
<symbol id="font_2_35">
<path d="M .143 .38000003 C .12600002 .379 .122 .37800003 .122 .36900003 C .122 .35900004 .127 .35900004 .14500001 .35900004 L .19100002 .35900004 C .276 .35900004 .314 .289 .314 .193 C .314 .062000004 .24599999 .027000003 .197 .027000003 C .14900002 .027000003 .067 .050000006 .038000004 .11600001 C .07000001 .111 .099 .12900001 .099 .165 C .099 .194 .078 .214 .050000006 .214 C .026 .214 0 .2 0 .162 C 0 .073 .08900001 0 .20000002 0 C .319 0 .407 .091000009 .407 .192 C .407 .284 .333 .356 .23700002 .37300004 C .324 .398 .38000003 .47100003 .38000003 .549 C .38000003 .6280001 .298 .68600007 .201 .68600007 C .101 .68600007 .027000003 .62500008 .027000003 .55200007 C .027000003 .512 .058000007 .504 .07300001 .504 C .094000007 .504 .11800001 .51900008 .11800001 .549 C .11800001 .58100005 .094000007 .595 .072000008 .595 C .06600001 .595 .064 .595 .061000006 .59400007 C .099 .66200008 .19300002 .66200008 .19800002 .66200008 C .231 .66200008 .296 .6470001 .296 .549 C .296 .53000006 .293 .474 .264 .43100003 C .234 .38700003 .20000002 .384 .17300001 .38300003 L .143 .38000003 Z "/>
</symbol>
<use xlink:href="#font_2_35" transform="matrix(38.7436,0,0,-38.7436,691.1254,727.8626)"/>
<symbol id="font_3_75">
<path d="M .179 .412 L .271 .412 C .29 .412 .3 .412 .3 .43 C .3 .441 .294 .441 .274 .441 L .186 .441 L .223 .587 C .22700002 .601 .22700002 .60300007 .22700002 .61 C .22700002 .62600007 .21400002 .635 .201 .635 C .193 .635 .17 .632 .16200002 .6 L .12300001 .441 L .029000001 .441 C .009 .441 0 .441 0 .42200003 C 0 .412 .0069999995 .412 .025999999 .412 L .11500001 .412 L .049000004 .14800002 C .041 .113000009 .038000004 .103 .038000004 .09 C .038000004 .043 .071 0 .127 0 C .228 0 .282 .14600002 .282 .15300001 C .282 .15900001 .278 .16200002 .27199999 .16200002 C .27 .16200002 .266 .16200002 .264 .158 C .263 .157 .262 .15600002 .255 .14000002 C .23400001 .09 .18800001 .020000002 .13000001 .020000002 C .10000001 .020000002 .098000008 .045 .098000008 .067 C .098000008 .068 .098000008 .087000008 .101 .099 L .179 .412 Z "/>
</symbol>
<use xlink:href="#font_3_75" transform="matrix(38.7436,0,0,-38.7436,441.2755,774.4043)"/>
<path transform="matrix(2.7777777,0,0,-2.7777777,0,800)" stroke-width=".8" stroke-linecap="butt" stroke-linejoin="round" fill="none" stroke="#000000" d="M 43.2 49.27908 L 39.7 49.27908 "/>
<symbol id="font_4_1">
<path d="M .57600006 0 C .59300008 0 .611 0 .611 .019999996 C .611 .040000008 .59300008 .040000008 .57600006 .040000008 L .035000005 .040000008 C .018 .040000008 0 .040000008 0 .019999996 C 0 0 .018 0 .035000005 0 L .57600006 0 Z "/>
</symbol>
<use xlink:href="#font_4_1" transform="matrix(38.7436,0,0,-38.7436,54.66926,668.00497)"/>
<use xlink:href="#font_2_33" transform="matrix(38.7436,0,0,-38.7436,85.11319,676.91598)"/>
<path transform="matrix(2.7777777,0,0,-2.7777777,0,800)" stroke-width=".8" stroke-linecap="butt" stroke-linejoin="round" fill="none" stroke="#000000" d="M 43.2 99.84785 L 39.7 99.84785 "/>
<use xlink:href="#font_2_32" transform="matrix(38.7436,0,0,-38.7436,83.17602,537.26077)"/>
<path transform="matrix(2.7777777,0,0,-2.7777777,0,800)" stroke-width=".8" stroke-linecap="butt" stroke-linejoin="round" fill="none" stroke="#000000" d="M 43.2 150.41661 L 39.7 150.41661 "/>
<use xlink:href="#font_2_33" transform="matrix(38.7436,0,0,-38.7436,85.1132,395.9784)"/>
<path transform="matrix(2.7777777,0,0,-2.7777777,0,800)" stroke-width=".8" stroke-linecap="butt" stroke-linejoin="round" fill="none" stroke="#000000" d="M 43.2 200.98538 L 39.7 200.98538 "/>
<use xlink:href="#font_2_34" transform="matrix(38.7436,0,0,-38.7436,83.48597,255.50959)"/>
<path transform="matrix(2.7777777,0,0,-2.7777777,0,800)" stroke-width=".8" stroke-linecap="butt" stroke-linejoin="round" fill="none" stroke="#000000" d="M 43.2 251.55416 L 39.7 251.55416 "/>
<use xlink:href="#font_2_35" transform="matrix(38.7436,0,0,-38.7436,83.17602,115.854389)"/>
<symbol id="font_3_13">
<path d="M .40300004 .513 C .40300004 .615 .37100003 .71400007 .28900004 .71400007 C .149 .71400007 0 .421 0 .20100002 C 0 .15500002 .009999998 0 .114999998 0 C .25100003 0 .40300004 .286 .40300004 .513 M .099999997 .372 C .114999998 .43100003 .136 .515 .176 .586 C .209 .646 .244 .694 .28800003 .694 C .32100005 .694 .34300003 .666 .34300003 .57 C .34300003 .53400006 .34000004 .48400004 .31100003 .372 L .099999997 .372 M .30400003 .342 C .279 .24400002 .25800003 .18100001 .22200002 .118 C .193 .067 .158 .020000002 .116 .020000002 C .08499999 .020000002 .06 .044000005 .06 .143 C .06 .20800002 .076000008 .276 .09199999 .342 L .30400003 .342 Z "/>
</symbol>
<use xlink:href="#font_3_13" transform="matrix(38.7436,0,0,-38.7436,30.275008,352.1353)"/>
<clipPath id="cp5">
<path transform="matrix(2.7777777,0,0,-2.7777777,0,800)" d="M 43.2 43.2 L 278.83638 43.2 L 278.83638 273.6 L 43.2 273.6 Z "/>
</clipPath>
<g clip-path="url(#cp5)">
<path transform="matrix(2.7777777,0,0,-2.7777777,0,800)" stroke-width="1.5" stroke-linecap="square" stroke-linejoin="round" fill="none" stroke="#000000" d="M 53.910745 99.84785 L 57.206357 99.66338 L 60.501974 99.38009 L 63.797586 99.1033 L 67.0932 98.71849 L 70.38881 98.3812 L 73.684429 98.18795 L 76.98004 98.27956 L 80.27565 98.76656 L 83.571269 99.718898 L 86.86688 101.15831 L 90.16249 103.05413 L 93.45811 105.322757 L 96.753719 107.83106 L 100.04933 110.403789 L 103.34495 112.83442 L 106.64056 114.898899 L 109.93617 116.37084 L 113.23179 117.037349 L 116.5274 116.74334 L 119.82301 115.44287 L 123.11863 113.02576 L 126.41424 109.44707 L 129.70986 104.73869 L 133.00547 99.01793 L 136.30109 92.49079 L 139.5967 85.44737 L 142.8923 78.24722 L 146.18793 71.29508 L 149.48354 65.01087 L 152.77915 59.800165 L 156.07477 56.03178 L 159.37038 54.025827 L 162.66599 54.05108 L 165.96161 56.258405 L 169.25722 60.825037 L 172.55283 67.86241 L 175.84844 77.38745 L 179.14406 89.28014 L 182.43967 103.237857 L 185.73529 118.748508 L 189.0309 135.11115 L 192.3265 151.52213 L 195.62212 167.21219 L 198.91774 181.58301 L 202.21335 194.28491 L 205.50896 205.21163 L 208.80458 214.4364 L 212.10019 222.13724 L 215.3958 228.53284 L 218.69142 233.84139 L 221.98703 238.25925 L 225.28264 241.953 L 228.57826 245.05849 L 231.87387 247.68294 L 235.16948 249.90772 L 238.4651 251.79044 L 241.76071 253.36577 L 245.05632 254.64432 L 248.35195 255.6091 L 251.64756 256.23329 L 254.94316 256.41935 L 258.23878 256.5965 L 261.5344 256.74153 L 264.83003 256.83335 L 268.1256 256.84974 "/>
</g>
<clipPath id="cp6">
<path transform="matrix(2.7777777,0,0,-2.7777777,0,800)" d="M 43.2 43.2 L 278.83638 43.2 L 278.83638 273.6 L 43.2 273.6 Z "/>
</clipPath>
<g clip-path="url(#cp6)">
<path transform="matrix(2.7777777,0,0,-2.7777777,0,800)" stroke-width="1.5" stroke-linecap="square" stroke-linejoin="round" fill="none" stroke="#000000" d="M 53.910745 254.30136 L 57.206357 254.30136 L 60.501974 254.30136 L 63.797586 254.30136 L 67.0932 254.30136 L 70.38881 254.30136 L 73.684429 254.30136 L 76.98004 254.30136 L 80.27565 254.30136 L 83.571269 254.30136 L 86.86688 254.30136 L 90.16249 254.30136 L 93.45811 254.30136 L 96.753719 254.30136 L 100.04933 254.30136 L 103.34495 254.30136 L 106.64056 254.30136 L 109.93617 254.30136 L 113.23179 254.30136 L 116.5274 254.30136 L 119.82301 254.30136 L 123.11863 254.30136 L 126.41424 254.30136 L 129.70986 254.30136 L 133.00547 254.30136 L 136.30109 254.30136 L 139.5967 254.30136 L 142.8923 254.30136 L 146.18793 254.30136 L 149.48354 254.30136 L 152.77915 254.30136 L 156.07477 254.30136 L 159.37038 254.30136 L 162.66599 254.30136 L 165.96161 254.30136 L 169.25722 254.30136 L 172.55283 254.30136 L 175.84844 254.30136 L 179.14406 254.30136 L 182.43967 254.30136 L 185.73529 254.30136 L 189.0309 254.30136 L 192.3265 254.30136 L 195.62212 254.30136 L 198.91774 254.30136 L 202.21335 254.30136 L 205.50896 254.30136 L 208.80458 254.30136 L 212.10019 254.30136 L 215.3958 254.30136 L 218.69142 254.30136 L 221.98703 254.30136 L 225.28264 254.30136 L 228.57826 254.30136 L 231.87387 254.30136 L 235.16948 254.30136 L 238.4651 254.30136 L 241.76071 254.30136 L 245.05632 254.30136 L 248.35195 254.30136 L 251.64756 254.30136 L 254.94316 254.30136 L 258.23878 254.30136 L 261.5344 254.30136 L 264.83003 254.30136 L 268.1256 254.30136 "/>
</g>
<clipPath id="cp7">
<path transform="matrix(2.7777777,0,0,-2.7777777,0,800)" d="M 43.2 43.2 L 278.83638 43.2 L 278.83638 273.6 L 43.2 273.6 Z "/>
</clipPath>
<g clip-path="url(#cp7)">
<path transform="matrix(2.7777777,0,0,-2.7777777,0,800)" stroke-width="1.5" stroke-linecap="square" stroke-linejoin="round" fill="none" stroke="#000000" d="M 53.910745 263.12727 L 57.206357 263.12727 L 60.501974 263.12727 L 63.797586 263.12727 L 67.0932 263.12727 L 70.38881 263.12727 L 73.684429 263.12727 L 76.98004 263.12727 L 80.27565 263.12727 L 83.571269 263.12727 L 86.86688 263.12727 L 90.16249 263.12727 L 93.45811 263.12727 L 96.753719 263.12727 L 100.04933 263.12727 L 103.34495 263.12727 L 106.64056 263.12727 L 109.93617 263.12727 L 113.23179 263.12727 L 116.5274 263.12727 L 119.82301 263.12727 L 123.11863 263.12727 L 126.41424 263.12727 L 129.70986 263.12727 L 133.00547 263.12727 L 136.30109 263.12727 L 139.5967 263.12727 L 142.8923 263.12727 L 146.18793 263.12727 L 149.48354 263.12727 L 152.77915 263.12727 L 156.07477 263.12727 L 159.37038 263.12727 L 162.66599 263.12727 L 165.96161 263.12727 L 169.25722 263.12727 L 172.55283 263.12727 L 175.84844 263.12727 L 179.14406 263.12727 L 182.43967 263.12727 L 185.73529 263.12727 L 189.0309 263.12727 L 192.3265 263.12727 L 195.62212 263.12727 L 198.91774 263.12727 L 202.21335 263.12727 L 205.50896 263.12727 L 208.80458 263.12727 L 212.10019 263.12727 L 215.3958 263.12727 L 218.69142 263.12727 L 221.98703 263.12727 L 225.28264 263.12727 L 228.57826 263.12727 L 231.87387 263.12727 L 235.16948 263.12727 L 238.4651 263.12727 L 241.76071 263.12727 L 245.05632 263.12727 L 248.35195 263.12727 L 251.64756 263.12727 L 254.94316 263.12727 L 258.23878 263.12727 L 261.5344 263.12727 L 264.83003 263.12727 L 268.1256 263.12727 "/>
</g>
<clipPath id="cp8">
<path transform="matrix(2.7777777,0,0,-2.7777777,0,800)" d="M 43.2 43.2 L 278.83638 43.2 L 278.83638 273.6 L 43.2 273.6 Z "/>
</clipPath>
<g clip-path="url(#cp8)">
<path transform="matrix(2.7777777,0,0,-2.7777777,0,800)" stroke-width="1.5" stroke-linecap="square" stroke-linejoin="round" fill="none" stroke="#1f77b4" d="M 53.910745 99.84785 L 57.206357 99.66154 L 60.501974 99.37688 L 63.797586 99.099498 L 67.0932 98.71279 L 70.38881 98.37476 L 73.684429 98.180728 L 76.98004 98.270069 L 80.27565 98.753269 L 83.571269 99.700298 L 86.86688 101.13302 L 90.16249 103.020969 L 93.45811 105.2808 L 96.753719 107.779758 L 100.04933 110.34296 L 103.34495 112.76434 L 106.64056 114.82031 L 109.93617 116.28498 L 113.23179 116.94584 L 116.5274 116.64641 L 119.82301 115.338848 L 123.11863 112.91165 L 126.41424 109.31973 L 129.70986 104.59496 L 133.00547 98.85475 L 136.30109 92.30544 L 139.5967 85.23764 L 142.8923 78.01159 L 146.18793 71.03295 L 149.48354 64.72267 L 152.77915 59.48745 L 156.07477 55.697137 L 159.37038 53.672727 L 162.66599 53.68363 L 165.96161 55.875715 L 169.25722 60.421854 L 172.55283 67.43226 L 175.84844 76.92285 L 179.14406 88.77287 L 182.43967 102.679538 L 185.73529 118.13153 L 189.0309 134.42998 L 192.3265 150.77472 L 195.62212 166.40139 L 198.91774 180.7168 L 202.21335 193.37558 L 205.50896 204.27373 L 208.80458 213.46416 L 212.10019 221.12343 L 215.3958 227.47151 L 218.69142 232.72774 L 221.98703 237.08931 L 225.28264 240.72336 L 228.57826 243.76609 L 231.87387 246.32489 L 235.16948 248.48126 L 238.4651 250.29291 L 241.76071 251.79454 L 245.05632 252.99683 L 248.35195 253.88289 L 251.64756 254.42563 L 254.94316 254.52445 L 258.23878 254.61083 L 261.5344 254.66115 L 264.83003 254.65415 L 268.1256 254.56743 "/>
</g>
<clipPath id="cp9">
<path transform="matrix(2.7777777,0,0,-2.7777777,0,800)" d="M 43.2 43.2 L 278.83638 43.2 L 278.83638 273.6 L 43.2 273.6 Z "/>
</clipPath>
<g clip-path="url(#cp9)">
<path transform="matrix(2.7777777,0,0,-2.7777777,0,800)" stroke-width="1.5" stroke-linecap="square" stroke-linejoin="round" fill="none" stroke="#1f77b4" d="M 53.910745 99.84785 L 57.206357 99.66523 L 60.501974 99.3833 L 63.797586 99.10712 L 67.0932 98.7242 L 70.38881 98.38764 L 73.684429 98.19518 L 76.98004 98.289058 L 80.27565 98.77986 L 83.571269 99.737499 L 86.86688 101.18359 L 90.16249 103.087299 L 93.45811 105.36471 L 96.753719 107.88237 L 100.04933 110.46462 L 103.34495 112.9045 L 106.64056 114.97747 L 109.93617 116.45671 L 113.23179 117.12885 L 116.5274 116.84026 L 119.82301 115.54689 L 123.11863 113.139858 L 126.41424 109.574398 L 129.70986 104.88242 L 133.00547 99.1811 L 136.30109 92.67613 L 139.5967 85.65711 L 142.8923 78.48286 L 146.18793 71.55722 L 149.48354 65.299068 L 152.77915 60.11288 L 156.07477 56.36642 L 159.37038 54.37892 L 162.66599 54.418527 L 165.96161 56.641096 L 169.25722 61.228216 L 172.55283 68.29256 L 175.84844 77.85205 L 179.14406 89.78741 L 182.43967 103.79617 L 185.73529 119.365489 L 189.0309 135.79232 L 192.3265 152.26952 L 195.62212 168.02301 L 198.91774 182.44922 L 202.21335 195.19426 L 205.50896 206.14954 L 208.80458 215.40863 L 212.10019 223.15105 L 215.3958 229.59416 L 218.69142 234.95502 L 221.98703 239.42917 L 225.28264 243.18264 L 228.57826 246.3509 L 231.87387 249.041 L 235.16948 251.33417 L 238.4651 253.28797 L 241.76071 254.937 L 245.05632 256.2918 L 248.35195 257.3353 L 251.64756 258.04096 L 254.94316 258.31425 L 258.23878 258.58216 L 261.5344 258.82188 L 264.83003 259.01255 L 268.1256 259.13206 "/>
</g>
<path transform="matrix(2.7777777,0,0,-2.7777777,0,800)" stroke-width=".8" stroke-linecap="square" stroke-miterlimit="10" stroke-linejoin="miter" fill="none" stroke="#000000" d="M 43.2 43.2 L 43.2 273.6 "/>
<path transform="matrix(2.7777777,0,0,-2.7777777,0,800)" stroke-width=".8" stroke-linecap="square" stroke-miterlimit="10" stroke-linejoin="miter" fill="none" stroke="#000000" d="M 278.83638 43.2 L 278.83638 273.6 "/>
<path transform="matrix(2.7777777,0,0,-2.7777777,0,800)" stroke-width=".8" stroke-linecap="square" stroke-miterlimit="10" stroke-linejoin="miter" fill="none" stroke="#000000" d="M 43.2 43.2 L 278.83638 43.2 "/>
<path transform="matrix(2.7777777,0,0,-2.7777777,0,800)" stroke-width=".8" stroke-linecap="square" stroke-miterlimit="10" stroke-linejoin="miter" fill="none" stroke="#000000" d="M 43.2 273.6 L 278.83638 273.6 "/>
<path transform="matrix(2.7777777,0,0,-2.7777777,0,800)" d="M 325.96363 43.2 L 561.6 43.2 L 561.6 273.6 L 325.96363 273.6 Z " fill="#ffffff"/>
<clipPath id="cp10">
<path transform="matrix(2.7777777,0,0,-2.7777777,0,800)" d="M 325.96363 43.2 L 561.6 43.2 L 561.6 273.6 L 325.96363 273.6 Z "/>
</clipPath>
<g clip-path="url(#cp10)">
<g>
<path transform="matrix(2.7777777,0,0,-2.7777777,0,800)" d="M 336.67439 119.76021 L 336.67439 115.29168 L 339.97 115.29168 L 343.2656 115.29168 L 346.56123 115.29168 L 349.85685 115.29168 L 353.15245 115.29168 L 356.44807 115.29168 L 359.74369 115.29168 L 363.03929 115.29168 L 366.3349 115.29168 L 369.63053 115.29168 L 372.92613 115.29168 L 376.22175 115.29168 L 379.51737 115.29168 L 382.81297 115.29168 L 386.10859 115.29168 L 389.4042 115.29168 L 392.6998 115.29168 L 395.99543 115.29168 L 399.29106 115.29168 L 402.58665 115.29168 L 405.88227 115.29168 L 409.1779 115.29168 L 412.47349 115.29168 L 415.7691 115.29168 L 419.06474 115.29168 L 422.36033 115.29168 L 425.65596 115.29168 L 428.95158 115.29168 L 432.24717 115.29168 L 435.5428 115.29168 L 438.8384 115.29168 L 442.134 115.29168 L 445.42964 115.29168 L 448.72526 115.29168 L 452.02085 115.29168 L 455.31648 115.29168 L 458.6121 115.29168 L 461.90769 115.29168 L 465.2033 115.29168 L 468.49894 115.29168 L 471.79454 115.29168 L 475.09016 115.29168 L 478.38578 115.29168 L 481.68138 115.29168 L 484.977 115.29168 L 488.2726 115.29168 L 491.5682 115.29168 L 494.86384 115.29168 L 498.15946 115.29168 L 501.45506 115.29168 L 504.75068 115.29168 L 508.0463 115.29168 L 511.3419 115.29168 L 514.6375 115.29168 L 517.9331 115.29168 L 521.22879 115.29168 L 524.52438 115.29168 L 527.81997 115.29168 L 531.1156 115.29168 L 534.4112 115.29168 L 537.7068 115.29168 L 541.00247 115.29168 L 544.29806 115.29168 L 547.5936 115.29168 L 550.8893 115.29168 L 550.8893 119.76021 L 547.5936 119.76021 L 544.29806 119.76021 L 541.00247 119.76021 L 537.7068 119.76021 L 534.4112 119.76021 L 531.1156 119.76021 L 527.81997 119.76021 L 524.52438 119.76021 L 521.22879 119.76021 L 517.9331 119.76021 L 514.6375 119.76021 L 511.3419 119.76021 L 508.0463 119.76021 L 504.75068 119.76021 L 501.45506 119.76021 L 498.15946 119.76021 L 494.86384 119.76021 L 491.5682 119.76021 L 488.2726 119.76021 L 484.977 119.76021 L 481.68138 119.76021 L 478.38578 119.76021 L 475.09016 119.76021 L 471.79454 119.76021 L 468.49894 119.76021 L 465.2033 119.76021 L 461.90769 119.76021 L 458.6121 119.76021 L 455.31648 119.76021 L 452.02085 119.76021 L 448.72526 119.76021 L 445.42964 119.76021 L 442.134 119.76021 L 438.8384 119.76021 L 435.5428 119.76021 L 432.24717 119.76021 L 428.95158 119.76021 L 425.65596 119.76021 L 422.36033 119.76021 L 419.06474 119.76021 L 415.7691 119.76021 L 412.47349 119.76021 L 409.1779 119.76021 L 405.88227 119.76021 L 402.58665 119.76021 L 399.29106 119.76021 L 395.99543 119.76021 L 392.6998 119.76021 L 389.4042 119.76021 L 386.10859 119.76021 L 382.81297 119.76021 L 379.51737 119.76021 L 376.22175 119.76021 L 372.92613 119.76021 L 369.63053 119.76021 L 366.3349 119.76021 L 363.03929 119.76021 L 359.74369 119.76021 L 356.44807 119.76021 L 353.15245 119.76021 L 349.85685 119.76021 L 346.56123 119.76021 L 343.2656 119.76021 L 339.97 119.76021 L 336.67439 119.76021 Z " fill-opacity=".25"/>
<path transform="matrix(2.7777777,0,0,-2.7777777,0,800)" stroke-width="1" stroke-linecap="butt" stroke-linejoin="round" fill="none" stroke="#000000" stroke-opacity=".25" d="M 336.67439 119.76021 L 336.67439 115.29168 L 339.97 115.29168 L 343.2656 115.29168 L 346.56123 115.29168 L 349.85685 115.29168 L 353.15245 115.29168 L 356.44807 115.29168 L 359.74369 115.29168 L 363.03929 115.29168 L 366.3349 115.29168 L 369.63053 115.29168 L 372.92613 115.29168 L 376.22175 115.29168 L 379.51737 115.29168 L 382.81297 115.29168 L 386.10859 115.29168 L 389.4042 115.29168 L 392.6998 115.29168 L 395.99543 115.29168 L 399.29106 115.29168 L 402.58665 115.29168 L 405.88227 115.29168 L 409.1779 115.29168 L 412.47349 115.29168 L 415.7691 115.29168 L 419.06474 115.29168 L 422.36033 115.29168 L 425.65596 115.29168 L 428.95158 115.29168 L 432.24717 115.29168 L 435.5428 115.29168 L 438.8384 115.29168 L 442.134 115.29168 L 445.42964 115.29168 L 448.72526 115.29168 L 452.02085 115.29168 L 455.31648 115.29168 L 458.6121 115.29168 L 461.90769 115.29168 L 465.2033 115.29168 L 468.49894 115.29168 L 471.79454 115.29168 L 475.09016 115.29168 L 478.38578 115.29168 L 481.68138 115.29168 L 484.977 115.29168 L 488.2726 115.29168 L 491.5682 115.29168 L 494.86384 115.29168 L 498.15946 115.29168 L 501.45506 115.29168 L 504.75068 115.29168 L 508.0463 115.29168 L 511.3419 115.29168 L 514.6375 115.29168 L 517.9331 115.29168 L 521.22879 115.29168 L 524.52438 115.29168 L 527.81997 115.29168 L 531.1156 115.29168 L 534.4112 115.29168 L 537.7068 115.29168 L 541.00247 115.29168 L 544.29806 115.29168 L 547.5936 115.29168 L 550.8893 115.29168 L 550.8893 119.76021 L 547.5936 119.76021 L 544.29806 119.76021 L 541.00247 119.76021 L 537.7068 119.76021 L 534.4112 119.76021 L 531.1156 119.76021 L 527.81997 119.76021 L 524.52438 119.76021 L 521.22879 119.76021 L 517.9331 119.76021 L 514.6375 119.76021 L 511.3419 119.76021 L 508.0463 119.76021 L 504.75068 119.76021 L 501.45506 119.76021 L 498.15946 119.76021 L 494.86384 119.76021 L 491.5682 119.76021 L 488.2726 119.76021 L 484.977 119.76021 L 481.68138 119.76021 L 478.38578 119.76021 L 475.09016 119.76021 L 471.79454 119.76021 L 468.49894 119.76021 L 465.2033 119.76021 L 461.90769 119.76021 L 458.6121 119.76021 L 455.31648 119.76021 L 452.02085 119.76021 L 448.72526 119.76021 L 445.42964 119.76021 L 442.134 119.76021 L 438.8384 119.76021 L 435.5428 119.76021 L 432.24717 119.76021 L 428.95158 119.76021 L 425.65596 119.76021 L 422.36033 119.76021 L 419.06474 119.76021 L 415.7691 119.76021 L 412.47349 119.76021 L 409.1779 119.76021 L 405.88227 119.76021 L 402.58665 119.76021 L 399.29106 119.76021 L 395.99543 119.76021 L 392.6998 119.76021 L 389.4042 119.76021 L 386.10859 119.76021 L 382.81297 119.76021 L 379.51737 119.76021 L 376.22175 119.76021 L 372.92613 119.76021 L 369.63053 119.76021 L 366.3349 119.76021 L 363.03929 119.76021 L 359.74369 119.76021 L 356.44807 119.76021 L 353.15245 119.76021 L 349.85685 119.76021 L 346.56123 119.76021 L 343.2656 119.76021 L 339.97 119.76021 L 336.67439 119.76021 Z "/>
</g>
</g>
<clipPath id="cp11">
<path transform="matrix(2.7777777,0,0,-2.7777777,0,800)" d="M 325.96363 43.2 L 561.6 43.2 L 561.6 273.6 L 325.96363 273.6 Z "/>
</clipPath>
<g clip-path="url(#cp11)">
<g>
<path transform="matrix(2.7777777,0,0,-2.7777777,0,800)" d="M 336.67439 115.91224 L 336.67439 115.87964 L 339.97 115.01049 L 343.2656 115.07486 L 346.56123 114.10884 L 349.85685 114.53892 L 353.15245 115.81133 L 356.44807 118.31543 L 359.74369 121.79578 L 363.03929 125.89438 L 366.3349 130.18624 L 369.63053 134.20885 L 372.92613 137.49506 L 376.22175 139.608 L 379.51737 140.17574 L 382.81297 138.92263 L 386.10859 135.6936 L 389.4042 130.46849 L 392.6998 123.36568 L 395.99543 114.87999 L 399.29106 105.97162 L 402.58665 96.07801 L 405.88227 85.78584 L 409.1779 75.77533 L 412.47349 66.80244 L 415.7691 59.652769 L 419.06474 55.071077 L 422.36033 53.672727 L 425.65596 55.85897 L 428.95158 61.765016 L 432.24717 71.26474 L 435.5428 84.03272 L 438.8384 99.63719 L 442.134 117.622287 L 445.42964 136.89635 L 448.72526 157.69803 L 452.02085 179.47364 L 455.31648 201.38983 L 458.6121 222.23903 L 461.90769 240.41259 L 465.2033 254.06795 L 468.49894 261.54768 L 471.79454 261.95677 L 475.09016 255.61139 L 478.38578 244.02457 L 481.68138 229.38571 L 484.977 213.8277 L 488.2726 198.73748 L 491.5682 185.20729 L 494.86384 173.62108 L 498.15946 163.97275 L 501.45506 156.06711 L 504.75068 149.63832 L 508.0463 144.41298 L 511.3419 140.13692 L 514.6375 136.58086 L 517.9331 133.53464 L 521.22879 130.79517 L 524.52438 128.14992 L 527.81997 125.35573 L 531.1156 122.32183 L 534.4112 118.39913 L 537.7068 118.28927 L 541.00247 117.97057 L 544.29806 117.46413 L 547.5936 116.75966 L 550.8893 115.851718 L 550.8893 117.75452 L 547.5936 118.58196 L 544.29806 119.21066 L 541.00247 119.64431 L 537.7068 119.89346 L 534.4112 119.94085 L 531.1156 123.76141 L 527.81997 126.74681 L 524.52438 129.49773 L 521.22879 132.0977 L 517.9331 134.7907 L 514.6375 137.78955 L 511.3419 141.29706 L 508.0463 145.52249 L 504.75068 150.69353 L 501.45506 157.06188 L 498.15946 164.8973 L 494.86384 174.46083 L 491.5682 185.942 L 488.2726 199.34426 L 484.977 214.33258 L 481.68138 230.14786 L 478.38578 245.00353 L 475.09016 256.73216 L 471.79454 263.12727 L 468.49894 262.68214 L 465.2033 255.10466 L 461.90769 241.3148 L 458.6121 222.9931 L 455.31648 201.9987 L 452.02085 179.9502 L 448.72526 158.06017 L 445.42964 137.16574 L 442.134 117.875919 L 438.8384 99.963359 L 435.5428 84.42024 L 432.24717 71.69804 L 428.95158 62.225595 L 425.65596 56.32736 L 422.36033 54.130437 L 419.06474 55.502126 L 415.7691 60.0446 L 412.47349 67.14605 L 409.1779 76.0652 L 405.88227 86.01962 L 402.58665 96.25608 L 399.29106 106.09705 L 395.99543 114.975818 L 392.6998 123.46537 L 389.4042 130.59728 L 386.10859 135.8438 L 382.81297 139.08602 L 379.51737 140.34406 L 376.22175 139.77338 L 372.92613 137.65038 L 369.63053 134.34803 L 366.3349 130.30445 L 363.03929 125.98813 L 359.74369 121.86299 L 356.44807 118.355449 L 353.15245 115.82526 L 349.85685 114.55198 L 346.56123 114.14224 L 343.2656 115.08544 L 339.97 115.03467 L 336.67439 115.91224 Z " fill="#1f77b4" fill-opacity=".25"/>
<path transform="matrix(2.7777777,0,0,-2.7777777,0,800)" stroke-width="1" stroke-linecap="butt" stroke-linejoin="round" fill="none" stroke="#1f77b4" stroke-opacity=".25" d="M 336.67439 115.91224 L 336.67439 115.87964 L 339.97 115.01049 L 343.2656 115.07486 L 346.56123 114.10884 L 349.85685 114.53892 L 353.15245 115.81133 L 356.44807 118.31543 L 359.74369 121.79578 L 363.03929 125.89438 L 366.3349 130.18624 L 369.63053 134.20885 L 372.92613 137.49506 L 376.22175 139.608 L 379.51737 140.17574 L 382.81297 138.92263 L 386.10859 135.6936 L 389.4042 130.46849 L 392.6998 123.36568 L 395.99543 114.87999 L 399.29106 105.97162 L 402.58665 96.07801 L 405.88227 85.78584 L 409.1779 75.77533 L 412.47349 66.80244 L 415.7691 59.652769 L 419.06474 55.071077 L 422.36033 53.672727 L 425.65596 55.85897 L 428.95158 61.765016 L 432.24717 71.26474 L 435.5428 84.03272 L 438.8384 99.63719 L 442.134 117.622287 L 445.42964 136.89635 L 448.72526 157.69803 L 452.02085 179.47364 L 455.31648 201.38983 L 458.6121 222.23903 L 461.90769 240.41259 L 465.2033 254.06795 L 468.49894 261.54768 L 471.79454 261.95677 L 475.09016 255.61139 L 478.38578 244.02457 L 481.68138 229.38571 L 484.977 213.8277 L 488.2726 198.73748 L 491.5682 185.20729 L 494.86384 173.62108 L 498.15946 163.97275 L 501.45506 156.06711 L 504.75068 149.63832 L 508.0463 144.41298 L 511.3419 140.13692 L 514.6375 136.58086 L 517.9331 133.53464 L 521.22879 130.79517 L 524.52438 128.14992 L 527.81997 125.35573 L 531.1156 122.32183 L 534.4112 118.39913 L 537.7068 118.28927 L 541.00247 117.97057 L 544.29806 117.46413 L 547.5936 116.75966 L 550.8893 115.851718 L 550.8893 117.75452 L 547.5936 118.58196 L 544.29806 119.21066 L 541.00247 119.64431 L 537.7068 119.89346 L 534.4112 119.94085 L 531.1156 123.76141 L 527.81997 126.74681 L 524.52438 129.49773 L 521.22879 132.0977 L 517.9331 134.7907 L 514.6375 137.78955 L 511.3419 141.29706 L 508.0463 145.52249 L 504.75068 150.69353 L 501.45506 157.06188 L 498.15946 164.8973 L 494.86384 174.46083 L 491.5682 185.942 L 488.2726 199.34426 L 484.977 214.33258 L 481.68138 230.14786 L 478.38578 245.00353 L 475.09016 256.73216 L 471.79454 263.12727 L 468.49894 262.68214 L 465.2033 255.10466 L 461.90769 241.3148 L 458.6121 222.9931 L 455.31648 201.9987 L 452.02085 179.9502 L 448.72526 158.06017 L 445.42964 137.16574 L 442.134 117.875919 L 438.8384 99.963359 L 435.5428 84.42024 L 432.24717 71.69804 L 428.95158 62.225595 L 425.65596 56.32736 L 422.36033 54.130437 L 419.06474 55.502126 L 415.7691 60.0446 L 412.47349 67.14605 L 409.1779 76.0652 L 405.88227 86.01962 L 402.58665 96.25608 L 399.29106 106.09705 L 395.99543 114.975818 L 392.6998 123.46537 L 389.4042 130.59728 L 386.10859 135.8438 L 382.81297 139.08602 L 379.51737 140.34406 L 376.22175 139.77338 L 372.92613 137.65038 L 369.63053 134.34803 L 366.3349 130.30445 L 363.03929 125.98813 L 359.74369 121.86299 L 356.44807 118.355449 L 353.15245 115.82526 L 349.85685 114.55198 L 346.56123 114.14224 L 343.2656 115.08544 L 339.97 115.03467 L 336.67439 115.91224 Z "/>
</g>
</g>
<path transform="matrix(2.7777777,0,0,-2.7777777,0,800)" stroke-width=".8" stroke-linecap="butt" stroke-linejoin="round" fill="none" stroke="#000000" d="M 336.67439 43.2 L 336.67439 39.7 "/>
<use xlink:href="#font_2_32" transform="matrix(38.7436,0,0,-38.7436,927.31106,727.8626)"/>
<path transform="matrix(2.7777777,0,0,-2.7777777,0,800)" stroke-width=".8" stroke-linecap="butt" stroke-linejoin="round" fill="none" stroke="#000000" d="M 402.58665 43.2 L 402.58665 39.7 "/>
<use xlink:href="#font_2_33" transform="matrix(38.7436,0,0,-38.7436,1112.3378,727.049)"/>
<path transform="matrix(2.7777777,0,0,-2.7777777,0,800)" stroke-width=".8" stroke-linecap="butt" stroke-linejoin="round" fill="none" stroke="#000000" d="M 468.49894 43.2 L 468.49894 39.7 "/>
<use xlink:href="#font_2_34" transform="matrix(38.7436,0,0,-38.7436,1293.8003,727.049)"/>
<path transform="matrix(2.7777777,0,0,-2.7777777,0,800)" stroke-width=".8" stroke-linecap="butt" stroke-linejoin="round" fill="none" stroke="#000000" d="M 534.4112 43.2 L 534.4112 39.7 "/>
<use xlink:href="#font_2_35" transform="matrix(38.7436,0,0,-38.7436,1476.58,727.8626)"/>
<use xlink:href="#font_3_75" transform="matrix(38.7436,0,0,-38.7436,1226.7301,774.4043)"/>
<path transform="matrix(2.7777777,0,0,-2.7777777,0,800)" stroke-width=".8" stroke-linecap="butt" stroke-linejoin="round" fill="none" stroke="#000000" d="M 325.96363 72.8407 L 322.46363 72.8407 "/>
<use xlink:href="#font_4_1" transform="matrix(38.7436,0,0,-38.7436,840.1238,602.556)"/>
<use xlink:href="#font_2_34" transform="matrix(38.7436,0,0,-38.7436,868.94058,611.46707)"/>
<path transform="matrix(2.7777777,0,0,-2.7777777,0,800)" stroke-width=".8" stroke-linecap="butt" stroke-linejoin="round" fill="none" stroke="#000000" d="M 325.96363 117.52595 L 322.46363 117.52595 "/>
<use xlink:href="#font_2_32" transform="matrix(38.7436,0,0,-38.7436,868.6305,488.15498)"/>
<path transform="matrix(2.7777777,0,0,-2.7777777,0,800)" stroke-width=".8" stroke-linecap="butt" stroke-linejoin="round" fill="none" stroke="#000000" d="M 325.96363 162.21118 L 322.46363 162.21118 "/>
<use xlink:href="#font_2_34" transform="matrix(38.7436,0,0,-38.7436,868.9404,363.21568)"/>
<path transform="matrix(2.7777777,0,0,-2.7777777,0,800)" stroke-width=".8" stroke-linecap="butt" stroke-linejoin="round" fill="none" stroke="#000000" d="M 325.96363 206.89644 L 322.46363 206.89644 "/>
<symbol id="font_2_36">
<path d="M .33400003 .651 C .33400003 .67 .33400003 .675 .32 .675 C .312 .675 .30900003 .675 .301 .66300007 L 0 .19600001 L 0 .16700001 L .263 .16700001 L .263 .076000008 C .263 .039 .261 .029000001 .18800001 .029000001 L .16800002 .029000001 L .16800002 0 C .19100002 .002 .27 .002 .298 .002 C .326 .002 .40600003 .002 .42900003 0 L .42900003 .029000001 L .409 .029000001 C .337 .029000001 .33400003 .039 .33400003 .076000008 L .33400003 .16700001 L .435 .16700001 L .435 .19600001 L .33400003 .19600001 L .33400003 .651 M .268 .573 L .268 .19600001 L .025 .19600001 L .268 .573 Z "/>
</symbol>
<use xlink:href="#font_2_36" transform="matrix(38.7436,0,0,-38.7436,868.0881,239.08997)"/>
<path transform="matrix(2.7777777,0,0,-2.7777777,0,800)" stroke-width=".8" stroke-linecap="butt" stroke-linejoin="round" fill="none" stroke="#000000" d="M 325.96363 251.58168 L 322.46363 251.58168 "/>
<symbol id="font_2_38">
<path d="M .082 .36900003 C .082 .62200006 .20500002 .66200008 .259 .66200008 C .29500003 .66200008 .331 .6510001 .35000003 .62100008 C .338 .62100008 .3 .62100008 .3 .58000007 C .3 .558 .315 .53900006 .34100003 .53900006 C .366 .53900006 .38300003 .5540001 .38300003 .58300009 C .38300003 .63500007 .345 .68600007 .25800003 .68600007 C .132 .68600007 0 .55700007 0 .337 C 0 .062000004 .12000001 0 .20500002 0 C .314 0 .407 .095 .407 .22500001 C .407 .358 .314 .44700004 .21400002 .44700004 C .125 .44700004 .092 .37 .082 .342 L .082 .36900003 M .20500002 .027000003 C .14200002 .027000003 .11200001 .083000008 .10300001 .104 C .094000007 .13000001 .084 .179 .084 .24900002 C .084 .328 .12000001 .42700003 .21000001 .42700003 C .26500003 .42700003 .294 .39000003 .30900003 .356 C .32500003 .319 .32500003 .26900003 .32500003 .22600001 C .32500003 .17500001 .32500003 .13000001 .306 .09200001 C .28100003 .044000005 .245 .027000003 .20500002 .027000003 Z "/>
</symbol>
<use xlink:href="#font_2_38" transform="matrix(38.7436,0,0,-38.7436,868.6305,115.77791)"/>
<symbol id="font_2_61">
<path d="M .09700001 .048000039 C .09700001 .07800001 .07300001 .097 .049000004 .097 C .020999998 .097 0 .07499999 0 .048000039 C 0 .022000015 .022 0 .048 0 C .078 0 .09700001 .023999989 .09700001 .048000039 Z "/>
</symbol>
<use xlink:href="#font_2_61" transform="matrix(38.7436,0,0,-38.7436,824.7503,319.51756)"/>
<use xlink:href="#font_3_13" transform="matrix(38.7436,0,0,-38.7436,815.6707,352.13529)"/>
<clipPath id="cp12">
<path transform="matrix(2.7777777,0,0,-2.7777777,0,800)" d="M 325.96363 43.2 L 561.6 43.2 L 561.6 273.6 L 325.96363 273.6 Z "/>
</clipPath>
<g clip-path="url(#cp12)">
<path transform="matrix(2.7777777,0,0,-2.7777777,0,800)" stroke-width="1.5" stroke-linecap="square" stroke-linejoin="round" fill="none" stroke="#000000" d="M 336.67439 115.89594 L 339.97 115.02258 L 343.2656 115.08015 L 346.56123 114.12554 L 349.85685 114.54545 L 353.15245 115.8183 L 356.44807 118.33544 L 359.74369 121.829387 L 363.03929 125.94125 L 366.3349 130.24535 L 369.63053 134.27845 L 372.92613 137.57273 L 376.22175 139.69069 L 379.51737 140.2599 L 382.81297 139.00432 L 386.10859 135.76869 L 389.4042 130.53289 L 392.6998 123.41553 L 395.99543 114.9279 L 399.29106 106.03433 L 402.58665 96.167049 L 405.88227 85.90273 L 409.1779 75.920269 L 412.47349 66.97424 L 415.7691 59.848684 L 419.06474 55.2866 L 422.36033 53.90158 L 425.65596 56.093168 L 428.95158 61.995306 L 432.24717 71.48139 L 435.5428 84.22649 L 438.8384 99.80028 L 442.134 117.7491 L 445.42964 137.03105 L 448.72526 157.8791 L 452.02085 179.71192 L 455.31648 201.69426 L 458.6121 222.61606 L 461.90769 240.8637 L 465.2033 254.5863 L 468.49894 262.1149 L 471.79454 262.54203 L 475.09016 256.17176 L 478.38578 244.51406 L 481.68138 229.76679 L 484.977 214.08014 L 488.2726 199.04087 L 491.5682 185.57465 L 494.86384 174.04096 L 498.15946 164.43503 L 501.45506 156.5645 L 504.75068 150.16593 L 508.0463 144.96773 L 511.3419 140.717 L 514.6375 137.1852 L 517.9331 134.16268 L 521.22879 131.44644 L 524.52438 128.82382 L 527.81997 126.05127 L 531.1156 123.04162 L 534.4112 119.16999 L 537.7068 119.09136 L 541.00247 118.80744 L 544.29806 118.337398 L 547.5936 117.670818 L 550.8893 116.803119 "/>
</g>
<clipPath id="cp13">
<path transform="matrix(2.7777777,0,0,-2.7777777,0,800)" d="M 325.96363 43.2 L 561.6 43.2 L 561.6 273.6 L 325.96363 273.6 Z "/>
</clipPath>
<g clip-path="url(#cp13)">
<path transform="matrix(2.7777777,0,0,-2.7777777,0,800)" stroke-width="1.5" stroke-linecap="square" stroke-linejoin="round" fill="none" stroke="#000000" d="M 336.67439 115.29168 L 339.97 115.29168 L 343.2656 115.29168 L 346.56123 115.29168 L 349.85685 115.29168 L 353.15245 115.29168 L 356.44807 115.29168 L 359.74369 115.29168 L 363.03929 115.29168 L 366.3349 115.29168 L 369.63053 115.29168 L 372.92613 115.29168 L 376.22175 115.29168 L 379.51737 115.29168 L 382.81297 115.29168 L 386.10859 115.29168 L 389.4042 115.29168 L 392.6998 115.29168 L 395.99543 115.29168 L 399.29106 115.29168 L 402.58665 115.29168 L 405.88227 115.29168 L 409.1779 115.29168 L 412.47349 115.29168 L 415.7691 115.29168 L 419.06474 115.29168 L 422.36033 115.29168 L 425.65596 115.29168 L 428.95158 115.29168 L 432.24717 115.29168 L 435.5428 115.29168 L 438.8384 115.29168 L 442.134 115.29168 L 445.42964 115.29168 L 448.72526 115.29168 L 452.02085 115.29168 L 455.31648 115.29168 L 458.6121 115.29168 L 461.90769 115.29168 L 465.2033 115.29168 L 468.49894 115.29168 L 471.79454 115.29168 L 475.09016 115.29168 L 478.38578 115.29168 L 481.68138 115.29168 L 484.977 115.29168 L 488.2726 115.29168 L 491.5682 115.29168 L 494.86384 115.29168 L 498.15946 115.29168 L 501.45506 115.29168 L 504.75068 115.29168 L 508.0463 115.29168 L 511.3419 115.29168 L 514.6375 115.29168 L 517.9331 115.29168 L 521.22879 115.29168 L 524.52438 115.29168 L 527.81997 115.29168 L 531.1156 115.29168 L 534.4112 115.29168 L 537.7068 115.29168 L 541.00247 115.29168 L 544.29806 115.29168 L 547.5936 115.29168 L 550.8893 115.29168 "/>
</g>
<clipPath id="cp14">
<path transform="matrix(2.7777777,0,0,-2.7777777,0,800)" d="M 325.96363 43.2 L 561.6 43.2 L 561.6 273.6 L 325.96363 273.6 Z "/>
</clipPath>
<g clip-path="url(#cp14)">
<path transform="matrix(2.7777777,0,0,-2.7777777,0,800)" stroke-width="1.5" stroke-linecap="square" stroke-linejoin="round" fill="none" stroke="#000000" d="M 336.67439 119.76021 L 339.97 119.76021 L 343.2656 119.76021 L 346.56123 119.76021 L 349.85685 119.76021 L 353.15245 119.76021 L 356.44807 119.76021 L 359.74369 119.76021 L 363.03929 119.76021 L 366.3349 119.76021 L 369.63053 119.76021 L 372.92613 119.76021 L 376.22175 119.76021 L 379.51737 119.76021 L 382.81297 119.76021 L 386.10859 119.76021 L 389.4042 119.76021 L 392.6998 119.76021 L 395.99543 119.76021 L 399.29106 119.76021 L 402.58665 119.76021 L 405.88227 119.76021 L 409.1779 119.76021 L 412.47349 119.76021 L 415.7691 119.76021 L 419.06474 119.76021 L 422.36033 119.76021 L 425.65596 119.76021 L 428.95158 119.76021 L 432.24717 119.76021 L 435.5428 119.76021 L 438.8384 119.76021 L 442.134 119.76021 L 445.42964 119.76021 L 448.72526 119.76021 L 452.02085 119.76021 L 455.31648 119.76021 L 458.6121 119.76021 L 461.90769 119.76021 L 465.2033 119.76021 L 468.49894 119.76021 L 471.79454 119.76021 L 475.09016 119.76021 L 478.38578 119.76021 L 481.68138 119.76021 L 484.977 119.76021 L 488.2726 119.76021 L 491.5682 119.76021 L 494.86384 119.76021 L 498.15946 119.76021 L 501.45506 119.76021 L 504.75068 119.76021 L 508.0463 119.76021 L 511.3419 119.76021 L 514.6375 119.76021 L 517.9331 119.76021 L 521.22879 119.76021 L 524.52438 119.76021 L 527.81997 119.76021 L 531.1156 119.76021 L 534.4112 119.76021 L 537.7068 119.76021 L 541.00247 119.76021 L 544.29806 119.76021 L 547.5936 119.76021 L 550.8893 119.76021 "/>
</g>
<clipPath id="cp15">
<path transform="matrix(2.7777777,0,0,-2.7777777,0,800)" d="M 325.96363 43.2 L 561.6 43.2 L 561.6 273.6 L 325.96363 273.6 Z "/>
</clipPath>
<g clip-path="url(#cp15)">
<path transform="matrix(2.7777777,0,0,-2.7777777,0,800)" stroke-width="1.5" stroke-linecap="square" stroke-linejoin="round" fill="none" stroke="#1f77b4" d="M 336.67439 115.87964 L 339.97 115.01049 L 343.2656 115.07486 L 346.56123 114.10884 L 349.85685 114.53892 L 353.15245 115.81133 L 356.44807 118.31543 L 359.74369 121.79578 L 363.03929 125.89438 L 366.3349 130.18624 L 369.63053 134.20885 L 372.92613 137.49506 L 376.22175 139.608 L 379.51737 140.17574 L 382.81297 138.92263 L 386.10859 135.6936 L 389.4042 130.46849 L 392.6998 123.36568 L 395.99543 114.87999 L 399.29106 105.97162 L 402.58665 96.07801 L 405.88227 85.78584 L 409.1779 75.77533 L 412.47349 66.80244 L 415.7691 59.652769 L 419.06474 55.071077 L 422.36033 53.672727 L 425.65596 55.85897 L 428.95158 61.765016 L 432.24717 71.26474 L 435.5428 84.03272 L 438.8384 99.63719 L 442.134 117.622287 L 445.42964 136.89635 L 448.72526 157.69803 L 452.02085 179.47364 L 455.31648 201.38983 L 458.6121 222.23903 L 461.90769 240.41259 L 465.2033 254.06795 L 468.49894 261.54768 L 471.79454 261.95677 L 475.09016 255.61139 L 478.38578 244.02457 L 481.68138 229.38571 L 484.977 213.8277 L 488.2726 198.73748 L 491.5682 185.20729 L 494.86384 173.62108 L 498.15946 163.97275 L 501.45506 156.06711 L 504.75068 149.63832 L 508.0463 144.41298 L 511.3419 140.13692 L 514.6375 136.58086 L 517.9331 133.53464 L 521.22879 130.79517 L 524.52438 128.14992 L 527.81997 125.35573 L 531.1156 122.32183 L 534.4112 118.39913 L 537.7068 118.28927 L 541.00247 117.97057 L 544.29806 117.46413 L 547.5936 116.75966 L 550.8893 115.851718 "/>
</g>
<clipPath id="cp16">
<path transform="matrix(2.7777777,0,0,-2.7777777,0,800)" d="M 325.96363 43.2 L 561.6 43.2 L 561.6 273.6 L 325.96363 273.6 Z "/>
</clipPath>
<g clip-path="url(#cp16)">
<path transform="matrix(2.7777777,0,0,-2.7777777,0,800)" stroke-width="1.5" stroke-linecap="square" stroke-linejoin="round" fill="none" stroke="#1f77b4" d="M 336.67439 115.91224 L 339.97 115.03467 L 343.2656 115.08544 L 346.56123 114.14224 L 349.85685 114.55198 L 353.15245 115.82526 L 356.44807 118.355449 L 359.74369 121.86299 L 363.03929 125.98813 L 366.3349 130.30445 L 369.63053 134.34803 L 372.92613 137.65038 L 376.22175 139.77338 L 379.51737 140.34406 L 382.81297 139.08602 L 386.10859 135.8438 L 389.4042 130.59728 L 392.6998 123.46537 L 395.99543 114.975818 L 399.29106 106.09705 L 402.58665 96.25608 L 405.88227 86.01962 L 409.1779 76.0652 L 412.47349 67.14605 L 415.7691 60.0446 L 419.06474 55.502126 L 422.36033 54.130437 L 425.65596 56.32736 L 428.95158 62.225595 L 432.24717 71.69804 L 435.5428 84.42024 L 438.8384 99.963359 L 442.134 117.875919 L 445.42964 137.16574 L 448.72526 158.06017 L 452.02085 179.9502 L 455.31648 201.9987 L 458.6121 222.9931 L 461.90769 241.3148 L 465.2033 255.10466 L 468.49894 262.68214 L 471.79454 263.12727 L 475.09016 256.73216 L 478.38578 245.00353 L 481.68138 230.14786 L 484.977 214.33258 L 488.2726 199.34426 L 491.5682 185.942 L 494.86384 174.46083 L 498.15946 164.8973 L 501.45506 157.06188 L 504.75068 150.69353 L 508.0463 145.52249 L 511.3419 141.29706 L 514.6375 137.78955 L 517.9331 134.7907 L 521.22879 132.0977 L 524.52438 129.49773 L 527.81997 126.74681 L 531.1156 123.76141 L 534.4112 119.94085 L 537.7068 119.89346 L 541.00247 119.64431 L 544.29806 119.21066 L 547.5936 118.58196 L 550.8893 117.75452 "/>
</g>
<path transform="matrix(2.7777777,0,0,-2.7777777,0,800)" stroke-width=".8" stroke-linecap="square" stroke-miterlimit="10" stroke-linejoin="miter" fill="none" stroke="#000000" d="M 325.96363 43.2 L 325.96363 273.6 "/>
<path transform="matrix(2.7777777,0,0,-2.7777777,0,800)" stroke-width=".8" stroke-linecap="square" stroke-miterlimit="10" stroke-linejoin="miter" fill="none" stroke="#000000" d="M 561.6 43.2 L 561.6 273.6 "/>
<path transform="matrix(2.7777777,0,0,-2.7777777,0,800)" stroke-width=".8" stroke-linecap="square" stroke-miterlimit="10" stroke-linejoin="miter" fill="none" stroke="#000000" d="M 325.96363 43.2 L 561.6 43.2 "/>
<path transform="matrix(2.7777777,0,0,-2.7777777,0,800)" stroke-width=".8" stroke-linecap="square" stroke-miterlimit="10" stroke-linejoin="miter" fill="none" stroke="#000000" d="M 325.96363 273.6 L 561.6 273.6 "/>
</g>
</svg>
