<?xml version="1.0" encoding="UTF-8" standalone="no"?>
<!-- Created with Inkscape (http://www.inkscape.org/) -->

<svg
   version="1.1"
   id="svg1"
   width="302.36594"
   height="151.18295"
   viewBox="0 0 302.36594 151.18295"
   sodipodi:docname="2024_CDC_LieReach-8.pdf"
   xmlns:inkscape="http://www.inkscape.org/namespaces/inkscape"
   xmlns:sodipodi="http://sodipodi.sourceforge.net/DTD/sodipodi-0.dtd"
   xmlns="http://www.w3.org/2000/svg"
   xmlns:svg="http://www.w3.org/2000/svg">
  <defs
     id="defs1">
    <linearGradient
       x1="0"
       y1="0"
       x2="0"
       y2="100.00128"
       gradientUnits="userSpaceOnUse"
       id="linearGradient24">
      <stop
         style="stop-opacity:1;stop-color:#808080"
         offset="0"
         id="stop20" />
      <stop
         style="stop-opacity:1;stop-color:#808080"
         offset="0.25"
         id="stop21" />
      <stop
         style="stop-opacity:1;stop-color:#b3b3b3"
         offset="0.5"
         id="stop22" />
      <stop
         style="stop-opacity:1;stop-color:#e6e6e6"
         offset="0.75"
         id="stop23" />
      <stop
         style="stop-opacity:1;stop-color:#e6e6e6"
         offset="1"
         id="stop24" />
    </linearGradient>
    <clipPath
       clipPathUnits="userSpaceOnUse"
       id="clipPath25">
      <path
         d="M 0,0 C 55.513,9.78815 98.55345,7.8866 141.73404,-28.3468 161.741,6.30635 187.36806,21.39859 226.77448,28.3468 169.48302,96.62299 23.06834,86.0922 0,0 Z"
         transform="matrix(1.3333333,0,0,-1.3333333,429.61867,339.06667)"
         id="path25" />
    </clipPath>
    <linearGradient
       x1="0"
       y1="0"
       x2="0"
       y2="100.00128"
       gradientUnits="userSpaceOnUse"
       id="linearGradient42">
      <stop
         style="stop-opacity:1;stop-color:#ff6666"
         offset="0"
         id="stop38" />
      <stop
         style="stop-opacity:1;stop-color:#ff6666"
         offset="0.25"
         id="stop39" />
      <stop
         style="stop-opacity:1;stop-color:#ff8c8c"
         offset="0.5"
         id="stop40" />
      <stop
         style="stop-opacity:1;stop-color:#ffb3b3"
         offset="0.75"
         id="stop41" />
      <stop
         style="stop-opacity:1;stop-color:#ffb3b3"
         offset="1"
         id="stop42" />
    </linearGradient>
    <clipPath
       clipPathUnits="userSpaceOnUse"
       id="clipPath43">
      <path
         d="m 106.30052,28.3468 c 13.33515,0 22.38344,-1.34984 32.59865,-9.92155 2.89728,7.96008 4.00293,14.19021 11.33897,18.42565 -10.21536,8.57184 -19.4662,12.23675 -32.59907,9.92113 -6.48888,-5.4449 -8.44135,-10.46531 -11.33855,-18.42523 z"
         transform="matrix(1.3333333,0,0,-1.3333333,429.61867,339.06667)"
         id="path43" />
    </clipPath>
  </defs>
  <sodipodi:namedview
     id="namedview1"
     pagecolor="#ffffff"
     bordercolor="#000000"
     borderopacity="0.25"
     inkscape:showpageshadow="2"
     inkscape:pageopacity="0.0"
     inkscape:pagecheckerboard="0"
     inkscape:deskcolor="#d1d1d1">
    <inkscape:page
       x="0"
       y="0"
       width="302.36594"
       height="151.18295"
       id="page2"
       margin="0"
       bleed="0" />
  </sodipodi:namedview>
  <g
     id="g1"
     inkscape:groupmode="layer"
     inkscape:label="1"
     transform="translate(-429.61867,-225.67944)">
    <path
       id="path20"
       d="M 0,0 C 31.65617,11.52203 59.23444,7.48073 85.04042,-14.17339 113.91226,35.83421 172.5129,48.09662 226.77448,28.3468 169.48302,96.62299 23.06834,86.0922 0,0 Z"
       style="fill:#808080;fill-opacity:1;fill-rule:nonzero;stroke:none"
       transform="matrix(1.3333333,0,0,-1.3333333,429.61867,339.06667)" />
    <g
       id="g24"
       clip-path="url(#clipPath25)">
      <path
         d="M 0,0 H 100 V 100 H 0 Z"
         transform="matrix(0,-3.3329333,-6.0480533,0,883.20432,460.19588)"
         style="fill:url(#linearGradient24);stroke:none"
         id="path24" />
    </g>
    <path
       id="path26"
       d="M 0,7.08669 170.08086,-7.08669 198.42766,77.95372 28.3468,85.04042 Z"
       style="fill:#b3b3ff;fill-opacity:0.2;fill-rule:nonzero;stroke:none"
       transform="matrix(1.3333333,0,0,-1.3333333,429.61867,339.06667)" />
    <g
       id="g26"
       aria-label="T&#10;˚x&#10;X≃x"
       transform="matrix(1.3333333,0,0,1.3333333,471.388,247.86133)">
      <path
         id="path27"
         d="m 4.2529453,-6.0454141 c 0.070312,-0.28125 0.1054688,-0.3398437 0.234375,-0.3632812 0.082031,-0.023437 0.4101563,-0.023437 0.6210938,-0.023437 1.0078125,0 1.453125,0.035156 1.453125,0.8203125 0,0.140625 -0.035156,0.5273437 -0.082031,0.796875 0,0.035156 -0.023437,0.1523437 -0.023437,0.1875 0,0.058594 0.023437,0.1289062 0.1171875,0.1289062 0.1054688,0 0.1289063,-0.082031 0.1523438,-0.234375 l 0.2695312,-1.734375 c 0.011719,-0.035156 0.011719,-0.140625 0.011719,-0.1640625 0,-0.1054687 -0.09375,-0.1054687 -0.2695313,-0.1054687 H 1.2177891 c -0.24609379,0 -0.25781254,0 -0.31640629,0.1992187 l -0.59765625,1.7460938 c -0.0117188,0.023437 -0.0703125,0.1640625 -0.0703125,0.1757812 0,0.070312 0.0585937,0.1171875 0.12890625,0.1171875 0.09375,0 0.10546875,-0.046875 0.1640625,-0.2109375 0.53906249,-1.546875 0.79687499,-1.7226562 2.27343749,-1.7226562 h 0.3867188 c 0.28125,0 0.28125,0.035156 0.28125,0.1171875 0,0.058594 -0.035156,0.1757812 -0.046875,0.2109375 l -1.3242188,5.32031249 c -0.09375,0.36328125 -0.1289062,0.48046875 -1.19531249,0.48046875 -0.3515625,0 -0.41015625,0 -0.41015625,0.1875 0,0.1171875 0.10546875,0.1171875 0.1640625,0.1171875 0.26953125,0 0.55078124,-0.0234375 0.82031254,-0.0234375 0.28125,0 0.5625,-0.01171875 0.84375,-0.01171875 0.28125,0 0.5625,0.01171875 0.8320312,0.01171875 0.28125,0 0.5859375,0.0234375 0.8671875,0.0234375 0.09375,0 0.2109375,0 0.2109375,-0.19921875 0,-0.10546875 -0.082031,-0.10546875 -0.3398437,-0.10546875 -0.2460938,0 -0.375,0 -0.6328125,-0.0234375 -0.2929688,-0.0351563 -0.3632813,-0.0585938 -0.3632813,-0.22265625 0,-0.0117188 0,-0.0585938 0.035156,-0.2109375 z m 0,0"
         style="fill:#000000;fill-opacity:1;fill-rule:nonzero;stroke:none" />
      <path
         id="path28"
         d="m 9.0459141,-2.8637734 c 0,-0.3515625 -0.3398438,-0.6210938 -0.7617188,-0.6210938 -0.4335937,0 -0.75,0.2929688 -0.75,0.609375 0,0.3398438 0.3398438,0.609375 0.75,0.609375 0.4453125,0 0.7617188,-0.2929687 0.7617188,-0.5976562 z m -0.7617188,0.4101562 c -0.1757812,0 -0.515625,-0.023437 -0.515625,-0.4101562 0,-0.3867188 0.2929688,-0.421875 0.515625,-0.421875 0.234375,0 0.5273438,0.035156 0.5273438,0.421875 0,0.3867187 -0.3398438,0.4101562 -0.5273438,0.4101562 z m 0,0"
         style="fill:#000000;fill-opacity:1;fill-rule:nonzero;stroke:none" />
      <path
         id="path29"
         d="m 7.5576328,0.75732031 c -0.070312,0.234375 -0.2929687,0.60937499 -0.65625,0.60937499 -0.023437,0 -0.2226562,0 -0.375,-0.09375 0.28125,-0.09375 0.3046875,-0.33984374 0.3046875,-0.38671874 0,-0.15234375 -0.1171875,-0.2578125 -0.28125,-0.2578125 -0.1875,0 -0.3867187,0.1640625 -0.3867187,0.43359374 0,0.3398438 0.3867187,0.5039063 0.7265625,0.5039063 0.3164062,0 0.609375,-0.1992188 0.7851562,-0.4921875 0.1640625,0.3632812 0.5507813,0.4921875 0.8203125,0.4921875 0.8085938,0 1.2304688,-0.86718754 1.2304688,-1.06640629 0,-0.09375 -0.09375,-0.09375 -0.1054688,-0.09375 -0.1054687,0 -0.1054687,0.0351563 -0.140625,0.1171875 -0.140625,0.48046879 -0.5625,0.84374999 -0.9492187,0.84374999 -0.28125,0 -0.421875,-0.1875 -0.421875,-0.44531249 0,-0.1875 0.1640625,-0.8203125 0.3632812,-1.59375 0.1289063,-0.53906251 0.4453125,-0.71484371 0.6796875,-0.71484371 0.011719,0 0.2226563,0 0.375,0.1054687 -0.2226562,0.058594 -0.3046875,0.2578125 -0.3046875,0.37500001 0,0.15234375 0.1171875,0.2578125 0.28125,0.2578125 0.1523438,0 0.3867188,-0.12890625 0.3867188,-0.42187501 0,-0.3867187 -0.4453125,-0.5039062 -0.7265625,-0.5039062 -0.3515625,0 -0.6328125,0.2226562 -0.7851563,0.4921875 -0.1171875,-0.2929688 -0.4453125,-0.4921875 -0.8320312,-0.4921875 -0.7851563,0 -1.2304688,0.85546871 -1.2304688,1.06640621 0,0.0820313 0.1054688,0.0820313 0.1171875,0.0820313 0.09375,0 0.1054688,-0.0234375 0.140625,-0.1171875 0.1757813,-0.53906241 0.609375,-0.84374991 0.9492188,-0.84374991 0.234375,0 0.421875,0.1289062 0.421875,0.46874991 0,0.12890625 -0.082031,0.48046875 -0.1523438,0.71484375 z m 0,0"
         style="fill:#000000;fill-opacity:1;fill-rule:nonzero;stroke:none" />
      <path
         id="path30"
         d="m 15.608414,-5.4829141 c -0.08203,-0.75 -0.175781,-1.3242187 -0.878906,-1.3242187 -0.9375,0 -1.59375,0.6796875 -1.59375,0.9609375 0,0.070312 0.05859,0.070312 0.117187,0.070312 0.105469,0 0.539063,-0.1289063 0.726563,-0.46875 l 0.01172,-0.011719 c 0.550781,0 0.679687,0.3164063 0.785156,1.3359375 l 0.140625,1.4648438 c -0.363281,0.1992187 -1.710938,1.0078125 -2.425781,1.5 -1.136719,0.8085937 -1.148438,1.11328124 -1.148438,1.39453124 0,0.33984375 0.175781,0.5625 0.46875,0.5625 0.304688,0 0.761719,-0.328125 0.761719,-0.48046875 0,-0.046875 -0.03516,-0.0585938 -0.07031,-0.0703125 -0.08203,-0.0117188 -0.316406,-0.046875 -0.316406,-0.43359375 0,-0.26953124 0,-0.38671874 1.054688,-1.10156254 0.609375,-0.3984375 1.183593,-0.7148437 1.699218,-1.0429687 0,0.023437 0.152344,1.5117187 0.175782,1.6875 0.07031,0.78515624 0.140625,1.44140624 0.878906,1.44140624 0.949219,0 1.59375,-0.6796875 1.59375,-0.9609375 0,-0.0703125 -0.04687,-0.0703125 -0.105469,-0.0703125 -0.105469,0 -0.539062,0.12890649 -0.726562,0.46875024 -0.03516,0.0117188 -0.08203,0.0117188 -0.105469,0.0117188 -0.5625,0 -0.621094,-0.62109394 -0.703125,-1.46484394 -0.02344,-0.3164062 -0.05859,-0.5742187 -0.164063,-1.6054687 3.105469,-1.8632813 3.105469,-2.203125 3.105469,-2.625 0,-0.3398438 -0.175781,-0.5625 -0.46875,-0.5625 -0.304687,0 -0.773437,0.3398437 -0.773437,0.4804687 0,0.058594 0.07031,0.070312 0.07031,0.070312 0.08203,0.011719 0.328125,0.046875 0.328125,0.4453125 0,0.2460938 -0.03516,0.3984375 -0.878906,0.9726563 -0.304688,0.1992187 -0.714844,0.4570312 -1.40625,0.8789062 z m 13.754883,1.1835938 c 0,-0.2226563 -0.07031,-0.3164063 -0.140625,-0.3164063 -0.04687,0 -0.128906,0.046875 -0.140625,0.2695313 -0.03516,0.8320312 -0.738281,1.3007812 -1.382813,1.3007812 -0.597656,0 -1.078125,-0.3515625 -1.59375,-0.75 -0.527343,-0.421875 -1.054687,-0.8203125 -1.722656,-0.8203125 -0.984375,0 -1.664062,0.8671875 -1.664062,1.8046875 0,0.3046875 0.128906,0.3164063 0.140625,0.3164063 0.105468,0 0.140625,-0.1992188 0.140625,-0.234375 0.04687,-0.9726563 0.84375,-1.3359375 1.382812,-1.3359375 0.597656,0 1.078125,0.3515625 1.59375,0.75 0.527344,0.421875 1.054688,0.8203125 1.722656,0.8203125 0.972657,0 1.664063,-0.8671875 1.664063,-1.8046875 z m -6.292969,3.53906249 c -0.152344,0 -0.351562,0 -0.351562,0.19921875 0,0.19921875 0.175781,0.19921875 0.351562,0.19921875 h 5.941406 c 0.164063,0 0.351563,0 0.351563,-0.19921875 0,-0.19921875 -0.1875,-0.19921875 -0.363281,-0.19921875 z m 0,0"
         style="fill:#000000;fill-opacity:1;fill-rule:nonzero;stroke:none" />
      <path
         id="path31"
         d="m 34.595719,-3.7485391 0.02344,-0.3046875 c -0.128906,-0.09375 -0.503906,-0.4335937 -0.761718,-0.65625 -0.351563,0.3046875 -0.703125,0.6210938 -1.03125,0.9609375 l 0.128906,0.082031 c 0.04687,0 0.339844,-0.1757813 0.410156,-0.1757813 0.08203,0 0.257813,0.1757813 0.398438,0.328125 0.03516,0.5273438 0.02344,1.078125 0.02344,1.6054688 0,0.4101562 0,0.9023437 -0.07031,1.32421874 -0.386719,0.43359375 -0.925782,1.0546875 -0.925782,1.55859375 0,0.53906251 0.65625,0.78515621 1.125,0.90234371 l 0.632813,-0.3984375 v -0.09375 c -0.515625,-0.046875 -1.21875,-0.2578125 -1.21875,-0.84374996 0,-0.38671875 0.328125,-0.7734375 0.609375,-1.03125 0.304687,0.22265625 0.585937,0.45703125 0.84375,0.73828125 l 1.476562,-1.04296875 -0.02344,-0.17578125 -0.632813,0.33984375 c -0.09375,0.046875 -0.164062,0.0351563 -0.222656,0.046875 -0.1875,0 -0.574219,-0.38671875 -0.75,-0.57421874 -0.03516,-0.46875 -0.04687,-0.9609375 -0.04687,-1.4296875 0,-0.2460938 -0.02344,-0.5625 0.04687,-0.8671875 0.07031,-0.09375 0.339844,-0.3398438 0.480469,-0.4335938 0.128906,0.09375 0.316406,0.375 0.597656,0.515625 l 0.667969,-0.5859375 c -0.269531,-0.1875 -0.527344,-0.3867187 -0.691406,-0.6679687 z m 0,0"
         style="fill:#000000;fill-opacity:1;fill-rule:nonzero;stroke:none" />
    </g>
    <path
       id="path32"
       d="M 42.5202,28.3468 84.33553,24.86218"
       style="fill:none;stroke:#000000;stroke-width:0.79701;stroke-linecap:butt;stroke-linejoin:miter;stroke-miterlimit:10;stroke-dasharray:none;stroke-opacity:1"
       transform="matrix(1.3333333,0,0,-1.3333333,429.61867,339.06667)" />
    <path
       id="path33"
       d="M -1.55415,2.0722 C -1.42464,1.29512 0,0.1295 0.38852,0 0,-0.1295 -1.42464,-1.29512 -1.55415,-2.0722"
       style="fill:none;stroke:#000000;stroke-width:0.6376;stroke-linecap:round;stroke-linejoin:round;stroke-miterlimit:10;stroke-dasharray:none;stroke-opacity:1"
       transform="matrix(1.3286667,0.11069333,0.11069333,-1.3286667,542.06604,305.91709)" />
    <path
       id="path34"
       d="M 42.5202,28.3468 53.63509,61.69185"
       style="fill:none;stroke:#000000;stroke-width:0.79701;stroke-linecap:butt;stroke-linejoin:miter;stroke-miterlimit:10;stroke-dasharray:none;stroke-opacity:1"
       transform="matrix(1.3333333,0,0,-1.3333333,429.61867,339.06667)" />
    <path
       id="path35"
       d="M -1.55415,2.0722 C -1.42464,1.29512 0,0.1295 0.38852,0 0,-0.1295 -1.42464,-1.29512 -1.55415,-2.0722"
       style="fill:none;stroke:#000000;stroke-width:0.6376;stroke-linecap:round;stroke-linejoin:round;stroke-miterlimit:10;stroke-dasharray:none;stroke-opacity:1"
       transform="matrix(0.42161333,-1.2648533,-1.2648533,-0.42161333,501.13212,256.81089)" />
    <path
       id="path36"
       d="M 29.40977,21.79149 50.66988,20.0198 55.63065,34.90215 34.37054,36.67381 Z"
       style="fill:#b3b3ff;fill-opacity:0.8;fill-rule:nonzero;stroke:#0000ff;stroke-width:0.79701;stroke-linecap:butt;stroke-linejoin:miter;stroke-miterlimit:10;stroke-dasharray:none;stroke-opacity:0.8"
       transform="matrix(1.3333333,0,0,-1.3333333,429.61867,339.06667)" />
    <path
       id="path37"
       d="m 31.40233,21.79149 c 0,1.10046 -0.89209,1.99255 -1.99256,1.99255 -1.10047,0 -1.99255,-0.89209 -1.99255,-1.99255 0,-1.10048 0.89208,-1.99256 1.99255,-1.99256 1.10047,0 1.99256,0.89208 1.99256,1.99256 z"
       style="fill:#000000;fill-opacity:1;fill-rule:nonzero;stroke:none"
       transform="matrix(1.3333333,0,0,-1.3333333,429.61867,339.06667)" />
    <path
       id="path38"
       d="m 57.6232,34.90215 c 0,1.10046 -0.89209,1.99255 -1.99255,1.99255 -1.10048,0 -1.99256,-0.89209 -1.99256,-1.99255 0,-1.10048 0.89208,-1.99256 1.99256,-1.99256 1.10046,0 1.99255,0.89208 1.99255,1.99256 z"
       style="fill:#000000;fill-opacity:1;fill-rule:nonzero;stroke:none"
       transform="matrix(1.3333333,0,0,-1.3333333,429.61867,339.06667)" />
    <g
       id="g42"
       clip-path="url(#clipPath43)">
      <path
         d="M 0,0 H 100 V 100 H 0 Z"
         transform="matrix(0,-0.81774667,-1.1718,0,659.23444,334.94541)"
         style="fill:url(#linearGradient42);stroke:none"
         id="path42" />
    </g>
    <path
       id="path44"
       d="m 106.30052,28.3468 c 13.33515,0 22.38344,-1.34984 32.59865,-9.92155 2.89728,7.96008 4.00293,14.19021 11.33897,18.42565 -10.21536,8.57184 -19.4662,12.23675 -32.59907,9.92113 -6.48888,-5.4449 -8.44135,-10.46531 -11.33855,-18.42523 z"
       style="fill:none;stroke:#ff0000;stroke-width:0.3985;stroke-linecap:butt;stroke-linejoin:miter;stroke-miterlimit:10;stroke-dasharray:none;stroke-opacity:1"
       transform="matrix(1.3333333,0,0,-1.3333333,429.61867,339.06667)" />
    <path
       id="path45"
       d="m 113.38724,56.69362 13.78105,-20.6716"
       style="fill:none;stroke:#000000;stroke-width:0.79701;stroke-linecap:butt;stroke-linejoin:miter;stroke-miterlimit:10;stroke-dasharray:none;stroke-opacity:1"
       transform="matrix(1.3333333,0,0,-1.3333333,429.61867,339.06667)" />
    <path
       id="path46"
       d="M -1.55415,2.0722 C -1.42464,1.29512 0,0.1295 0.38852,0 0,-0.1295 -1.42464,-1.29512 -1.55415,-2.0722"
       style="fill:none;stroke:#000000;stroke-width:0.6376;stroke-linecap:round;stroke-linejoin:round;stroke-miterlimit:10;stroke-dasharray:none;stroke-opacity:1"
       transform="matrix(0.73954667,1.10936,1.10936,-0.73954667,599.17636,291.03731)" />
    <path
       id="path47"
       d="m 1.1125547,-2.50775 c 0.058594,-1.4882812 0.9023437,-1.734375 1.2421875,-1.734375 1.0195312,0 1.125,1.3476563 1.125,1.734375 z m -0.011719,0.2109375 h 2.7890625 c 0.2109375,0 0.2460938,0 0.2460938,-0.2109375 0,-0.984375 -0.5390625,-1.9570312 -1.78125,-1.9570312 -1.1601563,0 -2.07421876,1.03125 -2.07421876,2.2734375 0,1.33593745 1.04296876,2.29687495 2.19140626,2.29687495 1.21875,0 1.6640625,-1.1015625 1.6640625,-1.28906245 0,-0.1054688 -0.082031,-0.1171875 -0.1289063,-0.1171875 -0.09375,0 -0.1171875,0.058594 -0.1289062,0.140625 -0.3515625,1.0195312 -1.2539063,1.0195312 -1.3476563,1.0195312 -0.5039062,0 -0.9023437,-0.29296875 -1.125,-0.66796875 C 1.1008359,-1.289 1.1008359,-1.94525 1.1008357,-2.2968125 Z m 6.1845704,-0.046875 c 0.2929687,-0.375 0.6796875,-0.8671875 0.9140625,-1.125 C 8.515875,-3.82025 8.9143125,-3.9725937 9.3830625,-3.9843125 V -4.289 C 9.12525,-4.277281 8.8322813,-4.265563 8.5744688,-4.265563 8.2697813,-4.265563 7.7424375,-4.289 7.6135313,-4.289 v 0.3046875 C 7.8244688,-3.960875 7.9065,-3.8319687 7.9065,-3.679625 c 0,0.1640625 -0.1054687,0.2929688 -0.1523437,0.3515625 L 7.1330625,-2.554625 6.359625,-3.5507187 c -0.09375,-0.1054688 -0.09375,-0.1289063 -0.09375,-0.1875 0,-0.1523438 0.1523438,-0.234375 0.3515625,-0.2460938 V -4.289 c -0.2578125,0 -0.9140625,0.023437 -1.078125,0.023437 -0.2109375,0 -0.6796875,-0.011719 -0.9492187,-0.023437 v 0.3046875 c 0.703125,0 0.7148437,0.011719 1.1835937,0.609375 l 0.984375,1.2773438 -0.9375,1.19531245 C 5.3400938,-0.3280625 4.7541563,-0.304625 4.5432188,-0.304625 V 6.25e-5 C 4.8010313,-0.023375 5.1174375,-0.03509375 5.37525,-0.03509375 c 0.28125,0 0.703125,0.0234375 0.9492188,0.03515625 V -0.304625 C 6.1018125,-0.33978125 6.0315,-0.4686875 6.0315,-0.62103125 c 0,-0.2109375 0.2929688,-0.53906245 0.890625,-1.26562495 l 0.7617188,0.9960937 c 0.082031,0.1171875 0.2109375,0.26953125 0.2109375,0.328125 0,0.09375 -0.09375,0.24609375 -0.3632813,0.2578125 V 6.25e-5 c 0.3046875,-0.01171875 0.8554688,-0.03515625 1.078125,-0.03515625 0.2695313,0 0.65625,0.01171875 0.9609375,0.03515625 V -0.304625 C 9.0315,-0.304625 8.844,-0.3280625 8.6213438,-0.62103125 Z m 4.1103519,-1.40625 v -0.65625 L 9.9660703,-4.289 v 0.3046875 c 0.7031247,0 0.7734377,0.058594 0.7734377,0.4921875 v 4.6640625 c 0,0.4570313 -0.105469,0.4570313 -0.7734377,0.4570313 V 1.9336563 C 10.305914,1.9219375 10.821539,1.8985 11.079352,1.8985 c 0.269531,0 0.773437,0.023437 1.125,0.035156 V 1.6289688 c -0.667969,0 -0.773438,0 -0.773438,-0.4570313 V -0.585875 c 0.04687,0.15234375 0.46875,0.69140625 1.21875,0.69140625 1.183594,0 2.226563,-0.97265625 2.226563,-2.26171875 0,-1.265625 -0.972657,-2.25 -2.085938,-2.25 -0.773437,0 -1.195312,0.4453125 -1.394531,0.65625 z m 0.03516,2.6132813 V -3.3515 c 0.28125,-0.515625 0.773438,-0.796875 1.277344,-0.796875 0.726562,0 1.335937,0.8671875 1.335937,1.9921875 0,1.20703125 -0.691406,2.05078125 -1.429687,2.05078125 -0.398438,0 -0.773438,-0.19921875 -1.042969,-0.609375 -0.140625,-0.2109375 -0.140625,-0.22265625 -0.140625,-0.42187495 z m 0,0"
       style="fill:#000000;fill-opacity:1;fill-rule:nonzero;stroke:none"
       aria-label="exp"
       transform="matrix(1.3333333,0,0,1.3333333,595.208,279.21867)" />
    <path
       id="path48"
       d="m 92.12735,45.35474 34.01565,-2.83463 8.50413,25.51239 -34.01565,2.83461 z"
       style="fill:#b3b3ff;fill-opacity:0.8;fill-rule:nonzero;stroke:#0000ff;stroke-width:0.79701;stroke-linecap:butt;stroke-linejoin:miter;stroke-miterlimit:10;stroke-dasharray:none;stroke-opacity:0.8"
       transform="matrix(1.3333333,0,0,-1.3333333,429.61867,339.06667)" />
    <path
       id="path49"
       d="m 94.1199,45.35474 c 0,1.10046 -0.89207,1.99255 -1.99255,1.99255 -1.10046,0 -1.99255,-0.89209 -1.99255,-1.99255 0,-1.10048 0.89209,-1.99256 1.99255,-1.99256 1.10048,0 1.99255,0.89208 1.99255,1.99256 z"
       style="fill:#000000;fill-opacity:1;fill-rule:nonzero;stroke:none"
       transform="matrix(1.3333333,0,0,-1.3333333,429.61867,339.06667)" />
    <path
       id="path50"
       d="m 7.1839609,-3.3746953 c 0,-2.0390625 -1.5,-3.6445313 -3.3164062,-3.6445313 -1.78125,0 -3.30468751,1.59375 -3.30468751,3.6445313 0,2.0390625 1.53515621,3.59765624 3.30468751,3.59765624 1.8164062,0 3.3164062,-1.58203124 3.3164062,-3.59765624 z m -3.3046875,3.36328124 c -0.984375,0 -2.3554687,-0.85546875 -2.3554687,-3.36328124 0,-2.5664063 1.3828125,-3.4335938 2.34375,-3.4335938 1.0078125,0 2.34375,0.9140625 2.34375,3.4335938 0,2.54296874 -1.3945313,3.36328124 -2.3320313,3.36328124 z M 5.6488047,-4.1246953 H 5.4027109 v 0.3398437 H 2.3441172 V -4.1246953 H 2.0980234 v 1.4296875 h 0.2460938 v -0.328125 h 3.0585937 v 0.328125 h 0.2460938 z m 0,0"
       style="fill:#000000;fill-opacity:1;fill-rule:nonzero;stroke:none"
       aria-label="Θ"
       transform="matrix(1.3333333,0,0,1.3333333,522.03467,270.316)" />
    <path
       id="path51"
       d="M 0,0 H 7.749"
       style="fill:none;stroke:#000000;stroke-width:0.398;stroke-linecap:butt;stroke-linejoin:miter;stroke-miterlimit:10;stroke-dasharray:none;stroke-opacity:1"
       transform="matrix(1.3333333,0,0,-1.3333333,522.03467,272.17467)" />
    <g
       id="g51"
       aria-label="(t)"
       transform="matrix(1.3333333,0,0,1.3333333,532.36667,270.316)">
      <path
         id="path52"
         d="m 3.2933594,2.3909297 c 0,-0.035156 0,-0.046875 -0.1640625,-0.2226563 -1.2421875,-1.25390621 -1.5703125,-3.12890621 -1.5703125,-4.6640625 0,-1.7226562 0.3867187,-3.4570312 1.6054687,-4.7109375 0.1289063,-0.1171875 0.1289063,-0.1289062 0.1289063,-0.1640625 0,-0.070312 -0.035156,-0.1054687 -0.09375,-0.1054687 -0.1054688,0 -0.9960938,0.6796875 -1.5820313,1.9453125 -0.515625,1.1015625 -0.63281247,2.203125 -0.63281247,3.0351562 0,0.7851563 0.11718747,1.99218754 0.65624997,3.11718754 0.5976563,1.21874996 1.453125,1.87499996 1.5585938,1.87499996 0.058594,0 0.09375,-0.035156 0.09375,-0.1054687 z m 0,0"
         style="fill:#000000;fill-opacity:1;fill-rule:nonzero;stroke:none" />
      <path
         id="path53"
         d="m 5.9242188,-3.9840703 h 0.9375 c 0.1992187,0 0.3046875,0 0.3046875,-0.1992188 0,-0.1054687 -0.1054688,-0.1054687 -0.28125,-0.1054687 H 6.00625 c 0.3632813,-1.4179688 0.4101563,-1.6171875 0.4101563,-1.6757813 0,-0.1757812 -0.1171875,-0.2695312 -0.2929688,-0.2695312 -0.023437,0 -0.3046875,0.011719 -0.3984375,0.3515625 l -0.3867187,1.59375 h -0.9375 c -0.1992188,0 -0.2929688,0 -0.2929688,0.1875 0,0.1171875 0.070312,0.1171875 0.2695313,0.1171875 H 5.25625 c -0.7148437,2.8242187 -0.75,2.99999999 -0.75,3.17578124 0,0.5390625 0.375,0.9140625 0.9140625,0.9140625 1.0078125,0 1.5820313,-1.45312504 1.5820313,-1.53515624 0,-0.09375 -0.082031,-0.09375 -0.1171875,-0.09375 -0.09375,0 -0.1054688,0.023437 -0.1523438,0.140625 -0.4335937,1.03124999 -0.9609375,1.27734374 -1.3007812,1.27734374 -0.1992188,0 -0.3046875,-0.12890625 -0.3046875,-0.45703125 0,-0.24609375 0.023437,-0.31640625 0.058594,-0.48046879 z m 0,0"
         style="fill:#000000;fill-opacity:1;fill-rule:nonzero;stroke:none" />
      <path
         id="path54"
         d="m 10.353906,-2.4957891 c 0,-0.7734375 -0.117187,-1.9804687 -0.6562497,-3.1054687 -0.5976563,-1.21875 -1.4648438,-1.875 -1.5585938,-1.875 -0.058594,0 -0.1054687,0.046875 -0.1054687,0.1054687 0,0.035156 0,0.046875 0.1992187,0.234375 0.9726563,0.984375 1.5351563,2.5664063 1.5351563,4.640625 0,1.71093754 -0.3632813,3.45703129 -1.59375,4.7226563 -0.140625,0.1171875 -0.140625,0.1289062 -0.140625,0.1640625 0,0.058594 0.046875,0.1054687 0.1054687,0.1054687 0.09375,0 0.9960938,-0.6796875 1.5820313,-1.94531246 C 10.225,-0.55047656 10.353906,-1.6520391 10.353906,-2.4957891 Z m 0,0"
         style="fill:#000000;fill-opacity:1;fill-rule:nonzero;stroke:none" />
    </g>
    <path
       id="path55"
       d="m 136.63968,68.0325 c 0,1.10047 -0.89209,1.99255 -1.99255,1.99255 -1.10048,0 -1.99256,-0.89208 -1.99256,-1.99255 0,-1.10048 0.89208,-1.99255 1.99256,-1.99255 1.10046,0 1.99255,0.89207 1.99255,1.99255 z"
       style="fill:#000000;fill-opacity:1;fill-rule:nonzero;stroke:none"
       transform="matrix(1.3333333,0,0,-1.3333333,429.61867,339.06667)" />
    <path
       id="path56"
       d="M 0,0 H 7.749"
       style="fill:none;stroke:#000000;stroke-width:0.398;stroke-linecap:butt;stroke-linejoin:miter;stroke-miterlimit:10;stroke-dasharray:none;stroke-opacity:1"
       transform="matrix(1.3333333,0,0,-1.3333333,614.10533,254.11467)" />
    <g
       id="g56"
       aria-label="Θ(t)"
       transform="matrix(1.3333333,0,0,1.3333333,614.10533,265.05067)">
      <path
         id="path57"
         d="m 7.1836953,-3.3749141 c 0,-2.0390625 -1.5,-3.6445312 -3.3164062,-3.6445312 -1.78125,0 -3.30468754,1.59375 -3.30468754,3.6445312 0,2.0390625 1.53515624,3.59765629 3.30468754,3.59765629 1.8164062,0 3.3164062,-1.58203129 3.3164062,-3.59765629 z m -3.3046875,3.36328129 c -0.984375,0 -2.3554687,-0.85546875 -2.3554687,-3.36328129 0,-2.5664062 1.3828125,-3.4335937 2.34375,-3.4335937 1.0078125,0 2.34375,0.9140625 2.34375,3.4335937 0,2.54296879 -1.3945313,3.36328129 -2.3320313,3.36328129 z M 5.6485391,-4.1249141 H 5.4024453 v 0.3398438 H 2.3438516 V -4.1249141 H 2.0977578 v 1.4296875 h 0.2460938 v -0.328125 h 3.0585937 v 0.328125 h 0.2460938 z m 5.3935549,6.515625 c 0,-0.035156 0,-0.046875 -0.164063,-0.2226562 -1.2421872,-1.25390626 -1.5703122,-3.12890626 -1.5703122,-4.6640625 0,-1.7226563 0.3867187,-3.4570313 1.6054692,-4.7109375 0.128906,-0.1171875 0.128906,-0.1289063 0.128906,-0.1640625 0,-0.070312 -0.03516,-0.1054688 -0.09375,-0.1054688 -0.105469,0 -0.996094,0.6796875 -1.5820315,1.9453125 -0.515625,1.1015625 -0.6328125,2.203125 -0.6328125,3.0351563 0,0.7851562 0.1171875,1.99218749 0.65625,3.11718749 0.5976563,1.21875001 1.453125,1.87500001 1.558594,1.87500001 0.05859,0 0.09375,-0.035156 0.09375,-0.1054688 z m 0,0"
         style="fill:#000000;fill-opacity:1;fill-rule:nonzero;stroke:none" />
      <path
         id="path58"
         d="m 13.672953,-3.9842891 h 0.9375 c 0.199219,0 0.304688,0 0.304688,-0.1992187 0,-0.1054688 -0.105469,-0.1054688 -0.28125,-0.1054688 h -0.878907 c 0.363282,-1.4179687 0.410157,-1.6171875 0.410157,-1.6757812 0,-0.1757813 -0.117188,-0.2695313 -0.292969,-0.2695313 -0.02344,0 -0.304688,0.011719 -0.398438,0.3515625 l -0.386718,1.59375 h -0.9375 c -0.199219,0 -0.292969,0 -0.292969,0.1875 0,0.1171875 0.07031,0.1171875 0.269531,0.1171875 h 0.878906 c -0.714843,2.8242188 -0.75,3.00000004 -0.75,3.17578129 0,0.5390625 0.375,0.9140625 0.914063,0.9140625 1.007812,0 1.582031,-1.45312499 1.582031,-1.53515629 0,-0.09375 -0.08203,-0.09375 -0.117187,-0.09375 -0.09375,0 -0.105469,0.023437 -0.152344,0.140625 -0.433594,1.03125004 -0.960938,1.27734379 -1.300781,1.27734379 -0.199219,0 -0.304688,-0.12890625 -0.304688,-0.45703125 0,-0.24609375 0.02344,-0.31640625 0.05859,-0.48046874 z m 0,0"
         style="fill:#000000;fill-opacity:1;fill-rule:nonzero;stroke:none" />
      <path
         id="path59"
         d="m 18.102641,-2.4960078 c 0,-0.7734375 -0.117188,-1.9804688 -0.65625,-3.1054688 -0.597657,-1.21875 -1.464844,-1.875 -1.558594,-1.875 -0.05859,0 -0.105469,0.046875 -0.105469,0.1054688 0,0.035156 0,0.046875 0.199219,0.234375 0.972656,0.984375 1.535156,2.5664062 1.535156,4.640625 0,1.71093749 -0.363281,3.45703124 -1.59375,4.7226562 -0.140625,0.1171875 -0.140625,0.1289063 -0.140625,0.1640625 0,0.058594 0.04687,0.1054688 0.105469,0.1054688 0.09375,0 0.996094,-0.6796875 1.582031,-1.94531251 0.503906,-1.1015625 0.632813,-2.20312499 0.632813,-3.04687499 z m 0,0"
         style="fill:#000000;fill-opacity:1;fill-rule:nonzero;stroke:none" />
    </g>
    <path
       id="path60"
       d="m 29.40977,21.79149 c 26.19046,0 49.62237,0.88158 62.36393,22.95067"
       style="fill:none;stroke:#000000;stroke-width:0.79701;stroke-linecap:butt;stroke-linejoin:miter;stroke-miterlimit:10;stroke-dasharray:none;stroke-opacity:1"
       transform="matrix(1.3333333,0,0,-1.3333333,429.61867,339.06667)" />
    <path
       id="path61"
       d="M -1.55415,2.0722 C -1.42464,1.29512 0,0.1295 0.38852,0 0,-0.1295 -1.42464,-1.29512 -1.55415,-2.0722"
       style="fill:none;stroke:#000000;stroke-width:0.6376;stroke-linecap:round;stroke-linejoin:round;stroke-miterlimit:10;stroke-dasharray:none;stroke-opacity:1"
       transform="matrix(0.66664,-1.15468,-1.15468,-0.66664,551.98357,279.41048)" />
    <path
       id="path62"
       d="m 55.63065,34.90215 c 33.41444,0 62.30926,4.19252 78.66281,32.51777"
       style="fill:none;stroke:#000000;stroke-width:0.79701;stroke-linecap:butt;stroke-linejoin:miter;stroke-miterlimit:10;stroke-dasharray:none;stroke-opacity:1"
       transform="matrix(1.3333333,0,0,-1.3333333,429.61867,339.06667)" />
    <path
       id="path63"
       d="M -1.55415,2.0722 C -1.42464,1.29512 0,0.1295 0.38852,0 0,-0.1295 -1.42464,-1.29512 -1.55415,-2.0722"
       style="fill:none;stroke:#000000;stroke-width:0.6376;stroke-linecap:round;stroke-linejoin:round;stroke-miterlimit:10;stroke-dasharray:none;stroke-opacity:1"
       transform="matrix(0.66664,-1.15468,-1.15468,-0.66664,608.67659,249.17347)" />
    <path
       id="path64"
       d="m 44.51276,28.3468 c 0,1.10048 -0.89209,1.99256 -1.99256,1.99256 -1.10048,0 -1.99255,-0.89208 -1.99255,-1.99256 0,-1.10046 0.89207,-1.99255 1.99255,-1.99255 1.10047,0 1.99256,0.89209 1.99256,1.99255 z"
       style="fill:#000000;fill-opacity:1;fill-rule:nonzero;stroke:none"
       transform="matrix(1.3333333,0,0,-1.3333333,429.61867,339.06667)" />
    <g
       id="g64"
       aria-label="˚x"
       transform="matrix(1.3333333,0,0,1.3333333,472.94533,296.31333)">
      <path
         id="path65"
         d="m 4.6874844,-6.2701563 c 0,-0.4570312 -0.4101563,-0.8671875 -0.9492188,-0.8671875 -0.5742187,0 -0.9609375,0.4335938 -0.9609375,0.8671875 0,0.5039063 0.4453125,0.8789063 0.9492188,0.8789063 0.5507812,0 0.9609375,-0.3984375 0.9609375,-0.8789063 z m -0.9492188,0.65625 c -0.4335937,0 -0.7148437,-0.1875 -0.7148437,-0.6445312 0,-0.4570313 0.2695312,-0.65625 0.703125,-0.65625 0.421875,0 0.703125,0.1875 0.703125,0.6445312 0,0.4570313 -0.2695313,0.65625 -0.6914063,0.65625 z m 0,0"
         style="fill:#000000;fill-opacity:1;fill-rule:nonzero;stroke:none" />
      <path
         id="path66"
         d="m 3.9404141,-3.0123438 c 0.058594,-0.2578125 0.2929687,-1.171875 0.984375,-1.171875 0.046875,0 0.2929687,0 0.5039062,0.1289063 -0.28125,0.046875 -0.4804687,0.3046875 -0.4804687,0.5390625 0,0.1640625 0.1054687,0.3515625 0.375,0.3515625 0.2226562,0 0.5390625,-0.1875 0.5390625,-0.5859375 0,-0.515625 -0.5859375,-0.65625 -0.9257813,-0.65625 -0.5742187,0 -0.9257812,0.5273437 -1.0429687,0.7617187 -0.2578125,-0.65625 -0.7851563,-0.7617187 -1.078125,-0.7617187 -1.0429688,0 -1.6054688,1.2890625 -1.6054688,1.5351562 0,0.1054688 0.1054688,0.1054688 0.1171875,0.1054688 0.082031,0 0.1171875,-0.023437 0.1289063,-0.1171875 0.3398437,-1.0546875 0.9960937,-1.3007813 1.3359375,-1.3007813 0.1875,0 0.5390625,0.09375 0.5390625,0.6679688 0,0.3046875 -0.1640625,0.9726562 -0.5390625,2.3671875 -0.1523438,0.62109375 -0.5039063,1.04296875 -0.9492188,1.04296875 -0.058594,0 -0.28125,0 -0.4921875,-0.12890625 0.2460938,-0.0585938 0.46875,-0.26953125 0.46875,-0.5390625 0,-0.2695313 -0.2226562,-0.3515625 -0.375,-0.3515625 -0.2929687,0 -0.53906249,0.2578125 -0.53906249,0.57421875 0,0.45703125 0.49218749,0.65625 0.93749999,0.65625 0.65625,0 1.0078125,-0.69140625 1.0429688,-0.75 0.1171875,0.36328125 0.4804687,0.75 1.078125,0.75 1.0195312,0 1.59375,-1.27734375 1.59375,-1.53515625 0,-0.09375 -0.09375,-0.09375 -0.1289063,-0.09375 -0.082031,0 -0.1054687,0.035156 -0.1289062,0.1054687 -0.328125,1.0664063 -0.9960938,1.31250005 -1.3242188,1.31250005 -0.3867187,0 -0.5390625,-0.328125 -0.5390625,-0.65625 0,-0.22265625 0.058594,-0.44531255 0.1640625,-0.87890625 z m 0,0"
         style="fill:#000000;fill-opacity:1;fill-rule:nonzero;stroke:none" />
    </g>
    <path
       id="path67"
       d="M 4.7707813,-5.4851016 C 4.68875,-6.2351016 4.595,-6.8093203 3.891875,-6.8093203 c -0.9375,0 -1.59375,0.6796875 -1.59375,0.9609375 0,0.070312 0.058594,0.070312 0.1171875,0.070312 0.1054688,0 0.5390625,-0.1289063 0.7265625,-0.46875 l 0.011719,-0.011719 c 0.5507812,0 0.6796875,0.3164063 0.7851562,1.3359375 l 0.140625,1.4648438 c -0.3632812,0.1992187 -1.7109375,1.0078125 -2.4257812,1.5 -1.1367188,0.8085937 -1.14843755,1.11328124 -1.14843755,1.39453124 0,0.33984375 0.17578125,0.5624999975 0.46875,0.5624999975 0.30468755,0 0.76171875,-0.3281249975 0.76171875,-0.4804687475 0,-0.046875 -0.035156,-0.0585938 -0.070312,-0.0703125 -0.082031,-0.0117188 -0.3164062,-0.046875 -0.3164062,-0.43359375 0,-0.26953124 0,-0.38671874 1.0546875,-1.10156254 0.609375,-0.3984375 1.1835937,-0.7148437 1.6992187,-1.0429687 0,0.023437 0.1523438,1.5117187 0.1757813,1.6875 0.070312,0.78515624 0.140625,1.4414062375 0.8789062,1.4414062375 0.9492188,0 1.59375,-0.6796874975 1.59375,-0.9609374975 0,-0.0703125 -0.046875,-0.0703125 -0.1054687,-0.0703125 -0.1054688,0 -0.5390625,0.12890649 -0.7265625,0.46875024 -0.035156,0.0117188 -0.082031,0.0117188 -0.1054688,0.0117188 -0.5625,0 -0.6210937,-0.62109394 -0.703125,-1.46484394 -0.023437,-0.3164062 -0.058594,-0.5742187 -0.1640625,-1.6054687 3.1054688,-1.8632813 3.1054688,-2.203125 3.1054688,-2.625 0,-0.3398438 -0.1757813,-0.5625 -0.46875,-0.5625 -0.3046875,0 -0.7734375,0.3398437 -0.7734375,0.4804687 0,0.058594 0.070312,0.070312 0.070312,0.070312 0.082031,0.011719 0.328125,0.046875 0.328125,0.4453125 0,0.2460938 -0.035156,0.3984375 -0.8789063,0.9726563 -0.3046875,0.1992187 -0.7148437,0.4570312 -1.40625,0.8789062 z m 0,0"
       style="fill:#000000;fill-opacity:1;fill-rule:nonzero;stroke:none"
       aria-label="X"
       transform="matrix(1.3333333,0,0,1.3333333,707.37333,324.708)" />
  </g>
</svg>
