<?xml version="1.0" encoding="UTF-8" standalone="no"?>
<!DOCTYPE svg PUBLIC "-//W3C//DTD SVG 1.1//EN" "http://www.w3.org/Graphics/SVG/1.1/DTD/svg11.dtd">
<svg xmlns="http://www.w3.org/2000/svg" xmlns:xlink="http://www.w3.org/1999/xlink" version="1.1" width="1279.9999pt" height="960pt" viewBox="0 0 1279.9999 960">
<g enable-background="new">
<path transform="matrix(2.7777777,0,0,-2.7777777,0,960)" d="M 0 0 L 460.8 0 L 460.8 345.6 L 0 345.6 Z " fill="#ffffff"/>
<path transform="matrix(2.7777777,0,0,-2.7777777,0,960)" d="M 72.72 15.12 L 388.08 15.12 L 388.08 330.48 L 72.72 330.48 Z " fill="#ffffff"/>
<g>
<path transform="matrix(2.7777777,0,0,-2.7777777,0,960)" d="M 234.66162 182.39685 L 375.02479 112.595729 L 381.43406 244.47116 L 234.66162 308.08735 " fill="#f5f5f5" fill-opacity=".5"/>
<path transform="matrix(2.7777777,0,0,-2.7777777,0,960)" stroke-width="1" stroke-linecap="butt" stroke-miterlimit="10" stroke-linejoin="miter" fill="none" stroke="#f5f5f5" stroke-opacity=".5" d="M 234.66162 182.39685 L 375.02479 112.595729 L 381.43406 244.47116 L 234.66162 308.08735 "/>
</g>
<g>
<path transform="matrix(2.7777777,0,0,-2.7777777,0,960)" d="M 234.66162 182.39685 L 94.29846 112.595729 L 87.88919 244.47116 L 234.66162 308.08735 " fill="#ebebeb" fill-opacity=".5"/>
<path transform="matrix(2.7777777,0,0,-2.7777777,0,960)" stroke-width="1" stroke-linecap="butt" stroke-miterlimit="10" stroke-linejoin="miter" fill="none" stroke="#ebebeb" stroke-opacity=".5" d="M 234.66162 182.39685 L 94.29846 112.595729 L 87.88919 244.47116 L 234.66162 308.08735 "/>
</g>
<g>
<path transform="matrix(2.7777777,0,0,-2.7777777,0,960)" d="M 234.66162 182.39685 L 94.29846 112.595729 L 234.66162 32.0752 L 375.02479 112.595729 " fill="#f0f0f0" fill-opacity=".5"/>
<path transform="matrix(2.7777777,0,0,-2.7777777,0,960)" stroke-width="1" stroke-linecap="butt" stroke-miterlimit="10" stroke-linejoin="miter" fill="none" stroke="#f0f0f0" stroke-opacity=".5" d="M 234.66162 182.39685 L 94.29846 112.595729 L 234.66162 32.0752 L 375.02479 112.595729 "/>
</g>
<path transform="matrix(2.7777777,0,0,-2.7777777,0,960)" stroke-width=".8" stroke-linecap="butt" stroke-linejoin="round" fill="none" stroke="#bebebe" d="M 375.02479 112.595729 L 234.66162 182.39685 L 234.66162 308.08735 "/>
<path transform="matrix(2.7777777,0,0,-2.7777777,0,960)" stroke-width=".8" stroke-linecap="butt" stroke-linejoin="round" fill="none" stroke="#bebebe" d="M 341.8448 93.561748 L 201.3523 165.83248 L 199.91188 293.0256 "/>
<path transform="matrix(2.7777777,0,0,-2.7777777,0,960)" stroke-width=".8" stroke-linecap="butt" stroke-linejoin="round" fill="none" stroke="#bebebe" d="M 307.43803 73.82401 L 166.89621 148.69782 L 163.91312 277.42253 "/>
<path transform="matrix(2.7777777,0,0,-2.7777777,0,960)" stroke-width=".8" stroke-linecap="butt" stroke-linejoin="round" fill="none" stroke="#bebebe" d="M 271.7352 53.34277 L 131.23313 130.96294 L 126.59679 261.24836 "/>
<path transform="matrix(2.7777777,0,0,-2.7777777,0,960)" stroke-width=".8" stroke-linecap="butt" stroke-linejoin="round" fill="none" stroke="#bebebe" d="M 234.66162 32.0752 L 94.29846 112.595729 L 87.88919 244.47116 "/>
<path transform="matrix(2.7777777,0,0,-2.7777777,0,960)" stroke-width=".8" stroke-linecap="butt" stroke-linejoin="round" fill="none" stroke="#bebebe" d="M 234.66162 308.08735 L 234.66162 182.39685 L 94.29846 112.595729 "/>
<path transform="matrix(2.7777777,0,0,-2.7777777,0,960)" stroke-width=".8" stroke-linecap="butt" stroke-linejoin="round" fill="none" stroke="#bebebe" d="M 269.41139 293.0256 L 267.97096 165.83248 L 127.478458 93.561748 "/>
<path transform="matrix(2.7777777,0,0,-2.7777777,0,960)" stroke-width=".8" stroke-linecap="butt" stroke-linejoin="round" fill="none" stroke="#bebebe" d="M 305.41014 277.42253 L 302.42704 148.69782 L 161.88521 73.82401 "/>
<path transform="matrix(2.7777777,0,0,-2.7777777,0,960)" stroke-width=".8" stroke-linecap="butt" stroke-linejoin="round" fill="none" stroke="#bebebe" d="M 342.72648 261.24836 L 338.09013 130.96294 L 197.58806 53.34277 "/>
<path transform="matrix(2.7777777,0,0,-2.7777777,0,960)" stroke-width=".8" stroke-linecap="butt" stroke-linejoin="round" fill="none" stroke="#bebebe" d="M 381.43406 244.47116 L 375.02479 112.595729 L 234.66162 32.0752 "/>
<path transform="matrix(2.7777777,0,0,-2.7777777,0,960)" stroke-width=".8" stroke-linecap="butt" stroke-linejoin="round" fill="none" stroke="#bebebe" d="M 94.29846 112.595729 L 234.66162 182.39685 L 375.02479 112.595729 "/>
<path transform="matrix(2.7777777,0,0,-2.7777777,0,960)" stroke-width=".8" stroke-linecap="butt" stroke-linejoin="round" fill="none" stroke="#bebebe" d="M 92.7492 144.4729 L 234.66162 212.84896 L 376.57405 144.4729 "/>
<path transform="matrix(2.7777777,0,0,-2.7777777,0,960)" stroke-width=".8" stroke-linecap="butt" stroke-linejoin="round" fill="none" stroke="#bebebe" d="M 91.16536 177.06162 L 234.66162 243.93462 L 378.1579 177.06162 "/>
<path transform="matrix(2.7777777,0,0,-2.7777777,0,960)" stroke-width=".8" stroke-linecap="butt" stroke-linejoin="round" fill="none" stroke="#bebebe" d="M 89.54576 210.38599 L 234.66162 275.6738 L 379.7775 210.38599 "/>
<path transform="matrix(2.7777777,0,0,-2.7777777,0,960)" stroke-width=".8" stroke-linecap="butt" stroke-linejoin="round" fill="none" stroke="#bebebe" d="M 87.88919 244.47116 L 234.66162 308.08735 L 381.43406 244.47116 "/>
<path transform="matrix(2.7777777,0,0,-2.7777777,0,960)" stroke-width=".8" stroke-linecap="square" stroke-linejoin="round" fill="none" stroke="#000000" d="M 375.02479 112.595729 L 234.66162 32.0752 "/>
<path transform="matrix(2.7777777,0,0,-2.7777777,0,960)" stroke-width=".8" stroke-linecap="square" stroke-linejoin="round" fill="none" stroke="#000000" d="M 373.82249 113.19361 L 377.4335 111.3979 "/>
<symbol id="font_0_1">
<path d="M .57600006 0 C .59300008 0 .611 0 .611 .019999996 C .611 .040000008 .59300008 .040000008 .57600006 .040000008 L .035000005 .040000008 C .018 .040000008 0 .040000008 0 .019999996 C 0 0 .018 0 .035000005 0 L .57600006 0 Z "/>
</symbol>
<use xlink:href="#font_0_1" transform="matrix(38.7436,0,0,-38.7436,1033.755,705.0749)"/>
<symbol id="font_1_32">
<path d="M .407 .34100003 C .407 .42400003 .402 .50500008 .366 .58100005 C .32500003 .66400006 .253 .68600007 .204 .68600007 C .146 .68600007 .075 .65700009 .038000004 .57400009 C .010000002 .51100006 0 .44900004 0 .34100003 C 0 .244 .0069999995 .171 .043000007 .10000001 C .082 .024000003 .151 0 .20300001 0 C .29000003 0 .34 .052 .36900003 .11 C .405 .185 .407 .28300003 .407 .34100003 M .20300001 .020000002 C .171 .020000002 .106 .038000004 .087000008 .147 C .076000008 .207 .076000008 .28300003 .076000008 .35300002 C .076000008 .43500004 .076000008 .50900009 .092 .5680001 C .109000008 .63500007 .16 .66600009 .20300001 .66600009 C .241 .66600009 .299 .64300009 .31800003 .55700007 C .331 .50000008 .331 .421 .331 .35300002 C .331 .286 .331 .21000001 .32000003 .149 C .301 .039000006 .238 .020000002 .20300001 .020000002 Z "/>
</symbol>
<use xlink:href="#font_1_32" transform="matrix(38.7436,0,0,-38.7436,1062.2619,714.7995)"/>
<symbol id="font_2_3b">
<path d="M .09700001 .048 C .09700001 .07700001 .07300001 .097 .049000004 .097 C .020000004 .097 0 .07300001 0 .049000004 C 0 .020000002 .024000004 0 .048 0 C .077 0 .09700001 .024 .09700001 .048 Z "/>
</symbol>
<use xlink:href="#font_2_3b" transform="matrix(38.7436,0,0,-38.7436,1083.0121,713.9859)"/>
<symbol id="font_1_34">
<path d="M .39100004 .16800002 L .36900003 .16800002 C .36600004 .15100001 .358 .096 .34800003 .080000009 C .34100003 .071 .284 .071 .254 .071 L .069000009 .071 C .09600001 .094000007 .157 .158 .183 .18200001 C .335 .32200004 .39100004 .374 .39100004 .47300003 C .39100004 .588 .3 .665 .18400002 .665 C .068 .665 0 .56600007 0 .48000003 C 0 .42900003 .044 .42900003 .047 .42900003 C .068 .42900003 .094000007 .44400005 .094000007 .476 C .094000007 .504 .075 .523 .047 .523 C .038000004 .523 .036 .523 .033 .522 C .052 .59000006 .106 .63600006 .171 .63600006 C .256 .63600006 .30800004 .565 .30800004 .47300003 C .30800004 .388 .25900004 .314 .20200002 .25 L 0 .024 L 0 0 L .36500005 0 L .39100004 .16800002 Z "/>
</symbol>
<use xlink:href="#font_1_34" transform="matrix(38.7436,0,0,-38.7436,1092.0776,713.9859)"/>
<path transform="matrix(2.7777777,0,0,-2.7777777,0,960)" stroke-width=".8" stroke-linecap="square" stroke-linejoin="round" fill="none" stroke="#000000" d="M 340.63996 94.181529 L 344.25868 92.320018 "/>
<use xlink:href="#font_0_1" transform="matrix(38.7436,0,0,-38.7436,941.91757,758.7634)"/>
<use xlink:href="#font_1_32" transform="matrix(38.7436,0,0,-38.7436,970.4243,768.48806)"/>
<use xlink:href="#font_2_3b" transform="matrix(38.7436,0,0,-38.7436,991.17459,767.67446)"/>
<symbol id="font_1_33">
<path d="M .19700001 .64100006 C .19700001 .66400006 .19700001 .665 .177 .665 C .15300001 .638 .103 .601 0 .601 L 0 .572 C .023000002 .572 .073 .572 .128 .59800007 L .128 .07700001 C .128 .041 .125 .029000001 .037 .029000001 L .0059999974 .029000001 L .0059999974 0 C .033 .002 .13000001 .002 .163 .002 C .196 .002 .292 .002 .319 0 L .319 .029000001 L .288 .029000001 C .2 .029000001 .19700001 .041 .19700001 .07700001 L .19700001 .64100006 Z "/>
</symbol>
<use xlink:href="#font_1_33" transform="matrix(38.7436,0,0,-38.7436,1001.8674,767.67446)"/>
<path transform="matrix(2.7777777,0,0,-2.7777777,0,960)" stroke-width=".8" stroke-linecap="square" stroke-linejoin="round" fill="none" stroke="#000000" d="M 306.23127 74.46691 L 309.85585 72.53592 "/>
<use xlink:href="#font_1_32" transform="matrix(38.7436,0,0,-38.7436,860.1176,824.1656)"/>
<use xlink:href="#font_2_3b" transform="matrix(38.7436,0,0,-38.7436,880.8678,823.352)"/>
<use xlink:href="#font_1_32" transform="matrix(38.7436,0,0,-38.7436,889.6235,824.1656)"/>
<path transform="matrix(2.7777777,0,0,-2.7777777,0,960)" stroke-width=".8" stroke-linecap="square" stroke-linejoin="round" fill="none" stroke="#000000" d="M 270.52723 54.010114 L 274.15553 52.005674 "/>
<use xlink:href="#font_1_32" transform="matrix(38.7436,0,0,-38.7436,761.2829,881.9448)"/>
<use xlink:href="#font_2_3b" transform="matrix(38.7436,0,0,-38.7436,782.0331,881.1312)"/>
<use xlink:href="#font_1_33" transform="matrix(38.7436,0,0,-38.7436,792.7259,881.1312)"/>
<path transform="matrix(2.7777777,0,0,-2.7777777,0,960)" stroke-width=".8" stroke-linecap="square" stroke-linejoin="round" fill="none" stroke="#000000" d="M 233.45323 32.768404 L 237.08286 30.686242 "/>
<use xlink:href="#font_1_32" transform="matrix(38.7436,0,0,-38.7436,658.6457,941.9469)"/>
<use xlink:href="#font_2_3b" transform="matrix(38.7436,0,0,-38.7436,679.3959,941.1333)"/>
<use xlink:href="#font_1_34" transform="matrix(38.7436,0,0,-38.7436,688.4615,941.1333)"/>
<symbol id="font_2_1f">
<path d="M .38300003 .88900008 C .38300003 .898 .37600003 .898 .37300004 .898 C .36400003 .898 .36300005 .896 .35900004 .879 L .30500005 .66400006 C .30200003 .651 .30100004 .65000006 .3 .64900007 C .29900003 .647 .29200004 .646 .29000003 .646 C .126 .632 0 .49700005 0 .37200005 C 0 .264 .083000008 .19800002 .187 .19200002 C .179 .16100002 .172 .12900001 .164 .098000008 C .15 .045 .142 .012000009 .142 .008000001 C .142 .0059999974 .142 0 .15200001 0 C .155 0 .15900001 0 .161 .004000008 C .163 .0059999974 .169 .030000002 .17300001 .042999999 L .21 .19200002 C .38100005 .201 .51100006 .34100003 .51100006 .467 C .51100006 .568 .43500004 .64000007 .32400004 .647 L .38300003 .88900008 M .31800003 .62700006 C .38400004 .623 .45000003 .586 .45000003 .48800005 C .45000003 .375 .37100003 .22500001 .21500002 .21300002 L .31800003 .62700006 M .192 .21200001 C .143 .21500002 .061 .24100001 .061 .351 C .061 .477 .15200001 .61700007 .29600004 .62600007 L .192 .21200001 Z "/>
</symbol>
<use xlink:href="#font_2_1f" transform="matrix(33.606534,-19.278674,-19.278674,-33.606534,917.27896,863.7985)"/>
<path transform="matrix(2.7777777,0,0,-2.7777777,0,960)" stroke-width=".8" stroke-linecap="square" stroke-linejoin="round" fill="none" stroke="#000000" d="M 94.29846 112.595729 L 234.66162 32.0752 "/>
<path transform="matrix(2.7777777,0,0,-2.7777777,0,960)" stroke-width=".8" stroke-linecap="square" stroke-linejoin="round" fill="none" stroke="#000000" d="M 95.500759 113.19361 L 91.889759 111.3979 "/>
<use xlink:href="#font_0_1" transform="matrix(38.7436,0,0,-38.7436,197.74422,705.0749)"/>
<use xlink:href="#font_1_32" transform="matrix(38.7436,0,0,-38.7436,226.25098,714.7995)"/>
<use xlink:href="#font_2_3b" transform="matrix(38.7436,0,0,-38.7436,247.00122,713.9859)"/>
<symbol id="font_1_36">
<path d="M .33400003 .651 C .33400003 .67 .33400003 .675 .32 .675 C .312 .675 .30900003 .675 .301 .66300007 L 0 .19600001 L 0 .16700001 L .263 .16700001 L .263 .076000008 C .263 .039 .261 .029000001 .18800001 .029000001 L .16800002 .029000001 L .16800002 0 C .19100002 .002 .27 .002 .298 .002 C .326 .002 .40600003 .002 .42900003 0 L .42900003 .029000001 L .409 .029000001 C .337 .029000001 .33400003 .039 .33400003 .076000008 L .33400003 .16700001 L .435 .16700001 L .435 .19600001 L .33400003 .19600001 L .33400003 .651 M .268 .573 L .268 .19600001 L .025 .19600001 L .268 .573 Z "/>
</symbol>
<use xlink:href="#font_1_36" transform="matrix(38.7436,0,0,-38.7436,255.21439,713.9859)"/>
<path transform="matrix(2.7777777,0,0,-2.7777777,0,960)" stroke-width=".8" stroke-linecap="square" stroke-linejoin="round" fill="none" stroke="#000000" d="M 128.68329 94.181529 L 125.06456 92.320018 "/>
<use xlink:href="#font_0_1" transform="matrix(38.7436,0,0,-38.7436,289.58164,758.7634)"/>
<use xlink:href="#font_1_32" transform="matrix(38.7436,0,0,-38.7436,318.08839,768.48806)"/>
<use xlink:href="#font_2_3b" transform="matrix(38.7436,0,0,-38.7436,338.83863,767.67446)"/>
<use xlink:href="#font_1_34" transform="matrix(38.7436,0,0,-38.7436,347.90415,767.67446)"/>
<path transform="matrix(2.7777777,0,0,-2.7777777,0,960)" stroke-width=".8" stroke-linecap="square" stroke-linejoin="round" fill="none" stroke="#000000" d="M 163.09197 74.46691 L 159.46739 72.53592 "/>
<use xlink:href="#font_1_32" transform="matrix(38.7436,0,0,-38.7436,398.26118,824.1656)"/>
<use xlink:href="#font_2_3b" transform="matrix(38.7436,0,0,-38.7436,419.0114,823.352)"/>
<use xlink:href="#font_1_32" transform="matrix(38.7436,0,0,-38.7436,427.76704,824.1656)"/>
<path transform="matrix(2.7777777,0,0,-2.7777777,0,960)" stroke-width=".8" stroke-linecap="square" stroke-linejoin="round" fill="none" stroke="#000000" d="M 198.79602 54.010114 L 195.16774 52.005674 "/>
<use xlink:href="#font_1_32" transform="matrix(38.7436,0,0,-38.7436,497.09593,881.9448)"/>
<use xlink:href="#font_2_3b" transform="matrix(38.7436,0,0,-38.7436,517.8461,881.1312)"/>
<use xlink:href="#font_1_34" transform="matrix(38.7436,0,0,-38.7436,526.9117,881.1312)"/>
<path transform="matrix(2.7777777,0,0,-2.7777777,0,960)" stroke-width=".8" stroke-linecap="square" stroke-linejoin="round" fill="none" stroke="#000000" d="M 235.87001 32.768404 L 232.24039 30.686242 "/>
<use xlink:href="#font_1_32" transform="matrix(38.7436,0,0,-38.7436,599.7331,941.9469)"/>
<use xlink:href="#font_2_3b" transform="matrix(38.7436,0,0,-38.7436,620.4833,941.1333)"/>
<use xlink:href="#font_1_36" transform="matrix(38.7436,0,0,-38.7436,628.69656,941.1333)"/>
<symbol id="font_1_61">
<path d="M .09700001 .048000039 C .09700001 .07800001 .07300001 .097 .049000004 .097 C .020999998 .097 0 .07499999 0 .048000039 C 0 .022000015 .022 0 .048 0 C .078 0 .09700001 .023999989 .09700001 .048000039 Z "/>
</symbol>
<use xlink:href="#font_1_61" transform="matrix(33.606534,19.278674,19.278674,-33.606534,397.41038,828.23696)"/>
<use xlink:href="#font_2_1f" transform="matrix(33.606534,19.278674,19.278674,-33.606534,368.1861,857.741)"/>
<path transform="matrix(2.7777777,0,0,-2.7777777,0,960)" stroke-width=".8" stroke-linecap="square" stroke-linejoin="round" fill="none" stroke="#000000" d="M 94.29846 112.595729 L 87.88919 244.47116 "/>
<path transform="matrix(2.7777777,0,0,-2.7777777,0,960)" stroke-width=".8" stroke-linecap="square" stroke-linejoin="round" fill="none" stroke="#000000" d="M 95.500759 113.19361 L 91.889759 111.3979 "/>
<use xlink:href="#font_0_1" transform="matrix(38.7436,0,0,-38.7436,171.25443,665.9277)"/>
<use xlink:href="#font_1_32" transform="matrix(38.7436,0,0,-38.7436,199.76117,675.6523)"/>
<use xlink:href="#font_2_3b" transform="matrix(38.7436,0,0,-38.7436,220.51142,674.8387)"/>
<use xlink:href="#font_1_34" transform="matrix(38.7436,0,0,-38.7436,229.57694,674.8387)"/>
<path transform="matrix(2.7777777,0,0,-2.7777777,0,960)" stroke-width=".8" stroke-linecap="square" stroke-linejoin="round" fill="none" stroke="#000000" d="M 93.96565 145.059 L 90.31209 143.29866 "/>
<use xlink:href="#font_0_1" transform="matrix(38.7436,0,0,-38.7436,166.3483,577.38)"/>
<use xlink:href="#font_1_32" transform="matrix(38.7436,0,0,-38.7436,194.85506,587.1046)"/>
<use xlink:href="#font_2_3b" transform="matrix(38.7436,0,0,-38.7436,215.60529,586.291)"/>
<use xlink:href="#font_1_33" transform="matrix(38.7436,0,0,-38.7436,226.29805,586.291)"/>
<path transform="matrix(2.7777777,0,0,-2.7777777,0,960)" stroke-width=".8" stroke-linecap="square" stroke-linejoin="round" fill="none" stroke="#000000" d="M 92.3963 177.63527 L 88.699169 175.91231 "/>
<use xlink:href="#font_1_32" transform="matrix(38.7436,0,0,-38.7436,174.77243,496.58039)"/>
<use xlink:href="#font_2_3b" transform="matrix(38.7436,0,0,-38.7436,195.52268,495.76676)"/>
<use xlink:href="#font_1_32" transform="matrix(38.7436,0,0,-38.7436,204.27825,496.58039)"/>
<path transform="matrix(2.7777777,0,0,-2.7777777,0,960)" stroke-width=".8" stroke-linecap="square" stroke-linejoin="round" fill="none" stroke="#000000" d="M 90.79154 210.94646 L 87.04978 209.26303 "/>
<use xlink:href="#font_1_32" transform="matrix(38.7436,0,0,-38.7436,169.64357,404.01274)"/>
<use xlink:href="#font_2_3b" transform="matrix(38.7436,0,0,-38.7436,190.39382,403.1991)"/>
<use xlink:href="#font_1_33" transform="matrix(38.7436,0,0,-38.7436,201.08657,403.1991)"/>
<path transform="matrix(2.7777777,0,0,-2.7777777,0,960)" stroke-width=".8" stroke-linecap="square" stroke-linejoin="round" fill="none" stroke="#000000" d="M 89.15017 245.01772 L 85.36271 243.3761 "/>
<use xlink:href="#font_1_32" transform="matrix(38.7436,0,0,-38.7436,164.39762,309.33164)"/>
<use xlink:href="#font_2_3b" transform="matrix(38.7436,0,0,-38.7436,185.14785,308.518)"/>
<use xlink:href="#font_1_34" transform="matrix(38.7436,0,0,-38.7436,194.21337,308.518)"/>
<symbol id="font_2_77">
<path d="M .43 .384 C .43 .447 .398 .451 .39000003 .451 C .366 .451 .344 .42700003 .344 .407 C .344 .395 .351 .388 .35500003 .384 C .365 .375 .391 .34800003 .391 .296 C .391 .254 .331 .020000002 .21100001 .020000002 C .15 .020000002 .13800001 .071 .13800001 .108 C .13800001 .158 .16100002 .22800002 .18800001 .3 C .20400001 .34100003 .20800002 .351 .20800002 .37100003 C .20800002 .41300003 .17800002 .451 .12900001 .451 C .037 .451 0 .306 0 .298 C 0 .294 .0040000008 .289 .011000002 .289 C .020000002 .289 .021 .293 .025 .307 C .049000004 .393 .088 .43100003 .12600002 .43100003 C .135 .43100003 .15200001 .43100003 .15200001 .398 C .15200001 .372 .14100002 .343 .12600002 .305 C .078 .17700002 .078 .14600002 .078 .122 C .078 .1 .081 .059000005 .11200001 .031000004 C .14800002 0 .19800002 0 .20700002 0 C .373 0 .43 .327 .43 .384 Z "/>
</symbol>
<use xlink:href="#font_2_77" transform="matrix(38.7436,0,0,-38.7436,123.77343,478.22584)"/>
<clipPath id="cp3">
<path transform="matrix(2.7777777,0,0,-2.7777777,0,960)" d="M 72.72 15.12 L 388.08 15.12 L 388.08 330.47999 L 72.72 330.47999 Z "/>
</clipPath>
<g clip-path="url(#cp3)">
<path transform="matrix(2.7777777,0,0,-2.7777777,0,960)" stroke-width="1.5" stroke-linecap="square" stroke-linejoin="round" fill="none" stroke="#d62728" d="M 213.48404 127.8677 L 208.52036 133.71907 L 204.6741 138.70697 L 201.75724 142.96363 L 199.61194 146.60045 L 198.10559 149.71152 L 197.12683 152.37627 L 196.58206 154.66187 L 196.39264 156.62522 L 196.49248 158.31455 L 196.8261 159.77069 L 197.34699 161.02835 L 198.01618 162.11696 L 198.80107 163.06153 L 200.13712 164.25377 L 201.59996 165.22759 L 203.65399 166.2642 L 206.26174 167.25064 L 209.30284 168.12368 L 213.04091 168.95594 L 218.49822 169.92343 L 230.63362 172.00511 L 233.92719 172.81943 L 234.86133 173.13205 "/>
</g>
<clipPath id="cp4">
<path transform="matrix(2.7777777,0,0,-2.7777777,0,960)" d="M 72.72 15.12 L 388.08 15.12 L 388.08 330.47999 L 72.72 330.47999 Z "/>
</clipPath>
<g clip-path="url(#cp4)">
<path transform="matrix(2.7777777,0,0,-2.7777777,0,960)" stroke-width="1.5" stroke-linecap="square" stroke-linejoin="round" fill="none" stroke="#d62728" d="M 149.74797 170.64397 L 158.75569 169.53722 L 166.54471 168.81772 L 174.8954 168.30164 L 182.0037 168.07558 L 189.22733 168.04822 L 197.12491 168.24994 L 204.89115 168.68045 L 212.45696 169.32083 L 219.70829 170.15323 L 226.08502 171.1055 L 230.93759 172.0465 L 234.1163 172.87427 L 234.8612 173.13199 "/>
</g>
<clipPath id="cp5">
<path transform="matrix(2.7777777,0,0,-2.7777777,0,960)" d="M 72.72 15.12 L 388.08 15.12 L 388.08 330.47999 L 72.72 330.47999 Z "/>
</clipPath>
<g clip-path="url(#cp5)">
<path transform="matrix(2.7777777,0,0,-2.7777777,0,960)" stroke-width="1.5" stroke-linecap="square" stroke-linejoin="round" fill="none" stroke="#d62728" d="M 168.19268 214.90483 L 182.74054 209.73429 L 194.5037 205.33443 L 204.0157 201.55204 L 211.69763 198.27495 L 217.88608 195.41866 L 223.57791 192.53173 L 227.95076 190.04792 L 231.27873 187.90345 L 233.78015 186.04701 L 235.84905 184.22428 L 237.27074 182.67107 L 238.20459 181.34496 L 238.82451 180.08101 L 239.11612 179.01897 L 239.17533 178.03482 L 239.01107 177.07532 L 238.63973 176.19716 L 238.01761 175.31678 L 237.126 174.46636 L 235.9558 173.67397 L 234.88246 173.14064 "/>
</g>
<clipPath id="cp6">
<path transform="matrix(2.7777777,0,0,-2.7777777,0,960)" d="M 72.72 15.12 L 388.08 15.12 L 388.08 330.47999 L 72.72 330.47999 Z "/>
</clipPath>
<g clip-path="url(#cp6)">
<path transform="matrix(2.7777777,0,0,-2.7777777,0,960)" stroke-width="1.5" stroke-linecap="square" stroke-linejoin="round" fill="none" stroke="#d62728" d="M 232.30869 172.57157 L 227.80867 177.14118 L 224.41747 180.84455 L 221.93695 183.82169 L 220.20174 186.19023 L 219.07364 188.04926 L 218.4373 189.48221 L 218.19652 190.55937 L 218.27103 191.34008 L 218.59407 191.87435 L 219.11014 192.2044 L 219.77321 192.36585 L 220.9621 192.35623 L 222.2965 192.11588 L 224.17549 191.54407 L 226.51949 190.5757 L 229.14279 189.22806 L 231.79604 187.58818 L 233.95946 185.99918 L 235.85878 184.32399 L 237.22513 182.83019 L 238.15476 181.51995 L 238.79299 180.24997 L 239.12769 179.06264 L 239.18207 177.98706 L 239.00466 177.03954 L 238.59557 176.11664 L 237.9685 175.26029 L 237.08348 174.43236 L 235.91634 173.65143 L 234.8826 173.14069 "/>
</g>
<clipPath id="cp7">
<path transform="matrix(2.7777777,0,0,-2.7777777,0,960)" d="M 72.72 15.12 L 388.08 15.12 L 388.08 330.47999 L 72.72 330.47999 Z "/>
</clipPath>
<g clip-path="url(#cp7)">
<path transform="matrix(2.7777777,0,0,-2.7777777,0,960)" stroke-width="1.5" stroke-linecap="square" stroke-linejoin="round" fill="none" stroke="#d62728" d="M 255.70276 225.9386 L 259.19798 221.73586 L 261.99748 218.02904 L 264.20716 214.75 L 265.91758 211.84023 L 267.20613 209.24947 L 268.13887 206.93466 L 268.7722 204.8589 L 269.15419 202.9905 L 269.3258 201.30229 L 269.32197 199.771 L 269.05088 197.72531 L 268.53285 195.93238 L 267.83226 194.34766 L 266.99934 192.93561 L 265.74949 191.27315 L 264.05747 189.47812 L 261.9552 187.64438 L 259.5254 185.8388 L 256.25138 183.71811 L 252.21627 181.396 L 247.20526 178.77913 L 241.1728 175.88744 L 235.25144 173.29183 L 234.88384 173.14115 "/>
</g>
<clipPath id="cp8">
<path transform="matrix(2.7777777,0,0,-2.7777777,0,960)" d="M 72.72 15.12 L 388.08 15.12 L 388.08 330.47999 L 72.72 330.47999 Z "/>
</clipPath>
<g clip-path="url(#cp8)">
<path transform="matrix(2.7777777,0,0,-2.7777777,0,960)" stroke-width="1.5" stroke-linecap="square" stroke-linejoin="round" fill="none" stroke="#d62728" d="M 321.12147 183.59613 L 314.73085 185.74135 L 309.1282 187.43679 L 304.1975 188.75484 L 299.84049 189.75669 L 294.20216 190.77754 L 289.44105 191.3436 L 285.37803 191.56534 L 281.8729 191.52857 L 278.81593 191.29994 L 275.2909 190.78421 L 272.25666 190.10919 L 268.98573 189.13776 L 265.62913 187.89237 L 261.8446 186.23433 L 256.84175 183.76888 L 241.94686 176.26677 L 236.09146 173.64388 L 234.88399 173.1412 "/>
</g>
<clipPath id="cp9">
<path transform="matrix(2.7777777,0,0,-2.7777777,0,960)" d="M 72.72 15.12 L 388.08 15.12 L 388.08 330.47999 L 72.72 330.47999 Z "/>
</clipPath>
<g clip-path="url(#cp9)">
<path transform="matrix(2.7777777,0,0,-2.7777777,0,960)" stroke-width="1.5" stroke-linecap="square" stroke-linejoin="round" fill="none" stroke="#d62728" d="M 236.98828 181.50156 L 241.19063 177.19593 L 243.99935 173.95964 L 245.7561 171.55648 L 246.72695 169.80027 L 247.11804 168.54467 L 247.08849 167.67487 L 246.76042 167.10097 L 246.22708 166.75275 L 245.55916 166.57538 L 244.54918 166.53244 L 242.94817 166.7382 L 240.90904 167.27532 L 238.75446 168.08322 L 236.70169 169.0926 L 235.21982 170.06034 L 234.3349 170.89241 L 233.93949 171.55718 L 233.87815 172.0798 L 234.0536 172.51996 L 234.46236 172.91333 L 234.86258 173.1325 "/>
</g>
<clipPath id="cp10">
<path transform="matrix(2.7777777,0,0,-2.7777777,0,960)" d="M 72.72 15.12 L 388.08 15.12 L 388.08 330.47999 L 72.72 330.47999 Z "/>
</clipPath>
<g clip-path="url(#cp10)">
<path transform="matrix(2.7777777,0,0,-2.7777777,0,960)" stroke-width="1.5" stroke-linecap="square" stroke-linejoin="round" fill="none" stroke="#d62728" d="M 302.0193 138.71244 L 286.33863 146.46857 L 272.79209 152.90055 L 260.5608 158.4399 L 246.99456 164.2982 L 239.86095 167.4673 L 236.8729 169.02169 L 235.25696 170.08676 L 234.34696 170.93611 L 233.95404 171.5941 L 233.89629 172.10578 L 234.07062 172.53524 L 234.48253 172.9262 L 234.8627 173.13256 "/>
</g>
<clipPath id="cp11">
<path transform="matrix(2.7777777,0,0,-2.7777777,0,960)" d="M 72.72 15.12 L 388.08 15.12 L 388.08 330.47999 L 72.72 330.47999 Z "/>
</clipPath>
<g clip-path="url(#cp11)">
<path transform="matrix(2.7777777,0,0,-2.7777777,0,960)" d="M 149.74797 168.4079 C 150.34098 168.4079 150.90978 168.64351 151.3291 169.06284 C 151.74843 169.48215 151.98403 170.05095 151.98403 170.64397 C 151.98403 171.23699 151.74843 171.80579 151.3291 172.22512 C 150.90978 172.64443 150.34098 172.88004 149.74797 172.88004 C 149.15496 172.88004 148.58615 172.64443 148.16683 172.22512 C 147.7475 171.80579 147.5119 171.23699 147.5119 170.64397 C 147.5119 170.05095 147.7475 169.48215 148.16683 169.06284 C 148.58615 168.64351 149.15496 168.4079 149.74797 168.4079 Z " fill="#d62728"/>
<path transform="matrix(2.7777777,0,0,-2.7777777,0,960)" stroke-width="1" stroke-linecap="butt" stroke-linejoin="round" fill="none" stroke="#d62728" d="M 149.74797 168.4079 C 150.34098 168.4079 150.90978 168.64351 151.3291 169.06284 C 151.74843 169.48215 151.98403 170.05095 151.98403 170.64397 C 151.98403 171.23699 151.74843 171.80579 151.3291 172.22512 C 150.90978 172.64443 150.34098 172.88004 149.74797 172.88004 C 149.15496 172.88004 148.58615 172.64443 148.16683 172.22512 C 147.7475 171.80579 147.5119 171.23699 147.5119 170.64397 C 147.5119 170.05095 147.7475 169.48215 148.16683 169.06284 C 148.58615 168.64351 149.15496 168.4079 149.74797 168.4079 Z "/>
</g>
<clipPath id="cp12">
<path transform="matrix(2.7777777,0,0,-2.7777777,0,960)" d="M 72.72 15.12 L 388.08 15.12 L 388.08 330.47999 L 72.72 330.47999 Z "/>
</clipPath>
<g clip-path="url(#cp12)">
<path transform="matrix(2.7777777,0,0,-2.7777777,0,960)" d="M 168.19268 212.66876 C 168.78569 212.66876 169.35449 212.90438 169.77382 213.3237 C 170.19315 213.74301 170.42874 214.31183 170.42874 214.90483 C 170.42874 215.49785 170.19315 216.06665 169.77382 216.48598 C 169.35449 216.90529 168.78569 217.1409 168.19268 217.1409 C 167.59967 217.1409 167.03087 216.90529 166.61154 216.48598 C 166.19222 216.06665 165.9566 215.49785 165.9566 214.90483 C 165.9566 214.31183 166.19222 213.74301 166.61154 213.3237 C 167.03087 212.90438 167.59967 212.66876 168.19268 212.66876 Z " fill="#d62728"/>
<path transform="matrix(2.7777777,0,0,-2.7777777,0,960)" stroke-width="1" stroke-linecap="butt" stroke-linejoin="round" fill="none" stroke="#d62728" d="M 168.19268 212.66876 C 168.78569 212.66876 169.35449 212.90438 169.77382 213.3237 C 170.19315 213.74301 170.42874 214.31183 170.42874 214.90483 C 170.42874 215.49785 170.19315 216.06665 169.77382 216.48598 C 169.35449 216.90529 168.78569 217.1409 168.19268 217.1409 C 167.59967 217.1409 167.03087 216.90529 166.61154 216.48598 C 166.19222 216.06665 165.9566 215.49785 165.9566 214.90483 C 165.9566 214.31183 166.19222 213.74301 166.61154 213.3237 C 167.03087 212.90438 167.59967 212.66876 168.19268 212.66876 Z "/>
</g>
<clipPath id="cp13">
<path transform="matrix(2.7777777,0,0,-2.7777777,0,960)" d="M 72.72 15.12 L 388.08 15.12 L 388.08 330.47999 L 72.72 330.47999 Z "/>
</clipPath>
<g clip-path="url(#cp13)">
<path transform="matrix(2.7777777,0,0,-2.7777777,0,960)" d="M 236.98828 179.26549 C 237.5813 179.26549 238.1501 179.5011 238.56943 179.92043 C 238.98876 180.33974 239.22435 180.90854 239.22435 181.50156 C 239.22435 182.09458 238.98876 182.66338 238.56943 183.0827 C 238.1501 183.50202 237.5813 183.73763 236.98828 183.73763 C 236.39528 183.73763 235.82646 183.50202 235.40715 183.0827 C 234.98783 182.66338 234.75222 182.09458 234.75222 181.50156 C 234.75222 180.90854 234.98783 180.33974 235.40715 179.92043 C 235.82646 179.5011 236.39528 179.26549 236.98828 179.26549 Z " fill="#d62728"/>
<path transform="matrix(2.7777777,0,0,-2.7777777,0,960)" stroke-width="1" stroke-linecap="butt" stroke-linejoin="round" fill="none" stroke="#d62728" d="M 236.98828 179.26549 C 237.5813 179.26549 238.1501 179.5011 238.56943 179.92043 C 238.98876 180.33974 239.22435 180.90854 239.22435 181.50156 C 239.22435 182.09458 238.98876 182.66338 238.56943 183.0827 C 238.1501 183.50202 237.5813 183.73763 236.98828 183.73763 C 236.39528 183.73763 235.82646 183.50202 235.40715 183.0827 C 234.98783 182.66338 234.75222 182.09458 234.75222 181.50156 C 234.75222 180.90854 234.98783 180.33974 235.40715 179.92043 C 235.82646 179.5011 236.39528 179.26549 236.98828 179.26549 Z "/>
</g>
<clipPath id="cp14">
<path transform="matrix(2.7777777,0,0,-2.7777777,0,960)" d="M 72.72 15.12 L 388.08 15.12 L 388.08 330.47999 L 72.72 330.47999 Z "/>
</clipPath>
<g clip-path="url(#cp14)">
<path transform="matrix(2.7777777,0,0,-2.7777777,0,960)" d="M 255.70276 225.9386 L 168.19268 214.90483 L 149.74797 170.64397 Z " fill="#1f77b4" fill-opacity=".25"/>
<path transform="matrix(2.7777777,0,0,-2.7777777,0,960)" stroke-width="1" stroke-linecap="butt" stroke-linejoin="round" fill="none" stroke="#1f77b4" d="M 255.70276 225.9386 L 168.19268 214.90483 L 149.74797 170.64397 Z "/>
</g>
<clipPath id="cp15">
<path transform="matrix(2.7777777,0,0,-2.7777777,0,960)" d="M 72.72 15.12 L 388.08 15.12 L 388.08 330.47999 L 72.72 330.47999 Z "/>
</clipPath>
<g clip-path="url(#cp15)">
<path transform="matrix(2.7777777,0,0,-2.7777777,0,960)" d="M 236.98828 181.50156 L 255.70276 225.9386 L 149.74797 170.64397 Z " fill="#1f77b4" fill-opacity=".25"/>
<path transform="matrix(2.7777777,0,0,-2.7777777,0,960)" stroke-width="1" stroke-linecap="butt" stroke-linejoin="round" fill="none" stroke="#1f77b4" d="M 236.98828 181.50156 L 255.70276 225.9386 L 149.74797 170.64397 Z "/>
</g>
<clipPath id="cp16">
<path transform="matrix(2.7777777,0,0,-2.7777777,0,960)" d="M 72.72 15.12 L 388.08 15.12 L 388.08 330.47999 L 72.72 330.47999 Z "/>
</clipPath>
<g clip-path="url(#cp16)">
<path transform="matrix(2.7777777,0,0,-2.7777777,0,960)" d="M 255.70276 223.70253 C 256.29579 223.70253 256.86457 223.93814 257.2839 224.35746 C 257.70323 224.77678 257.9388 225.34558 257.9388 225.9386 C 257.9388 226.5316 257.70323 227.10042 257.2839 227.51973 C 256.86457 227.93906 256.29579 228.17467 255.70276 228.17467 C 255.10974 228.17467 254.54094 227.93906 254.12162 227.51973 C 253.7023 227.10042 253.46669 226.5316 253.46669 225.9386 C 253.46669 225.34558 253.7023 224.77678 254.12162 224.35746 C 254.54094 223.93814 255.10974 223.70253 255.70276 223.70253 Z " fill="#d62728"/>
<path transform="matrix(2.7777777,0,0,-2.7777777,0,960)" stroke-width="1" stroke-linecap="butt" stroke-linejoin="round" fill="none" stroke="#d62728" d="M 255.70276 223.70253 C 256.29579 223.70253 256.86457 223.93814 257.2839 224.35746 C 257.70323 224.77678 257.9388 225.34558 257.9388 225.9386 C 257.9388 226.5316 257.70323 227.10042 257.2839 227.51973 C 256.86457 227.93906 256.29579 228.17467 255.70276 228.17467 C 255.10974 228.17467 254.54094 227.93906 254.12162 227.51973 C 253.7023 227.10042 253.46669 226.5316 253.46669 225.9386 C 253.46669 225.34558 253.7023 224.77678 254.12162 224.35746 C 254.54094 223.93814 255.10974 223.70253 255.70276 223.70253 Z "/>
</g>
<clipPath id="cp17">
<path transform="matrix(2.7777777,0,0,-2.7777777,0,960)" d="M 72.72 15.12 L 388.08 15.12 L 388.08 330.47999 L 72.72 330.47999 Z "/>
</clipPath>
<g clip-path="url(#cp17)">
<path transform="matrix(2.7777777,0,0,-2.7777777,0,960)" d="M 168.19268 214.90483 L 213.48404 127.8677 L 149.74797 170.64397 Z " fill="#1f77b4" fill-opacity=".25"/>
<path transform="matrix(2.7777777,0,0,-2.7777777,0,960)" stroke-width="1" stroke-linecap="butt" stroke-linejoin="round" fill="none" stroke="#1f77b4" d="M 168.19268 214.90483 L 213.48404 127.8677 L 149.74797 170.64397 Z "/>
</g>
<clipPath id="cp18">
<path transform="matrix(2.7777777,0,0,-2.7777777,0,960)" d="M 72.72 15.12 L 388.08 15.12 L 388.08 330.47999 L 72.72 330.47999 Z "/>
</clipPath>
<g clip-path="url(#cp18)">
<path transform="matrix(2.7777777,0,0,-2.7777777,0,960)" d="M 213.48404 125.63163 C 214.07706 125.63163 214.64586 125.86724 215.06519 126.28656 C 215.4845 126.70589 215.72011 127.27469 215.72011 127.8677 C 215.72011 128.46071 215.4845 129.02951 215.06519 129.44884 C 214.64586 129.86817 214.07706 130.10376 213.48404 130.10376 C 212.89104 130.10376 212.32222 129.86817 211.90291 129.44884 C 211.48358 129.02951 211.24797 128.46071 211.24797 127.8677 C 211.24797 127.27469 211.48358 126.70589 211.90291 126.28656 C 212.32222 125.86724 212.89104 125.63163 213.48404 125.63163 Z " fill="#d62728"/>
<path transform="matrix(2.7777777,0,0,-2.7777777,0,960)" stroke-width="1" stroke-linecap="butt" stroke-linejoin="round" fill="none" stroke="#d62728" d="M 213.48404 125.63163 C 214.07706 125.63163 214.64586 125.86724 215.06519 126.28656 C 215.4845 126.70589 215.72011 127.27469 215.72011 127.8677 C 215.72011 128.46071 215.4845 129.02951 215.06519 129.44884 C 214.64586 129.86817 214.07706 130.10376 213.48404 130.10376 C 212.89104 130.10376 212.32222 129.86817 211.90291 129.44884 C 211.48358 129.02951 211.24797 128.46071 211.24797 127.8677 C 211.24797 127.27469 211.48358 126.70589 211.90291 126.28656 C 212.32222 125.86724 212.89104 125.63163 213.48404 125.63163 Z "/>
</g>
<clipPath id="cp19">
<path transform="matrix(2.7777777,0,0,-2.7777777,0,960)" d="M 72.72 15.12 L 388.08 15.12 L 388.08 330.47999 L 72.72 330.47999 Z "/>
</clipPath>
<g clip-path="url(#cp19)">
<path transform="matrix(2.7777777,0,0,-2.7777777,0,960)" d="M 232.30869 172.57157 L 168.19268 214.90483 L 213.48404 127.8677 Z " fill="#1f77b4" fill-opacity=".25"/>
<path transform="matrix(2.7777777,0,0,-2.7777777,0,960)" stroke-width="1" stroke-linecap="butt" stroke-linejoin="round" fill="none" stroke="#1f77b4" d="M 232.30869 172.57157 L 168.19268 214.90483 L 213.48404 127.8677 Z "/>
</g>
<clipPath id="cp20">
<path transform="matrix(2.7777777,0,0,-2.7777777,0,960)" d="M 72.72 15.12 L 388.08 15.12 L 388.08 330.47999 L 72.72 330.47999 Z "/>
</clipPath>
<g clip-path="url(#cp20)">
<path transform="matrix(2.7777777,0,0,-2.7777777,0,960)" d="M 232.30869 170.3355 C 232.9017 170.3355 233.4705 170.57109 233.88983 170.99042 C 234.30916 171.40975 234.54476 171.97855 234.54476 172.57157 C 234.54476 173.16457 234.30916 173.73337 233.88983 174.1527 C 233.4705 174.57202 232.9017 174.80764 232.30869 174.80764 C 231.71569 174.80764 231.14688 174.57202 230.72756 174.1527 C 230.30823 173.73337 230.07262 173.16457 230.07262 172.57157 C 230.07262 171.97855 230.30823 171.40975 230.72756 170.99042 C 231.14688 170.57109 231.71569 170.3355 232.30869 170.3355 Z " fill="#d62728"/>
<path transform="matrix(2.7777777,0,0,-2.7777777,0,960)" stroke-width="1" stroke-linecap="butt" stroke-linejoin="round" fill="none" stroke="#d62728" d="M 232.30869 170.3355 C 232.9017 170.3355 233.4705 170.57109 233.88983 170.99042 C 234.30916 171.40975 234.54476 171.97855 234.54476 172.57157 C 234.54476 173.16457 234.30916 173.73337 233.88983 174.1527 C 233.4705 174.57202 232.9017 174.80764 232.30869 174.80764 C 231.71569 174.80764 231.14688 174.57202 230.72756 174.1527 C 230.30823 173.73337 230.07262 173.16457 230.07262 172.57157 C 230.07262 171.97855 230.30823 171.40975 230.72756 170.99042 C 231.14688 170.57109 231.71569 170.3355 232.30869 170.3355 Z "/>
</g>
<clipPath id="cp21">
<path transform="matrix(2.7777777,0,0,-2.7777777,0,960)" d="M 72.72 15.12 L 388.08 15.12 L 388.08 330.47999 L 72.72 330.47999 Z "/>
</clipPath>
<g clip-path="url(#cp21)">
<path transform="matrix(2.7777777,0,0,-2.7777777,0,960)" d="M 302.0193 138.71244 L 213.48404 127.8677 L 149.74797 170.64397 Z " fill="#1f77b4" fill-opacity=".25"/>
<path transform="matrix(2.7777777,0,0,-2.7777777,0,960)" stroke-width="1" stroke-linecap="butt" stroke-linejoin="round" fill="none" stroke="#1f77b4" d="M 302.0193 138.71244 L 213.48404 127.8677 L 149.74797 170.64397 Z "/>
</g>
<clipPath id="cp22">
<path transform="matrix(2.7777777,0,0,-2.7777777,0,960)" d="M 72.72 15.12 L 388.08 15.12 L 388.08 330.47999 L 72.72 330.47999 Z "/>
</clipPath>
<g clip-path="url(#cp22)">
<path transform="matrix(2.7777777,0,0,-2.7777777,0,960)" d="M 236.98828 181.50156 L 302.0193 138.71244 L 149.74797 170.64397 Z " fill="#1f77b4" fill-opacity=".25"/>
<path transform="matrix(2.7777777,0,0,-2.7777777,0,960)" stroke-width="1" stroke-linecap="butt" stroke-linejoin="round" fill="none" stroke="#1f77b4" d="M 236.98828 181.50156 L 302.0193 138.71244 L 149.74797 170.64397 Z "/>
</g>
<clipPath id="cp23">
<path transform="matrix(2.7777777,0,0,-2.7777777,0,960)" d="M 72.72 15.12 L 388.08 15.12 L 388.08 330.47999 L 72.72 330.47999 Z "/>
</clipPath>
<g clip-path="url(#cp23)">
<path transform="matrix(2.7777777,0,0,-2.7777777,0,960)" d="M 236.98828 181.50156 L 302.0193 138.71244 L 255.70276 225.9386 Z " fill="#1f77b4" fill-opacity=".25"/>
<path transform="matrix(2.7777777,0,0,-2.7777777,0,960)" stroke-width="1" stroke-linecap="butt" stroke-linejoin="round" fill="none" stroke="#1f77b4" d="M 236.98828 181.50156 L 302.0193 138.71244 L 255.70276 225.9386 Z "/>
</g>
<clipPath id="cp24">
<path transform="matrix(2.7777777,0,0,-2.7777777,0,960)" d="M 72.72 15.12 L 388.08 15.12 L 388.08 330.47999 L 72.72 330.47999 Z "/>
</clipPath>
<g clip-path="url(#cp24)">
<path transform="matrix(2.7777777,0,0,-2.7777777,0,960)" d="M 302.0193 136.47637 C 302.61228 136.47637 303.1811 136.71198 303.6004 137.13129 C 304.01976 137.55062 304.25535 138.11942 304.25535 138.71244 C 304.25535 139.30545 304.01976 139.87425 303.6004 140.29358 C 303.1811 140.71289 302.61228 140.9485 302.0193 140.9485 C 301.42628 140.9485 300.85746 140.71289 300.43815 140.29358 C 300.01884 139.87425 299.7832 139.30545 299.7832 138.71244 C 299.7832 138.11942 300.01884 137.55062 300.43815 137.13129 C 300.85746 136.71198 301.42628 136.47637 302.0193 136.47637 Z " fill="#d62728"/>
<path transform="matrix(2.7777777,0,0,-2.7777777,0,960)" stroke-width="1" stroke-linecap="butt" stroke-linejoin="round" fill="none" stroke="#d62728" d="M 302.0193 136.47637 C 302.61228 136.47637 303.1811 136.71198 303.6004 137.13129 C 304.01976 137.55062 304.25535 138.11942 304.25535 138.71244 C 304.25535 139.30545 304.01976 139.87425 303.6004 140.29358 C 303.1811 140.71289 302.61228 140.9485 302.0193 140.9485 C 301.42628 140.9485 300.85746 140.71289 300.43815 140.29358 C 300.01884 139.87425 299.7832 139.30545 299.7832 138.71244 C 299.7832 138.11942 300.01884 137.55062 300.43815 137.13129 C 300.85746 136.71198 301.42628 136.47637 302.0193 136.47637 Z "/>
</g>
<clipPath id="cp25">
<path transform="matrix(2.7777777,0,0,-2.7777777,0,960)" d="M 72.72 15.12 L 388.08 15.12 L 388.08 330.47999 L 72.72 330.47999 Z "/>
</clipPath>
<g clip-path="url(#cp25)">
<path transform="matrix(2.7777777,0,0,-2.7777777,0,960)" d="M 255.70276 225.9386 L 168.19268 214.90483 L 321.12147 183.59613 Z " fill="#1f77b4" fill-opacity=".25"/>
<path transform="matrix(2.7777777,0,0,-2.7777777,0,960)" stroke-width="1" stroke-linecap="butt" stroke-linejoin="round" fill="none" stroke="#1f77b4" d="M 255.70276 225.9386 L 168.19268 214.90483 L 321.12147 183.59613 Z "/>
</g>
<clipPath id="cp26">
<path transform="matrix(2.7777777,0,0,-2.7777777,0,960)" d="M 72.72 15.12 L 388.08 15.12 L 388.08 330.47999 L 72.72 330.47999 Z "/>
</clipPath>
<g clip-path="url(#cp26)">
<path transform="matrix(2.7777777,0,0,-2.7777777,0,960)" d="M 232.30869 172.57157 L 213.48404 127.8677 L 321.12147 183.59613 Z " fill="#1f77b4" fill-opacity=".25"/>
<path transform="matrix(2.7777777,0,0,-2.7777777,0,960)" stroke-width="1" stroke-linecap="butt" stroke-linejoin="round" fill="none" stroke="#1f77b4" d="M 232.30869 172.57157 L 213.48404 127.8677 L 321.12147 183.59613 Z "/>
</g>
<clipPath id="cp27">
<path transform="matrix(2.7777777,0,0,-2.7777777,0,960)" d="M 72.72 15.12 L 388.08 15.12 L 388.08 330.47999 L 72.72 330.47999 Z "/>
</clipPath>
<g clip-path="url(#cp27)">
<path transform="matrix(2.7777777,0,0,-2.7777777,0,960)" d="M 232.30869 172.57157 L 168.19268 214.90483 L 321.12147 183.59613 Z " fill="#1f77b4" fill-opacity=".25"/>
<path transform="matrix(2.7777777,0,0,-2.7777777,0,960)" stroke-width="1" stroke-linecap="butt" stroke-linejoin="round" fill="none" stroke="#1f77b4" d="M 232.30869 172.57157 L 168.19268 214.90483 L 321.12147 183.59613 Z "/>
</g>
<clipPath id="cp28">
<path transform="matrix(2.7777777,0,0,-2.7777777,0,960)" d="M 72.72 15.12 L 388.08 15.12 L 388.08 330.47999 L 72.72 330.47999 Z "/>
</clipPath>
<g clip-path="url(#cp28)">
<path transform="matrix(2.7777777,0,0,-2.7777777,0,960)" d="M 302.0193 138.71244 L 213.48404 127.8677 L 321.12147 183.59613 Z " fill="#1f77b4" fill-opacity=".25"/>
<path transform="matrix(2.7777777,0,0,-2.7777777,0,960)" stroke-width="1" stroke-linecap="butt" stroke-linejoin="round" fill="none" stroke="#1f77b4" d="M 302.0193 138.71244 L 213.48404 127.8677 L 321.12147 183.59613 Z "/>
</g>
<clipPath id="cp29">
<path transform="matrix(2.7777777,0,0,-2.7777777,0,960)" d="M 72.72 15.12 L 388.08 15.12 L 388.08 330.47999 L 72.72 330.47999 Z "/>
</clipPath>
<g clip-path="url(#cp29)">
<path transform="matrix(2.7777777,0,0,-2.7777777,0,960)" d="M 302.0193 138.71244 L 255.70276 225.9386 L 321.12147 183.59613 Z " fill="#1f77b4" fill-opacity=".25"/>
<path transform="matrix(2.7777777,0,0,-2.7777777,0,960)" stroke-width="1" stroke-linecap="butt" stroke-linejoin="round" fill="none" stroke="#1f77b4" d="M 302.0193 138.71244 L 255.70276 225.9386 L 321.12147 183.59613 Z "/>
</g>
<clipPath id="cp30">
<path transform="matrix(2.7777777,0,0,-2.7777777,0,960)" d="M 72.72 15.12 L 388.08 15.12 L 388.08 330.47999 L 72.72 330.47999 Z "/>
</clipPath>
<g clip-path="url(#cp30)">
<g>
<path transform="matrix(2.7777777,0,0,-2.7777777,0,960)" d="M 149.74797 169.06284 C 150.16728 169.06284 150.56949 169.22943 150.866 169.52594 C 151.1625 169.82244 151.3291 170.22464 151.3291 170.64397 C 151.3291 171.0633 151.1625 171.4655 150.866 171.76201 C 150.56949 172.0585 150.16728 172.22512 149.74797 172.22512 C 149.32865 172.22512 148.92644 172.0585 148.62993 171.76201 C 148.33342 171.4655 148.16683 171.0633 148.16683 170.64397 C 148.16683 170.22464 148.33342 169.82244 148.62993 169.52594 C 148.92644 169.22943 149.32865 169.06284 149.74797 169.06284 Z " fill="#1f77b4" fill-opacity=".3"/>
<path transform="matrix(2.7777777,0,0,-2.7777777,0,960)" stroke-width="1" stroke-linecap="butt" stroke-linejoin="round" fill="none" stroke="#1f77b4" stroke-opacity=".3" d="M 149.74797 169.06284 C 150.16728 169.06284 150.56949 169.22943 150.866 169.52594 C 151.1625 169.82244 151.3291 170.22464 151.3291 170.64397 C 151.3291 171.0633 151.1625 171.4655 150.866 171.76201 C 150.56949 172.0585 150.16728 172.22512 149.74797 172.22512 C 149.32865 172.22512 148.92644 172.0585 148.62993 171.76201 C 148.33342 171.4655 148.16683 171.0633 148.16683 170.64397 C 148.16683 170.22464 148.33342 169.82244 148.62993 169.52594 C 148.92644 169.22943 149.32865 169.06284 149.74797 169.06284 Z "/>
</g>
<g>
<path transform="matrix(2.7777777,0,0,-2.7777777,0,960)" d="M 168.19268 213.3237 C 168.612 213.3237 169.0142 213.4903 169.31072 213.7868 C 169.60723 214.08332 169.77382 214.4855 169.77382 214.90483 C 169.77382 215.32416 169.60723 215.72637 169.31072 216.02288 C 169.0142 216.31937 168.612 216.48598 168.19268 216.48598 C 167.77336 216.48598 167.37116 216.31937 167.07465 216.02288 C 166.77814 215.72637 166.61154 215.32416 166.61154 214.90483 C 166.61154 214.4855 166.77814 214.08332 167.07465 213.7868 C 167.37116 213.4903 167.77336 213.3237 168.19268 213.3237 Z " fill="#1f77b4" fill-opacity=".3909458"/>
<path transform="matrix(2.7777777,0,0,-2.7777777,0,960)" stroke-width="1" stroke-linecap="butt" stroke-linejoin="round" fill="none" stroke="#1f77b4" stroke-opacity=".3909458" d="M 168.19268 213.3237 C 168.612 213.3237 169.0142 213.4903 169.31072 213.7868 C 169.60723 214.08332 169.77382 214.4855 169.77382 214.90483 C 169.77382 215.32416 169.60723 215.72637 169.31072 216.02288 C 169.0142 216.31937 168.612 216.48598 168.19268 216.48598 C 167.77336 216.48598 167.37116 216.31937 167.07465 216.02288 C 166.77814 215.72637 166.61154 215.32416 166.61154 214.90483 C 166.61154 214.4855 166.77814 214.08332 167.07465 213.7868 C 167.37116 213.4903 167.77336 213.3237 168.19268 213.3237 Z "/>
</g>
<g>
<path transform="matrix(2.7777777,0,0,-2.7777777,0,960)" d="M 236.98828 179.92043 C 237.40761 179.92043 237.80982 180.08702 238.10633 180.38353 C 238.40283 180.68004 238.56943 181.08223 238.56943 181.50156 C 238.56943 181.92089 238.40283 182.32309 238.10633 182.6196 C 237.80982 182.91609 237.40761 183.0827 236.98828 183.0827 C 236.56896 183.0827 236.16677 182.91609 235.87026 182.6196 C 235.57375 182.32309 235.40715 181.92089 235.40715 181.50156 C 235.40715 181.08223 235.57375 180.68004 235.87026 180.38353 C 236.16677 180.08702 236.56896 179.92043 236.98828 179.92043 Z " fill="#1f77b4" fill-opacity=".4303194"/>
<path transform="matrix(2.7777777,0,0,-2.7777777,0,960)" stroke-width="1" stroke-linecap="butt" stroke-linejoin="round" fill="none" stroke="#1f77b4" stroke-opacity=".4303194" d="M 236.98828 179.92043 C 237.40761 179.92043 237.80982 180.08702 238.10633 180.38353 C 238.40283 180.68004 238.56943 181.08223 238.56943 181.50156 C 238.56943 181.92089 238.40283 182.32309 238.10633 182.6196 C 237.80982 182.91609 237.40761 183.0827 236.98828 183.0827 C 236.56896 183.0827 236.16677 182.91609 235.87026 182.6196 C 235.57375 182.32309 235.40715 181.92089 235.40715 181.50156 C 235.40715 181.08223 235.57375 180.68004 235.87026 180.38353 C 236.16677 180.08702 236.56896 179.92043 236.98828 179.92043 Z "/>
</g>
<g>
<path transform="matrix(2.7777777,0,0,-2.7777777,0,960)" d="M 255.70276 224.35746 C 256.12208 224.35746 256.5243 224.52407 256.8208 224.82056 C 257.1173 225.11707 257.2839 225.51927 257.2839 225.9386 C 257.2839 226.35793 257.1173 226.76012 256.8208 227.05663 C 256.5243 227.35314 256.12208 227.51973 255.70276 227.51973 C 255.28343 227.51973 254.88123 227.35314 254.58472 227.05663 C 254.28823 226.76012 254.12162 226.35793 254.12162 225.9386 C 254.12162 225.51927 254.28823 225.11707 254.58472 224.82056 C 254.88123 224.52407 255.28343 224.35746 255.70276 224.35746 Z " fill="#1f77b4" fill-opacity=".52188357"/>
<path transform="matrix(2.7777777,0,0,-2.7777777,0,960)" stroke-width="1" stroke-linecap="butt" stroke-linejoin="round" fill="none" stroke="#1f77b4" stroke-opacity=".52188357" d="M 255.70276 224.35746 C 256.12208 224.35746 256.5243 224.52407 256.8208 224.82056 C 257.1173 225.11707 257.2839 225.51927 257.2839 225.9386 C 257.2839 226.35793 257.1173 226.76012 256.8208 227.05663 C 256.5243 227.35314 256.12208 227.51973 255.70276 227.51973 C 255.28343 227.51973 254.88123 227.35314 254.58472 227.05663 C 254.28823 226.76012 254.12162 226.35793 254.12162 225.9386 C 254.12162 225.51927 254.28823 225.11707 254.58472 224.82056 C 254.88123 224.52407 255.28343 224.35746 255.70276 224.35746 Z "/>
</g>
<g>
<path transform="matrix(2.7777777,0,0,-2.7777777,0,960)" d="M 213.48404 126.28656 C 213.90337 126.28656 214.30558 126.453159 214.60208 126.749668 C 214.89858 127.04617 215.06519 127.44838 215.06519 127.8677 C 215.06519 128.28702 214.89858 128.68923 214.60208 128.98574 C 214.30558 129.28224 213.90337 129.44884 213.48404 129.44884 C 213.06472 129.44884 212.66252 129.28224 212.36602 128.98574 C 212.0695 128.68923 211.90291 128.28702 211.90291 127.8677 C 211.90291 127.44838 212.0695 127.04617 212.36602 126.749668 C 212.66252 126.453159 213.06472 126.28656 213.48404 126.28656 Z " fill="#1f77b4" fill-opacity=".77261129"/>
<path transform="matrix(2.7777777,0,0,-2.7777777,0,960)" stroke-width="1" stroke-linecap="butt" stroke-linejoin="round" fill="none" stroke="#1f77b4" stroke-opacity=".77261129" d="M 213.48404 126.28656 C 213.90337 126.28656 214.30558 126.453159 214.60208 126.749668 C 214.89858 127.04617 215.06519 127.44838 215.06519 127.8677 C 215.06519 128.28702 214.89858 128.68923 214.60208 128.98574 C 214.30558 129.28224 213.90337 129.44884 213.48404 129.44884 C 213.06472 129.44884 212.66252 129.28224 212.36602 128.98574 C 212.0695 128.68923 211.90291 128.28702 211.90291 127.8677 C 211.90291 127.44838 212.0695 127.04617 212.36602 126.749668 C 212.66252 126.453159 213.06472 126.28656 213.48404 126.28656 Z "/>
</g>
<g>
<path transform="matrix(2.7777777,0,0,-2.7777777,0,960)" d="M 232.30869 170.99042 C 232.72801 170.99042 233.13022 171.15702 233.42673 171.45352 C 233.72324 171.75003 233.88983 172.15224 233.88983 172.57157 C 233.88983 172.99088 233.72324 173.39308 233.42673 173.68959 C 233.13022 173.9861 232.72801 174.1527 232.30869 174.1527 C 231.88938 174.1527 231.48717 173.9861 231.19066 173.68959 C 230.89415 173.39308 230.72756 172.99088 230.72756 172.57157 C 230.72756 172.15224 230.89415 171.75003 231.19066 171.45352 C 231.48717 171.15702 231.88938 170.99042 232.30869 170.99042 Z " fill="#1f77b4" fill-opacity=".86580958"/>
<path transform="matrix(2.7777777,0,0,-2.7777777,0,960)" stroke-width="1" stroke-linecap="butt" stroke-linejoin="round" fill="none" stroke="#1f77b4" stroke-opacity=".86580958" d="M 232.30869 170.99042 C 232.72801 170.99042 233.13022 171.15702 233.42673 171.45352 C 233.72324 171.75003 233.88983 172.15224 233.88983 172.57157 C 233.88983 172.99088 233.72324 173.39308 233.42673 173.68959 C 233.13022 173.9861 232.72801 174.1527 232.30869 174.1527 C 231.88938 174.1527 231.48717 173.9861 231.19066 173.68959 C 230.89415 173.39308 230.72756 172.99088 230.72756 172.57157 C 230.72756 172.15224 230.89415 171.75003 231.19066 171.45352 C 231.48717 171.15702 231.88938 170.99042 232.30869 170.99042 Z "/>
</g>
<g>
<path transform="matrix(2.7777777,0,0,-2.7777777,0,960)" d="M 302.0193 137.13129 C 302.4386 137.13129 302.8408 137.2979 303.1373 137.5944 C 303.4338 137.8909 303.6004 138.2931 303.6004 138.71244 C 303.6004 139.13176 303.4338 139.53397 303.1373 139.83046 C 302.8408 140.12697 302.4386 140.29358 302.0193 140.29358 C 301.59996 140.29358 301.19776 140.12697 300.90126 139.83046 C 300.60475 139.53397 300.43815 139.13176 300.43815 138.71244 C 300.43815 138.2931 300.60475 137.8909 300.90126 137.5944 C 301.19776 137.2979 301.59996 137.13129 302.0193 137.13129 Z " fill="#1f77b4" fill-opacity=".90616008"/>
<path transform="matrix(2.7777777,0,0,-2.7777777,0,960)" stroke-width="1" stroke-linecap="butt" stroke-linejoin="round" fill="none" stroke="#1f77b4" stroke-opacity=".90616008" d="M 302.0193 137.13129 C 302.4386 137.13129 302.8408 137.2979 303.1373 137.5944 C 303.4338 137.8909 303.6004 138.2931 303.6004 138.71244 C 303.6004 139.13176 303.4338 139.53397 303.1373 139.83046 C 302.8408 140.12697 302.4386 140.29358 302.0193 140.29358 C 301.59996 140.29358 301.19776 140.12697 300.90126 139.83046 C 300.60475 139.53397 300.43815 139.13176 300.43815 138.71244 C 300.43815 138.2931 300.60475 137.8909 300.90126 137.5944 C 301.19776 137.2979 301.59996 137.13129 302.0193 137.13129 Z "/>
</g>
<path transform="matrix(2.7777777,0,0,-2.7777777,0,960)" d="M 321.12147 182.015 C 321.54078 182.015 321.94297 182.1816 322.23948 182.4781 C 322.53599 182.7746 322.70259 183.1768 322.70259 183.59613 C 322.70259 184.01546 322.53599 184.41767 322.23948 184.71417 C 321.94297 185.01067 321.54078 185.17728 321.12147 185.17728 C 320.70213 185.17728 320.29994 185.01067 320.00343 184.71417 C 319.7069 184.41767 319.5403 184.01546 319.5403 183.59613 C 319.5403 183.1768 319.7069 182.7746 320.00343 182.4781 C 320.29994 182.1816 320.70213 182.015 321.12147 182.015 Z " fill="#1f77b4"/>
<path transform="matrix(2.7777777,0,0,-2.7777777,0,960)" stroke-width="1" stroke-linecap="butt" stroke-linejoin="round" fill="none" stroke="#1f77b4" d="M 321.12147 182.015 C 321.54078 182.015 321.94297 182.1816 322.23948 182.4781 C 322.53599 182.7746 322.70259 183.1768 322.70259 183.59613 C 322.70259 184.01546 322.53599 184.41767 322.23948 184.71417 C 321.94297 185.01067 321.54078 185.17728 321.12147 185.17728 C 320.70213 185.17728 320.29994 185.01067 320.00343 184.71417 C 319.7069 184.41767 319.5403 184.01546 319.5403 183.59613 C 319.5403 183.1768 319.7069 182.7746 320.00343 182.4781 C 320.29994 182.1816 320.70213 182.015 321.12147 182.015 Z "/>
</g>
<clipPath id="cp31">
<path transform="matrix(2.7777777,0,0,-2.7777777,0,960)" d="M 72.72 15.12 L 388.08 15.12 L 388.08 330.47999 L 72.72 330.47999 Z "/>
</clipPath>
<g clip-path="url(#cp31)">
<path transform="matrix(2.7777777,0,0,-2.7777777,0,960)" d="M 321.12147 181.36006 C 321.71446 181.36006 322.28327 181.59568 322.70259 182.015 C 323.12193 182.43431 323.3575 183.00312 323.3575 183.59613 C 323.3575 184.18915 323.12193 184.75795 322.70259 185.17728 C 322.28327 185.59659 321.71446 185.8322 321.12147 185.8322 C 320.52845 185.8322 319.95964 185.59659 319.5403 185.17728 C 319.12098 184.75795 318.88539 184.18915 318.88539 183.59613 C 318.88539 183.00312 319.12098 182.43431 319.5403 182.015 C 319.95964 181.59568 320.52845 181.36006 321.12147 181.36006 Z " fill="#d62728"/>
<path transform="matrix(2.7777777,0,0,-2.7777777,0,960)" stroke-width="1" stroke-linecap="butt" stroke-linejoin="round" fill="none" stroke="#d62728" d="M 321.12147 181.36006 C 321.71446 181.36006 322.28327 181.59568 322.70259 182.015 C 323.12193 182.43431 323.3575 183.00312 323.3575 183.59613 C 323.3575 184.18915 323.12193 184.75795 322.70259 185.17728 C 322.28327 185.59659 321.71446 185.8322 321.12147 185.8322 C 320.52845 185.8322 319.95964 185.59659 319.5403 185.17728 C 319.12098 184.75795 318.88539 184.18915 318.88539 183.59613 C 318.88539 183.00312 319.12098 182.43431 319.5403 182.015 C 319.95964 181.59568 320.52845 181.36006 321.12147 181.36006 Z "/>
</g>
</g>
</svg>
