<?xml version="1.0" encoding="UTF-8" standalone="no"?>
<!DOCTYPE svg PUBLIC "-//W3C//DTD SVG 1.1//EN" "http://www.w3.org/Graphics/SVG/1.1/DTD/svg11.dtd">
<svg xmlns="http://www.w3.org/2000/svg" xmlns:xlink="http://www.w3.org/1999/xlink" version="1.1" width="800pt" height="800pt" viewBox="0 0 800 800">
<g enable-background="new">
<path transform="matrix(2.7777777,0,0,-2.7777777,0,800)" d="M 0 0 L 288 0 L 288 288 L 0 288 Z " fill="#ffffff"/>
<path transform="matrix(2.7777777,0,0,-2.7777777,0,800)" d="M 50.418817 35.028429 L 272.88 35.028429 L 272.88 272.88 L 50.418817 272.88 Z " fill="#ffffff"/>
<clipPath id="cp0">
<path transform="matrix(2.7777777,0,0,-2.7777777,0,800)" d="M 50.418817 35.028429 L 272.88 35.028429 L 272.88 272.88 L 50.418817 272.88 Z "/>
</clipPath>
<g clip-path="url(#cp0)">
<path transform="matrix(2.7777777,0,0,-2.7777777,0,800)" stroke-width="2" stroke-linecap="butt" stroke-miterlimit="10" stroke-linejoin="miter" fill="none" stroke="#d62728" d="M 163.89649 141.94152 L 172.88483 141.94152 L 172.88483 151.55167 L 159.40233 165.96692 L 150.414 165.96692 L 150.414 156.35675 L 163.89649 141.94152 Z "/>
</g>
<clipPath id="cp1">
<path transform="matrix(2.7777777,0,0,-2.7777777,0,800)" d="M 50.418817 35.028429 L 272.88 35.028429 L 272.88 272.88 L 50.418817 272.88 Z "/>
</clipPath>
<g clip-path="url(#cp1)">
<path transform="matrix(2.7777777,0,0,-2.7777777,0,800)" stroke-width="2" stroke-linecap="butt" stroke-miterlimit="10" stroke-linejoin="miter" fill="none" stroke="#1f77b4" d="M 154.90816 189.99233 L 127.94317 189.99233 L 127.94317 161.16184 L 168.39066 117.9161 L 195.35565 117.9161 L 195.35565 146.7466 L 154.90816 189.99233 Z "/>
</g>
<clipPath id="cp2">
<path transform="matrix(2.7777777,0,0,-2.7777777,0,800)" d="M 50.418817 35.028429 L 272.88 35.028429 L 272.88 272.88 L 50.418817 272.88 Z "/>
</clipPath>
<g clip-path="url(#cp2)">
<path transform="matrix(2.7777777,0,0,-2.7777777,0,800)" stroke-width="2" stroke-linecap="butt" stroke-miterlimit="10" stroke-linejoin="miter" fill="none" stroke="#2ca02c" d="M 181.87316 45.839864 L 262.76814 45.839864 L 262.76814 132.33135 L 141.42566 262.06858 L 60.53069 262.06858 L 60.53069 175.57709 L 181.87316 45.839864 Z "/>
</g>
<clipPath id="cp3">
<path transform="matrix(2.7777777,0,0,-2.7777777,0,800)" d="M 50.418817 35.028429 L 272.88 35.028429 L 272.88 272.88 L 50.418817 272.88 Z "/>
</clipPath>
<g clip-path="url(#cp3)">
<path transform="matrix(2.7777777,0,0,-2.7777777,0,800)" stroke-width="2" stroke-linecap="butt" stroke-miterlimit="10" stroke-linejoin="miter" fill="none" stroke="#ff7f0e" d="M 163.89649 141.94152 L 172.88483 141.94152 L 172.88483 151.55167 L 159.40233 165.96692 L 150.414 165.96692 L 150.414 156.35675 L 163.89649 141.94152 Z "/>
</g>
<path transform="matrix(2.7777777,0,0,-2.7777777,0,800)" stroke-width=".8" stroke-linecap="butt" stroke-linejoin="round" fill="none" stroke="#000000" d="M 105.47234 35.028429 L 105.47234 31.528426 "/>
<symbol id="font_4_1">
<path d="M .57600006 0 C .59300008 0 .611 0 .611 .019999996 C .611 .040000008 .59300008 .040000008 .57600006 .040000008 L .035000005 .040000008 C .018 .040000008 0 .040000008 0 .019999996 C 0 0 .018 0 .035000005 0 L .57600006 0 Z "/>
</symbol>
<use xlink:href="#font_4_1" transform="matrix(38.7436,0,0,-38.7436,256.89054,740.83688)"/>
<symbol id="font_5_32">
<path d="M .407 .34100003 C .407 .42400003 .402 .50500008 .366 .58100005 C .32500003 .66400006 .253 .68600007 .204 .68600007 C .146 .68600007 .075 .65700009 .038000004 .57400009 C .010000002 .51100006 0 .44900004 0 .34100003 C 0 .244 .0069999995 .171 .043000007 .10000001 C .082 .024000003 .151 0 .20300001 0 C .29000003 0 .34 .052 .36900003 .11 C .405 .185 .407 .28300003 .407 .34100003 M .20300001 .020000002 C .171 .020000002 .106 .038000004 .087000008 .147 C .076000008 .207 .076000008 .28300003 .076000008 .35300002 C .076000008 .43500004 .076000008 .50900009 .092 .5680001 C .109000008 .63500007 .16 .66600009 .20300001 .66600009 C .241 .66600009 .299 .64300009 .31800003 .55700007 C .331 .50000008 .331 .421 .331 .35300002 C .331 .286 .331 .21000001 .32000003 .149 C .301 .039000006 .238 .020000002 .20300001 .020000002 Z "/>
</symbol>
<use xlink:href="#font_5_32" transform="matrix(38.7436,0,0,-38.7436,285.3973,750.56149)"/>
<symbol id="font_6_3b">
<path d="M .09700001 .048 C .09700001 .07700001 .07300001 .097 .049000004 .097 C .020000004 .097 0 .07300001 0 .049000004 C 0 .020000002 .024000004 0 .048 0 C .077 0 .09700001 .024 .09700001 .048 Z "/>
</symbol>
<use xlink:href="#font_6_3b" transform="matrix(38.7436,0,0,-38.7436,306.14753,749.74789)"/>
<symbol id="font_5_37">
<path d="M .079 .59400007 C .122 .58000007 .157 .57900008 .16800002 .57900008 C .28100003 .57900008 .35300002 .66200008 .35300002 .67600008 C .35300002 .68000009 .351 .68500009 .34500004 .68500009 C .34300003 .68500009 .34100003 .68500009 .33200003 .68100008 C .27600003 .65700009 .22800002 .65400007 .20200002 .65400007 C .136 .65400007 .08900001 .6740001 .07 .68200007 C .063 .68500009 .061000006 .68500009 .060000004 .68500009 C .052 .68500009 .052 .6790001 .052 .66300007 L .052 .36600004 C .052 .34800003 .052 .342 .064 .342 C .069000009 .342 .07 .34300003 .080000009 .35500003 C .108 .39600004 .155 .42000003 .20500002 .42000003 C .25800003 .42000003 .284 .37100003 .29200004 .354 C .30900003 .315 .31000004 .266 .31000004 .22800002 C .31000004 .19000001 .31000004 .133 .28200004 .088 C .26000003 .052 .22100002 .027000003 .17700002 .027000003 C .11100001 .027000003 .046000005 .072000008 .028000005 .14500001 C .033 .143 .039000006 .142 .044 .142 C .061000006 .142 .08800001 .15200001 .08800001 .186 C .08800001 .214 .069000009 .23 .044 .23 C .026 .23 0 .221 0 .18200001 C 0 .097 .068 0 .17900002 0 C .29200004 0 .39100004 .095 .39100004 .222 C .39100004 .34100003 .31100003 .44000004 .20600003 .44000004 C .14900002 .44000004 .10500001 .41500003 .079 .38700003 L .079 .59400007 Z "/>
</symbol>
<use xlink:href="#font_5_37" transform="matrix(38.7436,0,0,-38.7436,315.21305,750.56149)"/>
<path transform="matrix(2.7777777,0,0,-2.7777777,0,800)" stroke-width=".8" stroke-linecap="butt" stroke-linejoin="round" fill="none" stroke="#000000" d="M 161.64942 35.028429 L 161.64942 31.528426 "/>
<use xlink:href="#font_5_32" transform="matrix(38.7436,0,0,-38.7436,426.37773,750.56149)"/>
<use xlink:href="#font_6_3b" transform="matrix(38.7436,0,0,-38.7436,447.12794,749.74789)"/>
<use xlink:href="#font_5_32" transform="matrix(38.7436,0,0,-38.7436,455.88356,750.56149)"/>
<path transform="matrix(2.7777777,0,0,-2.7777777,0,800)" stroke-width=".8" stroke-linecap="butt" stroke-linejoin="round" fill="none" stroke="#000000" d="M 217.82648 35.028429 L 217.82648 31.528426 "/>
<use xlink:href="#font_5_32" transform="matrix(38.7436,0,0,-38.7436,582.4251,750.56149)"/>
<use xlink:href="#font_6_3b" transform="matrix(38.7436,0,0,-38.7436,603.1753,749.74789)"/>
<use xlink:href="#font_5_37" transform="matrix(38.7436,0,0,-38.7436,612.24087,750.56149)"/>
<path transform="matrix(2.7777777,0,0,-2.7777777,0,800)" stroke-width=".8" stroke-linecap="butt" stroke-linejoin="round" fill="none" stroke="#000000" d="M 50.418817 63.858926 L 46.918817 63.858926 "/>
<use xlink:href="#font_4_1" transform="matrix(38.7436,0,0,-38.7436,26.247694,627.5054)"/>
<use xlink:href="#font_5_32" transform="matrix(38.7436,0,0,-38.7436,54.754449,637.23)"/>
<use xlink:href="#font_6_3b" transform="matrix(38.7436,0,0,-38.7436,75.504688,636.4164)"/>
<symbol id="font_5_39">
<path d="M .42100004 .6420001 L .42100004 .6650001 L .18 .6650001 C .059000005 .6650001 .057000009 .67800006 .053000008 .6970001 L .031 .6970001 L 0 .497 L .022000004 .497 C .025000003 .51500007 .034000007 .5770001 .047000003 .58800008 C .055000005 .59400007 .13000001 .59400007 .14400001 .59400007 L .35600005 .59400007 L .25000004 .44200004 C .223 .40300004 .12200001 .23900001 .12200001 .051000004 C .12200001 .040000004 .12200001 0 .163 0 C .205 0 .205 .039000006 .205 .052 L .205 .102 C .205 .25100003 .22900002 .367 .27600003 .43400003 L .42100004 .6420001 Z "/>
</symbol>
<use xlink:href="#font_5_39" transform="matrix(38.7436,0,0,-38.7436,84.76393,637.23)"/>
<use xlink:href="#font_5_37" transform="matrix(38.7436,0,0,-38.7436,103.51583,637.23)"/>
<path transform="matrix(2.7777777,0,0,-2.7777777,0,800)" stroke-width=".8" stroke-linecap="butt" stroke-linejoin="round" fill="none" stroke="#000000" d="M 50.418817 93.890689 L 46.918817 93.890689 "/>
<use xlink:href="#font_4_1" transform="matrix(38.7436,0,0,-38.7436,26.247694,544.08389)"/>
<use xlink:href="#font_5_32" transform="matrix(38.7436,0,0,-38.7436,54.754449,553.8085)"/>
<use xlink:href="#font_6_3b" transform="matrix(38.7436,0,0,-38.7436,75.504688,552.9949)"/>
<use xlink:href="#font_5_37" transform="matrix(38.7436,0,0,-38.7436,84.57021,553.8085)"/>
<use xlink:href="#font_5_32" transform="matrix(38.7436,0,0,-38.7436,103.20588,553.8085)"/>
<path transform="matrix(2.7777777,0,0,-2.7777777,0,800)" stroke-width=".8" stroke-linecap="butt" stroke-linejoin="round" fill="none" stroke="#000000" d="M 50.418817 123.92245 L 46.918817 123.92245 "/>
<use xlink:href="#font_4_1" transform="matrix(38.7436,0,0,-38.7436,26.247694,460.66224)"/>
<use xlink:href="#font_5_32" transform="matrix(38.7436,0,0,-38.7436,54.754449,470.3869)"/>
<use xlink:href="#font_6_3b" transform="matrix(38.7436,0,0,-38.7436,75.504688,469.57328)"/>
<symbol id="font_5_34">
<path d="M .39100004 .16800002 L .36900003 .16800002 C .36600004 .15100001 .358 .096 .34800003 .080000009 C .34100003 .071 .284 .071 .254 .071 L .069000009 .071 C .09600001 .094000007 .157 .158 .183 .18200001 C .335 .32200004 .39100004 .374 .39100004 .47300003 C .39100004 .588 .3 .665 .18400002 .665 C .068 .665 0 .56600007 0 .48000003 C 0 .42900003 .044 .42900003 .047 .42900003 C .068 .42900003 .094000007 .44400005 .094000007 .476 C .094000007 .504 .075 .523 .047 .523 C .038000004 .523 .036 .523 .033 .522 C .052 .59000006 .106 .63600006 .171 .63600006 C .256 .63600006 .30800004 .565 .30800004 .47300003 C .30800004 .388 .25900004 .314 .20200002 .25 L 0 .024 L 0 0 L .36500005 0 L .39100004 .16800002 Z "/>
</symbol>
<use xlink:href="#font_5_34" transform="matrix(38.7436,0,0,-38.7436,84.57021,469.57328)"/>
<use xlink:href="#font_5_37" transform="matrix(38.7436,0,0,-38.7436,103.51583,470.3869)"/>
<path transform="matrix(2.7777777,0,0,-2.7777777,0,800)" stroke-width=".8" stroke-linecap="butt" stroke-linejoin="round" fill="none" stroke="#000000" d="M 50.418817 153.95421 L 46.918817 153.95421 "/>
<use xlink:href="#font_5_32" transform="matrix(38.7436,0,0,-38.7436,54.754449,386.96537)"/>
<use xlink:href="#font_6_3b" transform="matrix(38.7436,0,0,-38.7436,75.50467,386.15174)"/>
<use xlink:href="#font_5_32" transform="matrix(38.7436,0,0,-38.7436,84.26026,386.96537)"/>
<use xlink:href="#font_5_32" transform="matrix(38.7436,0,0,-38.7436,103.20588,386.96537)"/>
<path transform="matrix(2.7777777,0,0,-2.7777777,0,800)" stroke-width=".8" stroke-linecap="butt" stroke-linejoin="round" fill="none" stroke="#000000" d="M 50.418817 183.98598 L 46.918817 183.98598 "/>
<use xlink:href="#font_5_32" transform="matrix(38.7436,0,0,-38.7436,54.754449,303.5438)"/>
<use xlink:href="#font_6_3b" transform="matrix(38.7436,0,0,-38.7436,75.50467,302.73017)"/>
<use xlink:href="#font_5_34" transform="matrix(38.7436,0,0,-38.7436,84.57021,302.73017)"/>
<use xlink:href="#font_5_37" transform="matrix(38.7436,0,0,-38.7436,103.51583,303.5438)"/>
<path transform="matrix(2.7777777,0,0,-2.7777777,0,800)" stroke-width=".8" stroke-linecap="butt" stroke-linejoin="round" fill="none" stroke="#000000" d="M 50.418817 214.01775 L 46.918817 214.01775 "/>
<use xlink:href="#font_5_32" transform="matrix(38.7436,0,0,-38.7436,54.754449,220.12221)"/>
<use xlink:href="#font_6_3b" transform="matrix(38.7436,0,0,-38.7436,75.50467,219.3086)"/>
<use xlink:href="#font_5_37" transform="matrix(38.7436,0,0,-38.7436,84.57021,220.12221)"/>
<use xlink:href="#font_5_32" transform="matrix(38.7436,0,0,-38.7436,103.20588,220.12221)"/>
<path transform="matrix(2.7777777,0,0,-2.7777777,0,800)" stroke-width=".8" stroke-linecap="butt" stroke-linejoin="round" fill="none" stroke="#000000" d="M 50.418817 244.0495 L 46.918817 244.0495 "/>
<use xlink:href="#font_5_32" transform="matrix(38.7436,0,0,-38.7436,54.754449,136.70064)"/>
<use xlink:href="#font_6_3b" transform="matrix(38.7436,0,0,-38.7436,75.50467,135.88703)"/>
<use xlink:href="#font_5_39" transform="matrix(38.7436,0,0,-38.7436,84.76393,136.70064)"/>
<use xlink:href="#font_5_37" transform="matrix(38.7436,0,0,-38.7436,103.51583,136.70064)"/>
<clipPath id="cp7">
<path transform="matrix(2.7777777,0,0,-2.7777777,0,800)" d="M 50.418817 35.028429 L 272.88 35.028429 L 272.88 272.88 L 50.418817 272.88 Z "/>
</clipPath>
<g clip-path="url(#cp7)">
<path transform="matrix(2.7777777,0,0,-2.7777777,0,800)" stroke-width="1.5" stroke-linecap="square" stroke-linejoin="round" fill="none" stroke="#d62728" d="M 163.89649 141.94152 L 163.12635 150.08205 L 162.7829 151.73889 L 162.49065 152.173 L 161.6911 152.73394 L 159.86936 153.94982 "/>
</g>
<clipPath id="cp8">
<path transform="matrix(2.7777777,0,0,-2.7777777,0,800)" d="M 50.418817 35.028429 L 272.88 35.028429 L 272.88 272.88 L 50.418817 272.88 Z "/>
</clipPath>
<g clip-path="url(#cp8)">
<path transform="matrix(2.7777777,0,0,-2.7777777,0,800)" stroke-width="1.5" stroke-linecap="square" stroke-linejoin="round" fill="none" stroke="#1f77b4" d="M 154.90816 189.99233 L 156.9954 181.87049 L 158.38532 175.66934 L 159.44217 169.9822 L 160.19228 164.72782 L 160.94797 157.46526 L 161.11334 153.81147 L 160.98497 152.02971 L 160.71746 151.22672 L 160.41973 150.94495 L 160.04888 150.89978 L 159.49294 151.09622 L 158.4519 151.75554 L 155.45546 153.94744 "/>
</g>
<clipPath id="cp9">
<path transform="matrix(2.7777777,0,0,-2.7777777,0,800)" d="M 50.418817 35.028429 L 272.88 35.028429 L 272.88 272.88 L 50.418817 272.88 Z "/>
</clipPath>
<g clip-path="url(#cp9)">
<path transform="matrix(2.7777777,0,0,-2.7777777,0,800)" stroke-width="1.5" stroke-linecap="square" stroke-linejoin="round" fill="none" stroke="#2ca02c" d="M 60.53069 175.57709 L 61.00907 183.3004 L 61.622167 189.99452 L 62.35149 195.74134 L 63.180105 200.62319 L 64.09257 204.72046 L 65.07494 208.11003 L 66.11467 210.86414 L 67.2005 213.04946 L 68.32237 214.72736 L 69.47132 215.9538 L 70.63939 216.77954 L 71.81952 217.25057 L 73.00546 217.40888 L 74.19181 217.30094 L 75.37401 216.97344 L 76.54834 216.46646 L 78.28865 215.44298 L 79.99677 214.18643 L 82.21505 212.2742 L 84.88227 209.68058 L 88.89278 205.43738 L 99.15036 194.43018 L 103.44828 190.19553 L 107.61598 186.38562 L 112.17074 182.52552 L 117.36472 178.42096 L 124.463779 173.11577 L 139.02289 162.58647 L 150.91115 154.02855 "/>
</g>
<clipPath id="cp10">
<path transform="matrix(2.7777777,0,0,-2.7777777,0,800)" d="M 50.418817 35.028429 L 272.88 35.028429 L 272.88 272.88 L 50.418817 272.88 Z "/>
</clipPath>
<g clip-path="url(#cp10)">
<path transform="matrix(2.7777777,0,0,-2.7777777,0,800)" stroke-width="1.5" stroke-linecap="square" stroke-linejoin="round" fill="none" stroke="#ff7f0e" d="M 159.40233 165.96692 L 159.85628 156.8706 L 159.92833 153.79242 L 159.8625 153.95433 "/>
</g>
<path transform="matrix(2.7777777,0,0,-2.7777777,0,800)" stroke-width=".8" stroke-linecap="square" stroke-miterlimit="10" stroke-linejoin="miter" fill="none" stroke="#000000" d="M 50.418817 35.028429 L 50.418817 272.88 "/>
<path transform="matrix(2.7777777,0,0,-2.7777777,0,800)" stroke-width=".8" stroke-linecap="square" stroke-miterlimit="10" stroke-linejoin="miter" fill="none" stroke="#000000" d="M 272.88 35.028429 L 272.88 272.88 "/>
<path transform="matrix(2.7777777,0,0,-2.7777777,0,800)" stroke-width=".8" stroke-linecap="square" stroke-miterlimit="10" stroke-linejoin="miter" fill="none" stroke="#000000" d="M 50.418817 35.028429 L 272.88 35.028429 "/>
<path transform="matrix(2.7777777,0,0,-2.7777777,0,800)" stroke-width=".8" stroke-linecap="square" stroke-miterlimit="10" stroke-linejoin="miter" fill="none" stroke="#000000" d="M 50.418817 272.88 L 272.88 272.88 "/>
<g>
<path transform="matrix(2.7777777,0,0,-2.7777777,0,800)" d="M 162.02957 182.0463 L 263.08 182.0463 C 264.94667 182.0463 265.88 182.97963 265.88 184.8463 L 265.88 263.08 C 265.88 264.94667 264.94667 265.88 263.08 265.88 L 162.02957 265.88 C 160.1629 265.88 159.22957 264.94667 159.22957 263.08 L 159.22957 184.8463 C 159.22957 182.97963 160.1629 182.0463 162.02957 182.0463 Z " fill="#ffffff" fill-opacity=".8"/>
<path transform="matrix(2.7777777,0,0,-2.7777777,0,800)" stroke-width="1" stroke-linecap="butt" stroke-miterlimit="10" stroke-linejoin="miter" fill="none" stroke="#d5d6d5" stroke-opacity=".8" d="M 162.02957 182.0463 L 263.08 182.0463 C 264.94667 182.0463 265.88 182.97963 265.88 184.8463 L 265.88 263.08 C 265.88 264.94667 264.94667 265.88 263.08 265.88 L 162.02957 265.88 C 160.1629 265.88 159.22957 264.94667 159.22957 263.08 L 159.22957 184.8463 C 159.22957 182.97963 160.1629 182.0463 162.02957 182.0463 Z "/>
</g>
<path transform="matrix(2.7777777,0,0,-2.7777777,0,800)" stroke-width="1.5" stroke-linecap="square" stroke-linejoin="round" fill="none" stroke="#d62728" d="M 164.82958 255.24236 L 178.82958 255.24236 L 192.82958 255.24236 "/>
<symbol id="font_b_37">
<path d="M .36200003 0 L .615 .72900006 L .51600006 .72900006 L .314 .112 L .10000001 .72900006 L 0 .72900006 L .26200003 0 L .36200003 0 Z "/>
</symbol>
<symbol id="font_b_46">
<path d="M .47300003 .25700004 C .47300003 .337 .46700005 .38500003 .45200003 .42400003 C .41800005 .51 .33800004 .56200006 .24 .56200006 C .094 .56200006 0 .45000003 0 .27800004 C 0 .106000009 .091000009 0 .23800002 0 C .35800005 0 .44100005 .068 .46200005 .18200001 L .37800003 .18200001 C .35500003 .113000009 .30800004 .07700001 .24100001 .07700001 C .18800001 .07700001 .143 .101 .114999998 .14500001 C .095 .17500001 .088 .20500002 .087 .25700004 L .47300003 .25700004 M .089 .32500003 C .096 .42200003 .155 .485 .23900001 .485 C .32100005 .485 .38400004 .41700004 .38400004 .33100004 C .38400004 .32900004 .38400004 .32700003 .38300003 .32500003 L .089 .32500003 Z "/>
</symbol>
<symbol id="font_b_49">
<path d="M 0 .72900006 L 0 0 L .08300001 0 L .08300001 .289 C .08300001 .39600004 .139 .46600003 .22500003 .46600003 C .25200004 .46600003 .279 .45700003 .29900003 .44200004 C .323 .425 .33300004 .4 .33300004 .363 L .33300004 0 L .41600005 0 L .41600005 .39600004 C .41600005 .48400004 .35300002 .53900006 .25100003 .53900006 C .17700002 .53900006 .132 .51600006 .08300001 .45200003 L .08300001 .72900006 L 0 .72900006 Z "/>
</symbol>
<symbol id="font_b_4a">
<path d="M .08400001 .52400007 L .001000002 .52400007 L .001000002 0 L .08400001 0 L .08400001 .52400007 M .08400001 .72900006 L 0 .72900006 L 0 .624 L .08400001 .624 L .08400001 .72900006 Z "/>
</symbol>
<symbol id="font_b_44">
<path d="M .44000004 .37100003 C .43600003 .42200003 .42500005 .455 .40500004 .48400004 C .36900003 .53300008 .30600003 .56200006 .233 .56200006 C .092 .56200006 0 .45000003 0 .27600003 C 0 .10700001 .09 0 .23200001 0 C .35700003 0 .43600003 .075 .44600005 .20300001 L .36200003 .20300001 C .34800003 .119 .30500005 .07700001 .23400001 .07700001 C .142 .07700001 .087000008 .15200001 .087000008 .27600003 C .087000008 .407 .141 .485 .23200001 .485 C .30200003 .485 .34600003 .44400005 .35600005 .37100003 L .44000004 .37100003 Z "/>
</symbol>
<symbol id="font_b_4d">
<path d="M .08400001 .72900006 L 0 .72900006 L 0 0 L .08400001 0 L .08400001 .72900006 Z "/>
</symbol>
<symbol id="font_b_12">
<path d="M .157 .505 L .157 0 L .245 0 L .245 .70900008 L .187 .70900008 C .15600002 .6 .136 .58500006 0 .568 L 0 .505 L .157 .505 Z "/>
</symbol>
<use xlink:href="#font_b_37" transform="matrix(38.7436,0,0,-38.7436,567.9111,104.604618)"/>
<use xlink:href="#font_b_46" transform="matrix(38.7436,0,0,-38.7436,591.0025,105.49572)"/>
<use xlink:href="#font_b_49" transform="matrix(38.7436,0,0,-38.7436,613.6675,104.604618)"/>
<use xlink:href="#font_b_4a" transform="matrix(38.7436,0,0,-38.7436,635.0152,104.604618)"/>
<use xlink:href="#font_b_44" transform="matrix(38.7436,0,0,-38.7436,642.2215,105.49572)"/>
<use xlink:href="#font_b_4d" transform="matrix(38.7436,0,0,-38.7436,663.02688,104.604618)"/>
<use xlink:href="#font_b_46" transform="matrix(38.7436,0,0,-38.7436,670.50436,105.49572)"/>
<use xlink:href="#font_b_12" transform="matrix(38.7436,0,0,-38.7436,705.17947,104.604618)"/>
<path transform="matrix(2.7777777,0,0,-2.7777777,0,800)" stroke-width="1.5" stroke-linecap="square" stroke-linejoin="round" fill="none" stroke="#1f77b4" d="M 164.82958 235.33393 L 178.82958 235.33393 L 192.82958 235.33393 "/>
<symbol id="font_b_13">
<path d="M .47200004 .087000008 L .099 .087000008 C .108 .14500001 .14000002 .18200001 .227 .23300001 L .32700003 .287 C .426 .34100003 .47700004 .41400004 .47700004 .50100007 C .47700004 .56 .453 .615 .411 .65300008 C .36900003 .69100007 .317 .70900008 .25 .70900008 C .16 .70900008 .093 .67700007 .054000006 .61700007 C .029 .57900008 .018 .535 .015999999 .46300004 L .10400001 .46300004 C .107 .51100006 .113 .54 .125 .563 C .148 .606 .194 .632 .24700001 .632 C .32700003 .632 .38700003 .57500007 .38700003 .499 C .38700003 .44300003 .354 .395 .291 .35900004 L .199 .307 C .051 .223 .008000001 .156 0 0 L .47200004 0 L .47200004 .087000008 Z "/>
</symbol>
<use xlink:href="#font_b_37" transform="matrix(38.7436,0,0,-38.7436,567.9111,159.90576)"/>
<use xlink:href="#font_b_46" transform="matrix(38.7436,0,0,-38.7436,591.0025,160.79686)"/>
<use xlink:href="#font_b_49" transform="matrix(38.7436,0,0,-38.7436,613.6675,159.90576)"/>
<use xlink:href="#font_b_4a" transform="matrix(38.7436,0,0,-38.7436,635.0152,159.90576)"/>
<use xlink:href="#font_b_44" transform="matrix(38.7436,0,0,-38.7436,642.2215,160.79686)"/>
<use xlink:href="#font_b_4d" transform="matrix(38.7436,0,0,-38.7436,663.02688,159.90576)"/>
<use xlink:href="#font_b_46" transform="matrix(38.7436,0,0,-38.7436,670.50436,160.79686)"/>
<use xlink:href="#font_b_13" transform="matrix(38.7436,0,0,-38.7436,702.54489,159.90576)"/>
<path transform="matrix(2.7777777,0,0,-2.7777777,0,800)" stroke-width="1.5" stroke-linecap="square" stroke-linejoin="round" fill="none" stroke="#2ca02c" d="M 164.82958 215.4255 L 178.82958 215.4255 L 192.82958 215.4255 "/>
<symbol id="font_b_14">
<path d="M .18900001 .34800003 L .2 .34800003 L .23700002 .349 C .33400003 .349 .384 .305 .384 .22000002 C .384 .13100001 .32900004 .07800001 .23700002 .07800001 C .141 .07800001 .094 .12600002 .088 .22900002 L 0 .22900002 C .0040000008 .172 .014000002 .135 .031 .10300001 C .067 .035000005 .13700001 0 .234 0 C .38000003 0 .47400005 .087000008 .47400005 .22100002 C .47400005 .31100003 .439 .36100004 .354 .39000003 C .42000003 .416 .453 .46600003 .453 .537 C .453 .65900006 .372 .73200008 .23700002 .73200008 C .094 .73200008 .018 .65400007 .015000001 .503 L .103 .503 C .104 .546 .107999999 .57000008 .119 .592 C .139 .63100007 .183 .65500006 .238 .65500006 C .316 .65500006 .363 .609 .363 .53400006 C .363 .48400004 .345 .45400004 .30600003 .43800003 C .282 .42800004 .25100003 .42400003 .18900001 .423 L .18900001 .34800003 Z "/>
</symbol>
<use xlink:href="#font_b_37" transform="matrix(38.7436,0,0,-38.7436,567.9111,215.20697)"/>
<use xlink:href="#font_b_46" transform="matrix(38.7436,0,0,-38.7436,591.0025,216.09807)"/>
<use xlink:href="#font_b_49" transform="matrix(38.7436,0,0,-38.7436,613.6675,215.20697)"/>
<use xlink:href="#font_b_4a" transform="matrix(38.7436,0,0,-38.7436,635.0152,215.20697)"/>
<use xlink:href="#font_b_44" transform="matrix(38.7436,0,0,-38.7436,642.2215,216.09807)"/>
<use xlink:href="#font_b_4d" transform="matrix(38.7436,0,0,-38.7436,663.02688,215.20697)"/>
<use xlink:href="#font_b_46" transform="matrix(38.7436,0,0,-38.7436,670.50436,216.09807)"/>
<use xlink:href="#font_b_14" transform="matrix(38.7436,0,0,-38.7436,702.4674,216.09807)"/>
<path transform="matrix(2.7777777,0,0,-2.7777777,0,800)" stroke-width="1.5" stroke-linecap="square" stroke-linejoin="round" fill="none" stroke="#ff7f0e" d="M 164.82958 195.51708 L 178.82958 195.51708 L 192.82958 195.51708 "/>
<symbol id="font_b_15">
<path d="M .29900003 .17 L .29900003 0 L .38700003 0 L .38700003 .17 L .49200005 .17 L .49200005 .24900002 L .38700003 .24900002 L .38700003 .70900008 L .32200004 .70900008 L 0 .263 L 0 .17 L .29900003 .17 M .29900003 .24900002 L .07700001 .24900002 L .29900003 .559 L .29900003 .24900002 Z "/>
</symbol>
<use xlink:href="#font_b_37" transform="matrix(38.7436,0,0,-38.7436,567.9111,270.50819)"/>
<use xlink:href="#font_b_46" transform="matrix(38.7436,0,0,-38.7436,591.0025,271.3993)"/>
<use xlink:href="#font_b_49" transform="matrix(38.7436,0,0,-38.7436,613.6675,270.50819)"/>
<use xlink:href="#font_b_4a" transform="matrix(38.7436,0,0,-38.7436,635.0152,270.50819)"/>
<use xlink:href="#font_b_44" transform="matrix(38.7436,0,0,-38.7436,642.2215,271.3993)"/>
<use xlink:href="#font_b_4d" transform="matrix(38.7436,0,0,-38.7436,663.02688,270.50819)"/>
<use xlink:href="#font_b_46" transform="matrix(38.7436,0,0,-38.7436,670.50436,271.3993)"/>
<use xlink:href="#font_b_15" transform="matrix(38.7436,0,0,-38.7436,702.31246,270.50819)"/>
</g>
</svg>
