<?xml version="1.0" encoding="UTF-8" standalone="no"?>
<!-- Created with Inkscape (http://www.inkscape.org/) -->

<svg
   version="1.1"
   id="svg1"
   width="384"
   height="384"
   viewBox="0 0 384 384"
   sodipodi:docname="4-platoon-2.pdf"
   xmlns:inkscape="http://www.inkscape.org/namespaces/inkscape"
   xmlns:sodipodi="http://sodipodi.sourceforge.net/DTD/sodipodi-0.dtd"
   xmlns="http://www.w3.org/2000/svg"
   xmlns:svg="http://www.w3.org/2000/svg">
  <defs
     id="defs1">
    <clipPath
       clipPathUnits="userSpaceOnUse"
       id="clipPath4">
      <path
         d="M 50.418817,35.028426 H 272.88 V 272.88 H 50.418817 Z"
         id="path4" />
    </clipPath>
    <clipPath
       clipPathUnits="userSpaceOnUse"
       id="clipPath6">
      <path
         d="M 50.418817,35.028426 H 272.88 V 272.88 H 50.418817 Z"
         id="path6" />
    </clipPath>
    <clipPath
       clipPathUnits="userSpaceOnUse"
       id="clipPath8">
      <path
         d="M 50.418817,35.028426 H 272.88 V 272.88 H 50.418817 Z"
         id="path8" />
    </clipPath>
    <clipPath
       clipPathUnits="userSpaceOnUse"
       id="clipPath10">
      <path
         d="M 50.418817,35.028426 H 272.88 V 272.88 H 50.418817 Z"
         id="path10" />
    </clipPath>
    <clipPath
       clipPathUnits="userSpaceOnUse"
       id="clipPath56">
      <path
         d="M 50.418817,35.028426 H 272.88 V 272.88 H 50.418817 Z"
         id="path56" />
    </clipPath>
    <clipPath
       clipPathUnits="userSpaceOnUse"
       id="clipPath58">
      <path
         d="M 50.418817,35.028426 H 272.88 V 272.88 H 50.418817 Z"
         id="path58" />
    </clipPath>
    <clipPath
       clipPathUnits="userSpaceOnUse"
       id="clipPath60">
      <path
         d="M 50.418817,35.028426 H 272.88 V 272.88 H 50.418817 Z"
         id="path60" />
    </clipPath>
    <clipPath
       clipPathUnits="userSpaceOnUse"
       id="clipPath62">
      <path
         d="M 50.418817,35.028426 H 272.88 V 272.88 H 50.418817 Z"
         id="path62" />
    </clipPath>
  </defs>
  <sodipodi:namedview
     id="namedview1"
     pagecolor="#ffffff"
     bordercolor="#000000"
     borderopacity="0.25"
     inkscape:showpageshadow="2"
     inkscape:pageopacity="0.0"
     inkscape:pagecheckerboard="0"
     inkscape:deskcolor="#d1d1d1">
    <inkscape:page
       x="0"
       y="0"
       inkscape:label="1"
       id="page1"
       width="384"
       height="384"
       margin="0"
       bleed="0" />
  </sodipodi:namedview>
  <g
     id="g1"
     inkscape:groupmode="layer"
     inkscape:label="1">
    <path
       id="path1"
       d="M 0,0 H 288 V 288 H 0 Z"
       style="fill:#ffffff;fill-opacity:1;fill-rule:nonzero;stroke:none"
       transform="matrix(1.3333333,0,0,-1.3333333,0,384)" />
    <path
       id="path2"
       d="M 50.418817,35.028426 H 272.88 V 272.88 H 50.418817 Z"
       style="fill:#ffffff;fill-opacity:1;fill-rule:nonzero;stroke:none"
       transform="matrix(1.3333333,0,0,-1.3333333,0,384)" />
    <path
       id="path3"
       d="m 163.89649,141.94151 h 8.98833 v 9.61016 l -13.48249,14.41525 H 150.414 v -9.61017 z"
       style="fill:none;stroke:#d62728;stroke-width:2;stroke-linecap:butt;stroke-linejoin:miter;stroke-miterlimit:10;stroke-dasharray:none;stroke-opacity:1"
       transform="matrix(1.3333333,0,0,-1.3333333,0,384)"
       clip-path="url(#clipPath4)" />
    <path
       id="path5"
       d="m 154.90816,189.99233 h -26.96499 v -28.83049 l 40.44749,-43.24574 h 26.96499 v 28.83049 z"
       style="fill:none;stroke:#1f77b4;stroke-width:2;stroke-linecap:butt;stroke-linejoin:miter;stroke-miterlimit:10;stroke-dasharray:none;stroke-opacity:1"
       transform="matrix(1.3333333,0,0,-1.3333333,0,384)"
       clip-path="url(#clipPath6)" />
    <path
       id="path7"
       d="m 181.87315,45.839861 h 80.89498 V 132.33134 L 141.42566,262.06856 H 60.530689 v -86.49148 z"
       style="fill:none;stroke:#2ca02c;stroke-width:2;stroke-linecap:butt;stroke-linejoin:miter;stroke-miterlimit:10;stroke-dasharray:none;stroke-opacity:1"
       transform="matrix(1.3333333,0,0,-1.3333333,0,384)"
       clip-path="url(#clipPath8)" />
    <path
       id="path9"
       d="m 163.89649,141.94151 h 8.98833 v 9.61016 l -13.48249,14.41525 H 150.414 v -9.61017 z"
       style="fill:none;stroke:#ff7f0e;stroke-width:2;stroke-linecap:butt;stroke-linejoin:miter;stroke-miterlimit:10;stroke-dasharray:none;stroke-opacity:1"
       transform="matrix(1.3333333,0,0,-1.3333333,0,384)"
       clip-path="url(#clipPath10)" />
    <path
       id="path11"
       d="m 105.47234,35.028426 v -3.5"
       style="fill:#000000;fill-opacity:1;fill-rule:nonzero;stroke:#000000;stroke-width:0.8;stroke-linecap:butt;stroke-linejoin:round;stroke-miterlimit:10;stroke-dasharray:none;stroke-opacity:1"
       transform="matrix(1.3333333,0,0,-1.3333333,0,384)" />
    <g
       id="g11"
       aria-label="−0.5"
       transform="matrix(1.3333333,0,0,1.3333333,121.76391,359.87896)">
      <path
         id="path12"
         d="m 9.1887829,-3.2109799 c 0.234375,0 0.4921875,0 0.4921875,-0.28125 0,-0.2695312 -0.2578125,-0.2695312 -0.4921875,-0.2695312 h -7.546875 c -0.234375,0 -0.4804688,0 -0.4804688,0.2695312 0,0.28125 0.2460938,0.28125 0.4804688,0.28125 z m 0,0"
         style="fill:#000000;fill-opacity:1;fill-rule:nonzero;stroke:none" />
      <path
         id="path13"
         d="m 17.09308,-4.4648861 c 0,-1.1601563 -0.07031,-2.2851563 -0.574219,-3.3398438 -0.5625,-1.1601562 -1.570312,-1.4648437 -2.25,-1.4648437 -0.808594,0 -1.804687,0.3984375 -2.320312,1.5585937 -0.386719,0.8789063 -0.527344,1.7460938 -0.527344,3.2460938 0,1.359375 0.09375,2.3671875 0.597656,3.3632812 0.539063,1.05468751 1.5,1.39453126 2.226563,1.39453126 1.21875,0 1.910156,-0.7265625 2.320312,-1.53515626 0.503906,-1.0429687 0.527344,-2.4140625 0.527344,-3.2226562 z m -2.847656,4.47656246 c -0.445313,0 -1.347657,-0.24609375 -1.617188,-1.76953126 -0.152344,-0.8320312 -0.152344,-1.8984375 -0.152344,-2.8710937 0,-1.1484375 0,-2.1796875 0.222657,-3 0.246093,-0.9375 0.949218,-1.3710938 1.546875,-1.3710938 0.539062,0 1.347656,0.328125 1.605468,1.5234375 0.1875,0.796875 0.1875,1.8984375 0.1875,2.8476563 0,0.9375 0,1.9921875 -0.152343,2.8476562 -0.269532,1.53515626 -1.148438,1.79296876 -1.640625,1.79296876 z m 0,0"
         style="fill:#000000;fill-opacity:1;fill-rule:nonzero;stroke:none" />
      <path
         id="path14"
         d="m 20.242494,-0.66801114 c 0,-0.41015626 -0.339844,-0.67968746 -0.667969,-0.67968746 -0.410156,0 -0.679687,0.328125 -0.679687,0.66796871 0,0.3984375 0.328125,0.6796874953 0.667968,0.6796874953 0.398438,0 0.679688,-0.3398437453 0.679688,-0.6679687453 z m 0,0"
         style="fill:#000000;fill-opacity:1;fill-rule:nonzero;stroke:none" />
      <path
         id="path15"
         d="m 23.251283,-7.9922299 c 0.597656,0.1992188 1.089844,0.2109375 1.242187,0.2109375 1.582032,0 2.578125,-1.1601562 2.578125,-1.3476562 0,-0.058594 -0.02344,-0.1289063 -0.105468,-0.1289063 -0.03516,0 -0.05859,0 -0.1875,0.058594 -0.773438,0.328125 -1.441407,0.375 -1.804688,0.375 -0.925781,0 -1.582031,-0.28125 -1.839844,-0.3984375 -0.105468,-0.035156 -0.128906,-0.035156 -0.140625,-0.035156 -0.117187,0 -0.117187,0.082031 -0.117187,0.3046875 v 4.1367188 c 0,0.2578125 0,0.3398437 0.164062,0.3398437 0.07031,0 0.09375,-0.011719 0.234375,-0.1757812 0.386719,-0.5742188 1.042969,-0.9140625 1.734375,-0.9140625 0.738282,0 1.101563,0.6796875 1.21875,0.9257812 0.234375,0.5390625 0.246094,1.21875 0.246094,1.7578125 0,0.5273438 0,1.3242188 -0.386719,1.94531251 -0.304687,0.50390625 -0.855468,0.85546875 -1.464843,0.85546875 -0.925782,0 -1.828125,-0.6328125 -2.074219,-1.65234376 0.07031,0.035156 0.152344,0.046875 0.222656,0.046875 0.234375,0 0.609375,-0.140625 0.609375,-0.609375 0,-0.3984375 -0.269531,-0.6210937 -0.609375,-0.6210937 -0.257812,0 -0.621094,0.1289062 -0.621094,0.6679687 0,1.1953125 0.949219,2.54296876 2.496094,2.54296876 1.582031,0 2.964844,-1.32421876 2.964844,-3.09374996 0,-1.6640625 -1.125,-3.046875 -2.589844,-3.046875 -0.785156,0 -1.40625,0.3515625 -1.769531,0.7382812 z m 0,0"
         style="fill:#000000;fill-opacity:1;fill-rule:nonzero;stroke:none" />
    </g>
    <path
       id="path16"
       d="m 161.64941,35.028426 v -3.5"
       style="fill:#000000;fill-opacity:1;fill-rule:nonzero;stroke:#000000;stroke-width:0.8;stroke-linecap:butt;stroke-linejoin:round;stroke-miterlimit:10;stroke-dasharray:none;stroke-opacity:1"
       transform="matrix(1.3333333,0,0,-1.3333333,0,384)" />
    <g
       id="g16"
       aria-label="0.0"
       transform="matrix(1.3333333,0,0,1.3333333,203.89882,359.87896)">
      <path
         id="path17"
         d="m 6.2458043,-4.4648861 c 0,-1.1601563 -0.070312,-2.2851563 -0.5742187,-3.3398438 -0.5625,-1.1601562 -1.5703125,-1.4648437 -2.25,-1.4648437 -0.8085938,0 -1.8046875,0.3984375 -2.3203125,1.5585937 -0.38671879,0.8789063 -0.52734379,1.7460938 -0.52734379,3.2460938 0,1.359375 0.09375,2.3671875 0.59765629,3.3632812 0.5390625,1.05468751 1.5,1.39453126 2.2265625,1.39453126 1.21875,0 1.9101562,-0.7265625 2.3203125,-1.53515626 0.5039062,-1.0429687 0.5273437,-2.4140625 0.5273437,-3.2226562 z M 3.3981481,0.01167636 c -0.4453125,0 -1.3476563,-0.24609375 -1.6171875,-1.76953126 -0.1523438,-0.8320312 -0.1523438,-1.8984375 -0.1523438,-2.8710937 0,-1.1484375 0,-2.1796875 0.2226563,-3 0.2460937,-0.9375 0.9492187,-1.3710938 1.546875,-1.3710938 0.5390625,0 1.3476562,0.328125 1.6054687,1.5234375 0.1875,0.796875 0.1875,1.8984375 0.1875,2.8476563 0,0.9375 0,1.9921875 -0.1523437,2.8476562 -0.2695313,1.53515626 -1.1484375,1.79296876 -1.640625,1.79296876 z m 0,0"
         style="fill:#000000;fill-opacity:1;fill-rule:nonzero;stroke:none" />
      <path
         id="path18"
         d="m 9.3952184,-0.66801114 c 0,-0.41015626 -0.3398438,-0.67968746 -0.6679688,-0.67968746 -0.4101562,0 -0.6796875,0.328125 -0.6796875,0.66796871 0,0.3984375 0.328125,0.6796874953 0.6679688,0.6796874953 0.3984375,0 0.6796875,-0.3398437453 0.6796875,-0.6679687453 z m 0,0"
         style="fill:#000000;fill-opacity:1;fill-rule:nonzero;stroke:none" />
      <path
         id="path19"
         d="m 16.868851,-4.4648861 c 0,-1.1601563 -0.07031,-2.2851563 -0.574219,-3.3398438 -0.5625,-1.1601562 -1.570312,-1.4648437 -2.25,-1.4648437 -0.808593,0 -1.804687,0.3984375 -2.320312,1.5585937 -0.386719,0.8789063 -0.527344,1.7460938 -0.527344,3.2460938 0,1.359375 0.09375,2.3671875 0.597656,3.3632812 0.539063,1.05468751 1.5,1.39453126 2.226563,1.39453126 1.21875,0 1.910156,-0.7265625 2.320312,-1.53515626 0.503907,-1.0429687 0.527344,-2.4140625 0.527344,-3.2226562 z m -2.847656,4.47656246 c -0.445313,0 -1.347656,-0.24609375 -1.617188,-1.76953126 -0.152343,-0.8320312 -0.152343,-1.8984375 -0.152343,-2.8710937 0,-1.1484375 0,-2.1796875 0.222656,-3 0.246094,-0.9375 0.949219,-1.3710938 1.546875,-1.3710938 0.539062,0 1.347656,0.328125 1.605469,1.5234375 0.1875,0.796875 0.1875,1.8984375 0.1875,2.8476563 0,0.9375 0,1.9921875 -0.152344,2.8476562 -0.269531,1.53515626 -1.148438,1.79296876 -1.640625,1.79296876 z m 0,0"
         style="fill:#000000;fill-opacity:1;fill-rule:nonzero;stroke:none" />
    </g>
    <path
       id="path20"
       d="m 217.82647,35.028426 v -3.5"
       style="fill:#000000;fill-opacity:1;fill-rule:nonzero;stroke:#000000;stroke-width:0.8;stroke-linecap:butt;stroke-linejoin:round;stroke-miterlimit:10;stroke-dasharray:none;stroke-opacity:1"
       transform="matrix(1.3333333,0,0,-1.3333333,0,384)" />
    <g
       id="g20"
       aria-label="0.5"
       transform="matrix(1.3333333,0,0,1.3333333,278.80158,359.87896)">
      <path
         id="path21"
         d="m 6.245498,-4.4648861 c 0,-1.1601563 -0.070312,-2.2851563 -0.5742188,-3.3398438 -0.5625,-1.1601562 -1.5703125,-1.4648437 -2.25,-1.4648437 -0.8085937,0 -1.8046875,0.3984375 -2.3203125,1.5585937 -0.38671872,0.8789063 -0.52734372,1.7460938 -0.52734372,3.2460938 0,1.359375 0.09375,2.3671875 0.59765622,3.3632812 0.5390625,1.05468751 1.5,1.39453126 2.2265625,1.39453126 1.21875,0 1.9101563,-0.7265625 2.3203125,-1.53515626 C 6.2220605,-2.2851986 6.245498,-3.6562924 6.245498,-4.4648861 Z M 3.3978417,0.01167636 c -0.4453125,0 -1.3476562,-0.24609375 -1.6171875,-1.76953126 -0.1523437,-0.8320312 -0.1523437,-1.8984375 -0.1523437,-2.8710937 0,-1.1484375 0,-2.1796875 0.2226562,-3 0.2460938,-0.9375 0.9492188,-1.3710938 1.546875,-1.3710938 0.5390625,0 1.3476563,0.328125 1.6054688,1.5234375 0.1875,0.796875 0.1875,1.8984375 0.1875,2.8476563 0,0.9375 0,1.9921875 -0.1523438,2.8476562 -0.2695312,1.53515626 -1.1484375,1.79296876 -1.640625,1.79296876 z m 0,0"
         style="fill:#000000;fill-opacity:1;fill-rule:nonzero;stroke:none" />
      <path
         id="path22"
         d="m 9.394912,-0.66801114 c 0,-0.41015626 -0.3398437,-0.67968746 -0.6679687,-0.67968746 -0.4101563,0 -0.6796875,0.328125 -0.6796875,0.66796871 0,0.3984375 0.328125,0.6796874953 0.6679687,0.6796874953 0.3984375,0 0.6796875,-0.3398437453 0.6796875,-0.6679687453 z m 0,0"
         style="fill:#000000;fill-opacity:1;fill-rule:nonzero;stroke:none" />
      <path
         id="path23"
         d="m 12.403701,-7.9922299 c 0.597656,0.1992188 1.089844,0.2109375 1.242188,0.2109375 1.582031,0 2.578125,-1.1601562 2.578125,-1.3476562 0,-0.058594 -0.02344,-0.1289063 -0.105469,-0.1289063 -0.03516,0 -0.05859,0 -0.1875,0.058594 -0.773438,0.328125 -1.441406,0.375 -1.804688,0.375 -0.925781,0 -1.582031,-0.28125 -1.839843,-0.3984375 -0.105469,-0.035156 -0.128907,-0.035156 -0.140625,-0.035156 -0.117188,0 -0.117188,0.082031 -0.117188,0.3046875 v 4.1367188 c 0,0.2578125 0,0.3398437 0.164063,0.3398437 0.07031,0 0.09375,-0.011719 0.234375,-0.1757812 0.386718,-0.5742188 1.042968,-0.9140625 1.734375,-0.9140625 0.738281,0 1.101562,0.6796875 1.21875,0.9257812 0.234375,0.5390625 0.246093,1.21875 0.246093,1.7578125 0,0.5273438 0,1.3242188 -0.386718,1.94531251 -0.304688,0.50390625 -0.855469,0.85546875 -1.464844,0.85546875 -0.925781,0 -1.828125,-0.6328125 -2.074219,-1.65234376 0.07031,0.035156 0.152344,0.046875 0.222656,0.046875 0.234375,0 0.609375,-0.140625 0.609375,-0.609375 0,-0.3984375 -0.269531,-0.6210937 -0.609375,-0.6210937 -0.257812,0 -0.621093,0.1289062 -0.621093,0.6679687 0,1.1953125 0.949218,2.54296876 2.496093,2.54296876 1.582032,0 2.964844,-1.32421876 2.964844,-3.09374996 0,-1.6640625 -1.125,-3.046875 -2.589844,-3.046875 -0.785156,0 -1.40625,0.3515625 -1.769531,0.7382812 z m 0,0"
         style="fill:#000000;fill-opacity:1;fill-rule:nonzero;stroke:none" />
    </g>
    <path
       id="path24"
       d="m 50.418817,63.858924 h -3.5"
       style="fill:#000000;fill-opacity:1;fill-rule:nonzero;stroke:#000000;stroke-width:0.8;stroke-linecap:butt;stroke-linejoin:round;stroke-miterlimit:10;stroke-dasharray:none;stroke-opacity:1"
       transform="matrix(1.3333333,0,0,-1.3333333,0,384)" />
    <g
       id="g24"
       aria-label="−0.75"
       transform="matrix(1.3333333,0,0,1.3333333,11.055348,305.47987)">
      <path
         id="path25"
         d="m 9.1870043,-3.2104865 c 0.234375,0 0.4921875,0 0.4921875,-0.28125 0,-0.2695312 -0.2578125,-0.2695312 -0.4921875,-0.2695312 h -7.546875 c -0.234375,0 -0.4804688,0 -0.4804688,0.2695312 0,0.28125 0.2460938,0.28125 0.4804688,0.28125 z m 0,0"
         style="fill:#000000;fill-opacity:1;fill-rule:nonzero;stroke:none" />
      <path
         id="path26"
         d="m 17.094231,-4.4643927 c 0,-1.1601563 -0.07031,-2.2851563 -0.574219,-3.3398438 -0.5625,-1.1601562 -1.570312,-1.4648437 -2.25,-1.4648437 -0.808594,0 -1.804687,0.3984375 -2.320312,1.5585937 -0.386719,0.8789063 -0.527344,1.7460938 -0.527344,3.2460938 0,1.359375 0.09375,2.3671875 0.597656,3.3632812 0.539063,1.05468753 1.5,1.39453128 2.226563,1.39453128 1.21875,0 1.910156,-0.7265625 2.320312,-1.53515628 0.503906,-1.0429687 0.527344,-2.4140625 0.527344,-3.2226562 z m -2.847656,4.47656248 c -0.445313,0 -1.347657,-0.24609375 -1.617188,-1.76953128 -0.152344,-0.8320312 -0.152344,-1.8984375 -0.152344,-2.8710937 0,-1.1484375 0,-2.1796875 0.222657,-3 0.246093,-0.9375 0.949218,-1.3710938 1.546875,-1.3710938 0.539062,0 1.347656,0.328125 1.605468,1.5234375 0.1875,0.796875 0.1875,1.8984375 0.1875,2.8476563 0,0.9375 0,1.9921875 -0.152343,2.8476562 -0.269532,1.53515628 -1.148438,1.79296878 -1.640625,1.79296878 z m 0,0"
         style="fill:#000000;fill-opacity:1;fill-rule:nonzero;stroke:none" />
      <path
         id="path27"
         d="m 20.243645,-0.66751772 c 0,-0.41015628 -0.339844,-0.67968748 -0.667969,-0.67968748 -0.410156,0 -0.679687,0.328125 -0.679687,0.66796873 0,0.3984375 0.328125,0.6796874984 0.667968,0.6796874984 0.398438,0 0.679688,-0.3398437484 0.679688,-0.6679687484 z m 0,0"
         style="fill:#000000;fill-opacity:1;fill-rule:nonzero;stroke:none" />
      <path
         id="path28"
         d="m 28.092278,-8.6597052 v -0.3164063 h -3.363282 c -1.6875,0 -1.710937,-0.1875 -1.769531,-0.4453125 h -0.304687 l -0.433594,2.7890625 h 0.304687 c 0.04687,-0.2578125 0.175782,-1.125 0.351563,-1.2773437 0.117187,-0.082031 1.160156,-0.082031 1.359375,-0.082031 h 2.953125 l -1.476563,2.1210938 c -0.375,0.5390625 -1.792968,2.8359375 -1.792968,5.44921873 0,0.15234375 0,0.71484375 0.574218,0.71484375 0.585938,0 0.585938,-0.5390625 0.585938,-0.7265625 V -1.124549 c 0,-2.0859375 0.339844,-3.703125 0.996094,-4.6289062 z m 1.980468,0.6679687 c 0.597657,0.1992188 1.089844,0.2109375 1.242188,0.2109375 1.582031,0 2.578125,-1.1601562 2.578125,-1.3476562 0,-0.058594 -0.02344,-0.1289063 -0.105469,-0.1289063 -0.03516,0 -0.05859,0 -0.1875,0.058594 -0.773437,0.328125 -1.441406,0.375 -1.804687,0.375 -0.925782,0 -1.582032,-0.28125 -1.839844,-0.3984375 -0.105469,-0.035156 -0.128906,-0.035156 -0.140625,-0.035156 -0.117188,0 -0.117188,0.082031 -0.117188,0.3046875 v 4.1367188 c 0,0.2578125 0,0.3398437 0.164063,0.3398437 0.07031,0 0.09375,-0.011719 0.234375,-0.1757812 0.386719,-0.5742188 1.042969,-0.9140625 1.734375,-0.9140625 0.738281,0 1.101562,0.6796875 1.21875,0.9257812 0.234375,0.5390625 0.246094,1.21875 0.246094,1.7578125 0,0.5273438 0,1.3242188 -0.386719,1.94531253 -0.304688,0.50390625 -0.855469,0.85546875 -1.464844,0.85546875 -0.925781,0 -1.828125,-0.6328125 -2.074219,-1.65234378 0.07031,0.035156 0.152344,0.046875 0.222657,0.046875 0.234375,0 0.609375,-0.140625 0.609375,-0.609375 0,-0.3984375 -0.269532,-0.6210937 -0.609375,-0.6210937 -0.257813,0 -0.621094,0.1289062 -0.621094,0.6679687 0,1.1953125 0.949219,2.54296878 2.496094,2.54296878 1.582031,0 2.964843,-1.32421878 2.964843,-3.09374998 0,-1.6640625 -1.125,-3.046875 -2.589843,-3.046875 -0.785157,0 -1.40625,0.3515625 -1.769532,0.7382812 z m 0,0"
         style="fill:#000000;fill-opacity:1;fill-rule:nonzero;stroke:none" />
    </g>
    <path
       id="path29"
       d="m 50.418817,93.890687 h -3.5"
       style="fill:#000000;fill-opacity:1;fill-rule:nonzero;stroke:#000000;stroke-width:0.8;stroke-linecap:butt;stroke-linejoin:round;stroke-miterlimit:10;stroke-dasharray:none;stroke-opacity:1"
       transform="matrix(1.3333333,0,0,-1.3333333,0,384)" />
    <g
       id="g29"
       aria-label="−0.50"
       transform="matrix(1.3333333,0,0,1.3333333,11.055348,265.43752)">
      <path
         id="path30"
         d="m 9.1870043,-3.2109499 c 0.234375,0 0.4921875,0 0.4921875,-0.28125 0,-0.2695312 -0.2578125,-0.2695312 -0.4921875,-0.2695312 h -7.546875 c -0.234375,0 -0.4804688,0 -0.4804688,0.2695312 0,0.28125 0.2460938,0.28125 0.4804688,0.28125 z m 0,0"
         style="fill:#000000;fill-opacity:1;fill-rule:nonzero;stroke:none" />
      <path
         id="path31"
         d="m 17.094231,-4.4648561 c 0,-1.1601563 -0.07031,-2.2851563 -0.574219,-3.3398438 -0.5625,-1.1601562 -1.570312,-1.4648437 -2.25,-1.4648437 -0.808594,0 -1.804687,0.3984375 -2.320312,1.5585937 -0.386719,0.8789063 -0.527344,1.7460938 -0.527344,3.2460938 0,1.359375 0.09375,2.3671875 0.597656,3.3632812 0.539063,1.05468753 1.5,1.39453128 2.226563,1.39453128 1.21875,0 1.910156,-0.7265625 2.320312,-1.53515628 0.503906,-1.0429687 0.527344,-2.4140625 0.527344,-3.2226562 z m -2.847656,4.47656248 c -0.445313,0 -1.347657,-0.24609375 -1.617188,-1.76953128 -0.152344,-0.8320312 -0.152344,-1.8984375 -0.152344,-2.8710937 0,-1.1484375 0,-2.1796875 0.222657,-3 0.246093,-0.9375 0.949218,-1.3710938 1.546875,-1.3710938 0.539062,0 1.347656,0.328125 1.605468,1.5234375 0.1875,0.796875 0.1875,1.8984375 0.1875,2.8476563 0,0.9375 0,1.9921875 -0.152343,2.8476562 -0.269532,1.53515628 -1.148438,1.79296878 -1.640625,1.79296878 z m 0,0"
         style="fill:#000000;fill-opacity:1;fill-rule:nonzero;stroke:none" />
      <path
         id="path32"
         d="m 20.243645,-0.66798112 c 0,-0.41015628 -0.339844,-0.67968748 -0.667969,-0.67968748 -0.410156,0 -0.679687,0.328125 -0.679687,0.66796873 0,0.3984375 0.328125,0.6796875002 0.667968,0.6796875002 0.398438,0 0.679688,-0.3398437502 0.679688,-0.6679687502 z m 0,0"
         style="fill:#000000;fill-opacity:1;fill-rule:nonzero;stroke:none" />
      <path
         id="path33"
         d="m 23.252434,-7.9921999 c 0.597656,0.1992188 1.089844,0.2109375 1.242187,0.2109375 1.582032,0 2.578125,-1.1601562 2.578125,-1.3476562 0,-0.058594 -0.02344,-0.1289063 -0.105468,-0.1289063 -0.03516,0 -0.05859,0 -0.1875,0.058594 -0.773438,0.328125 -1.441407,0.375 -1.804688,0.375 -0.925781,0 -1.582031,-0.28125 -1.839844,-0.3984375 -0.105468,-0.035156 -0.128906,-0.035156 -0.140625,-0.035156 -0.117187,0 -0.117187,0.082031 -0.117187,0.3046875 v 4.1367188 c 0,0.2578125 0,0.3398437 0.164062,0.3398437 0.07031,0 0.09375,-0.011719 0.234375,-0.1757812 0.386719,-0.5742188 1.042969,-0.9140625 1.734375,-0.9140625 0.738282,0 1.101563,0.6796875 1.21875,0.9257812 0.234375,0.5390625 0.246094,1.21875 0.246094,1.7578125 0,0.5273438 0,1.3242188 -0.386719,1.94531253 -0.304687,0.50390625 -0.855468,0.85546875 -1.464843,0.85546875 -0.925782,0 -1.828125,-0.6328125 -2.074219,-1.65234378 0.07031,0.035156 0.152344,0.046875 0.222656,0.046875 0.234375,0 0.609375,-0.140625 0.609375,-0.609375 0,-0.3984375 -0.269531,-0.6210937 -0.609375,-0.6210937 -0.257812,0 -0.621094,0.1289062 -0.621094,0.6679687 0,1.1953125 0.949219,2.54296878 2.496094,2.54296878 1.582031,0 2.964844,-1.32421878 2.964844,-3.09374998 0,-1.6640625 -1.125,-3.046875 -2.589844,-3.046875 -0.785156,0 -1.40625,0.3515625 -1.769531,0.7382812 z m 11.285156,3.5273438 c 0,-1.1601563 -0.07031,-2.2851563 -0.574219,-3.3398438 -0.5625,-1.1601562 -1.570312,-1.4648437 -2.25,-1.4648437 -0.808593,0 -1.804687,0.3984375 -2.320312,1.5585937 -0.386719,0.8789063 -0.527344,1.7460938 -0.527344,3.2460938 0,1.359375 0.09375,2.3671875 0.597656,3.3632812 0.539063,1.05468753 1.5,1.39453128 2.226563,1.39453128 1.21875,0 1.910156,-0.7265625 2.320312,-1.53515628 0.503907,-1.0429687 0.527344,-2.4140625 0.527344,-3.2226562 z m -2.847656,4.47656248 c -0.445313,0 -1.347656,-0.24609375 -1.617188,-1.76953128 -0.152343,-0.8320312 -0.152343,-1.8984375 -0.152343,-2.8710937 0,-1.1484375 0,-2.1796875 0.222656,-3 0.246094,-0.9375 0.949219,-1.3710938 1.546875,-1.3710938 0.539062,0 1.347656,0.328125 1.605469,1.5234375 0.1875,0.796875 0.1875,1.8984375 0.1875,2.8476563 0,0.9375 0,1.9921875 -0.152344,2.8476562 -0.269531,1.53515628 -1.148438,1.79296878 -1.640625,1.79296878 z m 0,0"
         style="fill:#000000;fill-opacity:1;fill-rule:nonzero;stroke:none" />
    </g>
    <path
       id="path34"
       d="m 50.418817,123.92245 h -3.5"
       style="fill:#000000;fill-opacity:1;fill-rule:nonzero;stroke:#000000;stroke-width:0.8;stroke-linecap:butt;stroke-linejoin:round;stroke-miterlimit:10;stroke-dasharray:none;stroke-opacity:1"
       transform="matrix(1.3333333,0,0,-1.3333333,0,384)" />
    <g
       id="g34"
       aria-label="−0.25"
       transform="matrix(1.3333333,0,0,1.3333333,11.055348,225.39517)">
      <path
         id="path35"
         d="m 9.1870043,-3.2114133 c 0.234375,0 0.4921875,0 0.4921875,-0.28125 0,-0.2695312 -0.2578125,-0.2695312 -0.4921875,-0.2695312 h -7.546875 c -0.234375,0 -0.4804688,0 -0.4804688,0.2695312 0,0.28125 0.2460938,0.28125 0.4804688,0.28125 z m 0,0"
         style="fill:#000000;fill-opacity:1;fill-rule:nonzero;stroke:none" />
      <path
         id="path36"
         d="m 17.094231,-4.4653195 c 0,-1.1601563 -0.07031,-2.2851563 -0.574219,-3.3398438 -0.5625,-1.1601562 -1.570312,-1.4648437 -2.25,-1.4648437 -0.808594,0 -1.804687,0.3984375 -2.320312,1.5585937 -0.386719,0.8789063 -0.527344,1.7460938 -0.527344,3.2460938 0,1.359375 0.09375,2.3671875 0.597656,3.3632812 0.539063,1.05468753 1.5,1.39453128 2.226563,1.39453128 1.21875,0 1.910156,-0.7265625 2.320312,-1.53515628 0.503906,-1.0429687 0.527344,-2.4140625 0.527344,-3.2226562 z m -2.847656,4.47656248 c -0.445313,0 -1.347657,-0.24609375 -1.617188,-1.76953128 -0.152344,-0.8320312 -0.152344,-1.8984375 -0.152344,-2.8710937 0,-1.1484375 0,-2.1796875 0.222657,-3 0.246093,-0.9375 0.949218,-1.3710938 1.546875,-1.3710938 0.539062,0 1.347656,0.328125 1.605468,1.5234375 0.1875,0.796875 0.1875,1.8984375 0.1875,2.8476563 0,0.9375 0,1.9921875 -0.152343,2.8476562 -0.269532,1.53515628 -1.148438,1.79296878 -1.640625,1.79296878 z m 0,0"
         style="fill:#000000;fill-opacity:1;fill-rule:nonzero;stroke:none" />
      <path
         id="path37"
         d="m 20.243645,-0.66844452 c 0,-0.41015628 -0.339844,-0.67968748 -0.667969,-0.67968748 -0.410156,0 -0.679687,0.328125 -0.679687,0.66796873 0,0.3984375 0.328125,0.6796875021 0.667968,0.6796875021 0.398438,0 0.679688,-0.3398437521 0.679688,-0.6679687521 z m 0,0"
         style="fill:#000000;fill-opacity:1;fill-rule:nonzero;stroke:none" />
      <path
         id="path38"
         d="m 27.611809,-2.3442258 h -0.316406 c -0.03516,0.234375 -0.152344,1.0078125 -0.292969,1.2304688 -0.09375,0.12890623 -0.890625,0.12890623 -1.300781,0.12890623 h -2.589844 c 0.386719,-0.32812503 1.230469,-1.21875003 1.59375,-1.55859373 2.121094,-1.9453125 2.90625,-2.671875 2.90625,-4.0546875 0,-1.6054688 -1.277344,-2.671875 -2.894531,-2.671875 -1.617188,0 -2.566407,1.3710937 -2.566407,2.578125 0,0.703125 0.621094,0.703125 0.65625,0.703125 0.292969,0 0.65625,-0.1992188 0.65625,-0.6445313 0,-0.3984375 -0.257812,-0.65625 -0.65625,-0.65625 -0.117187,0 -0.152343,0 -0.1875,0.011719 0.257813,-0.9492188 1.007813,-1.59375 1.921875,-1.59375 1.183594,0 1.910157,0.9960937 1.910157,2.2734375 0,1.1835937 -0.679688,2.2148437 -1.476563,3.1054687 l -2.824219,3.15234378 v 0.3398437521 h 5.097657 z m 2.460937,-5.6484375 c 0.597657,0.1992188 1.089844,0.2109375 1.242188,0.2109375 1.582031,0 2.578125,-1.1601562 2.578125,-1.3476562 0,-0.058594 -0.02344,-0.1289063 -0.105469,-0.1289063 -0.03516,0 -0.05859,0 -0.1875,0.058594 -0.773437,0.328125 -1.441406,0.375 -1.804687,0.375 -0.925782,0 -1.582032,-0.28125 -1.839844,-0.3984375 -0.105469,-0.035156 -0.128906,-0.035156 -0.140625,-0.035156 -0.117188,0 -0.117188,0.082031 -0.117188,0.3046875 v 4.1367188 c 0,0.2578125 0,0.3398437 0.164063,0.3398437 0.07031,0 0.09375,-0.011719 0.234375,-0.1757812 0.386719,-0.5742188 1.042969,-0.9140625 1.734375,-0.9140625 0.738281,0 1.101562,0.6796875 1.21875,0.9257812 0.234375,0.5390625 0.246094,1.21875 0.246094,1.7578125 0,0.5273438 0,1.3242188 -0.386719,1.94531253 -0.304688,0.50390625 -0.855469,0.85546875 -1.464844,0.85546875 -0.925781,0 -1.828125,-0.6328125 -2.074219,-1.65234378 0.07031,0.035156 0.152344,0.046875 0.222657,0.046875 0.234375,0 0.609375,-0.140625 0.609375,-0.609375 0,-0.3984375 -0.269532,-0.6210937 -0.609375,-0.6210937 -0.257813,0 -0.621094,0.1289062 -0.621094,0.6679687 0,1.1953125 0.949219,2.54296878 2.496094,2.54296878 1.582031,0 2.964843,-1.32421878 2.964843,-3.09374998 0,-1.6640625 -1.125,-3.046875 -2.589843,-3.046875 -0.785157,0 -1.40625,0.3515625 -1.769532,0.7382812 z m 0,0"
         style="fill:#000000;fill-opacity:1;fill-rule:nonzero;stroke:none" />
    </g>
    <path
       id="path39"
       d="m 50.418817,153.95421 h -3.5"
       style="fill:#000000;fill-opacity:1;fill-rule:nonzero;stroke:#000000;stroke-width:0.8;stroke-linecap:butt;stroke-linejoin:round;stroke-miterlimit:10;stroke-dasharray:none;stroke-opacity:1"
       transform="matrix(1.3333333,0,0,-1.3333333,0,384)" />
    <g
       id="g39"
       aria-label="0.00"
       transform="matrix(1.3333333,0,0,1.3333333,25.519662,185.35281)">
      <path
         id="path40"
         d="m 6.2459957,-4.4657829 c 0,-1.1601563 -0.070312,-2.2851563 -0.5742188,-3.3398438 -0.5625,-1.1601562 -1.5703125,-1.4648437 -2.25,-1.4648437 -0.8085937,0 -1.8046875,0.3984375 -2.3203125,1.5585937 -0.38671872,0.8789063 -0.52734372,1.7460938 -0.52734372,3.2460938 0,1.359375 0.09375,2.3671875 0.59765622,3.3632812 0.5390625,1.05468753 1.5,1.39453128 2.2265625,1.39453128 1.21875,0 1.9101563,-0.7265625 2.3203125,-1.53515628 0.5039063,-1.0429687 0.5273438,-2.4140625 0.5273438,-3.2226562 z M 3.3983394,0.01077958 c -0.4453125,0 -1.3476562,-0.24609375 -1.6171875,-1.76953128 -0.1523437,-0.8320312 -0.1523437,-1.8984375 -0.1523437,-2.8710937 0,-1.1484375 0,-2.1796875 0.2226562,-3 0.2460938,-0.9375 0.9492188,-1.3710938 1.546875,-1.3710938 0.5390625,0 1.3476563,0.328125 1.6054688,1.5234375 0.1875,0.796875 0.1875,1.8984375 0.1875,2.8476563 0,0.9375 0,1.9921875 -0.1523438,2.8476562 -0.2695312,1.53515628 -1.1484375,1.79296878 -1.640625,1.79296878 z m 0,0"
         style="fill:#000000;fill-opacity:1;fill-rule:nonzero;stroke:none" />
      <path
         id="path41"
         d="m 9.3954097,-0.66890792 c 0,-0.41015628 -0.3398437,-0.67968748 -0.6679687,-0.67968748 -0.4101563,0 -0.6796875,0.328125 -0.6796875,0.66796873 0,0.3984375 0.328125,0.6796875039 0.6679687,0.6796875039 0.3984375,0 0.6796875,-0.3398437539 0.6796875,-0.6679687539 z m 0,0"
         style="fill:#000000;fill-opacity:1;fill-rule:nonzero;stroke:none" />
      <path
         id="path42"
         d="m 16.869043,-4.4657829 c 0,-1.1601563 -0.07031,-2.2851563 -0.574219,-3.3398438 -0.5625,-1.1601562 -1.570313,-1.4648437 -2.25,-1.4648437 -0.808594,0 -1.804688,0.3984375 -2.320313,1.5585937 -0.386718,0.8789063 -0.527343,1.7460938 -0.527343,3.2460938 0,1.359375 0.09375,2.3671875 0.597656,3.3632812 0.539062,1.05468753 1.5,1.39453128 2.226562,1.39453128 1.21875,0 1.910157,-0.7265625 2.320313,-1.53515628 0.503906,-1.0429687 0.527344,-2.4140625 0.527344,-3.2226562 z m -2.847657,4.47656248 c -0.445312,0 -1.347656,-0.24609375 -1.617187,-1.76953128 -0.152344,-0.8320312 -0.152344,-1.8984375 -0.152344,-2.8710937 0,-1.1484375 0,-2.1796875 0.222656,-3 0.246094,-0.9375 0.949219,-1.3710938 1.546875,-1.3710938 0.539063,0 1.347657,0.328125 1.605469,1.5234375 0.1875,0.796875 0.1875,1.8984375 0.1875,2.8476563 0,0.9375 0,1.9921875 -0.152344,2.8476562 -0.269531,1.53515628 -1.148437,1.79296878 -1.640625,1.79296878 z m 9.667969,-4.47656248 c 0,-1.1601563 -0.07031,-2.2851563 -0.574219,-3.3398438 -0.5625,-1.1601562 -1.570312,-1.4648437 -2.25,-1.4648437 -0.808593,0 -1.804687,0.3984375 -2.320312,1.5585937 -0.386719,0.8789063 -0.527344,1.7460938 -0.527344,3.2460938 0,1.359375 0.09375,2.3671875 0.597656,3.3632812 0.539063,1.05468753 1.5,1.39453128 2.226563,1.39453128 1.21875,0 1.910156,-0.7265625 2.320312,-1.53515628 0.503907,-1.0429687 0.527344,-2.4140625 0.527344,-3.2226562 z m -2.847656,4.47656248 c -0.445313,0 -1.347656,-0.24609375 -1.617188,-1.76953128 -0.152343,-0.8320312 -0.152343,-1.8984375 -0.152343,-2.8710937 0,-1.1484375 0,-2.1796875 0.222656,-3 0.246094,-0.9375 0.949219,-1.3710938 1.546875,-1.3710938 0.539062,0 1.347656,0.328125 1.605469,1.5234375 0.1875,0.796875 0.1875,1.8984375 0.1875,2.8476563 0,0.9375 0,1.9921875 -0.152344,2.8476562 -0.269531,1.53515628 -1.148438,1.79296878 -1.640625,1.79296878 z m 0,0"
         style="fill:#000000;fill-opacity:1;fill-rule:nonzero;stroke:none" />
    </g>
    <path
       id="path43"
       d="m 50.418817,183.98598 h -3.5"
       style="fill:#000000;fill-opacity:1;fill-rule:nonzero;stroke:#000000;stroke-width:0.8;stroke-linecap:butt;stroke-linejoin:round;stroke-miterlimit:10;stroke-dasharray:none;stroke-opacity:1"
       transform="matrix(1.3333333,0,0,-1.3333333,0,384)" />
    <g
       id="g43"
       aria-label="0.25"
       transform="matrix(1.3333333,0,0,1.3333333,25.519662,145.31046)">
      <path
         id="path44"
         d="m 6.2459957,-4.4662463 c 0,-1.1601563 -0.070312,-2.2851563 -0.5742188,-3.3398438 -0.5625,-1.1601562 -1.5703125,-1.4648437 -2.25,-1.4648437 -0.8085937,0 -1.8046875,0.3984375 -2.3203125,1.5585937 -0.38671872,0.8789063 -0.52734372,1.7460938 -0.52734372,3.2460938 0,1.359375 0.09375,2.3671875 0.59765622,3.3632812 0.5390625,1.05468754 1.5,1.39453129 2.2265625,1.39453129 1.21875,0 1.9101563,-0.7265625 2.3203125,-1.53515629 0.5039063,-1.0429687 0.5273438,-2.4140625 0.5273438,-3.2226562 z M 3.3983394,0.01031619 c -0.4453125,0 -1.3476562,-0.24609375 -1.6171875,-1.76953129 -0.1523437,-0.8320312 -0.1523437,-1.8984375 -0.1523437,-2.8710937 0,-1.1484375 0,-2.1796875 0.2226562,-3 0.2460938,-0.9375 0.9492188,-1.3710938 1.546875,-1.3710938 0.5390625,0 1.3476563,0.328125 1.6054688,1.5234375 0.1875,0.796875 0.1875,1.8984375 0.1875,2.8476563 0,0.9375 0,1.9921875 -0.1523438,2.8476562 -0.2695312,1.53515629 -1.1484375,1.79296879 -1.640625,1.79296879 z m 0,0"
         style="fill:#000000;fill-opacity:1;fill-rule:nonzero;stroke:none" />
      <path
         id="path45"
         d="m 9.3954097,-0.66937131 c 0,-0.41015629 -0.3398437,-0.67968749 -0.6679687,-0.67968749 -0.4101563,0 -0.6796875,0.328125 -0.6796875,0.66796874 0,0.3984375 0.328125,0.6796875 0.6679687,0.6796875 0.3984375,0 0.6796875,-0.33984375 0.6796875,-0.66796875 z m 0,0"
         style="fill:#000000;fill-opacity:1;fill-rule:nonzero;stroke:none" />
      <path
         id="path46"
         d="m 16.763574,-2.3451526 h -0.316406 c -0.03516,0.234375 -0.152344,1.0078125 -0.292969,1.2304688 -0.09375,0.12890624 -0.890625,0.12890624 -1.300781,0.12890624 h -2.589844 c 0.386719,-0.32812504 1.230469,-1.21875004 1.59375,-1.55859374 2.121094,-1.9453125 2.90625,-2.671875 2.90625,-4.0546875 0,-1.6054688 -1.277344,-2.671875 -2.894531,-2.671875 -1.617188,0 -2.566407,1.3710937 -2.566407,2.578125 0,0.703125 0.621094,0.703125 0.65625,0.703125 0.292969,0 0.65625,-0.1992188 0.65625,-0.6445313 0,-0.3984375 -0.257812,-0.65625 -0.65625,-0.65625 -0.117187,0 -0.152343,0 -0.1875,0.011719 0.257813,-0.9492188 1.007813,-1.59375 1.921875,-1.59375 1.183594,0 1.910157,0.9960937 1.910157,2.2734375 0,1.1835937 -0.679688,2.2148437 -1.476563,3.1054687 l -2.824219,3.15234379 v 0.33984375 h 5.097657 z m 2.460937,-5.6484375 c 0.597657,0.1992188 1.089844,0.2109375 1.242188,0.2109375 1.582031,0 2.578125,-1.1601562 2.578125,-1.3476562 0,-0.058594 -0.02344,-0.1289063 -0.105469,-0.1289063 -0.03516,0 -0.05859,0 -0.1875,0.058594 -0.773437,0.328125 -1.441406,0.375 -1.804687,0.375 -0.925782,0 -1.582032,-0.28125 -1.839844,-0.3984375 -0.105469,-0.035156 -0.128906,-0.035156 -0.140625,-0.035156 -0.117188,0 -0.117188,0.082031 -0.117188,0.3046875 v 4.1367188 c 0,0.2578125 0,0.3398437 0.164063,0.3398437 0.07031,0 0.09375,-0.011719 0.234375,-0.1757812 0.386719,-0.5742188 1.042969,-0.9140625 1.734375,-0.9140625 0.738281,0 1.101562,0.6796875 1.21875,0.9257812 0.234375,0.5390625 0.246094,1.21875 0.246094,1.7578125 0,0.5273438 0,1.3242188 -0.386719,1.94531254 -0.304688,0.50390625 -0.855469,0.85546875 -1.464844,0.85546875 -0.925781,0 -1.828125,-0.6328125 -2.074219,-1.65234379 0.07031,0.035156 0.152344,0.046875 0.222657,0.046875 0.234375,0 0.609375,-0.140625 0.609375,-0.609375 0,-0.3984375 -0.269532,-0.6210937 -0.609375,-0.6210937 -0.257813,0 -0.621094,0.1289062 -0.621094,0.6679687 0,1.1953125 0.949219,2.54296879 2.496094,2.54296879 1.582031,0 2.964843,-1.32421879 2.964843,-3.09374999 0,-1.6640625 -1.125,-3.046875 -2.589843,-3.046875 -0.785157,0 -1.40625,0.3515625 -1.769532,0.7382812 z m 0,0"
         style="fill:#000000;fill-opacity:1;fill-rule:nonzero;stroke:none" />
    </g>
    <path
       id="path47"
       d="m 50.418817,214.01774 h -3.5"
       style="fill:#000000;fill-opacity:1;fill-rule:nonzero;stroke:#000000;stroke-width:0.8;stroke-linecap:butt;stroke-linejoin:round;stroke-miterlimit:10;stroke-dasharray:none;stroke-opacity:1"
       transform="matrix(1.3333333,0,0,-1.3333333,0,384)" />
    <g
       id="g47"
       aria-label="0.50"
       transform="matrix(1.3333333,0,0,1.3333333,25.519662,105.26811)">
      <path
         id="path48"
         d="m 6.2459957,-4.46378 c 0,-1.1601563 -0.070312,-2.2851563 -0.5742188,-3.3398438 -0.5625,-1.1601562 -1.5703125,-1.4648437 -2.25,-1.4648437 -0.8085937,0 -1.8046875,0.3984375 -2.3203125,1.5585937 -0.38671872,0.8789063 -0.52734372,1.7460938 -0.52734372,3.2460938 0,1.359375 0.09375,2.3671875 0.59765622,3.3632812 0.5390625,1.05468752 1.5,1.39453127 2.2265625,1.39453127 1.21875,0 1.9101563,-0.7265625 2.3203125,-1.53515627 C 6.2225582,-2.2840925 6.2459957,-3.6551863 6.2459957,-4.46378 Z M 3.3983394,0.01278247 c -0.4453125,0 -1.3476562,-0.24609375 -1.6171875,-1.76953127 C 1.6288082,-2.58878 1.6288082,-3.6551863 1.6288082,-4.6278425 c 0,-1.1484375 0,-2.1796875 0.2226562,-3 0.2460938,-0.9375 0.9492188,-1.3710938 1.546875,-1.3710938 0.5390625,0 1.3476563,0.328125 1.6054688,1.5234375 0.1875,0.796875 0.1875,1.8984375 0.1875,2.8476563 0,0.9375 0,1.9921875 -0.1523438,2.8476562 -0.2695312,1.53515627 -1.1484375,1.79296877 -1.640625,1.79296877 z m 0,0"
         style="fill:#000000;fill-opacity:1;fill-rule:nonzero;stroke:none" />
      <path
         id="path49"
         d="m 9.3954097,-0.66690503 c 0,-0.41015627 -0.3398437,-0.67968747 -0.6679687,-0.67968747 -0.4101563,0 -0.6796875,0.328125 -0.6796875,0.66796872 0,0.3984375 0.328125,0.6796875 0.6679687,0.6796875 0.3984375,0 0.6796875,-0.33984375 0.6796875,-0.66796875 z m 0,0"
         style="fill:#000000;fill-opacity:1;fill-rule:nonzero;stroke:none" />
      <path
         id="path50"
         d="m 12.404199,-7.9911238 c 0.597656,0.1992188 1.089844,0.2109375 1.242187,0.2109375 1.582032,0 2.578125,-1.1601562 2.578125,-1.3476562 0,-0.058594 -0.02344,-0.1289063 -0.105468,-0.1289063 -0.03516,0 -0.05859,0 -0.1875,0.058594 -0.773438,0.328125 -1.441407,0.375 -1.804688,0.375 -0.925781,0 -1.582031,-0.28125 -1.839844,-0.3984375 -0.105468,-0.035156 -0.128906,-0.035156 -0.140625,-0.035156 -0.117187,0 -0.117187,0.082031 -0.117187,0.3046875 v 4.1367188 c 0,0.2578125 0,0.3398437 0.164062,0.3398437 0.07031,0 0.09375,-0.011719 0.234375,-0.1757812 0.386719,-0.5742188 1.042969,-0.9140625 1.734375,-0.9140625 0.738282,0 1.101563,0.6796875 1.21875,0.9257812 0.234375,0.5390625 0.246094,1.21875 0.246094,1.7578125 0,0.5273438 0,1.3242188 -0.386719,1.94531252 -0.304687,0.50390625 -0.855468,0.85546875 -1.464843,0.85546875 -0.925782,0 -1.828125,-0.6328125 -2.074219,-1.65234377 0.07031,0.035156 0.152344,0.046875 0.222656,0.046875 0.234375,0 0.609375,-0.140625 0.609375,-0.609375 0,-0.3984375 -0.269531,-0.6210937 -0.609375,-0.6210937 -0.257812,0 -0.621094,0.1289062 -0.621094,0.6679687 0,1.1953125 0.949219,2.54296877 2.496094,2.54296877 1.582031,0 2.964844,-1.32421877 2.964844,-3.09374997 0,-1.6640625 -1.125,-3.046875 -2.589844,-3.046875 -0.785156,0 -1.40625,0.3515625 -1.769531,0.7382812 z M 23.689355,-4.46378 c 0,-1.1601563 -0.07031,-2.2851563 -0.574219,-3.3398438 -0.5625,-1.1601562 -1.570312,-1.4648437 -2.25,-1.4648437 -0.808593,0 -1.804687,0.3984375 -2.320312,1.5585937 -0.386719,0.8789063 -0.527344,1.7460938 -0.527344,3.2460938 0,1.359375 0.09375,2.3671875 0.597656,3.3632812 0.539063,1.05468752 1.5,1.39453127 2.226563,1.39453127 1.21875,0 1.910156,-0.7265625 2.320312,-1.53515627 0.503907,-1.0429687 0.527344,-2.4140625 0.527344,-3.2226562 z m -2.847656,4.47656247 c -0.445313,0 -1.347656,-0.24609375 -1.617188,-1.76953127 -0.152343,-0.8320312 -0.152343,-1.8984375 -0.152343,-2.8710937 0,-1.1484375 0,-2.1796875 0.222656,-3 0.246094,-0.9375 0.949219,-1.3710938 1.546875,-1.3710938 0.539062,0 1.347656,0.328125 1.605469,1.5234375 0.1875,0.796875 0.1875,1.8984375 0.1875,2.8476563 0,0.9375 0,1.9921875 -0.152344,2.8476562 -0.269531,1.53515627 -1.148438,1.79296877 -1.640625,1.79296877 z m 0,0"
         style="fill:#000000;fill-opacity:1;fill-rule:nonzero;stroke:none" />
    </g>
    <path
       id="path51"
       d="m 50.418817,244.0495 h -3.5"
       style="fill:#000000;fill-opacity:1;fill-rule:nonzero;stroke:#000000;stroke-width:0.8;stroke-linecap:butt;stroke-linejoin:round;stroke-miterlimit:10;stroke-dasharray:none;stroke-opacity:1"
       transform="matrix(1.3333333,0,0,-1.3333333,0,384)" />
    <g
       id="g51"
       aria-label="0.75"
       transform="matrix(1.3333333,0,0,1.3333333,25.519662,65.225762)">
      <path
         id="path52"
         d="m 6.2459957,-4.4642434 c 0,-1.1601563 -0.070312,-2.2851563 -0.5742188,-3.3398438 -0.5625,-1.1601562 -1.5703125,-1.4648437 -2.25,-1.4648437 -0.8085937,0 -1.8046875,0.3984375 -2.3203125,1.5585937 -0.38671872,0.8789063 -0.52734372,1.7460938 -0.52734372,3.2460938 0,1.359375 0.09375,2.3671875 0.59765622,3.3632812 0.5390625,1.05468753 1.5,1.39453128 2.2265625,1.39453128 1.21875,0 1.9101563,-0.7265625 2.3203125,-1.53515628 0.5039063,-1.0429687 0.5273438,-2.4140625 0.5273438,-3.2226562 z M 3.3983394,0.01231908 c -0.4453125,0 -1.3476562,-0.24609375 -1.6171875,-1.76953128 -0.1523437,-0.8320312 -0.1523437,-1.8984375 -0.1523437,-2.8710937 0,-1.1484375 0,-2.1796875 0.2226562,-3 0.2460938,-0.9375 0.9492188,-1.3710938 1.546875,-1.3710938 0.5390625,0 1.3476563,0.328125 1.6054688,1.5234375 0.1875,0.796875 0.1875,1.8984375 0.1875,2.8476563 0,0.9375 0,1.9921875 -0.1523438,2.8476562 -0.2695312,1.53515628 -1.1484375,1.79296878 -1.640625,1.79296878 z m 0,0"
         style="fill:#000000;fill-opacity:1;fill-rule:nonzero;stroke:none" />
      <path
         id="path53"
         d="m 9.3954097,-0.66736842 c 0,-0.41015628 -0.3398437,-0.67968748 -0.6679687,-0.67968748 -0.4101563,0 -0.6796875,0.328125 -0.6796875,0.66796873 0,0.3984375 0.328125,0.6796874969 0.6679687,0.6796874969 0.3984375,0 0.6796875,-0.3398437469 0.6796875,-0.6679687469 z m 0,0"
         style="fill:#000000;fill-opacity:1;fill-rule:nonzero;stroke:none" />
      <path
         id="path54"
         d="m 17.244043,-8.6595559 v -0.3164063 h -3.363282 c -1.6875,0 -1.710937,-0.1875 -1.769531,-0.4453125 h -0.304687 l -0.433594,2.7890625 h 0.304687 c 0.04687,-0.2578125 0.175782,-1.125 0.351563,-1.2773437 0.117187,-0.082031 1.160156,-0.082031 1.359375,-0.082031 h 2.953125 l -1.476563,2.1210938 c -0.375,0.5390625 -1.792968,2.8359375 -1.792968,5.44921873 0,0.15234375 0,0.71484375 0.574218,0.71484375 0.585938,0 0.585938,-0.5390625 0.585938,-0.7265625 V -1.1243997 c 0,-2.0859375 0.339844,-3.703125 0.996094,-4.6289062 z m 1.980468,0.6679687 c 0.597657,0.1992188 1.089844,0.2109375 1.242188,0.2109375 1.582031,0 2.578125,-1.1601562 2.578125,-1.3476562 0,-0.058594 -0.02344,-0.1289063 -0.105469,-0.1289063 -0.03516,0 -0.05859,0 -0.1875,0.058594 -0.773437,0.328125 -1.441406,0.375 -1.804687,0.375 -0.925782,0 -1.582032,-0.28125 -1.839844,-0.3984375 -0.105469,-0.035156 -0.128906,-0.035156 -0.140625,-0.035156 -0.117188,0 -0.117188,0.082031 -0.117188,0.3046875 v 4.1367188 c 0,0.2578125 0,0.3398437 0.164063,0.3398437 0.07031,0 0.09375,-0.011719 0.234375,-0.1757812 0.386719,-0.5742188 1.042969,-0.9140625 1.734375,-0.9140625 0.738281,0 1.101562,0.6796875 1.21875,0.9257812 0.234375,0.5390625 0.246094,1.21875 0.246094,1.7578125 0,0.5273438 0,1.3242188 -0.386719,1.94531253 -0.304688,0.50390625 -0.855469,0.85546875 -1.464844,0.85546875 -0.925781,0 -1.828125,-0.6328125 -2.074219,-1.65234378 0.07031,0.035156 0.152344,0.046875 0.222657,0.046875 0.234375,0 0.609375,-0.140625 0.609375,-0.609375 0,-0.3984375 -0.269532,-0.6210937 -0.609375,-0.6210937 -0.257813,0 -0.621094,0.1289062 -0.621094,0.6679687 0,1.1953125 0.949219,2.54296878 2.496094,2.54296878 1.582031,0 2.964843,-1.32421878 2.964843,-3.09374998 0,-1.6640625 -1.125,-3.046875 -2.589843,-3.046875 -0.785157,0 -1.40625,0.3515625 -1.769532,0.7382812 z m 0,0"
         style="fill:#000000;fill-opacity:1;fill-rule:nonzero;stroke:none" />
    </g>
    <path
       id="path55"
       d="m 163.89649,141.94151 -0.77015,8.14054 -0.34344,1.65684 -0.29226,0.43411 -0.79953,0.56094 -1.82175,1.21587 v 0"
       style="fill:none;stroke:#d62728;stroke-width:1.5;stroke-linecap:square;stroke-linejoin:round;stroke-miterlimit:10;stroke-dasharray:none;stroke-opacity:1"
       transform="matrix(1.3333333,0,0,-1.3333333,0,384)"
       clip-path="url(#clipPath56)" />
    <path
       id="path57"
       d="m 154.90816,189.99233 2.08724,-8.12185 1.38991,-6.20113 1.05686,-5.68716 0.75011,-5.25437 0.75568,-7.26256 0.16538,-3.6538 -0.12837,-1.78174 -0.26751,-0.80301 -0.29774,-0.28177 -0.37085,-0.0452 -0.55593,0.19644 -1.04103,0.65932 -2.99645,2.1919 v 0"
       style="fill:none;stroke:#1f77b4;stroke-width:1.5;stroke-linecap:square;stroke-linejoin:round;stroke-miterlimit:10;stroke-dasharray:none;stroke-opacity:1"
       transform="matrix(1.3333333,0,0,-1.3333333,0,384)"
       clip-path="url(#clipPath58)" />
    <path
       id="path59"
       d="m 60.530689,175.57708 0.478381,7.72332 0.613095,6.69412 0.729325,5.74682 0.828612,4.88184 0.912469,4.09728 0.982371,3.38958 1.03973,2.7541 1.08583,2.18532 1.121873,1.6779 1.148948,1.22643 1.168067,0.82575 1.180129,0.47102 1.185947,0.15832 1.186344,-0.10794 1.182197,-0.32751 1.174336,-0.50698 1.740311,-1.02347 1.70812,-1.25655 2.218277,-1.91223 2.66722,-2.59362 4.010509,-4.24321 10.257578,-11.0072 4.297922,-4.23465 4.1677,-3.80989 4.55476,-3.86011 5.19399,-4.10456 7.09904,-5.30519 14.55912,-10.5293 11.88826,-8.55792 v 0"
       style="fill:none;stroke:#2ca02c;stroke-width:1.5;stroke-linecap:square;stroke-linejoin:round;stroke-miterlimit:10;stroke-dasharray:none;stroke-opacity:1"
       transform="matrix(1.3333333,0,0,-1.3333333,0,384)"
       clip-path="url(#clipPath60)" />
    <path
       id="path61"
       d="m 159.40233,165.96692 0.45394,-9.09632 0.0721,-3.07819 -0.0658,0.16193"
       style="fill:none;stroke:#ff7f0e;stroke-width:1.5;stroke-linecap:square;stroke-linejoin:round;stroke-miterlimit:10;stroke-dasharray:none;stroke-opacity:1"
       transform="matrix(1.3333333,0,0,-1.3333333,0,384)"
       clip-path="url(#clipPath62)" />
    <path
       id="path63"
       d="M 50.418817,35.028426 V 272.88"
       style="fill:none;stroke:#000000;stroke-width:0.8;stroke-linecap:square;stroke-linejoin:miter;stroke-miterlimit:10;stroke-dasharray:none;stroke-opacity:1"
       transform="matrix(1.3333333,0,0,-1.3333333,0,384)" />
    <path
       id="path64"
       d="M 272.88,35.028426 V 272.88"
       style="fill:none;stroke:#000000;stroke-width:0.8;stroke-linecap:square;stroke-linejoin:miter;stroke-miterlimit:10;stroke-dasharray:none;stroke-opacity:1"
       transform="matrix(1.3333333,0,0,-1.3333333,0,384)" />
    <path
       id="path65"
       d="M 50.418817,35.028426 H 272.88"
       style="fill:none;stroke:#000000;stroke-width:0.8;stroke-linecap:square;stroke-linejoin:miter;stroke-miterlimit:10;stroke-dasharray:none;stroke-opacity:1"
       transform="matrix(1.3333333,0,0,-1.3333333,0,384)" />
    <path
       id="path66"
       d="M 50.418817,272.88 H 272.88"
       style="fill:none;stroke:#000000;stroke-width:0.8;stroke-linecap:square;stroke-linejoin:miter;stroke-miterlimit:10;stroke-dasharray:none;stroke-opacity:1"
       transform="matrix(1.3333333,0,0,-1.3333333,0,384)" />
    <path
       id="path67"
       d="M 162.02957,182.04629 H 263.08 c 1.86667,0 2.8,0.93334 2.8,2.8 V 263.08 c 0,1.86667 -0.93333,2.8 -2.8,2.8 H 162.02957 c -1.86666,0 -2.8,-0.93333 -2.8,-2.8 v -78.23371 c 0,-1.86666 0.93334,-2.8 2.8,-2.8 z"
       style="fill:#ffffff;fill-opacity:0.8;fill-rule:nonzero;stroke:#cccccc;stroke-width:1;stroke-linecap:butt;stroke-linejoin:miter;stroke-miterlimit:10;stroke-dasharray:none;stroke-opacity:0.8"
       transform="matrix(1.3333333,0,0,-1.3333333,0,384)" />
    <path
       id="path68"
       d="m 164.82957,255.24235 h 14 14"
       style="fill:none;stroke:#d62728;stroke-width:1.5;stroke-linecap:square;stroke-linejoin:round;stroke-miterlimit:10;stroke-dasharray:none;stroke-opacity:1"
       transform="matrix(1.3333333,0,0,-1.3333333,0,384)" />
    <path
       id="path69"
       d="M 5.46066,5.547556e-4 8.9997225,-10.17132 H 7.61691 L 4.7926913,-1.558039 1.8161288,-10.17132 H 0.42159752 L 4.0661288,5.547556e-4 Z M 15.321988,-3.2572577 c 0,-1.125 -0.08203,-1.7929688 -0.292969,-2.3320313 -0.46875,-1.2070312 -1.582031,-1.921875 -2.953125,-1.921875 -2.039062,0 -3.3398434,1.5585938 -3.3398434,3.9609375 0,2.390625 1.2656254,3.86718751 3.3164064,3.86718751 1.675781,0 2.824219,-0.94921875 3.117187,-2.53125001 h -1.171875 c -0.316406,0.9609375 -0.972656,1.46484376 -1.910156,1.46484376 -0.738281,0 -1.359375,-0.33984376 -1.757812,-0.94921876 -0.269532,-0.421875 -0.3750004,-0.84375 -0.3867191,-1.5585937 z M 9.9782381,-4.2064765 c 0.09375,-1.359375 0.9140629,-2.2382812 2.0859379,-2.2382812 1.148437,0 2.027343,0.9492187 2.027343,2.1445312 0,0.035156 0,0.058594 -0.02344,0.09375 z M 16.886441,-10.17132 V 5.547556e-4 h 1.160157 V -4.0306952 c 0,-1.4882813 0.785156,-2.4726563 1.980468,-2.4726563 0.375,0 0.75,0.1289063 1.03125,0.3398438 0.339844,0.234375 0.480469,0.5859375 0.480469,1.1015625 V 5.547556e-4 h 1.148438 V -5.5189765 c 0,-1.2304687 -0.878907,-1.9921875 -2.296875,-1.9921875 -1.03125,0 -1.664063,0.3164063 -2.34375,1.2070313 V -10.17132 Z m 8.865235,2.8593748 H 24.591519 V 5.547556e-4 h 1.160157 z m 0,-2.8593748 h -1.171875 v 1.4648435 h 1.171875 z m 7.549804,5.3203123 c -0.04687,-0.7148438 -0.199218,-1.171875 -0.480468,-1.5820313 -0.503907,-0.6796875 -1.382813,-1.078125 -2.402344,-1.078125 -1.96875,0 -3.246094,1.5585938 -3.246094,3.984375 0,2.3554688 1.253906,3.84375001 3.234375,3.84375001 1.746094,0 2.847656,-1.04296875 2.988281,-2.82421871 h -1.171875 c -0.199218,1.171875 -0.796875,1.75781246 -1.792968,1.75781246 -1.277344,0 -2.050782,-1.05468746 -2.050782,-2.77734376 0,-1.828125 0.761719,-2.9179687 2.027344,-2.9179687 0.972656,0 1.59375,0.5742187 1.734375,1.59375 z M 35.83273,-10.17132 H 34.660855 V 5.547556e-4 h 1.171875 z m 8.109375,6.9140623 c 0,-1.125 -0.08203,-1.7929688 -0.292968,-2.3320313 -0.46875,-1.2070312 -1.582032,-1.921875 -2.953125,-1.921875 -2.039063,0 -3.339844,1.5585938 -3.339844,3.9609375 0,2.390625 1.265625,3.86718751 3.316406,3.86718751 1.675781,0 2.824219,-0.94921875 3.117188,-2.53125001 h -1.171875 c -0.316407,0.9609375 -0.972657,1.46484376 -1.910157,1.46484376 -0.738281,0 -1.359375,-0.33984376 -1.757812,-0.94921876 -0.269531,-0.421875 -0.375,-0.84375 -0.386719,-1.5585937 z m -5.34375,-0.9492188 c 0.09375,-1.359375 0.914063,-2.2382812 2.085938,-2.2382812 1.148437,0 2.027344,0.9492187 2.027344,2.1445312 0,0.035156 0,0.058594 -0.02344,0.09375 z M 52.022183,-7.042414 V 5.547556e-4 h 1.230469 V -9.8900702 h -0.808594 c -0.433593,1.5234375 -0.714843,1.734375 -2.613281,1.96875 v 0.8789062 z m 0,0"
       style="fill:#000000;fill-opacity:1;fill-rule:nonzero;stroke:none"
       aria-label="Vehicle1"
       transform="matrix(1.3333333,0,0,1.3333333,272.03943,50.210198)" />
    <path
       id="path70"
       d="m 164.82957,235.33392 h 14 14"
       style="fill:none;stroke:#1f77b4;stroke-width:1.5;stroke-linecap:square;stroke-linejoin:round;stroke-miterlimit:10;stroke-dasharray:none;stroke-opacity:1"
       transform="matrix(1.3333333,0,0,-1.3333333,0,384)" />
    <path
       id="path71"
       d="M 5.46066,-6.449691e-4 8.9997225,-10.17252 H 7.61691 L 4.7926913,-1.5592387 1.8161288,-10.17252 H 0.42159752 L 4.0661288,-6.449691e-4 Z M 15.321988,-3.2584575 c 0,-1.125 -0.08203,-1.7929687 -0.292969,-2.3320312 -0.46875,-1.2070313 -1.582031,-1.921875 -2.953125,-1.921875 -2.039062,0 -3.3398434,1.5585937 -3.3398434,3.9609375 0,2.390625 1.2656254,3.86718748 3.3164064,3.86718748 1.675781,0 2.824219,-0.94921875 3.117187,-2.53124998 h -1.171875 c -0.316406,0.9609375 -0.972656,1.46484373 -1.910156,1.46484373 -0.738281,0 -1.359375,-0.33984373 -1.757812,-0.94921873 -0.269532,-0.421875 -0.3750004,-0.84375 -0.3867191,-1.5585938 z M 9.9782381,-4.2076762 c 0.09375,-1.359375 0.9140629,-2.2382813 2.0859379,-2.2382813 1.148437,0 2.027343,0.9492188 2.027343,2.1445313 0,0.035156 0,0.058594 -0.02344,0.09375 z M 16.886441,-10.17252 V -6.449691e-4 h 1.160157 V -4.031895 c 0,-1.4882812 0.785156,-2.4726562 1.980468,-2.4726562 0.375,0 0.75,0.1289062 1.03125,0.3398437 0.339844,0.234375 0.480469,0.5859375 0.480469,1.1015625 v 5.0625000309 h 1.148438 V -5.5201762 c 0,-1.2304688 -0.878907,-1.9921875 -2.296875,-1.9921875 -1.03125,0 -1.664063,0.3164062 -2.34375,1.2070312 V -10.17252 Z m 8.865235,2.859375 h -1.160157 v 7.3125000309 h 1.160157 z m 0,-2.859375 h -1.171875 v 1.4648438 h 1.171875 z m 7.549804,5.3203125 c -0.04687,-0.7148437 -0.199218,-1.171875 -0.480468,-1.5820312 -0.503907,-0.6796875 -1.382813,-1.078125 -2.402344,-1.078125 -1.96875,0 -3.246094,1.5585937 -3.246094,3.984375 0,2.3554687 1.253906,3.84374998 3.234375,3.84374998 1.746094,0 2.847656,-1.04296875 2.988281,-2.82421878 h -1.171875 c -0.199218,1.171875 -0.796875,1.75781253 -1.792968,1.75781253 -1.277344,0 -2.050782,-1.05468753 -2.050782,-2.77734373 0,-1.828125 0.761719,-2.9179688 2.027344,-2.9179688 0.972656,0 1.59375,0.5742188 1.734375,1.59375 z M 35.83273,-10.17252 H 34.660855 V -6.449691e-4 h 1.171875 z m 8.109375,6.9140625 c 0,-1.125 -0.08203,-1.7929687 -0.292968,-2.3320312 -0.46875,-1.2070313 -1.582032,-1.921875 -2.953125,-1.921875 -2.039063,0 -3.339844,1.5585937 -3.339844,3.9609375 0,2.390625 1.265625,3.86718748 3.316406,3.86718748 1.675781,0 2.824219,-0.94921875 3.117188,-2.53124998 h -1.171875 c -0.316407,0.9609375 -0.972657,1.46484373 -1.910157,1.46484373 -0.738281,0 -1.359375,-0.33984373 -1.757812,-0.94921873 -0.269531,-0.421875 -0.375,-0.84375 -0.386719,-1.5585938 z m -5.34375,-0.9492187 c 0.09375,-1.359375 0.914063,-2.2382813 2.085938,-2.2382813 1.148437,0 2.027344,0.9492188 2.027344,2.1445313 0,0.035156 0,0.058594 -0.02344,0.09375 z m 16.869141,2.9882812 h -5.203125 c 0.128906,-0.8085937 0.574219,-1.3242187 1.792969,-2.0273437 l 1.394531,-0.7617188 c 1.371094,-0.75 2.085937,-1.7695312 2.085937,-2.9765625 0,-0.8203125 -0.328125,-1.59375 -0.914062,-2.1210937 -0.585938,-0.5273438 -1.3125,-0.7851563 -2.25,-0.7851563 -1.253906,0 -2.191406,0.4453125 -2.730469,1.2890625 -0.351562,0.5273438 -0.503906,1.1367188 -0.527344,2.1445313 h 1.21875 c 0.04687,-0.6679688 0.128907,-1.078125 0.292969,-1.3945313 0.328125,-0.5976562 0.960938,-0.9609375 1.699219,-0.9609375 1.125,0 1.957031,0.796875 1.957031,1.8515625 0,0.7851563 -0.457031,1.453125 -1.335937,1.9570313 l -1.289063,0.7265625 c -2.0625,1.171875 -2.660156,2.0976562 -2.777344,4.2773437309 h 6.585938 z m 0,0"
       style="fill:#000000;fill-opacity:1;fill-rule:nonzero;stroke:none"
       aria-label="Vehicle2"
       transform="matrix(1.3333333,0,0,1.3333333,272.03943,76.754766)" />
    <path
       id="path72"
       d="m 164.82957,215.4255 h 14 14"
       style="fill:none;stroke:#2ca02c;stroke-width:1.5;stroke-linecap:square;stroke-linejoin:round;stroke-miterlimit:10;stroke-dasharray:none;stroke-opacity:1"
       transform="matrix(1.3333333,0,0,-1.3333333,0,384)" />
    <path
       id="path73"
       d="M 5.46066,0.00108499 8.9997225,-10.17079 H 7.61691 L 4.7926913,-1.5575088 1.8161288,-10.17079 H 0.42159752 L 4.0661288,0.00108499 Z m 9.861328,-3.25781249 c 0,-1.125 -0.08203,-1.7929688 -0.292969,-2.3320313 -0.46875,-1.2070312 -1.582031,-1.921875 -2.953125,-1.921875 -2.039062,0 -3.3398434,1.5585938 -3.3398434,3.9609375 0,2.390625 1.2656254,3.86718754 3.3164064,3.86718754 1.675781,0 2.824219,-0.94921875 3.117187,-2.53125004 h -1.171875 c -0.316406,0.9609375 -0.972656,1.46484379 -1.910156,1.46484379 -0.738281,0 -1.359375,-0.33984379 -1.757812,-0.94921879 -0.269532,-0.421875 -0.3750004,-0.84375 -0.3867191,-1.5585937 z M 9.9782381,-4.2059463 c 0.09375,-1.359375 0.9140629,-2.2382812 2.0859379,-2.2382812 1.148437,0 2.027343,0.9492187 2.027343,2.1445312 0,0.035156 0,0.058594 -0.02344,0.09375 z M 16.886441,-10.17079 V 0.00108499 h 1.160157 V -4.030165 c 0,-1.4882813 0.785156,-2.4726563 1.980468,-2.4726563 0.375,0 0.75,0.1289063 1.03125,0.3398438 0.339844,0.234375 0.480469,0.5859375 0.480469,1.1015625 v 5.06249999 h 1.148438 V -5.5184463 c 0,-1.2304687 -0.878907,-1.9921875 -2.296875,-1.9921875 -1.03125,0 -1.664063,0.3164063 -2.34375,1.2070313 V -10.17079 Z m 8.865235,2.859375 h -1.160157 v 7.31249999 h 1.160157 z m 0,-2.859375 h -1.171875 v 1.4648437 h 1.171875 z m 7.549804,5.3203125 c -0.04687,-0.7148438 -0.199218,-1.171875 -0.480468,-1.5820313 -0.503907,-0.6796875 -1.382813,-1.078125 -2.402344,-1.078125 -1.96875,0 -3.246094,1.5585938 -3.246094,3.984375 0,2.3554688 1.253906,3.84375004 3.234375,3.84375004 1.746094,0 2.847656,-1.04296875 2.988281,-2.82421874 h -1.171875 c -0.199218,1.171875 -0.796875,1.75781249 -1.792968,1.75781249 -1.277344,0 -2.050782,-1.05468749 -2.050782,-2.77734379 0,-1.828125 0.761719,-2.9179687 2.027344,-2.9179687 0.972656,0 1.59375,0.5742187 1.734375,1.59375 z M 35.83273,-10.17079 H 34.660855 V 0.00108499 h 1.171875 z m 8.109375,6.9140625 c 0,-1.125 -0.08203,-1.7929688 -0.292968,-2.3320313 -0.46875,-1.2070312 -1.582032,-1.921875 -2.953125,-1.921875 -2.039063,0 -3.339844,1.5585938 -3.339844,3.9609375 0,2.390625 1.265625,3.86718754 3.316406,3.86718754 1.675781,0 2.824219,-0.94921875 3.117188,-2.53125004 h -1.171875 c -0.316407,0.9609375 -0.972657,1.46484379 -1.910157,1.46484379 -0.738281,0 -1.359375,-0.33984379 -1.757812,-0.94921879 -0.269531,-0.421875 -0.375,-0.84375 -0.386719,-1.5585937 z m -5.34375,-0.9492188 c 0.09375,-1.359375 0.914063,-2.2382812 2.085938,-2.2382812 1.148437,0 2.027344,0.9492187 2.027344,2.1445312 0,0.035156 0,0.058594 -0.02344,0.09375 z m 12.896485,-0.328125 h 0.152343 l 0.515625,-0.011719 c 1.359375,0 2.050782,0.609375 2.050782,1.8046875 0,1.2304687 -0.761719,1.98046874 -2.050782,1.98046874 -1.335937,0 -1.992187,-0.67968754 -2.074218,-2.10937504 h -1.230469 c 0.05859,0.796875 0.199219,1.3125 0.433594,1.7578125 0.503906,0.94921879 1.476562,1.42968754 2.835937,1.42968754 2.027344,0 3.339844,-1.20703125 3.339844,-3.08203124 0,-1.2539063 -0.492188,-1.9453125 -1.675781,-2.3554688 0.925781,-0.3632812 1.382812,-1.0546875 1.382812,-2.0507812 0,-1.6992188 -1.125,-2.71875 -3.011719,-2.71875 -1.992187,0 -3.046875,1.0898437 -3.09375,3.1992187 h 1.230469 c 0.01172,-0.5976562 0.07031,-0.9375 0.222656,-1.2421875 0.269532,-0.5507812 0.890625,-0.8789062 1.652344,-0.8789062 1.089844,0 1.746094,0.6445312 1.746094,1.6875 0,0.6914062 -0.246094,1.1132812 -0.796875,1.3359375 -0.328125,0.140625 -0.761719,0.1992187 -1.628906,0.2109375 z m 0,0"
       style="fill:#000000;fill-opacity:1;fill-rule:nonzero;stroke:none"
       aria-label="Vehicle3"
       transform="matrix(1.3333333,0,0,1.3333333,272.03943,103.29933)" />
    <path
       id="path74"
       d="m 164.82957,195.51707 h 14 14"
       style="fill:none;stroke:#ff7f0e;stroke-width:1.5;stroke-linecap:square;stroke-linejoin:round;stroke-miterlimit:10;stroke-dasharray:none;stroke-opacity:1"
       transform="matrix(1.3333333,0,0,-1.3333333,0,384)" />
    <path
       id="path75"
       d="M 5.46066,-1.147309e-4 8.9997225,-10.17199 H 7.61691 L 4.7926913,-1.5587085 1.8161288,-10.17199 H 0.42159752 L 4.0661288,-1.147309e-4 Z M 15.321988,-3.2579272 c 0,-1.125 -0.08203,-1.7929688 -0.292969,-2.3320313 -0.46875,-1.2070312 -1.582031,-1.921875 -2.953125,-1.921875 -2.039062,0 -3.3398434,1.5585938 -3.3398434,3.9609375 0,2.390625 1.2656254,3.86718752 3.3164064,3.86718752 1.675781,0 2.824219,-0.94921875 3.117187,-2.53125002 h -1.171875 c -0.316406,0.9609375 -0.972656,1.46484377 -1.910156,1.46484377 -0.738281,0 -1.359375,-0.33984377 -1.757812,-0.94921877 -0.269532,-0.421875 -0.3750004,-0.84375 -0.3867191,-1.5585937 z M 9.9782381,-4.207146 c 0.09375,-1.359375 0.9140629,-2.2382812 2.0859379,-2.2382812 1.148437,0 2.027343,0.9492187 2.027343,2.1445312 0,0.035156 0,0.058594 -0.02344,0.09375 z M 16.886441,-10.17199 V -1.147309e-4 h 1.160157 V -4.0313647 c 0,-1.4882813 0.785156,-2.4726563 1.980468,-2.4726563 0.375,0 0.75,0.1289063 1.03125,0.3398438 0.339844,0.234375 0.480469,0.5859375 0.480469,1.1015625 v 5.0624999691 h 1.148438 V -5.519646 c 0,-1.2304687 -0.878907,-1.9921875 -2.296875,-1.9921875 -1.03125,0 -1.664063,0.3164063 -2.34375,1.2070313 V -10.17199 Z m 8.865235,2.8593753 h -1.160157 v 7.3124999691 h 1.160157 z m 0,-2.8593753 h -1.171875 v 1.464844 h 1.171875 z m 7.549804,5.3203128 c -0.04687,-0.7148438 -0.199218,-1.171875 -0.480468,-1.5820313 -0.503907,-0.6796875 -1.382813,-1.078125 -2.402344,-1.078125 -1.96875,0 -3.246094,1.5585938 -3.246094,3.984375 0,2.3554688 1.253906,3.84375002 3.234375,3.84375002 1.746094,0 2.847656,-1.04296875 2.988281,-2.82421872 h -1.171875 c -0.199218,1.171875 -0.796875,1.75781247 -1.792968,1.75781247 -1.277344,0 -2.050782,-1.05468747 -2.050782,-2.77734377 0,-1.828125 0.761719,-2.9179687 2.027344,-2.9179687 0.972656,0 1.59375,0.5742187 1.734375,1.59375 z M 35.83273,-10.17199 H 34.660855 V -1.147309e-4 h 1.171875 z m 8.109375,6.9140628 c 0,-1.125 -0.08203,-1.7929688 -0.292968,-2.3320313 -0.46875,-1.2070312 -1.582032,-1.921875 -2.953125,-1.921875 -2.039063,0 -3.339844,1.5585938 -3.339844,3.9609375 0,2.390625 1.265625,3.86718752 3.316406,3.86718752 1.675781,0 2.824219,-0.94921875 3.117188,-2.53125002 h -1.171875 c -0.316407,0.9609375 -0.972657,1.46484377 -1.910157,1.46484377 -0.738281,0 -1.359375,-0.33984377 -1.757812,-0.94921877 -0.269531,-0.421875 -0.375,-0.84375 -0.386719,-1.5585937 z m -5.34375,-0.9492188 c 0.09375,-1.359375 0.914063,-2.2382812 2.085938,-2.2382812 1.148437,0 2.027344,0.9492187 2.027344,2.1445312 0,0.035156 0,0.058594 -0.02344,0.09375 z m 14.373047,1.8398438 v 2.3671874691 h 1.230469 V -2.3673022 h 1.464844 v -1.1015625 h -1.464844 v -6.421875 h -0.902344 l -4.5,6.2226562 v 1.3007813 z m 0,-1.1015625 h -3.09375 l 3.09375,-4.3242188 z m 0,0"
       style="fill:#000000;fill-opacity:1;fill-rule:nonzero;stroke:none"
       aria-label="Vehicle4"
       transform="matrix(1.3333333,0,0,1.3333333,272.03943,129.8439)" />
  </g>
</svg>
