<?xml version="1.0" encoding="UTF-8" standalone="no"?>
<!-- Created with Inkscape (http://www.inkscape.org/) -->

<svg
   version="1.1"
   id="svg1"
   width="614.40002"
   height="460.79999"
   viewBox="0 0 614.40002 460.79999"
   sodipodi:docname="acc.pdf"
   xmlns:inkscape="http://www.inkscape.org/namespaces/inkscape"
   xmlns:sodipodi="http://sodipodi.sourceforge.net/DTD/sodipodi-0.dtd"
   xmlns="http://www.w3.org/2000/svg"
   xmlns:svg="http://www.w3.org/2000/svg">
  <defs
     id="defs1">
    <clipPath
       clipPathUnits="userSpaceOnUse"
       id="clipPath4">
      <path
         d="M 57.6,38.016 H 414.72 V 304.128 H 57.6 Z"
         id="path4" />
    </clipPath>
    <clipPath
       clipPathUnits="userSpaceOnUse"
       id="clipPath6">
      <path
         d="M 57.6,38.016 H 414.72 V 304.128 H 57.6 Z"
         id="path6" />
    </clipPath>
    <clipPath
       clipPathUnits="userSpaceOnUse"
       id="clipPath20">
      <path
         d="M 57.6,38.016 H 414.72 V 304.128 H 57.6 Z"
         id="path20" />
    </clipPath>
    <clipPath
       clipPathUnits="userSpaceOnUse"
       id="clipPath22">
      <path
         d="M 57.6,38.016 H 414.72 V 304.128 H 57.6 Z"
         id="path22" />
    </clipPath>
    <clipPath
       clipPathUnits="userSpaceOnUse"
       id="clipPath24">
      <path
         d="M 57.6,38.016 H 414.72 V 304.128 H 57.6 Z"
         id="path24" />
    </clipPath>
    <clipPath
       clipPathUnits="userSpaceOnUse"
       id="clipPath26">
      <path
         d="M 57.6,38.016 H 414.72 V 304.128 H 57.6 Z"
         id="path26" />
    </clipPath>
  </defs>
  <sodipodi:namedview
     id="namedview1"
     pagecolor="#ffffff"
     bordercolor="#000000"
     borderopacity="0.25"
     inkscape:showpageshadow="2"
     inkscape:pageopacity="0.0"
     inkscape:pagecheckerboard="0"
     inkscape:deskcolor="#d1d1d1">
    <inkscape:page
       x="0"
       y="0"
       inkscape:label="1"
       id="page1"
       width="614.40002"
       height="460.79999"
       margin="0"
       bleed="0" />
  </sodipodi:namedview>
  <g
     id="g1"
     inkscape:groupmode="layer"
     inkscape:label="1">
    <path
       id="path1"
       d="M 0,0 H 460.8 V 345.6 H 0 Z"
       style="fill:#ffffff;fill-opacity:1;fill-rule:nonzero;stroke:none"
       transform="matrix(1.3333333,0,0,-1.3333333,0,460.8)" />
    <path
       id="path2"
       d="M 57.6,38.016 H 414.72 V 304.128 H 57.6 Z"
       style="fill:#ffffff;fill-opacity:1;fill-rule:nonzero;stroke:none"
       transform="matrix(1.3333333,0,0,-1.3333333,0,460.8)" />
    <path
       id="path3"
       d="m 73.832727,280.38294 v -90.9367 l 3.246546,0.38939 3.246545,0.38759 3.246546,0.38404 3.246545,0.37894 3.246546,0.37256 3.246546,0.36494 3.246546,0.35618 3.246546,0.3464 3.246547,0.33576 3.24655,0.3243 3.24654,0.31207 3.24655,0.29916 3.24654,0.28568 3.24655,0.2716 3.24655,0.25707 3.24654,0.24206 3.24655,0.22667 3.24655,0.21085 3.24654,0.19473 3.24654,0.1783 3.24655,0.16159 3.24654,0.14457 3.24654,0.12743 3.24654,0.10998 3.24655,0.0924 3.24654,0.0746 3.24654,0.0566 3.24654,0.0385 3.24654,0.0203 3.24655,0.002 3.24654,-0.0166 3.24654,-0.0351 3.24654,-0.0539 3.24655,-0.0726 3.24654,-0.0915 3.24654,-0.11044 3.24654,-0.12944 3.24655,-0.14857 3.24654,-0.1677 3.24654,-0.187 3.24655,-0.20622 3.24654,-0.22561 3.24655,-0.24504 3.24654,-0.2645 3.24654,-0.28403 3.24654,-0.30361 3.24655,-0.32328 3.24654,-0.34293 3.24654,-0.36265 3.24654,-0.38251 3.24654,-0.40231 3.24655,-0.42215 3.24654,-0.44211 3.24654,-0.4621 3.24654,-0.48215 3.24655,-0.50221 3.24654,-0.52232 3.24654,-0.54252 3.24654,-0.5627 3.24655,-0.58295 3.24654,-0.60333 3.24654,-0.62369 3.24654,-0.64413 3.24655,-0.66456 3.24654,-0.68503 3.24654,-0.70566 3.24654,-0.72623 3.24655,-0.74695 3.24654,-0.76763 3.24654,-0.78858 3.24654,-0.80998 3.24654,-0.83169 3.24655,-0.85383 3.24654,-0.87623 3.24654,-0.89892 3.24654,-0.92185 3.24655,-0.94511 3.24654,-0.9685 3.24654,-0.99212 3.24654,-1.01585 3.24655,-1.03976 3.24655,-1.06388 3.24656,-1.08813 3.24656,-1.11245 3.24656,-1.13689 3.24655,-1.16141 3.24656,-1.18605 3.24656,-1.21077 3.24656,-1.23554 3.24656,-1.26046 3.24655,-1.28536 3.24656,-1.31028 3.24656,-1.33538 3.24656,-1.36049 3.24655,-1.38554 3.24656,-1.41078 3.24656,-1.43601 3.24656,-1.46126 3.24656,-1.48663 3.24649,-1.51187 v 123.75648 0 l -3.24649,0.70688 -3.24656,0.69841 -3.24656,0.68983 -3.24656,0.68097 -3.24656,0.67199 -3.24655,0.66267 -3.24656,0.65329 -3.24656,0.64357 -3.24656,0.63373 -3.24655,0.62375 -3.24656,0.61358 -3.24656,0.6032 -3.24656,0.59263 -3.24656,0.582 -3.24655,0.57109 -3.24656,0.56005 -3.24656,0.54889 -3.24656,0.53752 -3.24655,0.52603 -3.24655,0.5144 -3.24654,0.50263 -3.24654,0.49074 -3.24654,0.47875 -3.24655,0.4666 -3.24654,0.45433 -3.24654,0.44198 -3.24654,0.42946 -3.24655,0.41687 -3.24654,0.40421 -3.24654,0.39147 -3.24654,0.37854 -3.24654,0.36563 -3.24655,0.35265 -3.24654,0.33949 -3.24654,0.32638 -3.24654,0.31316 -3.24655,0.29985 -3.24654,0.28654 -3.24654,0.27319 -3.24654,0.25971 -3.24655,0.2463 -3.24654,0.23285 -3.24654,0.21933 -3.24654,0.20576 -3.24655,0.19208 -3.24654,0.17834 -3.24654,0.16453 -3.24654,0.15065 -3.24655,0.13674 -3.24654,0.12274 -3.24654,0.10869 -3.24654,0.0946 -3.24654,0.0804 -3.24655,0.0663 -3.24654,0.052 -3.24654,0.0378 -3.24654,0.0235 -3.24655,0.009 -3.24654,-0.005 -3.24655,-0.0195 -3.24654,-0.0339 -3.24654,-0.0483 -3.24655,-0.0627 -3.24654,-0.0771 -3.24654,-0.0915 -3.24654,-0.10585 -3.24655,-0.12016 -3.24654,-0.13449 -3.24654,-0.1488 -3.24654,-0.16301 -3.24655,-0.17728 -3.24654,-0.19136 -3.24654,-0.20543 -3.24654,-0.21937 -3.24654,-0.23321 -3.24655,-0.24696 -3.24654,-0.2606 -3.24654,-0.27411 -3.24654,-0.28746 -3.24655,-0.30061 -3.24654,-0.31356 -3.24654,-0.32628 -3.24655,-0.33884 -3.24655,-0.35106 -3.24654,-0.36302 -3.24655,-0.37464 -3.24655,-0.38588 -3.24654,-0.39672 -3.24655,-0.40716 -3.24654,-0.41707 -3.24655,-0.42645 -3.246547,-0.43524 -3.246546,-0.44343 -3.246546,-0.4509 -3.246546,-0.45757 -3.246546,-0.46339 -3.246545,-0.4682 -3.246546,-0.47205 -3.246545,-0.47472 -3.246546,-0.4761 z"
       style="fill:#1f77b4;fill-opacity:0.5;fill-rule:nonzero;stroke:#1f77b4;stroke-width:1;stroke-linecap:butt;stroke-linejoin:round;stroke-miterlimit:10;stroke-dasharray:none;stroke-opacity:0.5"
       transform="matrix(1.3333333,0,0,-1.3333333,0,460.8)"
       clip-path="url(#clipPath4)" />
    <path
       id="path5"
       d="M 73.832727,73.740124 V 72.52764 l 3.246546,-0.01018 3.246545,-0.02917 3.246546,-0.0462 3.246545,-0.06157 3.246546,-0.07534 3.246546,-0.08773 3.246546,-0.09887 3.246546,-0.108843 3.246547,-0.117796 3.24655,-0.125874 3.24654,-0.133092 3.24655,-0.139585 3.24654,-0.145398 3.24655,-0.150636 3.24655,-0.155343 3.24654,-0.159572 3.24655,-0.163372 3.24655,-0.166807 3.24654,-0.16993 3.24654,-0.172721 3.24655,-0.175265 3.24654,-0.177644 3.24654,-0.179791 3.24654,-0.181823 3.24655,-0.18369 3.24654,-0.185457 3.24654,-0.187109 3.24654,-0.188695 3.24654,-0.190198 3.24655,-0.191652 3.24654,-0.193039 3.24654,-0.19441 3.24654,-0.195765 3.24655,-0.19707 3.24654,-0.198375 3.24654,-0.19968 3.24654,-0.201001 3.24655,-0.202323 3.24654,-0.203661 3.24654,-0.205016 3.24655,-0.206403 3.24654,-0.207807 3.24655,-0.209277 3.24654,-0.210748 3.24654,-0.212267 3.24654,-0.213853 3.24655,-0.215472 3.24654,-0.217141 3.24654,-0.218842 3.24654,-0.220609 3.24654,-0.222426 3.24655,-0.22431 3.24654,-0.226225 3.24654,-0.228225 3.24654,-0.230273 3.24655,-0.232371 3.24654,-0.234551 3.24654,-0.236781 3.24654,-0.238945 3.24655,-0.239821 3.24654,-0.24063 3.24654,-0.241638 3.24654,-0.242827 3.24655,-0.244165 3.24654,-0.245685 3.24654,-0.247337 3.24654,-0.24917 3.24655,-0.251104 3.24654,-0.253184 3.24654,-0.255398 3.24654,-0.257711 3.24654,-0.260205 3.24655,-0.262798 3.24654,-0.265524 3.24654,-0.268432 3.24654,-0.271454 3.24655,-0.274626 3.24654,-0.277946 3.24654,-0.281399 3.24654,-0.284967 3.24655,-0.2887 3.24655,-0.292565 3.24656,-0.29653 3.24656,-0.300643 3.24656,-0.304889 3.24655,-0.309233 3.24656,-0.313693 3.24656,-0.318269 3.24656,-0.322976 3.24656,-0.327784 3.24655,-0.33269 3.24656,-0.337694 3.24656,-0.342816 3.24656,-0.348036 3.24655,-0.353421 3.24656,-0.358955 3.24656,-0.36467 3.24656,-0.370551 3.24656,-0.376564 3.24649,-0.382725 v 21.554165 0 l -3.24649,-0.09525 -3.24656,-0.09412 -3.24656,-0.09293 -3.24656,-0.09173 -3.24656,-0.09047 -3.24655,-0.08915 -3.24656,-0.08777 -3.24656,-0.08629 -3.24656,-0.08471 -3.24655,-0.08304 -3.24656,-0.08122 -3.24656,-0.07929 -3.24656,-0.07718 -3.24656,-0.07491 -3.24655,-0.07242 -3.24656,-0.06971 -3.24656,-0.06674 -3.24656,-0.0635 -3.24655,-0.05993 -3.24655,-0.05602 -3.24654,-0.05174 -3.24654,-0.04701 -3.24654,-0.04179 -3.24655,-0.03608 -3.24654,-0.02977 -3.24654,-0.0228 -3.24654,-0.01513 -3.24655,-0.0067 -3.24654,0.0027 -3.24654,0.01298 -3.24654,0.0244 -3.24654,0.03507 -3.24655,0.03743 -3.24654,0.03889 -3.24654,0.04036 -3.24654,0.04178 -3.24655,0.04316 -3.24654,0.04452 -3.24654,0.04584 -3.24654,0.04713 -3.24655,0.04838 -3.24654,0.04961 -3.24654,0.05089 -3.24654,0.05213 -3.24655,0.05337 -3.24654,0.05456 -3.24654,0.0557 -3.24654,0.05684 -3.24655,0.05795 -3.24654,0.05901 -3.24654,0.06005 -3.24654,0.06104 -3.24654,0.06199 -3.24655,0.06294 -3.24654,0.06384 -3.24654,0.06471 -3.24654,0.06551 -3.24655,0.06632 -3.24654,0.06707 -3.24655,0.06778 -3.24654,0.06842 -3.24654,0.06906 -3.24655,0.06964 -3.24654,0.07017 -3.24654,0.07065 -3.24654,0.0711 -3.24655,0.07146 -3.24654,0.07177 -3.24654,0.07204 -3.24654,0.07224 -3.24655,0.07237 -3.24654,0.07242 -3.24654,0.0724 -3.24654,0.07229 -3.24654,0.07209 -3.24655,0.07181 -3.24654,0.07143 -3.24654,0.07091 -3.24654,0.0703 -3.24655,0.06956 -3.24654,0.06867 -3.24654,0.06764 -3.24655,0.06644 -3.24655,0.06508 -3.24654,0.06351 -3.24655,0.06175 -3.24655,0.05977 -3.24654,0.05752 -3.24655,0.05501 -3.24654,0.05223 -3.24655,0.04913 -3.246547,0.04566 -3.246546,0.04184 -3.246546,0.0376 -3.246546,0.03292 -3.246546,0.02775 -3.246545,0.02215 -3.246546,0.01655 -3.246545,0.01039 -3.246546,0.0036 z"
       style="fill:#d62728;fill-opacity:0.5;fill-rule:nonzero;stroke:#d62728;stroke-width:1;stroke-linecap:butt;stroke-linejoin:round;stroke-miterlimit:10;stroke-dasharray:none;stroke-opacity:0.5"
       transform="matrix(1.3333333,0,0,-1.3333333,0,460.8)"
       clip-path="url(#clipPath6)" />
    <path
       id="path7"
       d="m 73.832727,38.016 v -3.5"
       style="fill:#000000;fill-opacity:1;fill-rule:nonzero;stroke:#000000;stroke-width:0.8;stroke-linecap:butt;stroke-linejoin:round;stroke-miterlimit:10;stroke-dasharray:none;stroke-opacity:1"
       transform="matrix(1.3333333,0,0,-1.3333333,0,460.8)" />
    <text
       id="text7"
       xml:space="preserve"
       transform="matrix(1.3333333,0,0,1.3333333,94.204053,429.57033)"><tspan
         id="tspan7"
         style="font-variant:normal;font-weight:normal;font-size:10px;font-family:'DejaVu Sans';writing-mode:lr-tb;fill:#000000;fill-opacity:1;fill-rule:nonzero;stroke:none"
         x="0"
         y="0">0</tspan></text>
    <path
       id="path8"
       d="m 138.76364,38.016 v -3.5"
       style="fill:#000000;fill-opacity:1;fill-rule:nonzero;stroke:#000000;stroke-width:0.8;stroke-linecap:butt;stroke-linejoin:round;stroke-miterlimit:10;stroke-dasharray:none;stroke-opacity:1"
       transform="matrix(1.3333333,0,0,-1.3333333,0,460.8)" />
    <text
       id="text8"
       xml:space="preserve"
       transform="matrix(1.3333333,0,0,1.3333333,180.7786,429.57033)"><tspan
         id="tspan8"
         style="font-variant:normal;font-weight:normal;font-size:10px;font-family:'DejaVu Sans';writing-mode:lr-tb;fill:#000000;fill-opacity:1;fill-rule:nonzero;stroke:none"
         x="0"
         y="0">1</tspan></text>
    <path
       id="path9"
       d="m 203.69454,38.016 v -3.5"
       style="fill:#000000;fill-opacity:1;fill-rule:nonzero;stroke:#000000;stroke-width:0.8;stroke-linecap:butt;stroke-linejoin:round;stroke-miterlimit:10;stroke-dasharray:none;stroke-opacity:1"
       transform="matrix(1.3333333,0,0,-1.3333333,0,460.8)" />
    <text
       id="text9"
       xml:space="preserve"
       transform="matrix(1.3333333,0,0,1.3333333,267.35314,429.57033)"><tspan
         id="tspan9"
         style="font-variant:normal;font-weight:normal;font-size:10px;font-family:'DejaVu Sans';writing-mode:lr-tb;fill:#000000;fill-opacity:1;fill-rule:nonzero;stroke:none"
         x="0"
         y="0">2</tspan></text>
    <path
       id="path10"
       d="m 268.62545,38.016 v -3.5"
       style="fill:#000000;fill-opacity:1;fill-rule:nonzero;stroke:#000000;stroke-width:0.8;stroke-linecap:butt;stroke-linejoin:round;stroke-miterlimit:10;stroke-dasharray:none;stroke-opacity:1"
       transform="matrix(1.3333333,0,0,-1.3333333,0,460.8)" />
    <text
       id="text10"
       xml:space="preserve"
       transform="matrix(1.3333333,0,0,1.3333333,353.92769,429.57033)"><tspan
         id="tspan10"
         style="font-variant:normal;font-weight:normal;font-size:10px;font-family:'DejaVu Sans';writing-mode:lr-tb;fill:#000000;fill-opacity:1;fill-rule:nonzero;stroke:none"
         x="0"
         y="0">3</tspan></text>
    <path
       id="path11"
       d="m 333.55636,38.016 v -3.5"
       style="fill:#000000;fill-opacity:1;fill-rule:nonzero;stroke:#000000;stroke-width:0.8;stroke-linecap:butt;stroke-linejoin:round;stroke-miterlimit:10;stroke-dasharray:none;stroke-opacity:1"
       transform="matrix(1.3333333,0,0,-1.3333333,0,460.8)" />
    <text
       id="text11"
       xml:space="preserve"
       transform="matrix(1.3333333,0,0,1.3333333,440.50223,429.57033)"><tspan
         id="tspan11"
         style="font-variant:normal;font-weight:normal;font-size:10px;font-family:'DejaVu Sans';writing-mode:lr-tb;fill:#000000;fill-opacity:1;fill-rule:nonzero;stroke:none"
         x="0"
         y="0">4</tspan></text>
    <path
       id="path12"
       d="m 398.48727,38.016 v -3.5"
       style="fill:#000000;fill-opacity:1;fill-rule:nonzero;stroke:#000000;stroke-width:0.8;stroke-linecap:butt;stroke-linejoin:round;stroke-miterlimit:10;stroke-dasharray:none;stroke-opacity:1"
       transform="matrix(1.3333333,0,0,-1.3333333,0,460.8)" />
    <text
       id="text12"
       xml:space="preserve"
       transform="matrix(1.3333333,0,0,1.3333333,527.07678,429.57033)"><tspan
         id="tspan12"
         style="font-variant:normal;font-weight:normal;font-size:10px;font-family:'DejaVu Sans';writing-mode:lr-tb;fill:#000000;fill-opacity:1;fill-rule:nonzero;stroke:none"
         x="0"
         y="0">5</tspan></text>
    <text
       id="text13"
       xml:space="preserve"
       transform="matrix(1.3333333,0,0,1.3333333,287.70292,447.7995)"><tspan
         id="tspan13"
         style="font-variant:normal;font-weight:normal;font-size:10px;font-family:'DejaVu Sans';writing-mode:lr-tb;fill:#000000;fill-opacity:1;fill-rule:nonzero;stroke:none"
         x="0"
         dx="0 -0.296875"
         y="0">Time (s)</tspan></text>
    <path
       id="path13"
       d="M 57.6,63.867003 H 54.1"
       style="fill:#000000;fill-opacity:1;fill-rule:nonzero;stroke:#000000;stroke-width:0.8;stroke-linecap:butt;stroke-linejoin:round;stroke-miterlimit:10;stroke-dasharray:none;stroke-opacity:1"
       transform="matrix(1.3333333,0,0,-1.3333333,0,460.8)" />
    <text
       id="text14"
       xml:space="preserve"
       transform="matrix(1.3333333,0,0,1.3333333,50.508333,380.7065)"><tspan
         id="tspan14"
         style="font-variant:normal;font-weight:normal;font-size:10px;font-family:'DejaVu Sans';writing-mode:lr-tb;fill:#000000;fill-opacity:1;fill-rule:nonzero;stroke:none"
         x="0"
         y="0">50</tspan></text>
    <path
       id="path14"
       d="M 57.6,107.17019 H 54.1"
       style="fill:#000000;fill-opacity:1;fill-rule:nonzero;stroke:#000000;stroke-width:0.8;stroke-linecap:butt;stroke-linejoin:round;stroke-miterlimit:10;stroke-dasharray:none;stroke-opacity:1"
       transform="matrix(1.3333333,0,0,-1.3333333,0,460.8)" />
    <text
       id="text15"
       xml:space="preserve"
       transform="matrix(1.3333333,0,0,1.3333333,50.508333,322.96891)"><tspan
         id="tspan15"
         style="font-variant:normal;font-weight:normal;font-size:10px;font-family:'DejaVu Sans';writing-mode:lr-tb;fill:#000000;fill-opacity:1;fill-rule:nonzero;stroke:none"
         x="0"
         y="0">60</tspan></text>
    <path
       id="path15"
       d="M 57.6,150.47338 H 54.1"
       style="fill:#000000;fill-opacity:1;fill-rule:nonzero;stroke:#000000;stroke-width:0.8;stroke-linecap:butt;stroke-linejoin:round;stroke-miterlimit:10;stroke-dasharray:none;stroke-opacity:1"
       transform="matrix(1.3333333,0,0,-1.3333333,0,460.8)" />
    <text
       id="text16"
       xml:space="preserve"
       transform="matrix(1.3333333,0,0,1.3333333,50.508333,265.23133)"><tspan
         id="tspan16"
         style="font-variant:normal;font-weight:normal;font-size:10px;font-family:'DejaVu Sans';writing-mode:lr-tb;fill:#000000;fill-opacity:1;fill-rule:nonzero;stroke:none"
         x="0"
         y="0">70</tspan></text>
    <path
       id="path16"
       d="M 57.6,193.77656 H 54.1"
       style="fill:#000000;fill-opacity:1;fill-rule:nonzero;stroke:#000000;stroke-width:0.8;stroke-linecap:butt;stroke-linejoin:round;stroke-miterlimit:10;stroke-dasharray:none;stroke-opacity:1"
       transform="matrix(1.3333333,0,0,-1.3333333,0,460.8)" />
    <text
       id="text17"
       xml:space="preserve"
       transform="matrix(1.3333333,0,0,1.3333333,50.508333,207.49375)"><tspan
         id="tspan17"
         style="font-variant:normal;font-weight:normal;font-size:10px;font-family:'DejaVu Sans';writing-mode:lr-tb;fill:#000000;fill-opacity:1;fill-rule:nonzero;stroke:none"
         x="0"
         y="0">80</tspan></text>
    <path
       id="path17"
       d="M 57.6,237.07975 H 54.1"
       style="fill:#000000;fill-opacity:1;fill-rule:nonzero;stroke:#000000;stroke-width:0.8;stroke-linecap:butt;stroke-linejoin:round;stroke-miterlimit:10;stroke-dasharray:none;stroke-opacity:1"
       transform="matrix(1.3333333,0,0,-1.3333333,0,460.8)" />
    <text
       id="text18"
       xml:space="preserve"
       transform="matrix(1.3333333,0,0,1.3333333,50.508333,149.75617)"><tspan
         id="tspan18"
         style="font-variant:normal;font-weight:normal;font-size:10px;font-family:'DejaVu Sans';writing-mode:lr-tb;fill:#000000;fill-opacity:1;fill-rule:nonzero;stroke:none"
         x="0"
         y="0">90</tspan></text>
    <path
       id="path18"
       d="M 57.6,280.38294 H 54.1"
       style="fill:#000000;fill-opacity:1;fill-rule:nonzero;stroke:#000000;stroke-width:0.8;stroke-linecap:butt;stroke-linejoin:round;stroke-miterlimit:10;stroke-dasharray:none;stroke-opacity:1"
       transform="matrix(1.3333333,0,0,-1.3333333,0,460.8)" />
    <text
       id="text19"
       xml:space="preserve"
       transform="matrix(1.3333333,0,0,1.3333333,42.029167,92.018585)"><tspan
         id="tspan19"
         style="font-variant:normal;font-weight:normal;font-size:10px;font-family:'DejaVu Sans';writing-mode:lr-tb;fill:#000000;fill-opacity:1;fill-rule:nonzero;stroke:none"
         x="0"
         y="0">100</tspan></text>
    <path
       id="path19"
       d="m 73.832727,189.44624 3.246546,0.38939 3.246545,0.38759 3.246546,0.38404 3.246545,0.37894 3.246546,0.37256 3.246546,0.36494 3.246546,0.35618 3.246546,0.3464 3.246547,0.33576 3.24655,0.3243 3.24654,0.31207 3.24655,0.29916 3.24654,0.28568 3.24655,0.2716 3.24655,0.25707 3.24654,0.24206 3.24655,0.22667 3.24655,0.21085 3.24654,0.19473 3.24654,0.1783 3.24655,0.16159 3.24654,0.14457 3.24654,0.12743 3.24654,0.10998 3.24655,0.0924 3.24654,0.0746 3.24654,0.0566 3.24654,0.0385 3.24654,0.0203 3.24655,0.002 3.24654,-0.0166 3.24654,-0.0351 3.24654,-0.0539 3.24655,-0.0726 3.24654,-0.0915 3.24654,-0.11044 3.24654,-0.12944 3.24655,-0.14857 3.24654,-0.1677 3.24654,-0.187 3.24655,-0.20622 3.24654,-0.22561 3.24655,-0.24504 3.24654,-0.2645 3.24654,-0.28403 3.24654,-0.30361 3.24655,-0.32328 3.24654,-0.34293 3.24654,-0.36265 3.24654,-0.38251 3.24654,-0.40231 3.24655,-0.42215 3.24654,-0.44211 3.24654,-0.4621 3.24654,-0.48215 3.24655,-0.50221 3.24654,-0.52232 3.24654,-0.54252 3.24654,-0.5627 3.24655,-0.58295 3.24654,-0.60333 3.24654,-0.62369 3.24654,-0.64413 3.24655,-0.66456 3.24654,-0.68503 3.24654,-0.70566 3.24654,-0.72623 3.24655,-0.74695 3.24654,-0.76763 3.24654,-0.78858 3.24654,-0.80998 3.24654,-0.83169 3.24655,-0.85383 3.24654,-0.87623 3.24654,-0.89892 3.24654,-0.92185 3.24655,-0.94511 3.24654,-0.9685 3.24654,-0.99212 3.24654,-1.01585 3.24655,-1.03976 3.24655,-1.06388 3.24656,-1.08813 3.24656,-1.11245 3.24656,-1.13689 3.24655,-1.16141 3.24656,-1.18605 3.24656,-1.21077 3.24656,-1.23554 3.24656,-1.26046 3.24655,-1.28536 3.24656,-1.31028 3.24656,-1.33538 3.24656,-1.36049 3.24655,-1.38554 3.24656,-1.41078 3.24656,-1.43601 3.24656,-1.46126 3.24656,-1.48663 3.24649,-1.51187"
       style="fill:none;stroke:#1f77b4;stroke-width:1.5;stroke-linecap:square;stroke-linejoin:round;stroke-miterlimit:10;stroke-dasharray:none;stroke-opacity:1"
       transform="matrix(1.3333333,0,0,-1.3333333,0,460.8)"
       clip-path="url(#clipPath20)" />
    <path
       id="path21"
       d="m 73.832727,280.38294 3.246546,0.4761 3.246545,0.47472 3.246546,0.47205 3.246545,0.4682 3.246546,0.46339 3.246546,0.45757 3.246546,0.4509 3.246546,0.44343 3.246547,0.43524 3.24655,0.42645 3.24654,0.41707 3.24655,0.40716 3.24654,0.39672 3.24655,0.38588 3.24655,0.37464 3.24654,0.36302 3.24655,0.35106 3.24655,0.33884 3.24654,0.32628 3.24654,0.31356 3.24655,0.30061 3.24654,0.28746 3.24654,0.27411 3.24654,0.2606 3.24655,0.24696 3.24654,0.23321 3.24654,0.21937 3.24654,0.20543 3.24654,0.19136 3.24655,0.17728 3.24654,0.16301 3.24654,0.1488 3.24654,0.13449 3.24655,0.12016 3.24654,0.10585 3.24654,0.0915 3.24654,0.0771 3.24655,0.0627 3.24654,0.0483 3.24654,0.0339 3.24655,0.0195 3.24654,0.005 3.24655,-0.009 3.24654,-0.0235 3.24654,-0.0378 3.24654,-0.052 3.24655,-0.0663 3.24654,-0.0804 3.24654,-0.0946 3.24654,-0.10869 3.24654,-0.12274 3.24655,-0.13674 3.24654,-0.15065 3.24654,-0.16453 3.24654,-0.17834 3.24655,-0.19208 3.24654,-0.20576 3.24654,-0.21933 3.24654,-0.23285 3.24655,-0.2463 3.24654,-0.25971 3.24654,-0.27319 3.24654,-0.28654 3.24655,-0.29985 3.24654,-0.31316 3.24654,-0.32638 3.24654,-0.33949 3.24655,-0.35265 3.24654,-0.36563 3.24654,-0.37854 3.24654,-0.39147 3.24654,-0.40421 3.24655,-0.41687 3.24654,-0.42946 3.24654,-0.44198 3.24654,-0.45433 3.24655,-0.4666 3.24654,-0.47875 3.24654,-0.49074 3.24654,-0.50263 3.24655,-0.5144 3.24655,-0.52603 3.24656,-0.53752 3.24656,-0.54889 3.24656,-0.56005 3.24655,-0.57109 3.24656,-0.582 3.24656,-0.59263 3.24656,-0.6032 3.24656,-0.61358 3.24655,-0.62375 3.24656,-0.63373 3.24656,-0.64357 3.24656,-0.65329 3.24655,-0.66267 3.24656,-0.67199 3.24656,-0.68097 3.24656,-0.68983 3.24656,-0.69841 3.24649,-0.70688"
       style="fill:none;stroke:#1f77b4;stroke-width:1.5;stroke-linecap:square;stroke-linejoin:round;stroke-miterlimit:10;stroke-dasharray:none;stroke-opacity:1"
       transform="matrix(1.3333333,0,0,-1.3333333,0,460.8)"
       clip-path="url(#clipPath22)" />
    <path
       id="path23"
       d="m 73.832727,72.52764 3.246546,-0.01018 3.246545,-0.02917 3.246546,-0.0462 3.246545,-0.06157 3.246546,-0.07534 3.246546,-0.08773 3.246546,-0.09887 3.246546,-0.108843 3.246547,-0.117796 3.24655,-0.125874 3.24654,-0.133092 3.24655,-0.139585 3.24654,-0.145398 3.24655,-0.150636 3.24655,-0.155343 3.24654,-0.159572 3.24655,-0.163372 3.24655,-0.166807 3.24654,-0.16993 3.24654,-0.172721 3.24655,-0.175265 3.24654,-0.177644 3.24654,-0.179791 3.24654,-0.181823 3.24655,-0.18369 3.24654,-0.185457 3.24654,-0.187109 3.24654,-0.188695 3.24654,-0.190198 3.24655,-0.191652 3.24654,-0.193039 3.24654,-0.19441 3.24654,-0.195765 3.24655,-0.19707 3.24654,-0.198375 3.24654,-0.19968 3.24654,-0.201001 3.24655,-0.202323 3.24654,-0.203661 3.24654,-0.205016 3.24655,-0.206403 3.24654,-0.207807 3.24655,-0.209277 3.24654,-0.210748 3.24654,-0.212267 3.24654,-0.213853 3.24655,-0.215472 3.24654,-0.217141 3.24654,-0.218842 3.24654,-0.220609 3.24654,-0.222426 3.24655,-0.22431 3.24654,-0.226225 3.24654,-0.228225 3.24654,-0.230273 3.24655,-0.232371 3.24654,-0.234551 3.24654,-0.236781 3.24654,-0.238945 3.24655,-0.239821 3.24654,-0.24063 3.24654,-0.241638 3.24654,-0.242827 3.24655,-0.244165 3.24654,-0.245685 3.24654,-0.247337 3.24654,-0.24917 3.24655,-0.251104 3.24654,-0.253184 3.24654,-0.255398 3.24654,-0.257711 3.24654,-0.260205 3.24655,-0.262798 3.24654,-0.265524 3.24654,-0.268432 3.24654,-0.271454 3.24655,-0.274626 3.24654,-0.277946 3.24654,-0.281399 3.24654,-0.284967 3.24655,-0.2887 3.24655,-0.292565 3.24656,-0.29653 3.24656,-0.300643 3.24656,-0.304889 3.24655,-0.309233 3.24656,-0.313693 3.24656,-0.318269 3.24656,-0.322976 3.24656,-0.327784 3.24655,-0.33269 3.24656,-0.337694 3.24656,-0.342816 3.24656,-0.348036 3.24655,-0.353421 3.24656,-0.358955 3.24656,-0.36467 3.24656,-0.370551 3.24656,-0.376564 3.24649,-0.382725"
       style="fill:none;stroke:#d62728;stroke-width:1.5;stroke-linecap:square;stroke-linejoin:round;stroke-miterlimit:10;stroke-dasharray:none;stroke-opacity:1"
       transform="matrix(1.3333333,0,0,-1.3333333,0,460.8)"
       clip-path="url(#clipPath24)" />
    <path
       id="path25"
       d="m 73.832727,73.740124 3.246546,-0.0036 3.246545,-0.01039 3.246546,-0.01655 3.246545,-0.02215 3.246546,-0.02775 3.246546,-0.03292 3.246546,-0.0376 3.246546,-0.04184 3.246547,-0.04566 3.24655,-0.04913 3.24654,-0.05223 3.24655,-0.05501 3.24654,-0.05752 3.24655,-0.05977 3.24655,-0.06175 3.24654,-0.06351 3.24655,-0.06508 3.24655,-0.06644 3.24654,-0.06764 3.24654,-0.06867 3.24655,-0.06956 3.24654,-0.0703 3.24654,-0.07091 3.24654,-0.07143 3.24655,-0.07181 3.24654,-0.07209 3.24654,-0.07229 3.24654,-0.0724 3.24654,-0.07242 3.24655,-0.07237 3.24654,-0.07224 3.24654,-0.07204 3.24654,-0.07177 3.24655,-0.07146 3.24654,-0.0711 3.24654,-0.07065 3.24654,-0.07017 3.24655,-0.06964 3.24654,-0.06906 3.24654,-0.06842 3.24655,-0.06778 3.24654,-0.06707 3.24655,-0.06632 3.24654,-0.06551 3.24654,-0.06471 3.24654,-0.06384 3.24655,-0.06294 3.24654,-0.06199 3.24654,-0.06104 3.24654,-0.06005 3.24654,-0.05901 3.24655,-0.05795 3.24654,-0.05684 3.24654,-0.0557 3.24654,-0.05456 3.24655,-0.05337 3.24654,-0.05213 3.24654,-0.05089 3.24654,-0.04961 3.24655,-0.04838 3.24654,-0.04713 3.24654,-0.04584 3.24654,-0.04452 3.24655,-0.04316 3.24654,-0.04178 3.24654,-0.04036 3.24654,-0.03889 3.24655,-0.03743 3.24654,-0.03507 3.24654,-0.0244 3.24654,-0.01298 3.24654,-0.0027 3.24655,0.0067 3.24654,0.01513 3.24654,0.0228 3.24654,0.02977 3.24655,0.03608 3.24654,0.04179 3.24654,0.04701 3.24654,0.05174 3.24655,0.05602 3.24655,0.05993 3.24656,0.0635 3.24656,0.06674 3.24656,0.06971 3.24655,0.07242 3.24656,0.07491 3.24656,0.07718 3.24656,0.07929 3.24656,0.08122 3.24655,0.08304 3.24656,0.08471 3.24656,0.08629 3.24656,0.08777 3.24655,0.08915 3.24656,0.09047 3.24656,0.09173 3.24656,0.09293 3.24656,0.09412 3.24649,0.09525"
       style="fill:none;stroke:#d62728;stroke-width:1.5;stroke-linecap:square;stroke-linejoin:round;stroke-miterlimit:10;stroke-dasharray:none;stroke-opacity:1"
       transform="matrix(1.3333333,0,0,-1.3333333,0,460.8)"
       clip-path="url(#clipPath26)" />
    <path
       id="path27"
       d="M 57.6,38.016 V 304.128"
       style="fill:none;stroke:#000000;stroke-width:0.8;stroke-linecap:square;stroke-linejoin:miter;stroke-miterlimit:10;stroke-dasharray:none;stroke-opacity:1"
       transform="matrix(1.3333333,0,0,-1.3333333,0,460.8)" />
    <path
       id="path28"
       d="M 414.72,38.016 V 304.128"
       style="fill:none;stroke:#000000;stroke-width:0.8;stroke-linecap:square;stroke-linejoin:miter;stroke-miterlimit:10;stroke-dasharray:none;stroke-opacity:1"
       transform="matrix(1.3333333,0,0,-1.3333333,0,460.8)" />
    <path
       id="path29"
       d="M 57.6,38.016 H 414.72"
       style="fill:none;stroke:#000000;stroke-width:0.8;stroke-linecap:square;stroke-linejoin:miter;stroke-miterlimit:10;stroke-dasharray:none;stroke-opacity:1"
       transform="matrix(1.3333333,0,0,-1.3333333,0,460.8)" />
    <path
       id="path30"
       d="M 57.6,304.128 H 414.72"
       style="fill:none;stroke:#000000;stroke-width:0.8;stroke-linecap:square;stroke-linejoin:miter;stroke-miterlimit:10;stroke-dasharray:none;stroke-opacity:1"
       transform="matrix(1.3333333,0,0,-1.3333333,0,460.8)" />
    <path
       id="path31"
       d="m 64.6,154.90012 h 60.71875 c 1.33333,0 2,0.66667 2,2 v 28.34375 c 0,1.33334 -0.66667,2 -2,2 H 64.6 c -1.333333,0 -2,-0.66666 -2,-2 v -28.34375 c 0,-1.33333 0.666667,-2 2,-2 z"
       style="fill:#ffffff;fill-opacity:0.8;fill-rule:nonzero;stroke:#cccccc;stroke-width:1;stroke-linecap:butt;stroke-linejoin:miter;stroke-miterlimit:10;stroke-dasharray:none;stroke-opacity:0.8"
       transform="matrix(1.3333333,0,0,-1.3333333,0,460.8)" />
    <path
       id="path32"
       d="m 66.6,175.65012 h 20 v 7 h -20 z"
       style="fill:#1f77b4;fill-opacity:0.5;fill-rule:nonzero;stroke:#1f77b4;stroke-width:1;stroke-linecap:butt;stroke-linejoin:miter;stroke-miterlimit:10;stroke-dasharray:none;stroke-opacity:0.5"
       transform="matrix(1.3333333,0,0,-1.3333333,0,460.8)" />
    <text
       id="text32"
       xml:space="preserve"
       transform="matrix(1.3333333,0,0,1.3333333,126.13333,226.59983)"><tspan
         id="tspan32"
         style="font-variant:normal;font-weight:normal;font-size:10px;font-family:'DejaVu Sans';writing-mode:lr-tb;fill:#000000;fill-opacity:1;fill-rule:nonzero;stroke:none"
         x="0"
         dx="0 0 -0.21875"
         y="0">Drel</tspan></text>
    <path
       id="path33"
       d="m 66.6,160.97825 h 20 v 7 h -20 z"
       style="fill:#d62728;fill-opacity:0.5;fill-rule:nonzero;stroke:#d62728;stroke-width:1;stroke-linecap:butt;stroke-linejoin:miter;stroke-miterlimit:10;stroke-dasharray:none;stroke-opacity:0.5"
       transform="matrix(1.3333333,0,0,-1.3333333,0,460.8)" />
    <text
       id="text33"
       xml:space="preserve"
       transform="matrix(1.3333333,0,0,1.3333333,126.13333,246.16233)"><tspan
         id="tspan33"
         style="font-variant:normal;font-weight:normal;font-size:10px;font-family:'DejaVu Sans';writing-mode:lr-tb;fill:#000000;fill-opacity:1;fill-rule:nonzero;stroke:none"
         x="0"
         y="0">Dsafe</tspan></text>
  </g>
</svg>
