<?xml version="1.0" encoding="UTF-8" standalone="no"?>
<!-- Created with Inkscape (http://www.inkscape.org/) -->

<svg
   version="1.1"
   id="svg1"
   width="439.67999"
   height="439.67999"
   viewBox="0 0 439.67999 439.67999"
   sodipodi:docname="gamma_vis.pdf"
   xmlns:inkscape="http://www.inkscape.org/namespaces/inkscape"
   xmlns:sodipodi="http://sodipodi.sourceforge.net/DTD/sodipodi-0.dtd"
   xmlns="http://www.w3.org/2000/svg"
   xmlns:svg="http://www.w3.org/2000/svg">
  <defs
     id="defs1">
    <clipPath
       clipPathUnits="userSpaceOnUse"
       id="clipPath97">
      <path
         d="M 18.9,15.12 H 348.66 V 344.88 H 18.9 Z"
         id="path97" />
    </clipPath>
    <clipPath
       clipPathUnits="userSpaceOnUse"
       id="clipPath99">
      <path
         d="M 18.9,15.12 H 348.66 V 344.88 H 18.9 Z"
         id="path99" />
    </clipPath>
    <clipPath
       clipPathUnits="userSpaceOnUse"
       id="clipPath101">
      <path
         d="M 18.9,15.12 H 348.66 V 344.88 H 18.9 Z"
         id="path101" />
    </clipPath>
    <clipPath
       clipPathUnits="userSpaceOnUse"
       id="clipPath103">
      <path
         d="M 18.9,15.12 H 348.66 V 344.88 H 18.9 Z"
         id="path103" />
    </clipPath>
    <clipPath
       clipPathUnits="userSpaceOnUse"
       id="clipPath105">
      <path
         d="M 18.9,15.12 H 348.66 V 344.88 H 18.9 Z"
         id="path105" />
    </clipPath>
    <clipPath
       clipPathUnits="userSpaceOnUse"
       id="clipPath107">
      <path
         d="M 18.9,15.12 H 348.66 V 344.88 H 18.9 Z"
         id="path107" />
    </clipPath>
    <clipPath
       clipPathUnits="userSpaceOnUse"
       id="clipPath109">
      <path
         d="M 18.9,15.12 H 348.66 V 344.88 H 18.9 Z"
         id="path109" />
    </clipPath>
    <clipPath
       clipPathUnits="userSpaceOnUse"
       id="clipPath111">
      <path
         d="M 18.9,15.12 H 348.66 V 344.88 H 18.9 Z"
         id="path111" />
    </clipPath>
    <clipPath
       clipPathUnits="userSpaceOnUse"
       id="clipPath116">
      <path
         d="M 18.9,15.12 H 348.66 V 344.88 H 18.9 Z"
         id="path116" />
    </clipPath>
    <clipPath
       clipPathUnits="userSpaceOnUse"
       id="clipPath118">
      <path
         d="M 18.9,15.12 H 348.66 V 344.88 H 18.9 Z"
         id="path118" />
    </clipPath>
    <clipPath
       clipPathUnits="userSpaceOnUse"
       id="clipPath120">
      <path
         d="M 18.9,15.12 H 348.66 V 344.88 H 18.9 Z"
         id="path120" />
    </clipPath>
    <clipPath
       clipPathUnits="userSpaceOnUse"
       id="clipPath122">
      <path
         d="M 18.9,15.12 H 348.66 V 344.88 H 18.9 Z"
         id="path122" />
    </clipPath>
    <clipPath
       clipPathUnits="userSpaceOnUse"
       id="clipPath124">
      <path
         d="M 18.9,15.12 H 348.66 V 344.88 H 18.9 Z"
         id="path124" />
    </clipPath>
    <clipPath
       clipPathUnits="userSpaceOnUse"
       id="clipPath126">
      <path
         d="M 18.9,15.12 H 348.66 V 344.88 H 18.9 Z"
         id="path126" />
    </clipPath>
    <clipPath
       clipPathUnits="userSpaceOnUse"
       id="clipPath128">
      <path
         d="M 18.9,15.12 H 348.66 V 344.88 H 18.9 Z"
         id="path128" />
    </clipPath>
  </defs>
  <sodipodi:namedview
     id="namedview1"
     pagecolor="#ffffff"
     bordercolor="#000000"
     borderopacity="0.25"
     inkscape:showpageshadow="2"
     inkscape:pageopacity="0.0"
     inkscape:pagecheckerboard="0"
     inkscape:deskcolor="#d1d1d1">
    <inkscape:page
       x="0"
       y="0"
       width="439.67999"
       height="439.67999"
       id="page2"
       margin="0"
       bleed="0" />
  </sodipodi:namedview>
  <g
     id="g1"
     inkscape:groupmode="layer"
     inkscape:label="1"
     transform="translate(-25.199999,-20.160011)">
    <path
       id="path2"
       d="M 18.9,15.12 H 348.66 V 344.88 H 18.9 Z"
       style="fill:#ffffff;fill-opacity:1;fill-rule:nonzero;stroke:none"
       transform="matrix(1.3333333,0,0,-1.3333333,0,480)"
       inkscape:export-filename="path2.svg"
       inkscape:export-xdpi="96"
       inkscape:export-ydpi="96" />
    <path
       id="path3"
       d="M 313.59242,70.284251 267.77527,177.56375 271.19812,310.12716 319.5722,212.112"
       style="fill:#f2f2f2;fill-opacity:0.5;fill-rule:nonzero;stroke:#f2f2f2;stroke-width:1;stroke-linecap:butt;stroke-linejoin:miter;stroke-miterlimit:10;stroke-dasharray:none;stroke-opacity:0.5"
       transform="matrix(1.3333333,0,0,-1.3333333,0,480)" />
    <path
       id="path4"
       d="M 72.731599,160.13409 267.77527,177.56375 271.19812,310.12716 67.673736,294.26215"
       style="fill:#e6e6e6;fill-opacity:0.5;fill-rule:nonzero;stroke:#e6e6e6;stroke-width:1;stroke-linecap:butt;stroke-linejoin:miter;stroke-miterlimit:10;stroke-dasharray:none;stroke-opacity:0.5"
       transform="matrix(1.3333333,0,0,-1.3333333,0,480)" />
    <path
       id="path5"
       d="M 98.828379,49.02095 313.59242,70.284251 267.77527,177.56375 72.731599,160.13409"
       style="fill:#ececec;fill-opacity:0.5;fill-rule:nonzero;stroke:#ececec;stroke-width:1;stroke-linecap:butt;stroke-linejoin:miter;stroke-miterlimit:10;stroke-dasharray:none;stroke-opacity:0.5"
       transform="matrix(1.3333333,0,0,-1.3333333,0,480)" />
    <path
       id="path6"
       d="M 112.73291,50.397606 85.338786,161.2607 80.838013,295.28832"
       style="fill:none;stroke:#b0b0b0;stroke-width:0.8;stroke-linecap:butt;stroke-linejoin:round;stroke-miterlimit:10;stroke-dasharray:none;stroke-opacity:1"
       transform="matrix(1.3333333,0,0,-1.3333333,0,480)" />
    <path
       id="path7"
       d="M 160.157,55.092958 128.35946,165.10516 125.75041,298.78931"
       style="fill:none;stroke:#b0b0b0;stroke-width:0.8;stroke-linecap:butt;stroke-linejoin:round;stroke-miterlimit:10;stroke-dasharray:none;stroke-opacity:1"
       transform="matrix(1.3333333,0,0,-1.3333333,0,480)" />
    <path
       id="path8"
       d="M 207.19976,59.750555 171.06694,168.92162 170.32165,302.2637"
       style="fill:none;stroke:#b0b0b0;stroke-width:0.8;stroke-linecap:butt;stroke-linejoin:round;stroke-miterlimit:10;stroke-dasharray:none;stroke-opacity:1"
       transform="matrix(1.3333333,0,0,-1.3333333,0,480)" />
    <path
       id="path9"
       d="M 253.86578,64.370851 213.46463,172.7104 214.5556,305.7118"
       style="fill:none;stroke:#b0b0b0;stroke-width:0.8;stroke-linecap:butt;stroke-linejoin:round;stroke-miterlimit:10;stroke-dasharray:none;stroke-opacity:1"
       transform="matrix(1.3333333,0,0,-1.3333333,0,480)" />
    <path
       id="path10"
       d="m 300.15955,68.954293 -44.60366,107.517507 2.9002,132.6621"
       style="fill:none;stroke:#b0b0b0;stroke-width:0.8;stroke-linecap:butt;stroke-linejoin:round;stroke-miterlimit:10;stroke-dasharray:none;stroke-opacity:1"
       transform="matrix(1.3333333,0,0,-1.3333333,0,480)" />
    <path
       id="path11"
       d="M 316.18328,218.97861 310.39593,77.768736 97.00475,56.785476"
       style="fill:none;stroke:#b0b0b0;stroke-width:0.8;stroke-linecap:butt;stroke-linejoin:round;stroke-miterlimit:10;stroke-dasharray:none;stroke-opacity:1"
       transform="matrix(1.3333333,0,0,-1.3333333,0,480)" />
    <path
       id="path12"
       d="M 304.90882,241.82282 299.7473,102.70221 90.932798,82.63823"
       style="fill:none;stroke:#b0b0b0;stroke-width:0.8;stroke-linecap:butt;stroke-linejoin:round;stroke-miterlimit:10;stroke-dasharray:none;stroke-opacity:1"
       transform="matrix(1.3333333,0,0,-1.3333333,0,480)" />
    <path
       id="path13"
       d="M 294.14064,263.64121 289.55614,126.5645 85.126314,107.36069"
       style="fill:none;stroke:#b0b0b0;stroke-width:0.8;stroke-linecap:butt;stroke-linejoin:round;stroke-miterlimit:10;stroke-dasharray:none;stroke-opacity:1"
       transform="matrix(1.3333333,0,0,-1.3333333,0,480)" />
    <path
       id="path14"
       d="M 283.8454,284.50136 279.7936,149.4232 79.56826,131.0254"
       style="fill:none;stroke:#b0b0b0;stroke-width:0.8;stroke-linecap:butt;stroke-linejoin:round;stroke-miterlimit:10;stroke-dasharray:none;stroke-opacity:1"
       transform="matrix(1.3333333,0,0,-1.3333333,0,480)" />
    <path
       id="path15"
       d="M 273.99259,304.46503 270.43319,171.34031 74.243028,153.69883"
       style="fill:none;stroke:#b0b0b0;stroke-width:0.8;stroke-linecap:butt;stroke-linejoin:round;stroke-miterlimit:10;stroke-dasharray:none;stroke-opacity:1"
       transform="matrix(1.3333333,0,0,-1.3333333,0,480)" />
    <path
       id="path16"
       d="M 72.422412,168.33332 267.98465,185.67285 313.95669,78.923755"
       style="fill:none;stroke:#b0b0b0;stroke-width:0.8;stroke-linecap:butt;stroke-linejoin:round;stroke-miterlimit:10;stroke-dasharray:none;stroke-opacity:1"
       transform="matrix(1.3333333,0,0,-1.3333333,0,480)" />
    <path
       id="path17"
       d="M 71.349661,196.78131 268.71097,213.80254 315.22181,108.92993"
       style="fill:none;stroke:#b0b0b0;stroke-width:0.8;stroke-linecap:butt;stroke-linejoin:round;stroke-miterlimit:10;stroke-dasharray:none;stroke-opacity:1"
       transform="matrix(1.3333333,0,0,-1.3333333,0,480)" />
    <path
       id="path18"
       d="M 70.256851,225.76124 269.45065,242.44933 316.51266,139.54615"
       style="fill:none;stroke:#b0b0b0;stroke-width:0.8;stroke-linecap:butt;stroke-linejoin:round;stroke-miterlimit:10;stroke-dasharray:none;stroke-opacity:1"
       transform="matrix(1.3333333,0,0,-1.3333333,0,480)" />
    <path
       id="path19"
       d="m 69.143414,255.28816 201.060626,16.33945 47.62598,-100.8364"
       style="fill:none;stroke:#b0b0b0;stroke-width:0.8;stroke-linecap:butt;stroke-linejoin:round;stroke-miterlimit:10;stroke-dasharray:none;stroke-opacity:1"
       transform="matrix(1.3333333,0,0,-1.3333333,0,480)" />
    <path
       id="path20"
       d="m 68.008761,285.37772 202.962789,15.97459 48.20318,-98.66763"
       style="fill:none;stroke:#b0b0b0;stroke-width:0.8;stroke-linecap:butt;stroke-linejoin:round;stroke-miterlimit:10;stroke-dasharray:none;stroke-opacity:1"
       transform="matrix(1.3333333,0,0,-1.3333333,0,480)" />
    <path
       id="path21"
       d="M 313.59242,70.284251 98.828379,49.02095"
       style="fill:none;stroke:#000000;stroke-width:0.8;stroke-linecap:square;stroke-linejoin:round;stroke-miterlimit:10;stroke-dasharray:none;stroke-opacity:1"
       transform="matrix(1.3333333,0,0,-1.3333333,0,480)" />
    <path
       id="path22"
       d="m 112.49087,51.377122 0.72734,-2.94351"
       style="fill:none;stroke:#000000;stroke-width:0.8;stroke-linecap:square;stroke-linejoin:round;stroke-miterlimit:10;stroke-dasharray:none;stroke-opacity:1"
       transform="matrix(1.3333333,0,0,-1.3333333,0,480)" />
    <g
       id="g22"
       aria-label="−1.0"
       transform="matrix(1.3333333,0,0,1.3333333,134.4722,449.29895)">
      <path
         id="path23"
         d="m 9.1878456,-3.2095669 c 0.234375,0 0.4921875,0 0.4921875,-0.28125 0,-0.2695312 -0.2578125,-0.2695312 -0.4921875,-0.2695312 h -7.546875 c -0.234375,0 -0.4804688,0 -0.4804688,0.2695312 0,0.28125 0.2460938,0.28125 0.4804688,0.28125 z m 0,0"
         style="fill:#000000;fill-opacity:1;fill-rule:nonzero;stroke:none" />
      <path
         id="path24"
         d="m 14.86851,-8.9400356 c 0,-0.3164063 0,-0.328125 -0.28125,-0.328125 -0.339844,0.375 -1.03125,0.890625 -2.472657,0.890625 v 0.3984375 c 0.328125,0 1.019532,0 1.792969,-0.3632813 v 7.265625 c 0,0.50390627 -0.04687,0.66796877 -1.277344,0.66796877 h -0.433593 v 0.41015625 c 0.386718,-0.0234375 1.734375,-0.0234375 2.191406,-0.0234375 0.46875,0 1.804687,0 2.179687,0.0234375 v -0.41015625 h -0.433593 c -1.230469,0 -1.265625,-0.1640625 -1.265625,-0.66796877 z m 0,0"
         style="fill:#000000;fill-opacity:1;fill-rule:nonzero;stroke:none" />
      <path
         id="path25"
         d="m 20.244486,-0.66659813 c 0,-0.41015627 -0.339844,-0.67968747 -0.667969,-0.67968747 -0.410156,0 -0.679687,0.328125 -0.679687,0.66796872 0,0.3984375 0.328125,0.6796875 0.667969,0.6796875 0.398437,0 0.679687,-0.33984375 0.679687,-0.66796875 z m 0,0"
         style="fill:#000000;fill-opacity:1;fill-rule:nonzero;stroke:none" />
      <path
         id="path26"
         d="m 27.715189,-4.4634731 c 0,-1.1601563 -0.07031,-2.2851563 -0.574218,-3.3398438 -0.5625,-1.1601562 -1.570313,-1.4648437 -2.25,-1.4648437 -0.808594,0 -1.804688,0.3984375 -2.320313,1.5585937 -0.386719,0.8789063 -0.527344,1.7460938 -0.527344,3.2460938 0,1.359375 0.09375,2.3671875 0.597657,3.3632812 0.539062,1.05468752 1.5,1.39453127 2.226562,1.39453127 1.21875,0 1.910156,-0.7265625 2.320313,-1.53515627 0.503906,-1.0429687 0.527343,-2.4140625 0.527343,-3.2226562 z m -2.847656,4.47656247 c -0.445312,0 -1.347656,-0.24609375 -1.617187,-1.76953127 -0.152344,-0.8320312 -0.152344,-1.8984375 -0.152344,-2.8710937 0,-1.1484375 0,-2.1796875 0.222656,-3 0.246094,-0.9375 0.949219,-1.3710938 1.546875,-1.3710938 0.539063,0 1.347656,0.328125 1.605469,1.5234375 0.1875,0.796875 0.1875,1.8984375 0.1875,2.8476563 0,0.9375 0,1.9921875 -0.152344,2.8476562 -0.269531,1.53515627 -1.148437,1.79296877 -1.640625,1.79296877 z m 0,0"
         style="fill:#000000;fill-opacity:1;fill-rule:nonzero;stroke:none" />
    </g>
    <path
       id="path27"
       d="m 159.87616,56.064585 0.84393,-2.919784"
       style="fill:none;stroke:#000000;stroke-width:0.8;stroke-linecap:square;stroke-linejoin:round;stroke-miterlimit:10;stroke-dasharray:none;stroke-opacity:1"
       transform="matrix(1.3333333,0,0,-1.3333333,0,480)" />
    <g
       id="g27"
       aria-label="−0.5"
       transform="matrix(1.3333333,0,0,1.3333333,197.94195,442.91954)">
      <path
         id="path28"
         d="m 9.1870916,-3.2121138 c 0.234375,0 0.4921875,0 0.4921875,-0.28125 0,-0.2695312 -0.2578125,-0.2695312 -0.4921875,-0.2695312 h -7.546875 c -0.234375,0 -0.4804687,0 -0.4804687,0.2695312 0,0.28125 0.2460937,0.28125 0.4804687,0.28125 z m 0,0"
         style="fill:#000000;fill-opacity:1;fill-rule:nonzero;stroke:none" />
      <path
         id="path29"
         d="m 17.094318,-4.46602 c 0,-1.1601563 -0.07031,-2.2851563 -0.574219,-3.3398438 -0.5625,-1.1601562 -1.570312,-1.4648437 -2.25,-1.4648437 -0.808593,0 -1.804687,0.3984375 -2.320312,1.5585937 -0.386719,0.8789063 -0.527344,1.7460938 -0.527344,3.2460938 0,1.359375 0.09375,2.3671875 0.597656,3.3632812 0.539063,1.0546875 1.5,1.39453125 2.226563,1.39453125 1.21875,0 1.910156,-0.7265625 2.320312,-1.53515625 0.503907,-1.0429687 0.527344,-2.4140625 0.527344,-3.2226562 z m -2.847656,4.47656245 c -0.445313,0 -1.347656,-0.24609375 -1.617188,-1.76953125 -0.152343,-0.8320312 -0.152343,-1.8984375 -0.152343,-2.8710937 0,-1.1484375 0,-2.1796875 0.222656,-3 0.246094,-0.9375 0.949219,-1.3710938 1.546875,-1.3710938 0.539062,0 1.347656,0.328125 1.605469,1.5234375 0.1875,0.796875 0.1875,1.8984375 0.1875,2.8476563 0,0.9375 0,1.9921875 -0.152344,2.8476562 -0.269531,1.53515625 -1.148438,1.79296875 -1.640625,1.79296875 z m 0,0"
         style="fill:#000000;fill-opacity:1;fill-rule:nonzero;stroke:none" />
      <path
         id="path30"
         d="m 20.243732,-0.66914505 c 0,-0.41015625 -0.339843,-0.67968745 -0.667968,-0.67968745 -0.410157,0 -0.679688,0.328125 -0.679688,0.6679687 0,0.3984375 0.328125,0.6796875 0.667969,0.6796875 0.398437,0 0.679687,-0.33984375 0.679687,-0.66796875 z m 0,0"
         style="fill:#000000;fill-opacity:1;fill-rule:nonzero;stroke:none" />
      <path
         id="path31"
         d="m 23.252521,-7.9933638 c 0.597657,0.1992188 1.089844,0.2109375 1.242188,0.2109375 1.582031,0 2.578125,-1.1601562 2.578125,-1.3476562 0,-0.058594 -0.02344,-0.1289063 -0.105469,-0.1289063 -0.03516,0 -0.05859,0 -0.1875,0.058594 -0.773437,0.328125 -1.441406,0.375 -1.804687,0.375 -0.925782,0 -1.582032,-0.28125 -1.839844,-0.3984375 -0.105469,-0.035156 -0.128906,-0.035156 -0.140625,-0.035156 -0.117188,0 -0.117188,0.082031 -0.117188,0.3046875 v 4.1367188 c 0,0.2578125 0,0.3398437 0.164063,0.3398437 0.07031,0 0.09375,-0.011719 0.234375,-0.1757812 0.386719,-0.5742188 1.042969,-0.9140625 1.734375,-0.9140625 0.738281,0 1.101562,0.6796875 1.21875,0.9257812 0.234375,0.5390625 0.246094,1.21875 0.246094,1.7578125 0,0.5273438 0,1.3242188 -0.386719,1.9453125 -0.304688,0.50390625 -0.855469,0.85546875 -1.464844,0.85546875 -0.925781,0 -1.828125,-0.6328125 -2.074219,-1.65234375 0.07031,0.035156 0.152344,0.046875 0.222657,0.046875 0.234375,0 0.609375,-0.140625 0.609375,-0.609375 0,-0.3984375 -0.269532,-0.6210937 -0.609375,-0.6210937 -0.257813,0 -0.621094,0.1289062 -0.621094,0.6679687 0,1.1953125 0.949219,2.54296875 2.496094,2.54296875 1.582031,0 2.964843,-1.32421875 2.964843,-3.09374995 0,-1.6640625 -1.125,-3.046875 -2.589843,-3.046875 -0.785157,0 -1.40625,0.3515625 -1.769532,0.7382812 z m 0,0"
         style="fill:#000000;fill-opacity:1;fill-rule:nonzero;stroke:none" />
    </g>
    <path
       id="path32"
       d="m 206.88076,60.714389 0.95862,-2.896344"
       style="fill:none;stroke:#000000;stroke-width:0.8;stroke-linecap:square;stroke-linejoin:round;stroke-miterlimit:10;stroke-dasharray:none;stroke-opacity:1"
       transform="matrix(1.3333333,0,0,-1.3333333,0,480)" />
    <g
       id="g32"
       aria-label="0.0"
       transform="matrix(1.3333333,0,0,1.3333333,268.1315,436.59162)">
      <path
         id="path33"
         d="m 6.2470763,-4.4661748 c 0,-1.1601562 -0.070312,-2.2851562 -0.5742188,-3.3398437 -0.5625,-1.1601563 -1.5703125,-1.4648438 -2.25,-1.4648438 -0.8085937,0 -1.8046875,0.3984375 -2.3203125,1.5585938 -0.38671872,0.8789062 -0.52734372,1.7460937 -0.52734372,3.2460937 0,1.359375 0.09375,2.3671875 0.59765622,3.3632813 0.5390625,1.05468748 1.5,1.39453123 2.2265625,1.39453123 1.21875,0 1.9101563,-0.7265625 2.3203125,-1.53515623 0.5039063,-1.0429688 0.5273438,-2.4140625 0.5273438,-3.2226563 z M 3.39942,0.01038773 c -0.4453125,0 -1.3476562,-0.24609375 -1.6171875,-1.76953123 -0.1523437,-0.8320313 -0.1523437,-1.8984375 -0.1523437,-2.8710938 0,-1.1484375 0,-2.1796875 0.2226562,-3 0.2460938,-0.9375 0.9492188,-1.3710937 1.546875,-1.3710937 0.5390625,0 1.3476563,0.328125 1.6054688,1.5234375 0.1875,0.796875 0.1875,1.8984375 0.1875,2.8476562 0,0.9375 0,1.9921875 -0.1523438,2.8476563 C 4.7705138,-0.24742477 3.8916075,0.01038773 3.39942,0.01038773 Z m 0,0"
         style="fill:#000000;fill-opacity:1;fill-rule:nonzero;stroke:none" />
      <path
         id="path34"
         d="m 9.3935607,-0.66929977 c 0,-0.41015623 -0.3398438,-0.67968753 -0.6679688,-0.67968753 -0.4101562,0 -0.6796875,0.328125 -0.6796875,0.66796878 0,0.3984375 0.328125,0.6796875 0.6679688,0.6796875 0.3984375,0 0.6796875,-0.33984375 0.6796875,-0.66796875 z m 0,0"
         style="fill:#000000;fill-opacity:1;fill-rule:nonzero;stroke:none" />
      <path
         id="path35"
         d="m 16.867193,-4.4661748 c 0,-1.1601562 -0.07031,-2.2851562 -0.574218,-3.3398437 -0.5625,-1.1601563 -1.570313,-1.4648438 -2.25,-1.4648438 -0.808594,0 -1.804688,0.3984375 -2.320313,1.5585938 -0.386719,0.8789062 -0.527344,1.7460937 -0.527344,3.2460937 0,1.359375 0.09375,2.3671875 0.597657,3.3632813 0.539062,1.05468748 1.5,1.39453123 2.226562,1.39453123 1.21875,0 1.910156,-0.7265625 2.320313,-1.53515623 0.503906,-1.0429688 0.527343,-2.4140625 0.527343,-3.2226563 z m -2.847656,4.47656253 c -0.445312,0 -1.347656,-0.24609375 -1.617187,-1.76953123 -0.152344,-0.8320313 -0.152344,-1.8984375 -0.152344,-2.8710938 0,-1.1484375 0,-2.1796875 0.222656,-3 0.246094,-0.9375 0.949219,-1.3710937 1.546875,-1.3710937 0.539063,0 1.347656,0.328125 1.605469,1.5234375 0.1875,0.796875 0.1875,1.8984375 0.1875,2.8476562 0,0.9375 0,1.9921875 -0.152344,2.8476563 -0.269531,1.53515623 -1.148437,1.79296873 -1.640625,1.79296873 z m 0,0"
         style="fill:#000000;fill-opacity:1;fill-rule:nonzero;stroke:none" />
    </g>
    <path
       id="path36"
       d="M 253.50923,65.326985 254.58067,62.4538"
       style="fill:none;stroke:#000000;stroke-width:0.8;stroke-linecap:square;stroke-linejoin:round;stroke-miterlimit:10;stroke-dasharray:none;stroke-opacity:1"
       transform="matrix(1.3333333,0,0,-1.3333333,0,480)" />
    <g
       id="g36"
       aria-label="0.5"
       transform="matrix(1.3333333,0,0,1.3333333,330.58272,430.31458)">
      <path
         id="path37"
         d="m 6.24558,-4.4634715 c 0,-1.1601563 -0.070312,-2.2851563 -0.5742188,-3.3398438 -0.5625,-1.1601562 -1.5703125,-1.4648437 -2.25,-1.4648437 -0.8085937,0 -1.8046875,0.3984375 -2.3203125,1.5585937 -0.38671873,0.8789063 -0.52734373,1.7460938 -0.52734373,3.2460938 0,1.359375 0.09375,2.3671875 0.59765623,3.3632812 0.5390625,1.05468755 1.5,1.3945313 2.2265625,1.3945313 1.21875,0 1.9101563,-0.7265625 2.3203125,-1.5351563 C 6.2221425,-2.283784 6.24558,-3.6548778 6.24558,-4.4634715 Z M 3.3979237,0.013091 c -0.4453125,0 -1.3476562,-0.24609375 -1.6171875,-1.7695313 -0.1523437,-0.8320312 -0.1523437,-1.8984375 -0.1523437,-2.8710937 0,-1.1484375 0,-2.1796875 0.2226562,-3 0.2460938,-0.9375 0.9492188,-1.3710938 1.546875,-1.3710938 0.5390625,0 1.3476563,0.328125 1.6054688,1.5234375 0.1875,0.796875 0.1875,1.8984375 0.1875,2.8476563 0,0.9375 0,1.9921875 -0.1523438,2.8476562 C 4.7690175,-0.2447215 3.8901112,0.013091 3.3979237,0.013091 Z m 0,0"
         style="fill:#000000;fill-opacity:1;fill-rule:nonzero;stroke:none" />
      <path
         id="path38"
         d="m 9.394994,-0.6665965 c 0,-0.4101563 -0.3398437,-0.6796875 -0.6679687,-0.6796875 -0.4101563,0 -0.6796875,0.328125 -0.6796875,0.66796875 0,0.3984375 0.328125,0.6796875 0.6679687,0.6796875 0.3984375,0 0.6796875,-0.33984375 0.6796875,-0.66796875 z m 0,0"
         style="fill:#000000;fill-opacity:1;fill-rule:nonzero;stroke:none" />
      <path
         id="path39"
         d="m 12.403783,-7.9908153 c 0.597656,0.1992188 1.089844,0.2109375 1.242188,0.2109375 1.582031,0 2.578125,-1.1601562 2.578125,-1.3476562 0,-0.058594 -0.02344,-0.1289063 -0.105469,-0.1289063 -0.03516,0 -0.05859,0 -0.1875,0.058594 -0.773438,0.328125 -1.441406,0.375 -1.804688,0.375 -0.925781,0 -1.582031,-0.28125 -1.839843,-0.3984375 -0.105469,-0.035156 -0.128907,-0.035156 -0.140625,-0.035156 -0.117188,0 -0.117188,0.082031 -0.117188,0.3046875 v 4.1367188 c 0,0.2578125 0,0.3398437 0.164063,0.3398437 0.07031,0 0.09375,-0.011719 0.234375,-0.1757812 0.386718,-0.5742188 1.042968,-0.9140625 1.734375,-0.9140625 0.738281,0 1.101562,0.6796875 1.21875,0.9257812 0.234375,0.5390625 0.246093,1.21875 0.246093,1.7578125 0,0.5273438 0,1.3242188 -0.386718,1.94531255 -0.304688,0.50390625 -0.855469,0.85546875 -1.464844,0.85546875 -0.925781,0 -1.828125,-0.6328125 -2.074219,-1.6523438 0.07031,0.035156 0.152344,0.046875 0.222656,0.046875 0.234375,0 0.609375,-0.140625 0.609375,-0.609375 0,-0.3984375 -0.269531,-0.6210937 -0.609375,-0.6210937 -0.257812,0 -0.621093,0.1289062 -0.621093,0.6679687 0,1.1953125 0.949218,2.5429688 2.496093,2.5429688 1.582032,0 2.964844,-1.3242188 2.964844,-3.09375 0,-1.6640625 -1.125,-3.046875 -2.589844,-3.046875 -0.785156,0 -1.40625,0.3515625 -1.769531,0.7382812 z m 0,0"
         style="fill:#000000;fill-opacity:1;fill-rule:nonzero;stroke:none" />
    </g>
    <path
       id="path40"
       d="m 299.76606,69.902818 1.18244,-2.850303"
       style="fill:none;stroke:#000000;stroke-width:0.8;stroke-linecap:square;stroke-linejoin:round;stroke-miterlimit:10;stroke-dasharray:none;stroke-opacity:1"
       transform="matrix(1.3333333,0,0,-1.3333333,0,480)" />
    <g
       id="g40"
       aria-label="1.0"
       transform="matrix(1.3333333,0,0,1.3333333,392.53383,424.0878)">
      <path
         id="path41"
         d="m 4.0205266,-8.9428035 c 0,-0.3164062 0,-0.328125 -0.28125,-0.328125 -0.3398437,0.375 -1.03125,0.890625 -2.4726562,0.890625 v 0.3984375 c 0.328125,0 1.0195312,0 1.7929687,-0.3632812 v 7.265625 c 0,0.50390624 -0.046875,0.66796874 -1.2773437,0.66796874 H 1.3486516 v 0.41015625 c 0.3867188,-0.0234375 1.734375,-0.0234375 2.1914063,-0.0234375 0.46875,0 1.8046875,0 2.1796875,0.0234375 V -0.41155346 H 5.2861516 c -1.2304687,0 -1.265625,-0.1640625 -1.265625,-0.66796874 z m 0,0"
         style="fill:#000000;fill-opacity:1;fill-rule:nonzero;stroke:none" />
      <path
         id="path42"
         d="m 9.3935735,-0.66936596 c 0,-0.41015624 -0.3398438,-0.67968754 -0.6679688,-0.67968754 -0.4101562,0 -0.6796875,0.328125 -0.6796875,0.66796879 0,0.3984375 0.328125,0.6796875 0.6679688,0.6796875 0.3984375,0 0.6796875,-0.33984375 0.6796875,-0.66796875 z m 0,0"
         style="fill:#000000;fill-opacity:1;fill-rule:nonzero;stroke:none" />
      <path
         id="path43"
         d="m 16.867206,-4.466241 c 0,-1.1601562 -0.07031,-2.2851562 -0.574218,-3.3398437 -0.5625,-1.1601563 -1.570313,-1.4648438 -2.25,-1.4648438 -0.808594,0 -1.804688,0.3984375 -2.320313,1.5585938 -0.386719,0.8789062 -0.527344,1.7460937 -0.527344,3.2460937 0,1.359375 0.09375,2.3671875 0.597657,3.3632813 0.539062,1.05468749 1.5,1.39453124 2.226562,1.39453124 1.21875,0 1.910156,-0.7265625 2.320313,-1.53515624 0.503906,-1.0429688 0.527343,-2.4140625 0.527343,-3.2226563 z M 14.01955,0.01032154 c -0.445312,0 -1.347656,-0.24609375 -1.617187,-1.76953124 -0.152344,-0.8320313 -0.152344,-1.8984375 -0.152344,-2.8710938 0,-1.1484375 0,-2.1796875 0.222656,-3 0.246094,-0.9375 0.949219,-1.3710937 1.546875,-1.3710937 0.539063,0 1.347656,0.328125 1.605469,1.5234375 0.1875,0.796875 0.1875,1.8984375 0.1875,2.8476562 0,0.9375 0,1.9921875 -0.152344,2.8476563 -0.269531,1.53515624 -1.148437,1.79296874 -1.640625,1.79296874 z m 0,0"
         style="fill:#000000;fill-opacity:1;fill-rule:nonzero;stroke:none" />
    </g>
    <path
       id="path44"
       d="m 6.6046551,-5.7039437 c -0.4453393,0.09722 -0.5965947,0.4355265 -0.5998271,0.7060555 0.00266,0.3299923 0.2511323,0.4370257 0.4505363,0.4449922 0.4244408,-0.00508 0.7191008,-0.3645172 0.7094011,-0.742311 0.011083,-0.587705 -0.6689926,-0.8552306 -1.2461905,-0.8534974 -0.8593886,-0.00265 -1.3308209,0.8338742 -1.4506706,1.0928573 -0.3333429,-1.0339675 -1.1869586,-1.09493 -1.4469805,-1.085346 -1.4249248,2.34e-4 -2.15891709,1.8235066 -2.16561327,2.1290208 0.005889,0.059463 0.0467627,0.1223903 0.15171827,0.1327817 0.1061102,-0.00127 0.1503322,-0.0911 0.1677669,-0.1482544 0.4602309,-1.5559759 1.4079478,-1.8507541 1.8195723,-1.8453283 0.6238448,0.00289 0.7421953,0.5916291 0.7320353,0.9321286 0.00497,0.3066688 -0.072856,0.6169172 -0.234271,1.2957226 l -0.4832072,1.9069825 c -0.2114103,0.82694406 -0.6059446,1.60042933 -1.3475614,1.59765982 -0.071125,0.004734 -0.4244407,0.005081 -0.71263593,-0.17654089 C 1.4418686,-0.42128452 1.5534047,-0.83417927 1.559062,-1.0102599 1.549478,-1.2702818 1.3429149,-1.4438217 1.0957093,-1.4447449 c -0.34165401,0.0015 -0.71101849,0.2828851 -0.70824642,0.73064931 5.7857e-4,0.58885962 0.65733082,0.85407596 1.24619042,0.85349738 0.6833081,-0.003003 1.1585513,-0.52120098 1.4518252,-1.10451902 0.2246922,0.82301743 0.915275,1.10335931 1.4330096,1.10751486 1.4249248,-2.3399e-4 2.1705788,-1.82235203 2.1656133,-2.12902083 0.00693,-0.06997 -0.05727,-0.1352067 -0.1400565,-0.1316271 -0.1177719,1.157e-4 -0.1363613,0.068932 -0.1712308,0.1832396 -0.3684387,1.22355869 -1.1782927,1.79105945 -1.8149538,1.79868136 -0.4944112,-0.001846 -0.752471,-0.36890162 -0.7542042,-0.94609946 -0.00612,-0.2950072 0.063619,-0.5236234 0.2831114,-1.4321996 l 0.4820526,-1.8953208 c 0.2137195,-0.8502675 0.6981996,-1.4617589 1.3348607,-1.4693808 0.034985,0.00346 0.4116245,0.00543 0.7009743,0.1753863 z m 0,0"
       style="fill:#000000;fill-opacity:1;fill-rule:nonzero;stroke:none"
       aria-label="x"
       transform="matrix(1.326846,-0.13136801,0.13136801,1.326846,275.8883,456.04527)" />
    <path
       id="path45"
       d="M 2.9724022,-6.2303374 C 2.9733254,-6.477543 2.9523111,-6.5031757 2.7167673,-6.5029443 2.1133607,-5.8796755 1.2061705,-5.8752859 0.912318,-5.8808275 L 0.906776,-5.586975 c 0.1877423,0.00681 0.776602,0.00623 1.3080761,-0.2473239 l -0.00438,5.03971467 c -8.074e-4,0.3649775 -0.02517,0.49210195 -0.9428671,0.48367514 l -0.30666887,0.004966 0.004966,0.30666883865 C 1.3098685,-0.0240999 2.1925807,-0.0191369 2.593698,-0.02652738 c 0.3999627,0.0042713 1.2721677,-0.0035821 1.6220196,0.03105598 l -0.00497,-0.30666884 -0.317176,-0.007851 c -0.8955285,0.005544 -0.9306294,-0.1156916 -0.9298219,-0.4806691 z m 0,0"
       style="fill:#000000;fill-opacity:1;fill-rule:nonzero;stroke:none"
       aria-label="1"
       transform="matrix(1.326846,-0.13136801,0.13136801,1.326846,286.46048,457.80171)" />
    <path
       id="path46"
       d="M 72.731599,160.13409 98.828379,49.02095"
       style="fill:none;stroke:#000000;stroke-width:0.8;stroke-linecap:square;stroke-linejoin:round;stroke-miterlimit:10;stroke-dasharray:none;stroke-opacity:1"
       transform="matrix(1.3333333,0,0,-1.3333333,0,480)" />
    <path
       id="path47"
       d="M 98.743161,56.956418 93.526387,56.44344"
       style="fill:none;stroke:#000000;stroke-width:0.8;stroke-linecap:square;stroke-linejoin:round;stroke-miterlimit:10;stroke-dasharray:none;stroke-opacity:1"
       transform="matrix(1.3333333,0,0,-1.3333333,0,480)" />
    <g
       id="g47"
       aria-label="−1.0"
       transform="matrix(1.3333333,0,0,1.3333333,91.481209,431.59083)">
      <path
         id="path48"
         d="m 9.1869447,-3.2116757 c 0.234375,0 0.4921875,0 0.4921875,-0.28125 0,-0.2695312 -0.2578125,-0.2695312 -0.4921875,-0.2695312 h -7.546875 c -0.234375,0 -0.4804688,0 -0.4804688,0.2695312 0,0.28125 0.2460938,0.28125 0.4804688,0.28125 z m 0,0"
         style="fill:#000000;fill-opacity:1;fill-rule:nonzero;stroke:none" />
      <path
         id="path49"
         d="m 14.867609,-8.9421444 c 0,-0.3164063 0,-0.328125 -0.28125,-0.328125 -0.339844,0.375 -1.03125,0.890625 -2.472656,0.890625 v 0.3984375 c 0.328125,0 1.019531,0 1.792968,-0.3632813 v 7.265625 c 0,0.50390626 -0.04687,0.66796876 -1.277343,0.66796876 H 12.195734 V -7.381916e-4 C 12.582453,-0.02417569 13.930109,-0.02417569 14.38714,-0.02417569 c 0.46875,0 1.804688,0 2.179688,0.0234374984 V -0.41089444 h -0.433594 c -1.230469,0 -1.265625,-0.1640625 -1.265625,-0.66796876 z m 0,0"
         style="fill:#000000;fill-opacity:1;fill-rule:nonzero;stroke:none" />
      <path
         id="path50"
         d="m 20.243585,-0.66870694 c 0,-0.41015626 -0.339843,-0.67968746 -0.667968,-0.67968746 -0.410157,0 -0.679688,0.328125 -0.679688,0.66796871 0,0.3984375 0.328125,0.6796874984 0.667969,0.6796874984 0.398437,0 0.679687,-0.3398437484 0.679687,-0.6679687484 z m 0,0"
         style="fill:#000000;fill-opacity:1;fill-rule:nonzero;stroke:none" />
      <path
         id="path51"
         d="m 27.717218,-4.4655819 c 0,-1.1601563 -0.07031,-2.2851563 -0.574219,-3.3398438 -0.5625,-1.1601562 -1.570312,-1.4648437 -2.25,-1.4648437 -0.808593,0 -1.804687,0.3984375 -2.320312,1.5585937 -0.386719,0.8789063 -0.527344,1.7460938 -0.527344,3.2460938 0,1.359375 0.09375,2.3671875 0.597656,3.3632812 0.539063,1.05468751 1.5,1.39453126 2.226563,1.39453126 1.21875,0 1.910156,-0.7265625 2.320312,-1.53515626 0.503907,-1.0429687 0.527344,-2.4140625 0.527344,-3.2226562 z m -2.847656,4.47656246 c -0.445313,0 -1.347656,-0.24609375 -1.617188,-1.76953126 -0.152343,-0.8320312 -0.152343,-1.8984375 -0.152343,-2.8710937 0,-1.1484375 0,-2.1796875 0.222656,-3 0.246094,-0.9375 0.949219,-1.3710938 1.546875,-1.3710938 0.539062,0 1.347656,0.328125 1.605469,1.5234375 0.1875,0.796875 0.1875,1.8984375 0.1875,2.8476563 0,0.9375 0,1.9921875 -0.152344,2.8476562 -0.269531,1.53515626 -1.148438,1.79296876 -1.640625,1.79296876 z m 0,0"
         style="fill:#000000;fill-opacity:1;fill-rule:nonzero;stroke:none" />
    </g>
    <path
       id="path52"
       d="M 92.633241,82.801617 87.530439,82.311313"
       style="fill:none;stroke:#000000;stroke-width:0.8;stroke-linecap:square;stroke-linejoin:round;stroke-miterlimit:10;stroke-dasharray:none;stroke-opacity:1"
       transform="matrix(1.3333333,0,0,-1.3333333,0,480)" />
    <g
       id="g52"
       aria-label="−0.5"
       transform="matrix(1.3333333,0,0,1.3333333,83.823565,396.86911)">
      <path
         id="path53"
         d="m 9.1879904,-3.2123763 c 0.234375,0 0.4921875,0 0.4921875,-0.28125 0,-0.2695313 -0.2578125,-0.2695313 -0.4921875,-0.2695313 h -7.546875 c -0.234375,0 -0.4804688,0 -0.4804688,0.2695313 0,0.28125 0.2460938,0.28125 0.4804688,0.28125 z m 0,0"
         style="fill:#000000;fill-opacity:1;fill-rule:nonzero;stroke:none" />
      <path
         id="path54"
         d="m 17.095217,-4.4662826 c 0,-1.1601562 -0.07031,-2.2851562 -0.574219,-3.3398437 -0.5625,-1.1601563 -1.570312,-1.4648438 -2.25,-1.4648438 -0.808594,0 -1.804687,0.3984375 -2.320312,1.5585938 -0.386719,0.8789062 -0.527344,1.7460937 -0.527344,3.2460937 0,1.359375 0.09375,2.3671875 0.597656,3.3632813 0.539063,1.0546875 1.5,1.39453125 2.226563,1.39453125 1.21875,0 1.910156,-0.7265625 2.320312,-1.53515625 0.503906,-1.0429688 0.527344,-2.4140625 0.527344,-3.2226563 z m -2.847656,4.47656255 c -0.445313,0 -1.347657,-0.24609375 -1.617188,-1.76953125 -0.152344,-0.8320313 -0.152344,-1.8984375 -0.152344,-2.8710938 0,-1.1484375 0,-2.1796875 0.222657,-3 0.246093,-0.9375 0.949218,-1.3710937 1.546875,-1.3710937 0.539062,0 1.347656,0.328125 1.605468,1.5234375 0.1875,0.796875 0.1875,1.8984375 0.1875,2.8476562 0,0.9375 0,1.9921875 -0.152343,2.8476563 -0.269532,1.53515625 -1.148438,1.79296875 -1.640625,1.79296875 z m 0,0"
         style="fill:#000000;fill-opacity:1;fill-rule:nonzero;stroke:none" />
      <path
         id="path55"
         d="m 20.241701,-0.66940755 c 0,-0.41015625 -0.339843,-0.67968755 -0.667968,-0.67968755 -0.410157,0 -0.679688,0.328125 -0.679688,0.6679688 0,0.3984375 0.328125,0.6796875 0.667969,0.6796875 0.398437,0 0.679687,-0.33984375 0.679687,-0.66796875 z m 0,0"
         style="fill:#000000;fill-opacity:1;fill-rule:nonzero;stroke:none" />
      <path
         id="path56"
         d="m 23.25049,-7.9936263 c 0.597657,0.1992187 1.089844,0.2109375 1.242188,0.2109375 1.582031,0 2.578125,-1.1601563 2.578125,-1.3476563 0,-0.058594 -0.02344,-0.1289062 -0.105469,-0.1289062 -0.03516,0 -0.05859,0 -0.1875,0.058594 -0.773437,0.328125 -1.441406,0.375 -1.804687,0.375 -0.925782,0 -1.582032,-0.28125 -1.839844,-0.3984375 -0.105469,-0.035156 -0.128906,-0.035156 -0.140625,-0.035156 -0.117188,0 -0.117188,0.082031 -0.117188,0.3046875 v 4.1367187 c 0,0.2578125 0,0.3398438 0.164063,0.3398438 0.07031,0 0.09375,-0.011719 0.234375,-0.1757813 0.386719,-0.5742187 1.042969,-0.9140625 1.734375,-0.9140625 0.738281,0 1.101562,0.6796875 1.21875,0.9257813 0.234375,0.5390625 0.246094,1.21875 0.246094,1.7578125 0,0.5273437 0,1.3242187 -0.386719,1.9453125 -0.304688,0.50390625 -0.855469,0.85546875 -1.464844,0.85546875 -0.925781,0 -1.828125,-0.6328125 -2.074219,-1.65234375 0.07031,0.035156 0.152344,0.046875 0.222657,0.046875 0.234375,0 0.609375,-0.140625 0.609375,-0.609375 0,-0.3984375 -0.269532,-0.6210938 -0.609375,-0.6210938 -0.257813,0 -0.621094,0.1289063 -0.621094,0.6679688 0,1.1953125 0.949219,2.54296875 2.496094,2.54296875 1.582031,0 2.964843,-1.32421875 2.964843,-3.09375005 0,-1.6640625 -1.125,-3.046875 -2.589843,-3.046875 -0.785157,0 -1.40625,0.3515625 -1.769532,0.7382813 z m 0,0"
         style="fill:#000000;fill-opacity:1;fill-rule:nonzero;stroke:none" />
    </g>
    <path
       id="path57"
       d="m 86.79041,107.51702 -4.9937,-0.4691"
       style="fill:none;stroke:#000000;stroke-width:0.8;stroke-linecap:square;stroke-linejoin:round;stroke-miterlimit:10;stroke-dasharray:none;stroke-opacity:1"
       transform="matrix(1.3333333,0,0,-1.3333333,0,480)" />
    <g
       id="g57"
       aria-label="0.0"
       transform="matrix(1.3333333,0,0,1.3333333,83.732282,363.66275)">
      <path
         id="path58"
         d="m 6.2447341,-4.4638602 c 0,-1.1601563 -0.070312,-2.2851563 -0.5742187,-3.3398438 -0.5625,-1.1601562 -1.5703125,-1.4648437 -2.25,-1.4648437 -0.8085938,0 -1.8046875,0.3984375 -2.3203125,1.5585937 -0.38671877,0.8789063 -0.52734377,1.7460938 -0.52734377,3.2460938 0,1.359375 0.09375,2.3671875 0.59765627,3.3632812 0.5390625,1.05468754 1.5,1.39453129 2.2265625,1.39453129 1.21875,0 1.9101562,-0.7265625 2.3203125,-1.53515629 0.5039062,-1.0429687 0.5273437,-2.4140625 0.5273437,-3.2226562 z M 3.3970779,0.01270229 c -0.4453125,0 -1.3476563,-0.24609375 -1.6171875,-1.76953129 -0.1523438,-0.8320312 -0.1523438,-1.8984375 -0.1523438,-2.8710937 0,-1.1484375 0,-2.1796875 0.2226563,-3 0.2460937,-0.9375 0.9492187,-1.3710938 1.546875,-1.3710938 0.5390625,0 1.3476562,0.328125 1.6054687,1.5234375 0.1875,0.796875 0.1875,1.8984375 0.1875,2.8476563 0,0.9375 0,1.9921875 -0.1523437,2.8476562 -0.2695313,1.53515629 -1.1484375,1.79296879 -1.640625,1.79296879 z m 0,0"
         style="fill:#000000;fill-opacity:1;fill-rule:nonzero;stroke:none" />
      <path
         id="path59"
         d="m 9.3941482,-0.66698521 c 0,-0.41015629 -0.3398438,-0.67968749 -0.6679688,-0.67968749 -0.4101562,0 -0.6796875,0.328125 -0.6796875,0.66796874 0,0.3984375 0.328125,0.6796874958 0.6679688,0.6796874958 0.3984375,0 0.6796875,-0.3398437458 0.6796875,-0.6679687458 z m 0,0"
         style="fill:#000000;fill-opacity:1;fill-rule:nonzero;stroke:none" />
      <path
         id="path60"
         d="m 16.867781,-4.4638602 c 0,-1.1601563 -0.07031,-2.2851563 -0.574219,-3.3398438 -0.5625,-1.1601562 -1.570312,-1.4648437 -2.25,-1.4648437 -0.808593,0 -1.804687,0.3984375 -2.320312,1.5585937 -0.386719,0.8789063 -0.527344,1.7460938 -0.527344,3.2460938 0,1.359375 0.09375,2.3671875 0.597656,3.3632812 0.539063,1.05468754 1.5,1.39453129 2.226563,1.39453129 1.21875,0 1.910156,-0.7265625 2.320312,-1.53515629 0.503907,-1.0429687 0.527344,-2.4140625 0.527344,-3.2226562 z m -2.847656,4.47656249 c -0.445313,0 -1.347656,-0.24609375 -1.617188,-1.76953129 -0.152343,-0.8320312 -0.152343,-1.8984375 -0.152343,-2.8710937 0,-1.1484375 0,-2.1796875 0.222656,-3 0.246094,-0.9375 0.949219,-1.3710938 1.546875,-1.3710938 0.539062,0 1.347656,0.328125 1.605469,1.5234375 0.1875,0.796875 0.1875,1.8984375 0.1875,2.8476563 0,0.9375 0,1.9921875 -0.152344,2.8476562 -0.269531,1.53515629 -1.148438,1.79296879 -1.640625,1.79296879 z m 0,0"
         style="fill:#000000;fill-opacity:1;fill-rule:nonzero;stroke:none" />
    </g>
    <path
       id="path61"
       d="m 81.197531,131.17511 -4.889164,-0.44924"
       style="fill:none;stroke:#000000;stroke-width:0.8;stroke-linecap:square;stroke-linejoin:round;stroke-miterlimit:10;stroke-dasharray:none;stroke-opacity:1"
       transform="matrix(1.3333333,0,0,-1.3333333,0,480)" />
    <g
       id="g61"
       aria-label="0.5"
       transform="matrix(1.3333333,0,0,1.3333333,76.721634,331.87468)">
      <path
         id="path62"
         d="m 6.2468602,-4.464603 c 0,-1.1601562 -0.070312,-2.2851562 -0.5742187,-3.3398437 -0.5625,-1.1601563 -1.5703125,-1.4648438 -2.25,-1.4648438 -0.8085938,0 -1.8046875,0.3984375 -2.3203125,1.5585938 -0.38671876,0.8789062 -0.52734376,1.7460937 -0.52734376,3.2460937 0,1.359375 0.09375,2.3671875 0.59765626,3.3632813 0.5390625,1.05468748 1.5,1.39453123 2.2265625,1.39453123 1.21875,0 1.9101562,-0.7265625 2.3203125,-1.53515623 0.5039062,-1.0429688 0.5273437,-2.4140625 0.5273437,-3.2226563 z M 3.399204,0.01195953 c -0.4453125,0 -1.3476563,-0.24609375 -1.6171875,-1.76953123 -0.1523438,-0.8320313 -0.1523438,-1.8984375 -0.1523438,-2.8710938 0,-1.1484375 0,-2.1796875 0.2226563,-3 0.2460937,-0.9375 0.9492187,-1.3710937 1.546875,-1.3710937 0.5390625,0 1.3476562,0.328125 1.6054687,1.5234375 0.1875,0.796875 0.1875,1.8984375 0.1875,2.8476562 0,0.9375 0,1.9921875 -0.1523437,2.8476563 -0.2695313,1.53515623 -1.1484375,1.79296873 -1.640625,1.79296873 z m 0,0"
         style="fill:#000000;fill-opacity:1;fill-rule:nonzero;stroke:none" />
      <path
         id="path63"
         d="m 9.3962743,-0.66772797 c 0,-0.41015623 -0.3398437,-0.67968753 -0.6679687,-0.67968753 -0.4101563,0 -0.6796875,0.328125 -0.6796875,0.66796878 0,0.3984375 0.328125,0.6796874979 0.6679687,0.6796874979 0.3984375,0 0.6796875,-0.3398437479 0.6796875,-0.6679687479 z m 0,0"
         style="fill:#000000;fill-opacity:1;fill-rule:nonzero;stroke:none" />
      <path
         id="path64"
         d="m 12.402134,-7.9919467 c 0.597656,0.1992187 1.089843,0.2109375 1.242187,0.2109375 1.582031,0 2.578125,-1.1601563 2.578125,-1.3476563 0,-0.058594 -0.02344,-0.1289062 -0.105469,-0.1289062 -0.03516,0 -0.05859,0 -0.1875,0.058594 -0.773437,0.328125 -1.441406,0.375 -1.804687,0.375 -0.925781,0 -1.582031,-0.28125 -1.839844,-0.3984375 -0.105469,-0.035156 -0.128906,-0.035156 -0.140625,-0.035156 -0.117187,0 -0.117187,0.082031 -0.117187,0.3046875 v 4.1367187 c 0,0.2578125 0,0.3398438 0.164062,0.3398438 0.07031,0 0.09375,-0.011719 0.234375,-0.1757813 0.386719,-0.5742187 1.042969,-0.9140625 1.734375,-0.9140625 0.738281,0 1.101563,0.6796875 1.21875,0.9257813 0.234375,0.5390625 0.246094,1.21875 0.246094,1.7578125 0,0.5273437 0,1.3242187 -0.386719,1.94531248 -0.304687,0.50390625 -0.855469,0.85546875 -1.464844,0.85546875 -0.925781,0 -1.828125,-0.6328125 -2.074218,-1.65234373 0.07031,0.035156 0.152343,0.046875 0.222656,0.046875 0.234375,0 0.609375,-0.140625 0.609375,-0.609375 0,-0.3984375 -0.269531,-0.6210938 -0.609375,-0.6210938 -0.257813,0 -0.621094,0.1289063 -0.621094,0.6679688 0,1.1953125 0.949219,2.54296873 2.496094,2.54296873 1.582031,0 2.964844,-1.32421873 2.964844,-3.09375003 0,-1.6640625 -1.125,-3.046875 -2.589844,-3.046875 -0.785156,0 -1.40625,0.3515625 -1.769531,0.7382813 z m 0,0"
         style="fill:#000000;fill-opacity:1;fill-rule:nonzero;stroke:none" />
    </g>
    <path
       id="path65"
       d="m 75.8389,153.84233 -4.788913,-0.43062"
       style="fill:none;stroke:#000000;stroke-width:0.8;stroke-linecap:square;stroke-linejoin:round;stroke-miterlimit:10;stroke-dasharray:none;stroke-opacity:1"
       transform="matrix(1.3333333,0,0,-1.3333333,0,480)" />
    <g
       id="g65"
       aria-label="1.0"
       transform="matrix(1.3333333,0,0,1.3333333,70.004159,301.41592)">
      <path
         id="path66"
         d="m 4.0193416,-8.9428028 c 0,-0.3164062 0,-0.328125 -0.28125,-0.328125 -0.3398437,0.375 -1.03125,0.890625 -2.4726562,0.890625 v 0.3984375 c 0.328125,0 1.0195312,0 1.7929687,-0.3632812 v 7.265625 c 0,0.50390622 -0.046875,0.66796872 -1.2773437,0.66796872 H 1.3474666 v 0.41015625 c 0.3867188,-0.0234375 1.734375,-0.0234375 2.1914063,-0.0234375 0.46875,0 1.8046875,0 2.1796875,0.0234375 V -0.41155278 H 5.2849666 c -1.2304687,0 -1.265625,-0.1640625 -1.265625,-0.66796872 z m 0,0"
         style="fill:#000000;fill-opacity:1;fill-rule:nonzero;stroke:none" />
      <path
         id="path67"
         d="m 9.3953182,-0.66936528 c 0,-0.41015622 -0.3398438,-0.67968752 -0.6679688,-0.67968752 -0.4101562,0 -0.6796875,0.328125 -0.6796875,0.66796877 0,0.3984375 0.328125,0.6796875 0.6679688,0.6796875 0.3984375,0 0.6796875,-0.33984375 0.6796875,-0.66796875 z m 0,0"
         style="fill:#000000;fill-opacity:1;fill-rule:nonzero;stroke:none" />
      <path
         id="path68"
         d="m 16.868951,-4.4662403 c 0,-1.1601562 -0.07031,-2.2851562 -0.574219,-3.3398437 -0.5625,-1.1601563 -1.570312,-1.4648438 -2.25,-1.4648438 -0.808594,0 -1.804687,0.3984375 -2.320312,1.5585938 -0.386719,0.8789062 -0.527344,1.7460937 -0.527344,3.2460937 0,1.359375 0.09375,2.3671875 0.597656,3.3632813 0.539063,1.05468747 1.5,1.39453122 2.226563,1.39453122 1.21875,0 1.910156,-0.7265625 2.320312,-1.53515622 0.503906,-1.0429688 0.527344,-2.4140625 0.527344,-3.2226563 z m -2.847656,4.47656252 c -0.445313,0 -1.347657,-0.24609375 -1.617188,-1.76953122 -0.152344,-0.8320313 -0.152344,-1.8984375 -0.152344,-2.8710938 0,-1.1484375 0,-2.1796875 0.222657,-3 0.246093,-0.9375 0.949218,-1.3710937 1.546875,-1.3710937 0.539062,0 1.347656,0.328125 1.605468,1.5234375 0.1875,0.796875 0.1875,1.8984375 0.1875,2.8476562 0,0.9375 0,1.9921875 -0.152343,2.8476563 -0.269532,1.53515622 -1.148438,1.79296872 -1.640625,1.79296872 z m 0,0"
         style="fill:#000000;fill-opacity:1;fill-rule:nonzero;stroke:none" />
    </g>
    <path
       id="path69"
       d="m 6.6097347,-5.6935715 c -0.4448415,0.1001612 -0.6164911,0.4209753 -0.6183971,0.6853555 0.00483,0.338189 0.267916,0.4481287 0.4611668,0.4453663 0.4207267,0.00251 0.722536,-0.3599559 0.7257403,-0.7323699 -0.00561,-0.5911608 -0.6774001,-0.8572812 -1.2571526,-0.8489942 -0.8528615,-0.00771 -1.3269282,0.8319234 -1.4596845,1.0896465 -0.3218363,-1.0385989 -1.1753884,-1.0946184 -1.4397686,-1.0965244 -1.4212057,0.00326 -2.16260816,1.8273752 -2.16114411,2.1286598 -0.001989,0.059721 0.0416556,0.1301598 0.14968931,0.1314581 0.096625,-0.00138 0.1267898,-0.07856 0.1542747,-0.1443305 0.4697574,-1.5388247 1.406372,-1.8364631 1.8156903,-1.8366289 0.6253858,0.00243 0.7645231,0.5888405 0.7693572,0.9270294 -0.00994,0.2986052 -0.087648,0.6294464 -0.2544634,1.2884494 l -0.48437,1.9085592 c -0.2096864,0.84153618 -0.605276,1.60329697 -1.3527833,1.60829681 -0.071129,-0.004668 -0.4207266,-0.002514 -0.7046363,-0.17753326 0.5045626,-0.0981724 0.6010222,-0.50887182 0.5955804,-0.69071435 0.00191,-0.2643802 -0.1967866,-0.4434604 -0.4497584,-0.4426869 -0.34691788,-0.00925 -0.71786775,0.2888266 -0.71433196,0.73504934 -0.003121,0.57707307 0.66331226,0.86601008 1.25447316,0.86040255 0.6851068,0.00442 1.1465497,-0.52519708 1.4395473,-1.10641364 0.2278074,0.8239126 0.9311454,1.1094796 1.4484974,1.1106121 1.4212058,-0.00326 2.1652877,-1.83878355 2.1638236,-2.14006815 0.00467,-0.071129 -0.055743,-0.1214309 -0.138281,-0.1287786 -0.119442,-0.00398 -0.1381981,0.07588 -0.1764007,0.1872843 -0.383325,1.22207122 -1.1909952,1.79074696 -1.8163809,1.78831618 -0.4945355,0.004226 -0.7583908,-0.3586852 -0.7552695,-0.93575828 -0.00146,-0.3012846 0.060854,-0.5153632 0.2892961,-1.4367575 l 0.4816905,-1.8971509 c 0.1982782,-0.8442156 0.6811566,-1.4650989 1.3179507,-1.4599887 0.036904,-0.00337 0.4207266,0.00251 0.7160446,0.1802127 z m 0,0"
       style="fill:#000000;fill-opacity:1;fill-rule:nonzero;stroke:none"
       aria-label="x"
       transform="matrix(0.30486011,1.2980131,-1.2980131,0.30486011,67.688375,359.03903)" />
    <path
       id="path70"
       d="m 4.5090742,-1.7225483 -0.2757885,-0.00459 c -0.018065,0.128171 -0.092316,0.7005758 -0.2264537,0.86167338 -0.05566,0.0832282 -0.7179506,0.0841675 -0.9226097,0.0842504 l -1.7338987,0.002044 0.9618621,-0.91766528 c 1.6004792,-1.3815945 2.2041808,-1.9018746 2.1984075,-2.9023537 -0.0018,-1.1199212 -0.9254275,-1.9026202 -2.1305657,-1.896764 -1.1313295,-8.838e-4 -1.89190243,0.8797942 -1.88483086,1.7722396 -0.004503,0.4804477 0.41691469,0.531274 0.51354016,0.5298929 0.2046591,-8.29e-5 0.5038719,-0.1464851 0.5017173,-0.4960824 0.00994,-0.2986051 -0.2035266,-0.5172691 -0.5048112,-0.5158051 -0.0483127,6.906e-4 -0.0852171,0.00406 -0.11339262,0.021518 0.22584592,-0.7053269 0.85244712,-1.015589 1.38120752,-1.0117771 1.0004791,-0.00577 1.3350219,0.9274713 1.3332817,1.6011698 0.00577,1.0004791 -0.7360435,1.801299 -1.2149443,2.3027402 L 0.61171103,-0.3507598 C 0.4909707,-0.24670377 0.49702015,-0.2212077 0.4944236,-0.00514023 l 3.7435858,4.9689e-4 z m 0,0"
       style="fill:#000000;fill-opacity:1;fill-rule:nonzero;stroke:none"
       aria-label="2"
       transform="matrix(0.30486011,1.2980131,-1.2980131,0.30486011,67.338692,369.75042)" />
    <path
       id="path71"
       d="M 72.731599,160.13409 67.673736,294.26215"
       style="fill:none;stroke:#000000;stroke-width:0.8;stroke-linecap:square;stroke-linejoin:round;stroke-miterlimit:10;stroke-dasharray:none;stroke-opacity:1"
       transform="matrix(1.3333333,0,0,-1.3333333,0,480)" />
    <path
       id="path72"
       d="m 74.013087,168.47436 -4.773312,-0.42323"
       style="fill:none;stroke:#000000;stroke-width:0.8;stroke-linecap:square;stroke-linejoin:round;stroke-miterlimit:10;stroke-dasharray:none;stroke-opacity:1"
       transform="matrix(1.3333333,0,0,-1.3333333,0,480)" />
    <g
       id="g72"
       aria-label="−1.0"
       transform="matrix(1.3333333,0,0,1.3333333,57.937311,261.49113)">
      <path
         id="path73"
         d="m 9.1876414,-3.2101466 c 0.234375,0 0.4921875,0 0.4921875,-0.28125 0,-0.2695313 -0.2578125,-0.2695313 -0.4921875,-0.2695313 h -7.546875 c -0.234375,0 -0.4804688,0 -0.4804688,0.2695313 0,0.28125 0.2460938,0.28125 0.4804688,0.28125 z m 0,0"
         style="fill:#000000;fill-opacity:1;fill-rule:nonzero;stroke:none" />
      <path
         id="path74"
         d="m 14.868305,-8.9406154 c 0,-0.3164062 0,-0.328125 -0.28125,-0.328125 -0.339843,0.375 -1.03125,0.890625 -2.472656,0.890625 v 0.3984375 c 0.328125,0 1.019531,0 1.792969,-0.3632812 v 7.265625 c 0,0.50390621 -0.04687,0.66796871 -1.277344,0.66796871 H 12.19643 V 7.908628e-4 C 12.583149,-0.02264664 13.930805,-0.02264664 14.387837,-0.02264664 c 0.46875,0 1.804687,0 2.179687,0.0234375028 V -0.40936539 H 16.13393 c -1.230468,0 -1.265625,-0.1640625 -1.265625,-0.66796871 z m 0,0"
         style="fill:#000000;fill-opacity:1;fill-rule:nonzero;stroke:none" />
      <path
         id="path75"
         d="m 20.244282,-0.66717789 c 0,-0.41015621 -0.339844,-0.67968751 -0.667969,-0.67968751 -0.410156,0 -0.679687,0.328125 -0.679687,0.66796876 0,0.3984375 0.328125,0.6796875028 0.667969,0.6796875028 0.398437,0 0.679687,-0.3398437528 0.679687,-0.6679687528 z m 0,0"
         style="fill:#000000;fill-opacity:1;fill-rule:nonzero;stroke:none" />
      <path
         id="path76"
         d="m 27.714985,-4.4640529 c 0,-1.1601562 -0.07031,-2.2851562 -0.574219,-3.3398437 -0.5625,-1.1601563 -1.570312,-1.4648438 -2.25,-1.4648438 -0.808593,0 -1.804687,0.3984375 -2.320312,1.5585938 -0.386719,0.8789062 -0.527344,1.7460937 -0.527344,3.2460937 0,1.359375 0.09375,2.3671875 0.597656,3.3632813 0.539063,1.05468746 1.5,1.39453121 2.226563,1.39453121 1.21875,0 1.910156,-0.7265625 2.320312,-1.53515621 0.503907,-1.0429688 0.527344,-2.4140625 0.527344,-3.2226563 z m -2.847656,4.47656251 c -0.445313,0 -1.347656,-0.24609375 -1.617188,-1.76953121 -0.152343,-0.8320313 -0.152343,-1.8984375 -0.152343,-2.8710938 0,-1.1484375 0,-2.1796875 0.222656,-3 0.246094,-0.9375 0.949219,-1.3710937 1.546875,-1.3710937 0.539062,0 1.347656,0.328125 1.605469,1.5234375 0.1875,0.796875 0.1875,1.8984375 0.1875,2.8476562 0,0.9375 0,1.9921875 -0.152344,2.8476563 -0.269531,1.53515621 -1.148438,1.79296871 -1.640625,1.79296871 z m 0,0"
         style="fill:#000000;fill-opacity:1;fill-rule:nonzero;stroke:none" />
    </g>
    <path
       id="path77"
       d="m 72.955214,196.91978 -4.817971,-0.41552"
       style="fill:none;stroke:#000000;stroke-width:0.8;stroke-linecap:square;stroke-linejoin:round;stroke-miterlimit:10;stroke-dasharray:none;stroke-opacity:1"
       transform="matrix(1.3333333,0,0,-1.3333333,0,480)" />
    <g
       id="g77"
       aria-label="−0.5"
       transform="matrix(1.3333333,0,0,1.3333333,56.332491,223.694)">
      <path
         id="path78"
         d="m 9.1871552,-3.2099543 c 0.234375,0 0.4921875,0 0.4921875,-0.28125 0,-0.2695313 -0.2578125,-0.2695313 -0.4921875,-0.2695313 h -7.546875 c -0.234375,0 -0.4804687,0 -0.4804687,0.2695313 0,0.28125 0.2460937,0.28125 0.4804687,0.28125 z m 0,0"
         style="fill:#000000;fill-opacity:1;fill-rule:nonzero;stroke:none" />
      <path
         id="path79"
         d="m 17.094382,-4.4638606 c 0,-1.1601562 -0.07031,-2.2851562 -0.574219,-3.3398437 -0.5625,-1.1601563 -1.570312,-1.4648438 -2.25,-1.4648438 -0.808594,0 -1.804687,0.3984375 -2.320312,1.5585938 -0.386719,0.8789062 -0.527344,1.7460937 -0.527344,3.2460937 0,1.359375 0.09375,2.3671875 0.597656,3.3632813 0.539063,1.05468748 1.5,1.39453123 2.226563,1.39453123 1.21875,0 1.910156,-0.7265625 2.320312,-1.53515623 0.503906,-1.0429688 0.527344,-2.4140625 0.527344,-3.2226563 z m -2.847656,4.47656253 c -0.445313,0 -1.347657,-0.24609375 -1.617188,-1.76953123 -0.152344,-0.8320313 -0.152344,-1.8984375 -0.152344,-2.8710938 0,-1.1484375 0,-2.1796875 0.222657,-3 0.246093,-0.9375 0.949218,-1.3710937 1.546875,-1.3710937 0.539062,0 1.347656,0.328125 1.605468,1.5234375 0.1875,0.796875 0.1875,1.8984375 0.1875,2.8476562 0,0.9375 0,1.9921875 -0.152343,2.8476563 -0.269532,1.53515623 -1.148438,1.79296873 -1.640625,1.79296873 z m 0,0"
         style="fill:#000000;fill-opacity:1;fill-rule:nonzero;stroke:none" />
      <path
         id="path80"
         d="m 20.243796,-0.66698557 c 0,-0.41015623 -0.339844,-0.67968753 -0.667969,-0.67968753 -0.410156,0 -0.679687,0.328125 -0.679687,0.66796878 0,0.3984375 0.328125,0.6796875015 0.667968,0.6796875015 0.398438,0 0.679688,-0.3398437515 0.679688,-0.6679687515 z m 0,0"
         style="fill:#000000;fill-opacity:1;fill-rule:nonzero;stroke:none" />
      <path
         id="path81"
         d="m 23.252585,-7.9912043 c 0.597656,0.1992187 1.089844,0.2109375 1.242187,0.2109375 1.582032,0 2.578125,-1.1601563 2.578125,-1.3476563 0,-0.058594 -0.02344,-0.1289062 -0.105468,-0.1289062 -0.03516,0 -0.05859,0 -0.1875,0.058594 -0.773438,0.328125 -1.441407,0.375 -1.804688,0.375 -0.925781,0 -1.582031,-0.28125 -1.839844,-0.3984375 -0.105468,-0.035156 -0.128906,-0.035156 -0.140625,-0.035156 -0.117187,0 -0.117187,0.082031 -0.117187,0.3046875 v 4.1367187 c 0,0.2578125 0,0.3398438 0.164062,0.3398438 0.07031,0 0.09375,-0.011719 0.234375,-0.1757813 0.386719,-0.5742187 1.042969,-0.9140625 1.734375,-0.9140625 0.738282,0 1.101563,0.6796875 1.21875,0.9257813 0.234375,0.5390625 0.246094,1.21875 0.246094,1.7578125 0,0.5273437 0,1.3242187 -0.386719,1.94531248 -0.304687,0.50390625 -0.855468,0.85546875 -1.464843,0.85546875 -0.925782,0 -1.828125,-0.6328125 -2.074219,-1.65234373 0.07031,0.035156 0.152344,0.046875 0.222656,0.046875 0.234375,0 0.609375,-0.140625 0.609375,-0.609375 0,-0.3984375 -0.269531,-0.6210938 -0.609375,-0.6210938 -0.257812,0 -0.621094,0.1289063 -0.621094,0.6679688 0,1.1953125 0.949219,2.54296873 2.496094,2.54296873 1.582031,0 2.964844,-1.32421873 2.964844,-3.09375003 0,-1.6640625 -1.125,-3.046875 -2.589844,-3.046875 -0.785156,0 -1.40625,0.3515625 -1.769531,0.7382813 z m 0,0"
         style="fill:#000000;fill-opacity:1;fill-rule:nonzero;stroke:none" />
    </g>
    <path
       id="path82"
       d="m 71.877563,225.89702 -4.863472,-0.40746"
       style="fill:none;stroke:#000000;stroke-width:0.8;stroke-linecap:square;stroke-linejoin:round;stroke-miterlimit:10;stroke-dasharray:none;stroke-opacity:1"
       transform="matrix(1.3333333,0,0,-1.3333333,0,480)" />
    <g
       id="g82"
       aria-label="0.0"
       transform="matrix(1.3333333,0,0,1.3333333,61.92998,185.19389)">
      <path
         id="path83"
         d="m 6.2458747,-4.4637795 c 0,-1.1601562 -0.070312,-2.2851562 -0.5742188,-3.3398437 -0.5625,-1.1601563 -1.5703125,-1.4648438 -2.25,-1.4648438 -0.8085937,0 -1.8046875,0.3984375 -2.3203125,1.5585938 -0.38671874,0.8789062 -0.52734374,1.7460937 -0.52734374,3.2460937 0,1.359375 0.09375,2.3671875 0.59765624,3.3632813 0.5390625,1.05468746 1.5,1.39453121 2.2265625,1.39453121 1.21875,0 1.9101563,-0.7265625 2.3203125,-1.53515621 0.5039063,-1.0429688 0.5273438,-2.4140625 0.5273438,-3.2226563 z M 3.3982184,0.01278301 c -0.4453125,0 -1.3476562,-0.24609375 -1.6171875,-1.76953121 -0.1523437,-0.8320313 -0.1523437,-1.8984375 -0.1523437,-2.8710938 0,-1.1484375 0,-2.1796875 0.2226562,-3 0.2460938,-0.9375 0.9492188,-1.3710937 1.546875,-1.3710937 0.5390625,0 1.3476563,0.328125 1.6054688,1.5234375 0.1875,0.796875 0.1875,1.8984375 0.1875,2.8476562 0,0.9375 0,1.9921875 -0.1523438,2.8476563 -0.2695312,1.53515621 -1.1484375,1.79296871 -1.640625,1.79296871 z m 0,0"
         style="fill:#000000;fill-opacity:1;fill-rule:nonzero;stroke:none" />
      <path
         id="path84"
         d="m 9.3952887,-0.66690449 c 0,-0.41015621 -0.3398437,-0.67968751 -0.6679687,-0.67968751 -0.4101563,0 -0.6796875,0.328125 -0.6796875,0.66796876 0,0.3984375 0.328125,0.6796875 0.6679687,0.6796875 0.3984375,0 0.6796875,-0.33984375 0.6796875,-0.66796875 z m 0,0"
         style="fill:#000000;fill-opacity:1;fill-rule:nonzero;stroke:none" />
      <path
         id="path85"
         d="m 16.868922,-4.4637795 c 0,-1.1601562 -0.07031,-2.2851562 -0.574219,-3.3398437 -0.5625,-1.1601563 -1.570313,-1.4648438 -2.25,-1.4648438 -0.808594,0 -1.804688,0.3984375 -2.320313,1.5585938 -0.386718,0.8789062 -0.527343,1.7460937 -0.527343,3.2460937 0,1.359375 0.09375,2.3671875 0.597656,3.3632813 0.539062,1.05468746 1.5,1.39453121 2.226562,1.39453121 1.21875,0 1.910157,-0.7265625 2.320313,-1.53515621 0.503906,-1.0429688 0.527344,-2.4140625 0.527344,-3.2226563 z m -2.847657,4.47656251 c -0.445312,0 -1.347656,-0.24609375 -1.617187,-1.76953121 -0.152344,-0.8320313 -0.152344,-1.8984375 -0.152344,-2.8710938 0,-1.1484375 0,-2.1796875 0.222656,-3 0.246094,-0.9375 0.949219,-1.3710937 1.546875,-1.3710937 0.539063,0 1.347657,0.328125 1.605469,1.5234375 0.1875,0.796875 0.1875,1.8984375 0.1875,2.8476562 0,0.9375 0,1.9921875 -0.152344,2.8476563 -0.269531,1.53515621 -1.148437,1.79296871 -1.640625,1.79296871 z m 0,0"
         style="fill:#000000;fill-opacity:1;fill-rule:nonzero;stroke:none" />
    </g>
    <path
       id="path86"
       d="m 70.779574,255.42113 -4.909842,-0.39901"
       style="fill:none;stroke:#000000;stroke-width:0.8;stroke-linecap:square;stroke-linejoin:round;stroke-miterlimit:10;stroke-dasharray:none;stroke-opacity:1"
       transform="matrix(1.3333333,0,0,-1.3333333,0,480)" />
    <g
       id="g86"
       aria-label="0.5"
       transform="matrix(1.3333333,0,0,1.3333333,60.264624,145.97101)">
      <path
         id="path87"
         d="m 6.2468449,-4.4636113 c 0,-1.1601562 -0.070312,-2.2851562 -0.5742188,-3.3398437 -0.5625,-1.1601563 -1.5703125,-1.4648438 -2.25,-1.4648438 -0.8085937,0 -1.8046875,0.3984375 -2.3203125,1.5585938 -0.38671873,0.8789062 -0.52734373,1.7460937 -0.52734373,3.2460937 0,1.359375 0.09375,2.3671875 0.59765623,3.3632813 0.5390625,1.05468748 1.5,1.39453123 2.2265625,1.39453123 1.21875,0 1.9101563,-0.7265625 2.3203125,-1.53515623 0.5039063,-1.0429688 0.5273438,-2.4140625 0.5273438,-3.2226563 z M 3.3991886,0.01295123 c -0.4453125,0 -1.3476562,-0.24609375 -1.6171875,-1.76953123 -0.1523437,-0.8320313 -0.1523437,-1.8984375 -0.1523437,-2.8710938 0,-1.1484375 0,-2.1796875 0.2226562,-3 0.2460938,-0.9375 0.9492188,-1.3710937 1.546875,-1.3710937 0.5390625,0 1.3476563,0.328125 1.6054688,1.5234375 0.1875,0.796875 0.1875,1.8984375 0.1875,2.8476562 0,0.9375 0,1.9921875 -0.1523438,2.8476563 -0.2695312,1.53515623 -1.1484375,1.79296873 -1.640625,1.79296873 z m 0,0"
         style="fill:#000000;fill-opacity:1;fill-rule:nonzero;stroke:none" />
      <path
         id="path88"
         d="m 9.3962589,-0.66673627 c 0,-0.41015623 -0.3398437,-0.67968753 -0.6679687,-0.67968753 -0.4101563,0 -0.6796875,0.328125 -0.6796875,0.66796878 0,0.3984375 0.328125,0.6796875 0.6679687,0.6796875 0.3984375,0 0.6796875,-0.33984375 0.6796875,-0.66796875 z m 0,0"
         style="fill:#000000;fill-opacity:1;fill-rule:nonzero;stroke:none" />
      <path
         id="path89"
         d="m 12.402118,-7.990955 c 0.597657,0.1992187 1.089844,0.2109375 1.242188,0.2109375 1.582031,0 2.578125,-1.1601563 2.578125,-1.3476563 0,-0.058594 -0.02344,-0.1289062 -0.105469,-0.1289062 -0.03516,0 -0.05859,0 -0.1875,0.058594 -0.773437,0.328125 -1.441406,0.375 -1.804687,0.375 -0.925782,0 -1.582032,-0.28125 -1.839844,-0.3984375 -0.105469,-0.035156 -0.128906,-0.035156 -0.140625,-0.035156 -0.117188,0 -0.117188,0.082031 -0.117188,0.3046875 v 4.1367187 c 0,0.2578125 0,0.3398438 0.164063,0.3398438 0.07031,0 0.09375,-0.011719 0.234375,-0.1757813 0.386719,-0.5742187 1.042969,-0.9140625 1.734375,-0.9140625 0.738281,0 1.101562,0.6796875 1.21875,0.9257813 0.234375,0.5390625 0.246094,1.21875 0.246094,1.7578125 0,0.5273437 0,1.3242187 -0.386719,1.94531248 -0.304688,0.50390625 -0.855469,0.85546875 -1.464844,0.85546875 -0.925781,0 -1.828125,-0.6328125 -2.074219,-1.65234373 0.07031,0.035156 0.152344,0.046875 0.222657,0.046875 0.234375,0 0.609375,-0.140625 0.609375,-0.609375 0,-0.3984375 -0.269532,-0.6210938 -0.609375,-0.6210938 -0.257813,0 -0.621094,0.1289063 -0.621094,0.6679688 0,1.1953125 0.949219,2.54296873 2.496094,2.54296873 1.582031,0 2.964843,-1.32421873 2.964843,-3.09375003 0,-1.6640625 -1.125,-3.046875 -2.589843,-3.046875 -0.785157,0 -1.40625,0.3515625 -1.769532,0.7382813 z m 0,0"
         style="fill:#000000;fill-opacity:1;fill-rule:nonzero;stroke:none" />
    </g>
    <path
       id="path90"
       d="m 69.660665,285.50774 -4.957103,-0.39016"
       style="fill:none;stroke:#000000;stroke-width:0.8;stroke-linecap:square;stroke-linejoin:round;stroke-miterlimit:10;stroke-dasharray:none;stroke-opacity:1"
       transform="matrix(1.3333333,0,0,-1.3333333,0,480)" />
    <g
       id="g90"
       aria-label="1.0"
       transform="matrix(1.3333333,0,0,1.3333333,58.567707,106.00481)">
      <path
         id="path91"
         d="m 4.0185557,-8.942087 c 0,-0.3164063 0,-0.328125 -0.28125,-0.328125 -0.3398437,0.375 -1.03125,0.890625 -2.4726562,0.890625 v 0.3984375 c 0.328125,0 1.0195312,0 1.7929687,-0.3632813 v 7.265625 c 0,0.50390629 -0.046875,0.66796879 -1.2773437,0.66796879 H 1.3466807 V -6.807649e-4 C 1.7333995,-0.02411826 3.0810557,-0.02411826 3.538087,-0.02411826 c 0.46875,0 1.8046875,0 2.1796875,0.0234374951 V -0.41083701 H 5.2841807 c -1.2304687,0 -1.265625,-0.1640625 -1.265625,-0.66796879 z m 0,0"
         style="fill:#000000;fill-opacity:1;fill-rule:nonzero;stroke:none" />
      <path
         id="path92"
         d="m 9.3945323,-0.66864951 c 0,-0.41015629 -0.3398438,-0.67968749 -0.6679688,-0.67968749 -0.4101562,0 -0.6796875,0.328125 -0.6796875,0.66796874 0,0.3984375 0.328125,0.6796874951 0.6679688,0.6796874951 0.3984375,0 0.6796875,-0.3398437451 0.6796875,-0.6679687451 z m 0,0"
         style="fill:#000000;fill-opacity:1;fill-rule:nonzero;stroke:none" />
      <path
         id="path93"
         d="m 16.868165,-4.4655245 c 0,-1.1601563 -0.07031,-2.2851563 -0.574219,-3.3398438 -0.5625,-1.1601562 -1.570312,-1.4648437 -2.25,-1.4648437 -0.808593,0 -1.804687,0.3984375 -2.320312,1.5585937 -0.386719,0.8789063 -0.527344,1.7460938 -0.527344,3.2460938 0,1.359375 0.09375,2.3671875 0.597656,3.3632812 0.539063,1.05468754 1.5,1.39453129 2.226563,1.39453129 1.21875,0 1.910156,-0.7265625 2.320312,-1.53515629 0.503907,-1.0429687 0.527344,-2.4140625 0.527344,-3.2226562 z m -2.847656,4.47656249 c -0.445313,0 -1.347656,-0.24609375 -1.617188,-1.76953129 -0.152343,-0.8320312 -0.152343,-1.8984375 -0.152343,-2.8710937 0,-1.1484375 0,-2.1796875 0.222656,-3 0.246094,-0.9375 0.949219,-1.3710938 1.546875,-1.3710938 0.539062,0 1.347656,0.328125 1.605469,1.5234375 0.1875,0.796875 0.1875,1.8984375 0.1875,2.8476563 0,0.9375 0,1.9921875 -0.152344,2.8476562 -0.269531,1.53515629 -1.148438,1.79296879 -1.640625,1.79296879 z m 0,0"
         style="fill:#000000;fill-opacity:1;fill-rule:nonzero;stroke:none" />
    </g>
    <path
       id="path94"
       d="m 6.6191909,-5.6970626 c -0.4489706,0.088613 -0.6140122,0.4224751 -0.6124584,0.6922565 -6.541e-4,0.3283336 0.253001,0.4434424 0.4525198,0.439239 0.422017,0.00419 0.7171981,-0.3599486 0.7196186,-0.7351238 -0.00134,-0.5864046 -0.6712727,-0.8579358 -1.2576772,-0.8565945 -0.8561859,0.0029 -1.3217079,0.8414174 -1.4489687,1.1063414 -0.3358737,-1.0446485 -1.1894101,-1.1120159 -1.4474811,-1.1100205 -1.4191696,0.00512 -2.1681457,1.8297548 -2.16791663,2.1346675 -0.002208,0.058552 0.0419842,0.1305811 0.14737803,0.1345554 0.1058354,-0.00774 0.1440579,-0.088384 0.1696867,-0.1460533 0.4685965,-1.5420311 1.4060848,-1.8350374 1.8168329,-1.8430026 0.6215358,-1.65e-5 0.7516918,0.5912455 0.7505961,0.9312895 2.291e-4,0.3049127 -0.081956,0.6184447 -0.2480938,1.2923504 l -0.4822859,1.9050543 c -0.2078925,0.8482373 -0.6000608,1.60743616 -1.3391424,1.61474721 -0.070263,-0.00265 -0.422017,-0.004187 -0.72030582,-0.17961418 0.50840582,-0.10982629 0.60583452,-0.5166001 0.61245842,-0.69225653 -0.00155,-0.2697814 -0.2178697,-0.4421176 -0.4754991,-0.4518326 -0.34048556,0.010615 -0.70327973,0.3018381 -0.69663933,0.74771751 0.001341,0.58640453 0.64785183,0.85705258 1.24596673,0.85615287 0.680088,0.002191 1.1575494,-0.53097661 1.4489688,-1.10634136 0.2271596,0.81773445 0.9200702,1.1018593 1.4362122,1.09786845 1.418728,0.006591 2.1798561,-1.82931327 2.1796271,-2.13422597 -0.00906,-0.070704 -0.065847,-0.1197538 -0.1478197,-0.1228449 -0.1171042,-0.00442 -0.1431746,0.064964 -0.171453,0.192895 -0.374259,1.21723026 -1.1813787,1.78487545 -1.814625,1.78445039 -0.4927211,0.004874 -0.7605236,-0.35703695 -0.7505961,-0.93128949 -2.29e-4,-0.3049127 0.055003,-0.5256444 0.2772554,-1.4437027 l 0.4822859,-1.9050543 c 0.2074509,-0.8365269 0.6880035,-1.4516679 1.3212497,-1.4512429 0.035131,0.00132 0.422017,0.00419 0.7203058,0.1796142 z m 0,0"
       style="fill:#000000;fill-opacity:1;fill-rule:nonzero;stroke:none"
       aria-label="x"
       transform="matrix(0.05024323,1.3323864,-1.3323864,0.05024323,45.264242,155.43567)" />
    <path
       id="path95"
       d="m 2.9807149,-3.4413288 c 0.9158337,-0.3407311 1.3413669,-1.0517635 1.3318479,-1.732293 0.00484,-0.7503505 -0.8292654,-1.3329767 -1.8376869,-1.3358223 -1.020132,-0.00329 -1.78085158,0.5778349 -1.78569254,1.3281854 -2.1253e-4,0.3166231 0.21566172,0.5006697 0.50886394,0.4999991 0.2814919,-0.00111 0.4763658,-0.1931241 0.4756951,-0.4863264 0.0011,-0.3400439 -0.2278137,-0.4894009 -0.5561473,-0.490055 0.2613747,-0.4005915 0.8435758,-0.6014517 1.3245865,-0.6067673 0.8089026,0.00705 0.9724236,0.6464774 0.9669119,1.1036257 6.707e-4,0.2932022 -0.052124,0.7602945 -0.3009053,1.1379068 -0.3095411,0.4339565 -0.6387578,0.4567232 -0.9211328,0.4812563 -0.2468022,0.014147 -0.270223,0.013264 -0.3404856,0.010615 -0.094125,0.00818 -0.1769812,0.028507 -0.1809555,0.1339013 -0.00486,0.1288147 0.077557,0.1201954 0.2415031,0.1263777 l 0.4575898,-0.0062 c 0.8557443,0.00882 1.2408802,0.6800549 1.2411258,1.6065034 -4.085e-4,1.25478206 -0.6707649,1.61649706 -1.1747549,1.60921908 -0.176098,0.0050866 -1.124201,-0.04239273 -1.57739142,-0.774834 C 1.2036747,-0.78765721 1.4939984,-1.022978 1.4950941,-1.363022 1.4953066,-1.6796451 1.2451843,-1.8884373 0.96369242,-1.8873251 0.71733187,-1.8848881 0.41838892,-1.7319819 0.42635409,-1.3212338 0.42880765,-0.45333739 1.3300855,0.21391135 2.4677632,0.20990396 3.687414,0.2089877 4.6001401,-0.67130628 4.6025441,-1.6680173 4.5992073,-2.5124929 3.9230772,-3.2416139 2.9807149,-3.4413288 Z m 0,0"
       style="fill:#000000;fill-opacity:1;fill-rule:nonzero;stroke:none"
       aria-label="3"
       transform="matrix(0.05024323,1.3323864,-1.3323864,0.05024323,42.866622,165.88113)" />
    <path
       id="path96"
       d="M 110.59146,66.839707 297.36188,85.066711 258.32848,178.38237 86.652962,163.06555 110.59146,66.839707"
       style="fill:none;stroke:#1f77b4;stroke-width:2;stroke-linecap:square;stroke-linejoin:round;stroke-miterlimit:10;stroke-dasharray:none;stroke-opacity:1"
       transform="matrix(1.3333333,0,0,-1.3333333,0,480)"
       clip-path="url(#clipPath97)" />
    <path
       id="path98"
       d="M 107.33305,191.46689 301.86562,208.38347 260.97304,294.63818 82.761378,280.52062 107.33305,191.46689"
       style="fill:none;stroke:#1f77b4;stroke-width:2;stroke-linecap:square;stroke-linejoin:round;stroke-miterlimit:10;stroke-dasharray:none;stroke-opacity:0.1"
       transform="matrix(1.3333333,0,0,-1.3333333,0,480)"
       clip-path="url(#clipPath99)" />
    <path
       id="path100"
       d="M 110.59146,66.839707 297.36188,85.066711 301.86562,208.38347 107.33305,191.46689 110.59146,66.839707"
       style="fill:none;stroke:#1f77b4;stroke-width:2;stroke-linecap:square;stroke-linejoin:round;stroke-miterlimit:10;stroke-dasharray:none;stroke-opacity:0.1"
       transform="matrix(1.3333333,0,0,-1.3333333,0,480)"
       clip-path="url(#clipPath101)" />
    <path
       id="path102"
       d="M 86.652962,163.06555 258.32848,178.38237 260.97304,294.63818 82.761378,280.52062 86.652962,163.06555"
       style="fill:none;stroke:#1f77b4;stroke-width:2;stroke-linecap:square;stroke-linejoin:round;stroke-miterlimit:10;stroke-dasharray:none;stroke-opacity:0.1"
       transform="matrix(1.3333333,0,0,-1.3333333,0,480)"
       clip-path="url(#clipPath103)" />
    <path
       id="path104"
       d="M 110.59146,66.839707 86.652962,163.06555 82.761378,280.52062 107.33305,191.46689 110.59146,66.839707"
       style="fill:none;stroke:#1f77b4;stroke-width:2;stroke-linecap:square;stroke-linejoin:round;stroke-miterlimit:10;stroke-dasharray:none;stroke-opacity:0.1"
       transform="matrix(1.3333333,0,0,-1.3333333,0,480)"
       clip-path="url(#clipPath105)" />
    <path
       id="path106"
       d="m 297.36188,85.066711 -39.0334,93.315659 2.64456,116.25581 40.89258,-86.25471 -4.50374,-123.316759"
       style="fill:none;stroke:#1f77b4;stroke-width:2;stroke-linecap:square;stroke-linejoin:round;stroke-miterlimit:10;stroke-dasharray:none;stroke-opacity:0.1"
       transform="matrix(1.3333333,0,0,-1.3333333,0,480)"
       clip-path="url(#clipPath107)" />
    <path
       id="path108"
       d="M 225.18857,240.43175 150.05786,126.62353"
       style="fill:none;stroke:#000000;stroke-width:5;stroke-linecap:square;stroke-linejoin:round;stroke-miterlimit:10;stroke-dasharray:none;stroke-opacity:1"
       transform="matrix(1.3333333,0,0,-1.3333333,0,480)"
       clip-path="url(#clipPath109)" />
    <path
       id="path110"
       d="M 86.652962,163.06555 258.32848,178.38237 260.97304,294.63818 82.761378,280.52062 Z"
       style="fill:#1f77b4;fill-opacity:0.1;fill-rule:nonzero;stroke:#1f77b4;stroke-width:2;stroke-linecap:butt;stroke-linejoin:round;stroke-miterlimit:10;stroke-dasharray:none;stroke-opacity:1"
       transform="matrix(1.3333333,0,0,-1.3333333,0,480)"
       clip-path="url(#clipPath111)" />
    <g
       id="g111"
       aria-label="x&#10;0"
       transform="matrix(1.3333333,0,0,1.3333333,179.23931,342.73385)">
      <path
         id="path112"
         d="m 9.4445404,-8.1324198 c -0.6445313,0.1289062 -0.8789063,0.5976562 -0.8789063,0.984375 0,0.4804687 0.375,0.6328125 0.65625,0.6328125 0.5976563,0 1.0195309,-0.515625 1.0195309,-1.0546875 0,-0.8320313 -0.9609371,-1.21875 -1.7929684,-1.21875 -1.21875,0 -1.8984375,1.1953125 -2.0742187,1.5820312 -0.4570313,-1.5 -1.6992188,-1.5820312 -2.0507813,-1.5820312 -2.0390625,0 -3.1054687,2.6132812 -3.1054687,3.046875 0,0.082031 0.070312,0.1875 0.2109375,0.1875 0.1640625,0 0.1992187,-0.1171875 0.2460937,-0.1992188 0.6796875,-2.2148437 2.0039063,-2.6367187 2.5898438,-2.6367187 0.890625,0 1.078125,0.84375 1.078125,1.3242187 0,0.4335938 -0.1289063,0.890625 -0.3632813,1.8515625 l -0.6796875,2.7304688 c -0.2929687,1.1953125 -0.8789062,2.28515624 -1.9335937,2.28515624 -0.09375,0 -0.5976563,0 -1.0078125,-0.2578125 0.7148437,-0.140625 0.8671875,-0.73828124 0.8671875,-0.97265624 0,-0.3984375 -0.2929688,-0.6445313 -0.6679688,-0.6445313 -0.4804687,0 -0.99609373,0.421875 -0.99609373,1.0546875 0,0.84375004 0.92578123,1.21875004 1.79296873,1.21875004 0.9492188,0 1.6289063,-0.76171875 2.0507813,-1.57031254 0.3164062,1.17187504 1.3125,1.57031254 2.0507812,1.57031254 2.0273438,0 3.1054688,-2.61328124 3.1054688,-3.04687504 0,-0.1054687 -0.082031,-0.1757812 -0.1992188,-0.1757812 -0.1757812,0 -0.1992187,0.09375 -0.2578125,0.2578125 -0.5390625,1.7460937 -1.6992187,2.56640624 -2.5898437,2.56640624 -0.703125,0 -1.078125,-0.515625 -1.078125,-1.33593754 0,-0.4335937 0.082031,-0.75 0.3984375,-2.0742187 l 0.703125,-2.7070313 c 0.2929687,-1.1953125 0.9726562,-2.0742187 1.8867187,-2.0742187 0.035156,0 0.5976563,0 1.0195313,0.2578125 z m 0,0"
         style="fill:#000000;fill-opacity:1;fill-rule:nonzero;stroke:none" />
      <path
         id="path113"
         d="m 14.615439,-13.85117 c 0.07031,-0.175781 0.128906,-0.292969 0.128906,-0.433594 0,-0.410156 -0.363281,-0.738281 -0.796875,-0.738281 -0.386719,0 -0.644531,0.257813 -0.738281,0.621094 l -1.664063,6.0937499 c 0,0.035156 -0.04687,0.1875 -0.04687,0.1992188 0,0.1523437 0.351563,0.2460937 0.46875,0.2460937 0.08203,0 0.09375,-0.035156 0.175782,-0.2226562 z m 0,0"
         style="fill:#000000;fill-opacity:1;fill-rule:nonzero;stroke:none" />
    </g>
    <path
       id="path114"
       d="m 9.4466876,-8.1320923 c -0.6445312,0.1289063 -0.8789062,0.5976563 -0.8789062,0.984375 0,0.4804688 0.375,0.6328125 0.65625,0.6328125 0.5976562,0 1.0195316,-0.515625 1.0195316,-1.0546875 0,-0.8320312 -0.9609379,-1.21875 -1.7929691,-1.21875 -1.21875,0 -1.8984375,1.1953125 -2.0742188,1.5820313 -0.4570312,-1.5 -1.6992187,-1.5820313 -2.0507812,-1.5820313 -2.0390625,0 -3.1054688,2.6132813 -3.1054688,3.046875 0,0.082031 0.070312,0.1875 0.2109375,0.1875 0.1640625,0 0.1992188,-0.1171875 0.2460938,-0.1992187 0.6796875,-2.2148438 2.0039062,-2.6367188 2.5898437,-2.6367188 0.890625,0 1.078125,0.84375 1.078125,1.3242188 0,0.4335937 -0.1289062,0.890625 -0.3632812,1.8515625 l -0.6796875,2.7304687 c -0.2929688,1.1953125 -0.8789063,2.28515629 -1.9335938,2.28515629 -0.09375,0 -0.5976562,0 -1.0078125,-0.2578125 0.7148438,-0.140625 0.8671875,-0.73828129 0.8671875,-0.97265629 0,-0.3984375 -0.2929687,-0.6445312 -0.6679687,-0.6445312 -0.4804688,0 -0.9960938,0.421875 -0.9960938,1.0546875 0,0.84374999 0.9257813,1.21874999 1.7929688,1.21874999 0.9492187,0 1.6289062,-0.76171875 2.0507812,-1.57031249 0.3164063,1.17187499 1.3125,1.57031249 2.0507813,1.57031249 2.0273437,0 3.1054687,-2.61328129 3.1054687,-3.04687499 0,-0.1054688 -0.082031,-0.1757813 -0.1992187,-0.1757813 -0.1757813,0 -0.1992188,0.09375 -0.2578125,0.2578125 -0.5390625,1.7460938 -1.6992188,2.56640629 -2.5898438,2.56640629 -0.703125,0 -1.078125,-0.515625 -1.078125,-1.33593749 0,-0.4335938 0.082031,-0.75 0.3984375,-2.0742188 l 0.703125,-2.7070312 c 0.2929688,-1.1953125 0.9726563,-2.0742188 1.8867188,-2.0742188 0.035156,0 0.5976562,0 1.0195312,0.2578125 z m 0,0"
       style="fill:#000000;fill-opacity:1;fill-rule:nonzero;stroke:none"
       aria-label="x"
       transform="matrix(1.3333333,0,0,1.3333333,309.91614,144.7842)" />
    <path
       id="path115"
       d="m 225.18857,235.43175 c 1.32601,0 2.5979,0.52683 3.53553,1.46447 0.93764,0.93763 1.46447,2.20952 1.46447,3.53553 0,1.32602 -0.52683,2.5979 -1.46447,3.53554 -0.93763,0.93763 -2.20952,1.46446 -3.53553,1.46446 -1.32602,0 -2.5979,-0.52683 -3.53554,-1.46446 -0.93763,-0.93764 -1.46446,-2.20952 -1.46446,-3.53554 0,-1.32601 0.52683,-2.5979 1.46446,-3.53553 0.93764,-0.93764 2.20952,-1.46447 3.53554,-1.46447 z"
       style="fill:#000000;fill-opacity:1;fill-rule:nonzero;stroke:#000000;stroke-width:1;stroke-linecap:butt;stroke-linejoin:round;stroke-miterlimit:10;stroke-dasharray:none;stroke-opacity:1"
       transform="matrix(1.3333333,0,0,-1.3333333,0,480)"
       clip-path="url(#clipPath116)" />
    <path
       id="path117"
       d="m 150.05786,121.62353 c 1.32602,0 2.5979,0.52683 3.53554,1.46447 0.93763,0.93763 1.46446,2.20951 1.46446,3.53553 0,1.32601 -0.52683,2.5979 -1.46446,3.53553 -0.93764,0.93764 -2.20952,1.46447 -3.53554,1.46447 -1.32601,0 -2.5979,-0.52683 -3.53553,-1.46447 -0.93764,-0.93763 -1.46447,-2.20952 -1.46447,-3.53553 0,-1.32602 0.52683,-2.5979 1.46447,-3.53553 0.93763,-0.93764 2.20952,-1.46447 3.53553,-1.46447 z"
       style="fill:#000000;fill-opacity:1;fill-rule:nonzero;stroke:#000000;stroke-width:1;stroke-linecap:butt;stroke-linejoin:round;stroke-miterlimit:10;stroke-dasharray:none;stroke-opacity:1"
       transform="matrix(1.3333333,0,0,-1.3333333,0,480)"
       clip-path="url(#clipPath118)" />
    <path
       id="path119"
       d="M 110.59146,66.839707 297.36188,85.066711 258.32848,178.38237 86.652962,163.06555 Z"
       style="fill:#1f77b4;fill-opacity:0.1;fill-rule:nonzero;stroke:#1f77b4;stroke-width:2;stroke-linecap:butt;stroke-linejoin:round;stroke-miterlimit:10;stroke-dasharray:none;stroke-opacity:1"
       transform="matrix(1.3333333,0,0,-1.3333333,0,480)"
       clip-path="url(#clipPath120)" />
    <path
       id="path121"
       d="m 297.36188,85.066711 -39.0334,93.315659 2.64456,116.25581 40.89258,-86.25471 z"
       style="fill:#1f77b4;fill-opacity:0.1;fill-rule:nonzero;stroke:#1f77b4;stroke-width:2;stroke-linecap:butt;stroke-linejoin:round;stroke-miterlimit:10;stroke-dasharray:none;stroke-opacity:1"
       transform="matrix(1.3333333,0,0,-1.3333333,0,480)"
       clip-path="url(#clipPath122)" />
    <path
       id="path123"
       d="M 107.33305,191.46689 301.86562,208.38347 260.97304,294.63818 82.761378,280.52062 Z"
       style="fill:#1f77b4;fill-opacity:0.1;fill-rule:nonzero;stroke:#1f77b4;stroke-width:2;stroke-linecap:butt;stroke-linejoin:round;stroke-miterlimit:10;stroke-dasharray:none;stroke-opacity:1"
       transform="matrix(1.3333333,0,0,-1.3333333,0,480)"
       clip-path="url(#clipPath124)" />
    <path
       id="path125"
       d="M 110.59146,66.839707 297.36188,85.066711 301.86562,208.38347 107.33305,191.46689 Z"
       style="fill:#1f77b4;fill-opacity:0.1;fill-rule:nonzero;stroke:#1f77b4;stroke-width:2;stroke-linecap:butt;stroke-linejoin:round;stroke-miterlimit:10;stroke-dasharray:none;stroke-opacity:1"
       transform="matrix(1.3333333,0,0,-1.3333333,0,480)"
       clip-path="url(#clipPath126)" />
    <path
       id="path127"
       d="M 110.59146,66.839707 86.652962,163.06555 82.761378,280.52062 107.33305,191.46689 Z"
       style="fill:#1f77b4;fill-opacity:0.1;fill-rule:nonzero;stroke:#1f77b4;stroke-width:2;stroke-linecap:butt;stroke-linejoin:round;stroke-miterlimit:10;stroke-dasharray:none;stroke-opacity:1"
       transform="matrix(1.3333333,0,0,-1.3333333,0,480)"
       clip-path="url(#clipPath128)" />
  </g>
</svg>
