<?xml version="1.0" encoding="UTF-8" standalone="no"?>
<!-- Created with Inkscape (http://www.inkscape.org/) -->

<svg
   version="1.1"
   id="svg1"
   width="216.85733"
   height="200.55467"
   viewBox="0 0 216.85733 200.55467"
   sodipodi:docname="convert.pdf"
   inkscape:export-filename="../../vnncs/jax_flow.svg"
   inkscape:export-xdpi="96"
   inkscape:export-ydpi="96"
   xmlns:inkscape="http://www.inkscape.org/namespaces/inkscape"
   xmlns:sodipodi="http://sodipodi.sourceforge.net/DTD/sodipodi-0.dtd"
   xmlns="http://www.w3.org/2000/svg"
   xmlns:svg="http://www.w3.org/2000/svg">
  <defs
     id="defs1" />
  <sodipodi:namedview
     id="namedview1"
     pagecolor="#ffffff"
     bordercolor="#000000"
     borderopacity="0.25"
     inkscape:showpageshadow="2"
     inkscape:pageopacity="0.0"
     inkscape:pagecheckerboard="0"
     inkscape:deskcolor="#d1d1d1">
    <inkscape:page
       x="0"
       y="0"
       inkscape:label="1"
       id="page1"
       width="216.85733"
       height="200.55467"
       margin="0"
       bleed="0" />
  </sodipodi:namedview>
  <g
     id="g1"
     inkscape:groupmode="layer"
     inkscape:label="1">
    <path
       id="path1"
       d="M -71.6116,-18.60129 H 71.6116 V 18.60129 H -71.6116 Z"
       style="fill:none;stroke:#000000;stroke-width:0.79701;stroke-linecap:butt;stroke-linejoin:miter;stroke-miterlimit:10;stroke-dasharray:none;stroke-opacity:1"
       transform="matrix(1.3333333,0,0,-1.3333333,108.42933,25.332)" />
    <g
       id="g2"
       aria-label="Createfunctionallypuref"
       transform="matrix(1.3333333,0,0,1.3333333,31.845333,28.653333)">
      <path
         id="path2"
         d="m 0.5613125,-3.4108984 c 0,2.0625 1.6054688,3.63281246 3.4570313,3.63281246 1.6289062,0 2.6015625,-1.38281246 2.6015625,-2.54296876 0,-0.1054687 0,-0.1757812 -0.1289063,-0.1757812 -0.1054687,0 -0.1054687,0.070312 -0.1171875,0.1640625 -0.082031,1.42968746 -1.1484375,2.23828121 -2.2265625,2.23828121 -0.609375,0 -2.5664062,-0.33984375 -2.5664062,-3.30468751 0,-2.9765625 1.9453125,-3.3164062 2.5546875,-3.3164062 1.078125,0 1.96875,0.9023437 2.1679687,2.3671875 0.023437,0.1289062 0.023437,0.1640625 0.1640625,0.1640625 0.1523438,0 0.1523438,-0.035156 0.1523438,-0.234375 v -2.3671875 c 0,-0.1640625 0,-0.234375 -0.1054688,-0.234375 -0.035156,0 -0.082031,0 -0.1640625,0.1171875 l -0.4921875,0.7382812 c -0.375,-0.3632812 -0.8789062,-0.8554687 -1.8398437,-0.8554687 -1.8632813,0 -3.4570313,1.5820312 -3.4570313,3.609375 z m 8.296875,0.1054687 V -4.4069922 L 7.475375,-4.2898047 v 0.3046875 c 0.6914063,0 0.7734375,0.070312 0.7734375,0.5625 v 2.66015626 c 0,0.45703125 -0.1054687,0.45703125 -0.7734375,0.45703125 V -7.421875e-4 C 7.8620938,-0.01246094 8.3308438,-0.03589844 8.6120938,-0.03589844 c 0.3984375,0 0.8671875,0 1.265625,0.0351562525 V -0.30542969 H 9.6667813 c -0.7382813,0 -0.7617188,-0.1171875 -0.7617188,-0.46875 V -2.3093359 c 0,-0.984375 0.421875,-1.875 1.1835935,-1.875 0.05859,0 0.08203,0 0.105469,0.011719 -0.03516,0.011719 -0.234375,0.1289063 -0.234375,0.3867188 0,0.28125 0.210938,0.4335937 0.433594,0.4335937 0.175781,0 0.421875,-0.1289062 0.421875,-0.4453125 0,-0.3164062 -0.304688,-0.609375 -0.726563,-0.609375 -0.738281,0 -1.0898435,0.6679688 -1.2304685,1.1015622 z m 3.3515625,0.796875 c 0.05859,-1.4882812 0.902344,-1.734375 1.242188,-1.734375 1.019531,0 1.125,1.3476563 1.125,1.734375 z m -0.01172,0.2109375 h 2.789063 c 0.210937,0 0.246094,0 0.246094,-0.2109375 0,-0.984375 -0.539063,-1.9570312 -1.78125,-1.9570312 -1.160157,0 -2.074219,1.03125 -2.074219,2.2734375 0,1.33593746 1.042969,2.29687496 2.191406,2.29687496 1.21875,0 1.664063,-1.1015625 1.664063,-1.28906246 0,-0.1054688 -0.08203,-0.1171875 -0.128907,-0.1171875 -0.09375,0 -0.117187,0.058594 -0.128906,0.140625 -0.351562,1.01953121 -1.253906,1.01953121 -1.347656,1.01953121 -0.503906,0 -0.902344,-0.29296875 -1.125,-0.66796875 C 12.198031,-1.2898047 12.198031,-1.9460547 12.198031,-2.2976172 Z m 6.644532,1.53515626 c 0.03516,0.3984375 0.304687,0.8203125 0.773437,0.8203125 0.210938,0 0.820313,-0.140625 0.820313,-0.94921875 V -1.4421484 h -0.246094 v 0.55078121 c 0,0.5859375 -0.246094,0.64453125 -0.363281,0.64453125 -0.328125,0 -0.363282,-0.45703125 -0.363282,-0.50390625 V -2.7429297 c 0,-0.4101562 0,-0.8085937 -0.363281,-1.171875 -0.386719,-0.3867187 -0.878906,-0.5507812 -1.359375,-0.5507812 -0.820312,0 -1.511719,0.46875 -1.511719,1.125 0,0.3046875 0.199219,0.46875 0.457032,0.46875 0.28125,0 0.46875,-0.1992188 0.46875,-0.4570313 0,-0.1171875 -0.05859,-0.4453125 -0.515625,-0.4570312 0.269531,-0.3515625 0.761718,-0.4570313 1.078125,-0.4570313 0.492187,0 1.054687,0.3867188 1.054687,1.2773438 v 0.3632812 c -0.503906,0.035156 -1.207031,0.058594 -1.828125,0.3632813 -0.75,0.3398437 -0.996094,0.8554687 -0.996094,1.28906246 0,0.80859375 0.960938,1.0546875 1.59375,1.0546875 0.65625,0 1.113282,-0.3984375 1.300782,-0.8671875 z M 18.77225,-2.3913672 v 0.9960938 c 0,0.94921871 -0.714844,1.28906246 -1.160156,1.28906246 -0.492188,0 -0.902344,-0.3515625 -0.902344,-0.85546875 0,-0.53906251 0.421875,-1.37109371 2.0625,-1.42968751 z m 3.457031,-1.59375 h 1.429688 v -0.3046875 h -1.429688 v -1.8398437 h -0.246093 c -0.01172,0.8203125 -0.316407,1.8867187 -1.289063,1.921875 v 0.2226562 h 0.84375 v 2.7539063 c 0,1.21874996 0.925781,1.33593746 1.289063,1.33593746 0.703125,0 0.984375,-0.703125 0.984375,-1.33593746 v -0.5742188 h -0.246094 v 0.5507813 c 0,0.73828121 -0.304688,1.11328121 -0.667969,1.11328121 -0.667969,0 -0.667969,-0.90234371 -0.667969,-1.07812501 z m 3.263672,1.4765625 c 0.05859,-1.4882812 0.902344,-1.734375 1.242188,-1.734375 1.019531,0 1.125,1.3476563 1.125,1.734375 z m -0.01172,0.2109375 h 2.789063 c 0.210937,0 0.246094,0 0.246094,-0.2109375 0,-0.984375 -0.539063,-1.9570312 -1.78125,-1.9570312 -1.160157,0 -2.074219,1.03125 -2.074219,2.2734375 0,1.33593746 1.042969,2.29687496 2.191406,2.29687496 1.21875,0 1.664063,-1.1015625 1.664063,-1.28906246 0,-0.1054688 -0.08203,-0.1171875 -0.128907,-0.1171875 -0.09375,0 -0.117187,0.058594 -0.128906,0.140625 -0.351562,1.01953121 -1.253906,1.01953121 -1.347656,1.01953121 -0.503906,0 -0.902344,-0.29296875 -1.125,-0.66796875 C 25.481234,-1.2898047 25.481234,-1.9460547 25.481234,-2.2976172 Z m 8.390625,-1.9921875 v -1.1601562 c 0,-0.8789063 0.480469,-1.359375 0.914063,-1.359375 0.03516,0 0.175781,0 0.328125,0.070312 -0.117188,0.046875 -0.292969,0.1757812 -0.292969,0.421875 0,0.234375 0.152344,0.4335937 0.421875,0.4335937 0.292969,0 0.433594,-0.1992187 0.433594,-0.4453125 0,-0.3632812 -0.363281,-0.6914062 -0.890625,-0.6914062 -0.703125,0 -1.546875,0.5273437 -1.546875,1.5820312 v 1.1484375 H 32.45389 v 0.3046875 h 0.785156 v 3.22265626 c 0,0.45703125 -0.105469,0.45703125 -0.773438,0.45703125 v 0.3046880025 c 0.38672,-0.0117187525 0.85547,-0.0351562525 1.13672,-0.0351562525 0.398438,0 0.867188,0 1.265625,0.0351562525 V -0.30542969 h -0.210937 c -0.738282,0 -0.761719,-0.1171875 -0.761719,-0.46875 V -3.9851172 h 1.136719 v -0.3046875 z m 5.188477,3.50390626 v 0.890625 L 40.501742,-7.421875e-4 V -0.30542969 c -0.703125,0 -0.785156,-0.0703125 -0.785156,-0.5625 V -4.4069922 l -1.453125,0.1171875 v 0.3046875 c 0.691406,0 0.773437,0.070312 0.773437,0.5625 v 1.7695313 c 0,0.86718746 -0.480468,1.54687496 -1.207031,1.54687496 -0.832031,0 -0.878906,-0.46875 -0.878906,-0.99609376 v -3.3046875 l -1.464844,0.1171875 v 0.3046875 c 0.785156,0 0.785156,0.035156 0.785156,0.9140625 v 1.5 c 0,0.77343751 0,1.67578126 1.511719,1.67578126 0.550781,0 0.996094,-0.26953125 1.277343,-0.890625 z m 2.745117,-2.63671876 v 2.66015626 c 0,0.45703125 -0.117187,0.45703125 -0.785156,0.45703125 v 0.3046875025 c 0.351562,-0.0117187525 0.855469,-0.0351562525 1.125,-0.0351562525 0.257812,0 0.785156,0.0234375 1.113281,0.0351562525 V -0.30542969 c -0.65625,0 -0.773437,0 -0.773437,-0.45703125 V -2.5905859 c 0,-1.03125 0.714843,-1.59375 1.347656,-1.59375 0.621094,0 0.738281,0.5390625 0.738281,1.1015625 v 2.32031246 c 0,0.45703125 -0.117187,0.45703125 -0.773437,0.45703125 v 0.3046875025 c 0.339843,-0.0117187525 0.855468,-0.0351562525 1.125,-0.0351562525 0.257812,0 0.773437,0.0234375 1.113281,0.0351562525 V -0.30542969 c -0.515625,0 -0.773438,0 -0.785156,-0.3046875 V -2.5085547 c 0,-0.8554687 0,-1.171875 -0.304688,-1.5234375 -0.140625,-0.1757812 -0.46875,-0.375 -1.042969,-0.375 -0.726562,0 -1.195312,0.4335938 -1.476562,1.0546875 v -1.0546875 l -1.40625,0.1171875 v 0.3046875 c 0.703125,0 0.785156,0.070312 0.785156,0.5625 z m 5.595703,1.2539063 c 0,-1.6289063 0.820313,-2.0507813 1.347657,-2.0507813 0.09375,0 0.714843,0.011719 1.066406,0.375 -0.410156,0.023437 -0.46875,0.328125 -0.46875,0.4570313 0,0.2578125 0.1875,0.4570312 0.457031,0.4570312 0.257813,0 0.457031,-0.1640625 0.457031,-0.46875 0,-0.6796875 -0.75,-1.0664062 -1.523437,-1.0664062 -1.242188,0 -2.15625,1.078125 -2.15625,2.3085937 0,1.27734376 0.984375,2.26171876 2.144531,2.26171876 1.335938,0 1.652344,-1.19531246 1.652344,-1.28906246 0,-0.1054688 -0.105469,-0.1054688 -0.128906,-0.1054688 -0.09375,0 -0.117188,0.046875 -0.128907,0.1054688 -0.292968,0.92578121 -0.9375,1.04296871 -1.3125,1.04296871 -0.527343,0 -1.40625,-0.421875 -1.40625,-2.02734371 z m 4.989258,-1.8164063 h 1.429688 V -4.2898047 H 52.390414 V -6.1296484 H 52.14432 c -0.01172,0.8203125 -0.316406,1.8867187 -1.289062,1.921875 v 0.2226562 h 0.84375 v 2.7539063 c 0,1.21874996 0.925781,1.33593746 1.289062,1.33593746 0.703125,0 0.984375,-0.703125 0.984375,-1.33593746 v -0.5742188 h -0.246093 v 0.5507813 c 0,0.73828121 -0.304688,1.11328121 -0.667969,1.11328121 -0.667969,0 -0.667969,-0.90234371 -0.667969,-1.07812501 z m 3.908203,-0.421875 -1.394531,0.1171875 v 0.3046875 c 0.65625,0 0.738281,0.058594 0.738281,0.5507813 v 2.67187496 c 0,0.45703125 -0.105469,0.45703125 -0.773437,0.45703125 V -7.421875e-4 C 55.185336,-0.01246094 55.724398,-0.03589844 55.970492,-0.03589844 c 0.339844,0 0.691406,0.0234375 1.03125,0.0351562525 V -0.30542969 c -0.65625,0 -0.703125,-0.0585938 -0.703125,-0.4453125 z m 0.04687,-1.734375 c 0,-0.3164062 -0.246094,-0.5273437 -0.527344,-0.5273437 -0.316406,0 -0.527343,0.2695312 -0.527343,0.5273437 0,0.2695313 0.210937,0.5273438 0.527343,0.5273438 0.28125,0 0.527344,-0.1992188 0.527344,-0.5273438 z m 5.651367,4.0078125 c 0,-1.2773437 -0.996093,-2.3320312 -2.191406,-2.3320312 -1.253906,0 -2.214844,1.0898437 -2.214844,2.3320312 0,1.28906251 1.03125,2.23828126 2.203125,2.23828126 1.207032,0 2.203125,-0.97265625 2.203125,-2.23828126 z m -2.191406,1.99218751 c -0.433594,0 -0.867187,-0.2109375 -1.136719,-0.66796875 -0.257812,-0.43359376 -0.257812,-1.04296876 -0.257812,-1.40624996 0,-0.3867188 0,-0.9257813 0.246094,-1.359375 0.269531,-0.4570313 0.738281,-0.6679688 1.136718,-0.6679688 0.433594,0 0.867188,0.2226563 1.125,0.6445313 0.257813,0.4335937 0.257813,1.0078125 0.257813,1.3828125 0,0.3632812 0,0.9023437 -0.222656,1.33593746 -0.222657,0.4453125 -0.65625,0.73828125 -1.148438,0.73828125 z m 3.585938,-3.28125001 v 2.66015626 c 0,0.45703125 -0.117188,0.45703125 -0.785157,0.45703125 v 0.3046875025 c 0.351563,-0.0117187525 0.855469,-0.0351562525 1.125,-0.0351562525 0.257813,0 0.785157,0.0234375 1.113282,0.0351562525 V -0.30542969 c -0.65625,0 -0.773438,0 -0.773438,-0.45703125 V -2.5905859 c 0,-1.03125 0.714844,-1.59375 1.347656,-1.59375 0.621094,0 0.738282,0.5390625 0.738282,1.1015625 v 2.32031246 c 0,0.45703125 -0.117188,0.45703125 -0.773438,0.45703125 v 0.3046875025 c 0.339844,-0.0117187525 0.855469,-0.0351562525 1.125,-0.0351562525 0.257813,0 0.773438,0.0234375 1.113281,0.0351562525 V -0.30542969 c -0.515625,0 -0.773437,0 -0.785156,-0.3046875 V -2.5085547 c 0,-0.8554687 0,-1.171875 -0.304687,-1.5234375 -0.140625,-0.1757812 -0.46875,-0.375 -1.042969,-0.375 -0.726563,0 -1.195313,0.4335938 -1.476563,1.0546875 v -1.0546875 l -1.40625,0.1171875 v 0.3046875 c 0.703125,0 0.785157,0.070312 0.785157,0.5625 z m 7.751953,2.66015626 c 0.03516,0.3984375 0.304687,0.8203125 0.773437,0.8203125 0.210938,0 0.820313,-0.140625 0.820313,-0.94921875 V -1.4421484 H 72.491 v 0.55078121 c 0,0.5859375 -0.246094,0.64453125 -0.363281,0.64453125 -0.328125,0 -0.363281,-0.45703125 -0.363281,-0.50390625 V -2.7429297 c 0,-0.4101562 0,-0.8085937 -0.363282,-1.171875 -0.386718,-0.3867187 -0.878906,-0.5507812 -1.359375,-0.5507812 -0.820312,0 -1.511718,0.46875 -1.511718,1.125 0,0.3046875 0.199218,0.46875 0.457031,0.46875 0.28125,0 0.46875,-0.1992188 0.46875,-0.4570313 0,-0.1171875 -0.05859,-0.4453125 -0.515625,-0.4570312 0.269531,-0.3515625 0.761719,-0.4570313 1.078125,-0.4570313 0.492187,0 1.054687,0.3867188 1.054687,1.2773438 v 0.3632812 c -0.503906,0.035156 -1.207031,0.058594 -1.828125,0.3632813 -0.75,0.3398437 -0.996093,0.8554687 -0.996093,1.28906246 0,0.80859375 0.960937,1.0546875 1.59375,1.0546875 0.65625,0 1.113281,-0.3984375 1.300781,-0.8671875 z m -0.07031,-1.62890626 v 0.9960938 c 0,0.94921871 -0.714843,1.28906246 -1.160156,1.28906246 -0.492187,0 -0.902344,-0.3515625 -0.902344,-0.85546875 0,-0.53906251 0.421875,-1.37109371 2.0625,-1.42968751 z m 3.492188,-4.5234375 -1.429688,0.1054688 v 0.3164062 c 0.703125,0 0.773438,0.070312 0.773438,0.5507813 v 5.17968746 c 0,0.45703125 -0.105469,0.45703125 -0.773438,0.45703125 V -7.421875e-4 C 73.463656,-0.01246094 73.991,-0.03589844 74.237094,-0.03589844 c 0.257812,0 0.738281,0.0234375 1.113281,0.0351562525 V -0.30542969 c -0.667969,0 -0.785156,0 -0.785156,-0.45703125 z m 2.768554,0 -1.429687,0.1054688 v 0.3164062 c 0.703125,0 0.773437,0.070312 0.773437,0.5507813 v 5.17968746 c 0,0.45703125 -0.105468,0.45703125 -0.773437,0.45703125 V -7.421875e-4 C 76.232211,-0.01246094 76.759555,-0.03589844 77.005648,-0.03589844 c 0.257813,0 0.738282,0.0234375 1.113282,0.0351562525 V -0.30542969 c -0.667969,0 -0.785157,0 -0.785157,-0.45703125 z m 5.144532,3.5625 c 0.257812,-0.6210937 0.761718,-0.6328125 0.925781,-0.6328125 v -0.3046875 c -0.234375,0.011719 -0.515625,0.023437 -0.75,0.023437 -0.175781,0 -0.644531,-0.023437 -0.867188,-0.023437 v 0.3046875 c 0.304688,0.011719 0.46875,0.1757813 0.46875,0.4335938 0,0.09375 -0.01172,0.1171875 -0.05859,0.234375 L 81.189242,-0.86792969 80.08768,-3.5515234 c -0.04687,-0.09375 -0.05859,-0.140625 -0.05859,-0.1757813 0,-0.2578125 0.363281,-0.2578125 0.550781,-0.2578125 v -0.3046875 c -0.257812,0 -0.914062,0.023437 -1.078125,0.023437 -0.269531,0 -0.667969,-0.011719 -0.972656,-0.023437 v 0.3046875 c 0.480469,0 0.667969,0 0.808594,0.3515625 l 1.5,3.6328125125 C 80.779086,0.12816406 80.638461,0.45628906 80.579867,0.58519531 80.36893,1.1359766 80.08768,1.8273828 79.443148,1.8273828 c -0.04687,0 -0.269531,0 -0.46875,-0.1875 0.316407,-0.035156 0.398438,-0.2578125 0.398438,-0.4101562 0,-0.26953129 -0.199219,-0.42187504 -0.421875,-0.42187504 -0.199219,0 -0.421875,0.12890625 -0.421875,0.42187504 0,0.4570312 0.421875,0.8085937 0.914062,0.8085937 0.632813,0 1.042969,-0.5625 1.277344,-1.13671874 z m 6.161133,-0.3984375 v -0.65625 l -1.429688,0.1171875 v 0.3046875 c 0.703125,0 0.773438,0.058594 0.773438,0.4921875 v 4.6640625 c 0,0.4570313 -0.105469,0.4570313 -0.773438,0.4570313 v 0.3046875 c 0.339844,-0.011719 0.855469,-0.035156 1.113281,-0.035156 0.269532,0 0.773438,0.023437 1.125,0.035156 V 1.6281641 c -0.667968,0 -0.773437,0 -0.773437,-0.4570313 v -1.75781249 c 0.04687,0.15234375 0.46875,0.69140625 1.21875,0.69140625 1.183594,0 2.226562,-0.97265625 2.226562,-2.26171876 0,-1.265625 -0.972656,-2.25 -2.085937,-2.25 -0.773438,0 -1.195313,0.4453125 -1.394531,0.65625 z m 0.03516,2.6132813 v -2.2148438 c 0.28125,-0.515625 0.773437,-0.796875 1.277344,-0.796875 0.726562,0 1.335937,0.8671875 1.335937,1.9921875 0,1.20703126 -0.691406,2.05078126 -1.429687,2.05078126 -0.398438,0 -0.773438,-0.19921875 -1.042969,-0.609375 -0.140625,-0.2109375 -0.140625,-0.22265625 -0.140625,-0.42187496 z m 7.678711,0.35156246 v 0.890625 L 97.794711,-7.421875e-4 V -0.30542969 c -0.703125,0 -0.785156,-0.0703125 -0.785156,-0.5625 V -4.4069922 l -1.453125,0.1171875 v 0.3046875 c 0.691406,0 0.773437,0.070312 0.773437,0.5625 v 1.7695313 c 0,0.86718746 -0.480469,1.54687496 -1.207031,1.54687496 -0.832031,0 -0.878906,-0.46875 -0.878906,-0.99609376 v -3.3046875 l -1.464844,0.1171875 v 0.3046875 c 0.785156,0 0.785156,0.035156 0.785156,0.9140625 v 1.5 c 0,0.77343751 0,1.67578126 1.511719,1.67578126 0.550781,0 0.996094,-0.26953125 1.277345,-0.890625 z m 3.298828,-2.51953126 v -1.1015625 l -1.382813,0.1171875 v 0.3046875 c 0.691407,0 0.773438,0.070312 0.773438,0.5625 v 2.66015626 c 0,0.45703125 -0.105469,0.45703125 -0.773438,0.45703125 V -7.421875e-4 C 98.656039,-0.01246094 99.124789,-0.03589844 99.406039,-0.03589844 c 0.398438,0 0.867191,0 1.265621,0.0351562525 V -0.30542969 h -0.21093 c -0.738285,0 -0.761722,-0.1171875 -0.761722,-0.46875 V -2.3093359 c 0,-0.984375 0.421872,-1.875 1.183592,-1.875 0.0586,0 0.082,0 0.10547,0.011719 -0.0352,0.011719 -0.23437,0.1289063 -0.23437,0.3867188 0,0.28125 0.21093,0.4335937 0.43359,0.4335937 0.17578,0 0.42187,-0.1289062 0.42187,-0.4453125 0,-0.3164062 -0.30468,-0.609375 -0.72656,-0.609375 -0.73828,0 -1.089842,0.6679688 -1.230467,1.1015625 z m 3.351566,0.796875 c 0.0586,-1.4882812 0.90234,-1.734375 1.24218,-1.734375 1.01953,0 1.125,1.3476563 1.125,1.734375 z m -0.0117,0.2109375 h 2.78906 c 0.21094,0 0.24609,0 0.24609,-0.2109375 0,-0.984375 -0.53906,-1.9570312 -1.78125,-1.9570312 -1.16015,0 -2.07422,1.03125 -2.07422,2.2734375 0,1.33593746 1.04297,2.29687496 2.19141,2.29687496 1.21875,0 1.66406,-1.1015625 1.66406,-1.28906246 0,-0.1054688 -0.082,-0.1171875 -0.1289,-0.1171875 -0.0937,0 -0.11719,0.058594 -0.12891,0.140625 -0.35156,1.01953121 -1.25391,1.01953121 -1.34766,1.01953121 -0.5039,0 -0.90234,-0.29296875 -1.125,-0.66796875 C 102.992,-1.2898047 102.992,-1.9460547 102.992,-2.2976172 Z m 0,0"
         style="fill:#000000;fill-opacity:1;fill-rule:nonzero;stroke:none" />
      <path
         id="path3"
         d="m 112.16483,-3.6921484 h 1.21875 c 0.15234,0 0.39844,0 0.39844,-0.2929688 0,-0.3046875 -0.2461,-0.3046875 -0.39844,-0.3046875 h -1.21875 v -0.46875 c 0,-0.7851562 0.66797,-0.7851562 0.97265,-0.7851562 0,0.046875 0.082,0.4335937 0.4336,0.4335937 0.19922,0 0.42187,-0.1640625 0.42187,-0.4335937 0,-0.5976563 -0.79687,-0.5976563 -0.94922,-0.5976563 -0.79687,0 -1.57031,0.4570313 -1.57031,1.3242188 v 0.5273437 h -0.99609 c -0.15235,0 -0.39844,0 -0.39844,0.3046875 0,0.2929688 0.24609,0.2929688 0.39844,0.2929688 h 0.99609 v 3.08203121 h -0.99609 c -0.15235,0 -0.41016,0 -0.41016,0.3046875 0,0.3046875025 0.25781,0.3046875025 0.41016,0.3046875025 h 2.69531 c 0.15234,0 0.41016,0 0.41016,-0.3046875025 0,-0.3046875 -0.25782,-0.3046875 -0.41016,-0.3046875 h -1.00781 z m 0,0"
         style="fill:#000000;fill-opacity:1;fill-rule:nonzero;stroke:none" />
    </g>
    <path
       id="path4"
       d="M -80.9241,-75.2949 H 80.92412 v 37.20258 H -80.9241 Z"
       style="fill:none;stroke:#000000;stroke-width:0.79701;stroke-linecap:butt;stroke-linejoin:miter;stroke-miterlimit:10;stroke-dasharray:none;stroke-opacity:1"
       transform="matrix(1.3333333,0,0,-1.3333333,108.42933,25.332)" />
    <path
       id="path5"
       d="m 3.9612031,-6.9388594 c -0.046875,-0.1289062 -0.070312,-0.1992187 -0.2226562,-0.1992187 -0.1640625,0 -0.1875,0.058594 -0.2460938,0.1992187 l -2.0625,5.96484378 c -0.1757812,0.50390625 -0.57421872,0.65625 -1.11328122,0.66796875 v 0.3046875 c 0.234375,-0.01171875 0.65625,-0.03515625 1.01953122,-0.03515625 0.3046875,0 0.8203125,0.0234375 1.1484375,0.03515625 v -0.3046875 c -0.5039062,0 -0.75,-0.2578125 -0.75,-0.515625 0,-0.0234375 0.011719,-0.12890625 0.023437,-0.140625 L 2.2151094,-2.2747969 h 2.4609375 l 0.5273437,1.52343753 c 0.011719,0.046875 0.023437,0.10546875 0.023437,0.140625 0,0.3046875 -0.5507812,0.3046875 -0.8203125,0.3046875 v 0.3046875 c 0.3515625,-0.03515625 1.0546875,-0.03515625 1.4296875,-0.03515625 0.4335938,0 0.890625,0.01171875 1.3007813,0.03515625 v -0.3046875 H 6.9612031 c -0.5976562,0 -0.7382812,-0.0703125 -0.84375,-0.3984375 z m -0.5273437,1.125 1.125,3.234375 H 2.3205781 Z m 5.7480469,2.0625 v -0.65625 l -1.4296875,0.1171875 v 0.3046875 c 0.703125,0 0.7734375,0.058594 0.7734375,0.4921875 v 4.6640625 c 0,0.4570313 -0.1054688,0.4570313 -0.7734375,0.4570313 V 1.9322344 C 8.0920625,1.9205156 8.6076875,1.8970781 8.8655,1.8970781 c 0.2695313,0 0.7734375,0.023437 1.125,0.035156 V 1.6275469 c -0.6679687,0 -0.7734375,0 -0.7734375,-0.4570313 v -1.75781247 c 0.046875,0.15234375 0.46875,0.69140625 1.2187505,0.69140625 1.183593,0 2.226562,-0.97265625 2.226562,-2.26171878 0,-1.265625 -0.972656,-2.25 -2.085937,-2.25 -0.773438,0 -1.195313,0.4453125 -1.3945317,0.65625 z m 0.035156,2.6132813 v -2.2148438 c 0.28125,-0.515625 0.7734375,-0.796875 1.2773437,-0.796875 0.726563,0 1.335938,0.8671875 1.335938,1.9921875 0,1.20703128 -0.691406,2.05078128 -1.429688,2.05078128 -0.398437,0 -0.7734374,-0.19921875 -1.0429687,-0.609375 -0.140625,-0.2109375 -0.140625,-0.22265625 -0.140625,-0.42187498 z m 5.5019537,-2.6132813 v -0.65625 l -1.429688,0.1171875 v 0.3046875 c 0.703125,0 0.773438,0.058594 0.773438,0.4921875 v 4.6640625 c 0,0.4570313 -0.105469,0.4570313 -0.773438,0.4570313 v 0.3046875 c 0.339844,-0.011719 0.855469,-0.035156 1.113281,-0.035156 0.269532,0 0.773438,0.023437 1.125,0.035156 V 1.6275469 c -0.667968,0 -0.773437,0 -0.773437,-0.4570313 v -1.75781247 c 0.04687,0.15234375 0.46875,0.69140625 1.21875,0.69140625 1.183594,0 2.226562,-0.97265625 2.226562,-2.26171878 0,-1.265625 -0.972656,-2.25 -2.085937,-2.25 -0.773438,0 -1.195313,0.4453125 -1.394531,0.65625 z m 0.03516,2.6132813 v -2.2148438 c 0.28125,-0.515625 0.773437,-0.796875 1.277344,-0.796875 0.726562,0 1.335937,0.8671875 1.335937,1.9921875 0,1.20703128 -0.691406,2.05078128 -1.429687,2.05078128 -0.398438,0 -0.773438,-0.19921875 -1.042969,-0.609375 -0.140625,-0.2109375 -0.140625,-0.22265625 -0.140625,-0.42187498 z m 5.545898,-5.7773438 -1.429687,0.1054688 v 0.3164062 c 0.703125,0 0.773437,0.070312 0.773437,0.5507813 v 5.17968748 c 0,0.45703125 -0.105468,0.45703125 -0.773437,0.45703125 v 0.3046875 c 0.328125,-0.01171875 0.855469,-0.03515625 1.101562,-0.03515625 0.257813,0 0.738282,0.0234375 1.113282,0.03515625 v -0.3046875 c -0.667969,0 -0.785157,0 -0.785157,-0.45703125 z m 5.147461,3.5625 c 0.257813,-0.6210937 0.761719,-0.6328125 0.925782,-0.6328125 v -0.3046875 c -0.234375,0.011719 -0.515625,0.023437 -0.75,0.023437 -0.175782,0 -0.644532,-0.023437 -0.867188,-0.023437 v 0.3046875 c 0.304688,0.011719 0.46875,0.1757813 0.46875,0.4335938 0,0.09375 -0.01172,0.1171875 -0.05859,0.234375 l -1.007812,2.44921873 -1.101563,-2.68359373 c -0.04687,-0.09375 -0.05859,-0.140625 -0.05859,-0.1757813 0,-0.2578125 0.363281,-0.2578125 0.550781,-0.2578125 v -0.3046875 c -0.257813,0 -0.914063,0.023437 -1.078125,0.023437 -0.269531,0 -0.667969,-0.011719 -0.972656,-0.023437 v 0.3046875 c 0.480468,0 0.667968,0 0.808593,0.3515625 l 1.5,3.63281253 c -0.05859,0.12890625 -0.199218,0.45703125 -0.257812,0.5859375 -0.210938,0.55078127 -0.492188,1.24218747 -1.136719,1.24218747 -0.04687,0 -0.269531,0 -0.46875,-0.1875 0.316406,-0.035156 0.398438,-0.2578125 0.398438,-0.4101562 0,-0.26953127 -0.199219,-0.42187502 -0.421875,-0.42187502 -0.199219,0 -0.421875,0.12890625 -0.421875,0.42187502 0,0.4570312 0.421875,0.8085937 0.914062,0.8085937 0.632813,0 1.042969,-0.5625 1.277344,-1.13671872 z m 6.184571,-0.9375 v -1.1601562 c 0,-0.8789063 0.480468,-1.359375 0.914062,-1.359375 0.03516,0 0.175781,0 0.328125,0.070312 -0.117187,0.046875 -0.292969,0.1757812 -0.292969,0.421875 0,0.234375 0.152344,0.4335937 0.421875,0.4335937 0.292969,0 0.433594,-0.1992187 0.433594,-0.4453125 0,-0.3632812 -0.363281,-0.6914062 -0.890625,-0.6914062 -0.703125,0 -1.546875,0.5273437 -1.546875,1.5820312 v 1.1484375 h -0.785156 v 0.3046875 h 0.785156 v 3.22265628 c 0,0.45703125 -0.105469,0.45703125 -0.773437,0.45703125 v 0.3046875 c 0.386718,-0.01171875 0.855468,-0.03515625 1.136718,-0.03515625 0.398438,0 0.867188,0 1.265625,0.03515625 v -0.3046875 h -0.210937 c -0.738281,0 -0.761719,-0.1171875 -0.761719,-0.46875 V -3.9857344 h 1.136719 v -0.3046875 z m 5.188476,3.50390628 v 0.890625 l 1.441406,-0.10546875 v -0.3046875 c -0.703125,0 -0.785156,-0.0703125 -0.785156,-0.5625 V -4.4076094 l -1.453125,0.1171875 v 0.3046875 c 0.691406,0 0.773438,0.070312 0.773438,0.5625 v 1.7695313 c 0,0.86718748 -0.480469,1.54687498 -1.207032,1.54687498 -0.832031,0 -0.878906,-0.46875 -0.878906,-0.99609378 v -3.3046875 l -1.464844,0.1171875 v 0.3046875 c 0.785157,0 0.785157,0.035156 0.785157,0.9140625 v 1.5 c 0,0.77343753 0,1.67578128 1.511718,1.67578128 0.550782,0 0.996094,-0.26953125 1.277344,-0.890625 z m 2.748047,-2.63671878 v 2.66015628 c 0,0.45703125 -0.117187,0.45703125 -0.785156,0.45703125 v 0.3046875 c 0.351562,-0.01171875 0.855469,-0.03515625 1.125,-0.03515625 0.257812,0 0.785156,0.0234375 1.113281,0.03515625 v -0.3046875 c -0.65625,0 -0.773437,0 -0.773437,-0.45703125 V -2.5912031 c 0,-1.03125 0.714843,-1.59375 1.347656,-1.59375 0.621094,0 0.738281,0.5390625 0.738281,1.1015625 v 2.32031248 c 0,0.45703125 -0.117187,0.45703125 -0.773437,0.45703125 v 0.3046875 c 0.339843,-0.01171875 0.855468,-0.03515625 1.125,-0.03515625 0.257812,0 0.773437,0.0234375 1.113281,0.03515625 v -0.3046875 c -0.515625,0 -0.773438,0 -0.785156,-0.3046875 V -2.5091719 c 0,-0.8554687 0,-1.171875 -0.304688,-1.5234375 -0.140625,-0.1757812 -0.46875,-0.375 -1.042969,-0.375 -0.726562,0 -1.195312,0.4335938 -1.476562,1.0546875 v -1.0546875 l -1.40625,0.1171875 v 0.3046875 c 0.703125,0 0.785156,0.070312 0.785156,0.5625 z m 5.592773,1.2539063 c 0,-1.6289063 0.820313,-2.0507813 1.347657,-2.0507813 0.09375,0 0.714843,0.011719 1.066406,0.375 -0.410156,0.023437 -0.46875,0.328125 -0.46875,0.4570313 0,0.2578125 0.1875,0.4570312 0.457031,0.4570312 0.257813,0 0.457031,-0.1640625 0.457031,-0.46875 0,-0.6796875 -0.75,-1.0664062 -1.523437,-1.0664062 -1.242188,0 -2.15625,1.078125 -2.15625,2.3085937 0,1.27734378 0.984375,2.26171878 2.144531,2.26171878 1.335938,0 1.652344,-1.19531248 1.652344,-1.28906248 0,-0.1054688 -0.105469,-0.1054688 -0.128906,-0.1054688 -0.09375,0 -0.117188,0.046875 -0.128907,0.1054688 -0.292968,0.92578123 -0.9375,1.04296873 -1.3125,1.04296873 -0.527343,0 -1.40625,-0.421875 -1.40625,-2.02734373 z m 4.989258,-1.8164063 h 1.429688 V -4.2904219 H 50.15066 v -1.8398437 h -0.246093 c -0.01172,0.8203125 -0.316407,1.8867187 -1.289063,1.921875 v 0.2226562 h 0.84375 v 2.7539063 c 0,1.21874998 0.925781,1.33593748 1.289063,1.33593748 0.703125,0 0.984375,-0.703125 0.984375,-1.33593748 v -0.5742188 h -0.246094 v 0.5507813 c 0,0.73828123 -0.304688,1.11328123 -0.667969,1.11328123 -0.667969,0 -0.667969,-0.90234373 -0.667969,-1.07812503 z m 3.911133,-0.421875 -1.394531,0.1171875 v 0.3046875 c 0.65625,0 0.738281,0.058594 0.738281,0.5507813 v 2.67187498 c 0,0.45703125 -0.105469,0.45703125 -0.773437,0.45703125 v 0.3046875 c 0.316406,-0.01171875 0.855468,-0.03515625 1.101562,-0.03515625 0.339844,0 0.691406,0.0234375 1.03125,0.03515625 v -0.3046875 c -0.65625,0 -0.703125,-0.0585938 -0.703125,-0.4453125 z m 0.04687,-1.734375 c 0,-0.3164062 -0.246094,-0.5273437 -0.527344,-0.5273437 -0.316406,0 -0.527343,0.2695312 -0.527343,0.5273437 0,0.2695313 0.210937,0.5273438 0.527343,0.5273438 0.28125,0 0.527344,-0.1992188 0.527344,-0.5273438 z m 5.648438,4.0078125 c 0,-1.2773437 -0.996094,-2.3320312 -2.191407,-2.3320312 -1.253906,0 -2.214843,1.0898437 -2.214843,2.3320312 0,1.28906253 1.03125,2.23828128 2.203125,2.23828128 1.207031,0 2.203125,-0.97265625 2.203125,-2.23828128 z m -2.191407,1.99218753 c -0.433593,0 -0.867187,-0.2109375 -1.136718,-0.66796875 -0.257813,-0.43359378 -0.257813,-1.04296878 -0.257813,-1.40624998 0,-0.3867188 0,-0.9257813 0.246094,-1.359375 0.269531,-0.4570313 0.738281,-0.6679688 1.136719,-0.6679688 0.433593,0 0.867187,0.2226563 1.125,0.6445313 0.257812,0.4335937 0.257812,1.0078125 0.257812,1.3828125 0,0.3632812 0,0.9023437 -0.222656,1.33593748 -0.222656,0.4453125 -0.65625,0.73828125 -1.148438,0.73828125 z m 3.588868,-3.28125003 v 2.66015628 c 0,0.45703125 -0.117188,0.45703125 -0.785157,0.45703125 v 0.3046875 c 0.351563,-0.01171875 0.855469,-0.03515625 1.125,-0.03515625 0.257813,0 0.785157,0.0234375 1.113282,0.03515625 v -0.3046875 c -0.65625,0 -0.773438,0 -0.773438,-0.45703125 V -2.5912031 c 0,-1.03125 0.714844,-1.59375 1.347656,-1.59375 0.621094,0 0.738282,0.5390625 0.738282,1.1015625 v 2.32031248 c 0,0.45703125 -0.117188,0.45703125 -0.773438,0.45703125 v 0.3046875 c 0.339844,-0.01171875 0.855469,-0.03515625 1.125,-0.03515625 0.257813,0 0.773438,0.0234375 1.113281,0.03515625 v -0.3046875 c -0.515625,0 -0.773437,0 -0.785156,-0.3046875 V -2.5091719 c 0,-0.8554687 0,-1.171875 -0.304687,-1.5234375 -0.140625,-0.1757812 -0.46875,-0.375 -1.042969,-0.375 -0.726563,0 -1.195313,0.4335938 -1.476563,1.0546875 v -1.0546875 l -1.40625,0.1171875 v 0.3046875 c 0.703125,0 0.785157,0.070312 0.785157,0.5625 z m 9.471679,-0.5625 h 1.429688 v -0.3046875 h -1.429688 v -1.8398437 h -0.246094 c -0.01172,0.8203125 -0.316406,1.8867187 -1.289062,1.921875 v 0.2226562 h 0.84375 v 2.7539063 c 0,1.21874998 0.925781,1.33593748 1.289062,1.33593748 0.703125,0 0.984375,-0.703125 0.984375,-1.33593748 V -1.8060469 H 71.96218 v 0.5507813 c 0,0.73828123 -0.304688,1.11328123 -0.667969,1.11328123 -0.667969,0 -0.667969,-0.90234373 -0.667969,-1.07812503 z m 3.817383,0.6796875 v -1.1015625 l -1.382812,0.1171875 v 0.3046875 c 0.691406,0 0.773437,0.070312 0.773437,0.5625 v 2.66015628 c 0,0.45703125 -0.105469,0.45703125 -0.773437,0.45703125 v 0.3046875 c 0.386718,-0.01171875 0.855468,-0.03515625 1.136718,-0.03515625 0.398438,0 0.867188,0 1.265625,0.03515625 v -0.3046875 h -0.210937 c -0.738281,0 -0.761719,-0.1171875 -0.761719,-0.46875 V -2.3099531 c 0,-0.984375 0.421875,-1.875 1.183594,-1.875 0.05859,0 0.08203,0 0.105469,0.011719 -0.03516,0.011719 -0.234375,0.1289063 -0.234375,0.3867188 0,0.28125 0.210937,0.4335937 0.433593,0.4335937 0.175782,0 0.421875,-0.1289062 0.421875,-0.4453125 0,-0.3164062 -0.304687,-0.609375 -0.726562,-0.609375 -0.738281,0 -1.089844,0.6679688 -1.230469,1.1015622 z m 5.554688,2.54296878 c 0.03516,0.3984375 0.304687,0.8203125 0.773437,0.8203125 0.210938,0 0.820313,-0.140625 0.820313,-0.94921875 V -1.4427656 h -0.246094 v 0.55078123 c 0,0.5859375 -0.246094,0.64453125 -0.363281,0.64453125 -0.328125,0 -0.363282,-0.45703125 -0.363282,-0.50390625 V -2.7435469 c 0,-0.4101562 0,-0.8085937 -0.363281,-1.171875 -0.386719,-0.3867187 -0.878906,-0.5507812 -1.359375,-0.5507812 -0.820312,0 -1.511719,0.46875 -1.511719,1.125 0,0.3046875 0.199219,0.46875 0.457032,0.46875 0.28125,0 0.46875,-0.1992188 0.46875,-0.4570313 0,-0.1171875 -0.05859,-0.4453125 -0.515625,-0.4570312 0.269531,-0.3515625 0.761718,-0.4570313 1.078125,-0.4570313 0.492187,0 1.054687,0.3867188 1.054687,1.2773438 v 0.3632812 c -0.503906,0.035156 -1.207031,0.058594 -1.828125,0.3632813 -0.75,0.3398437 -0.996094,0.8554687 -0.996094,1.28906248 0,0.80859375 0.960938,1.0546875 1.59375,1.0546875 0.65625,0 1.113282,-0.3984375 1.300782,-0.8671875 z M 79.928,-2.3919844 v 0.9960938 c 0,0.94921873 -0.714844,1.28906248 -1.160156,1.28906248 -0.492188,0 -0.902344,-0.3515625 -0.902344,-0.85546875 0,-0.53906253 0.421875,-1.37109373 2.0625,-1.42968753 z m 2.835938,-1.03125 v 2.66015628 c 0,0.45703125 -0.117188,0.45703125 -0.785157,0.45703125 v 0.3046875 c 0.351563,-0.01171875 0.855469,-0.03515625 1.125,-0.03515625 0.257813,0 0.785157,0.0234375 1.113282,0.03515625 v -0.3046875 c -0.65625,0 -0.773438,0 -0.773438,-0.45703125 V -2.5912031 c 0,-1.03125 0.714844,-1.59375 1.347656,-1.59375 0.621094,0 0.738282,0.5390625 0.738282,1.1015625 v 2.32031248 c 0,0.45703125 -0.117188,0.45703125 -0.773438,0.45703125 v 0.3046875 c 0.339844,-0.01171875 0.855469,-0.03515625 1.125,-0.03515625 0.257813,0 0.773438,0.0234375 1.113281,0.03515625 v -0.3046875 c -0.515625,0 -0.773437,0 -0.785156,-0.3046875 V -2.5091719 c 0,-0.8554687 0,-1.171875 -0.304687,-1.5234375 -0.140625,-0.1757812 -0.46875,-0.375 -1.042969,-0.375 -0.726563,0 -1.195313,0.4335938 -1.476563,1.0546875 v -1.0546875 l -1.40625,0.1171875 v 0.3046875 c 0.703125,0 0.785157,0.070312 0.785157,0.5625 z m 6.506835,1.4882813 c 0.222657,0.035156 1.03125,0.1992187 1.03125,0.9140625 0,0.51562498 -0.351562,0.91406248 -1.125,0.91406248 -0.832031,0 -1.195312,-0.57421875 -1.382812,-1.41796878 -0.03516,-0.1289062 -0.03516,-0.1757812 -0.140625,-0.1757812 -0.128906,0 -0.128906,0.070312 -0.128906,0.2578125 v 1.31249998 c 0,0.1640625 0,0.234375 0.105468,0.234375 0.05859,0 0.07031,0 0.257813,-0.19921875 0.01172,-0.01171875 0.01172,-0.03515625 0.199219,-0.22265625 0.433593,0.421875 0.878906,0.421875 1.089843,0.421875 1.148438,0 1.605469,-0.66796875 1.605469,-1.38281248 0,-0.5273438 -0.292969,-0.8203125 -0.421875,-0.9492188 -0.328125,-0.3164062 -0.714844,-0.3984375 -1.136719,-0.46875 -0.550781,-0.1171875 -1.21875,-0.2460937 -1.21875,-0.8203125 0,-0.3515625 0.257813,-0.7617187 1.113282,-0.7617187 1.101562,0 1.148437,0.9023437 1.171875,1.2070312 0,0.09375 0.09375,0.09375 0.117187,0.09375 0.128906,0 0.128906,-0.046875 0.128906,-0.2460937 v -0.9960938 c 0,-0.1757812 0,-0.2460937 -0.117187,-0.2460937 -0.04687,0 -0.07031,0 -0.199219,0.1171875 -0.02344,0.046875 -0.128906,0.1289062 -0.164062,0.1640625 -0.375,-0.28125 -0.785157,-0.28125 -0.9375,-0.28125 -1.21875,0 -1.59375,0.6679687 -1.59375,1.2304687 0,0.3398438 0.164062,0.6210938 0.433593,0.84375 0.316407,0.2578125 0.597657,0.3164063 1.3125,0.4570313 z m 3.603516,-2.3554688 v -1.1601562 c 0,-0.8789063 0.480469,-1.359375 0.914063,-1.359375 0.03516,0 0.175781,0 0.328125,0.070312 -0.117188,0.046875 -0.292969,0.1757812 -0.292969,0.421875 0,0.234375 0.152344,0.4335937 0.421875,0.4335937 0.292969,0 0.433594,-0.1992187 0.433594,-0.4453125 0,-0.3632812 -0.363282,-0.6914062 -0.890625,-0.6914062 -0.703125,0 -1.546875,0.5273437 -1.546875,1.5820312 v 1.1484375 H 91.45632 v 0.3046875 h 0.785157 v 3.22265628 c 0,0.45703125 -0.105469,0.45703125 -0.773438,0.45703125 v 0.3046875 c 0.386719,-0.01171875 0.855469,-0.03515625 1.136719,-0.03515625 0.398437,0 0.867187,0 1.265625,0.03515625 v -0.3046875 h -0.210938 c -0.738281,0 -0.761718,-0.1171875 -0.761718,-0.46875 V -3.9857344 h 1.136718 v -0.3046875 z m 5.985352,2.15625 c 0,-1.2773437 -0.996094,-2.3320312 -2.191407,-2.3320312 -1.253906,0 -2.214843,1.0898437 -2.214843,2.3320312 0,1.28906253 1.03125,2.23828128 2.203125,2.23828128 1.207031,0 2.203125,-0.97265625 2.203125,-2.23828128 z m -2.191407,1.99218753 c -0.433593,0 -0.867187,-0.2109375 -1.136718,-0.66796875 -0.257813,-0.43359378 -0.257813,-1.04296878 -0.257813,-1.40624998 0,-0.3867188 0,-0.9257813 0.246094,-1.359375 0.269531,-0.4570313 0.738281,-0.6679688 1.136719,-0.6679688 0.433593,0 0.867187,0.2226563 1.125,0.6445313 0.257812,0.4335937 0.257812,1.0078125 0.257812,1.3828125 0,0.3632812 0,0.9023437 -0.222656,1.33593748 -0.222656,0.4453125 -0.65625,0.73828125 -1.148438,0.73828125 z m 4.148436,-3.16406253 v -1.1015625 l -1.382811,0.1171875 v 0.3046875 c 0.691411,0 0.773441,0.070312 0.773441,0.5625 v 2.66015628 c 0,0.45703125 -0.10547,0.45703125 -0.773441,0.45703125 v 0.3046875 c 0.386719,-0.01171875 0.855471,-0.03515625 1.136721,-0.03515625 0.39844,0 0.86719,0 1.26562,0.03515625 v -0.3046875 h -0.21093 c -0.73829,0 -0.76172,-0.1171875 -0.76172,-0.46875 V -2.3099531 c 0,-0.984375 0.42187,-1.875 1.18359,-1.875 0.0586,0 0.082,0 0.10547,0.011719 -0.0352,0.011719 -0.23438,0.1289063 -0.23438,0.3867188 0,0.28125 0.21094,0.4335937 0.4336,0.4335937 0.17578,0 0.42187,-0.1289062 0.42187,-0.4453125 0,-0.3164062 -0.30468,-0.609375 -0.72656,-0.609375 -0.73828,0 -1.08984,0.6679688 -1.23047,1.1015622 z m 3.33985,-0.1171875 v 2.66015628 c 0,0.45703125 -0.11719,0.45703125 -0.78516,0.45703125 v 0.3046875 c 0.35156,-0.01171875 0.85547,-0.03515625 1.125,-0.03515625 0.25781,0 0.78516,0.0234375 1.11328,0.03515625 v -0.3046875 c -0.65625,0 -0.77344,0 -0.77344,-0.45703125 V -2.5912031 c 0,-1.03125 0.71485,-1.59375 1.34766,-1.59375 0.62109,0 0.73828,0.5390625 0.73828,1.1015625 v 2.32031248 c 0,0.45703125 -0.11719,0.45703125 -0.77344,0.45703125 v 0.3046875 c 0.33985,-0.01171875 0.85547,-0.03515625 1.125,-0.03515625 0.25782,0 0.77344,0.0234375 1.11328,0.03515625 v -0.3046875 c -0.66796,0 -0.78515,0 -0.78515,-0.45703125 V -2.5912031 c 0,-1.03125 0.71484,-1.59375 1.34765,-1.59375 0.63282,0 0.73829,0.5390625 0.73829,1.1015625 v 2.32031248 c 0,0.45703125 -0.10547,0.45703125 -0.77344,0.45703125 v 0.3046875 c 0.35156,-0.01171875 0.85547,-0.03515625 1.125,-0.03515625 0.25781,0 0.77344,0.0234375 1.11328,0.03515625 v -0.3046875 c -0.51563,0 -0.76172,0 -0.77344,-0.3046875 V -2.5091719 c 0,-0.8554687 0,-1.171875 -0.3164,-1.5234375 -0.12891,-0.1757812 -0.46875,-0.375 -1.04297,-0.375 -0.83203,0 -1.27735,0.5976563 -1.44141,0.984375 -0.14062,-0.8671875 -0.87891,-0.984375 -1.32422,-0.984375 -0.72656,0 -1.19531,0.4335938 -1.47656,1.0546875 v -1.0546875 l -1.40625,0.1171875 v 0.3046875 c 0.70312,0 0.78516,0.070312 0.78516,0.5625 z m 10.51757,2.66015628 c 0.0352,0.3984375 0.30469,0.8203125 0.77344,0.8203125 0.21094,0 0.82031,-0.140625 0.82031,-0.94921875 V -1.4427656 h -0.24609 v 0.55078123 c 0,0.5859375 -0.24609,0.64453125 -0.36328,0.64453125 -0.32813,0 -0.36328,-0.45703125 -0.36328,-0.50390625 V -2.7435469 c 0,-0.4101562 0,-0.8085937 -0.36328,-1.171875 -0.38672,-0.3867187 -0.87891,-0.5507812 -1.35938,-0.5507812 -0.82031,0 -1.51172,0.46875 -1.51172,1.125 0,0.3046875 0.19922,0.46875 0.45703,0.46875 0.28125,0 0.46875,-0.1992188 0.46875,-0.4570313 0,-0.1171875 -0.0586,-0.4453125 -0.51562,-0.4570312 0.26953,-0.3515625 0.76172,-0.4570313 1.07812,-0.4570313 0.49219,0 1.05469,0.3867188 1.05469,1.2773438 v 0.3632812 c -0.5039,0.035156 -1.20703,0.058594 -1.82812,0.3632813 -0.75,0.3398437 -0.9961,0.8554687 -0.9961,1.28906248 0,0.80859375 0.96094,1.0546875 1.59375,1.0546875 0.65625,0 1.11328,-0.3984375 1.30078,-0.8671875 z m -0.0703,-1.62890628 v 0.9960938 c 0,0.94921873 -0.71484,1.28906248 -1.16015,1.28906248 -0.49219,0 -0.90235,-0.3515625 -0.90235,-0.85546875 0,-0.53906253 0.42188,-1.37109373 2.0625,-1.42968753 z m 3.45703,-1.59375 h 1.42969 v -0.3046875 h -1.42969 v -1.8398437 h -0.24609 c -0.0117,0.8203125 -0.31641,1.8867187 -1.28906,1.921875 v 0.2226562 h 0.84375 v 2.7539063 c 0,1.21874998 0.92578,1.33593748 1.28906,1.33593748 0.70312,0 0.98437,-0.703125 0.98437,-1.33593748 v -0.5742188 h -0.24609 v 0.5507813 c 0,0.73828123 -0.30469,1.11328123 -0.66797,1.11328123 -0.66797,0 -0.66797,-0.90234373 -0.66797,-1.07812503 z m 3.91114,-0.421875 -1.39454,0.1171875 v 0.3046875 c 0.65625,0 0.73829,0.058594 0.73829,0.5507813 v 2.67187498 c 0,0.45703125 -0.10547,0.45703125 -0.77344,0.45703125 v 0.3046875 c 0.3164,-0.01171875 0.85547,-0.03515625 1.10156,-0.03515625 0.33984,0 0.69141,0.0234375 1.03125,0.03515625 v -0.3046875 c -0.65625,0 -0.70312,-0.0585938 -0.70312,-0.4453125 z m 0.0469,-1.734375 c 0,-0.3164062 -0.24609,-0.5273437 -0.52734,-0.5273437 -0.31641,0 -0.52735,0.2695312 -0.52735,0.5273437 0,0.2695313 0.21094,0.5273438 0.52735,0.5273438 0.28125,0 0.52734,-0.1992188 0.52734,-0.5273438 z m 5.64844,4.0078125 c 0,-1.2773437 -0.9961,-2.3320312 -2.19141,-2.3320312 -1.2539,0 -2.21484,1.0898437 -2.21484,2.3320312 0,1.28906253 1.03125,2.23828128 2.20312,2.23828128 1.20703,0 2.20313,-0.97265625 2.20313,-2.23828128 z m -2.19141,1.99218753 c -0.43359,0 -0.86719,-0.2109375 -1.13672,-0.66796875 -0.25781,-0.43359378 -0.25781,-1.04296878 -0.25781,-1.40624998 0,-0.3867188 0,-0.9257813 0.24609,-1.359375 0.26954,-0.4570313 0.73829,-0.6679688 1.13672,-0.6679688 0.4336,0 0.86719,0.2226563 1.125,0.6445313 0.25782,0.4335937 0.25782,1.0078125 0.25782,1.3828125 0,0.3632812 0,0.9023437 -0.22266,1.33593748 -0.22266,0.4453125 -0.65625,0.73828125 -1.14844,0.73828125 z m 3.58594,-3.28125003 v 2.66015628 c 0,0.45703125 -0.11719,0.45703125 -0.78516,0.45703125 v 0.3046875 c 0.35157,-0.01171875 0.85547,-0.03515625 1.125,-0.03515625 0.25782,0 0.78516,0.0234375 1.11328,0.03515625 v -0.3046875 c -0.65625,0 -0.77343,0 -0.77343,-0.45703125 V -2.5912031 c 0,-1.03125 0.71484,-1.59375 1.34765,-1.59375 0.6211,0 0.73828,0.5390625 0.73828,1.1015625 v 2.32031248 c 0,0.45703125 -0.11718,0.45703125 -0.77343,0.45703125 v 0.3046875 c 0.33984,-0.01171875 0.85547,-0.03515625 1.125,-0.03515625 0.25781,0 0.77343,0.0234375 1.11328,0.03515625 v -0.3046875 c -0.51563,0 -0.77344,0 -0.78516,-0.3046875 V -2.5091719 c 0,-0.8554687 0,-1.171875 -0.30469,-1.5234375 -0.14062,-0.1757812 -0.46875,-0.375 -1.04296,-0.375 -0.72657,0 -1.19532,0.4335938 -1.47657,1.0546875 v -1.0546875 l -1.40625,0.1171875 v 0.3046875 c 0.70313,0 0.78516,0.070312 0.78516,0.5625 z m 0,0"
       style="fill:#000000;fill-opacity:1;fill-rule:nonzero;stroke:none"
       aria-label="Applyfunctiontransformation"
       transform="matrix(1.3333333,0,0,1.3333333,19.429333,104.244)" />
    <path
       id="path6"
       d="M -76.06721,-131.01991 H 76.06722 v 35.26537 H -76.06721 Z"
       style="fill:none;stroke:#000000;stroke-width:0.79701;stroke-linecap:butt;stroke-linejoin:miter;stroke-miterlimit:10;stroke-dasharray:none;stroke-opacity:1"
       transform="matrix(1.3333333,0,0,-1.3333333,108.42933,25.332)" />
    <path
       id="path7"
       d="m 7.1842813,-3.37525 c 0,-2.0390625 -1.5,-3.6445312 -3.3164063,-3.6445312 -1.78125,0 -3.3046875,1.59375 -3.3046875,3.6445312 0,2.0390625 1.5351563,3.59765625 3.3046875,3.59765625 1.8164063,0 3.3164063,-1.58203125 3.3164063,-3.59765625 z m -3.3046875,3.33984375 c -0.9609375,0 -2.296875,-0.87890625 -2.296875,-3.48046875 0,-2.578125 1.453125,-3.2578125 2.2851562,-3.2578125 0.8671875,0 2.2851563,0.703125 2.2851563,3.2578125 0,2.63671875 -1.359375,3.48046875 -2.2734375,3.48046875 z M 9.4606484,-3.75025 v -3.1640625 l -1.4296875,0.1054688 v 0.3164062 c 0.6914063,0 0.7734375,0.070312 0.7734375,0.5507813 V -2.5e-4 h 0.2460938 c 0.011719,-0.01171875 0.09375,-0.15234375 0.3632812,-0.62109375 0.1523438,0.234375 0.5625,0.7265625 1.3007816,0.7265625 1.183593,0 2.226562,-0.97265625 2.226562,-2.26171875 0,-1.265625 -0.972656,-2.25 -2.109375,-2.25 -0.785156,0 -1.2070311,0.46875 -1.3710936,0.65625 z m 0.035156,2.6132813 V -3.18775 c 0,-0.1875 0,-0.1992187 0.1054687,-0.3632812 0.3867188,-0.5507813 0.9374999,-0.6328125 1.1718749,-0.6328125 0.457032,0 0.808594,0.2578125 1.054688,0.6328125 0.257812,0.4101562 0.28125,0.984375 0.28125,1.3945312 0,0.3632813 -0.01172,0.9609375 -0.304688,1.40625 -0.210937,0.31640625 -0.585937,0.64453125 -1.125,0.64453125 -0.445312,0 -0.8085936,-0.24609375 -1.0429686,-0.609375 -0.140625,-0.2109375 -0.140625,-0.24609375 -0.140625,-0.42187495 z M 15.006547,-3.984625 h 1.429687 v -0.3046875 h -1.429687 v -1.8398437 h -0.246094 c -0.01172,0.8203125 -0.316406,1.8867187 -1.289062,1.921875 v 0.2226562 h 0.84375 v 2.7539063 c 0,1.21874995 0.925781,1.33593745 1.289062,1.33593745 0.703125,0 0.984375,-0.703125 0.984375,-1.33593745 v -0.5742188 h -0.246094 v 0.5507813 c 0,0.7382812 -0.304687,1.1132812 -0.667968,1.1132812 -0.667969,0 -0.667969,-0.9023437 -0.667969,-1.078125 z m 5.469726,3.22265625 c 0.03516,0.3984375 0.304688,0.8203125 0.773438,0.8203125 0.210937,0 0.820312,-0.140625 0.820312,-0.94921875 V -1.4416562 H 21.82393 v 0.5507812 c 0,0.5859375 -0.246094,0.64453125 -0.363282,0.64453125 -0.328125,0 -0.363281,-0.45703125 -0.363281,-0.50390625 v -1.9921875 c 0,-0.4101562 0,-0.8085937 -0.363281,-1.171875 -0.386719,-0.3867187 -0.878906,-0.5507812 -1.359375,-0.5507812 -0.820313,0 -1.511719,0.46875 -1.511719,1.125 0,0.3046875 0.199219,0.46875 0.457031,0.46875 0.28125,0 0.46875,-0.1992188 0.46875,-0.4570313 0,-0.1171875 -0.05859,-0.4453125 -0.515625,-0.4570312 0.269532,-0.3515625 0.761719,-0.4570313 1.078125,-0.4570313 0.492188,0 1.054688,0.3867188 1.054688,1.2773438 v 0.3632812 c -0.503906,0.035156 -1.207031,0.058594 -1.828125,0.3632813 -0.75,0.3398437 -0.996094,0.8554687 -0.996094,1.28906245 0,0.80859375 0.960938,1.0546875 1.59375,1.0546875 0.65625,0 1.113281,-0.3984375 1.300781,-0.8671875 z M 20.405961,-2.390875 v 0.9960938 c 0,0.9492187 -0.714844,1.28906245 -1.160156,1.28906245 -0.492188,0 -0.902344,-0.3515625 -0.902344,-0.85546875 0,-0.5390625 0.421875,-1.3710937 2.0625,-1.4296875 z m 3.492187,-2.015625 -1.394531,0.1171875 v 0.3046875 c 0.65625,0 0.738281,0.058594 0.738281,0.5507813 v 2.67187495 c 0,0.45703125 -0.105468,0.45703125 -0.773437,0.45703125 V -2.5e-4 c 0.316406,-0.01171875 0.855469,-0.03515625 1.101562,-0.03515625 0.339844,0 0.691407,0.0234375 1.03125,0.03515625 v -0.3046875 c -0.65625,0 -0.703125,-0.0585938 -0.703125,-0.4453125 z m 0.04687,-1.734375 c 0,-0.3164062 -0.246093,-0.5273437 -0.527343,-0.5273437 -0.316407,0 -0.527344,0.2695312 -0.527344,0.5273437 0,0.2695313 0.210937,0.5273438 0.527344,0.5273438 0.28125,0 0.527343,-0.1992188 0.527343,-0.5273438 z m 2.06543,2.71875 v 2.66015625 c 0,0.45703125 -0.117187,0.45703125 -0.785156,0.45703125 V -2.5e-4 c 0.351562,-0.01171875 0.855469,-0.03515625 1.125,-0.03515625 0.257812,0 0.785156,0.0234375 1.113281,0.03515625 v -0.3046875 c -0.65625,0 -0.773437,0 -0.773437,-0.45703125 V -2.5900937 c 0,-1.03125 0.714843,-1.59375 1.347656,-1.59375 0.621094,0 0.738281,0.5390625 0.738281,1.1015625 v 2.32031245 c 0,0.45703125 -0.117187,0.45703125 -0.773437,0.45703125 V -2.5e-4 c 0.339843,-0.01171875 0.855468,-0.03515625 1.125,-0.03515625 0.257812,0 0.773437,0.0234375 1.113281,0.03515625 v -0.3046875 c -0.515625,0 -0.773438,0 -0.785156,-0.3046875 v -1.8984375 c 0,-0.8554687 0,-1.171875 -0.304688,-1.5234375 -0.140625,-0.1757812 -0.46875,-0.375 -1.042969,-0.375 -0.726562,0 -1.195312,0.4335938 -1.476562,1.0546875 V -4.4065 l -1.40625,0.1171875 v 0.3046875 c 0.703125,0 0.785156,0.070312 0.785156,0.5625 z m 11.53418,2.87109375 v 0.65625 L 39.009477,-2.5e-4 v -0.3046875 c -0.703125,0 -0.773438,-0.0703125 -0.773438,-0.5625 v -6.046875 l -1.441406,0.1054688 v 0.3164062 c 0.703125,0 0.785156,0.070312 0.785156,0.5507813 v 2.15625 C 37.28682,-4.1486875 36.853227,-4.4065 36.314164,-4.4065 c -1.171875,0 -2.214844,0.984375 -2.214844,2.2617188 0,1.26562495 0.972657,2.24999995 2.109375,2.24999995 0.644532,0 1.089844,-0.33984375 1.335938,-0.65625 z m 0,-2.67187495 v 2.0507812 c 0,0.17578125 0,0.19921875 -0.105469,0.36328125 -0.304687,0.48046875 -0.75,0.703125 -1.183594,0.703125 -0.445312,0 -0.796875,-0.2578125 -1.042968,-0.64453125 -0.257813,-0.4101562 -0.292969,-0.9726562 -0.292969,-1.3828125 0,-0.3632812 0.02344,-0.9609375 0.316406,-1.4179687 0.210938,-0.3046875 0.585938,-0.6328125 1.125,-0.6328125 0.351563,0 0.761719,0.1523437 1.078125,0.5976562 0.105469,0.1640625 0.105469,0.1875 0.105469,0.3632813 z m 2.865234,0.7148437 c 0.05859,-1.4882812 0.902344,-1.734375 1.242188,-1.734375 1.019531,0 1.125,1.3476563 1.125,1.734375 z m -0.01172,0.2109375 h 2.789063 c 0.210937,0 0.246094,0 0.246094,-0.2109375 0,-0.984375 -0.539063,-1.9570312 -1.78125,-1.9570312 -1.160157,0 -2.074219,1.03125 -2.074219,2.2734375 0,1.33593745 1.042969,2.29687495 2.191406,2.29687495 1.21875,0 1.664063,-1.1015625 1.664063,-1.28906245 0,-0.1054688 -0.08203,-0.1171875 -0.128907,-0.1171875 -0.09375,0 -0.117187,0.058594 -0.128906,0.140625 -0.351562,1.0195312 -1.253906,1.0195312 -1.347656,1.0195312 -0.503906,0 -0.902344,-0.29296875 -1.125,-0.66796875 C 40.398148,-1.2893125 40.398148,-1.9455625 40.398148,-2.297125 Z m 5.399415,0.3632813 c 0.222656,0.035156 1.03125,0.1992187 1.03125,0.9140625 0,0.51562495 -0.351563,0.91406245 -1.125,0.91406245 -0.832032,0 -1.195313,-0.57421875 -1.382813,-1.41796875 -0.03516,-0.1289062 -0.03516,-0.1757812 -0.140625,-0.1757812 -0.128906,0 -0.128906,0.070312 -0.128906,0.2578125 v 1.31249995 c 0,0.1640625 0,0.234375 0.105469,0.234375 0.05859,0 0.07031,0 0.257812,-0.19921875 0.01172,-0.01171875 0.01172,-0.03515625 0.199219,-0.22265625 0.433594,0.421875 0.878906,0.421875 1.089844,0.421875 1.148437,0 1.605468,-0.66796875 1.605468,-1.38281245 0,-0.5273438 -0.292968,-0.8203125 -0.421875,-0.9492188 -0.328125,-0.3164062 -0.714843,-0.3984375 -1.136718,-0.46875 -0.550782,-0.1171875 -1.21875,-0.2460937 -1.21875,-0.8203125 0,-0.3515625 0.257812,-0.7617187 1.113281,-0.7617187 1.101562,0 1.148437,0.9023437 1.171875,1.2070312 0,0.09375 0.09375,0.09375 0.117187,0.09375 0.128907,0 0.128907,-0.046875 0.128907,-0.2460937 V -4.219 c 0,-0.1757812 0,-0.2460937 -0.117188,-0.2460937 -0.04687,0 -0.07031,0 -0.199219,0.1171875 -0.02344,0.046875 -0.128906,0.1289062 -0.164062,0.1640625 -0.375,-0.28125 -0.785156,-0.28125 -0.9375,-0.28125 -1.21875,0 -1.59375,0.6679687 -1.59375,1.2304687 0,0.3398438 0.164062,0.6210938 0.433594,0.84375 0.316406,0.2578125 0.597656,0.3164063 1.3125,0.4570313 z m 3.61231,-2.4726563 -1.394531,0.1171875 v 0.3046875 c 0.65625,0 0.738281,0.058594 0.738281,0.5507813 v 2.67187495 c 0,0.45703125 -0.105469,0.45703125 -0.773437,0.45703125 V -2.5e-4 c 0.316406,-0.01171875 0.855468,-0.03515625 1.101562,-0.03515625 0.339844,0 0.691406,0.0234375 1.03125,0.03515625 v -0.3046875 c -0.65625,0 -0.703125,-0.0585938 -0.703125,-0.4453125 z m 0.04687,-1.734375 c 0,-0.3164062 -0.246094,-0.5273437 -0.527344,-0.5273437 -0.316406,0 -0.527343,0.2695312 -0.527343,0.5273437 0,0.2695313 0.210937,0.5273438 0.527343,0.5273438 0.28125,0 0.527344,-0.1992188 0.527344,-0.5273438 z m 2.62793,2.8359375 V -4.4065 l -1.382813,0.1171875 v 0.3046875 c 0.691407,0 0.773438,0.070312 0.773438,0.5625 v 2.66015625 c 0,0.45703125 -0.105469,0.45703125 -0.773438,0.45703125 V -2.5e-4 c 0.386719,-0.01171875 0.855469,-0.03515625 1.136719,-0.03515625 0.398438,0 0.867188,0 1.265625,0.03515625 v -0.3046875 h -0.210937 c -0.738282,0 -0.761719,-0.1171875 -0.761719,-0.46875 v -1.5351562 c 0,-0.984375 0.421875,-1.875 1.183594,-1.875 0.05859,0 0.08203,0 0.105468,0.011719 -0.03516,0.011719 -0.234375,0.1289063 -0.234375,0.3867188 0,0.28125 0.210938,0.4335937 0.433594,0.4335937 0.175781,0 0.421875,-0.1289062 0.421875,-0.4453125 0,-0.3164062 -0.304687,-0.609375 -0.726562,-0.609375 -0.738282,0 -1.089844,0.6679688 -1.230469,1.1015622 z m 3.351562,0.796875 c 0.05859,-1.4882812 0.902344,-1.734375 1.242188,-1.734375 1.019531,0 1.125,1.3476563 1.125,1.734375 z m -0.01172,0.2109375 h 2.789062 c 0.210938,0 0.246094,0 0.246094,-0.2109375 0,-0.984375 -0.539063,-1.9570312 -1.78125,-1.9570312 -1.160156,0 -2.074219,1.03125 -2.074219,2.2734375 0,1.33593745 1.042969,2.29687495 2.191406,2.29687495 1.21875,0 1.664063,-1.1015625 1.664063,-1.28906245 0,-0.1054688 -0.08203,-0.1171875 -0.128906,-0.1171875 -0.09375,0 -0.117188,0.058594 -0.128907,0.140625 -0.351562,1.0195312 -1.253906,1.0195312 -1.347656,1.0195312 -0.503906,0 -0.902344,-0.29296875 -1.125,-0.66796875 -0.30468,-0.48046875 -0.30468,-1.13671875 -0.30468,-1.48828125 z m 7.110351,1.74609375 v 0.65625 L 63.999711,-2.5e-4 v -0.3046875 c -0.703125,0 -0.773438,-0.0703125 -0.773438,-0.5625 v -6.046875 l -1.441406,0.1054688 v 0.3164062 c 0.703125,0 0.785156,0.070312 0.785156,0.5507813 v 2.15625 C 62.277055,-4.1486875 61.843461,-4.4065 61.304398,-4.4065 c -1.171875,0 -2.214843,0.984375 -2.214843,2.2617188 0,1.26562495 0.972656,2.24999995 2.109375,2.24999995 0.644531,0 1.089843,-0.33984375 1.335937,-0.65625 z m 0,-2.67187495 v 2.0507812 c 0,0.17578125 0,0.19921875 -0.105469,0.36328125 -0.304687,0.48046875 -0.75,0.703125 -1.183593,0.703125 -0.445313,0 -0.796875,-0.2578125 -1.042969,-0.64453125 -0.257813,-0.4101562 -0.292969,-0.9726562 -0.292969,-1.3828125 0,-0.3632812 0.02344,-0.9609375 0.316406,-1.4179687 0.210938,-0.3046875 0.585938,-0.6328125 1.125,-0.6328125 0.351563,0 0.761719,0.1523437 1.078125,0.5976562 0.105469,0.1640625 0.105469,0.1875 0.105469,0.3632813 z m 6.178711,-0.1992188 v 2.66015625 c 0,0.45703125 -0.117187,0.45703125 -0.785156,0.45703125 V -2.5e-4 c 0.351562,-0.01171875 0.855469,-0.03515625 1.125,-0.03515625 0.257812,0 0.785156,0.0234375 1.113281,0.03515625 v -0.3046875 c -0.65625,0 -0.773437,0 -0.773437,-0.45703125 V -2.5900937 c 0,-1.03125 0.714843,-1.59375 1.347656,-1.59375 0.621094,0 0.738281,0.5390625 0.738281,1.1015625 v 2.32031245 c 0,0.45703125 -0.117187,0.45703125 -0.773437,0.45703125 V -2.5e-4 c 0.339843,-0.01171875 0.855468,-0.03515625 1.125,-0.03515625 0.257812,0 0.773437,0.0234375 1.113281,0.03515625 v -0.3046875 c -0.515625,0 -0.773438,0 -0.785156,-0.3046875 v -1.8984375 c 0,-0.8554687 0,-1.171875 -0.304688,-1.5234375 -0.140625,-0.1757812 -0.46875,-0.375 -1.042969,-0.375 -0.726562,0 -1.195312,0.4335938 -1.476562,1.0546875 V -4.4065 l -1.40625,0.1171875 v 0.3046875 c 0.703125,0 0.785156,0.070312 0.785156,0.5625 z m 5.53711,0.9140625 c 0.05859,-1.4882812 0.902343,-1.734375 1.242187,-1.734375 1.019531,0 1.125,1.3476563 1.125,1.734375 z m -0.01172,0.2109375 h 2.789062 c 0.210938,0 0.246094,0 0.246094,-0.2109375 0,-0.984375 -0.539062,-1.9570312 -1.78125,-1.9570312 -1.160156,0 -2.074219,1.03125 -2.074219,2.2734375 0,1.33593745 1.042969,2.29687495 2.191407,2.29687495 1.21875,0 1.664062,-1.1015625 1.664062,-1.28906245 0,-0.1054688 -0.08203,-0.1171875 -0.128906,-0.1171875 -0.09375,0 -0.117188,0.058594 -0.128906,0.140625 -0.351563,1.0195312 -1.253907,1.0195312 -1.347657,1.0195312 -0.503906,0 -0.902343,-0.29296875 -1.125,-0.66796875 C 74.238969,-1.2893125 74.238969,-1.9455625 74.238969,-2.297125 Z m 9.500976,-1.0546875 C 83.915727,-3.844 84.232133,-3.9729062 84.583695,-3.984625 v -0.3046875 c -0.222656,0.011719 -0.515625,0.023437 -0.726562,0.023437 -0.292969,0 -0.738281,-0.023437 -0.9375,-0.023437 v 0.3046875 c 0.363281,0.011719 0.585937,0.1875 0.585937,0.4804688 0,0.058594 0,0.082031 -0.04687,0.2109375 L 82.544633,-0.75025 81.560258,-3.5275937 c -0.03516,-0.1171875 -0.04687,-0.140625 -0.04687,-0.1875 0,-0.2695313 0.386719,-0.2695313 0.585937,-0.2695313 v -0.3046875 c -0.292968,0 -0.796875,0.023437 -1.03125,0.023437 -0.304687,0 -0.597656,-0.011719 -0.890625,-0.023437 v 0.3046875 c 0.363282,0 0.527344,0.023437 0.621094,0.1523438 0.05859,0.058594 0.164063,0.3515625 0.234375,0.5390625 L 80.17745,-0.87915625 79.228232,-3.5393125 c -0.04687,-0.1171875 -0.04687,-0.140625 -0.04687,-0.1757812 0,-0.2695313 0.386718,-0.2695313 0.585937,-0.2695313 v -0.3046875 c -0.292969,0 -0.855469,0.023437 -1.089844,0.023437 -0.03516,0 -0.5625,-0.011719 -0.925781,-0.023437 v 0.3046875 c 0.503906,0 0.621094,0.035156 0.738281,0.3515625 l 1.253907,3.52734375 c 0.05859,0.140625 0.08203,0.2109375 0.210937,0.2109375 0.128906,0 0.152344,-0.05859375 0.199219,-0.19921875 l 1.007812,-2.8125 1.019532,2.82421875 c 0.03516,0.1171875 0.07031,0.1875 0.199218,0.1875 0.128907,0 0.152344,-0.08203125 0.199219,-0.1875 z m 6.09375,-0.9375 v -1.1601562 c 0,-0.8789063 0.480469,-1.359375 0.914063,-1.359375 0.03516,0 0.175781,0 0.328125,0.070312 -0.117188,0.046875 -0.292969,0.1757812 -0.292969,0.421875 0,0.234375 0.152344,0.4335937 0.421875,0.4335937 0.292969,0 0.433594,-0.1992187 0.433594,-0.4453125 0,-0.3632812 -0.363281,-0.6914062 -0.890625,-0.6914062 -0.703125,0 -1.546875,0.5273437 -1.546875,1.5820312 v 1.1484375 h -0.785156 v 0.3046875 h 0.785156 v 3.22265625 c 0,0.45703125 -0.105469,0.45703125 -0.773438,0.45703125 V -2.5e-4 c 0.386719,-0.01171875 0.855469,-0.03515625 1.136719,-0.03515625 0.398438,0 0.867188,0 1.265625,0.03515625 v -0.3046875 h -0.210937 c -0.738282,0 -0.761719,-0.1171875 -0.761719,-0.46875 V -3.984625 h 1.136719 v -0.3046875 z m 5.188477,3.50390625 v 0.890625 L 96.463578,-2.5e-4 v -0.3046875 c -0.703125,0 -0.785156,-0.0703125 -0.785156,-0.5625 V -4.4065 l -1.453125,0.1171875 v 0.3046875 c 0.691406,0 0.773437,0.070312 0.773437,0.5625 v 1.7695313 c 0,0.86718745 -0.480468,1.54687495 -1.207031,1.54687495 -0.832031,0 -0.878906,-0.46875 -0.878906,-0.99609375 V -4.4065 l -1.464844,0.1171875 v 0.3046875 c 0.785156,0 0.785156,0.035156 0.785156,0.9140625 v 1.5 c 0,0.7734375 0,1.67578125 1.511719,1.67578125 0.550781,0 0.996094,-0.26953125 1.277344,-0.890625 z M 97.767289,-3.422125 v 2.66015625 c 0,0.45703125 -0.117187,0.45703125 -0.785156,0.45703125 V -2.5e-4 c 0.351562,-0.01171875 0.855469,-0.03515625 1.125,-0.03515625 0.257812,0 0.785156,0.0234375 1.113281,0.03515625 v -0.3046875 c -0.65625,0 -0.773437,0 -0.773437,-0.45703125 V -2.5900937 c 0,-1.03125 0.714843,-1.59375 1.347656,-1.59375 0.621097,0 0.738277,0.5390625 0.738277,1.1015625 v 2.32031245 c 0,0.45703125 -0.11718,0.45703125 -0.773433,0.45703125 V -2.5e-4 c 0.339843,-0.01171875 0.855473,-0.03515625 1.125003,-0.03515625 0.25781,0 0.77343,0.0234375 1.11328,0.03515625 v -0.3046875 c -0.51563,0 -0.77344,0 -0.78516,-0.3046875 v -1.8984375 c 0,-0.8554687 0,-1.171875 -0.30469,-1.5234375 -0.14062,-0.1757812 -0.46875,-0.375 -1.042965,-0.375 -0.726562,0 -1.195312,0.4335938 -1.476562,1.0546875 V -4.4065 l -1.40625,0.1171875 v 0.3046875 c 0.703125,0 0.785156,0.070312 0.785156,0.5625 z m 5.595701,1.2539063 c 0,-1.6289063 0.82031,-2.0507813 1.34766,-2.0507813 0.0937,0 0.71484,0.011719 1.0664,0.375 -0.41015,0.023437 -0.46875,0.328125 -0.46875,0.4570313 0,0.2578125 0.1875,0.4570312 0.45704,0.4570312 0.25781,0 0.45703,-0.1640625 0.45703,-0.46875 0,-0.6796875 -0.75,-1.0664062 -1.52344,-1.0664062 -1.24219,0 -2.15625,1.078125 -2.15625,2.3085937 0,1.27734375 0.98437,2.26171875 2.14453,2.26171875 1.33594,0 1.65234,-1.19531245 1.65234,-1.28906245 0,-0.1054688 -0.10546,-0.1054688 -0.1289,-0.1054688 -0.0937,0 -0.11719,0.046875 -0.12891,0.1054688 -0.29297,0.9257812 -0.9375,1.0429687 -1.3125,1.0429687 -0.52734,0 -1.40625,-0.421875 -1.40625,-2.0273437 z m 4.98926,-1.8164063 h 1.42969 v -0.3046875 h -1.42969 v -1.8398437 h -0.24609 c -0.0117,0.8203125 -0.31641,1.8867187 -1.28907,1.921875 v 0.2226562 h 0.84375 v 2.7539063 c 0,1.21874995 0.92579,1.33593745 1.28907,1.33593745 0.70312,0 0.98437,-0.703125 0.98437,-1.33593745 v -0.5742188 h -0.24609 v 0.5507813 c 0,0.7382812 -0.30469,1.1132812 -0.66797,1.1132812 -0.66797,0 -0.66797,-0.9023437 -0.66797,-1.078125 z m 3.91113,-0.421875 -1.39453,0.1171875 v 0.3046875 c 0.65625,0 0.73828,0.058594 0.73828,0.5507813 v 2.67187495 c 0,0.45703125 -0.10547,0.45703125 -0.77343,0.45703125 V -2.5e-4 c 0.3164,-0.01171875 0.85546,-0.03515625 1.10156,-0.03515625 0.33984,0 0.6914,0.0234375 1.03125,0.03515625 v -0.3046875 c -0.65625,0 -0.70313,-0.0585938 -0.70313,-0.4453125 z m 0.0469,-1.734375 c 0,-0.3164062 -0.2461,-0.5273437 -0.52735,-0.5273437 -0.3164,0 -0.52734,0.2695312 -0.52734,0.5273437 0,0.2695313 0.21094,0.5273438 0.52734,0.5273438 0.28125,0 0.52735,-0.1992188 0.52735,-0.5273438 z m 5.64844,4.0078125 c 0,-1.2773437 -0.9961,-2.3320312 -2.19141,-2.3320312 -1.25391,0 -2.21484,1.0898437 -2.21484,2.3320312 0,1.2890625 1.03125,2.23828125 2.20312,2.23828125 1.20703,0 2.20313,-0.97265625 2.20313,-2.23828125 z m -2.19141,1.9921875 c -0.43359,0 -0.86719,-0.2109375 -1.13672,-0.66796875 -0.25781,-0.43359375 -0.25781,-1.04296875 -0.25781,-1.40624995 0,-0.3867188 0,-0.9257813 0.24609,-1.359375 0.26953,-0.4570313 0.73828,-0.6679688 1.13672,-0.6679688 0.43359,0 0.86719,0.2226563 1.125,0.6445313 0.25781,0.4335937 0.25781,1.0078125 0.25781,1.3828125 0,0.3632812 0,0.9023437 -0.22265,1.33593745 -0.22266,0.4453125 -0.65625,0.73828125 -1.14844,0.73828125 z m 3.58594,-3.28125 v 2.66015625 c 0,0.45703125 -0.11719,0.45703125 -0.78516,0.45703125 V -2.5e-4 c 0.35156,-0.01171875 0.85547,-0.03515625 1.125,-0.03515625 0.25781,0 0.78516,0.0234375 1.11328,0.03515625 v -0.3046875 c -0.65625,0 -0.77344,0 -0.77344,-0.45703125 V -2.5900937 c 0,-1.03125 0.71485,-1.59375 1.34766,-1.59375 0.62109,0 0.73828,0.5390625 0.73828,1.1015625 v 2.32031245 c 0,0.45703125 -0.11719,0.45703125 -0.77344,0.45703125 V -2.5e-4 c 0.33985,-0.01171875 0.85547,-0.03515625 1.125,-0.03515625 0.25782,0 0.77344,0.0234375 1.11329,0.03515625 v -0.3046875 c -0.51563,0 -0.77344,0 -0.78516,-0.3046875 v -1.8984375 c 0,-0.8554687 0,-1.171875 -0.30469,-1.5234375 -0.14062,-0.1757812 -0.46875,-0.375 -1.04297,-0.375 -0.72656,0 -1.19531,0.4335938 -1.47656,1.0546875 V -4.4065 l -1.40625,0.1171875 v 0.3046875 c 0.70313,0 0.78516,0.070312 0.78516,0.5625 z m 0,0"
       style="fill:#000000;fill-opacity:1;fill-rule:nonzero;stroke:none"
       aria-label="Obtaindesirednewfunction"
       transform="matrix(1.3333333,0,0,1.3333333,25.905333,181.12533)" />
    <path
       id="path8"
       d="M 0,-18.99979 V -35.10355"
       style="fill:none;stroke:#000000;stroke-width:0.79701;stroke-linecap:butt;stroke-linejoin:miter;stroke-miterlimit:10;stroke-dasharray:none;stroke-opacity:1"
       transform="matrix(1.3333333,0,0,-1.3333333,108.42933,25.332)" />
    <path
       id="path9"
       d="M 2.59026,0 -1.55415,2.0722 0,0 -1.55415,-2.0722"
       style="fill:#000000;fill-opacity:1;fill-rule:nonzero;stroke:none"
       transform="matrix(0,1.3333333,1.3333333,0,108.42933,72.136733)" />
    <path
       id="path10"
       d="M 0,-75.6934 V -92.76578"
       style="fill:none;stroke:#000000;stroke-width:0.79701;stroke-linecap:butt;stroke-linejoin:miter;stroke-miterlimit:10;stroke-dasharray:none;stroke-opacity:1"
       transform="matrix(1.3333333,0,0,-1.3333333,108.42933,25.332)" />
    <path
       id="path11"
       d="M 2.59026,0 -1.55415,2.0722 0,0 -1.55415,-2.0722"
       style="fill:#000000;fill-opacity:1;fill-rule:nonzero;stroke:none"
       transform="matrix(0,1.3333333,1.3333333,0,108.42933,149.01971)" />
  </g>
</svg>
