<?xml version="1.0" encoding="UTF-8" standalone="no"?>
<!-- Created with Inkscape (http://www.inkscape.org/) -->

<svg
   version="1.1"
   id="svg1"
   width="234.76801"
   height="201.84666"
   viewBox="0 0 234.76801 201.84666"
   sodipodi:docname="convert.pdf"
   xmlns:inkscape="http://www.inkscape.org/namespaces/inkscape"
   xmlns:sodipodi="http://sodipodi.sourceforge.net/DTD/sodipodi-0.dtd"
   xmlns="http://www.w3.org/2000/svg"
   xmlns:svg="http://www.w3.org/2000/svg">
  <defs
     id="defs1" />
  <sodipodi:namedview
     id="namedview1"
     pagecolor="#ffffff"
     bordercolor="#000000"
     borderopacity="0.25"
     inkscape:showpageshadow="2"
     inkscape:pageopacity="0.0"
     inkscape:pagecheckerboard="0"
     inkscape:deskcolor="#d1d1d1">
    <inkscape:page
       x="0"
       y="0"
       inkscape:label="1"
       id="page1"
       width="234.76801"
       height="201.84666"
       margin="0"
       bleed="0" />
  </sodipodi:namedview>
  <g
     id="g1"
     inkscape:groupmode="layer"
     inkscape:label="1">
    <path
       id="path1"
       d="M -71.6116,-18.60129 H 71.6116 V 18.60129 H -71.6116 Z"
       style="fill:none;stroke:#000000;stroke-width:0.79701;stroke-linecap:butt;stroke-linejoin:miter;stroke-miterlimit:10;stroke-dasharray:none;stroke-opacity:1"
       transform="matrix(1.3333333,0,0,-1.3333333,117.384,25.333333)" />
    <g
       id="g2"
       aria-label="Createfunctionallypuref"
       transform="matrix(1.3333333,0,0,1.3333333,40.8,28.653333)">
      <path
         id="path2"
         d="m 0.56308594,-3.4108984 c 0,2.0625 1.60546876,3.63281246 3.45703126,3.63281246 1.6289062,0 2.6015625,-1.38281246 2.6015625,-2.54296876 0,-0.1054687 0,-0.1757812 -0.1289063,-0.1757812 -0.1054687,0 -0.1054687,0.070312 -0.1171875,0.1640625 -0.082031,1.42968746 -1.1484375,2.23828121 -2.2265625,2.23828121 -0.609375,0 -2.5664062,-0.33984375 -2.5664062,-3.30468751 0,-2.9765625 1.9453125,-3.3164062 2.5546875,-3.3164062 1.078125,0 1.96875,0.9023437 2.1679687,2.3671875 0.023437,0.1289062 0.023437,0.1640625 0.1640625,0.1640625 0.1523438,0 0.1523438,-0.035156 0.1523438,-0.234375 v -2.3671875 c 0,-0.1640625 0,-0.234375 -0.1054688,-0.234375 -0.035156,0 -0.082031,0 -0.1640625,0.1171875 l -0.4921875,0.7382812 c -0.375,-0.3632812 -0.8789062,-0.8554687 -1.8398437,-0.8554687 -1.8632813,0 -3.45703126,1.5820312 -3.45703126,3.609375 z m 8.29687496,0.1054687 v -1.1015625 l -1.3828125,0.1171875 v 0.3046875 c 0.6914063,0 0.7734375,0.070312 0.7734375,0.5625 v 2.66015626 c 0,0.45703125 -0.1054687,0.45703125 -0.7734375,0.45703125 V -7.421875e-4 C 7.8638672,-0.01246094 8.3326172,-0.03589844 8.6138672,-0.03589844 c 0.3984375,0 0.8671875,0 1.265625,0.0351562525 V -0.30542969 H 9.6685547 c -0.7382813,0 -0.7617188,-0.1171875 -0.7617188,-0.46875 V -2.3093359 c 0,-0.984375 0.421875,-1.875 1.1835941,-1.875 0.05859,0 0.08203,0 0.105468,0.011719 -0.03516,0.011719 -0.2343746,0.1289063 -0.2343746,0.3867188 0,0.28125 0.2109376,0.4335937 0.4335936,0.4335937 0.175781,0 0.421875,-0.1289062 0.421875,-0.4453125 0,-0.3164062 -0.304687,-0.609375 -0.726562,-0.609375 -0.7382816,0 -1.0898441,0.6679688 -1.2304691,1.1015622 z m 3.3515621,0.796875 c 0.05859,-1.4882812 0.902344,-1.734375 1.242188,-1.734375 1.019531,0 1.125,1.3476563 1.125,1.734375 z m -0.01172,0.2109375 h 2.789062 c 0.210938,0 0.246094,0 0.246094,-0.2109375 0,-0.984375 -0.539063,-1.9570312 -1.78125,-1.9570312 -1.160156,0 -2.074219,1.03125 -2.074219,2.2734375 0,1.33593746 1.042969,2.29687496 2.191406,2.29687496 1.21875,0 1.664063,-1.1015625 1.664063,-1.28906246 0,-0.1054688 -0.08203,-0.1171875 -0.128906,-0.1171875 -0.09375,0 -0.117188,0.058594 -0.128907,0.140625 -0.351562,1.01953121 -1.253906,1.01953121 -1.347656,1.01953121 -0.503906,0 -0.902344,-0.29296875 -1.125,-0.66796875 C 12.199805,-1.2898047 12.199805,-1.9460547 12.199805,-2.2976172 Z m 6.641601,1.53515626 c 0.03516,0.3984375 0.304688,0.8203125 0.773438,0.8203125 0.210937,0 0.820312,-0.140625 0.820312,-0.94921875 V -1.4421484 h -0.246093 v 0.55078121 c 0,0.5859375 -0.246094,0.64453125 -0.363282,0.64453125 -0.328125,0 -0.363281,-0.45703125 -0.363281,-0.50390625 V -2.7429297 c 0,-0.4101562 0,-0.8085937 -0.363281,-1.171875 -0.386719,-0.3867187 -0.878906,-0.5507812 -1.359375,-0.5507812 -0.820313,0 -1.511719,0.46875 -1.511719,1.125 0,0.3046875 0.199219,0.46875 0.457031,0.46875 0.28125,0 0.46875,-0.1992188 0.46875,-0.4570313 0,-0.1171875 -0.05859,-0.4453125 -0.515625,-0.4570312 0.269532,-0.3515625 0.761719,-0.4570313 1.078125,-0.4570313 0.492188,0 1.054688,0.3867188 1.054688,1.2773438 v 0.3632812 c -0.503906,0.035156 -1.207031,0.058594 -1.828125,0.3632813 -0.75,0.3398437 -0.996094,0.8554687 -0.996094,1.28906246 0,0.80859375 0.960938,1.0546875 1.59375,1.0546875 0.65625,0 1.113281,-0.3984375 1.300781,-0.8671875 z m -0.07031,-1.62890626 v 0.9960938 c 0,0.94921871 -0.714844,1.28906246 -1.160156,1.28906246 -0.492188,0 -0.902344,-0.3515625 -0.902344,-0.85546875 0,-0.53906251 0.421875,-1.37109371 2.0625,-1.42968751 z m 3.457031,-1.59375 h 1.429688 v -0.3046875 h -1.429688 v -1.8398437 h -0.246094 c -0.01172,0.8203125 -0.316406,1.8867187 -1.289062,1.921875 v 0.2226562 h 0.84375 v 2.7539063 c 0,1.21874996 0.925781,1.33593746 1.289062,1.33593746 0.703125,0 0.984375,-0.703125 0.984375,-1.33593746 v -0.5742188 h -0.246093 v 0.5507813 c 0,0.73828121 -0.304688,1.11328121 -0.667969,1.11328121 -0.667969,0 -0.667969,-0.90234371 -0.667969,-1.07812501 z m 3.266602,1.4765625 c 0.05859,-1.4882812 0.902343,-1.734375 1.242187,-1.734375 1.019531,0 1.125,1.3476563 1.125,1.734375 z m -0.01172,0.2109375 h 2.789062 c 0.210938,0 0.246094,0 0.246094,-0.2109375 0,-0.984375 -0.539062,-1.9570312 -1.78125,-1.9570312 -1.160156,0 -2.074219,1.03125 -2.074219,2.2734375 0,1.33593746 1.042969,2.29687496 2.191407,2.29687496 1.21875,0 1.664062,-1.1015625 1.664062,-1.28906246 0,-0.1054688 -0.08203,-0.1171875 -0.128906,-0.1171875 -0.09375,0 -0.117188,0.058594 -0.128906,0.140625 -0.351563,1.01953121 -1.253907,1.01953121 -1.347657,1.01953121 -0.503906,0 -0.902343,-0.29296875 -1.125,-0.66796875 C 25.483008,-1.2898047 25.483008,-1.9460547 25.483008,-2.2976172 Z m 8.387695,-1.9921875 v -1.1601562 c 0,-0.8789063 0.480469,-1.359375 0.914063,-1.359375 0.03516,0 0.175781,0 0.328125,0.070312 -0.117188,0.046875 -0.292969,0.1757812 -0.292969,0.421875 0,0.234375 0.152344,0.4335937 0.421875,0.4335937 0.292969,0 0.433594,-0.1992187 0.433594,-0.4453125 0,-0.3632812 -0.363282,-0.6914062 -0.890625,-0.6914062 -0.703125,0 -1.546875,0.5273437 -1.546875,1.5820312 v 1.1484375 h -0.785157 v 0.3046875 h 0.785157 v 3.22265626 c 0,0.45703125 -0.105469,0.45703125 -0.773438,0.45703125 v 0.3046880025 c 0.38672,-0.0117187525 0.85547,-0.0351562525 1.13672,-0.0351562525 0.398437,0 0.867187,0 1.265625,0.0351562525 V -0.30542969 h -0.210938 c -0.738281,0 -0.761718,-0.1171875 -0.761718,-0.46875 V -3.9851172 h 1.136718 v -0.3046875 z m 5.188477,3.50390626 v 0.890625 L 40.500586,-7.421875e-4 V -0.30542969 c -0.703125,0 -0.785156,-0.0703125 -0.785156,-0.5625 V -4.4069922 l -1.453125,0.1171875 v 0.3046875 c 0.691406,0 0.773437,0.070312 0.773437,0.5625 v 1.7695313 c 0,0.86718746 -0.480469,1.54687496 -1.207031,1.54687496 -0.832031,0 -0.878906,-0.46875 -0.878906,-0.99609376 v -3.3046875 l -1.464844,0.1171875 v 0.3046875 c 0.785156,0 0.785156,0.035156 0.785156,0.9140625 v 1.5 c 0,0.77343751 0,1.67578126 1.511719,1.67578126 0.550781,0 0.996094,-0.26953125 1.277343,-0.890625 z m 2.748047,-2.63671876 v 2.66015626 c 0,0.45703125 -0.117188,0.45703125 -0.785157,0.45703125 v 0.3046875025 c 0.351563,-0.0117187525 0.855469,-0.0351562525 1.125,-0.0351562525 0.257813,0 0.785157,0.0234375 1.113282,0.0351562525 V -0.30542969 c -0.65625,0 -0.773438,0 -0.773438,-0.45703125 V -2.5905859 c 0,-1.03125 0.714844,-1.59375 1.347656,-1.59375 0.621094,0 0.738282,0.5390625 0.738282,1.1015625 v 2.32031246 c 0,0.45703125 -0.117188,0.45703125 -0.773438,0.45703125 v 0.3046875025 c 0.339844,-0.0117187525 0.855469,-0.0351562525 1.125,-0.0351562525 0.257813,0 0.773438,0.0234375 1.113281,0.0351562525 V -0.30542969 c -0.515625,0 -0.773437,0 -0.785156,-0.3046875 V -2.5085547 c 0,-0.8554687 0,-1.171875 -0.304687,-1.5234375 -0.140625,-0.1757812 -0.46875,-0.375 -1.042969,-0.375 -0.726563,0 -1.195313,0.4335938 -1.476563,1.0546875 v -1.0546875 l -1.40625,0.1171875 v 0.3046875 c 0.703125,0 0.785157,0.070312 0.785157,0.5625 z M 47.4,-2.1687109 c 0,-1.6289063 0.820313,-2.0507813 1.347656,-2.0507813 0.09375,0 0.714844,0.011719 1.066407,0.375 -0.410157,0.023437 -0.46875,0.328125 -0.46875,0.4570313 0,0.2578125 0.1875,0.4570312 0.457031,0.4570312 0.257812,0 0.457031,-0.1640625 0.457031,-0.46875 0,-0.6796875 -0.75,-1.0664062 -1.523437,-1.0664062 -1.242188,0 -2.15625,1.078125 -2.15625,2.3085937 0,1.27734376 0.984375,2.26171876 2.144531,2.26171876 1.335937,0 1.652344,-1.19531246 1.652344,-1.28906246 0,-0.1054688 -0.105469,-0.1054688 -0.128907,-0.1054688 -0.09375,0 -0.117187,0.046875 -0.128906,0.1054688 -0.292969,0.92578121 -0.9375,1.04296871 -1.3125,1.04296871 -0.527344,0 -1.40625,-0.421875 -1.40625,-2.02734371 z m 4.989258,-1.8164063 h 1.429687 v -0.3046875 h -1.429687 v -1.8398437 h -0.246094 c -0.01172,0.8203125 -0.316406,1.8867187 -1.289062,1.921875 v 0.2226562 h 0.84375 v 2.7539063 c 0,1.21874996 0.925781,1.33593746 1.289062,1.33593746 0.703125,0 0.984375,-0.703125 0.984375,-1.33593746 v -0.5742188 h -0.246094 v 0.5507813 c 0,0.73828121 -0.304687,1.11328121 -0.667968,1.11328121 -0.667969,0 -0.667969,-0.90234371 -0.667969,-1.07812501 z m 3.911133,-0.421875 -1.394532,0.1171875 v 0.3046875 c 0.65625,0 0.738282,0.058594 0.738282,0.5507813 v 2.67187496 c 0,0.45703125 -0.105469,0.45703125 -0.773438,0.45703125 V -7.421875e-4 C 55.187109,-0.01246094 55.726172,-0.03589844 55.972266,-0.03589844 c 0.339843,0 0.691406,0.0234375 1.03125,0.0351562525 V -0.30542969 c -0.65625,0 -0.703125,-0.0585938 -0.703125,-0.4453125 z m 0.04687,-1.734375 c 0,-0.3164062 -0.246094,-0.5273437 -0.527344,-0.5273437 -0.316406,0 -0.527344,0.2695312 -0.527344,0.5273437 0,0.2695313 0.210938,0.5273438 0.527344,0.5273438 0.28125,0 0.527344,-0.1992188 0.527344,-0.5273438 z m 5.651367,4.0078125 c 0,-1.2773437 -0.996094,-2.3320312 -2.191406,-2.3320312 -1.253907,0 -2.214844,1.0898437 -2.214844,2.3320312 0,1.28906251 1.03125,2.23828126 2.203125,2.23828126 1.207031,0 2.203125,-0.97265625 2.203125,-2.23828126 z m -2.191406,1.99218751 c -0.433594,0 -0.867188,-0.2109375 -1.136719,-0.66796875 C 58.41269,-1.2429297 58.41269,-1.8523047 58.41269,-2.2155859 c 0,-0.3867188 0,-0.9257813 0.246094,-1.359375 0.269531,-0.4570313 0.738281,-0.6679688 1.136719,-0.6679688 0.433594,0 0.867187,0.2226563 1.125,0.6445313 0.257812,0.4335937 0.257812,1.0078125 0.257812,1.3828125 0,0.3632812 0,0.9023437 -0.222656,1.33593746 -0.222656,0.4453125 -0.65625,0.73828125 -1.148437,0.73828125 z m 3.585937,-3.28125001 v 2.66015626 c 0,0.45703125 -0.117187,0.45703125 -0.785156,0.45703125 v 0.3046875025 c 0.351562,-0.0117187525 0.855469,-0.0351562525 1.125,-0.0351562525 0.257812,0 0.785156,0.0234375 1.113281,0.0351562525 V -0.30542969 c -0.65625,0 -0.773437,0 -0.773437,-0.45703125 V -2.5905859 c 0,-1.03125 0.714843,-1.59375 1.347656,-1.59375 0.621094,0 0.738281,0.5390625 0.738281,1.1015625 v 2.32031246 c 0,0.45703125 -0.117187,0.45703125 -0.773437,0.45703125 v 0.3046875025 c 0.339843,-0.0117187525 0.855468,-0.0351562525 1.125,-0.0351562525 0.257812,0 0.773437,0.0234375 1.113281,0.0351562525 V -0.30542969 c -0.515625,0 -0.773438,0 -0.785156,-0.3046875 V -2.5085547 c 0,-0.8554687 0,-1.171875 -0.304688,-1.5234375 -0.140625,-0.1757812 -0.46875,-0.375 -1.042969,-0.375 -0.726562,0 -1.195312,0.4335938 -1.476562,1.0546875 v -1.0546875 l -1.40625,0.1171875 v 0.3046875 c 0.703125,0 0.785156,0.070312 0.785156,0.5625 z m 7.749024,2.66015626 c 0.03516,0.3984375 0.304687,0.8203125 0.773437,0.8203125 0.210938,0 0.820313,-0.140625 0.820313,-0.94921875 V -1.4421484 h -0.246094 v 0.55078121 c 0,0.5859375 -0.246094,0.64453125 -0.363281,0.64453125 -0.328125,0 -0.363282,-0.45703125 -0.363282,-0.50390625 V -2.7429297 c 0,-0.4101562 0,-0.8085937 -0.363281,-1.171875 -0.386719,-0.3867187 -0.878906,-0.5507812 -1.359375,-0.5507812 -0.820312,0 -1.511719,0.46875 -1.511719,1.125 0,0.3046875 0.199219,0.46875 0.457032,0.46875 0.28125,0 0.46875,-0.1992188 0.46875,-0.4570313 0,-0.1171875 -0.05859,-0.4453125 -0.515625,-0.4570312 0.269531,-0.3515625 0.761718,-0.4570313 1.078125,-0.4570313 0.492187,0 1.054687,0.3867188 1.054687,1.2773438 v 0.3632812 c -0.503906,0.035156 -1.207031,0.058594 -1.828125,0.3632813 -0.75,0.3398437 -0.996094,0.8554687 -0.996094,1.28906246 0,0.80859375 0.960938,1.0546875 1.59375,1.0546875 0.65625,0 1.113282,-0.3984375 1.300782,-0.8671875 z m -0.07031,-1.62890626 v 0.9960938 c 0,0.94921871 -0.714844,1.28906246 -1.160156,1.28906246 -0.492188,0 -0.902344,-0.3515625 -0.902344,-0.85546875 0,-0.53906251 0.421875,-1.37109371 2.0625,-1.42968751 z m 3.492188,-4.5234375 -1.429688,0.1054688 v 0.3164062 c 0.703125,0 0.773438,0.070312 0.773438,0.5507813 v 5.17968746 c 0,0.45703125 -0.105469,0.45703125 -0.773438,0.45703125 V -7.421875e-4 C 73.4625,-0.01246094 73.989844,-0.03589844 74.235938,-0.03589844 c 0.257812,0 0.738281,0.0234375 1.113281,0.0351562525 V -0.30542969 c -0.667969,0 -0.785156,0 -0.785156,-0.45703125 z m 2.768554,0 -1.429687,0.1054688 v 0.3164062 c 0.703125,0 0.773437,0.070312 0.773437,0.5507813 v 5.17968746 c 0,0.45703125 -0.105469,0.45703125 -0.773437,0.45703125 v 0.3046875025 c 0.328127,-0.0117187525 0.85547,-0.0351562525 1.101564,-0.0351562525 0.257813,0 0.738281,0.0234375 1.113281,0.0351562525 V -0.30542969 c -0.667968,0 -0.785156,0 -0.785156,-0.45703125 z m 5.147461,3.5625 c 0.257813,-0.6210937 0.761719,-0.6328125 0.925781,-0.6328125 v -0.3046875 c -0.234375,0.011719 -0.515625,0.023437 -0.75,0.023437 -0.175781,0 -0.644531,-0.023437 -0.867187,-0.023437 v 0.3046875 c 0.304687,0.011719 0.46875,0.1757813 0.46875,0.4335938 0,0.09375 -0.01172,0.1171875 -0.05859,0.234375 l -1.007812,2.44921871 -1.101563,-2.68359371 c -0.04687,-0.09375 -0.05859,-0.140625 -0.05859,-0.1757813 0,-0.2578125 0.363282,-0.2578125 0.550782,-0.2578125 v -0.3046875 c -0.257813,0 -0.914063,0.023437 -1.078125,0.023437 -0.269532,0 -0.667969,-0.011719 -0.972657,-0.023437 v 0.3046875 c 0.480469,0 0.667969,0 0.808594,0.3515625 l 1.5,3.6328125125 C 80.780859,0.12816406 80.640234,0.45628906 80.581641,0.58519531 80.370703,1.1359766 80.089453,1.8273828 79.444922,1.8273828 c -0.04687,0 -0.269531,0 -0.46875,-0.1875 0.316406,-0.035156 0.398437,-0.2578125 0.398437,-0.4101562 0,-0.26953129 -0.199218,-0.42187504 -0.421875,-0.42187504 -0.199218,0 -0.421875,0.12890625 -0.421875,0.42187504 0,0.4570312 0.421875,0.8085937 0.914063,0.8085937 0.632812,0 1.042969,-0.5625 1.277344,-1.13671874 z m 6.158203,-0.3984375 v -0.65625 l -1.429687,0.1171875 v 0.3046875 c 0.703125,0 0.773437,0.058594 0.773437,0.4921875 v 4.6640625 c 0,0.4570313 -0.105468,0.4570313 -0.773437,0.4570313 v 0.3046875 c 0.339844,-0.011719 0.855469,-0.035156 1.113281,-0.035156 0.269531,0 0.773438,0.023437 1.125,0.035156 V 1.6281641 c -0.667969,0 -0.773437,0 -0.773437,-0.4570313 v -1.75781249 c 0.04687,0.15234375 0.46875,0.69140625 1.21875,0.69140625 1.183593,0 2.226562,-0.97265625 2.226562,-2.26171876 0,-1.265625 -0.972656,-2.25 -2.085937,-2.25 -0.773438,0 -1.195313,0.4453125 -1.394532,0.65625 z m 0.03516,2.6132813 v -2.2148438 c 0.28125,-0.515625 0.773437,-0.796875 1.277343,-0.796875 0.726563,0 1.335938,0.8671875 1.335938,1.9921875 0,1.20703126 -0.691406,2.05078126 -1.429688,2.05078126 -0.398437,0 -0.773437,-0.19921875 -1.042968,-0.609375 -0.140625,-0.2109375 -0.140625,-0.22265625 -0.140625,-0.42187496 z m 7.68164,0.35156246 v 0.890625 L 97.796484,-7.421875e-4 V -0.30542969 c -0.703125,0 -0.785156,-0.0703125 -0.785156,-0.5625 V -4.4069922 l -1.453125,0.1171875 v 0.3046875 c 0.691406,0 0.773438,0.070312 0.773438,0.5625 v 1.7695313 c 0,0.86718746 -0.480469,1.54687496 -1.207032,1.54687496 -0.832031,0 -0.878906,-0.46875 -0.878906,-0.99609376 v -3.3046875 l -1.464844,0.1171875 v 0.3046875 c 0.785157,0 0.785157,0.035156 0.785157,0.9140625 v 1.5 c 0,0.77343751 0,1.67578126 1.511718,1.67578126 0.550782,0 0.996094,-0.26953125 1.277345,-0.890625 z m 3.307617,-2.51953126 v -1.1015625 l -1.382812,0.1171875 v 0.3046875 c 0.691406,0 0.773437,0.070312 0.773437,0.5625 v 2.66015626 c 0,0.45703125 -0.105468,0.45703125 -0.773437,0.45703125 V -7.421875e-4 C 98.666602,-0.01246094 99.135352,-0.03589844 99.416602,-0.03589844 c 0.398437,0 0.867188,0 1.265628,0.0351562525 V -0.30542969 h -0.21094 c -0.738282,0 -0.76172,-0.1171875 -0.76172,-0.46875 V -2.3093359 c 0,-0.984375 0.42188,-1.875 1.18359,-1.875 0.0586,0 0.082,0 0.10547,0.011719 -0.0352,0.011719 -0.23437,0.1289063 -0.23437,0.3867188 0,0.28125 0.21094,0.4335937 0.43359,0.4335937 0.17578,0 0.42188,-0.1289062 0.42188,-0.4453125 0,-0.3164062 -0.30469,-0.609375 -0.72657,-0.609375 -0.73828,0 -1.08984,0.6679688 -1.230465,1.1015625 z m 3.342774,0.796875 c 0.0586,-1.4882812 0.90234,-1.734375 1.24219,-1.734375 1.01953,0 1.125,1.3476563 1.125,1.734375 z m -0.0117,0.2109375 h 2.78906 c 0.21094,0 0.2461,0 0.2461,-0.2109375 0,-0.984375 -0.53907,-1.9570312 -1.78125,-1.9570312 -1.16016,0 -2.07422,1.03125 -2.07422,2.2734375 0,1.33593746 1.04297,2.29687496 2.1914,2.29687496 1.21875,0 1.66407,-1.1015625 1.66407,-1.28906246 0,-0.1054688 -0.082,-0.1171875 -0.12891,-0.1171875 -0.0937,0 -0.11719,0.058594 -0.12891,0.140625 -0.35156,1.01953121 -1.2539,1.01953121 -1.34765,1.01953121 -0.50391,0 -0.90235,-0.29296875 -1.125,-0.66796875 -0.30469,-0.48046876 -0.30469,-1.13671876 -0.30469,-1.48828126 z m 0,0"
         style="fill:#000000;fill-opacity:1;fill-rule:nonzero;stroke:none" />
      <path
         id="path3"
         d="m 112.1666,-3.6921484 h 1.21875 c 0.15235,0 0.39844,0 0.39844,-0.2929688 0,-0.3046875 -0.24609,-0.3046875 -0.39844,-0.3046875 h -1.21875 v -0.46875 c 0,-0.7851562 0.66797,-0.7851562 0.97266,-0.7851562 0,0.046875 0.082,0.4335937 0.43359,0.4335937 0.19922,0 0.42188,-0.1640625 0.42188,-0.4335937 0,-0.5976563 -0.79688,-0.5976563 -0.94922,-0.5976563 -0.79688,0 -1.57031,0.4570313 -1.57031,1.3242188 v 0.5273437 h -0.9961 c -0.15234,0 -0.39844,0 -0.39844,0.3046875 0,0.2929688 0.2461,0.2929688 0.39844,0.2929688 h 0.9961 v 3.08203121 h -0.9961 c -0.15234,0 -0.41015,0 -0.41015,0.3046875 0,0.3046875025 0.25781,0.3046875025 0.41015,0.3046875025 h 2.69531 c 0.15235,0 0.41016,0 0.41016,-0.3046875025 0,-0.3046875 -0.25781,-0.3046875 -0.41016,-0.3046875 h -1.00781 z m 0,0"
         style="fill:#000000;fill-opacity:1;fill-rule:nonzero;stroke:none" />
    </g>
    <path
       id="path4"
       d="M -76.21928,-75.2949 H 76.2193 v 37.20258 H -76.21928 Z"
       style="fill:none;stroke:#000000;stroke-width:0.79701;stroke-linecap:butt;stroke-linejoin:miter;stroke-miterlimit:10;stroke-dasharray:none;stroke-opacity:1"
       transform="matrix(1.3333333,0,0,-1.3333333,117.384,25.333333)" />
    <g
       id="g4"
       aria-label="Applynatiftransformation"
       transform="matrix(1.3333333,0,0,1.3333333,34.657333,104.244)">
      <path
         id="path5"
         d="M 3.960125,-6.9388594 C 3.91325,-7.0677656 3.8898125,-7.1380781 3.7374688,-7.1380781 c -0.1640625,0 -0.1875,0.058594 -0.2460938,0.1992187 l -2.0625,5.96484378 c -0.1757812,0.50390625 -0.57421875,0.65625 -1.11328125,0.66796875 v 0.3046875 c 0.234375,-0.01171875 0.65625,-0.03515625 1.01953125,-0.03515625 0.3046875,0 0.8203125,0.0234375 1.1484375,0.03515625 v -0.3046875 c -0.5039062,0 -0.75,-0.2578125 -0.75,-0.515625 0,-0.0234375 0.011719,-0.12890625 0.023437,-0.140625 L 2.2140313,-2.2747969 h 2.4609375 l 0.5273437,1.52343753 c 0.011719,0.046875 0.023437,0.10546875 0.023437,0.140625 0,0.3046875 -0.5507812,0.3046875 -0.8203125,0.3046875 v 0.3046875 C 4.757,-0.03651562 5.460125,-0.03651562 5.835125,-0.03651562 c 0.4335938,0 0.890625,0.01171875 1.3007813,0.03515625 v -0.3046875 H 6.960125 c -0.5976562,0 -0.7382812,-0.0703125 -0.84375,-0.3984375 z m -0.5273437,1.125 1.125,3.234375 H 2.3195 Z m 5.7509765,2.0625 v -0.65625 l -1.4296875,0.1171875 v 0.3046875 c 0.703125,0 0.7734375,0.058594 0.7734375,0.4921875 v 4.6640625 c 0,0.4570313 -0.1054687,0.4570313 -0.7734375,0.4570313 v 0.3046875 c 0.3398438,-0.011719 0.8554688,-0.035156 1.1132813,-0.035156 0.2695312,0 0.7734375,0.023437 1.125,0.035156 V 1.6275469 c -0.6679688,0 -0.7734375,0 -0.7734375,-0.4570313 v -1.75781247 c 0.046875,0.15234375 0.46875,0.69140625 1.2187499,0.69140625 1.183594,0 2.226563,-0.97265625 2.226563,-2.26171878 0,-1.265625 -0.972657,-2.25 -2.085938,-2.25 -0.7734374,0 -1.1953124,0.4453125 -1.3945312,0.65625 z m 0.035156,2.6132813 v -2.2148438 c 0.28125,-0.515625 0.7734375,-0.796875 1.2773442,-0.796875 0.726562,0 1.335937,0.8671875 1.335937,1.9921875 0,1.20703128 -0.691406,2.05078128 -1.429687,2.05078128 -0.398438,0 -0.773438,-0.19921875 -1.0429692,-0.609375 -0.140625,-0.2109375 -0.140625,-0.22265625 -0.140625,-0.42187498 z m 5.4990242,-2.6132813 v -0.65625 l -1.429688,0.1171875 v 0.3046875 c 0.703125,0 0.773438,0.058594 0.773438,0.4921875 v 4.6640625 c 0,0.4570313 -0.105469,0.4570313 -0.773438,0.4570313 v 0.3046875 c 0.339844,-0.011719 0.855469,-0.035156 1.113281,-0.035156 0.269532,0 0.773438,0.023437 1.125,0.035156 V 1.6275469 c -0.667968,0 -0.773437,0 -0.773437,-0.4570313 v -1.75781247 c 0.04687,0.15234375 0.46875,0.69140625 1.21875,0.69140625 1.183594,0 2.226562,-0.97265625 2.226562,-2.26171878 0,-1.265625 -0.972656,-2.25 -2.085937,-2.25 -0.773438,0 -1.195313,0.4453125 -1.394531,0.65625 z m 0.03516,2.6132813 v -2.2148438 c 0.28125,-0.515625 0.773437,-0.796875 1.277344,-0.796875 0.726562,0 1.335937,0.8671875 1.335937,1.9921875 0,1.20703128 -0.691406,2.05078128 -1.429687,2.05078128 -0.398438,0 -0.773438,-0.19921875 -1.042969,-0.609375 -0.140625,-0.2109375 -0.140625,-0.22265625 -0.140625,-0.42187498 z m 5.545898,-5.7773438 -1.429687,0.1054688 v 0.3164062 c 0.703125,0 0.773437,0.070312 0.773437,0.5507813 v 5.17968748 c 0,0.45703125 -0.105469,0.45703125 -0.773437,0.45703125 v 0.3046875 c 0.328125,-0.01171875 0.855468,-0.03515625 1.101562,-0.03515625 0.257813,0 0.738281,0.0234375 1.113281,0.03515625 v -0.3046875 c -0.667968,0 -0.785156,0 -0.785156,-0.45703125 z m 5.147461,3.5625 c 0.257813,-0.6210937 0.761719,-0.6328125 0.925781,-0.6328125 v -0.3046875 c -0.234375,0.011719 -0.515625,0.023437 -0.75,0.023437 -0.175781,0 -0.644531,-0.023437 -0.867187,-0.023437 v 0.3046875 c 0.304687,0.011719 0.46875,0.1757813 0.46875,0.4335938 0,0.09375 -0.01172,0.1171875 -0.05859,0.234375 l -1.007812,2.44921873 -1.101563,-2.68359373 c -0.04687,-0.09375 -0.05859,-0.140625 -0.05859,-0.1757813 0,-0.2578125 0.363282,-0.2578125 0.550782,-0.2578125 v -0.3046875 c -0.257813,0 -0.914063,0.023437 -1.078125,0.023437 -0.269532,0 -0.667969,-0.011719 -0.972657,-0.023437 v 0.3046875 c 0.480469,0 0.667969,0 0.808594,0.3515625 l 1.5,3.63281253 C 23.74725,0.12754688 23.606621,0.45567188 23.548028,0.58457813 23.33709,1.1353594 23.05584,1.8267656 22.411309,1.8267656 c -0.04687,0 -0.269531,0 -0.46875,-0.1875 0.316406,-0.035156 0.398437,-0.2578125 0.398437,-0.4101562 0,-0.26953127 -0.199218,-0.42187502 -0.421875,-0.42187502 -0.199218,0 -0.421875,0.12890625 -0.421875,0.42187502 0,0.4570312 0.421875,0.8085937 0.914063,0.8085937 0.632812,0 1.042969,-0.5625 1.277344,-1.13671872 z m 0,0"
         style="fill:#000000;fill-opacity:1;fill-rule:nonzero;stroke:none" />
      <path
         id="path6"
         d="m 31.677898,-3.8216719 c 0,-0.328125 0,-0.46875 -0.398437,-0.46875 h -0.726563 c -0.164062,0 -0.410156,0 -0.410156,0.3046875 0,0.2929688 0.257813,0.2929688 0.398438,0.2929688 h 0.445312 v 3.08203123 h -0.433594 c -0.164062,0 -0.410156,0 -0.410156,0.3046875 0,0.3046875 0.257813,0.3046875 0.398438,0.3046875 h 1.582031 c 0.140625,0 0.398437,0 0.398437,-0.3046875 0,-0.3046875 -0.246093,-0.3046875 -0.398437,-0.3046875 H 31.677898 V -2.3685469 c 0,-0.9960937 0.738282,-1.3828125 1.242188,-1.3828125 0.527344,0 0.667969,0.28125 0.667969,0.8789063 v 2.26171873 h -0.386719 c -0.152344,0 -0.410156,0 -0.410156,0.3046875 0,0.3046875 0.269531,0.3046875 0.410156,0.3046875 h 1.523437 c 0.140625,0 0.398438,0 0.398438,-0.3046875 0,-0.3046875 -0.246094,-0.3046875 -0.410156,-0.3046875 H 34.279461 V -2.9193281 c 0,-1.0078125 -0.503906,-1.4296875 -1.300781,-1.4296875 -0.65625,0 -1.113282,0.328125 -1.300782,0.5273437 z m 7.22168,3.50390628 c 0.222656,0.3046875 0.703125,0.31640625 1.078125,0.31640625 0.28125,0 0.492188,0 0.492188,-0.3046875 0,-0.3046875 -0.246094,-0.3046875 -0.398438,-0.3046875 -0.410156,0 -0.515625,-0.046875 -0.597656,-0.0820313 V -2.8372969 c 0,-0.7148437 -0.527344,-1.546875 -1.96875,-1.546875 -0.421875,0 -1.441406,0 -1.441406,0.7265625 0,0.3046875 0.210937,0.4570313 0.445312,0.4570313 0.152344,0 0.433594,-0.09375 0.445313,-0.4570313 0,-0.082031 0,-0.09375 0.199218,-0.1054687 0.140625,-0.011719 0.269532,-0.011719 0.363282,-0.011719 0.761718,0 1.277343,0.3046875 1.277343,1.0195313 -1.769531,0.023437 -2.988281,0.5273437 -2.988281,1.4765625 0,0.69140623 0.621094,1.33593748 1.640625,1.33593748 0.363281,0 0.984375,-0.0703125 1.453125,-0.3749998 z M 38.794109,-2.1693281 v 0.8320312 c 0,0.234375 0,0.43359378 -0.386718,0.62109378 -0.363282,0.1640625 -0.808594,0.1640625 -0.890625,0.1640625 -0.621094,0 -1.03125,-0.33984375 -1.03125,-0.72656248 0,-0.4804688 0.867187,-0.8554688 2.308593,-0.890625 z m 3.908204,-1.5234375 h 1.628906 c 0.152344,0 0.398437,0 0.398437,-0.2929688 0,-0.3046875 -0.234375,-0.3046875 -0.398437,-0.3046875 h -1.628906 v -0.8203125 c 0,-0.1875 0,-0.4101562 -0.339844,-0.4101562 -0.351563,0 -0.351563,0.2109375 -0.351563,0.4101562 v 0.8203125 h -0.867187 c -0.152344,0 -0.410156,0 -0.410156,0.3046875 0,0.2929688 0.257812,0.2929688 0.398437,0.2929688 h 0.878906 v 2.4375 c 0,0.94921873 0.679688,1.31249998 1.40625,1.31249998 0.738282,0 1.546875,-0.421875 1.546875,-1.31249998 0,-0.1757813 0,-0.3867188 -0.351562,-0.3867188 -0.328125,0 -0.339844,0.2109375 -0.339844,0.375 -0.01172,0.62109378 -0.574219,0.71484378 -0.808594,0.71484378 -0.761718,0 -0.761718,-0.51562498 -0.761718,-0.76171878 z m 6.096679,-0.1992188 c 0,-0.3046875 -0.05859,-0.3984375 -0.398437,-0.3984375 h -1.417969 c -0.152344,0 -0.410156,0 -0.410156,0.2929688 0,0.3046875 0.257812,0.3046875 0.410156,0.3046875 h 1.125 v 3.08203123 h -1.207031 c -0.152344,0 -0.410157,0 -0.410157,0.3046875 0,0.3046875 0.257813,0.3046875 0.410157,0.3046875 h 2.941406 c 0.152344,0 0.410156,0 0.410156,-0.3046875 0,-0.3046875 -0.257812,-0.3046875 -0.410156,-0.3046875 h -1.042969 z m 0,-1.7109375 c 0,-0.28125 -0.222656,-0.4921875 -0.503906,-0.4921875 -0.28125,0 -0.492188,0.2109375 -0.492188,0.4921875 0,0.28125 0.210938,0.5039063 0.492188,0.5039063 0.28125,0 0.503906,-0.2226563 0.503906,-0.5039063 z m 4.666992,1.9101563 h 1.21875 c 0.152344,0 0.398438,0 0.398438,-0.2929688 0,-0.3046875 -0.246094,-0.3046875 -0.398438,-0.3046875 h -1.21875 v -0.46875 c 0,-0.7851562 0.667969,-0.7851562 0.972657,-0.7851562 0,0.046875 0.08203,0.4335937 0.433593,0.4335937 0.199219,0 0.421875,-0.1640625 0.421875,-0.4335937 0,-0.5976563 -0.796875,-0.5976563 -0.949218,-0.5976563 -0.796875,0 -1.570313,0.4570313 -1.570313,1.3242188 v 0.5273437 h -0.996094 c -0.152343,0 -0.398437,0 -0.398437,0.3046875 0,0.2929688 0.246094,0.2929688 0.398437,0.2929688 h 0.996094 v 3.08203123 h -0.996094 c -0.152343,0 -0.410156,0 -0.410156,0.3046875 0,0.3046875 0.257813,0.3046875 0.410156,0.3046875 h 2.695313 c 0.152344,0 0.410156,0 0.410156,-0.3046875 0,-0.3046875 -0.257812,-0.3046875 -0.410156,-0.3046875 h -1.007813 z m 0,0"
         style="fill:#000000;fill-opacity:1;fill-rule:nonzero;stroke:none" />
      <path
         id="path7"
         d="m 61.217938,-3.9857344 h 1.429687 v -0.3046875 h -1.429687 v -1.8398437 h -0.246094 c -0.01172,0.8203125 -0.316406,1.8867187 -1.289063,1.921875 v 0.2226562 h 0.84375 v 2.7539063 c 0,1.21874998 0.925782,1.33593748 1.289063,1.33593748 0.703125,0 0.984375,-0.703125 0.984375,-1.33593748 v -0.5742188 h -0.246094 v 0.5507813 c 0,0.73828123 -0.304687,1.11328123 -0.667969,1.11328123 -0.667968,0 -0.667968,-0.90234373 -0.667968,-1.07812503 z m 3.814453,0.6796875 v -1.1015625 l -1.382813,0.1171875 v 0.3046875 c 0.691406,0 0.773438,0.070312 0.773438,0.5625 v 2.66015628 c 0,0.45703125 -0.105469,0.45703125 -0.773438,0.45703125 v 0.3046875 c 0.386719,-0.01171875 0.855469,-0.03515625 1.136719,-0.03515625 0.398437,0 0.867187,0 1.265625,0.03515625 v -0.3046875 h -0.210938 c -0.738281,0 -0.761718,-0.1171875 -0.761718,-0.46875 V -2.3099531 c 0,-0.984375 0.421875,-1.875 1.183593,-1.875 0.05859,0 0.08203,0 0.105469,0.011719 -0.03516,0.011719 -0.234375,0.1289063 -0.234375,0.3867188 0,0.28125 0.210938,0.4335937 0.433594,0.4335937 0.175781,0 0.421875,-0.1289062 0.421875,-0.4453125 0,-0.3164062 -0.304688,-0.609375 -0.726563,-0.609375 -0.738281,0 -1.089843,0.6679688 -1.230468,1.1015622 z m 5.554687,2.54296878 c 0.03516,0.3984375 0.304688,0.8203125 0.773438,0.8203125 0.210937,0 0.820312,-0.140625 0.820312,-0.94921875 V -1.4427656 h -0.246094 v 0.55078123 c 0,0.5859375 -0.246093,0.64453125 -0.363281,0.64453125 -0.328125,0 -0.363281,-0.45703125 -0.363281,-0.50390625 V -2.7435469 c 0,-0.4101562 0,-0.8085937 -0.363281,-1.171875 -0.386719,-0.3867187 -0.878907,-0.5507812 -1.359375,-0.5507812 -0.820313,0 -1.511719,0.46875 -1.511719,1.125 0,0.3046875 0.199219,0.46875 0.457031,0.46875 0.28125,0 0.46875,-0.1992188 0.46875,-0.4570313 0,-0.1171875 -0.05859,-0.4453125 -0.515625,-0.4570312 0.269531,-0.3515625 0.761719,-0.4570313 1.078125,-0.4570313 0.492188,0 1.054688,0.3867188 1.054688,1.2773438 v 0.3632812 c -0.503907,0.035156 -1.207032,0.058594 -1.828125,0.3632813 -0.75,0.3398437 -0.996094,0.8554687 -0.996094,1.28906248 0,0.80859375 0.960937,1.0546875 1.59375,1.0546875 0.65625,0 1.113281,-0.3984375 1.300781,-0.8671875 z m -0.07031,-1.62890628 v 0.9960938 c 0,0.94921873 -0.714844,1.28906248 -1.160157,1.28906248 -0.492187,0 -0.902343,-0.3515625 -0.902343,-0.85546875 0,-0.53906253 0.421875,-1.37109373 2.0625,-1.42968753 z m 2.838867,-1.03125 v 2.66015628 c 0,0.45703125 -0.117188,0.45703125 -0.785156,0.45703125 v 0.3046875 c 0.351562,-0.01171875 0.855468,-0.03515625 1.125,-0.03515625 0.257812,0 0.785156,0.0234375 1.113281,0.03515625 v -0.3046875 c -0.65625,0 -0.773438,0 -0.773438,-0.45703125 V -2.5912031 c 0,-1.03125 0.714844,-1.59375 1.347657,-1.59375 0.621093,0 0.738281,0.5390625 0.738281,1.1015625 v 2.32031248 c 0,0.45703125 -0.117188,0.45703125 -0.773438,0.45703125 v 0.3046875 c 0.339844,-0.01171875 0.855469,-0.03515625 1.125,-0.03515625 0.257813,0 0.773438,0.0234375 1.113282,0.03515625 v -0.3046875 c -0.515625,0 -0.773438,0 -0.785157,-0.3046875 V -2.5091719 c 0,-0.8554687 0,-1.171875 -0.304687,-1.5234375 -0.140625,-0.1757812 -0.46875,-0.375 -1.042969,-0.375 -0.726562,0 -1.195312,0.4335938 -1.476562,1.0546875 v -1.0546875 l -1.40625,0.1171875 v 0.3046875 c 0.703125,0 0.785156,0.070312 0.785156,0.5625 z m 6.506836,1.4882813 c 0.222656,0.035156 1.03125,0.1992187 1.03125,0.9140625 0,0.51562498 -0.351563,0.91406248 -1.125,0.91406248 -0.832031,0 -1.195313,-0.57421875 -1.382813,-1.41796878 -0.03516,-0.1289062 -0.03516,-0.1757812 -0.140625,-0.1757812 -0.128906,0 -0.128906,0.070312 -0.128906,0.2578125 v 1.31249998 c 0,0.1640625 0,0.234375 0.105469,0.234375 0.05859,0 0.07031,0 0.257812,-0.19921875 0.01172,-0.01171875 0.01172,-0.03515625 0.199219,-0.22265625 0.433594,0.421875 0.878906,0.421875 1.089844,0.421875 1.148437,0 1.605469,-0.66796875 1.605469,-1.38281248 0,-0.5273438 -0.292969,-0.8203125 -0.421875,-0.9492188 -0.328125,-0.3164062 -0.714844,-0.3984375 -1.136719,-0.46875 -0.550781,-0.1171875 -1.21875,-0.2460937 -1.21875,-0.8203125 0,-0.3515625 0.257812,-0.7617187 1.113281,-0.7617187 1.101563,0 1.148438,0.9023437 1.171875,1.2070312 0,0.09375 0.09375,0.09375 0.117188,0.09375 0.128906,0 0.128906,-0.046875 0.128906,-0.2460937 v -0.9960938 c 0,-0.1757812 0,-0.2460937 -0.117188,-0.2460937 -0.04687,0 -0.07031,0 -0.199218,0.1171875 -0.02344,0.046875 -0.128907,0.1289062 -0.164063,0.1640625 -0.375,-0.28125 -0.785156,-0.28125 -0.9375,-0.28125 -1.21875,0 -1.59375,0.6679687 -1.59375,1.2304687 0,0.3398438 0.164063,0.6210938 0.433594,0.84375 0.316406,0.2578125 0.597656,0.3164063 1.3125,0.4570313 z m 3.600586,-2.3554688 v -1.1601562 c 0,-0.8789063 0.480468,-1.359375 0.914062,-1.359375 0.03516,0 0.175781,0 0.328125,0.070312 -0.117187,0.046875 -0.292969,0.1757812 -0.292969,0.421875 0,0.234375 0.152344,0.4335937 0.421875,0.4335937 0.292969,0 0.433594,-0.1992187 0.433594,-0.4453125 0,-0.3632812 -0.363281,-0.6914062 -0.890625,-0.6914062 -0.703125,0 -1.546875,0.5273437 -1.546875,1.5820312 v 1.1484375 h -0.785156 v 0.3046875 h 0.785156 v 3.22265628 c 0,0.45703125 -0.105469,0.45703125 -0.773437,0.45703125 v 0.3046875 c 0.386718,-0.01171875 0.855468,-0.03515625 1.136718,-0.03515625 0.398438,0 0.867188,0 1.265625,0.03515625 v -0.3046875 h -0.210937 c -0.738281,0 -0.761719,-0.1171875 -0.761719,-0.46875 V -3.9857344 h 1.136719 v -0.3046875 z m 5.985351,2.15625 c 0,-1.2773437 -0.996093,-2.3320312 -2.191406,-2.3320312 -1.253906,0 -2.214844,1.0898437 -2.214844,2.3320312 0,1.28906253 1.03125,2.23828128 2.203125,2.23828128 1.207032,0 2.203125,-0.97265625 2.203125,-2.23828128 z M 87.257,-0.14198437 c -0.433594,0 -0.867187,-0.2109375 -1.136719,-0.66796875 -0.257812,-0.43359378 -0.257812,-1.04296878 -0.257812,-1.40624998 0,-0.3867188 0,-0.9257813 0.246094,-1.359375 0.269531,-0.4570313 0.738281,-0.6679688 1.136718,-0.6679688 0.433594,0 0.867188,0.2226563 1.125,0.6445313 0.257813,0.4335937 0.257813,1.0078125 0.257813,1.3828125 0,0.3632812 0,0.9023437 -0.222656,1.33593748 -0.222657,0.4453125 -0.65625,0.73828125 -1.148438,0.73828125 z m 4.151367,-3.16406253 v -1.1015625 l -1.382812,0.1171875 v 0.3046875 c 0.691406,0 0.773437,0.070312 0.773437,0.5625 v 2.66015628 c 0,0.45703125 -0.105469,0.45703125 -0.773437,0.45703125 v 0.3046875 c 0.386718,-0.01171875 0.855468,-0.03515625 1.136718,-0.03515625 0.398438,0 0.867188,0 1.265625,0.03515625 v -0.3046875 h -0.210937 c -0.738281,0 -0.761719,-0.1171875 -0.761719,-0.46875 V -2.3099531 c 0,-0.984375 0.421875,-1.875 1.183594,-1.875 0.05859,0 0.08203,0 0.105469,0.011719 -0.03516,0.011719 -0.234375,0.1289063 -0.234375,0.3867188 0,0.28125 0.210937,0.4335937 0.433593,0.4335937 0.175782,0 0.421875,-0.1289062 0.421875,-0.4453125 0,-0.3164062 -0.304687,-0.609375 -0.726562,-0.609375 -0.738281,0 -1.089844,0.6679688 -1.230469,1.1015622 z m 3.339844,-0.1171875 v 2.66015628 c 0,0.45703125 -0.117188,0.45703125 -0.785156,0.45703125 v 0.3046875 c 0.351562,-0.01171875 0.855468,-0.03515625 1.125,-0.03515625 0.257812,0 0.785156,0.0234375 1.113281,0.03515625 v -0.3046875 c -0.65625,0 -0.773438,0 -0.773438,-0.45703125 V -2.5912031 c 0,-1.03125 0.714844,-1.59375 1.347657,-1.59375 0.621093,0 0.738281,0.5390625 0.738281,1.1015625 v 2.32031248 c 0,0.45703125 -0.117188,0.45703125 -0.773438,0.45703125 v 0.3046875 c 0.339844,-0.01171875 0.855469,-0.03515625 1.125,-0.03515625 0.257813,0 0.773438,0.0234375 1.113282,0.03515625 v -0.3046875 c -0.667969,0 -0.785157,0 -0.785157,-0.45703125 V -2.5912031 c 0,-1.03125 0.714844,-1.59375 1.347657,-1.59375 0.63281,0 0.73828,0.5390625 0.73828,1.1015625 v 2.32031248 c 0,0.45703125 -0.10547,0.45703125 -0.773437,0.45703125 v 0.3046875 c 0.351563,-0.01171875 0.855467,-0.03515625 1.124997,-0.03515625 0.25782,0 0.77344,0.0234375 1.11328,0.03515625 v -0.3046875 c -0.51562,0 -0.76171,0 -0.77343,-0.3046875 V -2.5091719 c 0,-0.8554687 0,-1.171875 -0.31641,-1.5234375 -0.12891,-0.1757812 -0.46875,-0.375 -1.042968,-0.375 -0.832031,0 -1.277344,0.5976563 -1.441406,0.984375 -0.140625,-0.8671875 -0.878906,-0.984375 -1.324219,-0.984375 -0.726562,0 -1.195312,0.4335938 -1.476562,1.0546875 v -1.0546875 l -1.40625,0.1171875 v 0.3046875 c 0.703125,0 0.785156,0.070312 0.785156,0.5625 z m 10.514649,2.66015628 c 0.0352,0.3984375 0.30469,0.8203125 0.77344,0.8203125 0.21093,0 0.82031,-0.140625 0.82031,-0.94921875 V -1.4427656 h -0.24609 v 0.55078123 c 0,0.5859375 -0.2461,0.64453125 -0.36329,0.64453125 -0.32812,0 -0.36328,-0.45703125 -0.36328,-0.50390625 V -2.7435469 c 0,-0.4101562 0,-0.8085937 -0.36328,-1.171875 -0.38672,-0.3867187 -0.8789,-0.5507812 -1.35937,-0.5507812 -0.82032,0 -1.51172,0.46875 -1.51172,1.125 0,0.3046875 0.19922,0.46875 0.45703,0.46875 0.28125,0 0.46875,-0.1992188 0.46875,-0.4570313 0,-0.1171875 -0.0586,-0.4453125 -0.51563,-0.4570312 0.26954,-0.3515625 0.76172,-0.4570313 1.07813,-0.4570313 0.49219,0 1.05469,0.3867188 1.05469,1.2773438 v 0.3632812 c -0.50391,0.035156 -1.20703,0.058594 -1.82813,0.3632813 -0.75,0.3398437 -0.99609,0.8554687 -0.99609,1.28906248 0,0.80859375 0.96094,1.0546875 1.59375,1.0546875 0.65625,0 1.11328,-0.3984375 1.30078,-0.8671875 z m -0.0703,-1.62890628 v 0.9960938 c 0,0.94921873 -0.71485,1.28906248 -1.16016,1.28906248 -0.49219,0 -0.90234,-0.3515625 -0.90234,-0.85546875 0,-0.53906253 0.42187,-1.37109373 2.0625,-1.42968753 z m 3.45996,-1.59375 h 1.42969 v -0.3046875 h -1.42969 v -1.8398437 h -0.2461 c -0.0117,0.8203125 -0.3164,1.8867187 -1.28906,1.921875 v 0.2226562 h 0.84375 v 2.7539063 c 0,1.21874998 0.92578,1.33593748 1.28906,1.33593748 0.70313,0 0.98438,-0.703125 0.98438,-1.33593748 v -0.5742188 h -0.24609 v 0.5507813 c 0,0.73828123 -0.30469,1.11328123 -0.66797,1.11328123 -0.66797,0 -0.66797,-0.90234373 -0.66797,-1.07812503 z m 3.9082,-0.421875 -1.39453,0.1171875 v 0.3046875 c 0.65625,0 0.73828,0.058594 0.73828,0.5507813 v 2.67187498 c 0,0.45703125 -0.10547,0.45703125 -0.77344,0.45703125 v 0.3046875 c 0.31641,-0.01171875 0.85547,-0.03515625 1.10157,-0.03515625 0.33984,0 0.6914,0.0234375 1.03125,0.03515625 v -0.3046875 c -0.65625,0 -0.70313,-0.0585938 -0.70313,-0.4453125 z m 0.0469,-1.734375 c 0,-0.3164062 -0.2461,-0.5273437 -0.52735,-0.5273437 -0.3164,0 -0.52734,0.2695312 -0.52734,0.5273437 0,0.2695313 0.21094,0.5273438 0.52734,0.5273438 0.28125,0 0.52735,-0.1992188 0.52735,-0.5273438 z m 5.65136,4.0078125 c 0,-1.2773437 -0.99609,-2.3320312 -2.1914,-2.3320312 -1.25391,0 -2.21485,1.0898437 -2.21485,2.3320312 0,1.28906253 1.03125,2.23828128 2.20313,2.23828128 1.20703,0 2.20312,-0.97265625 2.20312,-2.23828128 z m -2.1914,1.99218753 c -0.4336,0 -0.86719,-0.2109375 -1.13672,-0.66796875 -0.25781,-0.43359378 -0.25781,-1.04296878 -0.25781,-1.40624998 0,-0.3867188 0,-0.9257813 0.24609,-1.359375 0.26953,-0.4570313 0.73828,-0.6679688 1.13672,-0.6679688 0.43359,0 0.86719,0.2226563 1.125,0.6445313 0.25781,0.4335937 0.25781,1.0078125 0.25781,1.3828125 0,0.3632812 0,0.9023437 -0.22266,1.33593748 -0.22265,0.4453125 -0.65625,0.73828125 -1.14843,0.73828125 z m 3.58593,-3.28125003 v 2.66015628 c 0,0.45703125 -0.11718,0.45703125 -0.78515,0.45703125 v 0.3046875 c 0.35156,-0.01171875 0.85547,-0.03515625 1.125,-0.03515625 0.25781,0 0.78515,0.0234375 1.11328,0.03515625 v -0.3046875 c -0.65625,0 -0.77344,0 -0.77344,-0.45703125 V -2.5912031 c 0,-1.03125 0.71485,-1.59375 1.34766,-1.59375 0.62109,0 0.73828,0.5390625 0.73828,1.1015625 v 2.32031248 c 0,0.45703125 -0.11719,0.45703125 -0.77344,0.45703125 v 0.3046875 c 0.33985,-0.01171875 0.85547,-0.03515625 1.125,-0.03515625 0.25781,0 0.77344,0.0234375 1.11328,0.03515625 v -0.3046875 c -0.51562,0 -0.77343,0 -0.78515,-0.3046875 V -2.5091719 c 0,-0.8554687 0,-1.171875 -0.30469,-1.5234375 -0.14063,-0.1757812 -0.46875,-0.375 -1.04297,-0.375 -0.72656,0 -1.19531,0.4335938 -1.47656,1.0546875 v -1.0546875 l -1.40625,0.1171875 v 0.3046875 c 0.70312,0 0.78515,0.070312 0.78515,0.5625 z m 0,0"
         style="fill:#000000;fill-opacity:1;fill-rule:nonzero;stroke:none" />
    </g>
    <path
       id="path8"
       d="M -87.64041,-131.98853 H 87.64043 v 37.20258 H -87.64041 Z"
       style="fill:none;stroke:#000000;stroke-width:0.79701;stroke-linecap:butt;stroke-linejoin:miter;stroke-miterlimit:10;stroke-dasharray:none;stroke-opacity:1"
       transform="matrix(1.3333333,0,0,-1.3333333,117.384,25.333333)" />
    <g
       id="g8"
       aria-label="Obtainnaturalinclusionfunction"
       transform="matrix(1.3333333,0,0,1.3333333,19.429333,179.83467)">
      <path
         id="path9"
         d="m 7.1838594,-3.3740469 c 0,-2.0390625 -1.5,-3.6445312 -3.3164063,-3.6445312 -1.78125,0 -3.30468747,1.59375 -3.30468747,3.6445312 0,2.0390625 1.53515627,3.59765627 3.30468747,3.59765627 1.8164063,0 3.3164063,-1.58203127 3.3164063,-3.59765627 z m -3.3046875,3.33984377 c -0.9609375,0 -2.296875,-0.87890625 -2.296875,-3.48046877 0,-2.578125 1.453125,-3.2578125 2.2851562,-3.2578125 0.8671875,0 2.2851563,0.703125 2.2851563,3.2578125 0,2.63671877 -1.359375,3.48046877 -2.2734375,3.48046877 z M 9.4602266,-3.7490469 v -3.1640625 l -1.4296875,0.1054688 v 0.3164062 c 0.6914062,0 0.7734375,0.070312 0.7734375,0.5507813 V 9.53125e-4 h 0.2460937 c 0.011719,-0.011718755 0.09375,-0.152343755 0.3632813,-0.621093755 0.1523437,0.234375 0.5625,0.7265625 1.3007814,0.7265625 1.183594,0 2.226562,-0.97265625 2.226562,-2.26171877 0,-1.265625 -0.972656,-2.25 -2.109375,-2.25 -0.785156,0 -1.2070309,0.46875 -1.3710934,0.65625 z m 0.035156,2.6132813 v -2.0507813 c 0,-0.1875 0,-0.1992187 0.1054688,-0.3632812 0.3867187,-0.5507813 0.9375006,-0.6328125 1.1718756,-0.6328125 0.457031,0 0.808593,0.2578125 1.054687,0.6328125 0.257813,0.4101562 0.28125,0.984375 0.28125,1.3945312 0,0.3632813 -0.01172,0.9609375 -0.304687,1.40625002 -0.210938,0.31640625 -0.585938,0.64453125 -1.125,0.64453125 -0.445313,0 -0.8085944,-0.24609375 -1.0429694,-0.609375 -0.140625,-0.2109375 -0.140625,-0.24609375 -0.140625,-0.42187497 z m 5.5107424,-2.8476563 h 1.429688 v -0.3046875 h -1.429688 v -1.8398437 h -0.246094 c -0.01172,0.8203125 -0.316406,1.8867187 -1.289062,1.921875 v 0.2226562 h 0.84375 v 2.7539063 c 0,1.21874997 0.925781,1.33593747 1.289062,1.33593747 0.703125,0 0.984375,-0.703125 0.984375,-1.33593747 v -0.5742188 h -0.246093 v 0.5507813 c 0,0.73828122 -0.304688,1.11328122 -0.667969,1.11328122 -0.667969,0 -0.667969,-0.90234372 -0.667969,-1.07812502 z m 5.469727,3.22265627 c 0.03516,0.3984375 0.304687,0.8203125 0.773437,0.8203125 0.210938,0 0.820313,-0.140625 0.820313,-0.94921875 V -1.4404531 h -0.246094 v 0.55078122 c 0,0.5859375 -0.246094,0.64453125 -0.363281,0.64453125 -0.328125,0 -0.363282,-0.45703125 -0.363282,-0.50390625 V -2.7412344 c 0,-0.4101562 0,-0.8085937 -0.363281,-1.171875 -0.386719,-0.3867187 -0.878906,-0.5507812 -1.359375,-0.5507812 -0.820312,0 -1.511719,0.46875 -1.511719,1.125 0,0.3046875 0.199219,0.46875 0.457032,0.46875 0.28125,0 0.46875,-0.1992188 0.46875,-0.4570313 0,-0.1171875 -0.05859,-0.4453125 -0.515625,-0.4570312 0.269531,-0.3515625 0.761718,-0.4570313 1.078125,-0.4570313 0.492187,0 1.054687,0.3867188 1.054687,1.2773438 v 0.3632812 c -0.503906,0.035156 -1.207031,0.058594 -1.828125,0.3632813 -0.75,0.3398437 -0.996094,0.8554687 -0.996094,1.28906247 0,0.80859375 0.960938,1.0546875 1.59375,1.0546875 0.65625,0 1.113282,-0.3984375 1.300782,-0.8671875 z m -0.07031,-1.62890627 v 0.9960938 c 0,0.94921872 -0.714844,1.28906247 -1.160156,1.28906247 -0.492188,0 -0.902344,-0.3515625 -0.902344,-0.85546875 0,-0.53906252 0.421875,-1.37109372 2.0625,-1.42968752 z m 3.492188,-2.015625 -1.394532,0.1171875 v 0.3046875 c 0.65625,0 0.738282,0.058594 0.738282,0.5507813 v 2.67187497 c 0,0.45703125 -0.105469,0.45703125 -0.773438,0.45703125 V 9.53125e-4 c 0.316406,-0.011718755 0.855469,-0.035156255 1.101563,-0.035156255 0.339843,0 0.691406,0.0234375 1.03125,0.035156255 V -0.30373438 c -0.65625,0 -0.703125,-0.0585938 -0.703125,-0.4453125 z m 0.04687,-1.734375 c 0,-0.3164062 -0.246094,-0.5273437 -0.527344,-0.5273437 -0.316406,0 -0.527344,0.2695312 -0.527344,0.5273437 0,0.2695313 0.210938,0.5273438 0.527344,0.5273438 0.28125,0 0.527344,-0.1992188 0.527344,-0.5273438 z m 2.065429,2.71875 v 2.66015627 c 0,0.45703125 -0.117187,0.45703125 -0.785156,0.45703125 V 9.53125e-4 c 0.351563,-0.011718755 0.855469,-0.035156255 1.125,-0.035156255 0.257813,0 0.785156,0.0234375 1.113281,0.035156255 V -0.30373438 c -0.65625,0 -0.773437,0 -0.773437,-0.45703125 V -2.5888906 c 0,-1.03125 0.714844,-1.59375 1.347656,-1.59375 0.621094,0 0.738281,0.5390625 0.738281,1.1015625 v 2.32031247 c 0,0.45703125 -0.117187,0.45703125 -0.773437,0.45703125 V 9.53125e-4 c 0.339844,-0.011718755 0.855469,-0.035156255 1.125,-0.035156255 0.257812,0 0.773437,0.0234375 1.113281,0.035156255 V -0.30373438 c -0.515625,0 -0.773437,0 -0.785156,-0.3046875 V -2.5068594 c 0,-0.8554687 0,-1.171875 -0.304688,-1.5234375 -0.140625,-0.1757812 -0.46875,-0.375 -1.042968,-0.375 -0.726563,0 -1.195313,0.4335938 -1.476563,1.0546875 v -1.0546875 l -1.40625,0.1171875 v 0.3046875 c 0.703125,0 0.785156,0.070312 0.785156,0.5625 z m 0,0"
         style="fill:#000000;fill-opacity:1;fill-rule:nonzero;stroke:none" />
      <path
         id="path10"
         d="m 36.05593,-1.7451406 c 0.04687,-0.2109375 0.105468,-0.421875 0.152343,-0.6445313 0.128907,-0.5039062 0.128907,-0.515625 0.304688,-0.8085937 0.140625,-0.234375 0.585937,-0.984375 1.335937,-0.984375 0.445313,0 0.457032,0.4453125 0.457032,0.65625 0,0.6210937 -0.433594,1.8046875 -0.574219,2.203125 -0.128906,0.33984372 -0.152344,0.42187497 -0.152344,0.63281247 0,0.4453125 0.269531,0.796875 0.75,0.796875 0.925781,0 1.265625,-1.47656247 1.265625,-1.53515627 0,-0.09375 -0.08203,-0.09375 -0.152344,-0.09375 -0.128906,0 -0.128906,0.023437 -0.164062,0.1640625 -0.08203,0.2695313 -0.351563,1.25390627 -0.925781,1.25390627 -0.210938,0 -0.222657,-0.15234375 -0.222657,-0.29296875 0,-0.24609375 0.105469,-0.50390625 0.175782,-0.75000002 0.199218,-0.5273437 0.609375,-1.640625 0.609375,-2.2148437 0,-0.8203125 -0.539063,-1.0429688 -1.03125,-1.0429688 -0.820313,0 -1.300782,0.5976563 -1.429688,0.7851563 -0.07031,-0.4804688 -0.398437,-0.7851563 -0.832031,-0.7851563 -0.363281,0 -0.5625,0.234375 -0.714844,0.5273438 -0.1875,0.3984375 -0.316406,0.984375 -0.316406,1.0078125 0,0.1054687 0.09375,0.1054687 0.140625,0.1054687 0.128906,0 0.140625,-0.011719 0.1875,-0.234375 0.1875,-0.6914062 0.375,-1.1835937 0.679687,-1.1835937 0.257813,0 0.257813,0.2929687 0.257813,0.3984375 0,0.1640625 -0.02344,0.3515625 -0.07031,0.5039062 l -0.738281,2.98828127 c -0.02344,0.0585938 -0.03516,0.1171875 -0.03516,0.140625 0,0.1171875 0.08203,0.2578125 0.28125,0.2578125 0.117187,0 0.292969,-0.0703125 0.363281,-0.2578125 z m 6.785156,1.16015622 c 0.105469,0.48046875 0.46875,0.69140625 0.820312,0.69140625 0.375,0 0.585938,-0.24609375 0.726563,-0.55078125 0.1875,-0.38671875 0.304687,-0.96093752 0.304687,-0.98437502 0,-0.09375 -0.08203,-0.09375 -0.152343,-0.09375 -0.117188,0 -0.128907,0.011719 -0.1875,0.2226563 -0.140625,0.56249997 -0.328125,1.19531247 -0.667969,1.19531247 -0.257813,0 -0.257813,-0.26953125 -0.257813,-0.41015625 0,-0.0703125 0,-0.234375 0.07031,-0.51562502 l 0.679687,-2.7070312 c 0.03516,-0.140625 0.03516,-0.1523438 0.03516,-0.2109375 0,-0.1992188 -0.164063,-0.2578125 -0.269532,-0.2578125 -0.316406,0 -0.386718,0.3398437 -0.398437,0.3867187 -0.1875,-0.421875 -0.503906,-0.5859375 -0.832031,-0.5859375 -1.101563,0 -2.273438,1.5117188 -2.273438,2.9765625 0,0.84375002 0.457031,1.53515627 1.207031,1.53515627 0.351563,0 0.796875,-0.2109375 1.195313,-0.69140625 z m 0.539062,-2.53125002 -0.46875,1.8867188 c -0.08203,0.31640622 -0.703125,1.12499997 -1.253906,1.12499997 -0.46875,0 -0.539062,-0.59765625 -0.539062,-0.890625 0,-0.50390627 0.304687,-1.66406247 0.480468,-2.08593747 0.257813,-0.609375 0.714844,-1.1015625 1.113282,-1.1015625 0.445312,0 0.691406,0.515625 0.691406,0.9375 0,0.023437 -0.01172,0.070312 -0.02344,0.1289062 z m 3.66211,-0.8671875 h 0.84375 c 0.175781,0 0.28125,0 0.28125,-0.1875 0,-0.1171875 -0.09375,-0.1171875 -0.246094,-0.1171875 h -0.796875 l 0.363281,-1.4765625 c 0.04687,-0.140625 0.04687,-0.1640625 0.04687,-0.2109375 0,-0.2109375 -0.175781,-0.2578125 -0.269531,-0.2578125 -0.257812,0 -0.351562,0.2109375 -0.386719,0.3515625 l -0.398437,1.59375 h -0.84375 c -0.164063,0 -0.28125,0 -0.28125,0.1875 0,0.1171875 0.09375,0.1171875 0.257812,0.1171875 h 0.796875 l -0.726562,2.859375 c 0,0.035156 -0.04687,0.19921877 -0.04687,0.33984377 0,0.4921875 0.328125,0.890625 0.84375,0.890625 1.007812,0 1.523437,-1.47656247 1.523437,-1.53515627 0,-0.09375 -0.08203,-0.09375 -0.152343,-0.09375 -0.117188,0 -0.117188,0.011719 -0.199219,0.1875 -0.175781,0.48046877 -0.574219,1.23046877 -1.148438,1.23046877 -0.269531,0 -0.269531,-0.2578125 -0.269531,-0.41015625 0,-0.0703125 0,-0.234375 0.07031,-0.51562502 z m 5.830078,0.09375 c 0.02344,-0.058594 0.03516,-0.1171875 0.03516,-0.140625 0,-0.1171875 -0.08203,-0.2578125 -0.28125,-0.2578125 -0.304687,0 -0.375,0.28125 -0.386719,0.3632813 l -0.726562,2.90625 c -0.05859,0.18749997 -0.05859,0.19921872 -0.140625,0.32812497 -0.1875,0.28125 -0.480469,0.5859375 -0.914063,0.5859375 -0.457031,0 -0.539062,-0.4453125 -0.539062,-0.7734375 0,-0.60937497 0.328125,-1.49999997 0.574219,-2.17968747 0.08203,-0.2109375 0.128906,-0.3515625 0.128906,-0.5390625 0,-0.4921875 -0.328125,-0.8085938 -0.761719,-0.8085938 -0.925781,0 -1.265625,1.4765625 -1.265625,1.5351563 0,0.1054687 0.09375,0.1054687 0.140625,0.1054687 0.128906,0 0.140625,-0.023437 0.1875,-0.1640625 0.07031,-0.3046875 0.339844,-1.2539062 0.925781,-1.2539062 0.105469,0 0.210938,0.035156 0.210938,0.2929687 0,0.234375 -0.09375,0.5039063 -0.234375,0.890625 -0.257813,0.703125 -0.515625,1.4414063 -0.515625,1.9570313 0,0.86718747 0.574219,1.14843747 1.113281,1.14843747 0.527344,0 0.867188,-0.29296875 1.101563,-0.59765625 0.1875,0.5390625 0.609375,0.59765625 0.796875,0.59765625 0.375,0 0.585937,-0.24609375 0.726562,-0.55078125 0.1875,-0.38671875 0.304688,-0.96093752 0.304688,-0.98437502 0,-0.09375 -0.08203,-0.09375 -0.152344,-0.09375 -0.117188,0 -0.128906,0.011719 -0.1875,0.2226563 -0.140625,0.56249997 -0.328125,1.19531247 -0.667969,1.19531247 -0.257812,0 -0.257812,-0.26953125 -0.257812,-0.41015625 0,-0.0703125 0,-0.234375 0.07031,-0.51562502 z m 2.803711,1.0195313 c 0.01172,-0.023437 0.457031,-1.3125 1.324219,-1.3125 0.04687,0 0.328125,0 0.527343,0.140625 -0.351562,0.1054687 -0.386718,0.421875 -0.386718,0.4804687 0,0.1289063 0.09375,0.3164063 0.351562,0.3164063 0.175781,0 0.492188,-0.140625 0.492188,-0.5273438 0,-0.515625 -0.65625,-0.6328125 -0.984375,-0.6328125 -0.679688,0 -1.042969,0.5039063 -1.195313,0.7148438 -0.117187,-0.5273438 -0.503906,-0.7148438 -0.832031,-0.7148438 -0.363281,0 -0.5625,0.234375 -0.714844,0.5273438 -0.1875,0.3984375 -0.316406,0.984375 -0.316406,1.0078125 0,0.1054687 0.09375,0.1054687 0.140625,0.1054687 0.128906,0 0.140625,-0.011719 0.1875,-0.234375 0.1875,-0.6914062 0.375,-1.1835937 0.679687,-1.1835937 0.257813,0 0.257813,0.2929687 0.257813,0.3984375 0,0.1640625 -0.02344,0.3515625 -0.07031,0.5039062 l -0.738281,2.98828127 c -0.02344,0.0585938 -0.03516,0.1171875 -0.03516,0.140625 0,0.1171875 0.08203,0.2578125 0.28125,0.2578125 0.292969,0 0.363281,-0.28125 0.386719,-0.36328125 z m 4.608398,2.28515622 c 0.105469,0.48046875 0.46875,0.69140625 0.820313,0.69140625 0.375,0 0.585937,-0.24609375 0.726562,-0.55078125 0.1875,-0.38671875 0.304688,-0.96093752 0.304688,-0.98437502 0,-0.09375 -0.08203,-0.09375 -0.152344,-0.09375 -0.117187,0 -0.128906,0.011719 -0.1875,0.2226563 -0.140625,0.56249997 -0.328125,1.19531247 -0.667969,1.19531247 -0.257812,0 -0.257812,-0.26953125 -0.257812,-0.41015625 0,-0.0703125 0,-0.234375 0.07031,-0.51562502 l 0.679688,-2.7070312 c 0.03516,-0.140625 0.03516,-0.1523438 0.03516,-0.2109375 0,-0.1992188 -0.164062,-0.2578125 -0.269531,-0.2578125 -0.316406,0 -0.386719,0.3398437 -0.398438,0.3867187 -0.1875,-0.421875 -0.503906,-0.5859375 -0.832031,-0.5859375 -1.101562,0 -2.273437,1.5117188 -2.273437,2.9765625 0,0.84375002 0.457031,1.53515627 1.207031,1.53515627 0.351562,0 0.796875,-0.2109375 1.195312,-0.69140625 z m 0.539063,-2.53125002 -0.46875,1.8867188 c -0.08203,0.31640622 -0.703125,1.12499997 -1.253906,1.12499997 -0.46875,0 -0.539063,-0.59765625 -0.539063,-0.890625 0,-0.50390627 0.304688,-1.66406247 0.480469,-2.08593747 0.257812,-0.609375 0.714844,-1.1015625 1.113281,-1.1015625 0.445313,0 0.691406,0.515625 0.691406,0.9375 0,0.023437 -0.01172,0.070312 -0.02344,0.1289062 z m 4.095703,-3.5507812 c 0,-0.023437 0.02344,-0.1054688 0.02344,-0.1289063 0,-0.082031 -0.05859,-0.1171875 -0.140625,-0.1171875 -0.02344,0 -0.128906,0.011719 -0.152343,0.023437 l -0.996094,0.082031 c -0.117188,0 -0.222656,0.011719 -0.222656,0.1992187 0,0.1171875 0.09375,0.1171875 0.234375,0.1171875 0.480468,0 0.503906,0.070312 0.503906,0.1640625 0,0.035156 -0.03516,0.1640625 -0.03516,0.1757813 l -1.242188,4.9804687 c -0.01172,0.035156 -0.05859,0.23437502 -0.05859,0.38671877 0,0.52734375 0.363282,0.890625 0.832032,0.890625 0.386718,0 0.585937,-0.26953125 0.714843,-0.515625 0.164063,-0.3515625 0.304688,-0.98437497 0.304688,-1.01953127 0,-0.09375 -0.08203,-0.09375 -0.152344,-0.09375 -0.04687,0 -0.105469,0 -0.140625,0.046875 l -0.07031,0.2460938 c -0.164063,0.70312497 -0.351563,1.12499997 -0.632813,1.12499997 -0.257812,0 -0.257812,-0.26953125 -0.257812,-0.41015625 0,-0.0703125 0,-0.22265625 0.05859,-0.45703125 z m 6.380859,5.2382812 c 0,-0.09375 -0.07031,-0.09375 -0.140625,-0.09375 -0.128906,0 -0.128906,0.023437 -0.175781,0.1640625 -0.08203,0.2929688 -0.351562,1.25390627 -0.925781,1.25390627 -0.08203,0 -0.222656,-0.0117188 -0.222656,-0.28125 0,-0.2578125 0.128906,-0.5859375 0.269531,-0.96093747 l 0.632812,-1.6992188 c 0.09375,-0.2929687 0.117188,-0.375 0.117188,-0.5625 0,-0.5390625 -0.375,-0.796875 -0.75,-0.796875 -0.9375,0 -1.265625,1.4882813 -1.265625,1.5351563 0,0.1054687 0.09375,0.1054687 0.140625,0.1054687 0.128906,0 0.140625,-0.023437 0.1875,-0.1640625 0.08203,-0.328125 0.339844,-1.2539062 0.925781,-1.2539062 0.105469,0 0.210938,0.046875 0.210938,0.28125 0,0.234375 -0.105469,0.5273437 -0.175782,0.7148437 l -0.292968,0.8320313 c -0.128907,0.328125 -0.257813,0.65625 -0.375,0.984375 -0.140625,0.37499997 -0.175782,0.48046872 -0.175782,0.67968747 0,0.38671875 0.234375,0.796875 0.75,0.796875 0.9375,0 1.265625,-1.48828127 1.265625,-1.53515627 z m -0.04687,-4.78125 c 0,-0.2460937 -0.199218,-0.328125 -0.339843,-0.328125 -0.210938,0 -0.480469,0.1992188 -0.480469,0.4804688 0,0.2460937 0.199219,0.328125 0.339844,0.328125 0.199218,0 0.480468,-0.1875 0.480468,-0.4804688 z m 2.106446,4.4648438 c 0.04687,-0.2109375 0.105468,-0.421875 0.152343,-0.6445313 0.128907,-0.5039062 0.128907,-0.515625 0.304688,-0.8085937 0.140625,-0.234375 0.585937,-0.984375 1.335937,-0.984375 0.445313,0 0.457032,0.4453125 0.457032,0.65625 0,0.6210937 -0.433594,1.8046875 -0.574219,2.203125 -0.128906,0.33984372 -0.152344,0.42187497 -0.152344,0.63281247 0,0.4453125 0.269531,0.796875 0.75,0.796875 0.925781,0 1.265625,-1.47656247 1.265625,-1.53515627 0,-0.09375 -0.08203,-0.09375 -0.152344,-0.09375 -0.128906,0 -0.128906,0.023437 -0.164062,0.1640625 -0.08203,0.2695313 -0.351563,1.25390627 -0.925781,1.25390627 -0.210938,0 -0.222657,-0.15234375 -0.222657,-0.29296875 0,-0.24609375 0.105469,-0.50390625 0.175782,-0.75000002 0.199218,-0.5273437 0.609375,-1.640625 0.609375,-2.2148437 0,-0.8203125 -0.539063,-1.0429688 -1.03125,-1.0429688 -0.820313,0 -1.300782,0.5976563 -1.429688,0.7851563 -0.07031,-0.4804688 -0.398437,-0.7851563 -0.832031,-0.7851563 -0.363281,0 -0.5625,0.234375 -0.714844,0.5273438 -0.1875,0.3984375 -0.316406,0.984375 -0.316406,1.0078125 0,0.1054687 0.09375,0.1054687 0.140625,0.1054687 0.128906,0 0.140625,-0.011719 0.1875,-0.234375 0.1875,-0.6914062 0.375,-1.1835937 0.679687,-1.1835937 0.257813,0 0.257813,0.2929687 0.257813,0.3984375 0,0.1640625 -0.02344,0.3515625 -0.07031,0.5039062 l -0.738281,2.98828127 c -0.02344,0.0585938 -0.03516,0.1171875 -0.03516,0.140625 0,0.1171875 0.08203,0.2578125 0.28125,0.2578125 0.117187,0 0.292969,-0.0703125 0.363281,-0.2578125 z m 7.640625,-2.0039063 c -0.503907,0.058594 -0.503907,0.4570313 -0.503907,0.4804688 0,0.1640625 0.117188,0.3164062 0.339844,0.3164062 0.269531,0 0.515625,-0.2109375 0.515625,-0.5976562 0,-0.4804688 -0.433594,-0.8554688 -1.066406,-0.8554688 -1.242188,0 -2.519531,1.4179688 -2.519531,2.8710938 0,0.98437497 0.585937,1.64062497 1.453125,1.64062497 1.277343,0 2.109375,-0.99609375 2.109375,-1.13671877 0,-0.058594 -0.08203,-0.1640625 -0.164063,-0.1640625 -0.03516,0 -0.04687,0.011719 -0.128906,0.1054688 -0.738281,0.93749997 -1.617188,0.98437497 -1.792969,0.98437497 -0.539062,0 -0.785156,-0.45703125 -0.785156,-1.03124997 0,-0.5273438 0.269531,-1.5703125 0.527344,-2.0507813 0.363281,-0.6445312 0.855468,-0.9960937 1.300781,-0.9960937 0.117187,0 0.5625,0.023437 0.714844,0.4335937 z m 3.269531,-2.9179687 c 0,-0.023437 0.02344,-0.1054688 0.02344,-0.1289063 0,-0.082031 -0.05859,-0.1171875 -0.140625,-0.1171875 -0.02344,0 -0.128906,0.011719 -0.152343,0.023437 l -0.996094,0.082031 c -0.117188,0 -0.222656,0.011719 -0.222656,0.1992187 0,0.1171875 0.09375,0.1171875 0.234375,0.1171875 0.480468,0 0.503906,0.070312 0.503906,0.1640625 0,0.035156 -0.03516,0.1640625 -0.03516,0.1757813 l -1.242188,4.9804687 c -0.01172,0.035156 -0.05859,0.23437502 -0.05859,0.38671877 0,0.52734375 0.363282,0.890625 0.832032,0.890625 0.386718,0 0.585937,-0.26953125 0.714843,-0.515625 0.164063,-0.3515625 0.304688,-0.98437497 0.304688,-1.01953127 0,-0.09375 -0.08203,-0.09375 -0.152344,-0.09375 -0.04687,0 -0.105469,0 -0.140625,0.046875 l -0.07031,0.2460938 c -0.164063,0.70312497 -0.351563,1.12499997 -0.632813,1.12499997 -0.257812,0 -0.257812,-0.26953125 -0.257812,-0.41015625 0,-0.0703125 0,-0.22265625 0.05859,-0.45703125 z m 4.631836,2.7773437 c 0.02344,-0.058594 0.03516,-0.1171875 0.03516,-0.140625 0,-0.1171875 -0.08203,-0.2578125 -0.28125,-0.2578125 -0.304687,0 -0.375,0.28125 -0.386719,0.3632813 l -0.726562,2.90625 c -0.05859,0.18749997 -0.05859,0.19921872 -0.140625,0.32812497 -0.1875,0.28125 -0.480469,0.5859375 -0.914063,0.5859375 -0.457031,0 -0.539062,-0.4453125 -0.539062,-0.7734375 0,-0.60937497 0.328125,-1.49999997 0.574219,-2.17968747 0.08203,-0.2109375 0.128906,-0.3515625 0.128906,-0.5390625 0,-0.4921875 -0.328125,-0.8085938 -0.761719,-0.8085938 -0.925781,0 -1.265625,1.4765625 -1.265625,1.5351563 0,0.1054687 0.09375,0.1054687 0.140625,0.1054687 0.128906,0 0.140625,-0.023437 0.1875,-0.1640625 0.07031,-0.3046875 0.339844,-1.2539062 0.925781,-1.2539062 0.105469,0 0.210938,0.035156 0.210938,0.2929687 0,0.234375 -0.09375,0.5039063 -0.234375,0.890625 -0.257813,0.703125 -0.515625,1.4414063 -0.515625,1.9570313 0,0.86718747 0.574219,1.14843747 1.113281,1.14843747 0.527344,0 0.867188,-0.29296875 1.101563,-0.59765625 0.1875,0.5390625 0.609375,0.59765625 0.796875,0.59765625 0.375,0 0.585937,-0.24609375 0.726562,-0.55078125 0.1875,-0.38671875 0.304688,-0.96093752 0.304688,-0.98437502 0,-0.09375 -0.08203,-0.09375 -0.152344,-0.09375 -0.117188,0 -0.128906,0.011719 -0.1875,0.2226563 -0.140625,0.56249997 -0.328125,1.19531247 -0.667969,1.19531247 -0.257812,0 -0.257812,-0.26953125 -0.257812,-0.41015625 0,-0.0703125 0,-0.234375 0.07031,-0.51562502 z m 2.698242,1.9335938 c 0.433594,0.09375 0.890625,0.1992187 0.890625,0.7265625 0,0.32812497 -0.269531,1.12499997 -1.300781,1.12499997 -0.222656,0 -0.796875,-0.0585938 -0.949219,-0.5625 0.503906,-0.046875 0.503906,-0.46874997 0.503906,-0.49218747 0,-0.1875 -0.128906,-0.3164063 -0.339843,-0.3164063 -0.234375,0 -0.503907,0.1757813 -0.503907,0.62109377 0,0.609375 0.574219,0.9609375 1.277344,0.9609375 1.5,0 1.875,-1.20703127 1.875,-1.66406247 0,-0.8671875 -0.773437,-1.0546875 -1.183594,-1.1367188 -0.28125,-0.058594 -0.632812,-0.140625 -0.632812,-0.5742187 0,-0.234375 0.199219,-0.9140625 0.996094,-0.9140625 0.269531,0 0.644531,0.09375 0.75,0.4921875 -0.316407,0.035156 -0.398438,0.3046875 -0.398438,0.3984375 0,0.1171875 0.05859,0.28125 0.304688,0.28125 0.164062,0 0.421875,-0.1171875 0.421875,-0.5390625 0,-0.46875 -0.410157,-0.8554688 -1.066407,-0.8554688 -1.160156,0 -1.570312,0.9609375 -1.570312,1.4765625 0,0.7734375 0.644531,0.9023438 0.925781,0.9726563 z m 4.907227,0.5273437 c 0,-0.09375 -0.07031,-0.09375 -0.140625,-0.09375 -0.128907,0 -0.128907,0.023437 -0.175782,0.1640625 -0.08203,0.2929688 -0.351562,1.25390627 -0.925781,1.25390627 -0.08203,0 -0.222656,-0.0117188 -0.222656,-0.28125 0,-0.2578125 0.128906,-0.5859375 0.269531,-0.96093747 l 0.632813,-1.6992188 c 0.09375,-0.2929687 0.117187,-0.375 0.117187,-0.5625 0,-0.5390625 -0.375,-0.796875 -0.75,-0.796875 -0.9375,0 -1.265625,1.4882813 -1.265625,1.5351563 0,0.1054687 0.09375,0.1054687 0.140625,0.1054687 0.128906,0 0.140625,-0.023437 0.1875,-0.1640625 0.08203,-0.328125 0.339844,-1.2539062 0.925781,-1.2539062 0.105469,0 0.210938,0.046875 0.210938,0.28125 0,0.234375 -0.105469,0.5273437 -0.175781,0.7148437 l -0.292969,0.8320313 c -0.128906,0.328125 -0.257813,0.65625 -0.375,0.984375 -0.140625,0.37499997 -0.175781,0.48046872 -0.175781,0.67968747 0,0.38671875 0.234375,0.796875 0.75,0.796875 0.9375,0 1.265625,-1.48828127 1.265625,-1.53515627 z m -0.04687,-4.78125 c 0,-0.2460937 -0.199219,-0.328125 -0.339844,-0.328125 -0.210938,0 -0.480469,0.1992188 -0.480469,0.4804688 0,0.2460937 0.199219,0.328125 0.339844,0.328125 0.199219,0 0.480469,-0.1875 0.480469,-0.4804688 z m 4.883793,3.4453125 c 0,-0.9492187 -0.58594,-1.640625 -1.453129,-1.640625 -1.242188,0 -2.519532,1.4179688 -2.519532,2.8710938 0,1.03124997 0.621094,1.64062497 1.453125,1.64062497 1.230466,0 2.519536,-1.40624997 2.519536,-2.87109377 z m -2.519536,2.66015627 c -0.398437,0 -0.761718,-0.31640625 -0.761718,-1.03124997 0,-0.4921875 0.257812,-1.6054688 0.574218,-2.1445313 0.375,-0.609375 0.855469,-0.9023437 1.242188,-0.9023437 0.480468,0 0.761718,0.4335937 0.761718,1.03125 0,0.421875 -0.22266,1.453125 -0.53906,2.0507812 -0.281252,0.53906252 -0.796877,0.99609377 -1.277346,0.99609377 z m 4.833986,-1.64062497 c 0.0469,-0.2109375 0.10547,-0.421875 0.15234,-0.6445313 0.12891,-0.5039062 0.12891,-0.515625 0.30469,-0.8085937 0.14063,-0.234375 0.58594,-0.984375 1.33594,-0.984375 0.44531,0 0.45703,0.4453125 0.45703,0.65625 0,0.6210937 -0.43359,1.8046875 -0.57422,2.203125 -0.12891,0.33984372 -0.15234,0.42187497 -0.15234,0.63281247 0,0.4453125 0.26953,0.796875 0.75,0.796875 0.92578,0 1.26562,-1.47656247 1.26562,-1.53515627 0,-0.09375 -0.082,-0.09375 -0.15234,-0.09375 -0.12891,0 -0.12891,0.023437 -0.16406,0.1640625 -0.082,0.2695313 -0.35157,1.25390627 -0.92579,1.25390627 -0.21093,0 -0.22265,-0.15234375 -0.22265,-0.29296875 0,-0.24609375 0.10547,-0.50390625 0.17578,-0.75000002 0.19922,-0.5273437 0.60937,-1.640625 0.60937,-2.2148437 0,-0.8203125 -0.53906,-1.0429688 -1.03125,-1.0429688 -0.82031,0 -1.30078,0.5976563 -1.42968,0.7851563 -0.0703,-0.4804688 -0.39844,-0.7851563 -0.83203,-0.7851563 -0.36329,0 -0.5625,0.234375 -0.71485,0.5273438 -0.1875,0.3984375 -0.3164,0.984375 -0.3164,1.0078125 0,0.1054687 0.0937,0.1054687 0.14062,0.1054687 0.12891,0 0.14063,-0.011719 0.1875,-0.234375 0.1875,-0.6914062 0.375,-1.1835937 0.67969,-1.1835937 0.25781,0 0.25781,0.2929687 0.25781,0.3984375 0,0.1640625 -0.0234,0.3515625 -0.0703,0.5039062 l -0.73828,2.98828127 c -0.0234,0.0585938 -0.0352,0.1171875 -0.0352,0.140625 0,0.1171875 0.082,0.2578125 0.28125,0.2578125 0.11719,0 0.29297,-0.0703125 0.36328,-0.2578125 z m 9.61523,-2.2382813 h 0.82032 c 0.17578,0 0.26953,0 0.26953,-0.1757812 0,-0.1289063 -0.082,-0.1289063 -0.2461,-0.1289063 h -0.77343 c 0.1289,-0.7382812 0.16406,-0.9257812 0.3164,-1.6171875 0.082,-0.375 0.1875,-0.9023437 0.55078,-0.9023437 0.0703,0 0.28125,0.023437 0.41016,0.1875 -0.29297,0.046875 -0.43359,0.28125 -0.43359,0.4804687 0,0.2226563 0.17578,0.328125 0.33984,0.328125 0.24609,0 0.49219,-0.1992187 0.49219,-0.5507812 0,-0.4335938 -0.41016,-0.65625 -0.8086,-0.65625 -0.98437,0 -1.23047,1.2890625 -1.30078,1.6289062 l -0.21094,1.1015625 h -0.65625 c -0.16406,0 -0.26953,0 -0.26953,0.1992188 0,0.1054687 0.10547,0.1054687 0.2461,0.1054687 h 0.62109 l -0.72656,3.71484377 c -0.11719,0.62109375 -0.22266,1.03125 -0.28125,1.23046875 -0.082,0.33984378 -0.21094,0.86718748 -0.5625,0.86718748 -0.10547,0 -0.29297,-0.035156 -0.39844,-0.1875 0.29297,-0.046875 0.43359,-0.28125 0.43359,-0.4804687 0,-0.22265628 -0.17578,-0.32812503 -0.33984,-0.32812503 -0.24609,0 -0.49219,0.19921873 -0.49219,0.55078123 0,0.4453125 0.42188,0.65625 0.79688,0.65625 1.03125,0 1.4414,-2.08593748 1.51172,-2.44921873 z m 5.41114,0.09375 c 0.0234,-0.058594 0.0352,-0.1171875 0.0352,-0.140625 0,-0.1171875 -0.082,-0.2578125 -0.28125,-0.2578125 -0.30469,0 -0.375,0.28125 -0.38672,0.3632813 l -0.72656,2.90625 c -0.0586,0.18749997 -0.0586,0.19921872 -0.14062,0.32812497 -0.1875,0.28125 -0.48047,0.5859375 -0.91407,0.5859375 -0.45703,0 -0.53906,-0.4453125 -0.53906,-0.7734375 0,-0.60937497 0.32813,-1.49999997 0.57422,-2.17968747 0.082,-0.2109375 0.12891,-0.3515625 0.12891,-0.5390625 0,-0.4921875 -0.32813,-0.8085938 -0.76172,-0.8085938 -0.92578,0 -1.26563,1.4765625 -1.26563,1.5351563 0,0.1054687 0.0937,0.1054687 0.14063,0.1054687 0.1289,0 0.14062,-0.023437 0.1875,-0.1640625 0.0703,-0.3046875 0.33984,-1.2539062 0.92578,-1.2539062 0.10547,0 0.21094,0.035156 0.21094,0.2929687 0,0.234375 -0.0937,0.5039063 -0.23438,0.890625 -0.25781,0.703125 -0.51562,1.4414063 -0.51562,1.9570313 0,0.86718747 0.57421,1.14843747 1.11328,1.14843747 0.52734,0 0.86718,-0.29296875 1.10156,-0.59765625 0.1875,0.5390625 0.60937,0.59765625 0.79687,0.59765625 0.375,0 0.58594,-0.24609375 0.72657,-0.55078125 0.1875,-0.38671875 0.30468,-0.96093752 0.30468,-0.98437502 0,-0.09375 -0.082,-0.09375 -0.15234,-0.09375 -0.11719,0 -0.12891,0.011719 -0.1875,0.2226563 -0.14062,0.56249997 -0.32812,1.19531247 -0.66797,1.19531247 -0.25781,0 -0.25781,-0.26953125 -0.25781,-0.41015625 0,-0.0703125 0,-0.234375 0.0703,-0.51562502 z m 2.53418,2.1445313 c 0.0469,-0.2109375 0.10546,-0.421875 0.15234,-0.6445313 0.12891,-0.5039062 0.12891,-0.515625 0.30469,-0.8085937 0.14062,-0.234375 0.58593,-0.984375 1.33593,-0.984375 0.44532,0 0.45704,0.4453125 0.45704,0.65625 0,0.6210937 -0.4336,1.8046875 -0.57422,2.203125 -0.12891,0.33984372 -0.15235,0.42187497 -0.15235,0.63281247 0,0.4453125 0.26953,0.796875 0.75,0.796875 0.92578,0 1.26563,-1.47656247 1.26563,-1.53515627 0,-0.09375 -0.082,-0.09375 -0.15235,-0.09375 -0.1289,0 -0.1289,0.023437 -0.16406,0.1640625 -0.082,0.2695313 -0.35156,1.25390627 -0.92578,1.25390627 -0.21094,0 -0.22266,-0.15234375 -0.22266,-0.29296875 0,-0.24609375 0.10547,-0.50390625 0.17579,-0.75000002 0.19921,-0.5273437 0.60937,-1.640625 0.60937,-2.2148437 0,-0.8203125 -0.53906,-1.0429688 -1.03125,-1.0429688 -0.82031,0 -1.30078,0.5976563 -1.42969,0.7851563 -0.0703,-0.4804688 -0.39843,-0.7851563 -0.83203,-0.7851563 -0.36328,0 -0.5625,0.234375 -0.71484,0.5273438 -0.1875,0.3984375 -0.31641,0.984375 -0.31641,1.0078125 0,0.1054687 0.0937,0.1054687 0.14063,0.1054687 0.1289,0 0.14062,-0.011719 0.1875,-0.234375 0.1875,-0.6914062 0.375,-1.1835937 0.67968,-1.1835937 0.25782,0 0.25782,0.2929687 0.25782,0.3984375 0,0.1640625 -0.0234,0.3515625 -0.0703,0.5039062 l -0.73828,2.98828127 c -0.0234,0.0585938 -0.0352,0.1171875 -0.0352,0.140625 0,0.1171875 0.082,0.2578125 0.28125,0.2578125 0.11718,0 0.29297,-0.0703125 0.36328,-0.2578125 z m 7.64062,-2.0039063 c -0.50391,0.058594 -0.50391,0.4570313 -0.50391,0.4804688 0,0.1640625 0.11719,0.3164062 0.33985,0.3164062 0.26953,0 0.51562,-0.2109375 0.51562,-0.5976562 0,-0.4804688 -0.43359,-0.8554688 -1.0664,-0.8554688 -1.24219,0 -2.51953,1.4179688 -2.51953,2.8710938 0,0.98437497 0.58593,1.64062497 1.45312,1.64062497 1.27734,0 2.10938,-0.99609375 2.10938,-1.13671877 0,-0.058594 -0.082,-0.1640625 -0.16407,-0.1640625 -0.0351,0 -0.0469,0.011719 -0.1289,0.1054688 -0.73828,0.93749997 -1.61719,0.98437497 -1.79297,0.98437497 -0.53906,0 -0.78516,-0.45703125 -0.78516,-1.03124997 0,-0.5273438 0.26953,-1.5703125 0.52735,-2.0507813 0.36328,-0.6445312 0.85546,-0.9960937 1.30078,-0.9960937 0.11718,0 0.5625,0.023437 0.71484,0.4335937 z m 2.83594,-0.234375 h 0.84375 c 0.17578,0 0.28125,0 0.28125,-0.1875 0,-0.1171875 -0.0937,-0.1171875 -0.2461,-0.1171875 h -0.79687 l 0.36328,-1.4765625 c 0.0469,-0.140625 0.0469,-0.1640625 0.0469,-0.2109375 0,-0.2109375 -0.17579,-0.2578125 -0.26954,-0.2578125 -0.25781,0 -0.35156,0.2109375 -0.38671,0.3515625 l -0.39844,1.59375 h -0.84375 c -0.16406,0 -0.28125,0 -0.28125,0.1875 0,0.1171875 0.0937,0.1171875 0.25781,0.1171875 h 0.79688 l -0.72657,2.859375 c 0,0.035156 -0.0469,0.19921877 -0.0469,0.33984377 0,0.4921875 0.32812,0.890625 0.84375,0.890625 1.00781,0 1.52344,-1.47656247 1.52344,-1.53515627 0,-0.09375 -0.082,-0.09375 -0.15235,-0.09375 -0.11719,0 -0.11719,0.011719 -0.19922,0.1875 -0.17578,0.48046877 -0.57422,1.23046877 -1.14843,1.23046877 -0.26954,0 -0.26954,-0.2578125 -0.26954,-0.41015625 0,-0.0703125 0,-0.234375 0.0703,-0.51562502 z m 4.01367,2.5546875 c 0,-0.09375 -0.0703,-0.09375 -0.14063,-0.09375 -0.1289,0 -0.1289,0.023437 -0.17578,0.1640625 -0.082,0.2929688 -0.35156,1.25390627 -0.92578,1.25390627 -0.082,0 -0.22265,-0.0117188 -0.22265,-0.28125 0,-0.2578125 0.1289,-0.5859375 0.26953,-0.96093747 l 0.63281,-1.6992188 c 0.0937,-0.2929687 0.11719,-0.375 0.11719,-0.5625 0,-0.5390625 -0.375,-0.796875 -0.75,-0.796875 -0.9375,0 -1.26563,1.4882813 -1.26563,1.5351563 0,0.1054687 0.0937,0.1054687 0.14063,0.1054687 0.1289,0 0.14062,-0.023437 0.1875,-0.1640625 0.082,-0.328125 0.33984,-1.2539062 0.92578,-1.2539062 0.10547,0 0.21094,0.046875 0.21094,0.28125 0,0.234375 -0.10547,0.5273437 -0.17579,0.7148437 l -0.29296,0.8320313 c -0.12891,0.328125 -0.25782,0.65625 -0.375,0.984375 -0.14063,0.37499997 -0.17579,0.48046872 -0.17579,0.67968747 0,0.38671875 0.23438,0.796875 0.75,0.796875 0.9375,0 1.26563,-1.48828127 1.26563,-1.53515627 z m -0.0469,-4.78125 c 0,-0.2460937 -0.19921,-0.328125 -0.33984,-0.328125 -0.21094,0 -0.48047,0.1992188 -0.48047,0.4804688 0,0.2460937 0.19922,0.328125 0.33985,0.328125 0.19921,0 0.48046,-0.1875 0.48046,-0.4804688 z m 4.88086,3.4453125 c 0,-0.9492187 -0.58593,-1.640625 -1.45312,-1.640625 -1.24219,0 -2.51953,1.4179688 -2.51953,2.8710938 0,1.03124997 0.62109,1.64062497 1.45312,1.64062497 1.23047,0 2.51953,-1.40624997 2.51953,-2.87109377 z m -2.51953,2.66015627 c -0.39843,0 -0.76172,-0.31640625 -0.76172,-1.03124997 0,-0.4921875 0.25782,-1.6054688 0.57422,-2.1445313 0.375,-0.609375 0.85547,-0.9023437 1.24219,-0.9023437 0.48047,0 0.76172,0.4335937 0.76172,1.03125 0,0.421875 -0.22266,1.453125 -0.53906,2.0507812 -0.28125,0.53906252 -0.79688,0.99609377 -1.27735,0.99609377 z m 4.83692,-1.64062497 c 0.0469,-0.2109375 0.10547,-0.421875 0.15234,-0.6445313 0.12891,-0.5039062 0.12891,-0.515625 0.30469,-0.8085937 0.14062,-0.234375 0.58594,-0.984375 1.33594,-0.984375 0.44531,0 0.45703,0.4453125 0.45703,0.65625 0,0.6210937 -0.4336,1.8046875 -0.57422,2.203125 -0.12891,0.33984372 -0.15235,0.42187497 -0.15235,0.63281247 0,0.4453125 0.26954,0.796875 0.75,0.796875 0.92579,0 1.26563,-1.47656247 1.26563,-1.53515627 0,-0.09375 -0.082,-0.09375 -0.15234,-0.09375 -0.12891,0 -0.12891,0.023437 -0.16407,0.1640625 -0.082,0.2695313 -0.35156,1.25390627 -0.92578,1.25390627 -0.21094,0 -0.22265,-0.15234375 -0.22265,-0.29296875 0,-0.24609375 0.10546,-0.50390625 0.17578,-0.75000002 0.19922,-0.5273437 0.60937,-1.640625 0.60937,-2.2148437 0,-0.8203125 -0.53906,-1.0429688 -1.03125,-1.0429688 -0.82031,0 -1.30078,0.5976563 -1.42969,0.7851563 -0.0703,-0.4804688 -0.39843,-0.7851563 -0.83203,-0.7851563 -0.36328,0 -0.5625,0.234375 -0.71484,0.5273438 -0.1875,0.3984375 -0.31641,0.984375 -0.31641,1.0078125 0,0.1054687 0.0937,0.1054687 0.14063,0.1054687 0.1289,0 0.14062,-0.011719 0.1875,-0.234375 0.1875,-0.6914062 0.375,-1.1835937 0.67969,-1.1835937 0.25781,0 0.25781,0.2929687 0.25781,0.3984375 0,0.1640625 -0.0234,0.3515625 -0.0703,0.5039062 l -0.73829,2.98828127 c -0.0234,0.0585938 -0.0352,0.1171875 -0.0352,0.140625 0,0.1171875 0.082,0.2578125 0.28125,0.2578125 0.11719,0 0.29297,-0.0703125 0.36328,-0.2578125 z m 0,0"
         style="fill:#000000;fill-opacity:1;fill-rule:nonzero;stroke:none" />
    </g>
    <path
       id="path11"
       d="M 0,-18.99979 V -35.10355"
       style="fill:none;stroke:#000000;stroke-width:0.79701;stroke-linecap:butt;stroke-linejoin:miter;stroke-miterlimit:10;stroke-dasharray:none;stroke-opacity:1"
       transform="matrix(1.3333333,0,0,-1.3333333,117.384,25.333333)" />
    <path
       id="path12"
       d="M 2.59026,0 -1.55415,2.0722 0,0 -1.55415,-2.0722"
       style="fill:#000000;fill-opacity:1;fill-rule:nonzero;stroke:none"
       transform="matrix(0,1.3333333,1.3333333,0,117.384,72.138067)" />
    <path
       id="path13"
       d="M 0,-75.6934 V -91.79716"
       style="fill:none;stroke:#000000;stroke-width:0.79701;stroke-linecap:butt;stroke-linejoin:miter;stroke-miterlimit:10;stroke-dasharray:none;stroke-opacity:1"
       transform="matrix(1.3333333,0,0,-1.3333333,117.384,25.333333)" />
    <path
       id="path14"
       d="M 2.59026,0 -1.55415,2.0722 0,0 -1.55415,-2.0722"
       style="fill:#000000;fill-opacity:1;fill-rule:nonzero;stroke:none"
       transform="matrix(0,1.3333333,1.3333333,0,117.384,147.72955)" />
  </g>
</svg>
