<?xml version="1.0" encoding="UTF-8" standalone="no"?>
<!-- Created with Inkscape (http://www.inkscape.org/) -->

<svg
   version="1.1"
   id="svg1"
   width="341.44"
   height="80"
   viewBox="0 0 341.44 80"
   sodipodi:docname="platoon-top.pdf"
   xmlns:inkscape="http://www.inkscape.org/namespaces/inkscape"
   xmlns:sodipodi="http://sodipodi.sourceforge.net/DTD/sodipodi-0.dtd"
   xmlns="http://www.w3.org/2000/svg"
   xmlns:svg="http://www.w3.org/2000/svg">
  <defs
     id="defs1">
    <clipPath
       clipPathUnits="userSpaceOnUse"
       id="clipPath2">
      <path
         d="M 12.500001,0 H 1053.1251 V 251 H 12.500001 Z"
         transform="matrix(0.32946969,0,0,0.32946969,123.84985,117.9704)"
         clip-rule="evenodd"
         id="path2" />
    </clipPath>
    <clipPath
       clipPathUnits="userSpaceOnUse"
       id="clipPath4">
      <path
         d="M 12.500001,0 H 1053.1251 V 251 H 12.500001 Z"
         transform="matrix(0.32946969,0,0,0.32946969,123.84985,117.9704)"
         clip-rule="evenodd"
         id="path4" />
    </clipPath>
    <clipPath
       clipPathUnits="userSpaceOnUse"
       id="clipPath6">
      <path
         d="M 12.500001,0 H 1053.1251 V 251 H 12.500001 Z"
         transform="matrix(0.32946969,0,0,0.32946969,123.84985,117.9704)"
         clip-rule="evenodd"
         id="path6" />
    </clipPath>
    <clipPath
       clipPathUnits="userSpaceOnUse"
       id="clipPath8">
      <path
         d="M 12.500001,0 H 1053.1251 V 251 H 12.500001 Z"
         transform="matrix(0.32946969,0,0,0.32946969,123.84985,117.9704)"
         clip-rule="evenodd"
         id="path8" />
    </clipPath>
    <clipPath
       clipPathUnits="userSpaceOnUse"
       id="clipPath10">
      <path
         d="M 12.500001,0 H 1053.1251 V 251 H 12.500001 Z"
         transform="matrix(0.32946969,0,0,0.32946969,123.84985,117.9704)"
         clip-rule="evenodd"
         id="path10" />
    </clipPath>
    <clipPath
       clipPathUnits="userSpaceOnUse"
       id="clipPath12">
      <path
         d="M 12.500001,0 H 1053.1251 V 251 H 12.500001 Z"
         transform="matrix(0.32946969,0,0,0.32946969,123.84985,117.9704)"
         clip-rule="evenodd"
         id="path12" />
    </clipPath>
    <clipPath
       clipPathUnits="userSpaceOnUse"
       id="clipPath14">
      <path
         d="M 12.500001,0 H 1053.1251 V 251 H 12.500001 Z"
         transform="matrix(0.32946969,0,0,0.32946969,123.84985,117.9704)"
         clip-rule="evenodd"
         id="path14" />
    </clipPath>
    <clipPath
       clipPathUnits="userSpaceOnUse"
       id="clipPath16">
      <path
         d="M 12.500001,0 H 1053.1251 V 251 H 12.500001 Z"
         transform="matrix(0.32946969,0,0,0.32946969,123.84985,117.9704)"
         clip-rule="evenodd"
         id="path16" />
    </clipPath>
    <clipPath
       clipPathUnits="userSpaceOnUse"
       id="clipPath18">
      <path
         d="M 12.500001,0 H 1053.1251 V 251 H 12.500001 Z"
         transform="matrix(0.32946969,0,0,0.32946969,123.84985,117.9704)"
         clip-rule="evenodd"
         id="path18" />
    </clipPath>
    <clipPath
       clipPathUnits="userSpaceOnUse"
       id="clipPath20">
      <path
         d="M 12.500001,0 H 1053.1251 V 251 H 12.500001 Z"
         transform="matrix(0.32946969,0,0,0.32946969,123.84985,117.9704)"
         clip-rule="evenodd"
         id="path20" />
    </clipPath>
    <clipPath
       clipPathUnits="userSpaceOnUse"
       id="clipPath22">
      <path
         d="M 12.500001,0 H 1053.1251 V 251 H 12.500001 Z"
         transform="matrix(0.32946969,0,0,0.32946969,123.84985,117.9704)"
         clip-rule="evenodd"
         id="path22" />
    </clipPath>
    <clipPath
       clipPathUnits="userSpaceOnUse"
       id="clipPath24">
      <path
         d="M 12.500001,0 H 1053.1251 V 251 H 12.500001 Z"
         transform="matrix(0.32946969,0,0,0.32946969,123.84985,117.9704)"
         clip-rule="evenodd"
         id="path24" />
    </clipPath>
    <clipPath
       clipPathUnits="userSpaceOnUse"
       id="clipPath26">
      <path
         d="M 12.500001,0 H 1053.1251 V 251 H 12.500001 Z"
         transform="matrix(0.32946969,0,0,0.32946969,123.84985,117.9704)"
         clip-rule="evenodd"
         id="path26" />
    </clipPath>
    <clipPath
       clipPathUnits="userSpaceOnUse"
       id="clipPath28">
      <path
         d="M 12.500001,0 H 1053.1251 V 251 H 12.500001 Z"
         transform="matrix(0.32946969,0,0,0.32946969,123.84985,117.9704)"
         clip-rule="evenodd"
         id="path28" />
    </clipPath>
    <clipPath
       clipPathUnits="userSpaceOnUse"
       id="clipPath30">
      <path
         d="M 12.500001,0 H 1053.1251 V 251 H 12.500001 Z"
         transform="matrix(0.32946969,0,0,0.32946969,123.84985,117.9704)"
         clip-rule="evenodd"
         id="path30" />
    </clipPath>
    <clipPath
       clipPathUnits="userSpaceOnUse"
       id="clipPath32">
      <path
         d="M 12.500001,0 H 1053.1251 V 251 H 12.500001 Z"
         transform="matrix(0.32946969,0,0,0.32946969,123.84985,117.9704)"
         clip-rule="evenodd"
         id="path32" />
    </clipPath>
    <clipPath
       clipPathUnits="userSpaceOnUse"
       id="clipPath34">
      <path
         d="M 12.500001,0 H 1053.1251 V 251 H 12.500001 Z"
         transform="matrix(0.32946969,0,0,0.32946969,123.84985,117.9704)"
         clip-rule="evenodd"
         id="path34" />
    </clipPath>
    <clipPath
       clipPathUnits="userSpaceOnUse"
       id="clipPath36">
      <path
         d="M 12.500001,0 H 1053.1251 V 251 H 12.500001 Z"
         transform="matrix(0.32946969,0,0,0.32946969,123.84985,117.9704)"
         clip-rule="evenodd"
         id="path36" />
    </clipPath>
    <clipPath
       clipPathUnits="userSpaceOnUse"
       id="clipPath38">
      <path
         d="M 12.500001,0 H 1053.1251 V 251 H 12.500001 Z"
         transform="matrix(0.32946969,0,0,0.32946969,123.84985,117.9704)"
         clip-rule="evenodd"
         id="path38" />
    </clipPath>
    <clipPath
       clipPathUnits="userSpaceOnUse"
       id="clipPath40">
      <path
         d="M 12.500001,0 H 1053.1251 V 251 H 12.500001 Z"
         transform="matrix(0.32946969,0,0,0.32946969,123.84985,117.9704)"
         clip-rule="evenodd"
         id="path40" />
    </clipPath>
    <clipPath
       clipPathUnits="userSpaceOnUse"
       id="clipPath42">
      <path
         d="M 12.500001,0 H 1053.1251 V 251 H 12.500001 Z"
         transform="matrix(0.32946969,0,0,0.32946969,123.84985,117.9704)"
         clip-rule="evenodd"
         id="path42" />
    </clipPath>
    <clipPath
       clipPathUnits="userSpaceOnUse"
       id="clipPath44">
      <path
         d="M 12.500001,0 H 1053.1251 V 251 H 12.500001 Z"
         transform="matrix(0.32946969,0,0,0.32946969,123.84985,117.9704)"
         clip-rule="evenodd"
         id="path44" />
    </clipPath>
    <clipPath
       clipPathUnits="userSpaceOnUse"
       id="clipPath46">
      <path
         d="M 12.500001,0 H 1053.1251 V 251 H 12.500001 Z"
         transform="matrix(0.32946969,0,0,0.32946969,123.84985,117.9704)"
         clip-rule="evenodd"
         id="path46" />
    </clipPath>
    <clipPath
       clipPathUnits="userSpaceOnUse"
       id="clipPath48">
      <path
         d="M 12.500001,0 H 1053.1251 V 251 H 12.500001 Z"
         transform="matrix(0.32946969,0,0,0.32946969,123.84985,117.9704)"
         clip-rule="evenodd"
         id="path48" />
    </clipPath>
    <clipPath
       clipPathUnits="userSpaceOnUse"
       id="clipPath50">
      <path
         d="M 12.500001,0 H 1053.1251 V 251 H 12.500001 Z"
         transform="matrix(0.32946969,0,0,0.32946969,123.84985,117.9704)"
         clip-rule="evenodd"
         id="path50" />
    </clipPath>
    <clipPath
       clipPathUnits="userSpaceOnUse"
       id="clipPath52">
      <path
         d="M 12.500001,0 H 1053.1251 V 251 H 12.500001 Z"
         transform="matrix(0.32946969,0,0,0.32946969,123.84985,117.9704)"
         clip-rule="evenodd"
         id="path52" />
    </clipPath>
    <clipPath
       clipPathUnits="userSpaceOnUse"
       id="clipPath54">
      <path
         d="M 12.500001,0 H 1053.1251 V 251 H 12.500001 Z"
         transform="matrix(0.32946969,0,0,0.32946969,123.84985,117.9704)"
         clip-rule="evenodd"
         id="path54" />
    </clipPath>
  </defs>
  <sodipodi:namedview
     id="namedview1"
     pagecolor="#ffffff"
     bordercolor="#000000"
     borderopacity="0.25"
     inkscape:showpageshadow="2"
     inkscape:pageopacity="0.0"
     inkscape:pagecheckerboard="0"
     inkscape:deskcolor="#d1d1d1">
    <inkscape:page
       x="0"
       y="0"
       inkscape:label="1"
       id="page1"
       width="341.44"
       height="80"
       margin="0"
       bleed="0" />
  </sodipodi:namedview>
  <g
     id="g1"
     inkscape:groupmode="layer"
     inkscape:label="1">
    <path
       id="path1"
       d="m 170,180 c 0,1.31322 -0.1281,2.6138 -0.38429,3.90178 -0.25621,1.28798 -0.63559,2.5386 -1.13814,3.75185 -0.50255,1.21327 -1.11862,2.36584 -1.84819,3.45774 -0.72958,1.09191 -1.55867,2.10216 -2.48724,3.03075 -0.92859,0.92857 -1.93885,1.75766 -3.03075,2.48723 -1.09189,0.7296 -2.24446,1.34567 -3.45773,1.84822 -1.21328,0.50253 -2.46389,0.8819 -3.75187,1.13811 -1.28798,0.25621 -2.58857,0.3843 -3.90179,0.38432 -1.31322,-2e-5 -2.61382,-0.12811 -3.90181,-0.38432 -1.28798,-0.25621 -2.5386,-0.63558 -3.75186,-1.13813 -1.21326,-0.50254 -2.36585,-1.11862 -3.45775,-1.8482 -1.09189,-0.72957 -2.10213,-1.55866 -3.03072,-2.48723 -0.92858,-0.92859 -1.75767,-1.93883 -2.48726,-3.03073 -0.72958,-1.0919 -1.34565,-2.24448 -1.8482,-3.45775 -0.50255,-1.21324 -0.88193,-2.46387 -1.13812,-3.75186 C 130.12808,182.6138 129.99998,181.31322 130,180 c -2e-5,-1.31322 0.12808,-2.61383 0.38428,-3.90182 0.25619,-1.28798 0.63557,-2.53861 1.13812,-3.75188 0.50255,-1.21324 1.11862,-2.36582 1.8482,-3.45772 0.72959,-1.0919 1.55868,-2.10214 2.48726,-3.03073 0.92859,-0.92859 1.93883,-1.75768 3.03072,-2.48728 1.0919,-0.72958 2.24449,-1.34564 3.45775,-1.84818 1.21326,-0.50255 2.46388,-0.88192 3.75186,-1.13811 C 147.38618,160.1281 148.68678,160 150,160 c 1.31322,0 2.61381,0.1281 3.90179,0.38428 1.28798,0.25619 2.53859,0.63556 3.75187,1.13811 1.21327,0.50254 2.36584,1.1186 3.45774,1.84818 1.09191,0.7296 2.10215,1.55869 3.03074,2.48728 0.92857,0.92859 1.75766,1.93883 2.48722,3.03073 0.72959,1.0919 1.34566,2.24448 1.84821,3.45772 0.50255,1.21327 0.88193,2.4639 1.13814,3.75188 C 169.8719,177.38617 170,178.68678 170,180 Z"
       style="fill:#030303;fill-opacity:1;fill-rule:nonzero;stroke:#000000;stroke-width:1;stroke-linecap:butt;stroke-linejoin:miter;stroke-miterlimit:10;stroke-dasharray:none;stroke-opacity:1"
       transform="matrix(0.97125775,0,0,0.97125775,-120.29013,-114.57967)"
       clip-path="url(#clipPath2)" />
    <path
       id="path3"
       d="m 320,180 c -3e-5,1.31322 -0.12814,2.6138 -0.38434,3.90178 -0.25619,1.28798 -0.63559,2.5386 -1.13812,3.75185 -0.50253,1.21327 -1.11859,2.36584 -1.84818,3.45774 -0.72958,1.09191 -1.55865,2.10216 -2.48724,3.03075 -0.92859,0.92857 -1.93884,1.75766 -3.03073,2.48723 -1.09192,0.7296 -2.24451,1.34567 -3.45776,1.84822 -1.21323,0.50253 -2.46387,0.8819 -3.75187,1.13811 -1.28799,0.25621 -2.58856,0.3843 -3.90176,0.38432 -1.31323,-2e-5 -2.61383,-0.12811 -3.90182,-0.38432 -1.288,-0.25621 -2.53864,-0.63558 -3.7519,-1.13813 -1.21322,-0.50254 -2.36581,-1.11862 -3.45773,-1.8482 -1.09189,-0.72957 -2.10214,-1.55866 -3.0307,-2.48723 -0.92862,-0.92859 -1.75769,-1.93883 -2.48728,-3.03073 -0.72958,-1.0919 -1.34567,-2.24448 -1.8482,-3.45775 -0.50253,-1.21324 -0.8819,-2.46387 -1.13809,-3.75186 C 280.12808,182.6138 280,181.31322 280,180 c 0,-1.31322 0.12808,-2.61383 0.38428,-3.90182 0.25619,-1.28798 0.63556,-2.53861 1.13809,-3.75188 0.50253,-1.21324 1.11862,-2.36582 1.8482,-3.45772 0.72959,-1.0919 1.55866,-2.10214 2.48728,-3.03073 0.92856,-0.92859 1.93881,-1.75768 3.0307,-2.48728 1.09192,-0.72958 2.24451,-1.34564 3.45773,-1.84818 1.21326,-0.50255 2.4639,-0.88192 3.7519,-1.13811 C 297.38617,160.1281 298.68677,160 300,160 c 1.3132,0 2.61377,0.1281 3.90176,0.38428 1.288,0.25619 2.53864,0.63556 3.75187,1.13811 1.21325,0.50254 2.36584,1.1186 3.45773,1.84818 1.09192,0.7296 2.10217,1.55869 3.03076,2.48728 0.92859,0.92859 1.75766,1.93883 2.48724,3.03073 0.72959,1.0919 1.34565,2.24448 1.84818,3.45772 0.50253,1.21327 0.88193,2.4639 1.13812,3.75188 0.2562,1.28799 0.38431,2.5886 0.38434,3.90182 z"
       style="fill:#030303;fill-opacity:1;fill-rule:nonzero;stroke:#000000;stroke-width:1;stroke-linecap:butt;stroke-linejoin:miter;stroke-miterlimit:10;stroke-dasharray:none;stroke-opacity:1"
       transform="matrix(0.97125775,0,0,0.97125775,-120.29013,-114.57967)"
       clip-path="url(#clipPath4)" />
    <path
       id="path5"
       d="m 470,180 c -3e-5,1.31322 -0.12814,2.6138 -0.38434,3.90178 -0.25619,1.28798 -0.63559,2.5386 -1.13812,3.75185 -0.50256,1.21327 -1.11865,2.36584 -1.84824,3.45774 -0.72955,1.09191 -1.55862,2.10216 -2.48718,3.03075 -0.92856,0.92857 -1.93881,1.75766 -3.03073,2.48723 -1.09192,0.7296 -2.24451,1.34567 -3.45776,1.84822 -1.21323,0.50253 -2.46387,0.8819 -3.75187,1.13811 -1.28799,0.25621 -2.58856,0.3843 -3.90176,0.38432 -1.31323,-2e-5 -2.61386,-0.12811 -3.90186,-0.38432 -1.28799,-0.25621 -2.53863,-0.63558 -3.75189,-1.13813 -1.21322,-0.50254 -2.36581,-1.11862 -3.45773,-1.8482 -1.09189,-0.72957 -2.10214,-1.55866 -3.0307,-2.48723 -0.92862,-0.92859 -1.75769,-1.93883 -2.48728,-3.03073 -0.72961,-1.0919 -1.34567,-2.24448 -1.8482,-3.45775 -0.50253,-1.21324 -0.8819,-2.46387 -1.13809,-3.75186 C 430.12808,182.6138 430,181.31322 430,180 c 0,-1.31322 0.12808,-2.61383 0.38428,-3.90182 0.25619,-1.28798 0.63553,-2.53861 1.13806,-3.75188 0.50253,-1.21324 1.11859,-2.36582 1.8482,-3.45772 0.72959,-1.0919 1.55866,-2.10214 2.48728,-3.03073 0.92856,-0.92859 1.93881,-1.75768 3.03073,-2.48728 1.09189,-0.72958 2.24448,-1.34564 3.4577,-1.84818 1.21326,-0.50255 2.4639,-0.88192 3.75189,-1.13811 C 447.38614,160.1281 448.68677,160 450,160 c 1.3132,0 2.61377,0.1281 3.90173,0.38428 1.28803,0.25619 2.53867,0.63556 3.7519,1.13811 1.21325,0.50254 2.36584,1.1186 3.45776,1.84818 1.09192,0.7296 2.10217,1.55869 3.03073,2.48728 0.92856,0.92859 1.75763,1.93883 2.48721,3.03073 0.72959,1.0919 1.34565,2.24448 1.84821,3.45772 0.50253,1.21327 0.88193,2.4639 1.13812,3.75188 0.2562,1.28799 0.38431,2.5886 0.38434,3.90182 z"
       style="fill:#030303;fill-opacity:1;fill-rule:nonzero;stroke:#000000;stroke-width:1;stroke-linecap:butt;stroke-linejoin:miter;stroke-miterlimit:10;stroke-dasharray:none;stroke-opacity:1"
       transform="matrix(0.97125775,0,0,0.97125775,-120.29013,-114.57967)"
       clip-path="url(#clipPath6)" />
    <path
       id="path7"
       d="m 210,140 c 0,1.31322 -0.1281,2.61381 -0.38431,3.90179 -0.25619,1.28798 -0.63557,2.53861 -1.13812,3.75187 -0.50256,1.21325 -1.11864,2.36582 -1.84822,3.45773 -0.72958,1.0919 -1.55866,2.10214 -2.48723,3.03073 -0.92859,0.92857 -1.93884,1.75766 -3.03075,2.48724 -1.0919,0.72959 -2.24447,1.34566 -3.45773,1.84821 -1.21324,0.50255 -2.46387,0.88191 -3.75185,1.13812 -1.28797,0.2562 -2.58857,0.38429 -3.90179,0.38431 -1.31322,-2e-5 -2.61383,-0.12811 -3.90182,-0.38431 -1.28798,-0.25621 -2.53861,-0.63557 -3.75187,-1.13812 -1.21325,-0.50255 -2.36583,-1.11862 -3.45773,-1.84821 -1.09189,-0.72958 -2.10213,-1.55867 -3.03072,-2.48724 -0.92858,-0.92859 -1.75767,-1.93883 -2.48725,-3.03073 -0.7296,-1.09191 -1.34566,-2.24448 -1.84821,-3.45773 -0.50255,-1.21326 -0.88193,-2.46389 -1.13812,-3.75187 C 170.1281,142.61381 170,141.31322 170,140 c 0,-1.31323 0.1281,-2.61385 0.38428,-3.90183 0.25619,-1.28797 0.63557,-2.5386 1.13812,-3.75186 0.50255,-1.21325 1.11861,-2.36583 1.84821,-3.45773 0.72958,-1.0919 1.55867,-2.10214 2.48725,-3.03072 0.92859,-0.92859 1.93883,-1.75768 3.03074,-2.48726 1.09188,-0.72959 2.24446,-1.34565 3.45771,-1.8482 1.21326,-0.50254 2.46389,-0.88191 3.75187,-1.13811 C 187.38617,120.1281 188.68678,120 190,120 c 1.31322,0 2.61382,0.1281 3.90179,0.38429 1.28798,0.25619 2.53861,0.63556 3.75185,1.1381 1.21326,0.50256 2.36583,1.11862 3.45773,1.84821 1.09191,0.72958 2.10216,1.55867 3.03075,2.48726 0.92857,0.92858 1.75765,1.93882 2.48723,3.03072 0.72958,1.0919 1.34566,2.24448 1.84822,3.45773 0.50255,1.21326 0.88193,2.46389 1.13812,3.75186 C 209.8719,137.38615 210,138.68677 210,140 Z"
       style="fill:none;stroke:#000000;stroke-width:1;stroke-linecap:butt;stroke-linejoin:miter;stroke-miterlimit:10;stroke-dasharray:none;stroke-opacity:1"
       transform="matrix(0.97125775,0,0,0.97125775,-120.29013,-114.57967)"
       clip-path="url(#clipPath8)" />
    <path
       id="path9"
       d="m 280,140 c 0,1.31322 -0.12811,2.61381 -0.38431,3.90179 -0.25619,1.28798 -0.63559,2.53861 -1.13812,3.75187 -0.50256,1.21325 -1.11862,2.36582 -1.84821,3.45773 -0.72958,1.0919 -1.55868,2.10214 -2.48724,3.03073 -0.92859,0.92857 -1.93884,1.75766 -3.03076,2.48724 -1.09189,0.72959 -2.24448,1.34566 -3.45773,1.84821 -1.21326,0.50255 -2.46387,0.88191 -3.75184,1.13812 -1.28799,0.2562 -2.58859,0.38429 -3.90179,0.38431 -1.31323,-2e-5 -2.61383,-0.12811 -3.90182,-0.38431 -1.28798,-0.25621 -2.53861,-0.63557 -3.75188,-1.13812 -1.21327,-0.50255 -2.36585,-1.11862 -3.45773,-1.84821 -1.09191,-0.72958 -2.10215,-1.55867 -3.03072,-2.48724 -0.92859,-0.92859 -1.75768,-1.93883 -2.48726,-3.03073 -0.72958,-1.09191 -1.34566,-2.24448 -1.84821,-3.45773 -0.50254,-1.21326 -0.88192,-2.46389 -1.13812,-3.75187 C 240.12807,142.61381 239.99998,141.31322 240,140 c -2e-5,-1.31323 0.12807,-2.61385 0.38426,-3.90183 0.2562,-1.28797 0.63558,-2.5386 1.13812,-3.75186 0.50255,-1.21325 1.11863,-2.36583 1.84821,-3.45773 0.72958,-1.0919 1.55867,-2.10214 2.48726,-3.03072 0.92857,-0.92859 1.93881,-1.75768 3.03072,-2.48726 1.0919,-0.72959 2.24447,-1.34565 3.45774,-1.8482 1.21326,-0.50254 2.46389,-0.88191 3.75187,-1.13811 C 257.38617,120.1281 258.68677,120 260,120 c 1.3132,0 2.6138,0.1281 3.90179,0.38429 1.28797,0.25619 2.53858,0.63556 3.75184,1.1381 1.21325,0.50256 2.36584,1.11862 3.45773,1.84821 1.09192,0.72958 2.10217,1.55867 3.03076,2.48726 0.92856,0.92858 1.75766,1.93882 2.48724,3.03072 0.72959,1.0919 1.34565,2.24448 1.84821,3.45773 0.50253,1.21326 0.88193,2.46389 1.13812,3.75186 C 279.87189,137.38615 280,138.68677 280,140 Z"
       style="fill:none;stroke:#000000;stroke-width:1;stroke-linecap:butt;stroke-linejoin:miter;stroke-miterlimit:10;stroke-dasharray:none;stroke-opacity:1"
       transform="matrix(0.97125775,0,0,0.97125775,-120.29013,-114.57967)"
       clip-path="url(#clipPath10)" />
    <path
       id="path11"
       d="m 176.37,180 h 97.26"
       style="fill:none;stroke:#000000;stroke-width:1;stroke-linecap:butt;stroke-linejoin:miter;stroke-miterlimit:10;stroke-dasharray:none;stroke-opacity:1"
       transform="matrix(0.97125775,0,0,0.97125775,-120.29013,-114.57967)"
       clip-path="url(#clipPath12)" />
    <path
       id="path13"
       d="m 171.12,180 7,-3.5 -1.75,3.5 1.75,3.5 z"
       style="fill:#000000;fill-opacity:1;fill-rule:nonzero;stroke:#000000;stroke-width:1;stroke-linecap:butt;stroke-linejoin:miter;stroke-miterlimit:10;stroke-dasharray:none;stroke-opacity:1"
       transform="matrix(0.97125775,0,0,0.97125775,-120.29013,-114.57967)"
       clip-path="url(#clipPath14)" />
    <path
       id="path15"
       d="m 278.88,180 -7,3.5 1.75,-3.5 -1.75,-3.5 z"
       style="fill:#000000;fill-opacity:1;fill-rule:nonzero;stroke:#000000;stroke-width:1;stroke-linecap:butt;stroke-linejoin:miter;stroke-miterlimit:10;stroke-dasharray:none;stroke-opacity:1"
       transform="matrix(0.97125775,0,0,0.97125775,-120.29013,-114.57967)"
       clip-path="url(#clipPath16)" />
    <path
       id="path17"
       d="m 326.37,180 h 97.26"
       style="fill:none;stroke:#000000;stroke-width:1;stroke-linecap:butt;stroke-linejoin:miter;stroke-miterlimit:10;stroke-dasharray:none;stroke-opacity:1"
       transform="matrix(0.97125775,0,0,0.97125775,-120.29013,-114.57967)"
       clip-path="url(#clipPath18)" />
    <path
       id="path19"
       d="m 321.12,180 7,-3.5 -1.75,3.5 1.75,3.5 z"
       style="fill:#000000;fill-opacity:1;fill-rule:nonzero;stroke:#000000;stroke-width:1;stroke-linecap:butt;stroke-linejoin:miter;stroke-miterlimit:10;stroke-dasharray:none;stroke-opacity:1"
       transform="matrix(0.97125775,0,0,0.97125775,-120.29013,-114.57967)"
       clip-path="url(#clipPath20)" />
    <path
       id="path21"
       d="m 428.88,180 -7,3.5 1.75,-3.5 -1.75,-3.5 z"
       style="fill:#000000;fill-opacity:1;fill-rule:nonzero;stroke:#000000;stroke-width:1;stroke-linecap:butt;stroke-linejoin:miter;stroke-miterlimit:10;stroke-dasharray:none;stroke-opacity:1"
       transform="matrix(0.97125775,0,0,0.97125775,-120.29013,-114.57967)"
       clip-path="url(#clipPath22)" />
    <path
       id="path23"
       d="m 164.14,165.86 7.22,-7.22"
       style="fill:none;stroke:#000000;stroke-width:1;stroke-linecap:butt;stroke-linejoin:miter;stroke-miterlimit:10;stroke-dasharray:none;stroke-opacity:1"
       transform="matrix(0.97125775,0,0,0.97125775,-120.29013,-114.57967)"
       clip-path="url(#clipPath24)" />
    <path
       id="path25"
       d="M 175.07001,154.92999 172.59,162.36 l -1.23,-3.72 -3.72,-1.23 z"
       style="fill:#000000;fill-opacity:1;fill-rule:nonzero;stroke:#000000;stroke-width:1;stroke-linecap:butt;stroke-linejoin:miter;stroke-miterlimit:10;stroke-dasharray:none;stroke-opacity:1"
       transform="matrix(0.97125775,0,0,0.97125775,-120.29013,-114.57967)"
       clip-path="url(#clipPath26)" />
    <path
       id="path27"
       d="m 285.85999,165.86 -7.21998,-7.22"
       style="fill:none;stroke:#000000;stroke-width:1;stroke-linecap:butt;stroke-linejoin:miter;stroke-miterlimit:10;stroke-dasharray:none;stroke-opacity:1"
       transform="matrix(0.97125775,0,0,0.97125775,-120.29013,-114.57967)"
       clip-path="url(#clipPath28)" />
    <path
       id="path29"
       d="m 274.92999,154.92999 7.43,2.48001 -3.71998,1.23 -1.23001,3.72 z"
       style="fill:#000000;fill-opacity:1;fill-rule:nonzero;stroke:#000000;stroke-width:1;stroke-linecap:butt;stroke-linejoin:miter;stroke-miterlimit:10;stroke-dasharray:none;stroke-opacity:1"
       transform="matrix(0.97125775,0,0,0.97125775,-120.29013,-114.57967)"
       clip-path="url(#clipPath30)" />
    <path
       id="path31"
       d="m 216.37,140 h 17.26"
       style="fill:none;stroke:#000000;stroke-width:1;stroke-linecap:butt;stroke-linejoin:miter;stroke-miterlimit:10;stroke-dasharray:none;stroke-opacity:1"
       transform="matrix(0.97125775,0,0,0.97125775,-120.29013,-114.57967)"
       clip-path="url(#clipPath32)" />
    <path
       id="path33"
       d="m 211.12,140 7,-3.5 -1.75,3.5 1.75,3.5 z"
       style="fill:#000000;fill-opacity:1;fill-rule:nonzero;stroke:#000000;stroke-width:1;stroke-linecap:butt;stroke-linejoin:miter;stroke-miterlimit:10;stroke-dasharray:none;stroke-opacity:1"
       transform="matrix(0.97125775,0,0,0.97125775,-120.29013,-114.57967)"
       clip-path="url(#clipPath34)" />
    <path
       id="path35"
       d="m 238.88,140 -7,3.5 1.75,-3.5 -1.75,-3.5 z"
       style="fill:#000000;fill-opacity:1;fill-rule:nonzero;stroke:#000000;stroke-width:1;stroke-linecap:butt;stroke-linejoin:miter;stroke-miterlimit:10;stroke-dasharray:none;stroke-opacity:1"
       transform="matrix(0.97125775,0,0,0.97125775,-120.29013,-114.57967)"
       clip-path="url(#clipPath36)" />
    <path
       id="path37"
       d="m 430,140 c 0,1.31322 -0.12811,2.61381 -0.38431,3.90179 -0.25619,1.28798 -0.63559,2.53861 -1.13815,3.75187 -0.50253,1.21325 -1.11859,2.36582 -1.84818,3.45773 -0.72958,1.0919 -1.55868,2.10214 -2.48724,3.03073 -0.92859,0.92857 -1.93884,1.75766 -3.03076,2.48724 -1.09189,0.72959 -2.24448,1.34566 -3.45773,1.84821 -1.21326,0.50255 -2.46387,0.88191 -3.75184,1.13812 -1.28799,0.2562 -2.58859,0.38429 -3.90179,0.38431 -1.31326,-2e-5 -2.61389,-0.12811 -3.90189,-0.38431 -1.28796,-0.25621 -2.53857,-0.63557 -3.75186,-1.13812 -1.21325,-0.50255 -2.36584,-1.11862 -3.45776,-1.84821 -1.09189,-0.72958 -2.10211,-1.55867 -3.03067,-2.48724 -0.92859,-0.92859 -1.75769,-1.93883 -2.48731,-3.03073 -0.72958,-1.09191 -1.34564,-2.24448 -1.84817,-3.45773 -0.50253,-1.21326 -0.8819,-2.46389 -1.13809,-3.75187 C 390.12805,142.61381 389.99997,141.31322 390,140 c -3e-5,-1.31323 0.12805,-2.61385 0.38425,-3.90183 0.25619,-1.28797 0.63556,-2.5386 1.13809,-3.75186 0.50253,-1.21325 1.11859,-2.36583 1.84817,-3.45773 0.72962,-1.0919 1.55872,-2.10214 2.48731,-3.03072 0.92856,-0.92859 1.93881,-1.75768 3.0307,-2.48726 1.09189,-0.72959 2.24448,-1.34565 3.45773,-1.8482 1.21329,-0.50254 2.4639,-0.88191 3.75189,-1.13811 C 407.38614,120.1281 408.68674,120 410,120 c 1.3132,0 2.6138,0.1281 3.90179,0.38429 1.28797,0.25619 2.53858,0.63556 3.75184,1.1381 1.21325,0.50256 2.36584,1.11862 3.45773,1.84821 1.09192,0.72958 2.10217,1.55867 3.03076,2.48726 0.92856,0.92858 1.75766,1.93882 2.48724,3.03072 0.72959,1.0919 1.34565,2.24448 1.84818,3.45773 0.50256,1.21326 0.88196,2.46389 1.13815,3.75186 C 429.87189,137.38615 430,138.68677 430,140 Z"
       style="fill:none;stroke:#000000;stroke-width:1;stroke-linecap:butt;stroke-linejoin:miter;stroke-miterlimit:10;stroke-dasharray:none;stroke-opacity:1"
       transform="matrix(0.97125775,0,0,0.97125775,-120.29013,-114.57967)"
       clip-path="url(#clipPath38)" />
    <path
       id="path39"
       d="m 435.85999,165.86 -7.21998,-7.22"
       style="fill:none;stroke:#000000;stroke-width:1;stroke-linecap:butt;stroke-linejoin:miter;stroke-miterlimit:10;stroke-dasharray:none;stroke-opacity:1"
       transform="matrix(0.97125775,0,0,0.97125775,-120.29013,-114.57967)"
       clip-path="url(#clipPath40)" />
    <path
       id="path41"
       d="m 424.92999,154.92999 7.43,2.48001 -3.71998,1.23 -1.23001,3.72 z"
       style="fill:#000000;fill-opacity:1;fill-rule:nonzero;stroke:#000000;stroke-width:1;stroke-linecap:butt;stroke-linejoin:miter;stroke-miterlimit:10;stroke-dasharray:none;stroke-opacity:1"
       transform="matrix(0.97125775,0,0,0.97125775,-120.29013,-114.57967)"
       clip-path="url(#clipPath42)" />
    <path
       id="path43"
       d="m 360,140 c 0,1.31322 -0.12811,2.61381 -0.38431,3.90179 -0.25619,1.28798 -0.63556,2.53861 -1.13812,3.75187 -0.50256,1.21325 -1.11862,2.36582 -1.84821,3.45773 -0.72958,1.0919 -1.55868,2.10214 -2.48724,3.03073 -0.92859,0.92857 -1.93881,1.75766 -3.0307,2.48724 -1.09192,0.72959 -2.24451,1.34566 -3.45776,1.84821 -1.21326,0.50255 -2.46387,0.88191 -3.75187,1.13812 -1.28799,0.2562 -2.58859,0.38429 -3.90179,0.38431 -1.31323,-2e-5 -2.61386,-0.12811 -3.90186,-0.38431 -1.28799,-0.25621 -2.5386,-0.63557 -3.75186,-1.13812 -1.21322,-0.50255 -2.36581,-1.11862 -3.4577,-1.84821 -1.09189,-0.72958 -2.10214,-1.55867 -3.03073,-2.48724 -0.92859,-0.92859 -1.75769,-1.93883 -2.48731,-3.03073 -0.72958,-1.09191 -1.34567,-2.24448 -1.8482,-3.45773 -0.50253,-1.21326 -0.8819,-2.46389 -1.13809,-3.75187 C 320.12805,142.61381 319.99997,141.31322 320,140 c -3e-5,-1.31323 0.12805,-2.61385 0.38425,-3.90183 0.25619,-1.28797 0.63556,-2.5386 1.13809,-3.75186 0.50253,-1.21325 1.11862,-2.36583 1.8482,-3.45773 0.72962,-1.0919 1.55872,-2.10214 2.48731,-3.03072 0.92859,-0.92859 1.93884,-1.75768 3.03073,-2.48726 1.09189,-0.72959 2.24448,-1.34565 3.4577,-1.8482 1.21326,-0.50254 2.46387,-0.88191 3.75186,-1.13811 C 337.38614,120.1281 338.68677,120 340,120 c 1.3132,0 2.6138,0.1281 3.90179,0.38429 1.288,0.25619 2.53861,0.63556 3.75187,1.1381 1.21325,0.50256 2.36584,1.11862 3.45773,1.84821 1.09189,0.72958 2.10214,1.55867 3.03073,2.48726 0.92856,0.92858 1.75766,1.93882 2.48724,3.03072 0.72959,1.0919 1.34565,2.24448 1.84821,3.45773 0.50256,1.21326 0.88193,2.46389 1.13812,3.75186 C 359.87189,137.38615 360,138.68677 360,140 Z"
       style="fill:none;stroke:#000000;stroke-width:1;stroke-linecap:butt;stroke-linejoin:miter;stroke-miterlimit:10;stroke-dasharray:none;stroke-opacity:1"
       transform="matrix(0.97125775,0,0,0.97125775,-120.29013,-114.57967)"
       clip-path="url(#clipPath44)" />
    <path
       id="path45"
       d="m 314.14001,165.86 7.21998,-7.22"
       style="fill:none;stroke:#000000;stroke-width:1;stroke-linecap:butt;stroke-linejoin:miter;stroke-miterlimit:10;stroke-dasharray:none;stroke-opacity:1"
       transform="matrix(0.97125775,0,0,0.97125775,-120.29013,-114.57967)"
       clip-path="url(#clipPath46)" />
    <path
       id="path47"
       d="M 325.07001,154.92999 322.59,162.36 l -1.23001,-3.72 -3.71998,-1.23 z"
       style="fill:#000000;fill-opacity:1;fill-rule:nonzero;stroke:#000000;stroke-width:1;stroke-linecap:butt;stroke-linejoin:miter;stroke-miterlimit:10;stroke-dasharray:none;stroke-opacity:1"
       transform="matrix(0.97125775,0,0,0.97125775,-120.29013,-114.57967)"
       clip-path="url(#clipPath48)" />
    <path
       id="path49"
       d="m 366.37,140 h 17.26"
       style="fill:none;stroke:#000000;stroke-width:1;stroke-linecap:butt;stroke-linejoin:miter;stroke-miterlimit:10;stroke-dasharray:none;stroke-opacity:1"
       transform="matrix(0.97125775,0,0,0.97125775,-120.29013,-114.57967)"
       clip-path="url(#clipPath50)" />
    <path
       id="path51"
       d="m 361.12,140 7,-3.5 -1.75,3.5 1.75,3.5 z"
       style="fill:#000000;fill-opacity:1;fill-rule:nonzero;stroke:#000000;stroke-width:1;stroke-linecap:butt;stroke-linejoin:miter;stroke-miterlimit:10;stroke-dasharray:none;stroke-opacity:1"
       transform="matrix(0.97125775,0,0,0.97125775,-120.29013,-114.57967)"
       clip-path="url(#clipPath52)" />
    <path
       id="path53"
       d="m 388.88,140 -7,3.5 1.75,-3.5 -1.75,-3.5 z"
       style="fill:#000000;fill-opacity:1;fill-rule:nonzero;stroke:#000000;stroke-width:1;stroke-linecap:butt;stroke-linejoin:miter;stroke-miterlimit:10;stroke-dasharray:none;stroke-opacity:1"
       transform="matrix(0.97125775,0,0,0.97125775,-120.29013,-114.57967)"
       clip-path="url(#clipPath54)" />
  </g>
</svg>
