<?xml version="1.0" encoding="UTF-8" standalone="no"?>
<!-- Created with Inkscape (http://www.inkscape.org/) -->

<svg
   version="1.1"
   id="svg1"
   width="614.40002"
   height="460.79999"
   viewBox="0 0 614.40002 460.79999"
   sodipodi:docname="single_pendulum.pdf"
   xmlns:inkscape="http://www.inkscape.org/namespaces/inkscape"
   xmlns:sodipodi="http://sodipodi.sourceforge.net/DTD/sodipodi-0.dtd"
   xmlns="http://www.w3.org/2000/svg"
   xmlns:svg="http://www.w3.org/2000/svg">
  <defs
     id="defs1">
    <clipPath
       clipPathUnits="userSpaceOnUse"
       id="clipPath4">
      <path
         d="M 57.6,38.016 H 414.72 V 304.128 H 57.6 Z"
         id="path4" />
    </clipPath>
    <clipPath
       clipPathUnits="userSpaceOnUse"
       id="clipPath6">
      <path
         d="M 57.6,38.016 H 414.72 V 304.128 H 57.6 Z"
         id="path6" />
    </clipPath>
    <clipPath
       clipPathUnits="userSpaceOnUse"
       id="clipPath20">
      <path
         d="M -1016,-351 H 1660 V 1068 H -1016 Z"
         transform="translate(2.5000006e-4,2.5000006e-5)"
         id="path20" />
    </clipPath>
    <clipPath
       clipPathUnits="userSpaceOnUse"
       id="clipPath23">
      <path
         d="M 57.6,38.016 H 414.72 V 304.128 H 57.6 Z"
         id="path23" />
    </clipPath>
    <clipPath
       clipPathUnits="userSpaceOnUse"
       id="clipPath25">
      <path
         d="M 57.6,38.016 H 414.72 V 304.128 H 57.6 Z"
         id="path25" />
    </clipPath>
    <clipPath
       clipPathUnits="userSpaceOnUse"
       id="clipPath27">
      <path
         d="M 57.6,38.016 H 414.72 V 304.128 H 57.6 Z"
         id="path27" />
    </clipPath>
    <clipPath
       clipPathUnits="userSpaceOnUse"
       id="clipPath29">
      <path
         d="M 57.6,38.016 H 414.72 V 304.128 H 57.6 Z"
         id="path29" />
    </clipPath>
    <clipPath
       clipPathUnits="userSpaceOnUse"
       id="clipPath31">
      <path
         d="M 57.6,38.016 H 414.72 V 304.128 H 57.6 Z"
         id="path31" />
    </clipPath>
  </defs>
  <sodipodi:namedview
     id="namedview1"
     pagecolor="#ffffff"
     bordercolor="#000000"
     borderopacity="0.25"
     inkscape:showpageshadow="2"
     inkscape:pageopacity="0.0"
     inkscape:pagecheckerboard="0"
     inkscape:deskcolor="#d1d1d1">
    <inkscape:page
       x="0"
       y="0"
       inkscape:label="1"
       id="page1"
       width="614.40002"
       height="460.79999"
       margin="0"
       bleed="0" />
  </sodipodi:namedview>
  <g
     id="g1"
     inkscape:groupmode="layer"
     inkscape:label="1">
    <path
       id="path1"
       d="M 0,0 H 460.8 V 345.6 H 0 Z"
       style="fill:#ffffff;fill-opacity:1;fill-rule:nonzero;stroke:none"
       transform="matrix(1.3333333,0,0,-1.3333333,0,460.8)" />
    <path
       id="path2"
       d="M 57.6,38.016 H 414.72 V 304.128 H 57.6 Z"
       style="fill:#ffffff;fill-opacity:1;fill-rule:nonzero;stroke:none"
       transform="matrix(1.3333333,0,0,-1.3333333,0,460.8)" />
    <path
       id="path3"
       d="m 73.832727,290.97399 v -35.87305 l 0.324655,-2.6e-4 0.324654,-8.4e-4 0.324655,-0.001 0.324655,-0.002 0.324654,-0.002 0.324655,-0.003 0.324654,-0.004 0.324655,-0.004 0.324654,-0.005 0.324655,-0.005 0.324655,-0.006 0.324654,-0.006 0.324655,-0.007 0.324654,-0.007 0.324655,-0.008 0.324654,-0.008 0.324655,-0.009 0.324654,-0.009 0.324655,-0.01 0.324655,-0.0103 0.324654,-0.0108 0.324655,-0.0113 0.324654,-0.0118 0.324655,-0.0123 0.324655,-0.0128 0.324654,-0.0132 0.324655,-0.0137 0.324654,-0.0142 0.324655,-0.0147 0.324655,-0.0152 0.324654,-0.0157 0.324654,-0.0162 0.324654,-0.0166 0.324654,-0.017 0.324654,-0.0176 0.324654,-0.018 0.324654,-0.0184 0.324654,-0.0189 0.324654,-0.0194 0.324654,-0.0199 0.324654,-0.0203 0.324654,-0.0207 0.324654,-0.0212 0.324654,-0.0216 0.324654,-0.0221 0.324654,-0.0225 0.324654,-0.023 0.324654,-0.0234 0.324654,-0.0239 0.324654,-0.0243 0.324654,-0.0247 0.324654,-0.0251 0.324654,-0.0256 0.324654,-0.026 0.324654,-0.0264 0.324654,-0.0269 0.324654,-0.0273 0.324654,-0.0277 0.324654,-0.0281 0.324654,-0.0285 0.324654,-0.029 0.324654,-0.0293 0.324654,-0.0298 0.324655,-0.0301 0.324655,-0.0306 0.324656,-0.031 0.324655,-0.0314 0.324655,-0.0318 0.324655,-0.0322 0.324655,-0.0326 0.324656,-0.0329 0.324655,-0.0333 0.324655,-0.0337 0.324655,-0.0341 0.324655,-0.0345 0.324656,-0.0349 0.324655,-0.0352 0.324655,-0.0356 0.324655,-0.036 0.324655,-0.0364 0.324655,-0.0367 0.32466,-0.0371 0.32465,-0.0375 0.32466,-0.0378 0.32465,-0.0382 0.32466,-0.0386 0.32465,-0.0389 0.32466,-0.0393 0.32465,-0.0397 0.32466,-0.04 0.32465,-0.0404 0.32466,-0.0408 0.32465,-0.0411 0.32466,-0.0415 0.32465,-0.0419 0.32466,-0.0423 0.32465,-0.0427 0.32466,-0.0431 0.32465,-0.0435 0.32466,-0.0438 0.32465,-0.0442 0.32466,-0.0446 0.32465,-0.045 0.32466,-0.0454 0.32466,-0.0457 0.32465,-0.0461 0.32466,-0.0464 0.32465,-0.0468 0.32466,-0.0472 0.32465,-0.0475 0.32466,-0.0478 0.32465,-0.0482 0.32466,-0.0485 0.32465,-0.0489 0.32466,-0.0493 0.32465,-0.0496 0.32466,-0.05 0.32465,-0.0503 0.32466,-0.0507 0.32465,-0.051 0.32466,-0.0513 0.32465,-0.0517 0.32466,-0.052 0.32465,-0.0523 0.32466,-0.0527 0.32466,-0.053 0.32465,-0.0533 0.32465,-0.0537 0.32466,-0.054 0.32466,-0.0543 0.32465,-0.0546 0.32466,-0.0549 0.32465,-0.0552 0.32466,-0.0555 0.32465,-0.0559 0.32466,-0.0561 0.32465,-0.0564 0.32466,-0.0567 0.32465,-0.057 0.32466,-0.0573 0.32465,-0.0575 0.32466,-0.0578 0.32465,-0.0581 0.32466,-0.0583 0.32465,-0.0586 0.32466,-0.0588 0.32465,-0.059 0.32466,-0.0593 0.32466,-0.0595 0.32465,-0.0598 0.32465,-0.06 0.32466,-0.0602 0.32466,-0.0604 0.32465,-0.0606 0.32466,-0.0608 0.32465,-0.061 0.32466,-0.0612 0.32465,-0.0614 0.32466,-0.0616 0.32465,-0.0618 0.32466,-0.062 0.32465,-0.0621 0.32466,-0.0623 0.32465,-0.0626 0.32466,-0.0628 0.32465,-0.0631 0.32466,-0.0633 0.32465,-0.0635 0.32466,-0.0638 0.32465,-0.064 0.32466,-0.0642 0.32465,-0.0645 0.32466,-0.0647 0.32465,-0.0649 0.32466,-0.0652 0.32465,-0.0653 0.32466,-0.0656 0.32465,-0.0658 0.32466,-0.066 0.32466,-0.0662 0.32465,-0.0664 0.32466,-0.0667 0.32465,-0.0669 0.32466,-0.0671 0.32465,-0.0673 0.32466,-0.0675 0.32465,-0.0678 0.32466,-0.068 0.32465,-0.0683 0.32466,-0.0685 0.32465,-0.0688 0.32466,-0.069 0.32465,-0.0692 0.32466,-0.0694 0.32465,-0.0696 0.32466,-0.0698 0.32465,-0.07 0.32466,-0.0703 0.32465,-0.0705 0.32466,-0.0707 0.32465,-0.0709 0.32466,-0.0712 0.32466,-0.0714 0.32465,-0.0716 0.32466,-0.0718 0.32465,-0.072 0.32466,-0.0722 0.32465,-0.0724 0.32466,-0.0726 0.32465,-0.0728 0.32466,-0.0731 0.32465,-0.0733 0.32466,-0.0735 0.32465,-0.0737 0.32466,-0.0739 0.32465,-0.0741 0.32466,-0.0743 0.32465,-0.0745 0.32466,-0.0747 0.32465,-0.0749 0.32466,-0.0751 0.32465,-0.0753 0.32466,-0.0755 0.32466,-0.0757 0.32465,-0.0759 0.32465,-0.0761 0.32466,-0.0763 0.32466,-0.0765 0.32465,-0.0767 0.32466,-0.0769 0.32465,-0.0771 0.32466,-0.0773 0.32465,-0.0775 0.32466,-0.0778 0.32465,-0.078 0.32466,-0.0782 0.32465,-0.0784 0.32466,-0.0786 0.32465,-0.0788 0.32466,-0.079 0.32465,-0.0792 0.32466,-0.0794 0.32465,-0.0796 0.32466,-0.0798 0.32465,-0.08 0.32466,-0.0802 0.32465,-0.0804 0.32466,-0.0805 0.32465,-0.0807 0.32466,-0.0809 0.32465,-0.0811 0.32465,-0.0813 0.32465,-0.0815 0.32465,-0.0817 0.32465,-0.0818 0.32465,-0.082 0.32465,-0.0822 0.32465,-0.0824 0.32465,-0.0825 0.32465,-0.0827 0.32465,-0.0829 0.32465,-0.0831 0.32465,-0.0832 0.32465,-0.0834 0.32466,-0.0836 0.32465,-0.0837 0.32465,-0.0839 0.32465,-0.084 0.32465,-0.0842 0.32465,-0.0844 0.32465,-0.0845 0.32465,-0.0847 0.32465,-0.0849 0.32465,-0.085 0.32465,-0.0852 0.32465,-0.0853 0.32465,-0.0855 0.32465,-0.0856 0.32465,-0.0857 0.32465,-0.0859 0.32465,-0.086 0.32465,-0.0862 0.32465,-0.0863 0.32465,-0.0865 0.32465,-0.0866 0.32465,-0.0867 0.32465,-0.0869 0.32465,-0.087 0.32465,-0.0872 0.32466,-0.0873 0.32465,-0.0874 0.32464,-0.0875 0.32466,-0.0877 0.32465,-0.0878 0.32465,-0.0879 0.32465,-0.088 0.32465,-0.0881 0.32465,-0.0883 0.32465,-0.0884 0.32465,-0.0885 0.32465,-0.0886 0.32465,-0.0888 0.32465,-0.0888 0.32465,-0.089 0.32465,-0.0891 0.32465,-0.0892 0.32465,-0.0893 0.32465,-0.0894 0.32465,-0.0896 0.32465,-0.0897 0.32465,-0.0898 0.32465,-0.09 0.32465,-0.0901 0.32465,-0.0902 0.32465,-0.0903 0.32465,-0.0905 0.32465,-0.0906 0.32465,-0.0907 0.32466,-0.0909 0.32465,-0.091 0.32465,-0.0911 0.32465,-0.0913 0.32465,-0.0914 0.32465,-0.0915 0.32465,-0.0916 0.32465,-0.0917 0.32465,-0.0918 0.32465,-0.0919 0.32465,-0.0921 0.32465,-0.0922 0.32465,-0.0923 0.32465,-0.0924 0.32465,-0.0925 0.32465,-0.0927 0.32465,-0.0928 0.32465,-0.0929 0.32465,-0.093 0.32465,-0.0932 0.32465,-0.0932 0.32465,-0.0934 0.32465,-0.0935 0.32465,-0.0936 0.32465,-0.0937 0.32465,-0.0938 0.32465,-0.0939 0.32465,-0.094 0.32466,-0.0942 0.32465,-0.0943 0.32465,-0.0944 0.32465,-0.0945 0.32465,-0.0946 0.32465,-0.0947 0.32465,-0.0948 0.32465,-0.0949 0.32465,-0.095 0.32465,-0.0951 0.32465,-0.0952 0.32465,-0.0953 0.32465,-0.0954 0.32465,-0.0955 0.32465,-0.0956 0.32465,-0.0957 0.32465,-0.0958 0.32465,-0.0959 0.32465,-0.096 0.32465,-0.0961 0.32465,-0.0962 0.32465,-0.0963 0.32465,-0.0964 0.32465,-0.0965 0.32465,-0.0966 0.32465,-0.0967 0.32466,-0.0968 0.32464,-0.0969 0.32466,-0.097 0.32465,-0.097 0.32465,-0.0971 0.32465,-0.0972 0.32465,-0.0973 0.32465,-0.0974 0.32465,-0.0975 0.32465,-0.0976 0.32465,-0.0977 0.32465,-0.0977 0.32465,-0.0979 0.32465,-0.0979 0.32465,-0.098 0.32465,-0.0981 0.32465,-0.0982 0.32465,-0.0983 0.32465,-0.0984 0.32465,-0.0985 0.32465,-0.0985 0.32465,-0.0986 0.32465,-0.0987 0.32465,-0.0988 0.32465,-0.0989 0.32465,-0.099 0.32465,-0.099 0.32465,-0.0991 0.32465,-0.0992 0.32466,-0.0993 0.32465,-0.0993 0.32465,-0.0994 0.32465,-0.0995 0.32465,-0.0996 0.32465,-0.0997 0.32465,-0.0997 0.32465,-0.0998 0.32465,-0.0999 0.32465,-0.0999 0.32465,-0.10005 0.32465,-0.10013 0.32465,-0.10016 0.32465,-0.10026 0.32465,-0.10034 0.32465,-0.10039 0.32465,-0.10047 0.32465,-0.10057 0.32465,-0.10061 0.32465,-0.1007 0.32465,-0.10075 0.32465,-0.10084 0.32465,-0.10091 0.32465,-0.10094 0.32465,-0.10105 0.32465,-0.10112 0.32465,-0.10115 0.32466,-0.10125 0.32465,-0.10129 0.32465,-0.10138 0.32465,-0.10142 0.32465,-0.1015 0.32465,-0.10157 0.32465,-0.10163 0.32465,-0.1017 0.32465,-0.10175 0.32465,-0.10182 0.32465,-0.10188 0.32465,-0.10194 0.32465,-0.102 0.32465,-0.10208 0.32465,-0.10212 0.32465,-0.10221 0.32465,-0.10229 0.32465,-0.10237 0.32465,-0.10245 0.32465,-0.10255 0.32465,-0.1026 0.32465,-0.10269 0.32465,-0.10278 0.32465,-0.10286 0.32465,-0.10293 0.32465,-0.10302 0.32465,-0.10308 0.32465,-0.10317 0.32466,-0.10323 0.32465,-0.10332 0.32465,-0.10338 0.32465,-0.10346 0.32465,-0.10353 0.32465,-0.10357 0.32465,-0.10368 0.32465,-0.10372 0.32465,-0.10379 0.32465,-0.10386 0.32465,-0.10393 0.32465,-0.104 0.32465,-0.10407 0.32465,-0.10413 0.32465,-0.10417 0.32465,-0.10425 0.32465,-0.10432 0.32465,-0.10439 0.32465,-0.10447 0.32465,-0.10466 0.32465,-0.10483 0.32465,-0.10502 0.32465,-0.10521 0.32465,-0.10537 0.32465,-0.10555 0.32465,-0.10574 0.32465,-0.10593 0.32466,-0.10612 0.32465,-0.1063 0.32465,-0.10648 0.32465,-0.10665 0.32465,-0.10685 0.32465,-0.10701 0.32465,-0.10718 0.32465,-0.10734 0.32465,-0.10749 0.32465,-0.10765 0.32465,-0.10781 0.32465,-0.10797 0.32465,-0.1081 0.32465,-0.10825 0.32465,-0.1084 0.32465,-0.10853 0.32465,-0.10867 0.32466,-0.10881 0.32465,-0.10892 0.32465,-0.10906 0.32465,-0.10917 0.32465,-0.10927 0.32465,-0.1094 0.32465,-0.1095 0.32465,-0.1096 0.32465,-0.1097 0.32465,-0.10982 0.32465,-0.10992 0.32466,-0.10999 0.32465,-0.1101 0.32465,-0.11017 0.32465,-0.11027 0.32465,-0.11032 0.32465,-0.11041 0.32465,-0.11048 0.32465,-0.11054 0.32465,-0.11061 0.32465,-0.11068 0.32465,-0.11074 0.32465,-0.11079 0.32465,-0.11083 0.32465,-0.1109 0.32465,-0.11093 0.32465,-0.111 0.32465,-0.111 0.32465,-0.11105 0.32465,-0.11109 0.32465,-0.11114 0.32465,-0.11115 0.32465,-0.1112 0.32465,-0.11121 0.32465,-0.11121 0.32465,-0.11122 0.32465,-0.11122 0.32465,-0.11124 0.32466,-0.11125 0.32465,-0.11124 0.32465,-0.11124 0.32465,-0.11123 0.32465,-0.11124 0.32465,-0.11124 0.32465,-0.11121 0.32465,-0.11117 0.32465,-0.11116 0.32465,-0.11116 0.32465,-0.11111 0.32465,-0.11108 0.32465,-0.11106 0.32465,-0.111 0.32465,-0.11098 0.32465,-0.11093 0.32465,-0.11088 0.32465,-0.11082 0.32465,-0.11076 0.32465,-0.11072 0.32465,-0.11067 0.32465,-0.11059 0.32465,-0.11054 0.32465,-0.11045 0.32465,-0.11038 0.32465,-0.11032 0.32465,-0.11024 0.32465,-0.11014 0.32466,-0.11007 0.32465,-0.10997 0.32465,-0.10991 0.32465,-0.10983 0.32465,-0.10977 0.32465,-0.1097 0.32465,-0.10964 0.32465,-0.1096 0.32465,-0.10951 0.32465,-0.10947 0.32465,-0.10941 0.32465,-0.10934 0.32465,-0.10928 0.32465,-0.10922 0.32465,-0.10913 0.32465,-0.10906 0.32465,-0.10899 0.32465,-0.1089 0.32465,-0.10882 0.32465,-0.10874 0.32465,-0.10863 0.32465,-0.10856 0.32465,-0.10848 0.32465,-0.10836 0.32465,-0.10828 0.32465,-0.10817 0.32465,-0.10806 0.32466,-0.10802 0.32465,-0.10803 0.32465,-0.10802 0.32465,-0.10804 0.32465,-0.10805 0.32465,-0.10805 0.32465,-0.10806 0.32465,-0.10809 0.32465,-0.10809 0.32465,-0.10808 0.32465,-0.1081 0.32465,-0.10808 0.32465,-0.10811 0.32465,-0.10811 0.32465,-0.1081 0.32465,-0.10811 0.32465,-0.10811 0.32465,-0.10809 0.32465,-0.10811 0.32465,-0.10809 0.32465,-0.10809 0.32465,-0.10808 0.32465,-0.10807 0.32465,-0.10809 0.32465,-0.10808 0.32465,-0.10811 0.32465,-0.10809 0.32465,-0.10813 0.32466,-0.10815 0.32465,-0.10816 0.32465,-0.10816 0.32465,-0.10818 0.32465,-0.1082 0.32465,-0.10819 0.32465,-0.10821 0.32465,-0.10823 0.32465,-0.10824 0.32465,-0.10824 0.32465,-0.10824 0.32465,-0.10827 0.32465,-0.10828 0.32465,-0.10827 0.32465,-0.10828 0.32465,-0.10829 0.32465,-0.10831 0.32465,-0.10831 0.32465,-0.10832 0.32465,-0.10831 0.32465,-0.10833 0.32465,-0.10833 0.32465,-0.10832 0.32465,-0.10836 0.32465,-0.10835 0.32465,-0.10833 0.32465,-0.10835 0.32466,-0.10836 0.32465,-0.10835 0.32465,-0.10837 0.32465,-0.10835 0.32465,-0.10835 0.32465,-0.10835 0.32465,-0.10838 0.32465,-0.10836 0.32465,-0.10837 0.32465,-0.10836 0.32465,-0.10836 0.32465,-0.10836 0.32465,-0.10835 0.32465,-0.10835 0.32465,-0.10835 0.32465,-0.10835 0.32465,-0.10834 0.32465,-0.10833 0.32465,-0.10834 0.32465,-0.10832 0.32465,-0.10833 0.32465,-0.10832 0.32465,-0.1083 0.32465,-0.10831 0.32465,-0.10831 0.32465,-0.10829 0.32466,-0.10829 0.32465,-0.10828 0.32465,-0.10827 0.32465,-0.10825 0.32465,-0.10827 0.32465,-0.10824 0.32465,-0.10823 0.32465,-0.10824 0.32465,-0.10821 0.32465,-0.1082 0.32465,-0.10819 0.32465,-0.10819 0.32465,-0.10819 0.32465,-0.10815 0.32465,-0.10817 0.32465,-0.10814 0.32465,-0.10811 0.32465,-0.10812 0.32465,-0.1081 0.32465,-0.10808 0.32465,-0.10807 0.32465,-0.10805 0.32465,-0.10803 0.32465,-0.10801 0.32465,-0.10803 0.32465,-0.10798 0.32465,-0.10799 0.32465,-0.10794 0.32465,-0.10797 0.32466,-0.10792 0.32465,-0.10792 0.32465,-0.10789 0.32465,-0.10788 0.32465,-0.10785 0.32465,-0.10784 0.32465,-0.10784 0.32465,-0.10778 0.32465,-0.10779 0.32465,-0.10778 0.32465,-0.10774 0.32465,-0.10774 0.32465,-0.10771 0.32465,-0.10768 0.32465,-0.10767 0.32465,-0.10763 0.32465,-0.10763 0.32465,-0.10759 0.32465,-0.1076 0.32465,-0.10755 0.32465,-0.10752 0.32465,-0.10751 0.32465,-0.10749 0.32465,-0.10746 0.32465,-0.10743 0.32465,-0.10743 0.32465,-0.10738 0.32466,-0.10737 0.32465,-0.10735 0.32465,-0.10731 0.32465,-0.1073 0.32465,-0.10728 0.32465,-0.10725 0.32465,-0.1072 0.32465,-0.10717 0.32465,-0.10716 0.32465,-0.10715 0.32465,-0.1071 0.32465,-0.10708 0.32465,-0.10704 0.32465,-0.10703 0.32465,-0.10698 0.32465,-0.10696 0.32465,-0.10692 0.32465,-0.1069 0.32465,-0.10687 0.32465,-0.10683 0.32465,-0.10681 0.32465,-0.10679 0.32465,-0.10675 0.32465,-0.10673 0.32465,-0.10667 0.32465,-0.10667 0.32465,-0.10663 0.32465,-0.1066 0.32466,-0.10656 0.32465,-0.10653 0.32465,-0.1065 0.32465,-0.10644 0.32465,-0.10642 0.32465,-0.10639 0.32465,-0.10635 0.32465,-0.10631 0.32465,-0.10627 0.32465,-0.10625 0.32465,-0.10621 0.32465,-0.10619 0.32465,-0.10616 0.32465,-0.1061 0.32465,-0.10607 0.32465,-0.10603 0.32465,-0.106 0.32465,-0.10599 0.32465,-0.10592 0.32465,-0.10589 0.32465,-0.10585 0.32465,-0.10581 0.32465,-0.1058 0.32465,-0.10573 0.32465,-0.10572 0.32466,-0.10566 0.32465,-0.10562 0.32465,-0.10557 0.32465,-0.10555 0.32465,-0.10549 0.32465,-0.10547 0.32465,-0.10542 0.32465,-0.10538 0.32465,-0.10533 0.32465,-0.10532 0.32465,-0.1053 0.32465,-0.10527 0.32465,-0.10524 0.32465,-0.10522 0.32465,-0.10522 0.32465,-0.10516 0.32465,-0.10515 0.32465,-0.10513 0.32465,-0.1051 0.32465,-0.10508 0.32465,-0.10505 0.32465,-0.10504 0.32465,-0.10499 0.32465,-0.10498 0.32465,-0.10494 0.32465,-0.10491 0.32466,-0.10489 0.32464,-0.10487 0.32466,-0.10485 0.32465,-0.10482 0.32465,-0.10478 0.32465,-0.10478 0.32465,-0.10473 0.32465,-0.10471 0.32465,-0.10469 0.32465,-0.10466 0.32465,-0.10464 0.32465,-0.10461 0.32465,-0.10458 0.32465,-0.10456 0.32465,-0.10454 0.32465,-0.1045 0.32465,-0.10448 0.32465,-0.10446 0.32465,-0.10443 0.32465,-0.10439 0.32465,-0.10436 0.32465,-0.10435 0.32465,-0.10432 0.32465,-0.10427 0.32465,-0.10427 0.32465,-0.10424 0.32465,-0.10422 0.32465,-0.10417 0.32465,-0.10416 0.32465,-0.10414 0.32465,-0.1041 0.32466,-0.10406 0.32465,-0.10403 0.32465,-0.10401 0.32465,-0.10399 0.32465,-0.10394 0.32465,-0.10391 0.32465,-0.10389 0.32465,-0.10384 0.32465,-0.10384 0.32465,-0.1038 0.32465,-0.10378 0.32465,-0.10375 0.32465,-0.10372 0.32465,-0.10369 0.32465,-0.10367 0.32465,-0.10362 0.32465,-0.10359 0.32465,-0.10358 0.32465,-0.10354 0.32465,-0.10352 0.32465,-0.10347 0.32465,-0.10344 0.32465,-0.10343 0.32465,-0.1034 0.32465,-0.10336 0.32465,-0.10332 0.32465,-0.10329 0.32466,-0.10327 0.32465,-0.10324 0.32465,-0.1032 0.32465,-0.10317 0.32465,-0.10313 0.32465,-0.10311 0.32465,-0.10308 0.32465,-0.10305 0.32465,-0.10303 0.32465,-0.10299 0.32465,-0.10298 0.32465,-0.10293 0.32465,-0.10287 0.32465,-0.10286 0.32465,-0.10281 0.32465,-0.1028 0.32465,-0.10275 0.32465,-0.10272 0.32465,-0.1027 0.32465,-0.10267 0.32465,-0.10261 0.32465,-0.1026 0.32465,-0.10258 0.32465,-0.10253 0.32465,-0.10251 0.32465,-0.10247 0.32465,-0.10242 0.32466,-0.10243 0.32465,-0.10241 0.32465,-0.10248 0.32465,-0.10251 0.32465,-0.10256 0.32465,-0.1026 0.32465,-0.10263 0.32465,-0.10268 0.32465,-0.10271 0.32465,-0.10277 0.32465,-0.10278 0.32465,-0.10283 0.32465,-0.10286 0.32465,-0.10289 0.32465,-0.10293 0.32465,-0.10295 0.32465,-0.10298 0.32465,-0.103 0.32465,-0.10305 0.32465,-0.10306 0.32465,-0.10311 0.32465,-0.10313 0.32465,-0.10315 0.32465,-0.1032 0.32465,-0.1032 0.32465,-0.10324 0.32465,-0.10328 0.32465,-0.10327 0.32466,-0.10331 0.32465,-0.10335 0.32465,-0.10334 0.32465,-0.10338 0.32465,-0.10339 0.32465,-0.1034 0.32465,-0.10344 0.32465,-0.10347 0.32465,-0.10346 0.32465,-0.10349 0.32465,-0.1035 0.32465,-0.10351 0.32465,-0.10355 0.32465,-0.10353 0.32465,-0.10355 0.32465,-0.10357 0.32465,-0.10358 0.32465,-0.10357 0.32465,-0.10358 0.32465,-0.1036 0.32465,-0.10358 0.32465,-0.10361 0.32465,-0.10362 0.32465,-0.10361 0.32465,-0.10363 0.32466,-0.10363 0.32464,-0.10362 0.32466,-0.10363 0.32465,-0.10364 0.32465,-0.10364 0.32465,-0.10364 0.32465,-0.10364 0.32465,-0.10362 0.32465,-0.10364 0.32465,-0.10363 0.32465,-0.10361 0.32465,-0.10362 0.32465,-0.10358 0.32465,-0.10361 0.32465,-0.10361 0.32465,-0.10358 0.32465,-0.1036 0.32465,-0.10356 0.32465,-0.10356 0.32465,-0.10355 0.32465,-0.10354 0.32465,-0.10353 0.32465,-0.10349 0.32465,-0.1035 0.32465,-0.10346 0.32465,-0.10348 0.32465,-0.10344 0.32465,-0.10343 0.32466,-0.10342 0.32465,-0.10339 0.32465,-0.1034 0.32465,-0.10335 0.32465,-0.10333 0.32465,-0.10332 0.32465,-0.1033 0.32465,-0.10326 0.32465,-0.10325 0.32465,-0.10324 0.32465,-0.1032 0.32465,-0.10317 0.32465,-0.10317 0.32465,-0.1031 0.32465,-0.10308 0.32465,-0.10308 0.32465,-0.10303 0.32465,-0.103 0.32465,-0.10298 0.32465,-0.10294 0.32465,-0.10291 0.32465,-0.10286 0.32465,-0.10284 0.32465,-0.10279 0.32465,-0.10278 0.003,-9.5e-4 v 37.69457 0 l -0.003,9.1e-4 -0.32465,0.0983 -0.32465,0.0983 -0.32465,0.0984 -0.32465,0.0984 -0.32465,0.0985 -0.32465,0.0986 -0.32465,0.0986 -0.32465,0.0987 -0.32465,0.0988 -0.32465,0.0988 -0.32465,0.0989 -0.32465,0.0989 -0.32465,0.0991 -0.32465,0.0991 -0.32465,0.0992 -0.32465,0.0992 -0.32465,0.0993 -0.32465,0.0994 -0.32465,0.0994 -0.32465,0.0995 -0.32465,0.0996 -0.32465,0.0996 -0.32465,0.0997 -0.32465,0.0998 -0.32466,0.0999 -0.32465,0.1 -0.32465,0.10002 -0.32465,0.1001 -0.32465,0.10018 -0.32465,0.10025 -0.32465,0.10033 -0.32465,0.10039 -0.32465,0.1005 -0.32465,0.10058 -0.32465,0.10064 -0.32465,0.10073 -0.32465,0.10083 -0.32465,0.10088 -0.32465,0.101 -0.32465,0.10106 -0.32465,0.10113 -0.32465,0.10123 -0.32465,0.1013 -0.32465,0.1014 -0.32465,0.10148 -0.32465,0.10156 -0.32465,0.10166 -0.32465,0.10174 -0.32465,0.10184 -0.32465,0.10192 -0.32466,0.10201 -0.32464,0.10209 -0.32466,0.10218 -0.32465,0.10229 -0.32465,0.10235 -0.32465,0.10245 -0.32465,0.10258 -0.32465,0.10262 -0.32465,0.10273 -0.32465,0.10283 -0.32465,0.10292 -0.32465,0.10304 -0.32465,0.10314 -0.32465,0.1032 -0.32465,0.10332 -0.32465,0.10343 -0.32465,0.10351 -0.32465,0.10361 -0.32465,0.10374 -0.32465,0.1038 -0.32465,0.10393 -0.32465,0.10403 -0.32465,0.1041 -0.32465,0.10422 -0.32465,0.10432 -0.32465,0.10442 -0.32465,0.10454 -0.32466,0.10464 -0.32465,0.10473 -0.32465,0.10485 -0.32465,0.10494 -0.32465,0.10505 -0.32465,0.10518 -0.32465,0.10527 -0.32465,0.1054 -0.32465,0.10549 -0.32465,0.10559 -0.32465,0.10572 -0.32465,0.10581 -0.32465,0.10594 -0.32465,0.10604 -0.32465,0.10618 -0.32465,0.10628 -0.32465,0.1064 -0.32465,0.10653 -0.32465,0.10662 -0.32465,0.10676 -0.32465,0.10686 -0.32465,0.107 -0.32465,0.1071 -0.32465,0.10722 -0.32465,0.10736 -0.32465,0.10746 -0.32465,0.10758 -0.32465,0.1077 -0.32466,0.10781 -0.32465,0.10784 -0.32465,0.10789 -0.32465,0.10793 -0.32465,0.10797 -0.32465,0.10804 -0.32465,0.10807 -0.32465,0.1081 -0.32465,0.10815 -0.32465,0.10821 -0.32465,0.10824 -0.32465,0.10829 -0.32465,0.10833 -0.32465,0.10837 -0.32465,0.10843 -0.32465,0.10845 -0.32465,0.10852 -0.32465,0.10857 -0.32465,0.10861 -0.32465,0.10865 -0.32465,0.10869 -0.32465,0.10873 -0.32465,0.10877 -0.32465,0.1088 -0.32465,0.10885 -0.32465,0.10889 -0.32465,0.10895 -0.32466,0.109 -0.32465,0.10902 -0.32465,0.10907 -0.32465,0.10909 -0.32465,0.10918 -0.32465,0.10919 -0.32465,0.10923 -0.32465,0.10928 -0.32465,0.10932 -0.32465,0.10937 -0.32465,0.10941 -0.32465,0.10943 -0.32465,0.10947 -0.32465,0.10953 -0.32465,0.10957 -0.32465,0.1096 -0.32465,0.10965 -0.32465,0.10969 -0.32465,0.10974 -0.32465,0.10975 -0.32465,0.1098 -0.32465,0.10984 -0.32465,0.10988 -0.32465,0.10992 -0.32465,0.10997 -0.32465,0.11001 -0.32465,0.11004 -0.32466,0.11009 -0.32465,0.11012 -0.32465,0.11019 -0.32465,0.11019 -0.32465,0.11024 -0.32465,0.11029 -0.32465,0.11032 -0.32465,0.11036 -0.32465,0.11036 -0.32465,0.11044 -0.32465,0.11048 -0.32465,0.11049 -0.32465,0.11054 -0.32465,0.11058 -0.32465,0.11062 -0.32465,0.11065 -0.32465,0.11069 -0.32465,0.11073 -0.32465,0.11076 -0.32465,0.11079 -0.32465,0.11084 -0.32465,0.11088 -0.32465,0.1109 -0.32465,0.11093 -0.32465,0.11098 -0.32465,0.111 -0.32465,0.11104 -0.32465,0.11108 -0.32465,0.11111 -0.32466,0.11117 -0.32464,0.11118 -0.32466,0.11123 -0.32465,0.11123 -0.32465,0.11131 -0.32465,0.11133 -0.32465,0.11136 -0.32465,0.11141 -0.32465,0.11144 -0.32465,0.11147 -0.32465,0.11151 -0.32465,0.11153 -0.32465,0.11157 -0.32465,0.11159 -0.32465,0.11165 -0.32465,0.11167 -0.32465,0.1117 -0.32465,0.11174 -0.32465,0.11176 -0.32465,0.11181 -0.32465,0.11182 -0.32465,0.11182 -0.32465,0.11186 -0.32465,0.11187 -0.32465,0.11188 -0.32465,0.11189 -0.32465,0.1119 -0.32465,0.11192 -0.32466,0.11195 -0.32465,0.11197 -0.32465,0.11197 -0.32465,0.112 -0.32465,0.11198 -0.32465,0.11202 -0.32465,0.11203 -0.32465,0.11203 -0.32465,0.11206 -0.32465,0.11208 -0.32465,0.11208 -0.32465,0.11208 -0.32465,0.1121 -0.32465,0.11213 -0.32465,0.11214 -0.32465,0.11215 -0.32465,0.11216 -0.32465,0.11217 -0.32465,0.11217 -0.32465,0.1122 -0.32465,0.11221 -0.32465,0.11222 -0.32465,0.11224 -0.32465,0.11226 -0.32465,0.11226 -0.32466,0.11229 -0.32465,0.11232 -0.32465,0.11232 -0.32465,0.11234 -0.32465,0.11231 -0.32465,0.11237 -0.32465,0.11236 -0.32465,0.11238 -0.32465,0.11239 -0.32465,0.11238 -0.32465,0.11242 -0.32465,0.11242 -0.32465,0.11243 -0.32465,0.11246 -0.32465,0.11246 -0.32465,0.11248 -0.32465,0.11248 -0.32465,0.1125 -0.32465,0.11253 -0.32465,0.11253 -0.32465,0.11254 -0.32465,0.11253 -0.32465,0.11255 -0.32465,0.11258 -0.32465,0.11261 -0.32465,0.1126 -0.32465,0.11262 -0.32465,0.11263 -0.32466,0.11262 -0.32465,0.11263 -0.32465,0.11267 -0.32465,0.11266 -0.32465,0.11268 -0.32465,0.11268 -0.32465,0.1127 -0.32465,0.1127 -0.32465,0.11273 -0.32465,0.11273 -0.32465,0.11275 -0.32465,0.11275 -0.32465,0.11277 -0.32465,0.11278 -0.32465,0.11279 -0.32465,0.1128 -0.32465,0.11281 -0.32465,0.11283 -0.32465,0.11283 -0.32465,0.11285 -0.32465,0.11286 -0.32465,0.11287 -0.32465,0.11288 -0.32465,0.11287 -0.32465,0.11291 -0.32465,0.11289 -0.32465,0.11294 -0.32466,0.11292 -0.32465,0.11295 -0.32465,0.11294 -0.32465,0.11297 -0.32465,0.11296 -0.32465,0.11298 -0.32465,0.11298 -0.32465,0.113 -0.32465,0.11301 -0.32465,0.11303 -0.32465,0.11302 -0.32465,0.11304 -0.32465,0.11307 -0.32465,0.11306 -0.32465,0.11306 -0.32465,0.1131 -0.32465,0.11309 -0.32465,0.11311 -0.32465,0.11312 -0.32465,0.11312 -0.32465,0.11313 -0.32465,0.11313 -0.32465,0.11316 -0.32465,0.11316 -0.32465,0.11317 -0.32465,0.11319 -0.32465,0.11318 -0.32465,0.11319 -0.32465,0.11322 -0.32466,0.11321 -0.32465,0.11323 -0.32465,0.11324 -0.32465,0.11324 -0.32465,0.11324 -0.32465,0.11326 -0.32465,0.11328 -0.32465,0.11327 -0.32465,0.11328 -0.32465,0.11329 -0.32465,0.1133 -0.32465,0.11332 -0.32465,0.11331 -0.32465,0.11334 -0.32465,0.11332 -0.32465,0.11335 -0.32465,0.11337 -0.32465,0.11336 -0.32465,0.11337 -0.32465,0.11339 -0.32465,0.11338 -0.32465,0.11339 -0.32465,0.1134 -0.32465,0.11339 -0.32465,0.11343 -0.32465,0.11342 -0.32466,0.11343 -0.32465,0.11345 -0.32465,0.11342 -0.32465,0.11347 -0.32465,0.11346 -0.32465,0.11347 -0.32465,0.11346 -0.32465,0.11349 -0.32465,0.11347 -0.32465,0.11351 -0.32465,0.1135 -0.32465,0.1135 -0.32465,0.11351 -0.32465,0.11352 -0.32465,0.11352 -0.32465,0.11354 -0.32465,0.11355 -0.32465,0.11354 -0.32465,0.11356 -0.32465,0.11355 -0.32465,0.11359 -0.32465,0.11357 -0.32465,0.11355 -0.32465,0.1136 -0.32465,0.11358 -0.32465,0.11359 -0.32465,0.11361 -0.32466,0.11361 -0.32465,0.11361 -0.32465,0.11362 -0.32465,0.11363 -0.32465,0.11363 -0.32465,0.1136 -0.32465,0.1136 -0.32465,0.11357 -0.32465,0.11358 -0.32465,0.11354 -0.32465,0.11355 -0.32465,0.11352 -0.32465,0.11352 -0.32465,0.1135 -0.32465,0.1135 -0.32465,0.11347 -0.32465,0.11347 -0.32465,0.11344 -0.32465,0.11343 -0.32465,0.11341 -0.32465,0.11341 -0.32465,0.1134 -0.32465,0.11339 -0.32465,0.11336 -0.32465,0.11336 -0.32465,0.11334 -0.32465,0.11333 -0.32465,0.11333 -0.32466,0.11331 -0.32465,0.11323 -0.32465,0.1131 -0.32465,0.11298 -0.32465,0.11285 -0.32465,0.11274 -0.32465,0.11262 -0.32465,0.11249 -0.32465,0.11238 -0.32465,0.11228 -0.32465,0.11216 -0.32465,0.11207 -0.32465,0.11195 -0.32465,0.11186 -0.32465,0.11176 -0.32465,0.11168 -0.32465,0.11155 -0.32465,0.11146 -0.32465,0.11138 -0.32465,0.11128 -0.32465,0.11121 -0.32465,0.11112 -0.32465,0.11102 -0.32465,0.11091 -0.32465,0.11081 -0.32465,0.1107 -0.32465,0.1106 -0.32466,0.11046 -0.32465,0.11036 -0.32465,0.11023 -0.32465,0.11012 -0.32465,0.11002 -0.32465,0.10988 -0.32465,0.1098 -0.32465,0.10967 -0.32465,0.1096 -0.32465,0.10947 -0.32465,0.10937 -0.32465,0.10927 -0.32465,0.1092 -0.32465,0.10908 -0.32465,0.10903 -0.32465,0.10891 -0.32465,0.10884 -0.32465,0.10877 -0.32465,0.10865 -0.32465,0.10862 -0.32465,0.10853 -0.32465,0.10843 -0.32465,0.10839 -0.32465,0.10833 -0.32465,0.10827 -0.32465,0.10819 -0.32465,0.10813 -0.32465,0.10807 -0.32466,0.10802 -0.32465,0.10798 -0.32465,0.10791 -0.32465,0.10788 -0.32465,0.10783 -0.32465,0.10781 -0.32465,0.10779 -0.32465,0.10771 -0.32465,0.10771 -0.32465,0.10764 -0.32465,0.10762 -0.32465,0.10759 -0.32465,0.1076 -0.32465,0.10754 -0.32465,0.10755 -0.32465,0.10752 -0.32465,0.10749 -0.32465,0.10753 -0.32465,0.10749 -0.32465,0.10747 -0.32465,0.1075 -0.32465,0.1075 -0.32465,0.10749 -0.32465,0.10748 -0.32465,0.10752 -0.32465,0.10752 -0.32465,0.10754 -0.32466,0.10755 -0.32465,0.10757 -0.32465,0.10759 -0.32465,0.1076 -0.32465,0.10764 -0.32465,0.10767 -0.32465,0.10769 -0.32465,0.10772 -0.32465,0.10779 -0.32465,0.10781 -0.32465,0.10784 -0.32466,0.10791 -0.32465,0.10794 -0.32465,0.10798 -0.32465,0.10804 -0.32465,0.1081 -0.32465,0.10814 -0.32465,0.1082 -0.32465,0.10828 -0.32465,0.10833 -0.32465,0.1084 -0.32465,0.10847 -0.32465,0.10855 -0.32465,0.10862 -0.32465,0.10872 -0.32465,0.10879 -0.32465,0.10887 -0.32465,0.10896 -0.32466,0.10904 -0.32465,0.10913 -0.32465,0.10925 -0.32465,0.10933 -0.32465,0.10941 -0.32465,0.10947 -0.32465,0.10958 -0.32465,0.10962 -0.32465,0.10974 -0.32465,0.1098 -0.32465,0.10979 -0.32465,0.10974 -0.32465,0.10968 -0.32465,0.10962 -0.32465,0.10957 -0.32465,0.10955 -0.32465,0.10953 -0.32465,0.10942 -0.32465,0.10941 -0.32465,0.10935 -0.32465,0.1093 -0.32465,0.10928 -0.32465,0.10921 -0.32465,0.10916 -0.32465,0.10913 -0.32465,0.10906 -0.32465,0.10904 -0.32466,0.10899 -0.32465,0.10894 -0.32465,0.10886 -0.32465,0.10884 -0.32465,0.10879 -0.32465,0.10875 -0.32465,0.10867 -0.32465,0.10864 -0.32465,0.10857 -0.32465,0.10855 -0.32465,0.10847 -0.32465,0.10843 -0.32465,0.10837 -0.32465,0.10833 -0.32465,0.10828 -0.32465,0.10821 -0.32465,0.1081 -0.32465,0.10804 -0.32465,0.10796 -0.32465,0.10786 -0.32465,0.10782 -0.32465,0.10771 -0.32465,0.10765 -0.32465,0.10754 -0.32465,0.10747 -0.32465,0.10738 -0.32465,0.10732 -0.32465,0.10721 -0.32466,0.10715 -0.32465,0.10703 -0.32465,0.10699 -0.32465,0.10688 -0.32465,0.10679 -0.32465,0.10669 -0.32465,0.10662 -0.32465,0.10652 -0.32465,0.10644 -0.32465,0.10635 -0.32465,0.10627 -0.32465,0.10616 -0.32465,0.10605 -0.32465,0.10596 -0.32465,0.10588 -0.32465,0.10576 -0.32465,0.10572 -0.32465,0.10559 -0.32465,0.10549 -0.32465,0.10539 -0.32465,0.10533 -0.32465,0.1052 -0.32465,0.1051 -0.32465,0.105 -0.32465,0.10491 -0.32465,0.10481 -0.32465,0.10468 -0.32466,0.10459 -0.32465,0.10449 -0.32465,0.1044 -0.32465,0.10429 -0.32465,0.10417 -0.32465,0.10405 -0.32465,0.10398 -0.32465,0.10388 -0.32465,0.10374 -0.32465,0.10363 -0.32465,0.10354 -0.32465,0.10341 -0.32465,0.10332 -0.32465,0.10317 -0.32465,0.10308 -0.32465,0.10297 -0.32465,0.10286 -0.32465,0.10273 -0.32465,0.10261 -0.32465,0.10248 -0.32465,0.10239 -0.32465,0.1023 -0.32465,0.10216 -0.32465,0.10205 -0.32465,0.1019 -0.32465,0.10178 -0.32465,0.10168 -0.32466,0.10156 -0.32464,0.10144 -0.32466,0.10129 -0.32465,0.10116 -0.32465,0.10105 -0.32465,0.1009 -0.32465,0.10077 -0.32465,0.10071 -0.32465,0.10053 -0.32465,0.10039 -0.32465,0.10026 -0.32465,0.10014 -0.32465,0.1 -0.32465,0.0999 -0.32465,0.0997 -0.32465,0.0996 -0.32465,0.0995 -0.32465,0.0993 -0.32465,0.0992 -0.32465,0.099 -0.32465,0.0989 -0.32465,0.0988 -0.32465,0.0987 -0.32465,0.0985 -0.32465,0.0984 -0.32465,0.0982 -0.32465,0.0981 -0.32465,0.0979 -0.32466,0.0978 -0.32465,0.0976 -0.32465,0.0975 -0.32465,0.0973 -0.32465,0.0972 -0.32465,0.097 -0.32465,0.0969 -0.32465,0.0967 -0.32465,0.0966 -0.32465,0.0965 -0.32465,0.0963 -0.32465,0.0961 -0.32465,0.096 -0.32465,0.0958 -0.32465,0.0956 -0.32465,0.0955 -0.32465,0.0953 -0.32465,0.0952 -0.32465,0.095 -0.32465,0.0948 -0.32465,0.0947 -0.32465,0.0945 -0.32465,0.0944 -0.32465,0.0942 -0.32465,0.094 -0.32465,0.0939 -0.32465,0.0937 -0.32465,0.0935 -0.32466,0.0934 -0.32465,0.0932 -0.32465,0.093 -0.32465,0.0928 -0.32465,0.0926 -0.32465,0.0925 -0.32465,0.0923 -0.32465,0.0922 -0.32465,0.0919 -0.32465,0.0918 -0.32465,0.0916 -0.32465,0.0914 -0.32465,0.0913 -0.32465,0.0911 -0.32465,0.0909 -0.32465,0.0907 -0.32465,0.0905 -0.32465,0.0903 -0.32465,0.0901 -0.32465,0.0898 -0.32465,0.0896 -0.32465,0.0894 -0.32465,0.0892 -0.32465,0.089 -0.32465,0.0888 -0.32465,0.0886 -0.32466,0.0884 -0.32464,0.0882 -0.32465,0.0879 -0.32466,0.0877 -0.32465,0.0875 -0.32465,0.0873 -0.32465,0.0871 -0.32465,0.0869 -0.32465,0.0867 -0.32465,0.0865 -0.32465,0.0862 -0.32465,0.086 -0.32465,0.0858 -0.32465,0.0856 -0.32465,0.0854 -0.32465,0.0852 -0.32465,0.085 -0.32465,0.0847 -0.32465,0.0845 -0.32465,0.0843 -0.32465,0.0841 -0.32465,0.0839 -0.32465,0.0836 -0.32465,0.0834 -0.32465,0.0832 -0.32465,0.083 -0.32465,0.0827 -0.32465,0.0826 -0.32466,0.0823 -0.32465,0.0821 -0.32465,0.0819 -0.32465,0.0816 -0.32465,0.0815 -0.32465,0.0812 -0.32465,0.081 -0.32465,0.0808 -0.32465,0.0805 -0.32465,0.0803 -0.32465,0.0801 -0.32465,0.0799 -0.32465,0.0796 -0.32465,0.0794 -0.32465,0.0792 -0.32466,0.0789 -0.32465,0.0787 -0.32466,0.0785 -0.32465,0.0782 -0.32466,0.078 -0.32465,0.0778 -0.32466,0.0776 -0.32465,0.0773 -0.32466,0.077 -0.32465,0.0768 -0.32466,0.0766 -0.32465,0.0764 -0.32466,0.0761 -0.32465,0.0759 -0.32466,0.0756 -0.32465,0.0754 -0.32466,0.0752 -0.32465,0.0749 -0.32466,0.0746 -0.32465,0.0744 -0.32466,0.0741 -0.32465,0.074 -0.32466,0.0737 -0.32466,0.0734 -0.32465,0.0731 -0.32465,0.0729 -0.32466,0.0726 -0.32466,0.0723 -0.32465,0.0721 -0.32466,0.0718 -0.32465,0.0715 -0.32466,0.0712 -0.32465,0.0709 -0.32466,0.0707 -0.32465,0.0703 -0.32466,0.0701 -0.32465,0.0698 -0.32466,0.0695 -0.32465,0.0692 -0.32466,0.0689 -0.32465,0.0686 -0.32466,0.0683 -0.32465,0.068 -0.32466,0.0678 -0.32465,0.0674 -0.32466,0.0671 -0.32465,0.0668 -0.32466,0.0665 -0.32466,0.0663 -0.32465,0.0659 -0.32466,0.0656 -0.32465,0.0653 -0.32466,0.065 -0.32465,0.0647 -0.32466,0.0643 -0.32465,0.064 -0.32466,0.0638 -0.32465,0.0634 -0.32466,0.0631 -0.32465,0.0629 -0.32466,0.0625 -0.32465,0.0622 -0.32466,0.0618 -0.32465,0.0615 -0.32466,0.0611 -0.32465,0.0608 -0.32466,0.0605 -0.32465,0.0602 -0.32466,0.0598 -0.32465,0.0595 -0.32466,0.0591 -0.32466,0.0587 -0.32465,0.0584 -0.32466,0.058 -0.32465,0.0576 -0.32466,0.0573 -0.32465,0.0569 -0.32466,0.0565 -0.32465,0.0562 -0.32466,0.0558 -0.32465,0.0554 -0.32466,0.0551 -0.32465,0.0547 -0.32466,0.0543 -0.32465,0.054 -0.32466,0.0536 -0.32465,0.0532 -0.32466,0.0528 -0.32465,0.0524 -0.32466,0.0519 -0.32465,0.0515 -0.32466,0.051 -0.32465,0.0506 -0.32466,0.0502 -0.32465,0.0497 -0.32466,0.0493 -0.32465,0.0488 -0.32466,0.0484 -0.32466,0.048 -0.32465,0.0475 -0.32465,0.0471 -0.32466,0.0466 -0.32466,0.0462 -0.32465,0.0457 -0.32466,0.0453 -0.32465,0.0449 -0.32466,0.0445 -0.32465,0.0441 -0.32466,0.0436 -0.32465,0.0433 -0.32466,0.0428 -0.32465,0.0423 -0.32466,0.042 -0.32465,0.0415 -0.32466,0.0412 -0.32465,0.0408 -0.32466,0.0404 -0.32465,0.0399 -0.32466,0.0395 -0.32465,0.0391 -0.32466,0.0387 -0.32466,0.0383 -0.32465,0.0379 -0.32465,0.0375 -0.32466,0.037 -0.32466,0.0366 -0.32465,0.0362 -0.32466,0.0358 -0.32465,0.0354 -0.32466,0.035 -0.32465,0.0345 -0.32466,0.0341 -0.32465,0.0337 -0.32466,0.0333 -0.32465,0.0329 -0.32466,0.0324 -0.32465,0.032 -0.32466,0.0316 -0.32465,0.0311 -0.32466,0.0307 -0.32465,0.0303 -0.32466,0.0298 -0.32465,0.0293 -0.32466,0.0289 -0.32465,0.0284 -0.32466,0.0279 -0.32466,0.0275 -0.32465,0.0271 -0.32466,0.0266 -0.32465,0.0261 -0.32466,0.0256 -0.32465,0.0252 -0.32466,0.0247 -0.32465,0.0243 -0.32466,0.0238 -0.32465,0.0233 -0.32466,0.0228 -0.32465,0.0224 -0.32466,0.0219 -0.32465,0.0213 -0.32466,0.0208 -0.32465,0.0203 -0.32466,0.0197 -0.32465,0.0192 -0.32466,0.0187 -0.32465,0.0181 -0.32466,0.0175 -0.32465,0.017 -0.32466,0.0165 -0.324655,0.0159 -0.324655,0.0154 -0.324655,0.0147 -0.324655,0.0141 -0.324655,0.0136 -0.324656,0.013 -0.324655,0.0125 -0.324655,0.0119 -0.324655,0.0113 -0.324655,0.0107 -0.324656,0.0101 -0.324655,0.01 -0.324655,0.009 -0.324655,0.008 -0.324655,0.008 -0.324656,0.007 -0.324655,0.006 -0.324655,0.006 -0.324654,0.005 -0.324654,0.005 -0.324654,0.004 -0.324654,0.003 -0.324654,0.003 -0.324654,0.002 -0.324654,0.001 -0.324654,8.5e-4 -0.324654,2e-4 -0.324654,-4.6e-4 -0.324654,-10e-4 -0.324654,-0.002 -0.324654,-0.002 -0.324654,-0.003 -0.324654,-0.004 -0.324654,-0.004 -0.324654,-0.005 -0.324654,-0.006 -0.324654,-0.007 -0.324654,-0.007 -0.324654,-0.008 -0.324654,-0.009 -0.324654,-0.009 -0.324654,-0.01 -0.324654,-0.0107 -0.324654,-0.0114 -0.324654,-0.0121 -0.324654,-0.0129 -0.324654,-0.0135 -0.324654,-0.0143 -0.324654,-0.015 -0.324654,-0.0157 -0.324654,-0.0165 -0.324655,-0.0172 -0.324655,-0.018 -0.324654,-0.0187 -0.324655,-0.0195 -0.324654,-0.0203 -0.324655,-0.021 -0.324655,-0.0218 -0.324654,-0.0225 -0.324655,-0.0233 -0.324654,-0.0241 -0.324655,-0.0248 -0.324655,-0.0257 -0.324654,-0.0265 -0.324655,-0.0273 -0.324654,-0.0281 -0.324655,-0.0289 -0.324654,-0.0297 -0.324655,-0.0305 -0.324654,-0.0313 -0.324655,-0.0322 -0.324655,-0.0329 -0.324654,-0.0338 -0.324655,-0.0346 -0.324654,-0.0355 -0.324655,-0.0363 -0.324654,-0.0371 -0.324655,-0.038 -0.324655,-0.0388 -0.324654,-0.0397 -0.324655,-0.0406 z"
       style="fill:#1f77b4;fill-opacity:0.5;fill-rule:nonzero;stroke:#1f77b4;stroke-width:1;stroke-linecap:butt;stroke-linejoin:round;stroke-miterlimit:10;stroke-dasharray:none;stroke-opacity:0.5"
       transform="matrix(1.3333333,0,0,-1.3333333,0,460.8)"
       clip-path="url(#clipPath4)" />
    <path
       id="path5"
       d="M 398.48727,50.112 V 255.10094 H 236.16 V 50.112 Z"
       style="fill:#2ca02c;fill-opacity:0.2;fill-rule:nonzero;stroke:#2ca02c;stroke-width:2;stroke-linecap:butt;stroke-linejoin:miter;stroke-miterlimit:10;stroke-dasharray:none;stroke-opacity:0.2"
       transform="matrix(1.3333333,0,0,-1.3333333,0,460.8)"
       clip-path="url(#clipPath6)" />
    <path
       id="path7"
       d="m 73.832727,38.016 v -3.5"
       style="fill:#000000;fill-opacity:1;fill-rule:nonzero;stroke:#000000;stroke-width:0.8;stroke-linecap:butt;stroke-linejoin:round;stroke-miterlimit:10;stroke-dasharray:none;stroke-opacity:1"
       transform="matrix(1.3333333,0,0,-1.3333333,0,460.8)" />
    <text
       id="text7"
       xml:space="preserve"
       transform="matrix(1.3333333,0,0,1.3333333,87.83947,429.57033)"><tspan
         id="tspan7"
         style="font-variant:normal;font-weight:normal;font-size:10px;font-family:'DejaVu Sans';writing-mode:lr-tb;fill:#000000;fill-opacity:1;fill-rule:nonzero;stroke:none"
         x="0"
         y="0">0.0</tspan></text>
    <path
       id="path8"
       d="m 138.76364,38.016 v -3.5"
       style="fill:#000000;fill-opacity:1;fill-rule:nonzero;stroke:#000000;stroke-width:0.8;stroke-linecap:butt;stroke-linejoin:round;stroke-miterlimit:10;stroke-dasharray:none;stroke-opacity:1"
       transform="matrix(1.3333333,0,0,-1.3333333,0,460.8)" />
    <text
       id="text8"
       xml:space="preserve"
       transform="matrix(1.3333333,0,0,1.3333333,174.41402,429.57033)"><tspan
         id="tspan8"
         style="font-variant:normal;font-weight:normal;font-size:10px;font-family:'DejaVu Sans';writing-mode:lr-tb;fill:#000000;fill-opacity:1;fill-rule:nonzero;stroke:none"
         x="0"
         y="0">0.2</tspan></text>
    <path
       id="path9"
       d="m 203.69454,38.016 v -3.5"
       style="fill:#000000;fill-opacity:1;fill-rule:nonzero;stroke:#000000;stroke-width:0.8;stroke-linecap:butt;stroke-linejoin:round;stroke-miterlimit:10;stroke-dasharray:none;stroke-opacity:1"
       transform="matrix(1.3333333,0,0,-1.3333333,0,460.8)" />
    <text
       id="text9"
       xml:space="preserve"
       transform="matrix(1.3333333,0,0,1.3333333,260.98856,429.57033)"><tspan
         id="tspan9"
         style="font-variant:normal;font-weight:normal;font-size:10px;font-family:'DejaVu Sans';writing-mode:lr-tb;fill:#000000;fill-opacity:1;fill-rule:nonzero;stroke:none"
         x="0"
         y="0">0.4</tspan></text>
    <path
       id="path10"
       d="m 268.62545,38.016 v -3.5"
       style="fill:#000000;fill-opacity:1;fill-rule:nonzero;stroke:#000000;stroke-width:0.8;stroke-linecap:butt;stroke-linejoin:round;stroke-miterlimit:10;stroke-dasharray:none;stroke-opacity:1"
       transform="matrix(1.3333333,0,0,-1.3333333,0,460.8)" />
    <text
       id="text10"
       xml:space="preserve"
       transform="matrix(1.3333333,0,0,1.3333333,347.56311,429.57033)"><tspan
         id="tspan10"
         style="font-variant:normal;font-weight:normal;font-size:10px;font-family:'DejaVu Sans';writing-mode:lr-tb;fill:#000000;fill-opacity:1;fill-rule:nonzero;stroke:none"
         x="0"
         y="0">0.6</tspan></text>
    <path
       id="path11"
       d="m 333.55636,38.016 v -3.5"
       style="fill:#000000;fill-opacity:1;fill-rule:nonzero;stroke:#000000;stroke-width:0.8;stroke-linecap:butt;stroke-linejoin:round;stroke-miterlimit:10;stroke-dasharray:none;stroke-opacity:1"
       transform="matrix(1.3333333,0,0,-1.3333333,0,460.8)" />
    <text
       id="text11"
       xml:space="preserve"
       transform="matrix(1.3333333,0,0,1.3333333,434.13765,429.57033)"><tspan
         id="tspan11"
         style="font-variant:normal;font-weight:normal;font-size:10px;font-family:'DejaVu Sans';writing-mode:lr-tb;fill:#000000;fill-opacity:1;fill-rule:nonzero;stroke:none"
         x="0"
         y="0">0.8</tspan></text>
    <path
       id="path12"
       d="m 398.48727,38.016 v -3.5"
       style="fill:#000000;fill-opacity:1;fill-rule:nonzero;stroke:#000000;stroke-width:0.8;stroke-linecap:butt;stroke-linejoin:round;stroke-miterlimit:10;stroke-dasharray:none;stroke-opacity:1"
       transform="matrix(1.3333333,0,0,-1.3333333,0,460.8)" />
    <text
       id="text12"
       xml:space="preserve"
       transform="matrix(1.3333333,0,0,1.3333333,520.7122,429.57033)"><tspan
         id="tspan12"
         style="font-variant:normal;font-weight:normal;font-size:10px;font-family:'DejaVu Sans';writing-mode:lr-tb;fill:#000000;fill-opacity:1;fill-rule:nonzero;stroke:none"
         x="0"
         y="0">1.0</tspan></text>
    <text
       id="text13"
       xml:space="preserve"
       transform="matrix(1.3333333,0,0,1.3333333,287.70292,447.7995)"><tspan
         id="tspan13"
         style="font-variant:normal;font-weight:normal;font-size:10px;font-family:'DejaVu Sans';writing-mode:lr-tb;fill:#000000;fill-opacity:1;fill-rule:nonzero;stroke:none"
         x="0"
         dx="0 -0.296875"
         y="0">Time (s)</tspan></text>
    <path
       id="path13"
       d="M 57.6,50.112 H 54.1"
       style="fill:#000000;fill-opacity:1;fill-rule:nonzero;stroke:#000000;stroke-width:0.8;stroke-linecap:butt;stroke-linejoin:round;stroke-miterlimit:10;stroke-dasharray:none;stroke-opacity:1"
       transform="matrix(1.3333333,0,0,-1.3333333,0,460.8)" />
    <text
       id="text14"
       xml:space="preserve"
       transform="matrix(1.3333333,0,0,1.3333333,46.258333,399.0465)"><tspan
         id="tspan14"
         style="font-variant:normal;font-weight:normal;font-size:10px;font-family:'DejaVu Sans';writing-mode:lr-tb;fill:#000000;fill-opacity:1;fill-rule:nonzero;stroke:none"
         x="0"
         y="0">0.0</tspan></text>
    <path
       id="path14"
       d="M 57.6,91.109788 H 54.1"
       style="fill:#000000;fill-opacity:1;fill-rule:nonzero;stroke:#000000;stroke-width:0.8;stroke-linecap:butt;stroke-linejoin:round;stroke-miterlimit:10;stroke-dasharray:none;stroke-opacity:1"
       transform="matrix(1.3333333,0,0,-1.3333333,0,460.8)" />
    <text
       id="text15"
       xml:space="preserve"
       transform="matrix(1.3333333,0,0,1.3333333,46.258333,344.38278)"><tspan
         id="tspan15"
         style="font-variant:normal;font-weight:normal;font-size:10px;font-family:'DejaVu Sans';writing-mode:lr-tb;fill:#000000;fill-opacity:1;fill-rule:nonzero;stroke:none"
         x="0"
         y="0">0.2</tspan></text>
    <path
       id="path15"
       d="M 57.6,132.10758 H 54.1"
       style="fill:#000000;fill-opacity:1;fill-rule:nonzero;stroke:#000000;stroke-width:0.8;stroke-linecap:butt;stroke-linejoin:round;stroke-miterlimit:10;stroke-dasharray:none;stroke-opacity:1"
       transform="matrix(1.3333333,0,0,-1.3333333,0,460.8)" />
    <text
       id="text16"
       xml:space="preserve"
       transform="matrix(1.3333333,0,0,1.3333333,46.258333,289.71907)"><tspan
         id="tspan16"
         style="font-variant:normal;font-weight:normal;font-size:10px;font-family:'DejaVu Sans';writing-mode:lr-tb;fill:#000000;fill-opacity:1;fill-rule:nonzero;stroke:none"
         x="0"
         y="0">0.4</tspan></text>
    <path
       id="path16"
       d="M 57.6,173.10536 H 54.1"
       style="fill:#000000;fill-opacity:1;fill-rule:nonzero;stroke:#000000;stroke-width:0.8;stroke-linecap:butt;stroke-linejoin:round;stroke-miterlimit:10;stroke-dasharray:none;stroke-opacity:1"
       transform="matrix(1.3333333,0,0,-1.3333333,0,460.8)" />
    <text
       id="text17"
       xml:space="preserve"
       transform="matrix(1.3333333,0,0,1.3333333,46.258333,235.05535)"><tspan
         id="tspan17"
         style="font-variant:normal;font-weight:normal;font-size:10px;font-family:'DejaVu Sans';writing-mode:lr-tb;fill:#000000;fill-opacity:1;fill-rule:nonzero;stroke:none"
         x="0"
         y="0">0.6</tspan></text>
    <path
       id="path17"
       d="M 57.6,214.10315 H 54.1"
       style="fill:#000000;fill-opacity:1;fill-rule:nonzero;stroke:#000000;stroke-width:0.8;stroke-linecap:butt;stroke-linejoin:round;stroke-miterlimit:10;stroke-dasharray:none;stroke-opacity:1"
       transform="matrix(1.3333333,0,0,-1.3333333,0,460.8)" />
    <text
       id="text18"
       xml:space="preserve"
       transform="matrix(1.3333333,0,0,1.3333333,46.258333,180.39163)"><tspan
         id="tspan18"
         style="font-variant:normal;font-weight:normal;font-size:10px;font-family:'DejaVu Sans';writing-mode:lr-tb;fill:#000000;fill-opacity:1;fill-rule:nonzero;stroke:none"
         x="0"
         y="0">0.8</tspan></text>
    <path
       id="path18"
       d="M 57.6,255.10094 H 54.1"
       style="fill:#000000;fill-opacity:1;fill-rule:nonzero;stroke:#000000;stroke-width:0.8;stroke-linecap:butt;stroke-linejoin:round;stroke-miterlimit:10;stroke-dasharray:none;stroke-opacity:1"
       transform="matrix(1.3333333,0,0,-1.3333333,0,460.8)" />
    <text
       id="text19"
       xml:space="preserve"
       transform="matrix(1.3333333,0,0,1.3333333,46.258333,125.72791)"><tspan
         id="tspan19"
         style="font-variant:normal;font-weight:normal;font-size:10px;font-family:'DejaVu Sans';writing-mode:lr-tb;fill:#000000;fill-opacity:1;fill-rule:nonzero;stroke:none"
         x="0"
         y="0">1.0</tspan></text>
    <path
       id="path19"
       d="M 57.6,296.09873 H 54.1"
       style="fill:#000000;fill-opacity:1;fill-rule:nonzero;stroke:#000000;stroke-width:0.8;stroke-linecap:butt;stroke-linejoin:round;stroke-miterlimit:10;stroke-dasharray:none;stroke-opacity:1"
       transform="matrix(1.3333333,0,0,-1.3333333,0,460.8)" />
    <text
       id="text20"
       xml:space="preserve"
       transform="matrix(1.3333333,0,0,1.3333333,46.258333,71.064198)"><tspan
         id="tspan20"
         style="font-variant:normal;font-weight:normal;font-size:10px;font-family:'DejaVu Sans';writing-mode:lr-tb;fill:#000000;fill-opacity:1;fill-rule:nonzero;stroke:none"
         x="0"
         y="0">1.2</tspan></text>
    <g
       id="g21">
      <path
         d="M 455,347 H 145 c -14,-98 -14,-167 0,-208 18,-51 51,-76 100,-76 48,0 91,25 129,76 32,45 59,114 81,208 z m 15,83 c 8,92 7,154 -4,187 -18,51 -51,77 -98,77 -50,0 -94,-26 -130,-76 -29,-41 -54,-104 -76,-188 z m -88,338 c 78,0 132,-35 164,-104 31,-69 35,-164 11,-286 C 533,256 493,161 435,93 377,24 308,-10 230,-10 152,-10 97,24 66,93 35,161 31,256 55,378 c 24,122 64,217 122,286 58,69 126,104 205,104 z"
         style="fill:#000000;fill-opacity:1;fill-rule:nonzero;stroke:none"
         transform="matrix(0,-0.01333333,-0.01333333,0,37.716667,237.37067)"
         clip-path="url(#clipPath20)"
         id="path21" />
    </g>
    <path
       id="path22"
       d="m 73.832727,273.03747 5.843782,0.25726 6.168434,0.0438 6.49308,-0.18312 6.817752,-0.41963 7.142415,-0.66291 7.79172,-0.95511 8.11639,-1.22197 8.76568,-1.55075 9.09035,-1.83362 9.73966,-2.18874 10.71354,-2.64062 11.68741,-3.11757 12.66136,-3.61075 14.28462,-4.31043 16.55717,-5.2378 20.12832,-6.61276 28.56924,-9.64324 74.66959,-25.3 26.94598,-8.83147 24.34877,-7.74856 8.11928,-2.5291 v 0"
       style="fill:none;stroke:#1f77b4;stroke-width:1.5;stroke-linecap:square;stroke-linejoin:round;stroke-miterlimit:10;stroke-dasharray:none;stroke-opacity:1"
       transform="matrix(1.3333333,0,0,-1.3333333,0,460.8)"
       clip-path="url(#clipPath23)" />
    <path
       id="path24"
       d="m 73.832727,255.10094 6.493092,-0.10724 6.81774,-0.32795 7.467043,-0.58699 7.791728,-0.84017 7.79172,-1.0558 8.44104,-1.37179 10.06431,-1.87541 10.38896,-2.15907 10.71363,-2.45772 11.36284,-2.84277 12.98601,-3.48455 13.95997,-3.96839 15.90786,-4.75715 18.50508,-5.77353 14.93392,-4.87179 79.53934,-26.65547 27.59528,-8.9651 40.90595,-13.01704 12.98903,-4.13208 v 0"
       style="fill:none;stroke:#1f77b4;stroke-width:1.5;stroke-linecap:square;stroke-linejoin:round;stroke-miterlimit:10;stroke-dasharray:none;stroke-opacity:1"
       transform="matrix(1.3333333,0,0,-1.3333333,0,460.8)"
       clip-path="url(#clipPath25)" />
    <path
       id="path26"
       d="m 73.832727,290.97399 5.194473,0.5479 5.519127,0.35794 5.843772,0.14882 6.168434,-0.0752 6.493107,-0.31093 7.14241,-0.5791 7.46707,-0.83265 7.46707,-1.0537 7.79173,-1.33358 8.76569,-1.73698 9.415,-2.10301 10.06422,-2.47474 10.71346,-2.86678 11.68741,-3.36829 12.98602,-3.97398 14.93391,-4.80621 20.12833,-6.73663 40.25665,-13.60702 59.41102,-20.65675 26.29668,-8.93558 18.18042,-5.97442 16.55717,-5.17872 6.17137,-1.87884 v 0"
       style="fill:none;stroke:#1f77b4;stroke-width:1.5;stroke-linecap:square;stroke-linejoin:round;stroke-miterlimit:10;stroke-dasharray:none;stroke-opacity:1"
       transform="matrix(1.3333333,0,0,-1.3333333,0,460.8)"
       clip-path="url(#clipPath27)" />
    <path
       id="path28"
       d="m 73.832727,255.10094 6.817746,-0.11633 7.142394,-0.35346 7.467046,-0.59497 8.116377,-0.87782 8.44104,-1.13701 9.09034,-1.44973 9.73966,-1.78286 10.38897,-2.13077 11.36293,-2.56335 12.33675,-3.0159 13.63532,-3.56685 15.58321,-4.31589 17.85577,-5.1811 22.72553,-6.83791 36.36085,-11.20975 55.19056,-16.99603 29.54319,-8.85425 26.29667,-7.65227 16.56019,-4.69068 v 0"
       style="fill:none;stroke:#d62728;stroke-width:1.5;stroke-linecap:square;stroke-linejoin:round;stroke-miterlimit:10;stroke-dasharray:none;stroke-opacity:1"
       transform="matrix(1.3333333,0,0,-1.3333333,0,460.8)"
       clip-path="url(#clipPath29)" />
    <path
       id="path30"
       d="m 73.832727,290.97399 5.194473,0.54645 5.519127,0.35343 5.843772,0.14071 5.843779,-0.0789 6.168452,-0.29945 6.4931,-0.53225 7.14242,-0.81597 7.46707,-1.08327 7.79172,-1.35347 8.44104,-1.69639 8.76569,-1.98816 9.41495,-2.3623 10.06417,-2.75169 11.03811,-3.24906 12.01206,-3.76727 13.63532,-4.51554 15.58321,-5.40314 18.82973,-6.7748 26.29668,-9.72398 79.86399,-29.68381 24.99808,-8.96266 23.05018,-8.02714 5.19742,-1.77519 v 0"
       style="fill:none;stroke:#d62728;stroke-width:1.5;stroke-linecap:square;stroke-linejoin:round;stroke-miterlimit:10;stroke-dasharray:none;stroke-opacity:1"
       transform="matrix(1.3333333,0,0,-1.3333333,0,460.8)"
       clip-path="url(#clipPath31)" />
    <path
       id="path32"
       d="M 57.6,38.016 V 304.128"
       style="fill:none;stroke:#000000;stroke-width:0.8;stroke-linecap:square;stroke-linejoin:miter;stroke-miterlimit:10;stroke-dasharray:none;stroke-opacity:1"
       transform="matrix(1.3333333,0,0,-1.3333333,0,460.8)" />
    <path
       id="path33"
       d="M 414.72,38.016 V 304.128"
       style="fill:none;stroke:#000000;stroke-width:0.8;stroke-linecap:square;stroke-linejoin:miter;stroke-miterlimit:10;stroke-dasharray:none;stroke-opacity:1"
       transform="matrix(1.3333333,0,0,-1.3333333,0,460.8)" />
    <path
       id="path34"
       d="M 57.6,38.016 H 414.72"
       style="fill:none;stroke:#000000;stroke-width:0.8;stroke-linecap:square;stroke-linejoin:miter;stroke-miterlimit:10;stroke-dasharray:none;stroke-opacity:1"
       transform="matrix(1.3333333,0,0,-1.3333333,0,460.8)" />
    <path
       id="path35"
       d="M 57.6,304.128 H 414.72"
       style="fill:none;stroke:#000000;stroke-width:0.8;stroke-linecap:square;stroke-linejoin:miter;stroke-miterlimit:10;stroke-dasharray:none;stroke-opacity:1"
       transform="matrix(1.3333333,0,0,-1.3333333,0,460.8)" />
    <path
       id="path36"
       d="M 317.20437,266.78425 H 407.72 c 1.33333,0 2,0.66667 2,2 V 297.128 c 0,1.33333 -0.66667,2 -2,2 h -90.51563 c -1.33333,0 -2,-0.66667 -2,-2 v -28.34375 c 0,-1.33333 0.66667,-2 2,-2 z"
       style="fill:#ffffff;fill-opacity:0.8;fill-rule:nonzero;stroke:#cccccc;stroke-width:1;stroke-linecap:butt;stroke-linejoin:miter;stroke-miterlimit:10;stroke-dasharray:none;stroke-opacity:0.8"
       transform="matrix(1.3333333,0,0,-1.3333333,0,460.8)" />
    <path
       id="path37"
       d="m 319.20437,287.53425 h 20 v 7 h -20 z"
       style="fill:#2ca02c;fill-opacity:0.2;fill-rule:nonzero;stroke:#2ca02c;stroke-width:2;stroke-linecap:butt;stroke-linejoin:miter;stroke-miterlimit:10;stroke-dasharray:none;stroke-opacity:0.2"
       transform="matrix(1.3333333,0,0,-1.3333333,0,460.8)" />
    <text
       id="text37"
       xml:space="preserve"
       transform="matrix(1.3333333,0,0,1.3333333,462.93917,77.421)"><tspan
         id="tspan37"
         style="font-variant:normal;font-weight:normal;font-size:10px;font-family:'DejaVu Sans';writing-mode:lr-tb;fill:#000000;fill-opacity:1;fill-rule:nonzero;stroke:none"
         x="0"
         y="0">Goal</tspan></text>
    <path
       id="path38"
       d="m 319.20437,276.36237 h 10 10"
       style="fill:none;stroke:#d62728;stroke-width:1.5;stroke-linecap:square;stroke-linejoin:round;stroke-miterlimit:10;stroke-dasharray:none;stroke-opacity:1"
       transform="matrix(1.3333333,0,0,-1.3333333,0,460.8)" />
    <text
       id="text38"
       xml:space="preserve"
       transform="matrix(1.3333333,0,0,1.3333333,462.93917,96.9835)"><tspan
         id="tspan38"
         style="font-variant:normal;font-weight:normal;font-size:10px;font-family:'DejaVu Sans';writing-mode:lr-tb;fill:#000000;fill-opacity:1;fill-rule:nonzero;stroke:none"
         x="0"
         y="0">Simulations</tspan></text>
  </g>
</svg>
