<?xml version="1.0" encoding="UTF-8" standalone="no"?>
<!DOCTYPE svg PUBLIC "-//W3C//DTD SVG 1.1//EN" "http://www.w3.org/Graphics/SVG/1.1/DTD/svg11.dtd">
<svg xmlns="http://www.w3.org/2000/svg" xmlns:xlink="http://www.w3.org/1999/xlink" version="1.1" width="999.99996pt" height="800pt" viewBox="0 0 999.99996 800">
<g enable-background="new">
<path transform="matrix(2.7777777,0,0,-2.7777777,0,800)" d="M 0 0 L 360 0 L 360 288 L 0 288 Z " fill="#ffffff"/>
<path transform="matrix(2.7777777,0,0,-2.7777777,0,800)" d="M 39.570585 35.028429 L 336.15473 35.028429 L 336.15473 267.91117 L 39.570585 267.91117 Z " fill="#ffffff"/>
<clipPath id="cp0">
<path transform="matrix(2.7777777,0,0,-2.7777777,0,800)" d="M 39.570585 35.028429 L 336.15473 35.028429 L 336.15473 267.9112 L 39.570585 267.9112 Z "/>
</clipPath>
<g clip-path="url(#cp0)">
<path transform="matrix(2.7777777,0,0,-2.7777777,0,800)" stroke-width="2" stroke-linecap="butt" stroke-miterlimit="10" stroke-linejoin="miter" fill="none" stroke="#d62728" d="M 117.247379 113.908069 L 258.4779 113.908069 L 258.4779 189.03154 L 117.247379 189.03154 L 117.247379 113.908069 Z "/>
</g>
<clipPath id="cp1">
<path transform="matrix(2.7777777,0,0,-2.7777777,0,800)" d="M 39.570585 35.028429 L 336.15473 35.028429 L 336.15473 267.9112 L 39.570585 267.9112 Z "/>
</clipPath>
<g clip-path="url(#cp1)">
<path transform="matrix(2.7777777,0,0,-2.7777777,0,800)" stroke-width="2" stroke-linecap="butt" stroke-miterlimit="10" stroke-linejoin="miter" fill="none" stroke="#1f77b4" d="M 187.86264 189.03154 L 46.63211 264.155 L 187.86264 113.908069 L 329.09318 38.7846 L 187.86264 189.03154 Z "/>
</g>
<clipPath id="cp2">
<path transform="matrix(2.7777777,0,0,-2.7777777,0,800)" d="M 39.570585 35.028429 L 336.15473 35.028429 L 336.15473 267.9112 L 39.570585 267.9112 Z "/>
</clipPath>
<g clip-path="url(#cp2)">
<path transform="matrix(2.7777777,0,0,-2.7777777,0,800)" d="M 46.63211 261.41639 C 47.3584 261.41639 48.05504 261.70497 48.5686 262.2185 C 49.082166 262.7321 49.370725 263.4287 49.370725 264.155 C 49.370725 264.8813 49.082166 265.57795 48.5686 266.0915 C 48.05504 266.60508 47.3584 266.89363 46.63211 266.89363 C 45.90582 266.89363 45.209184 266.60508 44.695619 266.0915 C 44.182054 265.57795 43.893499 264.8813 43.893499 264.155 C 43.893499 263.4287 44.182054 262.7321 44.695619 262.2185 C 45.209184 261.70497 45.90582 261.41639 46.63211 261.41639 Z " fill="#1f77b4"/>
<path transform="matrix(2.7777777,0,0,-2.7777777,0,800)" stroke-width="1" stroke-linecap="butt" stroke-linejoin="round" fill="none" stroke="#1f77b4" d="M 46.63211 261.41639 C 47.3584 261.41639 48.05504 261.70497 48.5686 262.2185 C 49.082166 262.7321 49.370725 263.4287 49.370725 264.155 C 49.370725 264.8813 49.082166 265.57795 48.5686 266.0915 C 48.05504 266.60508 47.3584 266.89363 46.63211 266.89363 C 45.90582 266.89363 45.209184 266.60508 44.695619 266.0915 C 44.182054 265.57795 43.893499 264.8813 43.893499 264.155 C 43.893499 263.4287 44.182054 262.7321 44.695619 262.2185 C 45.209184 261.70497 45.90582 261.41639 46.63211 261.41639 Z "/>
</g>
<clipPath id="cp3">
<path transform="matrix(2.7777777,0,0,-2.7777777,0,800)" d="M 39.570585 35.028429 L 336.15473 35.028429 L 336.15473 267.9112 L 39.570585 267.9112 Z "/>
</clipPath>
<g clip-path="url(#cp3)">
<path transform="matrix(2.7777777,0,0,-2.7777777,0,800)" d="M 329.09318 36.045988 C 329.81947 36.045988 330.5161 36.334547 331.02967 36.848108 C 331.54325 37.36167 331.8318 38.05831 331.8318 38.7846 C 331.8318 39.510889 331.54325 40.207529 331.02967 40.721094 C 330.5161 41.234655 329.81947 41.523214 329.09318 41.523214 C 328.36689 41.523214 327.67027 41.234655 327.15669 40.721094 C 326.64314 40.207529 326.35459 39.510889 326.35459 38.7846 C 326.35459 38.05831 326.64314 37.36167 327.15669 36.848108 C 327.67027 36.334547 328.36689 36.045988 329.09318 36.045988 Z " fill="#1f77b4"/>
<path transform="matrix(2.7777777,0,0,-2.7777777,0,800)" stroke-width="1" stroke-linecap="butt" stroke-linejoin="round" fill="none" stroke="#1f77b4" d="M 329.09318 36.045988 C 329.81947 36.045988 330.5161 36.334547 331.02967 36.848108 C 331.54325 37.36167 331.8318 38.05831 331.8318 38.7846 C 331.8318 39.510889 331.54325 40.207529 331.02967 40.721094 C 330.5161 41.234655 329.81947 41.523214 329.09318 41.523214 C 328.36689 41.523214 327.67027 41.234655 327.15669 40.721094 C 326.64314 40.207529 326.35459 39.510889 326.35459 38.7846 C 326.35459 38.05831 326.64314 37.36167 327.15669 36.848108 C 327.67027 36.334547 328.36689 36.045988 329.09318 36.045988 Z "/>
</g>
<clipPath id="cp4">
<path transform="matrix(2.7777777,0,0,-2.7777777,0,800)" d="M 39.570585 35.028429 L 336.15473 35.028429 L 336.15473 267.9112 L 39.570585 267.9112 Z "/>
</clipPath>
<g clip-path="url(#cp4)">
<path transform="matrix(2.7777777,0,0,-2.7777777,0,800)" d="M 258.4779 186.29293 C 259.2042 186.29293 259.90086 186.58148 260.4144 187.09505 C 260.92799 187.60861 261.21653 188.30525 261.21653 189.03154 C 261.21653 189.75783 260.92799 190.45447 260.4144 190.96804 C 259.90086 191.48159 259.2042 191.77014 258.4779 191.77014 C 257.75163 191.77014 257.055 191.48159 256.5414 190.96804 C 256.02787 190.45447 255.7393 189.75783 255.7393 189.03154 C 255.7393 188.30525 256.02787 187.60861 256.5414 187.09505 C 257.055 186.58148 257.75163 186.29293 258.4779 186.29293 Z " fill="#d62728"/>
<path transform="matrix(2.7777777,0,0,-2.7777777,0,800)" stroke-width="1" stroke-linecap="butt" stroke-linejoin="round" fill="none" stroke="#d62728" d="M 258.4779 186.29293 C 259.2042 186.29293 259.90086 186.58148 260.4144 187.09505 C 260.92799 187.60861 261.21653 188.30525 261.21653 189.03154 C 261.21653 189.75783 260.92799 190.45447 260.4144 190.96804 C 259.90086 191.48159 259.2042 191.77014 258.4779 191.77014 C 257.75163 191.77014 257.055 191.48159 256.5414 190.96804 C 256.02787 190.45447 255.7393 189.75783 255.7393 189.03154 C 255.7393 188.30525 256.02787 187.60861 256.5414 187.09505 C 257.055 186.58148 257.75163 186.29293 258.4779 186.29293 Z "/>
</g>
<clipPath id="cp5">
<path transform="matrix(2.7777777,0,0,-2.7777777,0,800)" d="M 39.570585 35.028429 L 336.15473 35.028429 L 336.15473 267.9112 L 39.570585 267.9112 Z "/>
</clipPath>
<g clip-path="url(#cp5)">
<path transform="matrix(2.7777777,0,0,-2.7777777,0,800)" d="M 117.247379 111.16946 C 117.97366 111.16946 118.6703 111.458019 119.18387 111.97157 C 119.69743 112.48514 119.98599 113.18178 119.98599 113.908069 C 119.98599 114.63435 119.69743 115.33099 119.18387 115.84456 C 118.6703 116.35812 117.97366 116.64668 117.247379 116.64668 C 116.52109 116.64668 115.82445 116.35812 115.31088 115.84456 C 114.797328 115.33099 114.508769 114.63435 114.508769 113.908069 C 114.508769 113.18178 114.797328 112.48514 115.31088 111.97157 C 115.82445 111.458019 116.52109 111.16946 117.247379 111.16946 Z " fill="#d62728"/>
<path transform="matrix(2.7777777,0,0,-2.7777777,0,800)" stroke-width="1" stroke-linecap="butt" stroke-linejoin="round" fill="none" stroke="#d62728" d="M 117.247379 111.16946 C 117.97366 111.16946 118.6703 111.458019 119.18387 111.97157 C 119.69743 112.48514 119.98599 113.18178 119.98599 113.908069 C 119.98599 114.63435 119.69743 115.33099 119.18387 115.84456 C 118.6703 116.35812 117.97366 116.64668 117.247379 116.64668 C 116.52109 116.64668 115.82445 116.35812 115.31088 115.84456 C 114.797328 115.33099 114.508769 114.63435 114.508769 113.908069 C 114.508769 113.18178 114.797328 112.48514 115.31088 111.97157 C 115.82445 111.458019 116.52109 111.16946 117.247379 111.16946 Z "/>
</g>
<clipPath id="cp6">
<path transform="matrix(2.7777777,0,0,-2.7777777,0,800)" d="M 39.570585 35.028429 L 336.15473 35.028429 L 336.15473 267.9112 L 39.570585 267.9112 Z "/>
</clipPath>
<g clip-path="url(#cp6)">
<path transform="matrix(2.7777777,0,0,-2.7777777,0,800)" d="M 187.86264 186.29293 C 188.58893 186.29293 189.28557 186.58148 189.79914 187.09505 C 190.3127 187.60861 190.60126 188.30525 190.60126 189.03154 C 190.60126 189.75783 190.3127 190.45447 189.79914 190.96804 C 189.28557 191.48159 188.58893 191.77014 187.86264 191.77014 C 187.13636 191.77014 186.43972 191.48159 185.92615 190.96804 C 185.41259 190.45447 185.12404 189.75783 185.12404 189.03154 C 185.12404 188.30525 185.41259 187.60861 185.92615 187.09505 C 186.43972 186.58148 187.13636 186.29293 187.86264 186.29293 Z " fill="#1f77b4"/>
<path transform="matrix(2.7777777,0,0,-2.7777777,0,800)" stroke-width="1" stroke-linecap="butt" stroke-linejoin="round" fill="none" stroke="#1f77b4" d="M 187.86264 186.29293 C 188.58893 186.29293 189.28557 186.58148 189.79914 187.09505 C 190.3127 187.60861 190.60126 188.30525 190.60126 189.03154 C 190.60126 189.75783 190.3127 190.45447 189.79914 190.96804 C 189.28557 191.48159 188.58893 191.77014 187.86264 191.77014 C 187.13636 191.77014 186.43972 191.48159 185.92615 190.96804 C 185.41259 190.45447 185.12404 189.75783 185.12404 189.03154 C 185.12404 188.30525 185.41259 187.60861 185.92615 187.09505 C 186.43972 186.58148 187.13636 186.29293 187.86264 186.29293 Z "/>
</g>
<clipPath id="cp7">
<path transform="matrix(2.7777777,0,0,-2.7777777,0,800)" d="M 39.570585 35.028429 L 336.15473 35.028429 L 336.15473 267.9112 L 39.570585 267.9112 Z "/>
</clipPath>
<g clip-path="url(#cp7)">
<path transform="matrix(2.7777777,0,0,-2.7777777,0,800)" d="M 187.86264 111.16946 C 188.58893 111.16946 189.28557 111.458019 189.79914 111.97157 C 190.3127 112.48514 190.60126 113.18178 190.60126 113.908069 C 190.60126 114.63435 190.3127 115.33099 189.79914 115.84456 C 189.28557 116.35812 188.58893 116.64668 187.86264 116.64668 C 187.13636 116.64668 186.43972 116.35812 185.92615 115.84456 C 185.41259 115.33099 185.12404 114.63435 185.12404 113.908069 C 185.12404 113.18178 185.41259 112.48514 185.92615 111.97157 C 186.43972 111.458019 187.13636 111.16946 187.86264 111.16946 Z " fill="#1f77b4"/>
<path transform="matrix(2.7777777,0,0,-2.7777777,0,800)" stroke-width="1" stroke-linecap="butt" stroke-linejoin="round" fill="none" stroke="#1f77b4" d="M 187.86264 111.16946 C 188.58893 111.16946 189.28557 111.458019 189.79914 111.97157 C 190.3127 112.48514 190.60126 113.18178 190.60126 113.908069 C 190.60126 114.63435 190.3127 115.33099 189.79914 115.84456 C 189.28557 116.35812 188.58893 116.64668 187.86264 116.64668 C 187.13636 116.64668 186.43972 116.35812 185.92615 115.84456 C 185.41259 115.33099 185.12404 114.63435 185.12404 113.908069 C 185.12404 113.18178 185.41259 112.48514 185.92615 111.97157 C 186.43972 111.458019 187.13636 111.16946 187.86264 111.16946 Z "/>
</g>
<path transform="matrix(2.7777777,0,0,-2.7777777,0,800)" stroke-width=".8" stroke-linecap="butt" stroke-linejoin="round" fill="none" stroke="#000000" d="M 46.63211 35.028429 L 46.63211 31.528426 "/>
<symbol id="font_8_1">
<path d="M .57600006 0 C .59300008 0 .611 0 .611 .019999996 C .611 .040000008 .59300008 .040000008 .57600006 .040000008 L .035000005 .040000008 C .018 .040000008 0 .040000008 0 .019999996 C 0 0 .018 0 .035000005 0 L .57600006 0 Z "/>
</symbol>
<use xlink:href="#font_8_1" transform="matrix(38.7436,0,0,-38.7436,108.19835,740.83688)"/>
<symbol id="font_9_34">
<path d="M .39100004 .16800002 L .36900003 .16800002 C .36600004 .15100001 .358 .096 .34800003 .080000009 C .34100003 .071 .284 .071 .254 .071 L .069000009 .071 C .09600001 .094000007 .157 .158 .183 .18200001 C .335 .32200004 .39100004 .374 .39100004 .47300003 C .39100004 .588 .3 .665 .18400002 .665 C .068 .665 0 .56600007 0 .48000003 C 0 .42900003 .044 .42900003 .047 .42900003 C .068 .42900003 .094000007 .44400005 .094000007 .476 C .094000007 .504 .075 .523 .047 .523 C .038000004 .523 .036 .523 .033 .522 C .052 .59000006 .106 .63600006 .171 .63600006 C .256 .63600006 .30800004 .565 .30800004 .47300003 C .30800004 .388 .25900004 .314 .20200002 .25 L 0 .024 L 0 0 L .36500005 0 L .39100004 .16800002 Z "/>
</symbol>
<use xlink:href="#font_9_34" transform="matrix(38.7436,0,0,-38.7436,137.01505,749.74789)"/>
<path transform="matrix(2.7777777,0,0,-2.7777777,0,800)" stroke-width=".8" stroke-linecap="butt" stroke-linejoin="round" fill="none" stroke="#000000" d="M 117.247379 35.028429 L 117.247379 31.528426 "/>
<use xlink:href="#font_8_1" transform="matrix(38.7436,0,0,-38.7436,304.35188,740.83688)"/>
<symbol id="font_9_33">
<path d="M .19700001 .64100006 C .19700001 .66400006 .19700001 .665 .177 .665 C .15300001 .638 .103 .601 0 .601 L 0 .572 C .023000002 .572 .073 .572 .128 .59800007 L .128 .07700001 C .128 .041 .125 .029000001 .037 .029000001 L .0059999974 .029000001 L .0059999974 0 C .033 .002 .13000001 .002 .163 .002 C .196 .002 .292 .002 .319 0 L .319 .029000001 L .288 .029000001 C .2 .029000001 .19700001 .041 .19700001 .07700001 L .19700001 .64100006 Z "/>
</symbol>
<use xlink:href="#font_9_33" transform="matrix(38.7436,0,0,-38.7436,334.79579,749.74789)"/>
<path transform="matrix(2.7777777,0,0,-2.7777777,0,800)" stroke-width=".8" stroke-linecap="butt" stroke-linejoin="round" fill="none" stroke="#000000" d="M 187.86264 35.028429 L 187.86264 31.528426 "/>
<symbol id="font_9_32">
<path d="M .407 .34100003 C .407 .42400003 .402 .50500008 .366 .58100005 C .32500003 .66400006 .253 .68600007 .204 .68600007 C .146 .68600007 .075 .65700009 .038000004 .57400009 C .010000002 .51100006 0 .44900004 0 .34100003 C 0 .244 .0069999995 .171 .043000007 .10000001 C .082 .024000003 .151 0 .20300001 0 C .29000003 0 .34 .052 .36900003 .11 C .405 .185 .407 .28300003 .407 .34100003 M .20300001 .020000002 C .171 .020000002 .106 .038000004 .087000008 .147 C .076000008 .207 .076000008 .28300003 .076000008 .35300002 C .076000008 .43500004 .076000008 .50900009 .092 .5680001 C .109000008 .63500007 .16 .66600009 .20300001 .66600009 C .241 .66600009 .299 .64300009 .31800003 .55700007 C .331 .50000008 .331 .421 .331 .35300002 C .331 .286 .331 .21000001 .32000003 .149 C .301 .039000006 .238 .020000002 .20300001 .020000002 Z "/>
</symbol>
<use xlink:href="#font_9_32" transform="matrix(38.7436,0,0,-38.7436,513.9451,750.56149)"/>
<path transform="matrix(2.7777777,0,0,-2.7777777,0,800)" stroke-width=".8" stroke-linecap="butt" stroke-linejoin="round" fill="none" stroke="#000000" d="M 258.4779 35.028429 L 258.4779 31.528426 "/>
<use xlink:href="#font_9_33" transform="matrix(38.7436,0,0,-38.7436,712.0359,749.74789)"/>
<path transform="matrix(2.7777777,0,0,-2.7777777,0,800)" stroke-width=".8" stroke-linecap="butt" stroke-linejoin="round" fill="none" stroke="#000000" d="M 329.09318 35.028429 L 329.09318 31.528426 "/>
<use xlink:href="#font_9_34" transform="matrix(38.7436,0,0,-38.7436,906.5621,749.74789)"/>
<symbol id="font_a_79">
<path d="M .44600005 .418 C .41400004 .412 .402 .388 .402 .36900003 C .402 .345 .42100004 .337 .43500004 .337 C .46500004 .337 .486 .363 .486 .39000003 C .486 .432 .43800003 .451 .39600004 .451 C .335 .451 .30100004 .391 .29200004 .372 C .26900003 .447 .20700002 .451 .18900001 .451 C .087 .451 .033000005 .32 .033000005 .298 C .033000005 .294 .037000006 .289 .044000005 .289 C .052000006 .289 .054 .29500003 .056000007 .299 C .09 .41 .157 .43100003 .18600002 .43100003 C .231 .43100003 .24000001 .389 .24000001 .365 C .24000001 .343 .23400003 .32 .222 .272 L .18800001 .135 C .17300001 .075 .14400001 .020000002 .091000009 .020000002 C .08600001 .020000002 .061 .020000002 .040000004 .033000005 C .076000008 .040000004 .08400001 .07 .08400001 .082 C .08400001 .102000009 .069000009 .114 .05 .114 C .026 .114 0 .093 0 .061000006 C 0 .019000002 .047000003 0 .09 0 C .13800001 0 .172 .038000004 .19300002 .079 C .20900002 .020000002 .259 0 .296 0 C .39800004 0 .45200003 .13100001 .45200003 .15300001 C .45200003 .158 .448 .16200002 .44200004 .16200002 C .43300004 .16200002 .432 .157 .42900003 .14900002 C .402 .061000006 .344 .020000002 .29900003 .020000002 C .26400004 .020000002 .245 .046000005 .245 .087000008 C .245 .109000008 .24900002 .125 .26500003 .19100002 L .3 .327 C .31500004 .387 .349 .43100003 .395 .43100003 C .397 .43100003 .425 .43100003 .44600005 .418 Z "/>
</symbol>
<use xlink:href="#font_a_79" transform="matrix(38.7436,0,0,-38.7436,505.17826,780.43649)"/>
<symbol id="font_b_33">
<path d="M .21100003 .63900008 C .21100003 .66400006 .21000001 .666 .18500003 .666 C .123 .60200008 .031000004 .60200008 0 .60200008 L 0 .57100006 C .019000002 .57100006 .080000009 .57100006 .134 .597 L .134 .080000009 C .134 .043 .13100001 .031000002 .03800001 .031000002 L .0060000049 .031000002 L .0060000049 0 C .042000005 .003 .13100001 .003 .17200002 .003 C .21300003 .003 .30300004 .003 .33900003 0 L .33900003 .031000002 L .307 .031000002 C .21400002 .031000002 .21100003 .043 .21100003 .080000009 L .21100003 .63900008 Z "/>
</symbol>
<use xlink:href="#font_b_33" transform="matrix(27.120402,0,0,-27.120402,528.17337,785.86056)"/>
<path transform="matrix(2.7777777,0,0,-2.7777777,0,800)" stroke-width=".8" stroke-linecap="butt" stroke-linejoin="round" fill="none" stroke="#000000" d="M 39.570585 38.7846 L 36.070585 38.7846 "/>
<use xlink:href="#font_8_1" transform="matrix(38.7436,0,0,-38.7436,44.587545,697.15628)"/>
<symbol id="font_9_35">
<path d="M .143 .38000003 C .12600002 .379 .122 .37800003 .122 .36900003 C .122 .35900004 .127 .35900004 .14500001 .35900004 L .19100002 .35900004 C .276 .35900004 .314 .289 .314 .193 C .314 .062000004 .24599999 .027000003 .197 .027000003 C .14900002 .027000003 .067 .050000006 .038000004 .11600001 C .07000001 .111 .099 .12900001 .099 .165 C .099 .194 .078 .214 .050000006 .214 C .026 .214 0 .2 0 .162 C 0 .073 .08900001 0 .20000002 0 C .319 0 .407 .091000009 .407 .192 C .407 .284 .333 .356 .23700002 .37300004 C .324 .398 .38000003 .47100003 .38000003 .549 C .38000003 .6280001 .298 .68600007 .201 .68600007 C .101 .68600007 .027000003 .62500008 .027000003 .55200007 C .027000003 .512 .058000007 .504 .07300001 .504 C .094000007 .504 .11800001 .51900008 .11800001 .549 C .11800001 .58100005 .094000007 .595 .072000008 .595 C .06600001 .595 .064 .595 .061000006 .59400007 C .099 .66200008 .19300002 .66200008 .19800002 .66200008 C .231 .66200008 .296 .6470001 .296 .549 C .296 .53000006 .293 .474 .264 .43100003 C .234 .38700003 .20000002 .384 .17300001 .38300003 L .143 .38000003 Z "/>
</symbol>
<use xlink:href="#font_9_35" transform="matrix(38.7436,0,0,-38.7436,73.09429,706.88088)"/>
<path transform="matrix(2.7777777,0,0,-2.7777777,0,800)" stroke-width=".8" stroke-linecap="butt" stroke-linejoin="round" fill="none" stroke="#000000" d="M 39.570585 76.34634 L 36.070585 76.34634 "/>
<use xlink:href="#font_8_1" transform="matrix(38.7436,0,0,-38.7436,44.587545,592.8181)"/>
<use xlink:href="#font_9_34" transform="matrix(38.7436,0,0,-38.7436,73.40424,601.7291)"/>
<path transform="matrix(2.7777777,0,0,-2.7777777,0,800)" stroke-width=".8" stroke-linecap="butt" stroke-linejoin="round" fill="none" stroke="#000000" d="M 39.570585 113.908069 L 36.070585 113.908069 "/>
<use xlink:href="#font_8_1" transform="matrix(38.7436,0,0,-38.7436,44.587545,488.47999)"/>
<use xlink:href="#font_9_33" transform="matrix(38.7436,0,0,-38.7436,75.03147,497.39103)"/>
<path transform="matrix(2.7777777,0,0,-2.7777777,0,800)" stroke-width=".8" stroke-linecap="butt" stroke-linejoin="round" fill="none" stroke="#000000" d="M 39.570585 151.4698 L 36.070585 151.4698 "/>
<use xlink:href="#font_9_32" transform="matrix(38.7436,0,0,-38.7436,73.0943,393.8665)"/>
<path transform="matrix(2.7777777,0,0,-2.7777777,0,800)" stroke-width=".8" stroke-linecap="butt" stroke-linejoin="round" fill="none" stroke="#000000" d="M 39.570585 189.03154 L 36.070585 189.03154 "/>
<use xlink:href="#font_9_33" transform="matrix(38.7436,0,0,-38.7436,75.03148,288.7147)"/>
<path transform="matrix(2.7777777,0,0,-2.7777777,0,800)" stroke-width=".8" stroke-linecap="butt" stroke-linejoin="round" fill="none" stroke="#000000" d="M 39.570585 226.59326 L 36.070585 226.59326 "/>
<use xlink:href="#font_9_34" transform="matrix(38.7436,0,0,-38.7436,73.40425,184.37653)"/>
<path transform="matrix(2.7777777,0,0,-2.7777777,0,800)" stroke-width=".8" stroke-linecap="butt" stroke-linejoin="round" fill="none" stroke="#000000" d="M 39.570585 264.155 L 36.070585 264.155 "/>
<use xlink:href="#font_9_35" transform="matrix(38.7436,0,0,-38.7436,73.0943,80.852008)"/>
<use xlink:href="#font_a_79" transform="matrix(38.7436,0,0,-38.7436,24.709435,371.38587)"/>
<symbol id="font_b_34">
<path d="M .411 .177 L .38300003 .177 C .381 .164 .37300004 .105000007 .36 .089 C .35400004 .080000009 .28500004 .080000009 .26500003 .080000009 L .08700001 .080000009 L .18600002 .17400001 C .35000003 .316 .411 .36900003 .411 .47100003 C .411 .586 .316 .666 .19300002 .666 C .07800001 .666 0 .57500007 0 .48400004 C 0 .43400003 .043 .42900003 .052000006 .42900003 C .074 .42900003 .104 .44500003 .104 .48100005 C .104 .51100006 .083000008 .53300008 .052000006 .53300008 C .047000003 .53300008 .044000005 .53300008 .040000004 .532 C .063999999 .60300007 .128 .63500007 .18200001 .63500007 C .284 .63500007 .319 .54 .319 .47100003 C .319 .36900003 .24200002 .286 .194 .23400001 L .011 .036000004 C 0 .025 0 .023000002 0 0 L .38300003 0 L .411 .177 Z "/>
</symbol>
<use xlink:href="#font_b_34" transform="matrix(27.120402,0,0,-27.120402,46.56544,376.8099)"/>
<clipPath id="cp12">
<path transform="matrix(2.7777777,0,0,-2.7777777,0,800)" d="M 39.570585 35.028429 L 336.15473 35.028429 L 336.15473 267.9112 L 39.570585 267.9112 Z "/>
</clipPath>
<g clip-path="url(#cp12)">
<path transform="matrix(2.7777777,0,0,-2.7777777,0,800)" stroke-width="1.5" stroke-linecap="butt" stroke-dasharray="5.55,2.4" stroke-linejoin="round" fill="none" stroke="#1f77b4" d="M 46.63211 264.155 L 69.684589 243.87828 L 90.03711 226.28759 L 107.68161 211.33827 L 122.731067 198.87044 L 136.07633 188.09523 L 147.47994 179.15912 L 157.68279 171.44269 L 166.41327 165.11808 L 173.78572 160.04741 L 179.9875 156.04395 L 185.21739 152.92597 L 187.38364 151.7263 "/>
</g>
<clipPath id="cp13">
<path transform="matrix(2.7777777,0,0,-2.7777777,0,800)" d="M 39.570585 35.028429 L 336.15473 35.028429 L 336.15473 267.9112 L 39.570585 267.9112 Z "/>
</clipPath>
<g clip-path="url(#cp13)">
<path transform="matrix(2.7777777,0,0,-2.7777777,0,800)" stroke-width="1.5" stroke-linecap="butt" stroke-dasharray="5.55,2.4" stroke-linejoin="round" fill="none" stroke="#1f77b4" d="M 329.09318 38.7846 L 306.0407 59.061319 L 285.68818 76.65202 L 268.04368 91.601329 L 252.99423 104.06917 L 239.64897 114.844379 L 228.24535 123.78049 L 218.04251 131.49692 L 209.31201 137.82152 L 201.93958 142.8922 L 195.73778 146.89566 L 190.50789 150.01364 L 188.34166 151.2133 "/>
</g>
<clipPath id="cp14">
<path transform="matrix(2.7777777,0,0,-2.7777777,0,800)" d="M 39.570585 35.028429 L 336.15473 35.028429 L 336.15473 267.9112 L 39.570585 267.9112 Z "/>
</clipPath>
<g clip-path="url(#cp14)">
<path transform="matrix(2.7777777,0,0,-2.7777777,0,800)" stroke-width="1.5" stroke-linecap="butt" stroke-dasharray="5.55,2.4" stroke-linejoin="round" fill="none" stroke="#d62728" d="M 258.4779 189.03154 L 261.02964 181.89846 L 263.07225 175.48024 L 264.65715 169.71543 L 265.8313 164.54747 L 266.63768 159.9245 L 267.11537 155.79878 L 267.30009 152.12657 L 267.2245 148.86763 L 266.91816 145.98505 L 266.40818 143.44496 L 265.71907 141.2163 L 264.87315 139.27057 L 263.89073 137.58162 L 262.79023 136.12555 L 261.58827 134.88037 L 260.3 133.826 L 258.58888 132.74852 L 256.78785 131.90799 L 254.91782 131.27535 L 252.60825 130.7541 L 250.25276 130.45516 L 247.47725 130.34134 L 244.30576 130.46373 L 240.78124 130.8531 L 236.96462 131.51796 L 232.93167 132.4454 L 228.43346 133.7051 L 223.33864 135.37018 L 217.68102 137.46611 L 211.47055 140.01648 L 204.77118 143.01328 L 197.39246 146.56258 L 189.31218 150.70232 L 189.28365 150.71736 "/>
</g>
<clipPath id="cp15">
<path transform="matrix(2.7777777,0,0,-2.7777777,0,800)" d="M 39.570585 35.028429 L 336.15473 35.028429 L 336.15473 267.9112 L 39.570585 267.9112 Z "/>
</clipPath>
<g clip-path="url(#cp15)">
<path transform="matrix(2.7777777,0,0,-2.7777777,0,800)" stroke-width="1.5" stroke-linecap="butt" stroke-dasharray="5.55,2.4" stroke-linejoin="round" fill="none" stroke="#d62728" d="M 117.247379 113.908069 L 114.695659 121.041149 L 112.65305 127.45936 L 111.06815 133.22418 L 109.89399 138.39212 L 109.08764 143.0151 L 108.60995 147.14081 L 108.4252 150.81304 L 108.50082 154.07198 L 108.80713 156.95456 L 109.31713 159.49465 L 110.00624 161.72332 L 110.85215 163.66904 L 111.834568 165.35797 L 112.93508 166.81406 L 114.13702 168.05924 L 115.42531 169.11359 L 117.13642 170.19109 L 118.93744 171.0316 L 120.80748 171.66426 L 123.11705 172.1855 L 125.47253 172.48445 L 128.24805 172.59827 L 131.41954 172.47586 L 134.94405 172.0865 L 138.76068 171.42165 L 142.79363 170.4942 L 147.29184 169.23451 L 152.38666 167.56941 L 158.04428 165.47348 L 164.25475 162.92311 L 170.9541 159.92633 L 178.33283 156.37702 L 186.4131 152.23729 L 186.44165 152.22225 "/>
</g>
<clipPath id="cp16">
<path transform="matrix(2.7777777,0,0,-2.7777777,0,800)" d="M 39.570585 35.028429 L 336.15473 35.028429 L 336.15473 267.9112 L 39.570585 267.9112 Z "/>
</clipPath>
<g clip-path="url(#cp16)">
<path transform="matrix(2.7777777,0,0,-2.7777777,0,800)" stroke-width="1.5" stroke-linecap="butt" stroke-dasharray="5.55,2.4" stroke-linejoin="round" fill="none" stroke="#1f77b4" d="M 187.86264 189.03154 L 192.87439 180.81195 L 196.7598 174.01264 L 199.71503 168.40785 L 201.90496 163.80643 L 203.46799 160.04657 L 204.52011 156.99147 L 205.15839 154.52548 L 205.46387 152.55092 L 205.50408 150.98538 L 205.33516 149.7594 L 205.00366 148.81446 L 204.48401 148.02632 L 203.85166 147.47351 L 203.05995 147.07738 L 202.03743 146.83364 L 200.80562 146.77974 L 199.2412 146.94841 L 197.29647 147.39917 L 194.94277 148.18372 L 192.04915 149.39339 L 188.54476 151.11055 L 188.33524 151.22013 "/>
</g>
<clipPath id="cp17">
<path transform="matrix(2.7777777,0,0,-2.7777777,0,800)" d="M 39.570585 35.028429 L 336.15473 35.028429 L 336.15473 267.9112 L 39.570585 267.9112 Z "/>
</clipPath>
<g clip-path="url(#cp17)">
<path transform="matrix(2.7777777,0,0,-2.7777777,0,800)" stroke-width="1.5" stroke-linecap="butt" stroke-dasharray="5.55,2.4" stroke-linejoin="round" fill="none" stroke="#1f77b4" d="M 187.86264 113.908069 L 182.8509 122.127658 L 178.9655 128.92697 L 176.01027 134.53176 L 173.82033 139.13318 L 172.25731 142.89302 L 171.20517 145.94814 L 170.5669 148.41413 L 170.26143 150.38869 L 170.22122 151.95423 L 170.39014 153.1802 L 170.72164 154.12516 L 171.24129 154.91327 L 171.87364 155.46608 L 172.66535 155.86223 L 173.68785 156.10596 L 174.91968 156.15987 L 176.48409 155.99118 L 178.42882 155.54042 L 180.78253 154.75589 L 183.67615 153.54622 L 187.18054 151.82906 L 187.39005 151.71949 "/>
</g>
<path transform="matrix(2.7777777,0,0,-2.7777777,0,800)" stroke-width=".8" stroke-linecap="square" stroke-miterlimit="10" stroke-linejoin="miter" fill="none" stroke="#000000" d="M 39.570585 35.028429 L 39.570585 267.91117 "/>
<path transform="matrix(2.7777777,0,0,-2.7777777,0,800)" stroke-width=".8" stroke-linecap="square" stroke-miterlimit="10" stroke-linejoin="miter" fill="none" stroke="#000000" d="M 336.15473 35.028429 L 336.15473 267.91117 "/>
<path transform="matrix(2.7777777,0,0,-2.7777777,0,800)" stroke-width=".8" stroke-linecap="square" stroke-miterlimit="10" stroke-linejoin="miter" fill="none" stroke="#000000" d="M 39.570585 35.028429 L 336.15473 35.028429 "/>
<path transform="matrix(2.7777777,0,0,-2.7777777,0,800)" stroke-width=".8" stroke-linecap="square" stroke-miterlimit="10" stroke-linejoin="miter" fill="none" stroke="#000000" d="M 39.570585 267.91117 L 336.15473 267.91117 "/>
</g>
</svg>
