<?xml version="1.0" encoding="UTF-8" standalone="no"?>
<!-- Created with Inkscape (http://www.inkscape.org/) -->

<svg
   version="1.1"
   id="svg1"
   width="228.868"
   height="141.82933"
   viewBox="0 0 228.868 141.82933"
   sodipodi:docname="convert.pdf"
   xmlns:inkscape="http://www.inkscape.org/namespaces/inkscape"
   xmlns:sodipodi="http://sodipodi.sourceforge.net/DTD/sodipodi-0.dtd"
   xmlns="http://www.w3.org/2000/svg"
   xmlns:svg="http://www.w3.org/2000/svg">
  <defs
     id="defs1" />
  <sodipodi:namedview
     id="namedview1"
     pagecolor="#ffffff"
     bordercolor="#000000"
     borderopacity="0.25"
     inkscape:showpageshadow="2"
     inkscape:pageopacity="0.0"
     inkscape:pagecheckerboard="0"
     inkscape:deskcolor="#d1d1d1">
    <inkscape:page
       x="0"
       y="0"
       inkscape:label="1"
       id="page1"
       width="228.868"
       height="141.82933"
       margin="0"
       bleed="0" />
  </sodipodi:namedview>
  <g
     id="g1"
     inkscape:groupmode="layer"
     inkscape:label="1">
    <path
       id="path1"
       d="M -44.34303,29.07048 H 44.34305 V 84.31674 H -44.34303 Z"
       style="fill:none;stroke:#000000;stroke-width:0.79701;stroke-linecap:butt;stroke-linejoin:miter;stroke-miterlimit:10;stroke-dasharray:none;stroke-opacity:1"
       transform="matrix(1.3333333,0,0,-1.3333333,114.44,112.952)" />
    <g
       id="g2"
       aria-label="˙x=f(x,u,w)&#10;u=π(x)"
       transform="matrix(1.3333333,0,0,1.3333333,76.546667,30.586667)">
      <path
         id="path2"
         d="m 1.9103125,-6.1411719 c 0,-0.2695312 -0.2226562,-0.5273437 -0.5273437,-0.5273437 -0.3398438,0 -0.53906255,0.28125 -0.53906255,0.5273437 0,0.2695313 0.23437505,0.5273438 0.52734375,0.5273438 0.3398438,0 0.5390625,-0.2695313 0.5390625,-0.5273438 z m 0,0"
         style="fill:#000000;fill-opacity:1;fill-rule:nonzero;stroke:none" />
      <path
         id="path3"
         d="m 1.5939063,-3.0122656 c 0.058594,-0.2578125 0.2929687,-1.171875 0.984375,-1.171875 0.046875,0 0.2929687,0 0.5039062,0.1289062 -0.28125,0.046875 -0.4804687,0.3046875 -0.4804687,0.5390625 0,0.1640625 0.1054687,0.3515625 0.375,0.3515625 0.2226562,0 0.5390625,-0.1875 0.5390625,-0.5859375 0,-0.515625 -0.5859375,-0.65625 -0.9257813,-0.65625 -0.5742187,0 -0.9257812,0.5273438 -1.0429687,0.7617188 -0.2578125,-0.65625 -0.7851563,-0.7617188 -1.07812505,-0.7617188 -1.04296875,0 -1.60546875,1.2890625 -1.60546875,1.5351563 0,0.1054687 0.1054688,0.1054687 0.1171875,0.1054687 0.0820312,0 0.1171875,-0.023437 0.12890625,-0.1171875 0.33984375,-1.0546875 0.99609375,-1.3007812 1.3359375,-1.3007812 0.1875,0 0.5390625,0.09375 0.5390625,0.6679687 0,0.3046875 -0.1640625,0.9726563 -0.5390625,2.3671875 -0.15234375,0.62109378 -0.50390625,1.04296878 -0.94921875,1.04296878 -0.0585938,0 -0.28125,0 -0.4921875,-0.12890625 0.24609375,-0.0585937 0.46875,-0.26953125 0.46875,-0.5390625 0,-0.26953123 -0.22265625,-0.35156253 -0.375,-0.35156253 -0.2929687,0 -0.5390625,0.25781253 -0.5390625,0.57421878 0,0.45703125 0.4921875,0.65625 0.9375,0.65625 0.65625,0 1.0078125,-0.69140625 1.04296875,-0.75 0.1171875,0.36328125 0.48046875,0.75 1.07812505,0.75 1.0195312,0 1.59375,-1.27734378 1.59375,-1.53515628 0,-0.09375 -0.09375,-0.09375 -0.1289063,-0.09375 -0.082031,0 -0.1054687,0.035156 -0.1289062,0.1054688 -0.328125,1.06640623 -0.9960938,1.31249998 -1.3242188,1.31249998 -0.3867187,0 -0.5390625,-0.328125 -0.5390625,-0.65625 0,-0.22265625 0.058594,-0.44531248 0.1640625,-0.87890628 z m 0,0"
         style="fill:#000000;fill-opacity:1;fill-rule:nonzero;stroke:none" />
      <path
         id="path4"
         d="m 13.56168,-3.2583594 c 0.152343,0 0.339843,0 0.339843,-0.1992187 0,-0.1992188 -0.1875,-0.1992188 -0.328125,-0.1992188 H 7.6085547 c -0.140625,0 -0.328125,0 -0.328125,0.1992188 0,0.1992187 0.1875,0.1992187 0.3398437,0.1992187 z m 0.01172,1.9335938 c 0.140625,0 0.328125,0 0.328125,-0.1992188 0,-0.1992187 -0.1875,-0.1992187 -0.339843,-0.1992187 H 7.6202734 c -0.1523437,0 -0.3398437,0 -0.3398437,0.1992187 0,0.1992188 0.1875,0.1992188 0.328125,0.1992188 z m 0,0"
         style="fill:#000000;fill-opacity:1;fill-rule:nonzero;stroke:none" />
      <path
         id="path5"
         d="m 20.891758,-3.9849219 h 0.855469 c 0.199218,0 0.304687,0 0.304687,-0.1992187 0,-0.1054688 -0.105469,-0.1054688 -0.269531,-0.1054688 h -0.832031 l 0.210937,-1.1367187 c 0.03516,-0.2109375 0.175781,-0.9140625 0.234375,-1.0429688 0.09375,-0.1875 0.257813,-0.3398437 0.46875,-0.3398437 0.04687,0 0.304688,0 0.492188,0.1875 -0.433594,0.035156 -0.539063,0.3867187 -0.539063,0.5390625 0,0.2226562 0.175781,0.3398437 0.363281,0.3398437 0.269532,0 0.550782,-0.2109375 0.550782,-0.5976562 0,-0.4570313 -0.457032,-0.6796875 -0.867188,-0.6796875 -0.339844,0 -0.960937,0.1757812 -1.265625,1.1601562 -0.05859,0.2109375 -0.08203,0.3164063 -0.328125,1.5703125 h -0.679687 c -0.199219,0 -0.304688,0 -0.304688,0.1875 0,0.1171875 0.09375,0.1171875 0.28125,0.1171875 h 0.65625 l -0.75,3.93750003 c -0.175781,0.9609375 -0.339844,1.87499997 -0.867187,1.87499997 -0.03516,0 -0.28125,0 -0.46875,-0.1875 0.457031,-0.023437 0.539062,-0.3867187 0.539062,-0.5390625 0,-0.22265622 -0.175781,-0.33984372 -0.363281,-0.33984372 -0.257813,0 -0.550781,0.2109375 -0.550781,0.59765622 0,0.4453125 0.433593,0.6796875 0.84375,0.6796875 0.550781,0 0.949218,-0.5859375 1.125,-0.9609375 0.328125,-0.63281247 0.550781,-1.83984372 0.5625,-1.91015622 z m 0,0"
         style="fill:#000000;fill-opacity:1;fill-rule:nonzero;stroke:none" />
      <path
         id="path6"
         d="m 26.481602,2.3900781 c 0,-0.035156 0,-0.046875 -0.164063,-0.2226562 -1.242187,-1.25390627 -1.570312,-3.12890627 -1.570312,-4.6640625 0,-1.7226563 0.386718,-3.4570313 1.605468,-4.7109375 0.128907,-0.1171875 0.128907,-0.1289063 0.128907,-0.1640625 0,-0.070312 -0.03516,-0.1054688 -0.09375,-0.1054688 -0.105469,0 -0.996094,0.6796875 -1.582032,1.9453125 -0.515625,1.1015625 -0.632812,2.203125 -0.632812,3.0351563 0,0.7851562 0.117187,1.99218748 0.65625,3.11718748 0.597656,1.21875002 1.453125,1.87500002 1.558594,1.87500002 0.05859,0 0.09375,-0.035156 0.09375,-0.1054688 z m 0,0"
         style="fill:#000000;fill-opacity:1;fill-rule:nonzero;stroke:none" />
      <path
         id="path7"
         d="m 30.392734,-3.0122656 c 0.05859,-0.2578125 0.292969,-1.171875 0.984375,-1.171875 0.04687,0 0.292969,0 0.503907,0.1289062 -0.28125,0.046875 -0.480469,0.3046875 -0.480469,0.5390625 0,0.1640625 0.105469,0.3515625 0.375,0.3515625 0.222656,0 0.539062,-0.1875 0.539062,-0.5859375 0,-0.515625 -0.585937,-0.65625 -0.925781,-0.65625 -0.574219,0 -0.925781,0.5273438 -1.042969,0.7617188 -0.257812,-0.65625 -0.785156,-0.7617188 -1.078125,-0.7617188 -1.042968,0 -1.605468,1.2890625 -1.605468,1.5351563 0,0.1054687 0.105468,0.1054687 0.117187,0.1054687 0.08203,0 0.117188,-0.023437 0.128906,-0.1171875 0.339844,-1.0546875 0.996094,-1.3007812 1.335938,-1.3007812 0.1875,0 0.539062,0.09375 0.539062,0.6679687 0,0.3046875 -0.164062,0.9726563 -0.539062,2.3671875 -0.152344,0.62109378 -0.503906,1.04296878 -0.949219,1.04296878 -0.05859,0 -0.28125,0 -0.492187,-0.12890625 0.246093,-0.0585937 0.46875,-0.26953125 0.46875,-0.5390625 0,-0.26953123 -0.222657,-0.35156253 -0.375,-0.35156253 -0.292969,0 -0.539063,0.25781253 -0.539063,0.57421878 0,0.45703125 0.492188,0.65625 0.9375,0.65625 0.65625,0 1.007813,-0.69140625 1.042969,-0.75 0.117187,0.36328125 0.480469,0.75 1.078125,0.75 1.019531,0 1.59375,-1.27734378 1.59375,-1.53515628 0,-0.09375 -0.09375,-0.09375 -0.128906,-0.09375 -0.08203,0 -0.105469,0.035156 -0.128907,0.1054688 -0.328125,1.06640623 -0.996093,1.31249998 -1.324218,1.31249998 -0.386719,0 -0.539063,-0.328125 -0.539063,-0.65625 0,-0.22265625 0.05859,-0.44531248 0.164063,-0.87890628 z m 4.391602,2.99999998 c 0,-0.65625 -0.257813,-1.04296878 -0.644531,-1.04296878 -0.328125,0 -0.527344,0.24609378 -0.527344,0.52734378 0,0.26953125 0.199219,0.527343745 0.527344,0.527343745 0.117187,0 0.246093,-0.035156245 0.351562,-0.128906245 0.02344,-0.0234375 0.03516,-0.0351563 0.04687,-0.0351563 0.01172,0 0.02344,0.0117188 0.02344,0.15234375 0,0.73828125 -0.351563,1.33593757 -0.679688,1.66406257 -0.105469,0.1054687 -0.105469,0.1289062 -0.105469,0.1640625 0,0.070312 0.04687,0.1054687 0.09375,0.1054687 0.117188,0 0.914063,-0.7617187 0.914063,-1.93359377 z m 5.888672,-0.55078125 c 0.105469,0.41015625 0.457031,0.66796875 0.878906,0.66796875 0.351563,0 0.574219,-0.22265625 0.738281,-0.5390625 0.175782,-0.36328125 0.304688,-0.97265628 0.304688,-0.99609378 0,-0.09375 -0.09375,-0.09375 -0.128906,-0.09375 -0.09375,0 -0.105469,0.035156 -0.140625,0.1757813 -0.128907,0.56249998 -0.328125,1.24218748 -0.738282,1.24218748 -0.210937,0 -0.316406,-0.12890625 -0.316406,-0.45703125 0,-0.22265625 0.128906,-0.69140623 0.199219,-1.04296873 l 0.28125,-1.078125 c 0.03516,-0.140625 0.128906,-0.5273438 0.175781,-0.6679688 0.04687,-0.234375 0.140625,-0.609375 0.140625,-0.6679687 0,-0.1875 -0.140625,-0.2695313 -0.28125,-0.2695313 -0.05859,0 -0.316406,0 -0.386719,0.3398438 -0.199218,0.7265625 -0.632812,2.4726562 -0.75,2.99999998 -0.01172,0.046875 -0.410156,0.84375 -1.136718,0.84375 -0.515625,0 -0.621094,-0.45703125 -0.621094,-0.8203125 0,-0.56249998 0.28125,-1.34765628 0.539062,-2.02734378 0.117188,-0.3046875 0.175782,-0.4453125 0.175782,-0.6328125 0,-0.4453125 -0.328125,-0.8203125 -0.820313,-0.8203125 -0.949219,0 -1.3125,1.453125 -1.3125,1.5351563 0,0.1054687 0.09375,0.1054687 0.117188,0.1054687 0.09375,0 0.105468,-0.023437 0.152343,-0.1875 0.257813,-0.8671875 0.632813,-1.2304687 1.007813,-1.2304687 0.09375,0 0.257812,0.011719 0.257812,0.328125 0,0.234375 -0.117187,0.5273437 -0.175781,0.6796875 -0.363281,0.984375 -0.574219,1.6054687 -0.574219,2.0859375 0,0.94921873 0.679688,1.19531248 1.21875,1.19531248 0.65625,0 1.019532,-0.4453125 1.195313,-0.66796875 z m 4.236328,0.55078125 c 0,-0.65625 -0.257813,-1.04296878 -0.644531,-1.04296878 -0.328125,0 -0.527344,0.24609378 -0.527344,0.52734378 0,0.26953125 0.199219,0.527343745 0.527344,0.527343745 0.117187,0 0.246093,-0.035156245 0.351562,-0.128906245 0.02344,-0.0234375 0.03516,-0.0351563 0.04687,-0.0351563 0.01172,0 0.02344,0.0117188 0.02344,0.15234375 0,0.73828125 -0.351563,1.33593757 -0.679688,1.66406257 -0.105469,0.1054687 -0.105469,0.1289062 -0.105469,0.1640625 0,0.070312 0.04687,0.1054687 0.09375,0.1054687 0.117188,0 0.914063,-0.7617187 0.914063,-1.93359377 z m 7.010742,-3.36328128 c 0.04687,-0.2226562 0.140625,-0.5859375 0.140625,-0.6445312 0,-0.1875 -0.128906,-0.2695313 -0.28125,-0.2695313 -0.117187,0 -0.304687,0.070312 -0.375,0.2695313 -0.02344,0.070312 -0.492187,1.9804687 -0.5625,2.2382812 -0.07031,0.2929688 -0.09375,0.4804688 -0.09375,0.65625 0,0.1054688 0,0.12890628 0.01172,0.17578128 -0.222656,0.52734375 -0.527344,0.84375 -0.914063,0.84375 -0.796875,0 -0.796875,-0.73828125 -0.796875,-0.91406248 0,-0.3164063 0.04687,-0.703125 0.515625,-1.9335938 0.105469,-0.2929687 0.175782,-0.4335937 0.175782,-0.6328125 0,-0.4453125 -0.328125,-0.8203125 -0.820313,-0.8203125 -0.949219,0 -1.3125,1.453125 -1.3125,1.5351563 0,0.1054687 0.09375,0.1054687 0.117188,0.1054687 0.09375,0 0.105468,-0.023437 0.152343,-0.1875 0.269532,-0.9257812 0.667969,-1.2304687 1.007813,-1.2304687 0.09375,0 0.257812,0.011719 0.257812,0.328125 0,0.2460937 -0.117187,0.5273437 -0.1875,0.703125 -0.433593,1.171875 -0.550781,1.6289062 -0.550781,2.0039062 0,0.91406253 0.667969,1.25390628 1.40625,1.25390628 0.175781,0 0.644531,0 1.042969,-0.69140625 0.257812,0.6328125 0.949219,0.69140625 1.242187,0.69140625 0.75,0 1.183594,-0.62109375 1.441407,-1.21874998 0.339843,-0.7851563 0.65625,-2.109375 0.65625,-2.5898438 0,-0.5507812 -0.269532,-0.703125 -0.433594,-0.703125 -0.246094,0 -0.503906,0.2578125 -0.503906,0.4804688 0,0.1289062 0.07031,0.1875 0.152343,0.2695312 0.117188,0.1054688 0.363282,0.3632813 0.363282,0.84375 0,0.3398438 -0.292969,1.3125 -0.550782,1.82812503 -0.257812,0.52734375 -0.609375,0.87890625 -1.089843,0.87890625 -0.46875,0 -0.738282,-0.3046875 -0.738282,-0.8671875 0,-0.28124998 0.07031,-0.58593748 0.105469,-0.72656248 z m 0,0"
         style="fill:#000000;fill-opacity:1;fill-rule:nonzero;stroke:none" />
      <path
         id="path8"
         d="m 57.597813,-2.4966406 c 0,-0.7734375 -0.117188,-1.9804688 -0.65625,-3.1054688 -0.597657,-1.21875 -1.464844,-1.875 -1.558594,-1.875 -0.05859,0 -0.105469,0.046875 -0.105469,0.1054688 0,0.035156 0,0.046875 0.199219,0.234375 0.972656,0.984375 1.535156,2.5664062 1.535156,4.640625 0,1.71093748 -0.363281,3.45703123 -1.59375,4.7226562 C 55.2775,2.3432031 55.2775,2.3549219 55.2775,2.3900781 c 0,0.058594 0.04687,0.1054688 0.105469,0.1054688 0.09375,0 0.996094,-0.6796875 1.582031,-1.94531252 0.503906,-1.1015625 0.632813,-2.20312498 0.632813,-3.04687498 z m 0,0"
         style="fill:#000000;fill-opacity:1;fill-rule:nonzero;stroke:none" />
      <path
         id="path9"
         d="m 1.7433203,14.381289 c 0.1054688,0.410156 0.4570313,0.667969 0.8789063,0.667969 0.3515625,0 0.5742187,-0.222656 0.7382812,-0.539063 0.1757813,-0.363281 0.3046875,-0.972656 0.3046875,-0.996093 0,-0.09375 -0.09375,-0.09375 -0.1289062,-0.09375 -0.09375,0 -0.1054688,0.03516 -0.140625,0.175781 -0.1289063,0.5625 -0.328125,1.242187 -0.7382813,1.242187 -0.2109375,0 -0.3164062,-0.128906 -0.3164062,-0.457031 0,-0.222656 0.1289062,-0.691406 0.1992187,-1.042969 l 0.28125,-1.078125 c 0.035156,-0.140625 0.1289063,-0.527343 0.1757813,-0.667968 0.046875,-0.234375 0.140625,-0.609375 0.140625,-0.667969 0,-0.1875 -0.140625,-0.269531 -0.28125,-0.269531 -0.058594,0 -0.3164063,0 -0.3867188,0.339843 -0.1992187,0.726563 -0.6328125,2.472657 -0.75,3 -0.011719,0.04687 -0.4101562,0.84375 -1.13671874,0.84375 -0.515625,0 -0.62109375,-0.457031 -0.62109375,-0.820312 0,-0.5625 0.28125,-1.347656 0.5390625,-2.027344 0.1171875,-0.304687 0.17578125,-0.445312 0.17578125,-0.632812 0,-0.445313 -0.328125,-0.820313 -0.8203125,-0.820313 -0.94921876,0 -1.31249996,1.453125 -1.31249996,1.535156 0,0.105469 0.09375,0.105469 0.1171875,0.105469 0.09375,0 0.1054687,-0.02344 0.1523437,-0.1875 0.25781251,-0.867187 0.63281251,-1.230469 1.00781251,-1.230469 0.09375,0 0.2578125,0.01172 0.2578125,0.328125 0,0.234375 -0.1171875,0.527344 -0.17578125,0.679688 -0.36328125,0.984375 -0.57421875,1.605469 -0.57421875,2.085937 0,0.949219 0.6796875,1.195313 1.21875,1.195313 0.65624999,0 1.01953129,-0.445313 1.19531249,-0.667969 z m 0,0"
         style="fill:#000000;fill-opacity:1;fill-rule:nonzero;stroke:none" />
      <path
         id="path10"
         d="m 13.567539,11.685977 c 0.152344,0 0.339844,0 0.339844,-0.199219 0,-0.199219 -0.1875,-0.199219 -0.328125,-0.199219 H 7.6144141 c -0.140625,0 -0.328125,0 -0.328125,0.199219 0,0.199219 0.1875,0.199219 0.3398437,0.199219 z m 0.01172,1.933593 c 0.140625,0 0.328125,0 0.328125,-0.199218 0,-0.199219 -0.1875,-0.199219 -0.339844,-0.199219 H 7.6261328 c -0.1523437,0 -0.3398437,0 -0.3398437,0.199219 0,0.199218 0.1875,0.199218 0.328125,0.199218 z m 0,0"
         style="fill:#000000;fill-opacity:1;fill-rule:nonzero;stroke:none" />
      <path
         id="path11"
         d="m 19.869297,11.228945 h 1.125 c -0.328125,1.476563 -0.410156,1.898438 -0.410156,2.566407 0,0.152343 0,0.421875 0.07031,0.761718 0.105469,0.433594 0.210938,0.492188 0.363281,0.492188 0.199219,0 0.410157,-0.175781 0.410157,-0.375 0,-0.05859 0,-0.08203 -0.05859,-0.222656 -0.292969,-0.714844 -0.292969,-1.359375 -0.292969,-1.640625 0,-0.527344 0.07031,-1.066407 0.175781,-1.582032 h 1.136719 c 0.128906,0 0.492188,0 0.492188,-0.339843 0,-0.234375 -0.210938,-0.234375 -0.398438,-0.234375 h -3.339844 c -0.210937,0 -0.597656,0 -1.03125,0.46875 -0.351562,0.386718 -0.609375,0.84375 -0.609375,0.890625 0,0.01172 0,0.105468 0.117188,0.105468 0.08203,0 0.105469,-0.04687 0.164062,-0.128906 0.480469,-0.761719 1.066407,-0.761719 1.265625,-0.761719 h 0.5625 c -0.316406,1.207032 -0.855468,2.414063 -1.277343,3.316407 -0.07031,0.152343 -0.07031,0.164062 -0.07031,0.234375 0,0.199218 0.152344,0.269531 0.28125,0.269531 0.304688,0 0.386719,-0.269531 0.503906,-0.644531 0.140625,-0.457032 0.140625,-0.480469 0.269532,-0.972657 z m 0,0"
         style="fill:#000000;fill-opacity:1;fill-rule:nonzero;stroke:none" />
      <path
         id="path12"
         d="m 26.563633,17.334414 c 0,-0.03516 0,-0.04687 -0.164063,-0.222656 -1.242187,-1.253906 -1.570312,-3.128906 -1.570312,-4.664063 0,-1.722656 0.386719,-3.4570309 1.605469,-4.7109372 0.128906,-0.1171875 0.128906,-0.1289062 0.128906,-0.1640625 0,-0.070312 -0.03516,-0.1054687 -0.09375,-0.1054687 -0.105469,0 -0.996094,0.6796875 -1.582031,1.9453125 -0.515625,1.1015629 -0.632813,2.2031249 -0.632813,3.0351559 0,0.785157 0.117188,1.992188 0.65625,3.117188 0.597656,1.21875 1.453125,1.875 1.558594,1.875 0.05859,0 0.09375,-0.03516 0.09375,-0.105469 z m 0,0"
         style="fill:#000000;fill-opacity:1;fill-rule:nonzero;stroke:none" />
      <path
         id="path13"
         d="m 30.471836,11.93207 c 0.05859,-0.257812 0.292969,-1.171875 0.984375,-1.171875 0.04687,0 0.292969,0 0.503906,0.128907 -0.28125,0.04687 -0.480469,0.304687 -0.480469,0.539062 0,0.164063 0.105469,0.351563 0.375,0.351563 0.222657,0 0.539063,-0.1875 0.539063,-0.585938 0,-0.515625 -0.585938,-0.65625 -0.925781,-0.65625 -0.574219,0 -0.925782,0.527344 -1.042969,0.761719 -0.257813,-0.65625 -0.785156,-0.761719 -1.078125,-0.761719 -1.042969,0 -1.605469,1.289063 -1.605469,1.535156 0,0.105469 0.105469,0.105469 0.117188,0.105469 0.08203,0 0.117187,-0.02344 0.128906,-0.117187 0.339844,-1.054688 0.996094,-1.300782 1.335937,-1.300782 0.1875,0 0.539063,0.09375 0.539063,0.667969 0,0.304688 -0.164063,0.972656 -0.539063,2.367188 -0.152343,0.621093 -0.503906,1.042968 -0.949218,1.042968 -0.05859,0 -0.28125,0 -0.492188,-0.128906 0.246094,-0.05859 0.46875,-0.269531 0.46875,-0.539062 0,-0.269532 -0.222656,-0.351563 -0.375,-0.351563 -0.292969,0 -0.539062,0.257813 -0.539062,0.574219 0,0.457031 0.492187,0.65625 0.9375,0.65625 0.65625,0 1.007812,-0.691406 1.042968,-0.75 0.117188,0.363281 0.480469,0.75 1.078125,0.75 1.019532,0 1.59375,-1.277344 1.59375,-1.535156 0,-0.09375 -0.09375,-0.09375 -0.128906,-0.09375 -0.08203,0 -0.105469,0.03516 -0.128906,0.105468 -0.328125,1.066407 -0.996094,1.3125 -1.324219,1.3125 -0.386719,0 -0.539062,-0.328125 -0.539062,-0.65625 0,-0.222656 0.05859,-0.445312 0.164062,-0.878906 z m 0,0"
         style="fill:#000000;fill-opacity:1;fill-rule:nonzero;stroke:none" />
      <path
         id="path14"
         d="m 35.721836,12.447695 c 0,-0.773437 -0.117188,-1.980468 -0.65625,-3.1054684 -0.597656,-1.21875 -1.464844,-1.875 -1.558594,-1.875 -0.05859,0 -0.105469,0.046875 -0.105469,0.1054687 0,0.035156 0,0.046875 0.199219,0.234375 0.972656,0.984375 1.535156,2.5664067 1.535156,4.6406247 0,1.710938 -0.363281,3.457032 -1.59375,4.722657 -0.140625,0.117187 -0.140625,0.128906 -0.140625,0.164062 0,0.05859 0.04687,0.105469 0.105469,0.105469 0.09375,0 0.996094,-0.679688 1.582031,-1.945313 0.503907,-1.101562 0.632813,-2.203125 0.632813,-3.046875 z m 0,0"
         style="fill:#000000;fill-opacity:1;fill-rule:nonzero;stroke:none" />
    </g>
    <path
       id="path15"
       d="M -42.52022,-21.2601 H 42.52022 V 21.2601 H -42.52022 Z"
       style="fill:none;stroke:#000000;stroke-width:0.79701;stroke-linecap:butt;stroke-linejoin:miter;stroke-miterlimit:10;stroke-dasharray:none;stroke-opacity:1"
       transform="matrix(1.3333333,0,0,-1.3333333,114.44,112.952)" />
    <path
       id="path16"
       d="m -25.51216,14.17339 c 0,1.56555 -1.26909,2.83464 -2.83464,2.83464 -1.56555,0 -2.83464,-1.26909 -2.83464,-2.83464 0,-1.56554 1.26909,-2.83463 2.83464,-2.83463 1.56555,0 2.83464,1.26909 2.83464,2.83463 z"
       style="fill:none;stroke:#000000;stroke-width:1.99255;stroke-linecap:butt;stroke-linejoin:miter;stroke-miterlimit:10;stroke-dasharray:none;stroke-opacity:1"
       transform="matrix(1.3333333,0,0,-1.3333333,114.44,112.952)" />
    <path
       id="path17"
       d="m -25.51216,0 c 0,1.56554 -1.26909,2.83463 -2.83464,2.83463 -1.56555,0 -2.83464,-1.26909 -2.83464,-2.83463 0,-1.56554 1.26909,-2.83463 2.83464,-2.83463 1.56555,0 2.83464,1.26909 2.83464,2.83463 z"
       style="fill:none;stroke:#000000;stroke-width:1.99255;stroke-linecap:butt;stroke-linejoin:miter;stroke-miterlimit:10;stroke-dasharray:none;stroke-opacity:1"
       transform="matrix(1.3333333,0,0,-1.3333333,114.44,112.952)" />
    <path
       id="path18"
       d="m -25.51216,-14.17339 c 0,1.56554 -1.26909,2.83463 -2.83464,2.83463 -1.56555,0 -2.83464,-1.26909 -2.83464,-2.83463 0,-1.56555 1.26909,-2.83464 2.83464,-2.83464 1.56555,0 2.83464,1.26909 2.83464,2.83464 z"
       style="fill:none;stroke:#000000;stroke-width:1.99255;stroke-linecap:butt;stroke-linejoin:miter;stroke-miterlimit:10;stroke-dasharray:none;stroke-opacity:1"
       transform="matrix(1.3333333,0,0,-1.3333333,114.44,112.952)" />
    <path
       id="path19"
       d="m 2.83463,14.17339 c 0,1.56555 -1.26909,2.83464 -2.83463,2.83464 -1.56554,0 -2.83463,-1.26909 -2.83463,-2.83464 0,-1.56554 1.26909,-2.83463 2.83463,-2.83463 1.56554,0 2.83463,1.26909 2.83463,2.83463 z"
       style="fill:none;stroke:#000000;stroke-width:1.99255;stroke-linecap:butt;stroke-linejoin:miter;stroke-miterlimit:10;stroke-dasharray:none;stroke-opacity:1"
       transform="matrix(1.3333333,0,0,-1.3333333,114.44,112.952)" />
    <path
       id="path20"
       d="M 2.83463,0 C 2.83463,1.56554 1.56554,2.83463 0,2.83463 -1.56554,2.83463 -2.83463,1.56554 -2.83463,0 c 0,-1.56554 1.26909,-2.83463 2.83463,-2.83463 1.56554,0 2.83463,1.26909 2.83463,2.83463 z"
       style="fill:none;stroke:#000000;stroke-width:1.99255;stroke-linecap:butt;stroke-linejoin:miter;stroke-miterlimit:10;stroke-dasharray:none;stroke-opacity:1"
       transform="matrix(1.3333333,0,0,-1.3333333,114.44,112.952)" />
    <path
       id="path21"
       d="m 2.83463,-14.17339 c 0,1.56554 -1.26909,2.83463 -2.83463,2.83463 -1.56554,0 -2.83463,-1.26909 -2.83463,-2.83463 0,-1.56555 1.26909,-2.83464 2.83463,-2.83464 1.56554,0 2.83463,1.26909 2.83463,2.83464 z"
       style="fill:none;stroke:#000000;stroke-width:1.99255;stroke-linecap:butt;stroke-linejoin:miter;stroke-miterlimit:10;stroke-dasharray:none;stroke-opacity:1"
       transform="matrix(1.3333333,0,0,-1.3333333,114.44,112.952)" />
    <path
       id="path22"
       d="m 31.18144,14.17339 c 0,1.56555 -1.26909,2.83464 -2.83464,2.83464 -1.56555,0 -2.83464,-1.26909 -2.83464,-2.83464 0,-1.56554 1.26909,-2.83463 2.83464,-2.83463 1.56555,0 2.83464,1.26909 2.83464,2.83463 z"
       style="fill:none;stroke:#000000;stroke-width:1.99255;stroke-linecap:butt;stroke-linejoin:miter;stroke-miterlimit:10;stroke-dasharray:none;stroke-opacity:1"
       transform="matrix(1.3333333,0,0,-1.3333333,114.44,112.952)" />
    <path
       id="path23"
       d="m 31.18144,0 c 0,1.56554 -1.26909,2.83463 -2.83464,2.83463 -1.56555,0 -2.83464,-1.26909 -2.83464,-2.83463 0,-1.56554 1.26909,-2.83463 2.83464,-2.83463 1.56555,0 2.83464,1.26909 2.83464,2.83463 z"
       style="fill:none;stroke:#000000;stroke-width:1.99255;stroke-linecap:butt;stroke-linejoin:miter;stroke-miterlimit:10;stroke-dasharray:none;stroke-opacity:1"
       transform="matrix(1.3333333,0,0,-1.3333333,114.44,112.952)" />
    <path
       id="path24"
       d="m 31.18144,-14.17339 c 0,1.56554 -1.26909,2.83463 -2.83464,2.83463 -1.56555,0 -2.83464,-1.26909 -2.83464,-2.83463 0,-1.56555 1.26909,-2.83464 2.83464,-2.83464 1.56555,0 2.83464,1.26909 2.83464,2.83464 z"
       style="fill:none;stroke:#000000;stroke-width:1.99255;stroke-linecap:butt;stroke-linejoin:miter;stroke-miterlimit:10;stroke-dasharray:none;stroke-opacity:1"
       transform="matrix(1.3333333,0,0,-1.3333333,114.44,112.952)" />
    <path
       id="path25"
       d="M -24.51588,14.17339 H -3.8309"
       style="fill:none;stroke:#000000;stroke-width:0.79701;stroke-linecap:butt;stroke-linejoin:miter;stroke-miterlimit:10;stroke-dasharray:none;stroke-opacity:1"
       transform="matrix(1.3333333,0,0,-1.3333333,114.44,112.952)" />
    <path
       id="path26"
       d="M -24.92058,12.46031 -3.42627,1.71307"
       style="fill:none;stroke:#000000;stroke-width:0.79701;stroke-linecap:butt;stroke-linejoin:miter;stroke-miterlimit:10;stroke-dasharray:none;stroke-opacity:1"
       transform="matrix(1.3333333,0,0,-1.3333333,114.44,112.952)" />
    <path
       id="path27"
       d="M -25.638,11.46454 -2.70885,-11.4646"
       style="fill:none;stroke:#000000;stroke-width:0.79701;stroke-linecap:butt;stroke-linejoin:miter;stroke-miterlimit:10;stroke-dasharray:none;stroke-opacity:1"
       transform="matrix(1.3333333,0,0,-1.3333333,114.44,112.952)" />
    <path
       id="path28"
       d="M -24.92058,1.71307 -3.42627,12.46031"
       style="fill:none;stroke:#000000;stroke-width:0.79701;stroke-linecap:butt;stroke-linejoin:miter;stroke-miterlimit:10;stroke-dasharray:none;stroke-opacity:1"
       transform="matrix(1.3333333,0,0,-1.3333333,114.44,112.952)" />
    <path
       id="path29"
       d="M -24.51588,0 H -3.8309"
       style="fill:none;stroke:#000000;stroke-width:0.79701;stroke-linecap:butt;stroke-linejoin:miter;stroke-miterlimit:10;stroke-dasharray:none;stroke-opacity:1"
       transform="matrix(1.3333333,0,0,-1.3333333,114.44,112.952)" />
    <path
       id="path30"
       d="M -24.92058,-1.71307 -3.42627,-12.46031"
       style="fill:none;stroke:#000000;stroke-width:0.79701;stroke-linecap:butt;stroke-linejoin:miter;stroke-miterlimit:10;stroke-dasharray:none;stroke-opacity:1"
       transform="matrix(1.3333333,0,0,-1.3333333,114.44,112.952)" />
    <path
       id="path31"
       d="M -25.638,-11.46454 -2.70885,11.4646"
       style="fill:none;stroke:#000000;stroke-width:0.79701;stroke-linecap:butt;stroke-linejoin:miter;stroke-miterlimit:10;stroke-dasharray:none;stroke-opacity:1"
       transform="matrix(1.3333333,0,0,-1.3333333,114.44,112.952)" />
    <path
       id="path32"
       d="M -24.92058,-12.46031 -3.42627,-1.71307"
       style="fill:none;stroke:#000000;stroke-width:0.79701;stroke-linecap:butt;stroke-linejoin:miter;stroke-miterlimit:10;stroke-dasharray:none;stroke-opacity:1"
       transform="matrix(1.3333333,0,0,-1.3333333,114.44,112.952)" />
    <path
       id="path33"
       d="M -24.51588,-14.17339 H -3.8309"
       style="fill:none;stroke:#000000;stroke-width:0.79701;stroke-linecap:butt;stroke-linejoin:miter;stroke-miterlimit:10;stroke-dasharray:none;stroke-opacity:1"
       transform="matrix(1.3333333,0,0,-1.3333333,114.44,112.952)" />
    <path
       id="path34"
       d="M 3.8309,14.17339 H 24.51588"
       style="fill:none;stroke:#000000;stroke-width:0.79701;stroke-linecap:butt;stroke-linejoin:miter;stroke-miterlimit:10;stroke-dasharray:none;stroke-opacity:1"
       transform="matrix(1.3333333,0,0,-1.3333333,114.44,112.952)" />
    <path
       id="path35"
       d="M 3.42621,12.46031 24.92052,1.71307"
       style="fill:none;stroke:#000000;stroke-width:0.79701;stroke-linecap:butt;stroke-linejoin:miter;stroke-miterlimit:10;stroke-dasharray:none;stroke-opacity:1"
       transform="matrix(1.3333333,0,0,-1.3333333,114.44,112.952)" />
    <path
       id="path36"
       d="M 2.70879,11.46454 25.63794,-11.4646"
       style="fill:none;stroke:#000000;stroke-width:0.79701;stroke-linecap:butt;stroke-linejoin:miter;stroke-miterlimit:10;stroke-dasharray:none;stroke-opacity:1"
       transform="matrix(1.3333333,0,0,-1.3333333,114.44,112.952)" />
    <path
       id="path37"
       d="M 3.42621,1.71307 24.92052,12.46031"
       style="fill:none;stroke:#000000;stroke-width:0.79701;stroke-linecap:butt;stroke-linejoin:miter;stroke-miterlimit:10;stroke-dasharray:none;stroke-opacity:1"
       transform="matrix(1.3333333,0,0,-1.3333333,114.44,112.952)" />
    <path
       id="path38"
       d="M 3.8309,0 H 24.51588"
       style="fill:none;stroke:#000000;stroke-width:0.79701;stroke-linecap:butt;stroke-linejoin:miter;stroke-miterlimit:10;stroke-dasharray:none;stroke-opacity:1"
       transform="matrix(1.3333333,0,0,-1.3333333,114.44,112.952)" />
    <path
       id="path39"
       d="M 3.42621,-1.71307 24.92052,-12.46031"
       style="fill:none;stroke:#000000;stroke-width:0.79701;stroke-linecap:butt;stroke-linejoin:miter;stroke-miterlimit:10;stroke-dasharray:none;stroke-opacity:1"
       transform="matrix(1.3333333,0,0,-1.3333333,114.44,112.952)" />
    <path
       id="path40"
       d="M 2.70879,-11.46454 25.63794,11.4646"
       style="fill:none;stroke:#000000;stroke-width:0.79701;stroke-linecap:butt;stroke-linejoin:miter;stroke-miterlimit:10;stroke-dasharray:none;stroke-opacity:1"
       transform="matrix(1.3333333,0,0,-1.3333333,114.44,112.952)" />
    <path
       id="path41"
       d="M 3.42621,-12.46031 24.92052,-1.71307"
       style="fill:none;stroke:#000000;stroke-width:0.79701;stroke-linecap:butt;stroke-linejoin:miter;stroke-miterlimit:10;stroke-dasharray:none;stroke-opacity:1"
       transform="matrix(1.3333333,0,0,-1.3333333,114.44,112.952)" />
    <path
       id="path42"
       d="M 3.8309,-14.17339 H 24.51588"
       style="fill:none;stroke:#000000;stroke-width:0.79701;stroke-linecap:butt;stroke-linejoin:miter;stroke-miterlimit:10;stroke-dasharray:none;stroke-opacity:1"
       transform="matrix(1.3333333,0,0,-1.3333333,114.44,112.952)" />
    <path
       id="path43"
       d="m 44.74155,56.69362 h 28.3468 V 0 H 43.62608"
       style="fill:none;stroke:#000000;stroke-width:0.79701;stroke-linecap:butt;stroke-linejoin:miter;stroke-miterlimit:10;stroke-dasharray:none;stroke-opacity:1"
       transform="matrix(1.3333333,0,0,-1.3333333,114.44,112.952)" />
    <path
       id="path44"
       d="M -1.55415,2.0722 C -1.42464,1.29512 0,0.1295 0.38852,0 0,-0.1295 -1.42464,-1.29512 -1.55415,-2.0722"
       style="fill:none;stroke:#000000;stroke-width:0.6376;stroke-linecap:round;stroke-linejoin:round;stroke-miterlimit:10;stroke-dasharray:none;stroke-opacity:1"
       transform="matrix(-1.3333333,0,0,1.3333333,172.60811,112.952)" />
    <path
       id="path45"
       d="m 3.3268672,-3.012 c 0.058594,-0.2578125 0.2929687,-1.171875 0.984375,-1.171875 0.046875,0 0.2929687,0 0.5039062,0.1289063 -0.28125,0.046875 -0.4804687,0.3046875 -0.4804687,0.5390625 0,0.1640625 0.1054687,0.3515625 0.375,0.3515625 0.2226562,0 0.5390625,-0.1875 0.5390625,-0.5859375 0,-0.515625 -0.5859375,-0.65625 -0.9257813,-0.65625 -0.5742187,0 -0.9257812,0.5273437 -1.0429687,0.7617187 -0.2578125,-0.65625 -0.7851563,-0.7617187 -1.078125,-0.7617187 -1.0429688,0 -1.60546876,1.2890625 -1.60546876,1.5351562 0,0.1054688 0.10546875,0.1054688 0.1171875,0.1054688 0.0820313,0 0.1171875,-0.023437 0.12890625,-0.1171875 C 1.1823359,-3.9377812 1.8385859,-4.183875 2.1784297,-4.183875 c 0.1875,0 0.5390625,0.09375 0.5390625,0.6679688 0,0.3046875 -0.1640625,0.9726562 -0.5390625,2.3671875 C 2.0260859,-0.527625 1.6745234,-0.10575 1.2292109,-0.10575 c -0.058594,0 -0.28124996,0 -0.49218746,-0.12890625 0.24609375,-0.0585938 0.46874996,-0.26953125 0.46874996,-0.5390625 0,-0.26953125 -0.22265621,-0.35156245 -0.37499996,-0.35156245 -0.29296875,0 -0.5390625,0.25781245 -0.5390625,0.5742187 0,0.45703125 0.4921875,0.65625 0.93749996,0.65625 0.65625,0 1.0078125,-0.69140625 1.0429688,-0.75 0.1171875,0.36328125 0.4804687,0.75 1.078125,0.75 1.0195312,0 1.59375,-1.2773437 1.59375,-1.5351562 0,-0.09375 -0.09375,-0.09375 -0.1289063,-0.09375 -0.082031,0 -0.1054687,0.035156 -0.1289062,0.1054687 -0.328125,1.06640625 -0.9960938,1.3125 -1.3242188,1.3125 -0.3867187,0 -0.5390625,-0.328125 -0.5390625,-0.65625 0,-0.22265625 0.058594,-0.4453125 0.1640625,-0.8789062 z m 0,0"
       style="fill:#000000;fill-opacity:1;fill-rule:nonzero;stroke:none"
       aria-label="x"
       transform="matrix(1.3333333,0,0,1.3333333,216.84933,78.016)" />
    <path
       id="path46"
       d="M -45.44891,49.60692 H -73.08835 V 0 h 30.16963"
       style="fill:none;stroke:#000000;stroke-width:0.79701;stroke-linecap:butt;stroke-linejoin:miter;stroke-miterlimit:10;stroke-dasharray:none;stroke-opacity:1"
       transform="matrix(1.3333333,0,0,-1.3333333,114.44,112.952)" />
    <path
       id="path47"
       d="M -1.55415,2.0722 C -1.42464,1.29512 0,0.1295 0.38852,0 0,-0.1295 -1.42464,-1.29512 -1.55415,-2.0722"
       style="fill:none;stroke:#000000;stroke-width:0.6376;stroke-linecap:round;stroke-linejoin:round;stroke-miterlimit:10;stroke-dasharray:none;stroke-opacity:1"
       transform="matrix(1.3333333,0,0,-1.3333333,53.841453,46.80944)" />
    <path
       id="path48"
       d="m 3.4934531,-0.56378906 c 0.1054688,0.41015625 0.4570313,0.66796875 0.8789063,0.66796875 0.3515625,0 0.5742187,-0.22265625 0.7382812,-0.5390625 0.1757813,-0.36328125 0.3046875,-0.97265629 0.3046875,-0.99609379 0,-0.09375 -0.09375,-0.09375 -0.1289062,-0.09375 -0.09375,0 -0.1054688,0.035156 -0.140625,0.1757813 -0.1289063,0.56249999 -0.328125,1.24218749 -0.7382813,1.24218749 -0.2109375,0 -0.3164062,-0.12890625 -0.3164062,-0.45703125 0,-0.22265625 0.1289062,-0.69140624 0.1992187,-1.04296874 l 0.28125,-1.078125 c 0.035156,-0.140625 0.1289063,-0.5273438 0.1757813,-0.6679688 0.046875,-0.234375 0.140625,-0.609375 0.140625,-0.6679687 0,-0.1875 -0.140625,-0.2695313 -0.28125,-0.2695313 -0.058594,0 -0.3164063,0 -0.3867188,0.3398438 -0.1992187,0.7265625 -0.6328125,2.4726562 -0.75,2.99999999 -0.011719,0.046875 -0.4101562,0.84375 -1.1367187,0.84375 -0.515625,0 -0.6210938,-0.45703125 -0.6210938,-0.8203125 0,-0.56249999 0.28125,-1.34765629 0.5390625,-2.02734379 0.1171875,-0.3046875 0.1757813,-0.4453125 0.1757813,-0.6328125 0,-0.4453125 -0.328125,-0.8203125 -0.8203125,-0.8203125 -0.94921877,0 -1.31250002,1.453125 -1.31250002,1.5351563 0,0.1054687 0.09375,0.1054687 0.1171875,0.1054687 0.09375,0 0.10546875,-0.023437 0.15234375,-0.1875 0.2578125,-0.8671875 0.63281247,-1.2304687 1.00781247,-1.2304687 0.09375,0 0.2578125,0.011719 0.2578125,0.328125 0,0.234375 -0.1171875,0.5273437 -0.1757812,0.6796875 -0.3632813,0.984375 -0.5742188,1.6054687 -0.5742188,2.0859375 0,0.94921874 0.6796875,1.19531249 1.21875,1.19531249 0.65625,0 1.0195313,-0.4453125 1.1953125,-0.66796875 z m 0,0"
       style="fill:#000000;fill-opacity:1;fill-rule:nonzero;stroke:none"
       aria-label="u"
       transform="matrix(1.3333333,0,0,1.3333333,4.428,82.74)" />
    <path
       id="path49"
       d="M -45.44891,63.7803 H -73.08835"
       style="fill:none;stroke:#000000;stroke-width:0.79701;stroke-linecap:butt;stroke-linejoin:miter;stroke-miterlimit:10;stroke-dasharray:none;stroke-opacity:1"
       transform="matrix(1.3333333,0,0,-1.3333333,114.44,112.952)" />
    <path
       id="path50"
       d="M -1.55415,2.0722 C -1.42464,1.29512 0,0.1295 0.38852,0 0,-0.1295 -1.42464,-1.29512 -1.55415,-2.0722"
       style="fill:none;stroke:#000000;stroke-width:0.6376;stroke-linecap:round;stroke-linejoin:round;stroke-miterlimit:10;stroke-dasharray:none;stroke-opacity:1"
       transform="matrix(1.3333333,0,0,-1.3333333,53.841453,27.9116)" />
    <path
       id="path51"
       d="m 4.6043125,-3.3751562 c 0.046875,-0.2226563 0.140625,-0.5859375 0.140625,-0.6445313 0,-0.1875 -0.1289063,-0.2695312 -0.28125,-0.2695312 -0.1171875,0 -0.3046875,0.070312 -0.375,0.2695312 -0.023437,0.070312 -0.4921875,1.9804688 -0.5625,2.2382813 -0.070312,0.2929687 -0.09375,0.4804687 -0.09375,0.65625 0,0.1054687 0,0.1289062 0.011719,0.1757812 -0.2226562,0.52734375 -0.5273437,0.84375 -0.9140625,0.84375 -0.796875,0 -0.796875,-0.73828125 -0.796875,-0.9140625 0,-0.3164062 0.046875,-0.703125 0.515625,-1.9335937 0.1054685,-0.2929688 0.175781,-0.4335938 0.175781,-0.6328125 0,-0.4453125 -0.328125,-0.8203125 -0.8203125,-0.8203125 -0.94921875,0 -1.3125,1.453125 -1.3125,1.5351562 0,0.1054688 0.09375,0.1054688 0.1171875,0.1054688 0.09375,0 0.10546875,-0.023437 0.15234375,-0.1875 C 0.830875,-3.8790625 1.2293125,-4.18375 1.5691562,-4.18375 c 0.09375,0 0.2578125,0.011719 0.2578125,0.328125 0,0.2460938 -0.1171875,0.5273438 -0.1875,0.703125 -0.4335937,1.171875 -0.5507812,1.6289063 -0.5507812,2.0039063 0,0.91406245 0.6679687,1.2539062 1.40625,1.2539062 0.1757812,0 0.6445312,0 1.0429687,-0.69140625 0.2578125,0.6328125 0.9492188,0.69140625 1.2421875,0.69140625 0.75,0 1.1835938,-0.62109375 1.4414063,-1.21875 0.3398437,-0.7851562 0.65625,-2.109375 0.65625,-2.5898437 0,-0.5507813 -0.2695313,-0.703125 -0.4335938,-0.703125 -0.2460937,0 -0.5039062,0.2578125 -0.5039062,0.4804687 0,0.1289063 0.070312,0.1875 0.1523437,0.2695313 0.1171875,0.1054687 0.3632813,0.3632812 0.3632813,0.84375 0,0.3398437 -0.2929688,1.3125 -0.5507813,1.82812495 C 5.6472812,-0.4571875 5.2957187,-0.105625 4.81525,-0.105625 c -0.46875,0 -0.7382813,-0.3046875 -0.7382813,-0.8671875 0,-0.28125 0.070312,-0.5859375 0.1054688,-0.7265625 z m 0,0"
       style="fill:#000000;fill-opacity:1;fill-rule:nonzero;stroke:none"
       aria-label="w"
       transform="matrix(1.3333333,0,0,1.3333333,30.954667,22.953333)" />
  </g>
</svg>
