<?xml version="1.0" encoding="utf-8" standalone="no"?>
<!DOCTYPE svg PUBLIC "-//W3C//DTD SVG 1.1//EN"
  "http://www.w3.org/Graphics/SVG/1.1/DTD/svg11.dtd">
<svg xmlns:xlink="http://www.w3.org/1999/xlink" width="460.8pt" height="345.6pt" viewBox="0 0 460.8 345.6" xmlns="http://www.w3.org/2000/svg" version="1.1">
 <metadata>
  <rdf:RDF xmlns:dc="http://purl.org/dc/elements/1.1/" xmlns:cc="http://creativecommons.org/ns#" xmlns:rdf="http://www.w3.org/1999/02/22-rdf-syntax-ns#">
   <cc:Work>
    <dc:type rdf:resource="http://purl.org/dc/dcmitype/StillImage"/>
    <dc:date>2024-07-26T12:02:02.229390</dc:date>
    <dc:format>image/svg+xml</dc:format>
    <dc:creator>
     <cc:Agent>
      <dc:title>Matplotlib v3.8.2, https://matplotlib.org/</dc:title>
     </cc:Agent>
    </dc:creator>
   </cc:Work>
  </rdf:RDF>
 </metadata>
 <defs>
  <style type="text/css">*{stroke-linejoin: round; stroke-linecap: butt}</style>
 </defs>
 <g id="figure_1">
  <g id="patch_1">
   <path d="M 0 345.6 
L 460.8 345.6 
L 460.8 0 
L 0 0 
z
" style="fill: #ffffff"/>
  </g>
  <g id="patch_2">
   <path d="M 72.72 330.48 
L 388.08 330.48 
L 388.08 15.12 
L 72.72 15.12 
z
" style="fill: #ffffff"/>
  </g>
  <g id="pane3d_1">
   <g id="patch_3">
    <path d="M 94.134985 247.595287 
L 211.884785 176.991349 
L 211.071112 46.70057 
L 88.656442 108.159693 
" style="fill: #f2f2f2; opacity: 0.5; stroke: #f2f2f2; stroke-linejoin: miter"/>
   </g>
  </g>
  <g id="pane3d_2">
   <g id="patch_4">
    <path d="M 211.884785 176.991349 
L 371.580709 225.159619 
L 376.776376 88.588032 
L 211.071112 46.70057 
" style="fill: #e6e6e6; opacity: 0.5; stroke: #e6e6e6; stroke-linejoin: miter"/>
   </g>
  </g>
  <g id="pane3d_3">
   <g id="patch_5">
    <path d="M 94.134985 247.595287 
L 261.065118 304.90441 
L 371.580709 225.159619 
L 211.884785 176.991349 
" style="fill: #ececec; opacity: 0.5; stroke: #ececec; stroke-linejoin: miter"/>
   </g>
  </g>
  <g id="grid3d_1">
   <g id="Line3DCollection_1">
    <path d="M 112.437892 253.878895 
L 229.477045 182.297613 
L 229.290565 51.306137 
" style="fill: none; stroke: #b0b0b0; stroke-width: 0.8"/>
    <path d="M 143.31766 264.480291 
L 259.111589 191.23613 
L 260.001084 59.069232 
" style="fill: none; stroke: #b0b0b0; stroke-width: 0.8"/>
    <path d="M 174.950319 275.340163 
L 289.408594 200.374461 
L 291.423382 67.012252 
" style="fill: none; stroke: #b0b0b0; stroke-width: 0.8"/>
    <path d="M 207.363745 286.468082 
L 320.390524 209.719384 
L 323.582493 75.141527 
" style="fill: none; stroke: #b0b0b0; stroke-width: 0.8"/>
    <path d="M 240.587205 297.874096 
L 352.080872 219.277982 
L 356.504643 83.463684 
" style="fill: none; stroke: #b0b0b0; stroke-width: 0.8"/>
   </g>
  </g>
  <g id="grid3d_2">
   <g id="Line3DCollection_2">
    <path d="M 103.990783 100.460982 
L 108.844454 238.775345 
L 274.934839 294.896428 
" style="fill: none; stroke: #b0b0b0; stroke-width: 0.8"/>
    <path d="M 128.677457 88.066869 
L 132.549481 224.561578 
L 297.248006 278.795905 
" style="fill: none; stroke: #b0b0b0; stroke-width: 0.8"/>
    <path d="M 152.5363 76.088373 
L 155.488167 210.807316 
L 318.794643 263.248488 
" style="fill: none; stroke: #b0b0b0; stroke-width: 0.8"/>
    <path d="M 175.608265 64.504935 
L 177.697082 197.490632 
L 339.61358 248.226156 
" style="fill: none; stroke: #b0b0b0; stroke-width: 0.8"/>
    <path d="M 197.931648 53.297328 
L 199.210507 184.590971 
L 359.741072 233.702752 
" style="fill: none; stroke: #b0b0b0; stroke-width: 0.8"/>
   </g>
  </g>
  <g id="grid3d_3">
   <g id="Line3DCollection_3">
    <path d="M 372.163845 209.831499 
L 211.793289 162.340295 
L 93.520647 231.959617 
" style="fill: none; stroke: #b0b0b0; stroke-width: 0.8"/>
    <path d="M 373.140028 184.171881 
L 211.64022 137.829892 
L 92.491921 205.777297 
" style="fill: none; stroke: #b0b0b0; stroke-width: 0.8"/>
    <path d="M 374.13017 158.145321 
L 211.485088 112.989158 
L 91.448089 179.210508 
" style="fill: none; stroke: #b0b0b0; stroke-width: 0.8"/>
    <path d="M 375.134574 131.743894 
L 211.327851 87.811369 
L 90.388816 152.250718 
" style="fill: none; stroke: #b0b0b0; stroke-width: 0.8"/>
    <path d="M 376.15355 104.95944 
L 211.168466 62.289619 
L 89.313756 124.889143 
" style="fill: none; stroke: #b0b0b0; stroke-width: 0.8"/>
   </g>
  </g>
  <g id="axis3d_1">
   <g id="line2d_1">
    <path d="M 94.134985 247.595287 
L 261.065118 304.90441 
" style="fill: none; stroke: #000000; stroke-width: 0.8; stroke-linecap: square"/>
   </g>
   <g id="xtick_1">
    <g id="line2d_2">
     <path d="M 113.456366 253.255995 
L 110.396611 255.127345 
" style="fill: none; stroke: #000000; stroke-width: 0.8; stroke-linecap: square"/>
    </g>
    <g id="text_1">
     <!-- $\mathdefault{−1.0}$ -->
     <g transform="translate(89.661358 278.772304) scale(0.14 -0.14)">
      <defs>
       <path id="CMSY10-0" d="M 4218 1472 
C 4326 1472 4442 1472 4442 1600 
C 4442 1728 4326 1728 4218 1728 
L 755 1728 
C 646 1728 531 1728 531 1600 
C 531 1472 646 1472 755 1472 
L 4218 1472 
z
" transform="scale(0.015625)"/>
       <path id="CMR17-31" d="M 1702 4058 
C 1702 4192 1696 4192 1606 4192 
C 1357 3916 979 3827 621 3827 
C 602 3827 570 3827 563 3808 
C 557 3795 557 3782 557 3648 
C 755 3648 1088 3686 1344 3839 
L 1344 461 
C 1344 236 1331 160 781 160 
L 589 160 
L 589 0 
C 896 0 1216 0 1523 0 
C 1830 0 2150 0 2458 0 
L 2458 160 
L 2266 160 
C 1715 160 1702 230 1702 458 
L 1702 4058 
z
" transform="scale(0.015625)"/>
       <path id="CMMI12-3a" d="M 1178 307 
C 1178 492 1024 619 870 619 
C 685 619 557 466 557 313 
C 557 128 710 0 864 0 
C 1050 0 1178 153 1178 307 
z
" transform="scale(0.015625)"/>
       <path id="CMR17-30" d="M 2688 2025 
C 2688 2416 2682 3080 2413 3591 
C 2176 4039 1798 4198 1466 4198 
C 1158 4198 768 4058 525 3597 
C 269 3118 243 2524 243 2025 
C 243 1661 250 1106 448 619 
C 723 -39 1216 -128 1466 -128 
C 1760 -128 2208 -7 2470 600 
C 2662 1042 2688 1559 2688 2025 
z
M 1466 -26 
C 1056 -26 813 325 723 812 
C 653 1188 653 1738 653 2096 
C 653 2588 653 2997 736 3387 
C 858 3929 1216 4096 1466 4096 
C 1728 4096 2067 3923 2189 3400 
C 2272 3036 2278 2607 2278 2096 
C 2278 1680 2278 1169 2202 792 
C 2067 95 1690 -26 1466 -26 
z
" transform="scale(0.015625)"/>
      </defs>
      <use xlink:href="#CMSY10-0" transform="scale(0.996264)"/>
      <use xlink:href="#CMR17-31" transform="translate(77.487468 0) scale(0.996264)"/>
      <use xlink:href="#CMMI12-3a" transform="translate(123.177945 0) scale(0.996264)"/>
      <use xlink:href="#CMR17-30" transform="translate(150.275122 0) scale(0.996264)"/>
     </g>
    </g>
   </g>
   <g id="xtick_2">
    <g id="line2d_3">
     <path d="M 144.326276 263.842302 
L 141.296084 265.759016 
" style="fill: none; stroke: #000000; stroke-width: 0.8; stroke-linecap: square"/>
    </g>
    <g id="text_2">
     <!-- $\mathdefault{−0.5}$ -->
     <g transform="translate(120.548242 289.592718) scale(0.14 -0.14)">
      <defs>
       <path id="CMR17-35" d="M 730 3692 
C 794 3666 1056 3584 1325 3584 
C 1920 3584 2246 3911 2432 4100 
C 2432 4157 2432 4192 2394 4192 
C 2387 4192 2374 4192 2323 4163 
C 2099 4058 1837 3973 1517 3973 
C 1325 3973 1037 3999 723 4139 
C 653 4171 640 4171 634 4171 
C 602 4171 595 4164 595 4037 
L 595 2203 
C 595 2089 595 2057 659 2057 
C 691 2057 704 2070 736 2114 
C 941 2401 1222 2522 1542 2522 
C 1766 2522 2246 2382 2246 1289 
C 2246 1085 2246 715 2054 421 
C 1894 159 1645 25 1370 25 
C 947 25 518 320 403 814 
C 429 807 480 795 506 795 
C 589 795 749 840 749 1038 
C 749 1210 627 1280 506 1280 
C 358 1280 262 1190 262 1011 
C 262 454 704 -128 1382 -128 
C 2042 -128 2669 440 2669 1264 
C 2669 2030 2170 2624 1549 2624 
C 1222 2624 947 2503 730 2274 
L 730 3692 
z
" transform="scale(0.015625)"/>
      </defs>
      <use xlink:href="#CMSY10-0" transform="scale(0.996264)"/>
      <use xlink:href="#CMR17-30" transform="translate(77.487468 0) scale(0.996264)"/>
      <use xlink:href="#CMMI12-3a" transform="translate(123.177945 0) scale(0.996264)"/>
      <use xlink:href="#CMR17-35" transform="translate(150.275122 0) scale(0.996264)"/>
     </g>
    </g>
   </g>
   <g id="xtick_3">
    <g id="line2d_4">
     <path d="M 175.948292 274.68653 
L 172.950023 276.650279 
" style="fill: none; stroke: #000000; stroke-width: 0.8; stroke-linecap: square"/>
    </g>
    <g id="text_3">
     <!-- $\mathdefault{0.0}$ -->
     <g transform="translate(157.615059 300.677912) scale(0.14 -0.14)">
      <use xlink:href="#CMR17-30" transform="scale(0.996264)"/>
      <use xlink:href="#CMMI12-3a" transform="translate(45.690477 0) scale(0.996264)"/>
      <use xlink:href="#CMR17-30" transform="translate(72.787654 0) scale(0.996264)"/>
     </g>
    </g>
   </g>
   <g id="xtick_4">
    <g id="line2d_5">
     <path d="M 208.350238 285.798222 
L 205.386404 287.810758 
" style="fill: none; stroke: #000000; stroke-width: 0.8; stroke-linecap: square"/>
    </g>
    <g id="text_4">
     <!-- $\mathdefault{0.5}$ -->
     <g transform="translate(190.041659 312.037726) scale(0.14 -0.14)">
      <use xlink:href="#CMR17-30" transform="scale(0.996264)"/>
      <use xlink:href="#CMMI12-3a" transform="translate(45.690477 0) scale(0.996264)"/>
      <use xlink:href="#CMR17-35" transform="translate(72.787654 0) scale(0.996264)"/>
     </g>
    </g>
   </g>
   <g id="xtick_5">
    <g id="line2d_6">
     <path d="M 241.561331 297.187397 
L 238.6346 299.250561 
" style="fill: none; stroke: #000000; stroke-width: 0.8; stroke-linecap: square"/>
    </g>
    <g id="text_5">
     <!-- $\mathdefault{1.0}$ -->
     <g transform="translate(223.281657 323.682492) scale(0.14 -0.14)">
      <use xlink:href="#CMR17-31" transform="scale(0.996264)"/>
      <use xlink:href="#CMMI12-3a" transform="translate(45.690477 0) scale(0.996264)"/>
      <use xlink:href="#CMR17-30" transform="translate(72.787654 0) scale(0.996264)"/>
     </g>
    </g>
   </g>
   <g id="text_6">
    <!-- $y_1 = x_1$ -->
    <g transform="translate(134.53353 305.223748) rotate(-341.052037) scale(0.14 -0.14)">
     <defs>
      <path id="CMMI12-79" d="M 1683 -700 
C 1510 -939 1261 -1152 947 -1152 
C 870 -1152 563 -1152 467 -889 
C 486 -895 518 -895 531 -895 
C 723 -895 851 -729 851 -582 
C 851 -435 730 -384 634 -384 
C 531 -384 307 -458 307 -759 
C 307 -1071 582 -1286 947 -1286 
C 1587 -1286 2234 -700 2413 6 
L 3040 2485 
C 3046 2517 3059 2556 3059 2594 
C 3059 2689 2982 2753 2886 2753 
C 2829 2753 2694 2727 2643 2535 
L 2170 658 
C 2138 543 2138 530 2086 460 
C 1958 281 1747 64 1440 64 
C 1082 64 1050 415 1050 588 
C 1050 952 1222 1443 1395 1903 
C 1466 2088 1504 2178 1504 2305 
C 1504 2574 1312 2816 998 2816 
C 410 2816 173 1890 173 1839 
C 173 1814 198 1782 243 1782 
C 301 1782 307 1807 333 1897 
C 486 2433 730 2689 979 2689 
C 1037 2689 1146 2689 1146 2478 
C 1146 2312 1075 2127 979 1884 
C 666 1047 666 837 666 683 
C 666 77 1101 -64 1421 -64 
C 1606 -64 1837 -6 2061 230 
L 2067 224 
C 1971 -147 1907 -392 1683 -700 
z
" transform="scale(0.015625)"/>
      <path id="CMR17-3d" d="M 4115 2017 
C 4211 2017 4307 2017 4307 2125 
C 4307 2240 4198 2240 4090 2240 
L 512 2240 
C 403 2240 294 2240 294 2125 
C 294 2017 390 2017 486 2017 
L 4115 2017 
z
M 4090 896 
C 4198 896 4307 896 4307 1011 
C 4307 1119 4211 1119 4115 1119 
L 486 1119 
C 390 1119 294 1119 294 1011 
C 294 896 403 896 512 896 
L 4090 896 
z
" transform="scale(0.015625)"/>
      <path id="CMMI12-78" d="M 3034 2606 
C 2829 2567 2752 2414 2752 2293 
C 2752 2139 2874 2088 2963 2088 
C 3155 2088 3290 2254 3290 2427 
C 3290 2695 2982 2816 2714 2816 
C 2323 2816 2106 2433 2048 2312 
C 1901 2816 1504 2816 1389 2816 
C 736 2816 390 1980 390 1839 
C 390 1814 416 1782 461 1782 
C 512 1782 525 1820 538 1846 
C 755 2555 1184 2689 1370 2689 
C 1658 2689 1715 2420 1715 2267 
C 1715 2127 1677 1980 1600 1673 
L 1382 798 
C 1286 415 1101 64 762 64 
C 730 64 570 64 435 147 
C 666 192 717 383 717 460 
C 717 588 621 664 499 664 
C 346 664 179 530 179 326 
C 179 57 480 -64 755 -64 
C 1062 -64 1280 179 1414 441 
C 1517 64 1837 -64 2074 -64 
C 2726 -64 3072 773 3072 913 
C 3072 945 3046 971 3008 971 
C 2950 971 2944 939 2925 888 
C 2752 326 2381 64 2093 64 
C 1869 64 1747 230 1747 492 
C 1747 632 1773 734 1875 1156 
L 2099 2024 
C 2195 2408 2413 2689 2707 2689 
C 2720 2689 2899 2689 3034 2606 
z
" transform="scale(0.015625)"/>
     </defs>
     <use xlink:href="#CMMI12-79" transform="scale(0.996264)"/>
     <use xlink:href="#CMR17-31" transform="translate(47.564188 -14.943915) scale(0.697382)"/>
     <use xlink:href="#CMR17-3d" transform="translate(107.719511 0) scale(0.996264)"/>
     <use xlink:href="#CMMI12-78" transform="translate(207.108308 0) scale(0.996264)"/>
     <use xlink:href="#CMR17-31" transform="translate(262.542367 -14.943915) scale(0.697382)"/>
    </g>
   </g>
  </g>
  <g id="axis3d_2">
   <g id="line2d_7">
    <path d="M 371.580709 225.159619 
L 261.065118 304.90441 
" style="fill: none; stroke: #000000; stroke-width: 0.8; stroke-linecap: square"/>
   </g>
   <g id="xtick_6">
    <g id="line2d_8">
     <path d="M 273.520655 294.418583 
L 277.767615 295.853609 
" style="fill: none; stroke: #000000; stroke-width: 0.8; stroke-linecap: square"/>
    </g>
    <g id="text_7">
     <!-- $\mathdefault{−1.0}$ -->
     <g transform="translate(273.078912 318.816947) scale(0.14 -0.14)">
      <use xlink:href="#CMSY10-0" transform="scale(0.996264)"/>
      <use xlink:href="#CMR17-31" transform="translate(77.487468 0) scale(0.996264)"/>
      <use xlink:href="#CMMI12-3a" transform="translate(123.177945 0) scale(0.996264)"/>
      <use xlink:href="#CMR17-30" transform="translate(150.275122 0) scale(0.996264)"/>
     </g>
    </g>
   </g>
   <g id="xtick_7">
    <g id="line2d_9">
     <path d="M 295.847154 278.334612 
L 300.054001 279.719904 
" style="fill: none; stroke: #000000; stroke-width: 0.8; stroke-linecap: square"/>
    </g>
    <g id="text_8">
     <!-- $\mathdefault{−0.5}$ -->
     <g transform="translate(295.215781 302.443532) scale(0.14 -0.14)">
      <use xlink:href="#CMSY10-0" transform="scale(0.996264)"/>
      <use xlink:href="#CMR17-30" transform="translate(77.487468 0) scale(0.996264)"/>
      <use xlink:href="#CMMI12-3a" transform="translate(123.177945 0) scale(0.996264)"/>
      <use xlink:href="#CMR17-35" transform="translate(150.275122 0) scale(0.996264)"/>
     </g>
    </g>
   </g>
   <g id="xtick_8">
    <g id="line2d_10">
     <path d="M 317.407048 262.802901 
L 321.574009 264.141001 
" style="fill: none; stroke: #000000; stroke-width: 0.8; stroke-linecap: square"/>
    </g>
    <g id="text_9">
     <!-- $\mathdefault{0.0}$ -->
     <g transform="translate(322.014988 286.633562) scale(0.14 -0.14)">
      <use xlink:href="#CMR17-30" transform="scale(0.996264)"/>
      <use xlink:href="#CMMI12-3a" transform="translate(45.690477 0) scale(0.996264)"/>
      <use xlink:href="#CMR17-30" transform="translate(72.787654 0) scale(0.996264)"/>
     </g>
    </g>
   </g>
   <g id="xtick_9">
    <g id="line2d_11">
     <path d="M 338.239154 247.795488 
L 342.3665 249.088767 
" style="fill: none; stroke: #000000; stroke-width: 0.8; stroke-linecap: square"/>
    </g>
    <g id="text_10">
     <!-- $\mathdefault{0.5}$ -->
     <g transform="translate(342.666957 271.358445) scale(0.14 -0.14)">
      <use xlink:href="#CMR17-30" transform="scale(0.996264)"/>
      <use xlink:href="#CMMI12-3a" transform="translate(45.690477 0) scale(0.996264)"/>
      <use xlink:href="#CMR17-35" transform="translate(72.787654 0) scale(0.996264)"/>
     </g>
    </g>
   </g>
   <g id="xtick_10">
    <g id="line2d_12">
     <path d="M 358.379712 233.286265 
L 362.467754 234.536937 
" style="fill: none; stroke: #000000; stroke-width: 0.8; stroke-linecap: square"/>
    </g>
    <g id="text_11">
     <!-- $\mathdefault{1.0}$ -->
     <g transform="translate(362.631888 256.591492) scale(0.14 -0.14)">
      <use xlink:href="#CMR17-31" transform="scale(0.996264)"/>
      <use xlink:href="#CMMI12-3a" transform="translate(45.690477 0) scale(0.996264)"/>
      <use xlink:href="#CMR17-30" transform="translate(72.787654 0) scale(0.996264)"/>
     </g>
    </g>
   </g>
   <g id="text_12">
    <!-- $y_2 = x_2$ -->
    <g transform="translate(329.288111 308.040903) rotate(-35.813105) scale(0.14 -0.14)">
     <defs>
      <path id="CMR17-32" d="M 2669 989 
L 2554 989 
C 2490 536 2438 459 2413 420 
C 2381 369 1920 369 1830 369 
L 602 369 
C 832 619 1280 1072 1824 1597 
C 2214 1967 2669 2402 2669 3035 
C 2669 3790 2067 4224 1395 4224 
C 691 4224 262 3604 262 3030 
C 262 2780 448 2748 525 2748 
C 589 2748 781 2787 781 3010 
C 781 3207 614 3264 525 3264 
C 486 3264 448 3258 422 3245 
C 544 3790 915 4058 1306 4058 
C 1862 4058 2227 3617 2227 3035 
C 2227 2479 1901 2000 1536 1584 
L 262 146 
L 262 0 
L 2515 0 
L 2669 989 
z
" transform="scale(0.015625)"/>
     </defs>
     <use xlink:href="#CMMI12-79" transform="scale(0.996264)"/>
     <use xlink:href="#CMR17-32" transform="translate(47.564188 -14.943915) scale(0.697382)"/>
     <use xlink:href="#CMR17-3d" transform="translate(107.719511 0) scale(0.996264)"/>
     <use xlink:href="#CMMI12-78" transform="translate(207.108308 0) scale(0.996264)"/>
     <use xlink:href="#CMR17-32" transform="translate(262.542367 -14.943915) scale(0.697382)"/>
    </g>
   </g>
  </g>
  <g id="axis3d_3">
   <g id="line2d_13">
    <path d="M 371.580709 225.159619 
L 376.776376 88.588032 
" style="fill: none; stroke: #000000; stroke-width: 0.8; stroke-linecap: square"/>
   </g>
   <g id="xtick_11">
    <g id="line2d_14">
     <path d="M 370.804282 209.428886 
L 374.886905 210.63789 
" style="fill: none; stroke: #000000; stroke-width: 0.8; stroke-linecap: square"/>
    </g>
    <g id="text_13">
     <!-- $\mathdefault{−2}$ -->
     <g transform="translate(382.297535 218.262505) scale(0.14 -0.14)">
      <use xlink:href="#CMSY10-0" transform="scale(0.996264)"/>
      <use xlink:href="#CMR17-32" transform="translate(77.487468 0) scale(0.996264)"/>
     </g>
    </g>
   </g>
   <g id="xtick_12">
    <g id="line2d_15">
     <path d="M 371.770344 183.778853 
L 375.883387 184.959081 
" style="fill: none; stroke: #000000; stroke-width: 0.8; stroke-linecap: square"/>
    </g>
    <g id="text_14">
     <!-- $\mathdefault{−1}$ -->
     <g transform="translate(383.406392 192.638771) scale(0.14 -0.14)">
      <use xlink:href="#CMSY10-0" transform="scale(0.996264)"/>
      <use xlink:href="#CMR17-31" transform="translate(77.487468 0) scale(0.996264)"/>
     </g>
    </g>
   </g>
   <g id="xtick_13">
    <g id="line2d_16">
     <path d="M 372.750214 157.762195 
L 376.894133 158.912697 
" style="fill: none; stroke: #000000; stroke-width: 0.8; stroke-linecap: square"/>
    </g>
    <g id="text_15">
     <!-- $\mathdefault{0}$ -->
     <g transform="translate(389.955195 166.649279) scale(0.14 -0.14)">
      <use xlink:href="#CMR17-30" transform="scale(0.996264)"/>
     </g>
    </g>
   </g>
   <g id="xtick_14">
    <g id="line2d_17">
     <path d="M 373.744191 131.370996 
L 377.919451 132.49079 
" style="fill: none; stroke: #000000; stroke-width: 0.8; stroke-linecap: square"/>
    </g>
    <g id="text_16">
     <!-- $\mathdefault{1}$ -->
     <g transform="translate(391.096049 140.286141) scale(0.14 -0.14)">
      <use xlink:href="#CMR17-31" transform="scale(0.996264)"/>
     </g>
    </g>
   </g>
   <g id="xtick_15">
    <g id="line2d_18">
     <path d="M 374.752581 104.597109 
L 378.959659 105.685179 
" style="fill: none; stroke: #000000; stroke-width: 0.8; stroke-linecap: square"/>
    </g>
    <g id="text_17">
     <!-- $\mathdefault{2}$ -->
     <g transform="translate(392.253424 113.541242) scale(0.14 -0.14)">
      <use xlink:href="#CMR17-32" transform="scale(0.996264)"/>
     </g>
    </g>
   </g>
   <g id="text_18">
    <!-- $y_3 = x_1 + x_2$ -->
    <g transform="translate(417.950475 191.851271) rotate(-87.821316) scale(0.14 -0.14)">
     <defs>
      <path id="CMR17-33" d="M 1414 2157 
C 1984 2157 2234 1662 2234 1090 
C 2234 320 1824 25 1453 25 
C 1114 25 563 194 390 693 
C 422 680 454 680 486 680 
C 640 680 755 782 755 948 
C 755 1133 614 1216 486 1216 
C 378 1216 211 1165 211 926 
C 211 335 787 -128 1466 -128 
C 2176 -128 2720 430 2720 1085 
C 2720 1707 2208 2157 1600 2227 
C 2086 2328 2554 2756 2554 3329 
C 2554 3820 2048 4179 1472 4179 
C 890 4179 378 3829 378 3329 
C 378 3110 544 3072 627 3072 
C 762 3072 877 3155 877 3321 
C 877 3486 762 3569 627 3569 
C 602 3569 570 3569 544 3557 
C 730 3959 1235 4032 1459 4032 
C 1683 4032 2106 3925 2106 3320 
C 2106 3143 2080 2828 1862 2550 
C 1670 2304 1453 2304 1242 2284 
C 1210 2284 1062 2269 1037 2269 
C 992 2263 966 2257 966 2208 
C 966 2163 973 2157 1101 2157 
L 1414 2157 
z
" transform="scale(0.015625)"/>
      <path id="CMR17-2b" d="M 2413 1472 
L 4109 1472 
C 4198 1472 4307 1472 4307 1580 
C 4307 1695 4205 1695 4109 1695 
L 2413 1695 
L 2413 3386 
C 2413 3475 2413 3584 2304 3584 
C 2189 3584 2189 3482 2189 3386 
L 2189 1695 
L 493 1695 
C 403 1695 294 1695 294 1587 
C 294 1472 397 1472 493 1472 
L 2189 1472 
L 2189 -218 
C 2189 -307 2189 -416 2298 -416 
C 2413 -416 2413 -314 2413 -218 
L 2413 1472 
z
" transform="scale(0.015625)"/>
     </defs>
     <use xlink:href="#CMMI12-79" transform="scale(0.996264)"/>
     <use xlink:href="#CMR17-33" transform="translate(47.564188 -14.943915) scale(0.697382)"/>
     <use xlink:href="#CMR17-3d" transform="translate(107.719511 0) scale(0.996264)"/>
     <use xlink:href="#CMMI12-78" transform="translate(207.108308 0) scale(0.996264)"/>
     <use xlink:href="#CMR17-31" transform="translate(262.542367 -14.943915) scale(0.697382)"/>
     <use xlink:href="#CMR17-2b" transform="translate(317.162888 0) scale(0.996264)"/>
     <use xlink:href="#CMMI12-78" transform="translate(411.016884 0) scale(0.996264)"/>
     <use xlink:href="#CMR17-32" transform="translate(466.450943 -14.943915) scale(0.697382)"/>
    </g>
   </g>
  </g>
  <g id="axes_1">
   <g id="line2d_19">
    <path d="M 125.811867 203.212194 
L 254.815455 244.734813 
L 341.334317 186.620412 
L 216.691794 150.337944 
L 125.811867 203.212194 
" clip-path="url(#pc65cc6ecb1)" style="fill: none; stroke: #1f77b4; stroke-width: 2; stroke-linecap: square"/>
   </g>
   <g id="line2d_20">
    <path d="M 124.206698 149.815221 
L 255.127763 189.267161 
L 342.875465 134.067131 
L 216.443922 99.661964 
L 124.206698 149.815221 
" clip-path="url(#pc65cc6ecb1)" style="fill: none; stroke: #1f77b4; stroke-opacity: 0.1; stroke-width: 2; stroke-linecap: square"/>
   </g>
   <g id="line2d_21">
    <path d="M 125.811867 203.212194 
L 254.815455 244.734813 
L 255.127763 189.267161 
L 124.206698 149.815221 
L 125.811867 203.212194 
" clip-path="url(#pc65cc6ecb1)" style="fill: none; stroke: #1f77b4; stroke-opacity: 0.1; stroke-width: 2; stroke-linecap: square"/>
   </g>
   <g id="line2d_22">
    <path d="M 216.691794 150.337944 
L 341.334317 186.620412 
L 342.875465 134.067131 
L 216.443922 99.661964 
L 216.691794 150.337944 
" clip-path="url(#pc65cc6ecb1)" style="fill: none; stroke: #1f77b4; stroke-opacity: 0.1; stroke-width: 2; stroke-linecap: square"/>
   </g>
   <g id="line2d_23">
    <path d="M 125.811867 203.212194 
L 216.691794 150.337944 
L 216.443922 99.661964 
L 124.206698 149.815221 
L 125.811867 203.212194 
" clip-path="url(#pc65cc6ecb1)" style="fill: none; stroke: #1f77b4; stroke-opacity: 0.1; stroke-width: 2; stroke-linecap: square"/>
   </g>
   <g id="line2d_24">
    <path d="M 254.815455 244.734813 
L 341.334317 186.620412 
L 342.875465 134.067131 
L 255.127763 189.267161 
L 254.815455 244.734813 
" clip-path="url(#pc65cc6ecb1)" style="fill: none; stroke: #1f77b4; stroke-opacity: 0.1; stroke-width: 2; stroke-linecap: square"/>
   </g>
   <g id="line2d_25">
    <path d="M 172.74761 175.904819 
L 172.74761 175.904819 
L 216.691794 150.337944 
L 216.691794 150.337944 
L 172.74761 175.904819 
" clip-path="url(#pc65cc6ecb1)" style="fill: none; stroke: #9467bd; stroke-width: 2; stroke-linecap: square"/>
   </g>
   <g id="line2d_26">
    <path d="M 172.309462 150.087097 
L 172.309462 150.087097 
L 216.568707 125.17351 
L 216.568707 125.17351 
L 172.309462 150.087097 
" clip-path="url(#pc65cc6ecb1)" style="fill: none; stroke: #9467bd; stroke-opacity: 0.5; stroke-width: 2; stroke-linecap: square"/>
   </g>
   <g id="line2d_27">
    <path d="M 172.74761 175.904819 
L 172.74761 175.904819 
L 172.309462 150.087097 
L 172.309462 150.087097 
L 172.74761 175.904819 
" clip-path="url(#pc65cc6ecb1)" style="fill: none; stroke: #9467bd; stroke-opacity: 0.5; stroke-width: 2; stroke-linecap: square"/>
   </g>
   <g id="line2d_28">
    <path d="M 216.691794 150.337944 
L 216.691794 150.337944 
L 216.568707 125.17351 
L 216.568707 125.17351 
L 216.691794 150.337944 
" clip-path="url(#pc65cc6ecb1)" style="fill: none; stroke: #9467bd; stroke-opacity: 0.5; stroke-width: 2; stroke-linecap: square"/>
   </g>
   <g id="line2d_29">
    <path d="M 172.74761 175.904819 
L 216.691794 150.337944 
L 216.568707 125.17351 
L 172.309462 150.087097 
L 172.74761 175.904819 
" clip-path="url(#pc65cc6ecb1)" style="fill: none; stroke: #9467bd; stroke-opacity: 0.5; stroke-width: 2; stroke-linecap: square"/>
   </g>
   <g id="line2d_30">
    <path d="M 172.74761 175.904819 
L 216.691794 150.337944 
L 216.568707 125.17351 
L 172.309462 150.087097 
L 172.74761 175.904819 
" clip-path="url(#pc65cc6ecb1)" style="fill: none; stroke: #9467bd; stroke-opacity: 0.5; stroke-width: 2; stroke-linecap: square"/>
   </g>
   <g id="line2d_31">
    <path d="M 254.970408 217.214219 
L 254.970408 217.214219 
L 300.049388 187.887958 
L 300.049388 187.887958 
L 254.970408 217.214219 
" clip-path="url(#pc65cc6ecb1)" style="fill: none; stroke: #9467bd; stroke-width: 2; stroke-linecap: square"/>
   </g>
   <g id="line2d_32">
    <path d="M 255.127763 189.267161 
L 255.127763 189.267161 
L 300.538275 160.700468 
L 300.538275 160.700468 
L 255.127763 189.267161 
" clip-path="url(#pc65cc6ecb1)" style="fill: none; stroke: #9467bd; stroke-opacity: 0.5; stroke-width: 2; stroke-linecap: square"/>
   </g>
   <g id="line2d_33">
    <path d="M 254.970408 217.214219 
L 254.970408 217.214219 
L 255.127763 189.267161 
L 255.127763 189.267161 
L 254.970408 217.214219 
" clip-path="url(#pc65cc6ecb1)" style="fill: none; stroke: #9467bd; stroke-opacity: 0.5; stroke-width: 2; stroke-linecap: square"/>
   </g>
   <g id="line2d_34">
    <path d="M 300.049388 187.887958 
L 300.049388 187.887958 
L 300.538275 160.700468 
L 300.538275 160.700468 
L 300.049388 187.887958 
" clip-path="url(#pc65cc6ecb1)" style="fill: none; stroke: #9467bd; stroke-opacity: 0.5; stroke-width: 2; stroke-linecap: square"/>
   </g>
   <g id="line2d_35">
    <path d="M 254.970408 217.214219 
L 300.049388 187.887958 
L 300.538275 160.700468 
L 255.127763 189.267161 
L 254.970408 217.214219 
" clip-path="url(#pc65cc6ecb1)" style="fill: none; stroke: #9467bd; stroke-opacity: 0.5; stroke-width: 2; stroke-linecap: square"/>
   </g>
   <g id="line2d_36">
    <path d="M 254.970408 217.214219 
L 300.049388 187.887958 
L 300.538275 160.700468 
L 255.127763 189.267161 
L 254.970408 217.214219 
" clip-path="url(#pc65cc6ecb1)" style="fill: none; stroke: #9467bd; stroke-opacity: 0.5; stroke-width: 2; stroke-linecap: square"/>
   </g>
   <g id="line2d_37">
    <path d="M 188.738804 223.466602 
L 254.815455 244.734813 
L 254.815455 244.734813 
L 188.738804 223.466602 
L 188.738804 223.466602 
" clip-path="url(#pc65cc6ecb1)" style="fill: none; stroke: #9467bd; stroke-width: 2; stroke-linecap: square"/>
   </g>
   <g id="line2d_38">
    <path d="M 188.39441 196.463483 
L 254.970408 217.214219 
L 254.970408 217.214219 
L 188.39441 196.463483 
L 188.39441 196.463483 
" clip-path="url(#pc65cc6ecb1)" style="fill: none; stroke: #9467bd; stroke-opacity: 0.5; stroke-width: 2; stroke-linecap: square"/>
   </g>
   <g id="line2d_39">
    <path d="M 188.738804 223.466602 
L 254.815455 244.734813 
L 254.970408 217.214219 
L 188.39441 196.463483 
L 188.738804 223.466602 
" clip-path="url(#pc65cc6ecb1)" style="fill: none; stroke: #9467bd; stroke-opacity: 0.5; stroke-width: 2; stroke-linecap: square"/>
   </g>
   <g id="line2d_40">
    <path d="M 188.738804 223.466602 
L 254.815455 244.734813 
L 254.970408 217.214219 
L 188.39441 196.463483 
L 188.738804 223.466602 
" clip-path="url(#pc65cc6ecb1)" style="fill: none; stroke: #9467bd; stroke-opacity: 0.5; stroke-width: 2; stroke-linecap: square"/>
   </g>
   <g id="line2d_41">
    <path d="M 188.738804 223.466602 
L 188.738804 223.466602 
L 188.39441 196.463483 
L 188.39441 196.463483 
L 188.738804 223.466602 
" clip-path="url(#pc65cc6ecb1)" style="fill: none; stroke: #9467bd; stroke-opacity: 0.5; stroke-width: 2; stroke-linecap: square"/>
   </g>
   <g id="line2d_42">
    <path d="M 254.815455 244.734813 
L 254.815455 244.734813 
L 254.970408 217.214219 
L 254.970408 217.214219 
L 254.815455 244.734813 
" clip-path="url(#pc65cc6ecb1)" style="fill: none; stroke: #9467bd; stroke-opacity: 0.5; stroke-width: 2; stroke-linecap: square"/>
   </g>
   <g id="line2d_43">
    <path d="M 216.568707 125.17351 
L 277.891442 142.446526 
L 277.891442 142.446526 
L 216.568707 125.17351 
L 216.568707 125.17351 
" clip-path="url(#pc65cc6ecb1)" style="fill: none; stroke: #9467bd; stroke-width: 2; stroke-linecap: square"/>
   </g>
   <g id="line2d_44">
    <path d="M 216.443922 99.661964 
L 278.196494 116.466374 
L 278.196494 116.466374 
L 216.443922 99.661964 
L 216.443922 99.661964 
" clip-path="url(#pc65cc6ecb1)" style="fill: none; stroke: #9467bd; stroke-opacity: 0.5; stroke-width: 2; stroke-linecap: square"/>
   </g>
   <g id="line2d_45">
    <path d="M 216.568707 125.17351 
L 277.891442 142.446526 
L 278.196494 116.466374 
L 216.443922 99.661964 
L 216.568707 125.17351 
" clip-path="url(#pc65cc6ecb1)" style="fill: none; stroke: #9467bd; stroke-opacity: 0.5; stroke-width: 2; stroke-linecap: square"/>
   </g>
   <g id="line2d_46">
    <path d="M 216.568707 125.17351 
L 277.891442 142.446526 
L 278.196494 116.466374 
L 216.443922 99.661964 
L 216.568707 125.17351 
" clip-path="url(#pc65cc6ecb1)" style="fill: none; stroke: #9467bd; stroke-opacity: 0.5; stroke-width: 2; stroke-linecap: square"/>
   </g>
   <g id="line2d_47">
    <path d="M 216.568707 125.17351 
L 216.568707 125.17351 
L 216.443922 99.661964 
L 216.443922 99.661964 
L 216.568707 125.17351 
" clip-path="url(#pc65cc6ecb1)" style="fill: none; stroke: #9467bd; stroke-opacity: 0.5; stroke-width: 2; stroke-linecap: square"/>
   </g>
   <g id="line2d_48">
    <path d="M 277.891442 142.446526 
L 277.891442 142.446526 
L 278.196494 116.466374 
L 278.196494 116.466374 
L 277.891442 142.446526 
" clip-path="url(#pc65cc6ecb1)" style="fill: none; stroke: #9467bd; stroke-opacity: 0.5; stroke-width: 2; stroke-linecap: square"/>
   </g>
   <g id="line2d_49">
    <path d="M 125.811867 203.212194 
L 188.738804 223.466602 
L 234.661622 194.832504 
L 172.74761 175.904819 
L 125.811867 203.212194 
" clip-path="url(#pc65cc6ecb1)" style="fill: none; stroke: #9467bd; stroke-width: 2; stroke-linecap: square"/>
   </g>
   <g id="line2d_50">
    <path d="M 125.811867 203.212194 
L 188.738804 223.466602 
L 234.661622 194.832504 
L 172.74761 175.904819 
L 125.811867 203.212194 
" clip-path="url(#pc65cc6ecb1)" style="fill: none; stroke: #9467bd; stroke-opacity: 0.5; stroke-width: 2; stroke-linecap: square"/>
   </g>
   <g id="line2d_51">
    <path d="M 125.811867 203.212194 
L 188.738804 223.466602 
L 188.738804 223.466602 
L 125.811867 203.212194 
L 125.811867 203.212194 
" clip-path="url(#pc65cc6ecb1)" style="fill: none; stroke: #9467bd; stroke-opacity: 0.5; stroke-width: 2; stroke-linecap: square"/>
   </g>
   <g id="line2d_52">
    <path d="M 172.74761 175.904819 
L 234.661622 194.832504 
L 234.661622 194.832504 
L 172.74761 175.904819 
L 172.74761 175.904819 
" clip-path="url(#pc65cc6ecb1)" style="fill: none; stroke: #9467bd; stroke-opacity: 0.5; stroke-width: 2; stroke-linecap: square"/>
   </g>
   <g id="line2d_53">
    <path d="M 125.811867 203.212194 
L 172.74761 175.904819 
L 172.74761 175.904819 
L 125.811867 203.212194 
L 125.811867 203.212194 
" clip-path="url(#pc65cc6ecb1)" style="fill: none; stroke: #9467bd; stroke-opacity: 0.5; stroke-width: 2; stroke-linecap: square"/>
   </g>
   <g id="line2d_54">
    <path d="M 188.738804 223.466602 
L 234.661622 194.832504 
L 234.661622 194.832504 
L 188.738804 223.466602 
L 188.738804 223.466602 
" clip-path="url(#pc65cc6ecb1)" style="fill: none; stroke: #9467bd; stroke-opacity: 0.5; stroke-width: 2; stroke-linecap: square"/>
   </g>
   <g id="line2d_55">
    <path d="M 234.661622 141.860477 
L 300.538275 160.700468 
L 342.875465 134.067131 
L 278.196494 116.466374 
L 234.661622 141.860477 
" clip-path="url(#pc65cc6ecb1)" style="fill: none; stroke: #9467bd; stroke-width: 2; stroke-linecap: square"/>
   </g>
   <g id="line2d_56">
    <path d="M 234.661622 141.860477 
L 300.538275 160.700468 
L 342.875465 134.067131 
L 278.196494 116.466374 
L 234.661622 141.860477 
" clip-path="url(#pc65cc6ecb1)" style="fill: none; stroke: #9467bd; stroke-opacity: 0.5; stroke-width: 2; stroke-linecap: square"/>
   </g>
   <g id="line2d_57">
    <path d="M 234.661622 141.860477 
L 300.538275 160.700468 
L 300.538275 160.700468 
L 234.661622 141.860477 
L 234.661622 141.860477 
" clip-path="url(#pc65cc6ecb1)" style="fill: none; stroke: #9467bd; stroke-opacity: 0.5; stroke-width: 2; stroke-linecap: square"/>
   </g>
   <g id="line2d_58">
    <path d="M 278.196494 116.466374 
L 342.875465 134.067131 
L 342.875465 134.067131 
L 278.196494 116.466374 
L 278.196494 116.466374 
" clip-path="url(#pc65cc6ecb1)" style="fill: none; stroke: #9467bd; stroke-opacity: 0.5; stroke-width: 2; stroke-linecap: square"/>
   </g>
   <g id="line2d_59">
    <path d="M 234.661622 141.860477 
L 278.196494 116.466374 
L 278.196494 116.466374 
L 234.661622 141.860477 
L 234.661622 141.860477 
" clip-path="url(#pc65cc6ecb1)" style="fill: none; stroke: #9467bd; stroke-opacity: 0.5; stroke-width: 2; stroke-linecap: square"/>
   </g>
   <g id="line2d_60">
    <path d="M 300.538275 160.700468 
L 342.875465 134.067131 
L 342.875465 134.067131 
L 300.538275 160.700468 
L 300.538275 160.700468 
" clip-path="url(#pc65cc6ecb1)" style="fill: none; stroke: #9467bd; stroke-opacity: 0.5; stroke-width: 2; stroke-linecap: square"/>
   </g>
   <g id="Poly3DCollection_1">
    <defs>
     <path id="m44c1b0cfa4" d="M 216.691794 -195.262056 
L 216.691794 -195.262056 
L 216.568707 -220.42649 
L 216.568707 -220.42649 
L 216.691794 -195.262056 
z
" style="stroke: #9467bd; stroke-width: 2"/>
    </defs>
    <g clip-path="url(#pc65cc6ecb1)">
     <use xlink:href="#m44c1b0cfa4" x="0" y="345.6" style="fill: #9467bd; fill-opacity: 0.5; stroke: #9467bd; stroke-width: 2"/>
    </g>
   </g>
   <g id="Poly3DCollection_2">
    <defs>
     <path id="m1021069990" d="M 216.568707 -220.42649 
L 216.568707 -220.42649 
L 216.443922 -245.938036 
L 216.443922 -245.938036 
L 216.568707 -220.42649 
z
" style="stroke: #9467bd; stroke-width: 2"/>
    </defs>
    <g clip-path="url(#pc65cc6ecb1)">
     <use xlink:href="#m1021069990" x="0" y="345.6" style="fill: #9467bd; fill-opacity: 0.5; stroke: #9467bd; stroke-width: 2"/>
    </g>
   </g>
   <g id="Poly3DCollection_3">
    <defs>
     <path id="mde6562239a" d="M 216.568707 -220.42649 
L 277.891442 -203.153474 
L 277.891442 -203.153474 
L 216.568707 -220.42649 
L 216.568707 -220.42649 
z
" style="stroke: #9467bd; stroke-width: 2"/>
    </defs>
    <g clip-path="url(#pc65cc6ecb1)">
     <use xlink:href="#mde6562239a" x="0" y="345.6" style="fill: #9467bd; fill-opacity: 0.5; stroke: #9467bd; stroke-width: 2"/>
    </g>
   </g>
   <g id="Poly3DCollection_4">
    <defs>
     <path id="m097311a1c9" d="M 172.74761 -169.695181 
L 172.74761 -169.695181 
L 216.691794 -195.262056 
L 216.691794 -195.262056 
L 172.74761 -169.695181 
z
" style="stroke: #9467bd; stroke-width: 2"/>
    </defs>
    <g clip-path="url(#pc65cc6ecb1)">
     <use xlink:href="#m097311a1c9" x="0" y="345.6" style="fill: #9467bd; fill-opacity: 0.5; stroke: #9467bd; stroke-width: 2"/>
    </g>
   </g>
   <g id="Poly3DCollection_5">
    <defs>
     <path id="m5eec959a12" d="M 216.443922 -245.938036 
L 278.196494 -229.133626 
L 278.196494 -229.133626 
L 216.443922 -245.938036 
L 216.443922 -245.938036 
z
" style="stroke: #9467bd; stroke-width: 2"/>
    </defs>
    <g clip-path="url(#pc65cc6ecb1)">
     <use xlink:href="#m5eec959a12" x="0" y="345.6" style="fill: #9467bd; fill-opacity: 0.5; stroke: #9467bd; stroke-width: 2"/>
    </g>
   </g>
   <g id="Poly3DCollection_6">
    <defs>
     <path id="m8ae71c0f8b" d="M 216.568707 -220.42649 
L 277.891442 -203.153474 
L 278.196494 -229.133626 
L 216.443922 -245.938036 
L 216.568707 -220.42649 
z
" style="stroke: #9467bd; stroke-width: 2"/>
    </defs>
    <g clip-path="url(#pc65cc6ecb1)">
     <use xlink:href="#m8ae71c0f8b" x="0" y="345.6" style="fill: #9467bd; fill-opacity: 0.5; stroke: #9467bd; stroke-width: 2"/>
    </g>
   </g>
   <g id="Poly3DCollection_7">
    <g clip-path="url(#pc65cc6ecb1)">
     <use xlink:href="#m8ae71c0f8b" x="0" y="345.6" style="fill: #9467bd; fill-opacity: 0.5; stroke: #9467bd; stroke-width: 2"/>
    </g>
   </g>
   <g id="Poly3DCollection_8">
    <defs>
     <path id="m8128f39226" d="M 277.891442 -203.153474 
L 277.891442 -203.153474 
L 278.196494 -229.133626 
L 278.196494 -229.133626 
L 277.891442 -203.153474 
z
" style="stroke: #9467bd; stroke-width: 2"/>
    </defs>
    <g clip-path="url(#pc65cc6ecb1)">
     <use xlink:href="#m8128f39226" x="0" y="345.6" style="fill: #9467bd; fill-opacity: 0.5; stroke: #9467bd; stroke-width: 2"/>
    </g>
   </g>
   <g id="Poly3DCollection_9">
    <defs>
     <path id="mc66df7fd13" d="M 172.309462 -195.512903 
L 172.309462 -195.512903 
L 216.568707 -220.42649 
L 216.568707 -220.42649 
L 172.309462 -195.512903 
z
" style="stroke: #9467bd; stroke-width: 2"/>
    </defs>
    <g clip-path="url(#pc65cc6ecb1)">
     <use xlink:href="#mc66df7fd13" x="0" y="345.6" style="fill: #9467bd; fill-opacity: 0.5; stroke: #9467bd; stroke-width: 2"/>
    </g>
   </g>
   <g id="Poly3DCollection_10">
    <defs>
     <path id="m9792ae71b2" d="M 172.74761 -169.695181 
L 172.74761 -169.695181 
L 172.309462 -195.512903 
L 172.309462 -195.512903 
L 172.74761 -169.695181 
z
" style="stroke: #9467bd; stroke-width: 2"/>
    </defs>
    <g clip-path="url(#pc65cc6ecb1)">
     <use xlink:href="#m9792ae71b2" x="0" y="345.6" style="fill: #9467bd; fill-opacity: 0.5; stroke: #9467bd; stroke-width: 2"/>
    </g>
   </g>
   <g id="Poly3DCollection_11">
    <defs>
     <path id="m5ca5a98170" d="M 172.74761 -169.695181 
L 216.691794 -195.262056 
L 216.568707 -220.42649 
L 172.309462 -195.512903 
L 172.74761 -169.695181 
z
" style="stroke: #9467bd; stroke-width: 2"/>
    </defs>
    <g clip-path="url(#pc65cc6ecb1)">
     <use xlink:href="#m5ca5a98170" x="0" y="345.6" style="fill: #9467bd; fill-opacity: 0.5; stroke: #9467bd; stroke-width: 2"/>
    </g>
   </g>
   <g id="Poly3DCollection_12">
    <g clip-path="url(#pc65cc6ecb1)">
     <use xlink:href="#m5ca5a98170" x="0" y="345.6" style="fill: #9467bd; fill-opacity: 0.5; stroke: #9467bd; stroke-width: 2"/>
    </g>
   </g>
   <g id="Poly3DCollection_13">
    <defs>
     <path id="m7bba20696a" d="M 172.74761 -169.695181 
L 234.661622 -150.767496 
L 234.661622 -150.767496 
L 172.74761 -169.695181 
L 172.74761 -169.695181 
z
" style="stroke: #9467bd; stroke-width: 2"/>
    </defs>
    <g clip-path="url(#pc65cc6ecb1)">
     <use xlink:href="#m7bba20696a" x="0" y="345.6" style="fill: #9467bd; fill-opacity: 0.5; stroke: #9467bd; stroke-width: 2"/>
    </g>
   </g>
   <g id="Poly3DCollection_14">
    <defs>
     <path id="me324a7890e" d="M 216.691794 -195.262056 
L 341.334317 -158.979588 
L 342.875465 -211.532869 
L 216.443922 -245.938036 
L 216.691794 -195.262056 
z
" style="stroke: #1f77b4; stroke-width: 2"/>
    </defs>
    <g clip-path="url(#pc65cc6ecb1)">
     <use xlink:href="#me324a7890e" x="0" y="345.6" style="fill: #1f77b4; fill-opacity: 0.1; stroke: #1f77b4; stroke-width: 2"/>
    </g>
   </g>
   <g id="Poly3DCollection_15">
    <defs>
     <path id="m86a14e1bd5" d="M 278.196494 -229.133626 
L 342.875465 -211.532869 
L 342.875465 -211.532869 
L 278.196494 -229.133626 
L 278.196494 -229.133626 
z
" style="stroke: #9467bd; stroke-width: 2"/>
    </defs>
    <g clip-path="url(#pc65cc6ecb1)">
     <use xlink:href="#m86a14e1bd5" x="0" y="345.6" style="fill: #9467bd; fill-opacity: 0.5; stroke: #9467bd; stroke-width: 2"/>
    </g>
   </g>
   <g id="Poly3DCollection_16">
    <defs>
     <path id="m808dfb9387" d="M 125.811867 -142.387806 
L 172.74761 -169.695181 
L 172.74761 -169.695181 
L 125.811867 -142.387806 
L 125.811867 -142.387806 
z
" style="stroke: #9467bd; stroke-width: 2"/>
    </defs>
    <g clip-path="url(#pc65cc6ecb1)">
     <use xlink:href="#m808dfb9387" x="0" y="345.6" style="fill: #9467bd; fill-opacity: 0.5; stroke: #9467bd; stroke-width: 2"/>
    </g>
   </g>
   <g id="Poly3DCollection_17">
    <defs>
     <path id="m76bf921a00" d="M 234.661622 -203.739523 
L 278.196494 -229.133626 
L 278.196494 -229.133626 
L 234.661622 -203.739523 
L 234.661622 -203.739523 
z
" style="stroke: #9467bd; stroke-width: 2"/>
    </defs>
    <g clip-path="url(#pc65cc6ecb1)">
     <use xlink:href="#m76bf921a00" x="0" y="345.6" style="fill: #9467bd; fill-opacity: 0.5; stroke: #9467bd; stroke-width: 2"/>
    </g>
   </g>
   <g id="Poly3DCollection_18">
    <defs>
     <path id="mc78c2c7cb2" d="M 125.811867 -142.387806 
L 216.691794 -195.262056 
L 216.443922 -245.938036 
L 124.206698 -195.784779 
L 125.811867 -142.387806 
z
" style="stroke: #1f77b4; stroke-width: 2"/>
    </defs>
    <g clip-path="url(#pc65cc6ecb1)">
     <use xlink:href="#mc78c2c7cb2" x="0" y="345.6" style="fill: #1f77b4; fill-opacity: 0.1; stroke: #1f77b4; stroke-width: 2"/>
    </g>
   </g>
   <g id="Poly3DCollection_19">
    <defs>
     <path id="m91a2a3bb54" d="M 125.811867 -142.387806 
L 188.738804 -122.133398 
L 234.661622 -150.767496 
L 172.74761 -169.695181 
L 125.811867 -142.387806 
z
" style="stroke: #9467bd; stroke-width: 2"/>
    </defs>
    <g clip-path="url(#pc65cc6ecb1)">
     <use xlink:href="#m91a2a3bb54" x="0" y="345.6" style="fill: #9467bd; fill-opacity: 0.5; stroke: #9467bd; stroke-width: 2"/>
    </g>
   </g>
   <g id="Poly3DCollection_20">
    <g clip-path="url(#pc65cc6ecb1)">
     <use xlink:href="#m91a2a3bb54" x="0" y="345.6" style="fill: #9467bd; fill-opacity: 0.5; stroke: #9467bd; stroke-width: 2"/>
    </g>
   </g>
   <g id="Poly3DCollection_21">
    <defs>
     <path id="mc9cdf0e8cc" d="M 125.811867 -142.387806 
L 188.738804 -122.133398 
L 188.738804 -122.133398 
L 125.811867 -142.387806 
L 125.811867 -142.387806 
z
" style="stroke: #9467bd; stroke-width: 2"/>
    </defs>
    <g clip-path="url(#pc65cc6ecb1)">
     <use xlink:href="#mc9cdf0e8cc" x="0" y="345.6" style="fill: #9467bd; fill-opacity: 0.5; stroke: #9467bd; stroke-width: 2"/>
    </g>
   </g>
   <g id="Poly3DCollection_22">
    <defs>
     <path id="m7cc0695aa7" d="M 188.738804 -122.133398 
L 234.661622 -150.767496 
L 234.661622 -150.767496 
L 188.738804 -122.133398 
L 188.738804 -122.133398 
z
" style="stroke: #9467bd; stroke-width: 2"/>
    </defs>
    <g clip-path="url(#pc65cc6ecb1)">
     <use xlink:href="#m7cc0695aa7" x="0" y="345.6" style="fill: #9467bd; fill-opacity: 0.5; stroke: #9467bd; stroke-width: 2"/>
    </g>
   </g>
   <g id="Poly3DCollection_23">
    <defs>
     <path id="m1e2cca4c34" d="M 300.049388 -157.712042 
L 300.049388 -157.712042 
L 300.538275 -184.899532 
L 300.538275 -184.899532 
L 300.049388 -157.712042 
z
" style="stroke: #9467bd; stroke-width: 2"/>
    </defs>
    <g clip-path="url(#pc65cc6ecb1)">
     <use xlink:href="#m1e2cca4c34" x="0" y="345.6" style="fill: #9467bd; fill-opacity: 0.5; stroke: #9467bd; stroke-width: 2"/>
    </g>
   </g>
   <g id="Poly3DCollection_24">
    <defs>
     <path id="m9f349e4502" d="M 234.661622 -203.739523 
L 300.538275 -184.899532 
L 342.875465 -211.532869 
L 278.196494 -229.133626 
L 234.661622 -203.739523 
z
" style="stroke: #9467bd; stroke-width: 2"/>
    </defs>
    <g clip-path="url(#pc65cc6ecb1)">
     <use xlink:href="#m9f349e4502" x="0" y="345.6" style="fill: #9467bd; fill-opacity: 0.5; stroke: #9467bd; stroke-width: 2"/>
    </g>
   </g>
   <g id="Poly3DCollection_25">
    <g clip-path="url(#pc65cc6ecb1)">
     <use xlink:href="#m9f349e4502" x="0" y="345.6" style="fill: #9467bd; fill-opacity: 0.5; stroke: #9467bd; stroke-width: 2"/>
    </g>
   </g>
   <g id="Poly3DCollection_26">
    <defs>
     <path id="m883dde53dc" d="M 234.661622 -203.739523 
L 300.538275 -184.899532 
L 300.538275 -184.899532 
L 234.661622 -203.739523 
L 234.661622 -203.739523 
z
" style="stroke: #9467bd; stroke-width: 2"/>
    </defs>
    <g clip-path="url(#pc65cc6ecb1)">
     <use xlink:href="#m883dde53dc" x="0" y="345.6" style="fill: #9467bd; fill-opacity: 0.5; stroke: #9467bd; stroke-width: 2"/>
    </g>
   </g>
   <g id="Poly3DCollection_27">
    <defs>
     <path id="m162dd00b77" d="M 300.538275 -184.899532 
L 342.875465 -211.532869 
L 342.875465 -211.532869 
L 300.538275 -184.899532 
L 300.538275 -184.899532 
z
" style="stroke: #9467bd; stroke-width: 2"/>
    </defs>
    <g clip-path="url(#pc65cc6ecb1)">
     <use xlink:href="#m162dd00b77" x="0" y="345.6" style="fill: #9467bd; fill-opacity: 0.5; stroke: #9467bd; stroke-width: 2"/>
    </g>
   </g>
   <g id="Poly3DCollection_28">
    <defs>
     <path id="m8f11acd3c5" d="M 188.738804 -122.133398 
L 188.738804 -122.133398 
L 188.39441 -149.136517 
L 188.39441 -149.136517 
L 188.738804 -122.133398 
z
" style="stroke: #9467bd; stroke-width: 2"/>
    </defs>
    <g clip-path="url(#pc65cc6ecb1)">
     <use xlink:href="#m8f11acd3c5" x="0" y="345.6" style="fill: #9467bd; fill-opacity: 0.5; stroke: #9467bd; stroke-width: 2"/>
    </g>
   </g>
   <g id="Poly3DCollection_29">
    <defs>
     <path id="mefdcf8f867" d="M 125.811867 -142.387806 
L 254.815455 -100.865187 
L 341.334317 -158.979588 
L 216.691794 -195.262056 
L 125.811867 -142.387806 
z
" style="stroke: #1f77b4; stroke-width: 2"/>
    </defs>
    <g clip-path="url(#pc65cc6ecb1)">
     <use xlink:href="#mefdcf8f867" x="0" y="345.6" style="fill: #1f77b4; fill-opacity: 0.1; stroke: #1f77b4; stroke-width: 2"/>
    </g>
   </g>
   <g id="Poly3DCollection_30">
    <defs>
     <path id="m26b21fbcba" d="M 188.738804 -122.133398 
L 254.815455 -100.865187 
L 254.815455 -100.865187 
L 188.738804 -122.133398 
L 188.738804 -122.133398 
z
" style="stroke: #9467bd; stroke-width: 2"/>
    </defs>
    <g clip-path="url(#pc65cc6ecb1)">
     <use xlink:href="#m26b21fbcba" x="0" y="345.6" style="fill: #9467bd; fill-opacity: 0.5; stroke: #9467bd; stroke-width: 2"/>
    </g>
   </g>
   <g id="Poly3DCollection_31">
    <defs>
     <path id="ma2c8439614" d="M 172.74761 -169.695181 
L 188.738804 -122.133398 
L 254.970408 -128.385781 
L 300.538275 -184.899532 
L 278.196494 -229.133626 
L 216.568707 -220.42649 
z
" style="stroke: #d62728"/>
    </defs>
    <g clip-path="url(#pc65cc6ecb1)">
     <use xlink:href="#ma2c8439614" x="0" y="345.6" style="fill: #d62728; fill-opacity: 0.5; stroke: #d62728"/>
    </g>
   </g>
   <g id="Poly3DCollection_32">
    <defs>
     <path id="m1a59270232" d="M 254.970408 -128.385781 
L 254.970408 -128.385781 
L 300.049388 -157.712042 
L 300.049388 -157.712042 
L 254.970408 -128.385781 
z
" style="stroke: #9467bd; stroke-width: 2"/>
    </defs>
    <g clip-path="url(#pc65cc6ecb1)">
     <use xlink:href="#m1a59270232" x="0" y="345.6" style="fill: #9467bd; fill-opacity: 0.5; stroke: #9467bd; stroke-width: 2"/>
    </g>
   </g>
   <g id="Poly3DCollection_33">
    <defs>
     <path id="m257c8f3630" d="M 188.39441 -149.136517 
L 254.970408 -128.385781 
L 254.970408 -128.385781 
L 188.39441 -149.136517 
L 188.39441 -149.136517 
z
" style="stroke: #9467bd; stroke-width: 2"/>
    </defs>
    <g clip-path="url(#pc65cc6ecb1)">
     <use xlink:href="#m257c8f3630" x="0" y="345.6" style="fill: #9467bd; fill-opacity: 0.5; stroke: #9467bd; stroke-width: 2"/>
    </g>
   </g>
   <g id="Poly3DCollection_34">
    <defs>
     <path id="m81efccda23" d="M 188.738804 -122.133398 
L 254.815455 -100.865187 
L 254.970408 -128.385781 
L 188.39441 -149.136517 
L 188.738804 -122.133398 
z
" style="stroke: #9467bd; stroke-width: 2"/>
    </defs>
    <g clip-path="url(#pc65cc6ecb1)">
     <use xlink:href="#m81efccda23" x="0" y="345.6" style="fill: #9467bd; fill-opacity: 0.5; stroke: #9467bd; stroke-width: 2"/>
    </g>
   </g>
   <g id="Poly3DCollection_35">
    <g clip-path="url(#pc65cc6ecb1)">
     <use xlink:href="#m81efccda23" x="0" y="345.6" style="fill: #9467bd; fill-opacity: 0.5; stroke: #9467bd; stroke-width: 2"/>
    </g>
   </g>
   <g id="Poly3DCollection_36">
    <defs>
     <path id="me1e6330cb8" d="M 254.815455 -100.865187 
L 254.815455 -100.865187 
L 254.970408 -128.385781 
L 254.970408 -128.385781 
L 254.815455 -100.865187 
z
" style="stroke: #9467bd; stroke-width: 2"/>
    </defs>
    <g clip-path="url(#pc65cc6ecb1)">
     <use xlink:href="#me1e6330cb8" x="0" y="345.6" style="fill: #9467bd; fill-opacity: 0.5; stroke: #9467bd; stroke-width: 2"/>
    </g>
   </g>
   <g id="Poly3DCollection_37">
    <defs>
     <path id="m4dfbd419e6" d="M 124.206698 -195.784779 
L 255.127763 -156.332839 
L 342.875465 -211.532869 
L 216.443922 -245.938036 
L 124.206698 -195.784779 
z
" style="stroke: #1f77b4; stroke-width: 2"/>
    </defs>
    <g clip-path="url(#pc65cc6ecb1)">
     <use xlink:href="#m4dfbd419e6" x="0" y="345.6" style="fill: #1f77b4; fill-opacity: 0.1; stroke: #1f77b4; stroke-width: 2"/>
    </g>
   </g>
   <g id="Poly3DCollection_38">
    <defs>
     <path id="m75cf01e1a0" d="M 125.811867 -142.387806 
L 254.815455 -100.865187 
L 255.127763 -156.332839 
L 124.206698 -195.784779 
L 125.811867 -142.387806 
z
" style="stroke: #1f77b4; stroke-width: 2"/>
    </defs>
    <g clip-path="url(#pc65cc6ecb1)">
     <use xlink:href="#m75cf01e1a0" x="0" y="345.6" style="fill: #1f77b4; fill-opacity: 0.1; stroke: #1f77b4; stroke-width: 2"/>
    </g>
   </g>
   <g id="Poly3DCollection_39">
    <defs>
     <path id="m6b5636c239" d="M 254.815455 -100.865187 
L 341.334317 -158.979588 
L 342.875465 -211.532869 
L 255.127763 -156.332839 
L 254.815455 -100.865187 
z
" style="stroke: #1f77b4; stroke-width: 2"/>
    </defs>
    <g clip-path="url(#pc65cc6ecb1)">
     <use xlink:href="#m6b5636c239" x="0" y="345.6" style="fill: #1f77b4; fill-opacity: 0.1; stroke: #1f77b4; stroke-width: 2"/>
    </g>
   </g>
   <g id="Poly3DCollection_40">
    <defs>
     <path id="m81e85bfc1c" d="M 255.127763 -156.332839 
L 255.127763 -156.332839 
L 300.538275 -184.899532 
L 300.538275 -184.899532 
L 255.127763 -156.332839 
z
" style="stroke: #9467bd; stroke-width: 2"/>
    </defs>
    <g clip-path="url(#pc65cc6ecb1)">
     <use xlink:href="#m81e85bfc1c" x="0" y="345.6" style="fill: #9467bd; fill-opacity: 0.5; stroke: #9467bd; stroke-width: 2"/>
    </g>
   </g>
   <g id="Poly3DCollection_41">
    <defs>
     <path id="m426e815255" d="M 254.970408 -128.385781 
L 254.970408 -128.385781 
L 255.127763 -156.332839 
L 255.127763 -156.332839 
L 254.970408 -128.385781 
z
" style="stroke: #9467bd; stroke-width: 2"/>
    </defs>
    <g clip-path="url(#pc65cc6ecb1)">
     <use xlink:href="#m426e815255" x="0" y="345.6" style="fill: #9467bd; fill-opacity: 0.5; stroke: #9467bd; stroke-width: 2"/>
    </g>
   </g>
   <g id="Poly3DCollection_42">
    <defs>
     <path id="mbe855f640d" d="M 254.970408 -128.385781 
L 300.049388 -157.712042 
L 300.538275 -184.899532 
L 255.127763 -156.332839 
L 254.970408 -128.385781 
z
" style="stroke: #9467bd; stroke-width: 2"/>
    </defs>
    <g clip-path="url(#pc65cc6ecb1)">
     <use xlink:href="#mbe855f640d" x="0" y="345.6" style="fill: #9467bd; fill-opacity: 0.5; stroke: #9467bd; stroke-width: 2"/>
    </g>
   </g>
   <g id="Poly3DCollection_43">
    <g clip-path="url(#pc65cc6ecb1)">
     <use xlink:href="#mbe855f640d" x="0" y="345.6" style="fill: #9467bd; fill-opacity: 0.5; stroke: #9467bd; stroke-width: 2"/>
    </g>
   </g>
   <g id="Poly3DCollection_44">
    <path d="M 99.725893 244.449977 
L 212.349781 115.061642 
L 371.060957 91.80339 
L 260.44228 230.329133 
z
" clip-path="url(#pc65cc6ecb1)" style="fill: #d62728; fill-opacity: 0.3"/>
   </g>
  </g>
 </g>
 <defs>
  <clipPath id="pc65cc6ecb1">
   <rect x="72.72" y="15.12" width="315.36" height="315.36"/>
  </clipPath>
 </defs>
</svg>
