<?xml version="1.0" encoding="UTF-8" standalone="no"?>
<!-- Created with Inkscape (http://www.inkscape.org/) -->

<svg
   version="1.1"
   id="svg1"
   width="614.40002"
   height="460.79999"
   viewBox="0 0 614.40002 460.79999"
   sodipodi:docname="segway-2.pdf"
   xmlns:inkscape="http://www.inkscape.org/namespaces/inkscape"
   xmlns:sodipodi="http://sodipodi.sourceforge.net/DTD/sodipodi-0.dtd"
   xmlns="http://www.w3.org/2000/svg"
   xmlns:svg="http://www.w3.org/2000/svg">
  <defs
     id="defs1">
    <clipPath
       clipPathUnits="userSpaceOnUse"
       id="clipPath95">
      <path
         d="M 72.72,15.12 H 388.08 V 330.48 H 72.72 Z"
         id="path95" />
    </clipPath>
    <clipPath
       clipPathUnits="userSpaceOnUse"
       id="clipPath97">
      <path
         d="M 72.72,15.12 H 388.08 V 330.48 H 72.72 Z"
         id="path97" />
    </clipPath>
    <clipPath
       clipPathUnits="userSpaceOnUse"
       id="clipPath99">
      <path
         d="M 72.72,15.12 H 388.08 V 330.48 H 72.72 Z"
         id="path99" />
    </clipPath>
    <clipPath
       clipPathUnits="userSpaceOnUse"
       id="clipPath101">
      <path
         d="M 72.72,15.12 H 388.08 V 330.48 H 72.72 Z"
         id="path101" />
    </clipPath>
    <clipPath
       clipPathUnits="userSpaceOnUse"
       id="clipPath103">
      <path
         d="M 72.72,15.12 H 388.08 V 330.48 H 72.72 Z"
         id="path103" />
    </clipPath>
    <clipPath
       clipPathUnits="userSpaceOnUse"
       id="clipPath105">
      <path
         d="M 72.72,15.12 H 388.08 V 330.48 H 72.72 Z"
         id="path105" />
    </clipPath>
    <clipPath
       clipPathUnits="userSpaceOnUse"
       id="clipPath107">
      <path
         d="M 72.72,15.12 H 388.08 V 330.48 H 72.72 Z"
         id="path107" />
    </clipPath>
    <clipPath
       clipPathUnits="userSpaceOnUse"
       id="clipPath109">
      <path
         d="M 72.72,15.12 H 388.08 V 330.48 H 72.72 Z"
         id="path109" />
    </clipPath>
    <clipPath
       clipPathUnits="userSpaceOnUse"
       id="clipPath111">
      <path
         d="M 72.72,15.12 H 388.08 V 330.48 H 72.72 Z"
         id="path111" />
    </clipPath>
    <clipPath
       clipPathUnits="userSpaceOnUse"
       id="clipPath113">
      <path
         d="M 72.72,15.12 H 388.08 V 330.48 H 72.72 Z"
         id="path113" />
    </clipPath>
    <clipPath
       clipPathUnits="userSpaceOnUse"
       id="clipPath115">
      <path
         d="M 72.72,15.12 H 388.08 V 330.48 H 72.72 Z"
         id="path115" />
    </clipPath>
    <clipPath
       clipPathUnits="userSpaceOnUse"
       id="clipPath117">
      <path
         d="M 72.72,15.12 H 388.08 V 330.48 H 72.72 Z"
         id="path117" />
    </clipPath>
    <clipPath
       clipPathUnits="userSpaceOnUse"
       id="clipPath119">
      <path
         d="M 72.72,15.12 H 388.08 V 330.48 H 72.72 Z"
         id="path119" />
    </clipPath>
    <clipPath
       clipPathUnits="userSpaceOnUse"
       id="clipPath121">
      <path
         d="M 72.72,15.12 H 388.08 V 330.48 H 72.72 Z"
         id="path121" />
    </clipPath>
    <clipPath
       clipPathUnits="userSpaceOnUse"
       id="clipPath123">
      <path
         d="M 72.72,15.12 H 388.08 V 330.48 H 72.72 Z"
         id="path123" />
    </clipPath>
    <clipPath
       clipPathUnits="userSpaceOnUse"
       id="clipPath125">
      <path
         d="M 72.72,15.12 H 388.08 V 330.48 H 72.72 Z"
         id="path125" />
    </clipPath>
    <clipPath
       clipPathUnits="userSpaceOnUse"
       id="clipPath127">
      <path
         d="M 72.72,15.12 H 388.08 V 330.48 H 72.72 Z"
         id="path127" />
    </clipPath>
    <clipPath
       clipPathUnits="userSpaceOnUse"
       id="clipPath129">
      <path
         d="M 72.72,15.12 H 388.08 V 330.48 H 72.72 Z"
         id="path129" />
    </clipPath>
    <clipPath
       clipPathUnits="userSpaceOnUse"
       id="clipPath131">
      <path
         d="M 72.72,15.12 H 388.08 V 330.48 H 72.72 Z"
         id="path131" />
    </clipPath>
    <clipPath
       clipPathUnits="userSpaceOnUse"
       id="clipPath133">
      <path
         d="M 72.72,15.12 H 388.08 V 330.48 H 72.72 Z"
         id="path133" />
    </clipPath>
    <clipPath
       clipPathUnits="userSpaceOnUse"
       id="clipPath135">
      <path
         d="M 72.72,15.12 H 388.08 V 330.48 H 72.72 Z"
         id="path135" />
    </clipPath>
    <clipPath
       clipPathUnits="userSpaceOnUse"
       id="clipPath137">
      <path
         d="M 72.72,15.12 H 388.08 V 330.48 H 72.72 Z"
         id="path137" />
    </clipPath>
    <clipPath
       clipPathUnits="userSpaceOnUse"
       id="clipPath139">
      <path
         d="M 72.72,15.12 H 388.08 V 330.48 H 72.72 Z"
         id="path139" />
    </clipPath>
    <clipPath
       clipPathUnits="userSpaceOnUse"
       id="clipPath141">
      <path
         d="M 72.72,15.12 H 388.08 V 330.48 H 72.72 Z"
         id="path141" />
    </clipPath>
    <clipPath
       clipPathUnits="userSpaceOnUse"
       id="clipPath143">
      <path
         d="M 72.72,15.12 H 388.08 V 330.48 H 72.72 Z"
         id="path143" />
    </clipPath>
    <clipPath
       clipPathUnits="userSpaceOnUse"
       id="clipPath145">
      <path
         d="M 72.72,15.12 H 388.08 V 330.48 H 72.72 Z"
         id="path145" />
    </clipPath>
    <clipPath
       clipPathUnits="userSpaceOnUse"
       id="clipPath147">
      <path
         d="M 72.72,15.12 H 388.08 V 330.48 H 72.72 Z"
         id="path147" />
    </clipPath>
    <clipPath
       clipPathUnits="userSpaceOnUse"
       id="clipPath149">
      <path
         d="M 72.72,15.12 H 388.08 V 330.48 H 72.72 Z"
         id="path149" />
    </clipPath>
    <clipPath
       clipPathUnits="userSpaceOnUse"
       id="clipPath151">
      <path
         d="M 72.72,15.12 H 388.08 V 330.48 H 72.72 Z"
         id="path151" />
    </clipPath>
    <clipPath
       clipPathUnits="userSpaceOnUse"
       id="clipPath153">
      <path
         d="M 72.72,15.12 H 388.08 V 330.48 H 72.72 Z"
         id="path153" />
    </clipPath>
    <clipPath
       clipPathUnits="userSpaceOnUse"
       id="clipPath155">
      <path
         d="M 72.72,15.12 H 388.08 V 330.48 H 72.72 Z"
         id="path155" />
    </clipPath>
    <clipPath
       clipPathUnits="userSpaceOnUse"
       id="clipPath157">
      <path
         d="M 72.72,15.12 H 388.08 V 330.48 H 72.72 Z"
         id="path157" />
    </clipPath>
    <clipPath
       clipPathUnits="userSpaceOnUse"
       id="clipPath159">
      <path
         d="M 72.72,15.12 H 388.08 V 330.48 H 72.72 Z"
         id="path159" />
    </clipPath>
    <clipPath
       clipPathUnits="userSpaceOnUse"
       id="clipPath161">
      <path
         d="M 72.72,15.12 H 388.08 V 330.48 H 72.72 Z"
         id="path161" />
    </clipPath>
    <clipPath
       clipPathUnits="userSpaceOnUse"
       id="clipPath163">
      <path
         d="M 72.72,15.12 H 388.08 V 330.48 H 72.72 Z"
         id="path163" />
    </clipPath>
    <clipPath
       clipPathUnits="userSpaceOnUse"
       id="clipPath165">
      <path
         d="M 72.72,15.12 H 388.08 V 330.48 H 72.72 Z"
         id="path165" />
    </clipPath>
  </defs>
  <sodipodi:namedview
     id="namedview1"
     pagecolor="#ffffff"
     bordercolor="#000000"
     borderopacity="0.25"
     inkscape:showpageshadow="2"
     inkscape:pageopacity="0.0"
     inkscape:pagecheckerboard="0"
     inkscape:deskcolor="#d1d1d1">
    <inkscape:page
       x="0"
       y="0"
       inkscape:label="1"
       id="page1"
       width="614.40002"
       height="460.79999"
       margin="0"
       bleed="0" />
  </sodipodi:namedview>
  <g
     id="g1"
     inkscape:groupmode="layer"
     inkscape:label="1">
    <path
       id="path1"
       d="M 0,0 H 460.8 V 345.6 H 0 Z"
       style="fill:#ffffff;fill-opacity:1;fill-rule:nonzero;stroke:none"
       transform="matrix(1.3333333,0,0,-1.3333333,0,460.8)" />
    <path
       id="path2"
       d="M 72.72,15.12 H 388.08 V 330.48 H 72.72 Z"
       style="fill:#ffffff;fill-opacity:1;fill-rule:nonzero;stroke:none"
       transform="matrix(1.3333333,0,0,-1.3333333,0,460.8)" />
    <path
       id="path3"
       d="m 234.66162,182.39685 140.36316,-69.80112 6.40928,131.87544 -146.77244,63.61616"
       style="fill:#f2f2f2;fill-opacity:0.5;fill-rule:nonzero;stroke:#f2f2f2;stroke-width:1;stroke-linecap:butt;stroke-linejoin:miter;stroke-miterlimit:10;stroke-dasharray:none;stroke-opacity:0.5"
       transform="matrix(1.3333333,0,0,-1.3333333,0,460.8)" />
    <path
       id="path4"
       d="M 234.66162,182.39685 94.298463,112.59573 87.889187,244.47117 234.66162,308.08733"
       style="fill:#e6e6e6;fill-opacity:0.5;fill-rule:nonzero;stroke:#e6e6e6;stroke-width:1;stroke-linecap:butt;stroke-linejoin:miter;stroke-miterlimit:10;stroke-dasharray:none;stroke-opacity:0.5"
       transform="matrix(1.3333333,0,0,-1.3333333,0,460.8)" />
    <path
       id="path5"
       d="M 234.66162,182.39685 94.298463,112.59573 234.66162,32.075201 375.02478,112.59573"
       style="fill:#ececec;fill-opacity:0.5;fill-rule:nonzero;stroke:#ececec;stroke-width:1;stroke-linecap:butt;stroke-linejoin:miter;stroke-miterlimit:10;stroke-dasharray:none;stroke-opacity:0.5"
       transform="matrix(1.3333333,0,0,-1.3333333,0,460.8)" />
    <path
       id="path6"
       d="M 375.02478,112.59573 234.66162,182.39685 V 308.08733"
       style="fill:none;stroke:#b0b0b0;stroke-width:0.8;stroke-linecap:butt;stroke-linejoin:round;stroke-miterlimit:10;stroke-dasharray:none;stroke-opacity:1"
       transform="matrix(1.3333333,0,0,-1.3333333,0,460.8)" />
    <path
       id="path7"
       d="m 341.84479,93.561741 -140.4925,72.270729 -1.44042,127.19314"
       style="fill:none;stroke:#b0b0b0;stroke-width:0.8;stroke-linecap:butt;stroke-linejoin:round;stroke-miterlimit:10;stroke-dasharray:none;stroke-opacity:1"
       transform="matrix(1.3333333,0,0,-1.3333333,0,460.8)" />
    <path
       id="path8"
       d="m 307.43803,73.824011 -140.54182,74.873809 -2.98309,128.7247"
       style="fill:none;stroke:#b0b0b0;stroke-width:0.8;stroke-linecap:butt;stroke-linejoin:round;stroke-miterlimit:10;stroke-dasharray:none;stroke-opacity:1"
       transform="matrix(1.3333333,0,0,-1.3333333,0,460.8)" />
    <path
       id="path9"
       d="M 271.73519,53.342771 131.23312,130.96294 126.59678,261.24836"
       style="fill:none;stroke:#b0b0b0;stroke-width:0.8;stroke-linecap:butt;stroke-linejoin:round;stroke-miterlimit:10;stroke-dasharray:none;stroke-opacity:1"
       transform="matrix(1.3333333,0,0,-1.3333333,0,460.8)" />
    <path
       id="path10"
       d="M 234.66162,32.075201 94.298463,112.59573 87.889187,244.47117"
       style="fill:none;stroke:#b0b0b0;stroke-width:0.8;stroke-linecap:butt;stroke-linejoin:round;stroke-miterlimit:10;stroke-dasharray:none;stroke-opacity:1"
       transform="matrix(1.3333333,0,0,-1.3333333,0,460.8)" />
    <path
       id="path11"
       d="M 234.66162,308.08733 V 182.39685 L 94.298463,112.59573"
       style="fill:none;stroke:#b0b0b0;stroke-width:0.8;stroke-linecap:butt;stroke-linejoin:round;stroke-miterlimit:10;stroke-dasharray:none;stroke-opacity:1"
       transform="matrix(1.3333333,0,0,-1.3333333,0,460.8)" />
    <path
       id="path12"
       d="M 269.41137,293.02561 267.97095,165.83247 127.47845,93.561741"
       style="fill:none;stroke:#b0b0b0;stroke-width:0.8;stroke-linecap:butt;stroke-linejoin:round;stroke-miterlimit:10;stroke-dasharray:none;stroke-opacity:1"
       transform="matrix(1.3333333,0,0,-1.3333333,0,460.8)" />
    <path
       id="path13"
       d="M 305.41013,277.42252 302.42703,148.69782 161.88521,73.824011"
       style="fill:none;stroke:#b0b0b0;stroke-width:0.8;stroke-linecap:butt;stroke-linejoin:round;stroke-miterlimit:10;stroke-dasharray:none;stroke-opacity:1"
       transform="matrix(1.3333333,0,0,-1.3333333,0,460.8)" />
    <path
       id="path14"
       d="M 342.72646,261.24836 338.09012,130.96294 197.58805,53.342771"
       style="fill:none;stroke:#b0b0b0;stroke-width:0.8;stroke-linecap:butt;stroke-linejoin:round;stroke-miterlimit:10;stroke-dasharray:none;stroke-opacity:1"
       transform="matrix(1.3333333,0,0,-1.3333333,0,460.8)" />
    <path
       id="path15"
       d="M 381.43406,244.47117 375.02478,112.59573 234.66162,32.075201"
       style="fill:none;stroke:#b0b0b0;stroke-width:0.8;stroke-linecap:butt;stroke-linejoin:round;stroke-miterlimit:10;stroke-dasharray:none;stroke-opacity:1"
       transform="matrix(1.3333333,0,0,-1.3333333,0,460.8)" />
    <path
       id="path16"
       d="M 94.298463,112.59573 234.66162,182.39685 375.02478,112.59573"
       style="fill:none;stroke:#b0b0b0;stroke-width:0.8;stroke-linecap:butt;stroke-linejoin:round;stroke-miterlimit:10;stroke-dasharray:none;stroke-opacity:1"
       transform="matrix(1.3333333,0,0,-1.3333333,0,460.8)" />
    <path
       id="path17"
       d="M 92.749201,144.4729 234.66162,212.84896 376.57404,144.4729"
       style="fill:none;stroke:#b0b0b0;stroke-width:0.8;stroke-linecap:butt;stroke-linejoin:round;stroke-miterlimit:10;stroke-dasharray:none;stroke-opacity:1"
       transform="matrix(1.3333333,0,0,-1.3333333,0,460.8)" />
    <path
       id="path18"
       d="M 91.165357,177.06162 234.66162,243.93461 378.15789,177.06162"
       style="fill:none;stroke:#b0b0b0;stroke-width:0.8;stroke-linecap:butt;stroke-linejoin:round;stroke-miterlimit:10;stroke-dasharray:none;stroke-opacity:1"
       transform="matrix(1.3333333,0,0,-1.3333333,0,460.8)" />
    <path
       id="path19"
       d="M 89.54576,210.38598 234.66162,275.6738 379.77748,210.38598"
       style="fill:none;stroke:#b0b0b0;stroke-width:0.8;stroke-linecap:butt;stroke-linejoin:round;stroke-miterlimit:10;stroke-dasharray:none;stroke-opacity:1"
       transform="matrix(1.3333333,0,0,-1.3333333,0,460.8)" />
    <path
       id="path20"
       d="M 87.889187,244.47117 234.66162,308.08733 381.43406,244.47117"
       style="fill:none;stroke:#b0b0b0;stroke-width:0.8;stroke-linecap:butt;stroke-linejoin:round;stroke-miterlimit:10;stroke-dasharray:none;stroke-opacity:1"
       transform="matrix(1.3333333,0,0,-1.3333333,0,460.8)" />
    <path
       id="path21"
       d="M 375.02478,112.59573 234.66162,32.075201"
       style="fill:none;stroke:#000000;stroke-width:0.8;stroke-linecap:square;stroke-linejoin:round;stroke-miterlimit:10;stroke-dasharray:none;stroke-opacity:1"
       transform="matrix(1.3333333,0,0,-1.3333333,0,460.8)" />
    <path
       id="path22"
       d="m 373.82249,113.19361 3.611,-1.79571"
       style="fill:none;stroke:#000000;stroke-width:0.8;stroke-linecap:square;stroke-linejoin:round;stroke-miterlimit:10;stroke-dasharray:none;stroke-opacity:1"
       transform="matrix(1.3333333,0,0,-1.3333333,0,460.8)" />
    <g
       id="g22"
       aria-label="−0.2"
       transform="matrix(1.3333333,0,0,1.3333333,494.65888,342.71324)">
      <path
         id="path23"
         d="m 9.1884555,-3.2097328 c 0.234375,0 0.4921875,0 0.4921875,-0.28125 0,-0.2695312 -0.2578125,-0.2695312 -0.4921875,-0.2695312 h -7.546875 c -0.234375,0 -0.4804688,0 -0.4804688,0.2695312 0,0.28125 0.2460938,0.28125 0.4804688,0.28125 z m 0,0"
         style="fill:#000000;fill-opacity:1;fill-rule:nonzero;stroke:none" />
      <path
         id="path24"
         d="m 17.095682,-4.463639 c 0,-1.1601563 -0.07031,-2.2851563 -0.574219,-3.3398438 -0.5625,-1.1601562 -1.570312,-1.4648437 -2.25,-1.4648437 -0.808593,0 -1.804687,0.3984375 -2.320312,1.5585937 -0.386719,0.8789063 -0.527344,1.7460938 -0.527344,3.2460938 0,1.359375 0.09375,2.3671875 0.597656,3.3632812 0.539063,1.05468754 1.5,1.39453129 2.226563,1.39453129 1.21875,0 1.910156,-0.7265625 2.320312,-1.53515629 0.503907,-1.0429687 0.527344,-2.4140625 0.527344,-3.2226562 z m -2.847656,4.47656249 c -0.445313,0 -1.347656,-0.24609375 -1.617188,-1.76953129 -0.152343,-0.8320312 -0.152343,-1.8984375 -0.152343,-2.8710937 0,-1.1484375 0,-2.1796875 0.222656,-3 0.246094,-0.9375 0.949219,-1.3710938 1.546875,-1.3710938 0.539062,0 1.347656,0.328125 1.605469,1.5234375 0.1875,0.796875 0.1875,1.8984375 0.1875,2.8476563 0,0.9375 0,1.9921875 -0.152344,2.8476562 -0.269531,1.53515629 -1.148438,1.79296879 -1.640625,1.79296879 z m 0,0"
         style="fill:#000000;fill-opacity:1;fill-rule:nonzero;stroke:none" />
      <path
         id="path25"
         d="m 20.242166,-0.66676401 c 0,-0.41015629 -0.339843,-0.67968749 -0.667968,-0.67968749 -0.410157,0 -0.679688,0.328125 -0.679688,0.66796874 0,0.3984375 0.328125,0.6796875 0.667969,0.6796875 0.398437,0 0.679687,-0.33984375 0.679687,-0.66796875 z m 0,0"
         style="fill:#000000;fill-opacity:1;fill-rule:nonzero;stroke:none" />
      <path
         id="path26"
         d="m 27.61033,-2.3425453 h -0.316406 c -0.03516,0.234375 -0.152344,1.0078125 -0.292969,1.2304688 -0.09375,0.12890624 -0.890625,0.12890624 -1.300781,0.12890624 H 23.11033 c 0.386719,-0.32812504 1.230469,-1.21875004 1.59375,-1.55859374 2.121094,-1.9453125 2.90625,-2.671875 2.90625,-4.0546875 0,-1.6054688 -1.277343,-2.671875 -2.894531,-2.671875 -1.617187,0 -2.566406,1.3710937 -2.566406,2.578125 0,0.703125 0.621094,0.703125 0.65625,0.703125 0.292969,0 0.65625,-0.1992188 0.65625,-0.6445313 0,-0.3984375 -0.257813,-0.65625 -0.65625,-0.65625 -0.117188,0 -0.152344,0 -0.1875,0.011719 0.257812,-0.9492188 1.007812,-1.59375 1.921875,-1.59375 1.183594,0 1.910156,0.9960937 1.910156,2.2734375 0,1.1835937 -0.679687,2.2148437 -1.476562,3.1054687 l -2.824219,3.15234379 v 0.33984375 h 5.097656 z m 0,0"
         style="fill:#000000;fill-opacity:1;fill-rule:nonzero;stroke:none" />
    </g>
    <path
       id="path27"
       d="m 340.63995,94.181524 3.61873,-1.861511"
       style="fill:none;stroke:#000000;stroke-width:0.8;stroke-linecap:square;stroke-linejoin:round;stroke-miterlimit:10;stroke-dasharray:none;stroke-opacity:1"
       transform="matrix(1.3333333,0,0,-1.3333333,0,460.8)" />
    <g
       id="g27"
       aria-label="−0.1"
       transform="matrix(1.3333333,0,0,1.3333333,450.57692,368.48373)">
      <path
         id="path28"
         d="m 9.1884005,-3.2104552 c 0.234375,0 0.4921875,0 0.4921875,-0.28125 0,-0.2695312 -0.2578125,-0.2695312 -0.4921875,-0.2695312 h -7.546875 c -0.234375,0 -0.4804688,0 -0.4804688,0.2695312 0,0.28125 0.2460938,0.28125 0.4804688,0.28125 z m 0,0"
         style="fill:#000000;fill-opacity:1;fill-rule:nonzero;stroke:none" />
      <path
         id="path29"
         d="m 17.095627,-4.4643614 c 0,-1.1601563 -0.07031,-2.2851563 -0.574219,-3.3398438 -0.5625,-1.1601562 -1.570312,-1.4648437 -2.25,-1.4648437 -0.808593,0 -1.804687,0.3984375 -2.320312,1.5585937 -0.386719,0.8789063 -0.527344,1.7460938 -0.527344,3.2460938 0,1.359375 0.09375,2.3671875 0.597656,3.3632812 0.539063,1.05468751 1.5,1.39453126 2.226563,1.39453126 1.21875,0 1.910156,-0.7265625 2.320312,-1.53515626 0.503907,-1.0429687 0.527344,-2.4140625 0.527344,-3.2226562 z m -2.847656,4.47656246 c -0.445313,0 -1.347656,-0.24609375 -1.617188,-1.76953126 -0.152343,-0.8320312 -0.152343,-1.8984375 -0.152343,-2.8710937 0,-1.1484375 0,-2.1796875 0.222656,-3 0.246094,-0.9375 0.949219,-1.3710938 1.546875,-1.3710938 0.539062,0 1.347656,0.328125 1.605469,1.5234375 0.1875,0.796875 0.1875,1.8984375 0.1875,2.8476563 0,0.9375 0,1.9921875 -0.152344,2.8476562 -0.269531,1.53515626 -1.148438,1.79296876 -1.640625,1.79296876 z m 0,0"
         style="fill:#000000;fill-opacity:1;fill-rule:nonzero;stroke:none" />
      <path
         id="path30"
         d="m 20.242111,-0.66748644 c 0,-0.41015626 -0.339843,-0.67968746 -0.667968,-0.67968746 -0.410157,0 -0.679688,0.328125 -0.679688,0.66796871 0,0.3984375 0.328125,0.6796874955 0.667969,0.6796874955 0.398437,0 0.679687,-0.3398437455 0.679687,-0.6679687455 z m 0,0"
         style="fill:#000000;fill-opacity:1;fill-rule:nonzero;stroke:none" />
      <path
         id="path31"
         d="m 25.489182,-8.9409239 c 0,-0.3164063 0,-0.328125 -0.28125,-0.328125 -0.339844,0.375 -1.03125,0.890625 -2.472657,0.890625 v 0.3984375 c 0.328125,0 1.019532,0 1.792969,-0.3632813 v 7.265625 c 0,0.50390626 -0.04687,0.66796876 -1.277344,0.66796876 H 22.817307 V 4.823055e-4 C 23.204025,-0.02295519 24.551682,-0.02295519 25.008713,-0.02295519 c 0.46875,0 1.804687,0 2.179687,0.0234374955 V -0.40967394 h -0.433593 c -1.230469,0 -1.265625,-0.1640625 -1.265625,-0.66796876 z m 0,0"
         style="fill:#000000;fill-opacity:1;fill-rule:nonzero;stroke:none" />
    </g>
    <path
       id="path32"
       d="m 306.23127,74.466915 3.62458,-1.930995"
       style="fill:none;stroke:#000000;stroke-width:0.8;stroke-linecap:square;stroke-linejoin:round;stroke-miterlimit:10;stroke-dasharray:none;stroke-opacity:1"
       transform="matrix(1.3333333,0,0,-1.3333333,0,460.8)" />
    <g
       id="g32"
       aria-label="0.0"
       transform="matrix(1.3333333,0,0,1.3333333,412.094,395.20896)">
      <path
         id="path33"
         d="m 6.2459085,-4.4662893 c 0,-1.1601563 -0.070312,-2.2851563 -0.5742188,-3.3398438 -0.5625,-1.1601562 -1.5703125,-1.4648437 -2.25,-1.4648437 -0.8085937,0 -1.8046875,0.3984375 -2.3203125,1.5585937 -0.38671875,0.8789063 -0.52734375,1.7460938 -0.52734375,3.2460938 0,1.359375 0.09375,2.3671875 0.59765625,3.3632812 0.5390625,1.05468751 1.5,1.39453126 2.2265625,1.39453126 1.21875,0 1.9101563,-0.7265625 2.3203125,-1.53515626 0.5039063,-1.0429687 0.5273438,-2.4140625 0.5273438,-3.2226562 z M 3.3982522,0.01027316 c -0.4453125,0 -1.3476562,-0.24609375 -1.6171875,-1.76953126 C 1.628721,-2.5912893 1.628721,-3.6576956 1.628721,-4.6303518 c 0,-1.1484375 0,-2.1796875 0.2226562,-3 0.2460938,-0.9375 0.9492188,-1.3710938 1.546875,-1.3710938 0.5390625,0 1.3476563,0.328125 1.6054688,1.5234375 0.1875,0.796875 0.1875,1.8984375 0.1875,2.8476563 0,0.9375 0,1.9921875 -0.1523438,2.8476562 -0.2695312,1.53515626 -1.1484375,1.79296876 -1.640625,1.79296876 z m 0,0"
         style="fill:#000000;fill-opacity:1;fill-rule:nonzero;stroke:none" />
      <path
         id="path34"
         d="m 9.3953225,-0.66941434 c 0,-0.41015626 -0.3398437,-0.67968746 -0.6679687,-0.67968746 -0.4101563,0 -0.6796875,0.328125 -0.6796875,0.66796871 0,0.3984375 0.328125,0.6796875 0.6679687,0.6796875 0.3984375,0 0.6796875,-0.33984375 0.6796875,-0.66796875 z m 0,0"
         style="fill:#000000;fill-opacity:1;fill-rule:nonzero;stroke:none" />
      <path
         id="path35"
         d="m 16.868955,-4.4662893 c 0,-1.1601563 -0.07031,-2.2851563 -0.574218,-3.3398438 -0.5625,-1.1601562 -1.570313,-1.4648437 -2.25,-1.4648437 -0.808594,0 -1.804688,0.3984375 -2.320313,1.5585937 -0.386719,0.8789063 -0.527344,1.7460938 -0.527344,3.2460938 0,1.359375 0.09375,2.3671875 0.597657,3.3632812 0.539062,1.05468751 1.5,1.39453126 2.226562,1.39453126 1.21875,0 1.910156,-0.7265625 2.320313,-1.53515626 0.503906,-1.0429687 0.527343,-2.4140625 0.527343,-3.2226562 z m -2.847656,4.47656246 c -0.445312,0 -1.347656,-0.24609375 -1.617187,-1.76953126 -0.152344,-0.8320312 -0.152344,-1.8984375 -0.152344,-2.8710937 0,-1.1484375 0,-2.1796875 0.222656,-3 0.246094,-0.9375 0.949219,-1.3710938 1.546875,-1.3710938 0.539063,0 1.347656,0.328125 1.605469,1.5234375 0.1875,0.796875 0.1875,1.8984375 0.1875,2.8476563 0,0.9375 0,1.9921875 -0.152344,2.8476562 -0.269531,1.53515626 -1.148437,1.79296876 -1.640625,1.79296876 z m 0,0"
         style="fill:#000000;fill-opacity:1;fill-rule:nonzero;stroke:none" />
    </g>
    <path
       id="path36"
       d="m 270.52722,54.010112 3.62829,-2.004441"
       style="fill:none;stroke:#000000;stroke-width:0.8;stroke-linecap:square;stroke-linejoin:round;stroke-miterlimit:10;stroke-dasharray:none;stroke-opacity:1"
       transform="matrix(1.3333333,0,0,-1.3333333,0,460.8)" />
    <g
       id="g36"
       aria-label="0.1"
       transform="matrix(1.3333333,0,0,1.3333333,364.65332,422.94297)">
      <path
         id="path37"
         d="m 6.2453622,-4.4660201 c 0,-1.1601563 -0.070312,-2.2851563 -0.5742188,-3.3398438 -0.5625,-1.1601562 -1.5703125,-1.4648437 -2.25,-1.4648437 -0.8085937,0 -1.8046875,0.3984375 -2.3203125,1.5585937 -0.38671871,0.8789063 -0.52734371,1.7460938 -0.52734371,3.2460938 0,1.359375 0.09375,2.3671875 0.59765621,3.3632812 0.5390625,1.05468751 1.5,1.39453126 2.2265625,1.39453126 1.21875,0 1.9101563,-0.7265625 2.3203125,-1.53515626 0.5039063,-1.0429687 0.5273438,-2.4140625 0.5273438,-3.2226562 z M 3.3977059,0.01054236 c -0.4453125,0 -1.3476562,-0.24609375 -1.6171875,-1.76953126 -0.1523437,-0.8320312 -0.1523437,-1.8984375 -0.1523437,-2.8710937 0,-1.1484375 0,-2.1796875 0.2226562,-3 0.2460938,-0.9375 0.9492188,-1.3710938 1.546875,-1.3710938 0.5390625,0 1.3476563,0.328125 1.6054688,1.5234375 0.1875,0.796875 0.1875,1.8984375 0.1875,2.8476563 0,0.9375 0,1.9921875 -0.1523438,2.8476562 -0.2695312,1.53515626 -1.1484375,1.79296876 -1.640625,1.79296876 z m 0,0"
         style="fill:#000000;fill-opacity:1;fill-rule:nonzero;stroke:none" />
      <path
         id="path38"
         d="m 9.3947763,-0.66914514 c 0,-0.41015626 -0.3398438,-0.67968746 -0.6679688,-0.67968746 -0.4101562,0 -0.6796875,0.328125 -0.6796875,0.66796871 0,0.3984375 0.328125,0.6796875 0.6679688,0.6796875 0.3984375,0 0.6796875,-0.33984375 0.6796875,-0.66796875 z m 0,0"
         style="fill:#000000;fill-opacity:1;fill-rule:nonzero;stroke:none" />
      <path
         id="path39"
         d="m 14.641847,-8.9425826 c 0,-0.3164063 0,-0.328125 -0.28125,-0.328125 -0.339844,0.375 -1.03125,0.890625 -2.472657,0.890625 v 0.3984375 c 0.328125,0 1.019532,0 1.792969,-0.3632813 v 7.265625 c 0,0.50390626 -0.04687,0.66796876 -1.277344,0.66796876 h -0.433593 v 0.41015625 c 0.386718,-0.0234375 1.734375,-0.0234375 2.191406,-0.0234375 0.46875,0 1.804687,0 2.179687,0.0234375 v -0.41015625 h -0.433593 c -1.230469,0 -1.265625,-0.1640625 -1.265625,-0.66796876 z m 0,0"
         style="fill:#000000;fill-opacity:1;fill-rule:nonzero;stroke:none" />
    </g>
    <path
       id="path40"
       d="m 233.45324,32.768402 3.62961,-2.082161"
       style="fill:none;stroke:#000000;stroke-width:0.8;stroke-linecap:square;stroke-linejoin:round;stroke-miterlimit:10;stroke-dasharray:none;stroke-opacity:1"
       transform="matrix(1.3333333,0,0,-1.3333333,0,460.8)" />
    <g
       id="g40"
       aria-label="0.2"
       transform="matrix(1.3333333,0,0,1.3333333,315.38746,451.744)">
      <path
         id="path41"
         d="m 6.2455343,-4.4662005 c 0,-1.1601563 -0.070312,-2.2851563 -0.5742188,-3.3398438 -0.5625,-1.1601562 -1.5703125,-1.4648437 -2.25,-1.4648437 -0.8085937,0 -1.8046875,0.3984375 -2.3203125,1.5585937 -0.38671874,0.8789063 -0.52734374,1.7460938 -0.52734374,3.2460938 0,1.359375 0.09375,2.3671875 0.59765624,3.3632812 0.5390625,1.0546875 1.5,1.39453125 2.2265625,1.39453125 1.21875,0 1.9101563,-0.7265625 2.3203125,-1.53515625 0.5039063,-1.0429687 0.5273438,-2.4140625 0.5273438,-3.2226562 z M 3.397878,0.01036195 c -0.4453125,0 -1.3476562,-0.24609375 -1.6171875,-1.76953125 -0.1523437,-0.8320312 -0.1523437,-1.8984375 -0.1523437,-2.8710937 0,-1.1484375 0,-2.1796875 0.2226562,-3 0.2460938,-0.9375 0.9492188,-1.3710938 1.546875,-1.3710938 0.5390625,0 1.3476563,0.328125 1.6054688,1.5234375 0.1875,0.796875 0.1875,1.8984375 0.1875,2.8476563 0,0.9375 0,1.9921875 -0.1523438,2.8476562 -0.2695312,1.53515625 -1.1484375,1.79296875 -1.640625,1.79296875 z m 0,0"
         style="fill:#000000;fill-opacity:1;fill-rule:nonzero;stroke:none" />
      <path
         id="path42"
         d="m 9.3949483,-0.66932555 c 0,-0.41015625 -0.3398437,-0.67968745 -0.6679687,-0.67968745 -0.4101563,0 -0.6796875,0.328125 -0.6796875,0.6679687 0,0.3984375 0.328125,0.6796875 0.6679687,0.6796875 0.3984375,0 0.6796875,-0.33984375 0.6796875,-0.66796875 z m 0,0"
         style="fill:#000000;fill-opacity:1;fill-rule:nonzero;stroke:none" />
      <path
         id="path43"
         d="m 16.763112,-2.3451068 h -0.316406 c -0.03516,0.234375 -0.152344,1.0078125 -0.292969,1.2304688 -0.09375,0.1289062 -0.890625,0.1289062 -1.300781,0.1289062 h -2.589844 c 0.386719,-0.328125 1.230469,-1.21875 1.59375,-1.5585937 2.121094,-1.9453125 2.90625,-2.671875 2.90625,-4.0546875 0,-1.6054688 -1.277343,-2.671875 -2.894531,-2.671875 -1.617187,0 -2.566406,1.3710937 -2.566406,2.578125 0,0.703125 0.621094,0.703125 0.65625,0.703125 0.292969,0 0.65625,-0.1992188 0.65625,-0.6445313 0,-0.3984375 -0.257813,-0.65625 -0.65625,-0.65625 -0.117188,0 -0.152344,0 -0.1875,0.011719 0.257812,-0.9492188 1.007812,-1.59375 1.921875,-1.59375 1.183594,0 1.910156,0.9960937 1.910156,2.2734375 0,1.1835937 -0.679687,2.2148437 -1.476562,3.1054687 l -2.824219,3.15234375 v 0.33984375 h 5.097656 z m 0,0"
         style="fill:#000000;fill-opacity:1;fill-rule:nonzero;stroke:none" />
    </g>
    <path
       id="path44"
       d="m 5.9968731,-9.5581127 c 0.00166,-0.1206405 -0.1088195,-0.1164655 -0.1349806,-0.1179629 -0.1366367,0.00268 -0.1482991,0.023008 -0.2039336,0.2612936 L 4.902877,-6.4028739 c -0.046808,0.175799 -0.046808,0.175799 -0.062805,0.1801327 -0.01316,0.046491 -0.1134705,0.056497 -0.1396316,0.055 C 2.4267856,-5.9724257 0.66049487,-4.0945189 0.65464383,-2.3415666 0.66810123,-0.83422916 1.8075966,0.07614336 3.256622,0.16433542 3.1483479,0.58858553 3.0545726,1.034663 2.9506323,1.4749093 2.7400741,2.2187651 2.6303026,2.6691763 2.6374727,2.7273297 c -0.00733,0.036326 -0.00166,0.1206406 0.1451455,0.1237942 0.026161,0.0015 0.094479,1.587e-4 0.1193017,-0.066662 C 2.9237473,2.769963 3.0115327,2.4285299 3.068506,2.2585621 L 3.5822176,0.16197517 C 5.972021,0.0467989 7.7791302,-1.9022625 7.7748163,-3.661046 7.7873613,-5.0724065 6.7323391,-6.082931 5.1728382,-6.166948 Z m -0.9131592,3.6642794 c 0.9316346,0.048078 1.8523109,0.5627215 1.8470946,1.937756 -0.0012,1.5799895 -1.1021181,3.66396204 -3.2638004,3.82894158 z M 3.3254163,-0.12044173 C 2.6495615,-0.1433798 1.5106116,-0.51303672 1.5146478,-2.050869 1.5103339,-3.8096525 2.7868924,-5.7523372 4.7784482,-5.8798106 Z m 0,0"
       style="fill:#000000;fill-opacity:1;fill-rule:nonzero;stroke:none"
       aria-label="φ"
       transform="matrix(1.1565449,-0.66346186,0.66346186,1.1565449,437.64798,411.76746)" />
    <path
       id="path45"
       d="M 94.298463,112.59573 234.66162,32.075201"
       style="fill:none;stroke:#000000;stroke-width:0.8;stroke-linecap:square;stroke-linejoin:round;stroke-miterlimit:10;stroke-dasharray:none;stroke-opacity:1"
       transform="matrix(1.3333333,0,0,-1.3333333,0,460.8)" />
    <path
       id="path46"
       d="M 95.500757,113.19361 91.889756,111.3979"
       style="fill:none;stroke:#000000;stroke-width:0.8;stroke-linecap:square;stroke-linejoin:round;stroke-miterlimit:10;stroke-dasharray:none;stroke-opacity:1"
       transform="matrix(1.3333333,0,0,-1.3333333,0,460.8)" />
    <g
       id="g46"
       aria-label="−0.4"
       transform="matrix(1.3333333,0,0,1.3333333,93.373686,342.71324)">
      <path
         id="path47"
         d="m 9.1884856,-3.2097328 c 0.234375,0 0.4921875,0 0.4921875,-0.28125 0,-0.2695312 -0.2578125,-0.2695312 -0.4921875,-0.2695312 h -7.546875 c -0.234375,0 -0.4804687,0 -0.4804687,0.2695312 0,0.28125 0.2460937,0.28125 0.4804687,0.28125 z m 0,0"
         style="fill:#000000;fill-opacity:1;fill-rule:nonzero;stroke:none" />
      <path
         id="path48"
         d="m 17.095712,-4.463639 c 0,-1.1601563 -0.07031,-2.2851563 -0.574219,-3.3398438 -0.5625,-1.1601562 -1.570312,-1.4648437 -2.25,-1.4648437 -0.808593,0 -1.804687,0.3984375 -2.320312,1.5585937 -0.386719,0.8789063 -0.527344,1.7460938 -0.527344,3.2460938 0,1.359375 0.09375,2.3671875 0.597656,3.3632812 0.539063,1.05468754 1.5,1.39453129 2.226563,1.39453129 1.21875,0 1.910156,-0.7265625 2.320312,-1.53515629 0.503907,-1.0429687 0.527344,-2.4140625 0.527344,-3.2226562 z m -2.847656,4.47656249 c -0.445313,0 -1.347656,-0.24609375 -1.617188,-1.76953129 -0.152343,-0.8320312 -0.152343,-1.8984375 -0.152343,-2.8710937 0,-1.1484375 0,-2.1796875 0.222656,-3 0.246094,-0.9375 0.949219,-1.3710938 1.546875,-1.3710938 0.539062,0 1.347656,0.328125 1.605469,1.5234375 0.1875,0.796875 0.1875,1.8984375 0.1875,2.8476563 0,0.9375 0,1.9921875 -0.152344,2.8476562 -0.269531,1.53515629 -1.148438,1.79296879 -1.640625,1.79296879 z m 0,0"
         style="fill:#000000;fill-opacity:1;fill-rule:nonzero;stroke:none" />
      <path
         id="path49"
         d="m 20.242197,-0.66676401 c 0,-0.41015629 -0.339844,-0.67968749 -0.667969,-0.67968749 -0.410156,0 -0.679688,0.328125 -0.679688,0.66796874 0,0.3984375 0.328125,0.6796875 0.667969,0.6796875 0.398438,0 0.679688,-0.33984375 0.679688,-0.66796875 z m 0,0"
         style="fill:#000000;fill-opacity:1;fill-rule:nonzero;stroke:none" />
      <path
         id="path50"
         d="m 26.508798,-9.0808265 c 0,-0.2578125 0,-0.328125 -0.199219,-0.328125 -0.117187,0 -0.152343,0 -0.269531,0.1640625 l -4.195312,6.515625 v 0.3984375 h 3.667968 v 1.2773437 c 0,0.51562504 -0.02344,0.64453129 -1.042968,0.64453129 h -0.28125 v 0.41015625 c 0.316406,-0.0234375 1.417968,-0.0234375 1.816406,-0.0234375 0.386719,0 1.5,0 1.828125,0.0234375 v -0.41015625 h -0.28125 c -1.007813,0 -1.042969,-0.12890625 -1.042969,-0.64453129 v -1.2773437 h 1.40625 V -2.729264 h -1.40625 z m -0.925781,1.0898437 v 5.2617188 h -3.386719 z m 0,0"
         style="fill:#000000;fill-opacity:1;fill-rule:nonzero;stroke:none" />
    </g>
    <path
       id="path51"
       d="m 128.68329,94.181524 -3.61873,-1.861511"
       style="fill:none;stroke:#000000;stroke-width:0.8;stroke-linecap:square;stroke-linejoin:round;stroke-miterlimit:10;stroke-dasharray:none;stroke-opacity:1"
       transform="matrix(1.3333333,0,0,-1.3333333,0,460.8)" />
    <g
       id="g51"
       aria-label="−0.2"
       transform="matrix(1.3333333,0,0,1.3333333,137.45564,368.48373)">
      <path
         id="path52"
         d="m 9.1885406,-3.2104552 c 0.234375,0 0.4921875,0 0.4921875,-0.28125 0,-0.2695312 -0.2578125,-0.2695312 -0.4921875,-0.2695312 h -7.546875 c -0.234375,0 -0.4804687,0 -0.4804687,0.2695312 0,0.28125 0.2460937,0.28125 0.4804687,0.28125 z m 0,0"
         style="fill:#000000;fill-opacity:1;fill-rule:nonzero;stroke:none" />
      <path
         id="path53"
         d="m 17.095767,-4.4643614 c 0,-1.1601563 -0.07031,-2.2851563 -0.574219,-3.3398438 -0.5625,-1.1601562 -1.570312,-1.4648437 -2.25,-1.4648437 -0.808593,0 -1.804687,0.3984375 -2.320312,1.5585937 -0.386719,0.8789063 -0.527344,1.7460938 -0.527344,3.2460938 0,1.359375 0.09375,2.3671875 0.597656,3.3632812 0.539063,1.05468751 1.5,1.39453126 2.226563,1.39453126 1.21875,0 1.910156,-0.7265625 2.320312,-1.53515626 0.503907,-1.0429687 0.527344,-2.4140625 0.527344,-3.2226562 z m -2.847656,4.47656246 c -0.445313,0 -1.347656,-0.24609375 -1.617188,-1.76953126 -0.152343,-0.8320312 -0.152343,-1.8984375 -0.152343,-2.8710937 0,-1.1484375 0,-2.1796875 0.222656,-3 0.246094,-0.9375 0.949219,-1.3710938 1.546875,-1.3710938 0.539062,0 1.347656,0.328125 1.605469,1.5234375 0.1875,0.796875 0.1875,1.8984375 0.1875,2.8476563 0,0.9375 0,1.9921875 -0.152344,2.8476562 -0.269531,1.53515626 -1.148438,1.79296876 -1.640625,1.79296876 z m 0,0"
         style="fill:#000000;fill-opacity:1;fill-rule:nonzero;stroke:none" />
      <path
         id="path54"
         d="m 20.242252,-0.66748644 c 0,-0.41015626 -0.339844,-0.67968746 -0.667969,-0.67968746 -0.410156,0 -0.679688,0.328125 -0.679688,0.66796871 0,0.3984375 0.328125,0.6796874955 0.667969,0.6796874955 0.398438,0 0.679688,-0.3398437455 0.679688,-0.6679687455 z m 0,0"
         style="fill:#000000;fill-opacity:1;fill-rule:nonzero;stroke:none" />
      <path
         id="path55"
         d="m 27.610416,-2.3432677 h -0.316407 c -0.03516,0.234375 -0.152343,1.0078125 -0.292968,1.2304688 -0.09375,0.12890621 -0.890625,0.12890621 -1.300782,0.12890621 h -2.589843 c 0.386718,-0.32812501 1.230468,-1.21875001 1.59375,-1.55859371 2.121093,-1.9453125 2.90625,-2.671875 2.90625,-4.0546875 0,-1.6054688 -1.277344,-2.671875 -2.894532,-2.671875 -1.617187,0 -2.566406,1.3710937 -2.566406,2.578125 0,0.703125 0.621094,0.703125 0.65625,0.703125 0.292969,0 0.65625,-0.1992188 0.65625,-0.6445313 0,-0.3984375 -0.257812,-0.65625 -0.65625,-0.65625 -0.117187,0 -0.152344,0 -0.1875,0.011719 0.257813,-0.9492188 1.007813,-1.59375 1.921875,-1.59375 1.183594,0 1.910156,0.9960937 1.910156,2.2734375 0,1.1835937 -0.679687,2.2148437 -1.476562,3.1054687 l -2.824219,3.15234376 V 4.823055e-4 h 5.097656 z m 0,0"
         style="fill:#000000;fill-opacity:1;fill-rule:nonzero;stroke:none" />
    </g>
    <path
       id="path56"
       d="M 163.09197,74.466915 159.4674,72.53592"
       style="fill:none;stroke:#000000;stroke-width:0.8;stroke-linecap:square;stroke-linejoin:round;stroke-miterlimit:10;stroke-dasharray:none;stroke-opacity:1"
       transform="matrix(1.3333333,0,0,-1.3333333,0,460.8)" />
    <g
       id="g56"
       aria-label="0.0"
       transform="matrix(1.3333333,0,0,1.3333333,190.40288,395.20896)">
      <path
         id="path57"
         d="m 6.2456882,-4.4662893 c 0,-1.1601563 -0.070312,-2.2851563 -0.5742188,-3.3398438 -0.5625,-1.1601562 -1.5703125,-1.4648437 -2.25,-1.4648437 -0.8085937,0 -1.8046875,0.3984375 -2.3203125,1.5585937 -0.38671874,0.8789063 -0.52734374,1.7460938 -0.52734374,3.2460938 0,1.359375 0.09375,2.3671875 0.59765624,3.3632812 0.5390625,1.05468751 1.5,1.39453126 2.2265625,1.39453126 1.21875,0 1.9101563,-0.7265625 2.3203125,-1.53515626 0.5039063,-1.0429687 0.5273438,-2.4140625 0.5273438,-3.2226562 z M 3.3980319,0.01027316 c -0.4453125,0 -1.3476562,-0.24609375 -1.6171875,-1.76953126 -0.1523437,-0.8320312 -0.1523437,-1.8984375 -0.1523437,-2.8710937 0,-1.1484375 0,-2.1796875 0.2226562,-3 0.2460938,-0.9375 0.9492188,-1.3710938 1.546875,-1.3710938 0.5390625,0 1.3476563,0.328125 1.6054688,1.5234375 0.1875,0.796875 0.1875,1.8984375 0.1875,2.8476563 0,0.9375 0,1.9921875 -0.1523438,2.8476562 -0.2695312,1.53515626 -1.1484375,1.79296876 -1.640625,1.79296876 z m 0,0"
         style="fill:#000000;fill-opacity:1;fill-rule:nonzero;stroke:none" />
      <path
         id="path58"
         d="m 9.3951022,-0.66941434 c 0,-0.41015626 -0.3398437,-0.67968746 -0.6679687,-0.67968746 -0.4101563,0 -0.6796875,0.328125 -0.6796875,0.66796871 0,0.3984375 0.328125,0.6796875 0.6679687,0.6796875 0.3984375,0 0.6796875,-0.33984375 0.6796875,-0.66796875 z m 0,0"
         style="fill:#000000;fill-opacity:1;fill-rule:nonzero;stroke:none" />
      <path
         id="path59"
         d="m 16.868735,-4.4662893 c 0,-1.1601563 -0.07031,-2.2851563 -0.574219,-3.3398438 -0.5625,-1.1601562 -1.570312,-1.4648437 -2.25,-1.4648437 -0.808593,0 -1.804687,0.3984375 -2.320312,1.5585937 -0.386719,0.8789063 -0.527344,1.7460938 -0.527344,3.2460938 0,1.359375 0.09375,2.3671875 0.597656,3.3632812 0.539063,1.05468751 1.5,1.39453126 2.226563,1.39453126 1.21875,0 1.910156,-0.7265625 2.320312,-1.53515626 0.503907,-1.0429687 0.527344,-2.4140625 0.527344,-3.2226562 z m -2.847656,4.47656246 c -0.445313,0 -1.347656,-0.24609375 -1.617188,-1.76953126 -0.152343,-0.8320312 -0.152343,-1.8984375 -0.152343,-2.8710937 0,-1.1484375 0,-2.1796875 0.222656,-3 0.246094,-0.9375 0.949219,-1.3710938 1.546875,-1.3710938 0.539062,0 1.347656,0.328125 1.605469,1.5234375 0.1875,0.796875 0.1875,1.8984375 0.1875,2.8476563 0,0.9375 0,1.9921875 -0.152344,2.8476562 -0.269531,1.53515626 -1.148438,1.79296876 -1.640625,1.79296876 z m 0,0"
         style="fill:#000000;fill-opacity:1;fill-rule:nonzero;stroke:none" />
    </g>
    <path
       id="path60"
       d="m 198.79602,54.010112 -3.62828,-2.004441"
       style="fill:none;stroke:#000000;stroke-width:0.8;stroke-linecap:square;stroke-linejoin:round;stroke-miterlimit:10;stroke-dasharray:none;stroke-opacity:1"
       transform="matrix(1.3333333,0,0,-1.3333333,0,460.8)" />
    <g
       id="g60"
       aria-label="0.2"
       transform="matrix(1.3333333,0,0,1.3333333,237.84356,422.94297)">
      <path
         id="path61"
         d="m 6.2462344,-4.4660201 c 0,-1.1601563 -0.070312,-2.2851563 -0.5742187,-3.3398438 -0.5625,-1.1601562 -1.5703125,-1.4648437 -2.25,-1.4648437 -0.8085938,0 -1.8046875,0.3984375 -2.3203125,1.5585937 -0.38671877,0.8789063 -0.52734377,1.7460938 -0.52734377,3.2460938 0,1.359375 0.09375,2.3671875 0.59765627,3.3632812 0.5390625,1.05468751 1.5,1.39453126 2.2265625,1.39453126 1.21875,0 1.9101562,-0.7265625 2.3203125,-1.53515626 0.5039062,-1.0429687 0.5273437,-2.4140625 0.5273437,-3.2226562 z M 3.3985782,0.01054236 c -0.4453125,0 -1.3476563,-0.24609375 -1.6171875,-1.76953126 -0.1523438,-0.8320312 -0.1523438,-1.8984375 -0.1523438,-2.8710937 0,-1.1484375 0,-2.1796875 0.2226563,-3 0.2460937,-0.9375 0.9492187,-1.3710938 1.546875,-1.3710938 0.5390625,0 1.3476562,0.328125 1.6054687,1.5234375 0.1875,0.796875 0.1875,1.8984375 0.1875,2.8476563 0,0.9375 0,1.9921875 -0.1523437,2.8476562 -0.2695313,1.53515626 -1.1484375,1.79296876 -1.640625,1.79296876 z m 0,0"
         style="fill:#000000;fill-opacity:1;fill-rule:nonzero;stroke:none" />
      <path
         id="path62"
         d="m 9.3956485,-0.66914514 c 0,-0.41015626 -0.3398438,-0.67968746 -0.6679688,-0.67968746 -0.4101562,0 -0.6796875,0.328125 -0.6796875,0.66796871 0,0.3984375 0.328125,0.6796875 0.6679688,0.6796875 0.3984375,0 0.6796875,-0.33984375 0.6796875,-0.66796875 z m 0,0"
         style="fill:#000000;fill-opacity:1;fill-rule:nonzero;stroke:none" />
      <path
         id="path63"
         d="m 16.763813,-2.3449264 h -0.316407 c -0.03516,0.234375 -0.152343,1.0078125 -0.292968,1.2304688 -0.09375,0.12890621 -0.890625,0.12890621 -1.300782,0.12890621 h -2.589843 c 0.386718,-0.32812501 1.230468,-1.21875001 1.59375,-1.55859371 2.121093,-1.9453125 2.90625,-2.671875 2.90625,-4.0546875 0,-1.6054688 -1.277344,-2.671875 -2.894532,-2.671875 -1.617187,0 -2.566406,1.3710937 -2.566406,2.578125 0,0.703125 0.621094,0.703125 0.65625,0.703125 0.292969,0 0.65625,-0.1992188 0.65625,-0.6445313 0,-0.3984375 -0.257812,-0.65625 -0.65625,-0.65625 -0.117187,0 -0.152344,0 -0.1875,0.011719 0.257813,-0.9492188 1.007813,-1.59375 1.921875,-1.59375 1.183594,0 1.910156,0.9960937 1.910156,2.2734375 0,1.1835937 -0.679687,2.2148437 -1.476562,3.1054687 l -2.824219,3.15234376 v 0.33984375 h 5.097656 z m 0,0"
         style="fill:#000000;fill-opacity:1;fill-rule:nonzero;stroke:none" />
    </g>
    <path
       id="path64"
       d="m 235.87001,32.768402 -3.62962,-2.082161"
       style="fill:none;stroke:#000000;stroke-width:0.8;stroke-linecap:square;stroke-linejoin:round;stroke-miterlimit:10;stroke-dasharray:none;stroke-opacity:1"
       transform="matrix(1.3333333,0,0,-1.3333333,0,460.8)" />
    <g
       id="g64"
       aria-label="0.4"
       transform="matrix(1.3333333,0,0,1.3333333,287.10942,451.744)">
      <path
         id="path65"
         d="m 6.2460624,-4.4662005 c 0,-1.1601563 -0.070312,-2.2851563 -0.5742188,-3.3398438 -0.5625,-1.1601562 -1.5703125,-1.4648437 -2.25,-1.4648437 -0.8085937,0 -1.8046875,0.3984375 -2.3203125,1.5585937 -0.38671874,0.8789063 -0.52734374,1.7460938 -0.52734374,3.2460938 0,1.359375 0.09375,2.3671875 0.59765624,3.3632812 0.5390625,1.0546875 1.5,1.39453125 2.2265625,1.39453125 1.21875,0 1.9101563,-0.7265625 2.3203125,-1.53515625 0.5039063,-1.0429687 0.5273438,-2.4140625 0.5273438,-3.2226562 z M 3.3984061,0.01036195 c -0.4453125,0 -1.3476562,-0.24609375 -1.6171875,-1.76953125 -0.1523437,-0.8320312 -0.1523437,-1.8984375 -0.1523437,-2.8710937 0,-1.1484375 0,-2.1796875 0.2226562,-3 0.2460938,-0.9375 0.9492188,-1.3710938 1.546875,-1.3710938 0.5390625,0 1.3476563,0.328125 1.6054688,1.5234375 0.1875,0.796875 0.1875,1.8984375 0.1875,2.8476563 0,0.9375 0,1.9921875 -0.1523438,2.8476562 -0.2695312,1.53515625 -1.1484375,1.79296875 -1.640625,1.79296875 z m 0,0"
         style="fill:#000000;fill-opacity:1;fill-rule:nonzero;stroke:none" />
      <path
         id="path66"
         d="m 9.3954764,-0.66932555 c 0,-0.41015625 -0.3398437,-0.67968745 -0.6679687,-0.67968745 -0.4101563,0 -0.6796875,0.328125 -0.6796875,0.6679687 0,0.3984375 0.328125,0.6796875 0.6679687,0.6796875 0.3984375,0 0.6796875,-0.33984375 0.6796875,-0.66796875 z m 0,0"
         style="fill:#000000;fill-opacity:1;fill-rule:nonzero;stroke:none" />
      <path
         id="path67"
         d="m 15.662078,-9.083388 c 0,-0.2578125 0,-0.328125 -0.199219,-0.328125 -0.117187,0 -0.152344,0 -0.269531,0.1640625 l -4.195313,6.515625 v 0.3984375 h 3.667969 v 1.2773437 c 0,0.515625 -0.02344,0.64453125 -1.042969,0.64453125 h -0.28125 v 0.41015625 c 0.316407,-0.0234375 1.417969,-0.0234375 1.816407,-0.0234375 0.386718,0 1.5,0 1.828125,0.0234375 v -0.41015625 h -0.28125 c -1.007813,0 -1.042969,-0.12890625 -1.042969,-0.64453125 V -2.333388 h 1.40625 v -0.3984375 h -1.40625 z m -0.925781,1.0898437 v 5.2617188 h -3.386719 z m 0,0"
         style="fill:#000000;fill-opacity:1;fill-rule:nonzero;stroke:none" />
    </g>
    <path
       id="path68"
       d="m 2.5682834,-8.5939709 c 0.0022,-0.420075 -0.3325375,-0.6738813 -0.6581331,-0.6762416 -0.393914,-0.0037 -0.691375,0.3020427 -0.6907403,0.6799605 -0.0052,0.3677529 0.3063764,0.6753788 0.6682981,0.6704104 0.4099101,0.00803 0.6738813,-0.3325375 0.6805753,-0.6741293 z m 0,0"
       style="fill:#000000;fill-opacity:1;fill-rule:nonzero;stroke:none"
       aria-label="˙"
       transform="matrix(1.1565449,0.66346186,-0.66346186,1.1565449,184.09742,405.91114)" />
    <path
       id="path69"
       d="m 6.0041519,-9.5523687 c -0.00166,-0.1206406 -0.1121317,-0.1248157 -0.1382928,-0.1233182 -0.1366367,-0.00268 -0.1453042,0.029315 -0.2059765,0.2532609 l -0.7565893,3.0144468 c -0.037506,0.1701265 -0.057836,0.1817889 -0.06217,0.197785 -0.018832,0.037824 -0.1074807,0.048147 -0.1336418,0.049645 C 2.4141312,-5.966285 0.66285486,-4.0970061 0.6687059,-2.3440538 0.6552485,-0.83671636 1.8152523,0.0785155 3.2529326,0.15895245 3.1519178,0.59518233 3.0567342,1.0415771 2.9397233,1.4734733 2.7403714,2.2092963 2.6408541,2.6716873 2.6336841,2.7298407 c 0.00733,0.036326 0.00166,0.1206406 0.1484578,0.117487 0.026161,-0.0015 0.094479,-1.587e-4 0.1219793,-0.069975 C 2.9346162,2.7598587 3.0154596,2.429771 3.0631307,2.2538133 L 3.5785282,0.1613127 C 5.9650194,0.03520788 7.7801216,-1.9112156 7.7844355,-3.6699991 7.7718905,-5.0813596 6.7280349,-6.0767309 5.1682166,-6.1816728 Z m -0.9241076,3.6644579 c 0.9259621,0.036237 1.8425526,0.550702 1.847769,1.9257365 0.0012,1.5799895 -1.1130665,3.66477524 -3.2771091,3.8253913 z M 3.3207749,-0.1231471 C 2.6419251,-0.15253123 1.5133682,-0.51838002 1.509332,-2.0562123 1.513642,-3.8149958 2.7778676,-5.7561335 4.786441,-5.8816036 Z m 0,0"
       style="fill:#000000;fill-opacity:1;fill-rule:nonzero;stroke:none"
       aria-label="φ"
       transform="matrix(1.1565449,0.66346186,-0.66346186,1.1565449,177.85892,407.99)" />
    <path
       id="path70"
       d="M 94.298463,112.59573 87.889187,244.47117"
       style="fill:none;stroke:#000000;stroke-width:0.8;stroke-linecap:square;stroke-linejoin:round;stroke-miterlimit:10;stroke-dasharray:none;stroke-opacity:1"
       transform="matrix(1.3333333,0,0,-1.3333333,0,460.8)" />
    <path
       id="path71"
       d="M 95.500757,113.19361 91.889756,111.3979"
       style="fill:none;stroke:#000000;stroke-width:0.8;stroke-linecap:square;stroke-linejoin:round;stroke-miterlimit:10;stroke-dasharray:none;stroke-opacity:1"
       transform="matrix(1.3333333,0,0,-1.3333333,0,460.8)" />
    <g
       id="g71"
       aria-label="−0.2"
       transform="matrix(1.3333333,0,0,1.3333333,80.658586,323.92256)">
      <path
         id="path72"
         d="m 9.1886775,-3.2114548 c 0.234375,0 0.4921875,0 0.4921875,-0.28125 0,-0.2695313 -0.2578125,-0.2695313 -0.4921875,-0.2695313 h -7.546875 c -0.234375,0 -0.4804688,0 -0.4804688,0.2695313 0,0.28125 0.2460938,0.28125 0.4804688,0.28125 z m 0,0"
         style="fill:#000000;fill-opacity:1;fill-rule:nonzero;stroke:none" />
      <path
         id="path73"
         d="m 17.092974,-4.4653611 c 0,-1.1601562 -0.07031,-2.2851562 -0.574218,-3.3398437 -0.5625,-1.1601563 -1.570313,-1.4648438 -2.25,-1.4648438 -0.808594,0 -1.804688,0.3984375 -2.320313,1.5585938 -0.386719,0.8789062 -0.527344,1.7460937 -0.527344,3.2460937 0,1.359375 0.09375,2.3671875 0.597657,3.3632813 0.539062,1.05468746 1.5,1.39453121 2.226562,1.39453121 1.21875,0 1.910156,-0.7265625 2.320313,-1.53515621 0.503906,-1.0429688 0.527343,-2.4140625 0.527343,-3.2226563 z m -2.847656,4.47656251 c -0.445312,0 -1.347656,-0.24609375 -1.617187,-1.76953121 -0.152344,-0.8320313 -0.152344,-1.8984375 -0.152344,-2.8710938 0,-1.1484375 0,-2.1796875 0.222656,-3 0.246094,-0.9375 0.949219,-1.3710937 1.546875,-1.3710937 0.539063,0 1.347656,0.328125 1.605469,1.5234375 0.1875,0.796875 0.1875,1.8984375 0.1875,2.8476562 0,0.9375 0,1.9921875 -0.152344,2.8476563 -0.269531,1.53515621 -1.148437,1.79296871 -1.640625,1.79296871 z m 0,0"
         style="fill:#000000;fill-opacity:1;fill-rule:nonzero;stroke:none" />
      <path
         id="path74"
         d="m 20.242388,-0.66848609 c 0,-0.41015621 -0.339843,-0.67968751 -0.667968,-0.67968751 -0.410157,0 -0.679688,0.328125 -0.679688,0.66796876 0,0.3984375 0.328125,0.6796875008 0.667969,0.6796875008 0.398437,0 0.679687,-0.3398437508 0.679687,-0.6679687508 z m 0,0"
         style="fill:#000000;fill-opacity:1;fill-rule:nonzero;stroke:none" />
      <path
         id="path75"
         d="m 27.610552,-2.3442673 h -0.316406 c -0.03516,0.234375 -0.152344,1.0078125 -0.292969,1.2304687 -0.09375,0.12890626 -0.890625,0.12890626 -1.300781,0.12890626 h -2.589844 c 0.386719,-0.32812496 1.230469,-1.21874996 1.59375,-1.55859376 2.121094,-1.9453125 2.90625,-2.671875 2.90625,-4.0546875 0,-1.6054687 -1.277343,-2.671875 -2.894531,-2.671875 -1.617187,0 -2.566406,1.3710938 -2.566406,2.578125 0,0.703125 0.621094,0.703125 0.65625,0.703125 0.292969,0 0.65625,-0.1992187 0.65625,-0.6445312 0,-0.3984375 -0.257813,-0.65625 -0.65625,-0.65625 -0.117188,0 -0.152344,0 -0.1875,0.011719 0.257812,-0.9492187 1.007812,-1.59375 1.921875,-1.59375 1.183594,0 1.910156,0.9960938 1.910156,2.2734375 0,1.1835938 -0.679687,2.2148438 -1.476562,3.1054688 l -2.824219,3.15234371 v 0.3398437508 h 5.097656 z m 0,0"
         style="fill:#000000;fill-opacity:1;fill-rule:nonzero;stroke:none" />
    </g>
    <path
       id="path76"
       d="m 93.96565,145.05901 -3.653562,-1.76036"
       style="fill:none;stroke:#000000;stroke-width:0.8;stroke-linecap:square;stroke-linejoin:round;stroke-miterlimit:10;stroke-dasharray:none;stroke-opacity:1"
       transform="matrix(1.3333333,0,0,-1.3333333,0,460.8)" />
    <g
       id="g76"
       aria-label="−0.1"
       transform="matrix(1.3333333,0,0,1.3333333,78.303645,281.41966)">
      <path
         id="path77"
         d="m 9.188282,-3.2122082 c 0.234375,0 0.4921875,0 0.4921875,-0.28125 0,-0.2695312 -0.2578125,-0.2695312 -0.4921875,-0.2695312 H 1.641407 c -0.234375,0 -0.4804687,0 -0.4804687,0.2695312 0,0.28125 0.2460937,0.28125 0.4804687,0.28125 z m 0,0"
         style="fill:#000000;fill-opacity:1;fill-rule:nonzero;stroke:none" />
      <path
         id="path78"
         d="m 17.095509,-4.4661144 c 0,-1.1601563 -0.07031,-2.2851563 -0.574219,-3.3398438 -0.5625,-1.1601562 -1.570313,-1.4648437 -2.25,-1.4648437 -0.808594,0 -1.804688,0.3984375 -2.320313,1.5585937 -0.386718,0.8789063 -0.527343,1.7460938 -0.527343,3.2460938 0,1.359375 0.09375,2.3671875 0.597656,3.3632812 0.539062,1.05468754 1.5,1.39453129 2.226562,1.39453129 1.21875,0 1.910157,-0.7265625 2.320313,-1.53515629 0.503906,-1.0429687 0.527344,-2.4140625 0.527344,-3.2226562 z m -2.847657,4.47656249 c -0.445312,0 -1.347656,-0.24609375 -1.617187,-1.76953129 -0.152344,-0.8320312 -0.152344,-1.8984375 -0.152344,-2.8710937 0,-1.1484375 0,-2.1796875 0.222656,-3 0.246094,-0.9375 0.949219,-1.3710938 1.546875,-1.3710938 0.539063,0 1.347657,0.328125 1.605469,1.5234375 0.1875,0.796875 0.1875,1.8984375 0.1875,2.8476563 0,0.9375 0,1.9921875 -0.152344,2.8476562 -0.269531,1.53515629 -1.148437,1.79296879 -1.640625,1.79296879 z m 0,0"
         style="fill:#000000;fill-opacity:1;fill-rule:nonzero;stroke:none" />
      <path
         id="path79"
         d="m 20.241993,-0.66923941 c 0,-0.41015629 -0.339844,-0.67968749 -0.667969,-0.67968749 -0.410156,0 -0.679687,0.328125 -0.679687,0.66796874 0,0.3984375 0.328125,0.6796875 0.667968,0.6796875 0.398438,0 0.679688,-0.33984375 0.679688,-0.66796875 z m 0,0"
         style="fill:#000000;fill-opacity:1;fill-rule:nonzero;stroke:none" />
      <path
         id="path80"
         d="m 25.489063,-8.9426769 c 0,-0.3164063 0,-0.328125 -0.28125,-0.328125 -0.339843,0.375 -1.03125,0.890625 -2.472656,0.890625 v 0.3984375 c 0.328125,0 1.019531,0 1.792969,-0.3632813 v 7.265625 c 0,0.50390629 -0.04687,0.66796879 -1.277344,0.66796879 h -0.433594 v 0.41015625 c 0.386719,-0.0234375 1.734375,-0.0234375 2.191407,-0.0234375 0.46875,0 1.804687,0 2.179687,0.0234375 v -0.41015625 h -0.433594 c -1.230468,0 -1.265625,-0.1640625 -1.265625,-0.66796879 z m 0,0"
         style="fill:#000000;fill-opacity:1;fill-rule:nonzero;stroke:none" />
    </g>
    <path
       id="path81"
       d="m 92.396298,177.63527 -3.697135,-1.72296"
       style="fill:none;stroke:#000000;stroke-width:0.8;stroke-linecap:square;stroke-linejoin:round;stroke-miterlimit:10;stroke-dasharray:none;stroke-opacity:1"
       transform="matrix(1.3333333,0,0,-1.3333333,0,460.8)" />
    <g
       id="g81"
       aria-label="0.0"
       transform="matrix(1.3333333,0,0,1.3333333,83.128294,237.96804)">
      <path
         id="path82"
         d="m 6.2465526,-4.464308 c 0,-1.1601562 -0.070312,-2.2851562 -0.5742187,-3.3398437 -0.5625,-1.1601563 -1.5703125,-1.4648438 -2.25,-1.4648438 -0.8085938,0 -1.8046875,0.3984375 -2.3203125,1.5585938 -0.3867188,0.8789062 -0.5273438,1.7460937 -0.5273438,3.2460937 0,1.359375 0.09375,2.3671875 0.5976563,3.3632813 0.5390625,1.05468745 1.5,1.3945312 2.2265625,1.3945312 1.21875,0 1.9101562,-0.7265625 2.3203125,-1.5351562 0.5039062,-1.0429688 0.5273437,-2.4140625 0.5273437,-3.2226563 z M 3.3988964,0.0122545 c -0.4453125,0 -1.3476563,-0.24609375 -1.6171875,-1.7695312 -0.1523438,-0.8320313 -0.1523438,-1.8984375 -0.1523438,-2.8710938 0,-1.1484375 0,-2.1796875 0.2226563,-3 0.2460937,-0.9375 0.9492187,-1.3710937 1.546875,-1.3710937 0.5390625,0 1.3476562,0.328125 1.6054687,1.5234375 0.1875,0.796875 0.1875,1.8984375 0.1875,2.8476562 0,0.9375 0,1.9921875 -0.1523437,2.8476563 -0.2695313,1.5351562 -1.1484375,1.7929687 -1.640625,1.7929687 z m 0,0"
         style="fill:#000000;fill-opacity:1;fill-rule:nonzero;stroke:none" />
      <path
         id="path83"
         d="m 9.3959667,-0.667433 c 0,-0.4101562 -0.3398438,-0.6796875 -0.6679688,-0.6796875 -0.4101562,0 -0.6796875,0.328125 -0.6796875,0.66796875 0,0.3984375 0.328125,0.6796875022 0.6679688,0.6796875022 0.3984375,0 0.6796875,-0.3398437522 0.6796875,-0.6679687522 z m 0,0"
         style="fill:#000000;fill-opacity:1;fill-rule:nonzero;stroke:none" />
      <path
         id="path84"
         d="m 16.869599,-4.464308 c 0,-1.1601562 -0.07031,-2.2851562 -0.574218,-3.3398437 -0.5625,-1.1601563 -1.570313,-1.4648438 -2.25,-1.4648438 -0.808594,0 -1.804688,0.3984375 -2.320313,1.5585938 -0.386719,0.8789062 -0.527344,1.7460937 -0.527344,3.2460937 0,1.359375 0.09375,2.3671875 0.597657,3.3632813 0.539062,1.05468745 1.5,1.3945312 2.226562,1.3945312 1.21875,0 1.910156,-0.7265625 2.320313,-1.5351562 0.503906,-1.0429688 0.527343,-2.4140625 0.527343,-3.2226563 z m -2.847656,4.4765625 c -0.445312,0 -1.347656,-0.24609375 -1.617187,-1.7695312 -0.152344,-0.8320313 -0.152344,-1.8984375 -0.152344,-2.8710938 0,-1.1484375 0,-2.1796875 0.222656,-3 0.246094,-0.9375 0.949219,-1.3710937 1.546875,-1.3710937 0.539063,0 1.347656,0.328125 1.605469,1.5234375 0.1875,0.796875 0.1875,1.8984375 0.1875,2.8476562 0,0.9375 0,1.9921875 -0.152344,2.8476563 -0.269531,1.5351562 -1.148437,1.7929687 -1.640625,1.7929687 z m 0,0"
         style="fill:#000000;fill-opacity:1;fill-rule:nonzero;stroke:none" />
    </g>
    <path
       id="path85"
       d="m 90.791541,210.94646 -3.741756,-1.68342"
       style="fill:none;stroke:#000000;stroke-width:0.8;stroke-linecap:square;stroke-linejoin:round;stroke-miterlimit:10;stroke-dasharray:none;stroke-opacity:1"
       transform="matrix(1.3333333,0,0,-1.3333333,0,460.8)" />
    <g
       id="g85"
       aria-label="0.1"
       transform="matrix(1.3333333,0,0,1.3333333,80.666442,193.53556)">
      <path
         id="path86"
         d="m 6.247239,-4.4651458 c 0,-1.1601562 -0.070312,-2.2851562 -0.5742188,-3.3398437 -0.5625,-1.1601563 -1.5703125,-1.4648438 -2.25,-1.4648438 -0.8085937,0 -1.8046875,0.3984375 -2.3203125,1.5585938 -0.38671872,0.8789062 -0.52734372,1.7460937 -0.52734372,3.2460937 0,1.359375 0.09375,2.3671875 0.59765622,3.3632813 0.5390625,1.05468745 1.5,1.3945312 2.2265625,1.3945312 1.21875,0 1.9101563,-0.7265625 2.3203125,-1.5351562 C 6.2238015,-2.2854583 6.247239,-3.656552 6.247239,-4.4651458 Z M 3.3995827,0.0114167 c -0.4453125,0 -1.3476562,-0.24609375 -1.6171875,-1.7695312 -0.1523437,-0.8320313 -0.1523437,-1.8984375 -0.1523437,-2.8710938 0,-1.1484375 0,-2.1796875 0.2226562,-3 0.2460938,-0.9375 0.9492188,-1.3710937 1.546875,-1.3710937 0.5390625,0 1.3476563,0.328125 1.6054688,1.5234375 0.1875,0.796875 0.1875,1.8984375 0.1875,2.8476562 0,0.9375 0,1.9921875 -0.1523438,2.8476563 -0.2695312,1.5351562 -1.1484375,1.7929687 -1.640625,1.7929687 z m 0,0"
         style="fill:#000000;fill-opacity:1;fill-rule:nonzero;stroke:none" />
      <path
         id="path87"
         d="m 9.3937234,-0.6682708 c 0,-0.4101562 -0.3398438,-0.6796875 -0.6679688,-0.6796875 -0.4101562,0 -0.6796875,0.328125 -0.6796875,0.66796875 0,0.3984375 0.328125,0.6796875018 0.6679688,0.6796875018 0.3984375,0 0.6796875,-0.3398437518 0.6796875,-0.6679687518 z m 0,0"
         style="fill:#000000;fill-opacity:1;fill-rule:nonzero;stroke:none" />
      <path
         id="path88"
         d="m 14.640794,-8.9417083 c 0,-0.3164062 0,-0.328125 -0.28125,-0.328125 -0.339844,0.375 -1.03125,0.890625 -2.472657,0.890625 v 0.3984375 c 0.328125,0 1.019532,0 1.792969,-0.3632812 v 7.265625 c 0,0.5039062 -0.04687,0.6679687 -1.277344,0.6679687 H 11.968919 V -3.020482e-4 C 12.355637,-0.02373955 13.703294,-0.02373955 14.160325,-0.02373955 c 0.46875,0 1.804687,0 2.179687,0.0234375018 V -0.4104583 h -0.433593 c -1.230469,0 -1.265625,-0.1640625 -1.265625,-0.6679687 z m 0,0"
         style="fill:#000000;fill-opacity:1;fill-rule:nonzero;stroke:none" />
    </g>
    <path
       id="path89"
       d="M 89.150168,245.01772 85.362706,243.3761"
       style="fill:none;stroke:#000000;stroke-width:0.8;stroke-linecap:square;stroke-linejoin:round;stroke-miterlimit:10;stroke-dasharray:none;stroke-opacity:1"
       transform="matrix(1.3333333,0,0,-1.3333333,0,460.8)" />
    <g
       id="g89"
       aria-label="0.2"
       transform="matrix(1.3333333,0,0,1.3333333,78.148382,148.08864)">
      <path
         id="path90"
         d="m 6.2461351,-4.4639426 c 0,-1.1601562 -0.070312,-2.2851562 -0.5742188,-3.3398437 -0.5625,-1.1601563 -1.5703125,-1.4648438 -2.25,-1.4648438 -0.8085937,0 -1.8046875,0.3984375 -2.3203125,1.5585938 -0.38671874,0.8789062 -0.52734374,1.7460937 -0.52734374,3.2460937 0,1.359375 0.09375,2.3671875 0.59765624,3.3632813 0.5390625,1.05468747 1.5,1.39453122 2.2265625,1.39453122 1.21875,0 1.9101563,-0.7265625 2.3203125,-1.53515622 0.5039063,-1.0429688 0.5273438,-2.4140625 0.5273438,-3.2226563 z M 3.3984788,0.01261992 c -0.4453125,0 -1.3476562,-0.24609375 -1.6171875,-1.76953122 -0.1523437,-0.8320313 -0.1523437,-1.8984375 -0.1523437,-2.8710938 0,-1.1484375 0,-2.1796875 0.2226562,-3 0.2460938,-0.9375 0.9492188,-1.3710937 1.546875,-1.3710937 0.5390625,0 1.3476563,0.328125 1.6054688,1.5234375 0.1875,0.796875 0.1875,1.8984375 0.1875,2.8476562 0,0.9375 0,1.9921875 -0.1523438,2.8476563 -0.2695312,1.53515622 -1.1484375,1.79296872 -1.640625,1.79296872 z m 0,0"
         style="fill:#000000;fill-opacity:1;fill-rule:nonzero;stroke:none" />
      <path
         id="path91"
         d="m 9.3955491,-0.66706758 c 0,-0.41015622 -0.3398437,-0.67968752 -0.6679687,-0.67968752 -0.4101563,0 -0.6796875,0.328125 -0.6796875,0.66796877 0,0.3984375 0.328125,0.6796875009 0.6679687,0.6796875009 0.3984375,0 0.6796875,-0.3398437509 0.6796875,-0.6679687509 z m 0,0"
         style="fill:#000000;fill-opacity:1;fill-rule:nonzero;stroke:none" />
      <path
         id="path92"
         d="m 16.763713,-2.3428488 h -0.316406 c -0.03516,0.234375 -0.152344,1.0078125 -0.292969,1.2304687 -0.09375,0.12890627 -0.890625,0.12890627 -1.300781,0.12890627 h -2.589844 c 0.386719,-0.32812497 1.230469,-1.21874997 1.59375,-1.55859377 2.121094,-1.9453125 2.90625,-2.671875 2.90625,-4.0546875 0,-1.6054687 -1.277344,-2.671875 -2.894531,-2.671875 -1.617188,0 -2.566406,1.3710938 -2.566406,2.578125 0,0.703125 0.621093,0.703125 0.65625,0.703125 0.292968,0 0.65625,-0.1992187 0.65625,-0.6445312 0,-0.3984375 -0.257813,-0.65625 -0.65625,-0.65625 -0.117188,0 -0.152344,0 -0.1875,0.011719 0.257812,-0.9492187 1.007812,-1.59375 1.921875,-1.59375 1.183593,0 1.910156,0.9960938 1.910156,2.2734375 0,1.1835938 -0.679688,2.2148438 -1.476563,3.1054688 l -2.824218,3.15234372 V 9.011709e-4 h 5.097656 z m 0,0"
         style="fill:#000000;fill-opacity:1;fill-rule:nonzero;stroke:none" />
    </g>
    <path
       id="path93"
       d="m 6.3757666,-5.2141964 c 0,-0.8789063 -0.4453125,-0.9375 -0.5625,-0.9375 -0.328125,0 -0.6445312,0.3398437 -0.6445312,0.6210937 0,0.1640625 0.1054687,0.2578125 0.1640625,0.3164063 0.1289062,0.1289062 0.4921875,0.5039062 0.4921875,1.2304687 0,0.5859375 -0.8320313,3.84375003 -2.5078125,3.84375003 -0.84375,0 -1.0195313,-0.71484375 -1.0195313,-1.23046873 0,-0.6914063 0.328125,-1.6640625 0.703125,-2.671875 0.2226563,-0.5742188 0.28125,-0.7148438 0.28125,-0.9960938 0,-0.5859375 -0.421875,-1.1132812 -1.1015625,-1.1132812 -1.28906247,0 -1.80468747,2.0273437 -1.80468747,2.1328125 0,0.058594 0.0585938,0.1289062 0.15234375,0.1289062 0.12890625,0 0.140625,-0.058594 0.19921875,-0.2460937 0.32812497,-1.2070313 0.87890627,-1.734375 1.40624997,-1.734375 0.1289063,0 0.3632813,0 0.3632813,0.4570312 0,0.3632813 -0.1523438,0.7734375 -0.3632813,1.3007813 -0.6679687,1.78125 -0.6679687,2.2148437 -0.6679687,2.5546875 0,0.3046875 0.046875,0.87890623 0.46875,1.26562498 0.5039062,0.43359375 1.2070312,0.43359375 1.3242187,0.43359375 2.3203125,0 3.1171875,-4.55859373 3.1171875,-5.35546873 z m 0,0"
       style="fill:#000000;fill-opacity:1;fill-rule:nonzero;stroke:none"
       aria-label="v"
       transform="matrix(1.3333333,0,0,1.3333333,58.909134,229.36242)" />
    <path
       id="path94"
       d="m 213.48404,127.8677 -4.96369,5.85138 -3.84625,4.9879 -2.91686,4.25665 -2.14531,3.63682 -1.50634,3.11107 -0.97876,2.66474 -0.54476,2.28561 -0.18943,1.96335 0.0998,1.68932 0.33363,1.45615 0.52089,1.25767 0.66919,1.08861 0.78489,0.94455 1.33604,1.19225 1.46285,0.97381 2.05403,1.03662 2.60774,0.98645 3.04111,0.87303 3.73807,0.83226 5.45731,0.9675 12.1354,2.08168 3.29356,0.8143 0.93415,0.31263 v 0"
       style="fill:none;stroke:#d62728;stroke-width:1.5;stroke-linecap:square;stroke-linejoin:round;stroke-miterlimit:10;stroke-dasharray:none;stroke-opacity:1"
       transform="matrix(1.3333333,0,0,-1.3333333,0,460.8)"
       clip-path="url(#clipPath95)" />
    <path
       id="path96"
       d="m 149.74796,170.64397 9.00772,-1.10676 7.78903,-0.71949 8.3507,-0.51609 7.10828,-0.22606 7.22364,-0.0274 7.89758,0.20171 7.76624,0.43052 7.5658,0.64038 7.25132,0.8324 6.37675,0.95228 4.85257,0.94099 3.17872,0.82777 0.74489,0.25772 v 0"
       style="fill:none;stroke:#d62728;stroke-width:1.5;stroke-linecap:square;stroke-linejoin:round;stroke-miterlimit:10;stroke-dasharray:none;stroke-opacity:1"
       transform="matrix(1.3333333,0,0,-1.3333333,0,460.8)"
       clip-path="url(#clipPath97)" />
    <path
       id="path98"
       d="m 168.19268,214.90483 14.54786,-5.17054 11.76316,-4.39987 9.512,-3.78238 7.68194,-3.27709 6.18844,-2.85629 5.69183,-2.88694 4.37285,-2.48381 3.32798,-2.14447 2.50142,-1.85643 2.06889,-1.82274 1.42169,-1.5532 0.93385,-1.32612 0.61992,-1.26393 0.29161,-1.06205 0.0592,-0.98416 -0.16425,-0.9595 -0.37134,-0.87815 -0.62213,-0.88039 -0.89159,-0.85042 -1.17022,-0.79238 -1.07333,-0.53333 v 0"
       style="fill:none;stroke:#d62728;stroke-width:1.5;stroke-linecap:square;stroke-linejoin:round;stroke-miterlimit:10;stroke-dasharray:none;stroke-opacity:1"
       transform="matrix(1.3333333,0,0,-1.3333333,0,460.8)"
       clip-path="url(#clipPath99)" />
    <path
       id="path100"
       d="m 232.30869,172.57156 -4.50002,4.56961 -3.3912,3.70338 -2.48051,2.97713 -1.73523,2.36855 -1.1281,1.85903 -0.63633,1.43294 -0.24079,1.07717 0.0745,0.78071 0.32305,0.53427 0.51606,0.33005 0.66306,0.16144 1.18889,-0.01 1.3344,-0.24035 1.879,-0.57181 2.34399,-0.96838 2.62331,-1.34763 2.65324,-1.63987 2.16343,-1.58901 1.89932,-1.67519 1.36635,-1.4938 0.92962,-1.31025 0.63824,-1.26998 0.33469,-1.18733 0.0544,-1.07556 -0.17741,-0.94754 -0.4091,-0.92289 -0.62705,-0.85636 -0.88503,-0.82792 -1.16715,-0.78093 -1.03374,-0.51074 v 0"
       style="fill:none;stroke:#d62728;stroke-width:1.5;stroke-linecap:square;stroke-linejoin:round;stroke-miterlimit:10;stroke-dasharray:none;stroke-opacity:1"
       transform="matrix(1.3333333,0,0,-1.3333333,0,460.8)"
       clip-path="url(#clipPath101)" />
    <path
       id="path102"
       d="m 255.70276,225.9386 3.49519,-4.20275 2.79951,-3.70681 2.20969,-3.27903 1.71042,-2.90979 1.28854,-2.59076 0.93275,-2.3148 0.63333,-2.07576 0.382,-1.8684 0.17163,-1.68821 -0.004,-1.53129 -0.2711,-2.0457 -0.51802,-1.79292 -0.70062,-1.58472 -0.83291,-1.41206 -1.24983,-1.66245 -1.69202,-1.79504 -2.10228,-1.83373 -2.42979,-1.80557 -3.27402,-2.1207 -4.03512,-2.32211 -5.011,-2.61687 -6.03245,-2.8917 -5.92137,-2.5956 -0.3676,-0.15068 v 0"
       style="fill:none;stroke:#d62728;stroke-width:1.5;stroke-linecap:square;stroke-linejoin:round;stroke-miterlimit:10;stroke-dasharray:none;stroke-opacity:1"
       transform="matrix(1.3333333,0,0,-1.3333333,0,460.8)"
       clip-path="url(#clipPath103)" />
    <path
       id="path104"
       d="m 321.12145,183.59613 -6.39062,2.14522 -5.60262,1.69543 -4.9307,1.31806 -4.35701,1.00185 -5.63836,1.02085 -4.7611,0.56606 -4.06302,0.22173 -3.50511,-0.0368 -3.057,-0.22863 -3.52502,-0.51572 -3.03423,-0.67503 -3.27095,-0.97143 -3.35658,-1.2454 -3.78453,-1.65803 -5.00288,-2.46546 -14.89486,-7.5021 -5.8554,-2.6229 -1.20748,-0.50267 v 0"
       style="fill:none;stroke:#d62728;stroke-width:1.5;stroke-linecap:square;stroke-linejoin:round;stroke-miterlimit:10;stroke-dasharray:none;stroke-opacity:1"
       transform="matrix(1.3333333,0,0,-1.3333333,0,460.8)"
       clip-path="url(#clipPath105)" />
    <path
       id="path106"
       d="m 236.98829,181.50156 4.20234,-4.30563 2.80871,-3.23629 1.75677,-2.40317 0.97083,-1.7562 0.3911,-1.2556 -0.0296,-0.86981 -0.32807,-0.57389 -0.53335,-0.34823 -0.66791,-0.17736 -1.00998,-0.0429 -1.60102,0.20577 -2.03912,0.5371 -2.15459,0.80791 -2.05276,1.00938 -1.48187,0.96773 -0.88492,0.83208 -0.39542,0.66477 -0.0613,0.52263 0.17546,0.44015 0.40875,0.39337 0.40023,0.21917 v 0"
       style="fill:none;stroke:#d62728;stroke-width:1.5;stroke-linecap:square;stroke-linejoin:round;stroke-miterlimit:10;stroke-dasharray:none;stroke-opacity:1"
       transform="matrix(1.3333333,0,0,-1.3333333,0,460.8)"
       clip-path="url(#clipPath107)" />
    <path
       id="path108"
       d="m 302.01928,138.71243 -15.68065,7.75613 -13.54653,6.43199 -12.23132,5.53935 -13.56623,5.8583 -7.13361,3.1691 -2.98804,1.55438 -1.61595,1.06509 -0.91,0.84933 -0.39291,0.658 -0.0578,0.51167 0.17434,0.42946 0.41191,0.39096 0.38018,0.20636 v 0"
       style="fill:none;stroke:#d62728;stroke-width:1.5;stroke-linecap:square;stroke-linejoin:round;stroke-miterlimit:10;stroke-dasharray:none;stroke-opacity:1"
       transform="matrix(1.3333333,0,0,-1.3333333,0,460.8)"
       clip-path="url(#clipPath109)" />
    <path
       id="path110"
       d="m 149.74796,168.4079 c 0.59301,0 1.16182,0.23561 1.58114,0.65493 0.41932,0.41932 0.65493,0.98813 0.65493,1.58114 0,0.59301 -0.23561,1.16181 -0.65493,1.58114 -0.41932,0.41932 -0.98813,0.65493 -1.58114,0.65493 -0.59301,0 -1.16181,-0.23561 -1.58114,-0.65493 -0.41932,-0.41933 -0.65493,-0.98813 -0.65493,-1.58114 0,-0.59301 0.23561,-1.16182 0.65493,-1.58114 0.41933,-0.41932 0.98813,-0.65493 1.58114,-0.65493 z"
       style="fill:#d62728;fill-opacity:1;fill-rule:nonzero;stroke:#d62728;stroke-width:1;stroke-linecap:butt;stroke-linejoin:round;stroke-miterlimit:10;stroke-dasharray:none;stroke-opacity:1"
       transform="matrix(1.3333333,0,0,-1.3333333,0,460.8)"
       clip-path="url(#clipPath111)" />
    <path
       id="path112"
       d="m 168.19268,212.66877 c 0.59301,0 1.16181,0.2356 1.58114,0.65492 0.41932,0.41933 0.65493,0.98813 0.65493,1.58114 0,0.59302 -0.23561,1.16182 -0.65493,1.58114 -0.41933,0.41933 -0.98813,0.65493 -1.58114,0.65493 -0.59301,0 -1.16182,-0.2356 -1.58114,-0.65493 -0.41932,-0.41932 -0.65493,-0.98812 -0.65493,-1.58114 0,-0.59301 0.23561,-1.16181 0.65493,-1.58114 0.41932,-0.41932 0.98813,-0.65492 1.58114,-0.65492 z"
       style="fill:#d62728;fill-opacity:1;fill-rule:nonzero;stroke:#d62728;stroke-width:1;stroke-linecap:butt;stroke-linejoin:round;stroke-miterlimit:10;stroke-dasharray:none;stroke-opacity:1"
       transform="matrix(1.3333333,0,0,-1.3333333,0,460.8)"
       clip-path="url(#clipPath113)" />
    <path
       id="path114"
       d="m 236.98829,179.26549 c 0.59301,0 1.16181,0.23561 1.58113,0.65493 0.41933,0.41932 0.65493,0.98813 0.65493,1.58114 0,0.59301 -0.2356,1.16181 -0.65493,1.58114 -0.41932,0.41932 -0.98812,0.65493 -1.58113,0.65493 -0.59302,0 -1.16182,-0.23561 -1.58114,-0.65493 -0.41933,-0.41933 -0.65493,-0.98813 -0.65493,-1.58114 0,-0.59301 0.2356,-1.16182 0.65493,-1.58114 0.41932,-0.41932 0.98812,-0.65493 1.58114,-0.65493 z"
       style="fill:#d62728;fill-opacity:1;fill-rule:nonzero;stroke:#d62728;stroke-width:1;stroke-linecap:butt;stroke-linejoin:round;stroke-miterlimit:10;stroke-dasharray:none;stroke-opacity:1"
       transform="matrix(1.3333333,0,0,-1.3333333,0,460.8)"
       clip-path="url(#clipPath115)" />
    <path
       id="path116"
       d="M 255.70276,225.9386 168.19268,214.90483 149.74796,170.64397 Z"
       style="fill:#1f77b4;fill-opacity:0.25;fill-rule:nonzero;stroke:#1f77b4;stroke-width:1;stroke-linecap:butt;stroke-linejoin:round;stroke-miterlimit:10;stroke-dasharray:none;stroke-opacity:1"
       transform="matrix(1.3333333,0,0,-1.3333333,0,460.8)"
       clip-path="url(#clipPath117)" />
    <path
       id="path118"
       d="m 236.98829,181.50156 18.71447,44.43704 -105.9548,-55.29463 z"
       style="fill:#1f77b4;fill-opacity:0.25;fill-rule:nonzero;stroke:#1f77b4;stroke-width:1;stroke-linecap:butt;stroke-linejoin:round;stroke-miterlimit:10;stroke-dasharray:none;stroke-opacity:1"
       transform="matrix(1.3333333,0,0,-1.3333333,0,460.8)"
       clip-path="url(#clipPath119)" />
    <path
       id="path120"
       d="m 255.70276,223.70253 c 0.59301,0 1.16181,0.2356 1.58114,0.65493 0.41932,0.41932 0.65493,0.98812 0.65493,1.58114 0,0.59301 -0.23561,1.16181 -0.65493,1.58113 -0.41933,0.41933 -0.98813,0.65493 -1.58114,0.65493 -0.59301,0 -1.16182,-0.2356 -1.58114,-0.65493 -0.41932,-0.41932 -0.65493,-0.98812 -0.65493,-1.58113 0,-0.59302 0.23561,-1.16182 0.65493,-1.58114 0.41932,-0.41933 0.98813,-0.65493 1.58114,-0.65493 z"
       style="fill:#d62728;fill-opacity:1;fill-rule:nonzero;stroke:#d62728;stroke-width:1;stroke-linecap:butt;stroke-linejoin:round;stroke-miterlimit:10;stroke-dasharray:none;stroke-opacity:1"
       transform="matrix(1.3333333,0,0,-1.3333333,0,460.8)"
       clip-path="url(#clipPath121)" />
    <path
       id="path122"
       d="m 168.19268,214.90483 45.29136,-87.03713 -63.73608,42.77627 z"
       style="fill:#1f77b4;fill-opacity:0.25;fill-rule:nonzero;stroke:#1f77b4;stroke-width:1;stroke-linecap:butt;stroke-linejoin:round;stroke-miterlimit:10;stroke-dasharray:none;stroke-opacity:1"
       transform="matrix(1.3333333,0,0,-1.3333333,0,460.8)"
       clip-path="url(#clipPath123)" />
    <path
       id="path124"
       d="m 213.48404,125.63163 c 0.59301,0 1.16182,0.23561 1.58114,0.65493 0.41932,0.41932 0.65493,0.98813 0.65493,1.58114 0,0.59301 -0.23561,1.16181 -0.65493,1.58114 -0.41932,0.41932 -0.98813,0.65493 -1.58114,0.65493 -0.59301,0 -1.16181,-0.23561 -1.58114,-0.65493 -0.41932,-0.41933 -0.65493,-0.98813 -0.65493,-1.58114 0,-0.59301 0.23561,-1.16182 0.65493,-1.58114 0.41933,-0.41932 0.98813,-0.65493 1.58114,-0.65493 z"
       style="fill:#d62728;fill-opacity:1;fill-rule:nonzero;stroke:#d62728;stroke-width:1;stroke-linecap:butt;stroke-linejoin:round;stroke-miterlimit:10;stroke-dasharray:none;stroke-opacity:1"
       transform="matrix(1.3333333,0,0,-1.3333333,0,460.8)"
       clip-path="url(#clipPath125)" />
    <path
       id="path126"
       d="m 232.30869,172.57156 -64.11601,42.33327 45.29136,-87.03713 z"
       style="fill:#1f77b4;fill-opacity:0.25;fill-rule:nonzero;stroke:#1f77b4;stroke-width:1;stroke-linecap:butt;stroke-linejoin:round;stroke-miterlimit:10;stroke-dasharray:none;stroke-opacity:1"
       transform="matrix(1.3333333,0,0,-1.3333333,0,460.8)"
       clip-path="url(#clipPath127)" />
    <path
       id="path128"
       d="m 232.30869,170.33549 c 0.59301,0 1.16182,0.23561 1.58114,0.65493 0.41932,0.41932 0.65493,0.98813 0.65493,1.58114 0,0.59301 -0.23561,1.16181 -0.65493,1.58114 -0.41932,0.41932 -0.98813,0.65493 -1.58114,0.65493 -0.59301,0 -1.16182,-0.23561 -1.58114,-0.65493 -0.41932,-0.41933 -0.65493,-0.98813 -0.65493,-1.58114 0,-0.59301 0.23561,-1.16182 0.65493,-1.58114 0.41932,-0.41932 0.98813,-0.65493 1.58114,-0.65493 z"
       style="fill:#d62728;fill-opacity:1;fill-rule:nonzero;stroke:#d62728;stroke-width:1;stroke-linecap:butt;stroke-linejoin:round;stroke-miterlimit:10;stroke-dasharray:none;stroke-opacity:1"
       transform="matrix(1.3333333,0,0,-1.3333333,0,460.8)"
       clip-path="url(#clipPath129)" />
    <path
       id="path130"
       d="M 302.01928,138.71243 213.48404,127.8677 149.74796,170.64397 Z"
       style="fill:#1f77b4;fill-opacity:0.25;fill-rule:nonzero;stroke:#1f77b4;stroke-width:1;stroke-linecap:butt;stroke-linejoin:round;stroke-miterlimit:10;stroke-dasharray:none;stroke-opacity:1"
       transform="matrix(1.3333333,0,0,-1.3333333,0,460.8)"
       clip-path="url(#clipPath131)" />
    <path
       id="path132"
       d="m 236.98829,181.50156 65.03099,-42.78913 -152.27132,31.93154 z"
       style="fill:#1f77b4;fill-opacity:0.25;fill-rule:nonzero;stroke:#1f77b4;stroke-width:1;stroke-linecap:butt;stroke-linejoin:round;stroke-miterlimit:10;stroke-dasharray:none;stroke-opacity:1"
       transform="matrix(1.3333333,0,0,-1.3333333,0,460.8)"
       clip-path="url(#clipPath133)" />
    <path
       id="path134"
       d="m 236.98829,181.50156 65.03099,-42.78913 -46.31652,87.22617 z"
       style="fill:#1f77b4;fill-opacity:0.25;fill-rule:nonzero;stroke:#1f77b4;stroke-width:1;stroke-linecap:butt;stroke-linejoin:round;stroke-miterlimit:10;stroke-dasharray:none;stroke-opacity:1"
       transform="matrix(1.3333333,0,0,-1.3333333,0,460.8)"
       clip-path="url(#clipPath135)" />
    <path
       id="path136"
       d="m 302.01928,136.47636 c 0.59301,0 1.16181,0.23561 1.58114,0.65493 0.41932,0.41933 0.65492,0.98813 0.65492,1.58114 0,0.59302 -0.2356,1.16182 -0.65492,1.58114 -0.41933,0.41932 -0.98813,0.65493 -1.58114,0.65493 -0.59302,0 -1.16182,-0.23561 -1.58114,-0.65493 -0.41933,-0.41932 -0.65493,-0.98812 -0.65493,-1.58114 0,-0.59301 0.2356,-1.16181 0.65493,-1.58114 0.41932,-0.41932 0.98812,-0.65493 1.58114,-0.65493 z"
       style="fill:#d62728;fill-opacity:1;fill-rule:nonzero;stroke:#d62728;stroke-width:1;stroke-linecap:butt;stroke-linejoin:round;stroke-miterlimit:10;stroke-dasharray:none;stroke-opacity:1"
       transform="matrix(1.3333333,0,0,-1.3333333,0,460.8)"
       clip-path="url(#clipPath137)" />
    <path
       id="path138"
       d="m 255.70276,225.9386 -87.51008,-11.03377 152.92877,-31.3087 z"
       style="fill:#1f77b4;fill-opacity:0.25;fill-rule:nonzero;stroke:#1f77b4;stroke-width:1;stroke-linecap:butt;stroke-linejoin:round;stroke-miterlimit:10;stroke-dasharray:none;stroke-opacity:1"
       transform="matrix(1.3333333,0,0,-1.3333333,0,460.8)"
       clip-path="url(#clipPath139)" />
    <path
       id="path140"
       d="M 232.30869,172.57156 213.48404,127.8677 321.12145,183.59613 Z"
       style="fill:#1f77b4;fill-opacity:0.25;fill-rule:nonzero;stroke:#1f77b4;stroke-width:1;stroke-linecap:butt;stroke-linejoin:round;stroke-miterlimit:10;stroke-dasharray:none;stroke-opacity:1"
       transform="matrix(1.3333333,0,0,-1.3333333,0,460.8)"
       clip-path="url(#clipPath141)" />
    <path
       id="path142"
       d="m 232.30869,172.57156 -64.11601,42.33327 152.92877,-31.3087 z"
       style="fill:#1f77b4;fill-opacity:0.25;fill-rule:nonzero;stroke:#1f77b4;stroke-width:1;stroke-linecap:butt;stroke-linejoin:round;stroke-miterlimit:10;stroke-dasharray:none;stroke-opacity:1"
       transform="matrix(1.3333333,0,0,-1.3333333,0,460.8)"
       clip-path="url(#clipPath143)" />
    <path
       id="path144"
       d="M 302.01928,138.71243 213.48404,127.8677 321.12145,183.59613 Z"
       style="fill:#1f77b4;fill-opacity:0.25;fill-rule:nonzero;stroke:#1f77b4;stroke-width:1;stroke-linecap:butt;stroke-linejoin:round;stroke-miterlimit:10;stroke-dasharray:none;stroke-opacity:1"
       transform="matrix(1.3333333,0,0,-1.3333333,0,460.8)"
       clip-path="url(#clipPath145)" />
    <path
       id="path146"
       d="m 302.01928,138.71243 -46.31652,87.22617 65.41869,-42.34247 z"
       style="fill:#1f77b4;fill-opacity:0.25;fill-rule:nonzero;stroke:#1f77b4;stroke-width:1;stroke-linecap:butt;stroke-linejoin:round;stroke-miterlimit:10;stroke-dasharray:none;stroke-opacity:1"
       transform="matrix(1.3333333,0,0,-1.3333333,0,460.8)"
       clip-path="url(#clipPath147)" />
    <path
       id="path148"
       d="m 149.74796,169.06283 c 0.41933,0 0.82153,0.1666 1.11804,0.4631 0.2965,0.29651 0.4631,0.69872 0.4631,1.11804 0,0.41932 -0.1666,0.82153 -0.4631,1.11803 -0.29651,0.29651 -0.69871,0.46311 -1.11804,0.46311 -0.41932,0 -0.82152,-0.1666 -1.11803,-0.46311 -0.29651,-0.2965 -0.46311,-0.69871 -0.46311,-1.11803 0,-0.41932 0.1666,-0.82153 0.46311,-1.11804 0.29651,-0.2965 0.69871,-0.4631 1.11803,-0.4631 z"
       style="fill:#1f77b4;fill-opacity:0.3;fill-rule:nonzero;stroke:#1f77b4;stroke-width:1;stroke-linecap:butt;stroke-linejoin:round;stroke-miterlimit:10;stroke-dasharray:none;stroke-opacity:0.3"
       transform="matrix(1.3333333,0,0,-1.3333333,0,460.8)"
       clip-path="url(#clipPath149)" />
    <path
       id="path150"
       d="m 168.19268,213.32369 c 0.41932,0 0.82153,0.1666 1.11803,0.46311 0.29651,0.29651 0.46311,0.69871 0.46311,1.11803 0,0.41933 -0.1666,0.82153 -0.46311,1.11804 -0.2965,0.2965 -0.69871,0.4631 -1.11803,0.4631 -0.41933,0 -0.82153,-0.1666 -1.11804,-0.4631 -0.2965,-0.29651 -0.4631,-0.69871 -0.4631,-1.11804 0,-0.41932 0.1666,-0.82152 0.4631,-1.11803 0.29651,-0.29651 0.69871,-0.46311 1.11804,-0.46311 z"
       style="fill:#1f77b4;fill-opacity:0.390946;fill-rule:nonzero;stroke:#1f77b4;stroke-width:1;stroke-linecap:butt;stroke-linejoin:round;stroke-miterlimit:10;stroke-dasharray:none;stroke-opacity:0.390946"
       transform="matrix(1.3333333,0,0,-1.3333333,0,460.8)"
       clip-path="url(#clipPath151)" />
    <path
       id="path152"
       d="m 236.98829,179.92042 c 0.41932,0 0.82152,0.1666 1.11803,0.4631 0.2965,0.29651 0.4631,0.69872 0.4631,1.11804 0,0.41932 -0.1666,0.82153 -0.4631,1.11803 -0.29651,0.29651 -0.69871,0.46311 -1.11803,0.46311 -0.41933,0 -0.82153,-0.1666 -1.11804,-0.46311 -0.29651,-0.2965 -0.4631,-0.69871 -0.4631,-1.11803 0,-0.41932 0.16659,-0.82153 0.4631,-1.11804 0.29651,-0.2965 0.69871,-0.4631 1.11804,-0.4631 z"
       style="fill:#1f77b4;fill-opacity:0.430319;fill-rule:nonzero;stroke:#1f77b4;stroke-width:1;stroke-linecap:butt;stroke-linejoin:round;stroke-miterlimit:10;stroke-dasharray:none;stroke-opacity:0.430319"
       transform="matrix(1.3333333,0,0,-1.3333333,0,460.8)"
       clip-path="url(#clipPath153)" />
    <path
       id="path154"
       d="m 255.70276,224.35746 c 0.41932,0 0.82153,0.1666 1.11803,0.4631 0.29651,0.29651 0.46311,0.69871 0.46311,1.11804 0,0.41932 -0.1666,0.82152 -0.46311,1.11803 -0.2965,0.29651 -0.69871,0.4631 -1.11803,0.4631 -0.41933,0 -0.82153,-0.16659 -1.11804,-0.4631 -0.2965,-0.29651 -0.4631,-0.69871 -0.4631,-1.11803 0,-0.41933 0.1666,-0.82153 0.4631,-1.11804 0.29651,-0.2965 0.69871,-0.4631 1.11804,-0.4631 z"
       style="fill:#1f77b4;fill-opacity:0.521884;fill-rule:nonzero;stroke:#1f77b4;stroke-width:1;stroke-linecap:butt;stroke-linejoin:round;stroke-miterlimit:10;stroke-dasharray:none;stroke-opacity:0.521884"
       transform="matrix(1.3333333,0,0,-1.3333333,0,460.8)"
       clip-path="url(#clipPath155)" />
    <path
       id="path156"
       d="m 213.48404,126.28656 c 0.41932,0 0.82153,0.1666 1.11804,0.46311 0.2965,0.2965 0.4631,0.69871 0.4631,1.11803 0,0.41932 -0.1666,0.82153 -0.4631,1.11803 -0.29651,0.29651 -0.69872,0.46311 -1.11804,0.46311 -0.41932,0 -0.82153,-0.1666 -1.11803,-0.46311 -0.29651,-0.2965 -0.46311,-0.69871 -0.46311,-1.11803 0,-0.41932 0.1666,-0.82153 0.46311,-1.11803 0.2965,-0.29651 0.69871,-0.46311 1.11803,-0.46311 z"
       style="fill:#1f77b4;fill-opacity:0.772611;fill-rule:nonzero;stroke:#1f77b4;stroke-width:1;stroke-linecap:butt;stroke-linejoin:round;stroke-miterlimit:10;stroke-dasharray:none;stroke-opacity:0.772611"
       transform="matrix(1.3333333,0,0,-1.3333333,0,460.8)"
       clip-path="url(#clipPath157)" />
    <path
       id="path158"
       d="m 232.30869,170.99042 c 0.41932,0 0.82153,0.1666 1.11803,0.4631 0.29651,0.29651 0.46311,0.69872 0.46311,1.11804 0,0.41932 -0.1666,0.82153 -0.46311,1.11803 -0.2965,0.29651 -0.69871,0.46311 -1.11803,0.46311 -0.41932,0 -0.82153,-0.1666 -1.11803,-0.46311 -0.29651,-0.2965 -0.46311,-0.69871 -0.46311,-1.11803 0,-0.41932 0.1666,-0.82153 0.46311,-1.11804 0.2965,-0.2965 0.69871,-0.4631 1.11803,-0.4631 z"
       style="fill:#1f77b4;fill-opacity:0.86581;fill-rule:nonzero;stroke:#1f77b4;stroke-width:1;stroke-linecap:butt;stroke-linejoin:round;stroke-miterlimit:10;stroke-dasharray:none;stroke-opacity:0.86581"
       transform="matrix(1.3333333,0,0,-1.3333333,0,460.8)"
       clip-path="url(#clipPath159)" />
    <path
       id="path160"
       d="m 302.01928,137.13129 c 0.41932,0 0.82153,0.1666 1.11803,0.46311 0.29651,0.2965 0.46311,0.69871 0.46311,1.11803 0,0.41933 -0.1666,0.82153 -0.46311,1.11804 -0.2965,0.2965 -0.69871,0.4631 -1.11803,0.4631 -0.41933,0 -0.82153,-0.1666 -1.11804,-0.4631 -0.2965,-0.29651 -0.4631,-0.69871 -0.4631,-1.11804 0,-0.41932 0.1666,-0.82153 0.4631,-1.11803 0.29651,-0.29651 0.69871,-0.46311 1.11804,-0.46311 z"
       style="fill:#1f77b4;fill-opacity:0.90616;fill-rule:nonzero;stroke:#1f77b4;stroke-width:1;stroke-linecap:butt;stroke-linejoin:round;stroke-miterlimit:10;stroke-dasharray:none;stroke-opacity:0.90616"
       transform="matrix(1.3333333,0,0,-1.3333333,0,460.8)"
       clip-path="url(#clipPath161)" />
    <path
       id="path162"
       d="m 321.12145,182.01499 c 0.41932,0 0.82152,0.1666 1.11803,0.46311 0.29651,0.2965 0.4631,0.69871 0.4631,1.11803 0,0.41932 -0.16659,0.82153 -0.4631,1.11804 -0.29651,0.2965 -0.69871,0.4631 -1.11803,0.4631 -0.41933,0 -0.82153,-0.1666 -1.11804,-0.4631 -0.2965,-0.29651 -0.4631,-0.69872 -0.4631,-1.11804 0,-0.41932 0.1666,-0.82153 0.4631,-1.11803 0.29651,-0.29651 0.69871,-0.46311 1.11804,-0.46311 z"
       style="fill:#1f77b4;fill-opacity:1;fill-rule:nonzero;stroke:#1f77b4;stroke-width:1;stroke-linecap:butt;stroke-linejoin:round;stroke-miterlimit:10;stroke-dasharray:none;stroke-opacity:1"
       transform="matrix(1.3333333,0,0,-1.3333333,0,460.8)"
       clip-path="url(#clipPath163)" />
    <path
       id="path164"
       d="m 321.12145,181.36006 c 0.59301,0 1.16181,0.23561 1.58113,0.65493 0.41933,0.41933 0.65493,0.98813 0.65493,1.58114 0,0.59301 -0.2356,1.16182 -0.65493,1.58114 -0.41932,0.41932 -0.98812,0.65493 -1.58113,0.65493 -0.59302,0 -1.16182,-0.23561 -1.58114,-0.65493 -0.41932,-0.41932 -0.65493,-0.98813 -0.65493,-1.58114 0,-0.59301 0.23561,-1.16181 0.65493,-1.58114 0.41932,-0.41932 0.98812,-0.65493 1.58114,-0.65493 z"
       style="fill:#d62728;fill-opacity:1;fill-rule:nonzero;stroke:#d62728;stroke-width:1;stroke-linecap:butt;stroke-linejoin:round;stroke-miterlimit:10;stroke-dasharray:none;stroke-opacity:1"
       transform="matrix(1.3333333,0,0,-1.3333333,0,460.8)"
       clip-path="url(#clipPath165)" />
  </g>
</svg>
