<?xml version="1.0" encoding="UTF-8" standalone="no"?>
<!-- Created with Inkscape (http://www.inkscape.org/) -->

<svg
   version="1.1"
   id="svg1"
   width="383.9884"
   height="393.89417"
   viewBox="0 0 383.9884 393.89417"
   sodipodi:docname="gamma_vis.pdf"
   xmlns:inkscape="http://www.inkscape.org/namespaces/inkscape"
   xmlns:sodipodi="http://sodipodi.sourceforge.net/DTD/sodipodi-0.dtd"
   xmlns="http://www.w3.org/2000/svg"
   xmlns:svg="http://www.w3.org/2000/svg">
  <defs
     id="defs1">
    <clipPath
       clipPathUnits="userSpaceOnUse"
       id="clipPath224">
      <path
         d="M 371.34,15.12 H 701.1 V 344.88 H 371.34 Z"
         id="path224" />
    </clipPath>
    <clipPath
       clipPathUnits="userSpaceOnUse"
       id="clipPath226">
      <path
         d="M 371.34,15.12 H 701.1 V 344.88 H 371.34 Z"
         id="path226" />
    </clipPath>
    <clipPath
       clipPathUnits="userSpaceOnUse"
       id="clipPath228">
      <path
         d="M 371.34,15.12 H 701.1 V 344.88 H 371.34 Z"
         id="path228" />
    </clipPath>
    <clipPath
       clipPathUnits="userSpaceOnUse"
       id="clipPath230">
      <path
         d="M 371.34,15.12 H 701.1 V 344.88 H 371.34 Z"
         id="path230" />
    </clipPath>
    <clipPath
       clipPathUnits="userSpaceOnUse"
       id="clipPath232">
      <path
         d="M 371.34,15.12 H 701.1 V 344.88 H 371.34 Z"
         id="path232" />
    </clipPath>
    <clipPath
       clipPathUnits="userSpaceOnUse"
       id="clipPath234">
      <path
         d="M 371.34,15.12 H 701.1 V 344.88 H 371.34 Z"
         id="path234" />
    </clipPath>
    <clipPath
       clipPathUnits="userSpaceOnUse"
       id="clipPath236">
      <path
         d="M 371.34,15.12 H 701.1 V 344.88 H 371.34 Z"
         id="path236" />
    </clipPath>
    <clipPath
       clipPathUnits="userSpaceOnUse"
       id="clipPath238">
      <path
         d="M 371.34,15.12 H 701.1 V 344.88 H 371.34 Z"
         id="path238" />
    </clipPath>
    <clipPath
       clipPathUnits="userSpaceOnUse"
       id="clipPath240">
      <path
         d="M 371.34,15.12 H 701.1 V 344.88 H 371.34 Z"
         id="path240" />
    </clipPath>
    <clipPath
       clipPathUnits="userSpaceOnUse"
       id="clipPath242">
      <path
         d="M 371.34,15.12 H 701.1 V 344.88 H 371.34 Z"
         id="path242" />
    </clipPath>
    <clipPath
       clipPathUnits="userSpaceOnUse"
       id="clipPath244">
      <path
         d="M 371.34,15.12 H 701.1 V 344.88 H 371.34 Z"
         id="path244" />
    </clipPath>
    <clipPath
       clipPathUnits="userSpaceOnUse"
       id="clipPath246">
      <path
         d="M 371.34,15.12 H 701.1 V 344.88 H 371.34 Z"
         id="path246" />
    </clipPath>
    <clipPath
       clipPathUnits="userSpaceOnUse"
       id="clipPath248">
      <path
         d="M 371.34,15.12 H 701.1 V 344.88 H 371.34 Z"
         id="path248" />
    </clipPath>
    <clipPath
       clipPathUnits="userSpaceOnUse"
       id="clipPath250">
      <path
         d="M 371.34,15.12 H 701.1 V 344.88 H 371.34 Z"
         id="path250" />
    </clipPath>
    <clipPath
       clipPathUnits="userSpaceOnUse"
       id="clipPath252">
      <path
         d="M 371.34,15.12 H 701.1 V 344.88 H 371.34 Z"
         id="path252" />
    </clipPath>
    <clipPath
       clipPathUnits="userSpaceOnUse"
       id="clipPath254">
      <path
         d="M 371.34,15.12 H 701.1 V 344.88 H 371.34 Z"
         id="path254" />
    </clipPath>
    <clipPath
       clipPathUnits="userSpaceOnUse"
       id="clipPath256">
      <path
         d="M 371.34,15.12 H 701.1 V 344.88 H 371.34 Z"
         id="path256" />
    </clipPath>
    <clipPath
       clipPathUnits="userSpaceOnUse"
       id="clipPath261">
      <path
         d="M 371.34,15.12 H 701.1 V 344.88 H 371.34 Z"
         id="path261" />
    </clipPath>
    <clipPath
       clipPathUnits="userSpaceOnUse"
       id="clipPath263">
      <path
         d="M 371.34,15.12 H 701.1 V 344.88 H 371.34 Z"
         id="path263" />
    </clipPath>
    <clipPath
       clipPathUnits="userSpaceOnUse"
       id="clipPath265">
      <path
         d="M 371.34,15.12 H 701.1 V 344.88 H 371.34 Z"
         id="path265" />
    </clipPath>
    <clipPath
       clipPathUnits="userSpaceOnUse"
       id="clipPath267">
      <path
         d="M 371.34,15.12 H 701.1 V 344.88 H 371.34 Z"
         id="path267" />
    </clipPath>
    <clipPath
       clipPathUnits="userSpaceOnUse"
       id="clipPath269">
      <path
         d="M 371.34,15.12 H 701.1 V 344.88 H 371.34 Z"
         id="path269" />
    </clipPath>
    <clipPath
       clipPathUnits="userSpaceOnUse"
       id="clipPath271">
      <path
         d="M 371.34,15.12 H 701.1 V 344.88 H 371.34 Z"
         id="path271" />
    </clipPath>
    <clipPath
       clipPathUnits="userSpaceOnUse"
       id="clipPath273">
      <path
         d="M 371.34,15.12 H 701.1 V 344.88 H 371.34 Z"
         id="path273" />
    </clipPath>
    <clipPath
       clipPathUnits="userSpaceOnUse"
       id="clipPath275">
      <path
         d="M 371.34,15.12 H 701.1 V 344.88 H 371.34 Z"
         id="path275" />
    </clipPath>
    <clipPath
       clipPathUnits="userSpaceOnUse"
       id="clipPath277">
      <path
         d="M 371.34,15.12 H 701.1 V 344.88 H 371.34 Z"
         id="path277" />
    </clipPath>
    <clipPath
       clipPathUnits="userSpaceOnUse"
       id="clipPath279">
      <path
         d="M 371.34,15.12 H 701.1 V 344.88 H 371.34 Z"
         id="path279" />
    </clipPath>
    <clipPath
       clipPathUnits="userSpaceOnUse"
       id="clipPath281">
      <path
         d="M 371.34,15.12 H 701.1 V 344.88 H 371.34 Z"
         id="path281" />
    </clipPath>
    <clipPath
       clipPathUnits="userSpaceOnUse"
       id="clipPath283">
      <path
         d="M 371.34,15.12 H 701.1 V 344.88 H 371.34 Z"
         id="path283" />
    </clipPath>
    <clipPath
       clipPathUnits="userSpaceOnUse"
       id="clipPath285">
      <path
         d="M 371.34,15.12 H 701.1 V 344.88 H 371.34 Z"
         id="path285" />
    </clipPath>
    <clipPath
       clipPathUnits="userSpaceOnUse"
       id="clipPath287">
      <path
         d="M 371.34,15.12 H 701.1 V 344.88 H 371.34 Z"
         id="path287" />
    </clipPath>
    <clipPath
       clipPathUnits="userSpaceOnUse"
       id="clipPath289">
      <path
         d="M 371.34,15.12 H 701.1 V 344.88 H 371.34 Z"
         id="path289" />
    </clipPath>
    <clipPath
       clipPathUnits="userSpaceOnUse"
       id="clipPath291">
      <path
         d="M 371.34,15.12 H 701.1 V 344.88 H 371.34 Z"
         id="path291" />
    </clipPath>
    <clipPath
       clipPathUnits="userSpaceOnUse"
       id="clipPath293">
      <path
         d="M 371.34,15.12 H 701.1 V 344.88 H 371.34 Z"
         id="path293" />
    </clipPath>
    <clipPath
       clipPathUnits="userSpaceOnUse"
       id="clipPath295">
      <path
         d="M 371.34,15.12 H 701.1 V 344.88 H 371.34 Z"
         id="path295" />
    </clipPath>
    <clipPath
       clipPathUnits="userSpaceOnUse"
       id="clipPath297">
      <path
         d="M 371.34,15.12 H 701.1 V 344.88 H 371.34 Z"
         id="path297" />
    </clipPath>
  </defs>
  <sodipodi:namedview
     id="namedview1"
     pagecolor="#ffffff"
     bordercolor="#000000"
     borderopacity="0.25"
     inkscape:showpageshadow="2"
     inkscape:pageopacity="0.0"
     inkscape:pagecheckerboard="0"
     inkscape:deskcolor="#d1d1d1">
    <inkscape:page
       x="0"
       y="0"
       width="383.9884"
       height="393.89417"
       id="page2"
       margin="0"
       bleed="0" />
  </sodipodi:namedview>
  <g
     id="g1"
     inkscape:groupmode="layer"
     inkscape:label="1"
     transform="translate(-512.62567,-63.781604)">
    <path
       id="path129"
       d="M 371.34,15.12 H 701.1 V 344.88 H 371.34 Z"
       style="fill:#ffffff;fill-opacity:1;fill-rule:nonzero;stroke:none"
       transform="matrix(1.3333333,0,0,-1.3333333,0,480)" />
    <path
       id="path130"
       d="M 666.03242,70.284251 620.21527,177.56375 623.63812,310.12716 672.0122,212.112"
       style="fill:#f2f2f2;fill-opacity:0.5;fill-rule:nonzero;stroke:#f2f2f2;stroke-width:1;stroke-linecap:butt;stroke-linejoin:miter;stroke-miterlimit:10;stroke-dasharray:none;stroke-opacity:0.5"
       transform="matrix(1.3333333,0,0,-1.3333333,0,480)" />
    <path
       id="path131"
       d="m 425.1716,160.13409 195.04367,17.42966 3.42285,132.56341 -203.52438,-15.86501"
       style="fill:#e6e6e6;fill-opacity:0.5;fill-rule:nonzero;stroke:#e6e6e6;stroke-width:1;stroke-linecap:butt;stroke-linejoin:miter;stroke-miterlimit:10;stroke-dasharray:none;stroke-opacity:0.5"
       transform="matrix(1.3333333,0,0,-1.3333333,0,480)" />
    <path
       id="path132"
       d="M 451.26838,49.02095 666.03242,70.284251 620.21527,177.56375 425.1716,160.13409"
       style="fill:#ececec;fill-opacity:0.5;fill-rule:nonzero;stroke:#ececec;stroke-width:1;stroke-linecap:butt;stroke-linejoin:miter;stroke-miterlimit:10;stroke-dasharray:none;stroke-opacity:0.5"
       transform="matrix(1.3333333,0,0,-1.3333333,0,480)" />
    <path
       id="path133"
       d="M 465.17291,50.397606 437.77879,161.2607 433.27801,295.28832"
       style="fill:none;stroke:#b0b0b0;stroke-width:0.8;stroke-linecap:butt;stroke-linejoin:round;stroke-miterlimit:10;stroke-dasharray:none;stroke-opacity:1"
       transform="matrix(1.3333333,0,0,-1.3333333,0,480)" />
    <path
       id="path134"
       d="M 512.597,55.092958 480.79946,165.10516 478.19041,298.78931"
       style="fill:none;stroke:#b0b0b0;stroke-width:0.8;stroke-linecap:butt;stroke-linejoin:round;stroke-miterlimit:10;stroke-dasharray:none;stroke-opacity:1"
       transform="matrix(1.3333333,0,0,-1.3333333,0,480)" />
    <path
       id="path135"
       d="M 559.63976,59.750555 523.50694,168.92162 522.76165,302.2637"
       style="fill:none;stroke:#b0b0b0;stroke-width:0.8;stroke-linecap:butt;stroke-linejoin:round;stroke-miterlimit:10;stroke-dasharray:none;stroke-opacity:1"
       transform="matrix(1.3333333,0,0,-1.3333333,0,480)" />
    <path
       id="path136"
       d="M 606.30578,64.370851 565.90463,172.7104 566.9956,305.7118"
       style="fill:none;stroke:#b0b0b0;stroke-width:0.8;stroke-linecap:butt;stroke-linejoin:round;stroke-miterlimit:10;stroke-dasharray:none;stroke-opacity:1"
       transform="matrix(1.3333333,0,0,-1.3333333,0,480)" />
    <path
       id="path137"
       d="m 652.59955,68.954293 -44.60366,107.517507 2.9002,132.6621"
       style="fill:none;stroke:#b0b0b0;stroke-width:0.8;stroke-linecap:butt;stroke-linejoin:round;stroke-miterlimit:10;stroke-dasharray:none;stroke-opacity:1"
       transform="matrix(1.3333333,0,0,-1.3333333,0,480)" />
    <path
       id="path138"
       d="M 668.62328,218.97861 662.83593,77.768736 449.44475,56.785476"
       style="fill:none;stroke:#b0b0b0;stroke-width:0.8;stroke-linecap:butt;stroke-linejoin:round;stroke-miterlimit:10;stroke-dasharray:none;stroke-opacity:1"
       transform="matrix(1.3333333,0,0,-1.3333333,0,480)" />
    <path
       id="path139"
       d="M 657.34882,241.82282 652.1873,102.70221 443.3728,82.63823"
       style="fill:none;stroke:#b0b0b0;stroke-width:0.8;stroke-linecap:butt;stroke-linejoin:round;stroke-miterlimit:10;stroke-dasharray:none;stroke-opacity:1"
       transform="matrix(1.3333333,0,0,-1.3333333,0,480)" />
    <path
       id="path140"
       d="M 646.58064,263.64121 641.99614,126.5645 437.56631,107.36069"
       style="fill:none;stroke:#b0b0b0;stroke-width:0.8;stroke-linecap:butt;stroke-linejoin:round;stroke-miterlimit:10;stroke-dasharray:none;stroke-opacity:1"
       transform="matrix(1.3333333,0,0,-1.3333333,0,480)" />
    <path
       id="path141"
       d="M 636.2854,284.50136 632.2336,149.4232 432.00826,131.0254"
       style="fill:none;stroke:#b0b0b0;stroke-width:0.8;stroke-linecap:butt;stroke-linejoin:round;stroke-miterlimit:10;stroke-dasharray:none;stroke-opacity:1"
       transform="matrix(1.3333333,0,0,-1.3333333,0,480)" />
    <path
       id="path142"
       d="M 626.43259,304.46503 622.87319,171.34031 426.68303,153.69883"
       style="fill:none;stroke:#b0b0b0;stroke-width:0.8;stroke-linecap:butt;stroke-linejoin:round;stroke-miterlimit:10;stroke-dasharray:none;stroke-opacity:1"
       transform="matrix(1.3333333,0,0,-1.3333333,0,480)" />
    <path
       id="path143"
       d="M 424.86241,168.33332 620.42465,185.67285 666.39669,78.923755"
       style="fill:none;stroke:#b0b0b0;stroke-width:0.8;stroke-linecap:butt;stroke-linejoin:round;stroke-miterlimit:10;stroke-dasharray:none;stroke-opacity:1"
       transform="matrix(1.3333333,0,0,-1.3333333,0,480)" />
    <path
       id="path144"
       d="m 423.78966,196.78131 197.36131,17.02123 46.51084,-104.87261"
       style="fill:none;stroke:#b0b0b0;stroke-width:0.8;stroke-linecap:butt;stroke-linejoin:round;stroke-miterlimit:10;stroke-dasharray:none;stroke-opacity:1"
       transform="matrix(1.3333333,0,0,-1.3333333,0,480)" />
    <path
       id="path145"
       d="m 422.69685,225.76124 199.1938,16.68809 47.06201,-102.90318"
       style="fill:none;stroke:#b0b0b0;stroke-width:0.8;stroke-linecap:butt;stroke-linejoin:round;stroke-miterlimit:10;stroke-dasharray:none;stroke-opacity:1"
       transform="matrix(1.3333333,0,0,-1.3333333,0,480)" />
    <path
       id="path146"
       d="m 421.58341,255.28816 201.06063,16.33945 47.62599,-100.8364"
       style="fill:none;stroke:#b0b0b0;stroke-width:0.8;stroke-linecap:butt;stroke-linejoin:round;stroke-miterlimit:10;stroke-dasharray:none;stroke-opacity:1"
       transform="matrix(1.3333333,0,0,-1.3333333,0,480)" />
    <path
       id="path147"
       d="m 420.44876,285.37772 202.96279,15.97459 48.20318,-98.66763"
       style="fill:none;stroke:#b0b0b0;stroke-width:0.8;stroke-linecap:butt;stroke-linejoin:round;stroke-miterlimit:10;stroke-dasharray:none;stroke-opacity:1"
       transform="matrix(1.3333333,0,0,-1.3333333,0,480)" />
    <path
       id="path148"
       d="M 666.03242,70.284251 451.26838,49.02095"
       style="fill:none;stroke:#000000;stroke-width:0.8;stroke-linecap:square;stroke-linejoin:round;stroke-miterlimit:10;stroke-dasharray:none;stroke-opacity:1"
       transform="matrix(1.3333333,0,0,-1.3333333,0,480)" />
    <path
       id="path149"
       d="m 464.93087,51.377122 0.72734,-2.94351"
       style="fill:none;stroke:#000000;stroke-width:0.8;stroke-linecap:square;stroke-linejoin:round;stroke-miterlimit:10;stroke-dasharray:none;stroke-opacity:1"
       transform="matrix(1.3333333,0,0,-1.3333333,0,480)" />
    <g
       id="g149"
       aria-label="−1.0"
       transform="matrix(1.3333333,0,0,1.3333333,604.3922,449.29895)">
      <path
         id="path150"
         d="m 9.1863221,-3.2095669 c 0.234375,0 0.4921875,0 0.4921875,-0.28125 0,-0.2695312 -0.2578125,-0.2695312 -0.4921875,-0.2695312 h -7.546875 c -0.234375,0 -0.4804687,0 -0.4804687,0.2695312 0,0.28125 0.2460937,0.28125 0.4804687,0.28125 z m 0,0"
         style="fill:#000000;fill-opacity:1;fill-rule:nonzero;stroke:none" />
      <path
         id="path151"
         d="m 14.866986,-8.9400356 c 0,-0.3164063 0,-0.328125 -0.28125,-0.328125 -0.339844,0.375 -1.03125,0.890625 -2.472656,0.890625 v 0.3984375 c 0.328125,0 1.019531,0 1.792969,-0.3632813 v 7.265625 c 0,0.50390627 -0.04687,0.66796877 -1.277344,0.66796877 h -0.433594 v 0.41015625 c 0.386719,-0.0234375 1.734375,-0.0234375 2.191406,-0.0234375 0.46875,0 1.804688,0 2.179688,0.0234375 v -0.41015625 h -0.433594 c -1.230469,0 -1.265625,-0.1640625 -1.265625,-0.66796877 z m 0,0"
         style="fill:#000000;fill-opacity:1;fill-rule:nonzero;stroke:none" />
      <path
         id="path152"
         d="m 20.242963,-0.66659813 c 0,-0.41015627 -0.339844,-0.67968747 -0.667969,-0.67968747 -0.410156,0 -0.679687,0.328125 -0.679687,0.66796872 0,0.3984375 0.328125,0.6796875 0.667968,0.6796875 0.398438,0 0.679688,-0.33984375 0.679688,-0.66796875 z m 0,0"
         style="fill:#000000;fill-opacity:1;fill-rule:nonzero;stroke:none" />
      <path
         id="path153"
         d="m 27.716596,-4.4634731 c 0,-1.1601563 -0.07031,-2.2851563 -0.574219,-3.3398438 -0.5625,-1.1601562 -1.570313,-1.4648437 -2.25,-1.4648437 -0.808594,0 -1.804688,0.3984375 -2.320313,1.5585937 -0.386718,0.8789063 -0.527343,1.7460938 -0.527343,3.2460938 0,1.359375 0.09375,2.3671875 0.597656,3.3632812 0.539062,1.05468752 1.5,1.39453127 2.226562,1.39453127 1.21875,0 1.910157,-0.7265625 2.320313,-1.53515627 0.503906,-1.0429687 0.527344,-2.4140625 0.527344,-3.2226562 z m -2.847657,4.47656247 c -0.445312,0 -1.347656,-0.24609375 -1.617187,-1.76953127 -0.152344,-0.8320312 -0.152344,-1.8984375 -0.152344,-2.8710937 0,-1.1484375 0,-2.1796875 0.222656,-3 0.246094,-0.9375 0.949219,-1.3710938 1.546875,-1.3710938 0.539063,0 1.347657,0.328125 1.605469,1.5234375 0.1875,0.796875 0.1875,1.8984375 0.1875,2.8476563 0,0.9375 0,1.9921875 -0.152344,2.8476562 -0.269531,1.53515627 -1.148437,1.79296877 -1.640625,1.79296877 z m 0,0"
         style="fill:#000000;fill-opacity:1;fill-rule:nonzero;stroke:none" />
    </g>
    <path
       id="path154"
       d="m 512.31616,56.064585 0.84393,-2.919784"
       style="fill:none;stroke:#000000;stroke-width:0.8;stroke-linecap:square;stroke-linejoin:round;stroke-miterlimit:10;stroke-dasharray:none;stroke-opacity:1"
       transform="matrix(1.3333333,0,0,-1.3333333,0,480)" />
    <g
       id="g154"
       aria-label="−0.5"
       transform="matrix(1.3333333,0,0,1.3333333,667.86195,442.91954)">
      <path
         id="path155"
         d="m 9.1884979,-3.2121138 c 0.234375,0 0.4921875,0 0.4921875,-0.28125 0,-0.2695312 -0.2578125,-0.2695312 -0.4921875,-0.2695312 h -7.546875 c -0.234375,0 -0.4804688,0 -0.4804688,0.2695312 0,0.28125 0.2460938,0.28125 0.4804688,0.28125 z m 0,0"
         style="fill:#000000;fill-opacity:1;fill-rule:nonzero;stroke:none" />
      <path
         id="path156"
         d="m 17.095724,-4.46602 c 0,-1.1601563 -0.07031,-2.2851563 -0.574218,-3.3398438 -0.5625,-1.1601562 -1.570313,-1.4648437 -2.25,-1.4648437 -0.808594,0 -1.804688,0.3984375 -2.320313,1.5585937 -0.386719,0.8789063 -0.527344,1.7460938 -0.527344,3.2460938 0,1.359375 0.09375,2.3671875 0.597657,3.3632812 0.539062,1.0546875 1.5,1.39453125 2.226562,1.39453125 1.21875,0 1.910156,-0.7265625 2.320313,-1.53515625 0.503906,-1.0429687 0.527343,-2.4140625 0.527343,-3.2226562 z m -2.847656,4.47656245 c -0.445312,0 -1.347656,-0.24609375 -1.617187,-1.76953125 -0.152344,-0.8320312 -0.152344,-1.8984375 -0.152344,-2.8710937 0,-1.1484375 0,-2.1796875 0.222656,-3 0.246094,-0.9375 0.949219,-1.3710938 1.546875,-1.3710938 0.539063,0 1.347656,0.328125 1.605469,1.5234375 0.1875,0.796875 0.1875,1.8984375 0.1875,2.8476563 0,0.9375 0,1.9921875 -0.152344,2.8476562 -0.269531,1.53515625 -1.148437,1.79296875 -1.640625,1.79296875 z m 0,0"
         style="fill:#000000;fill-opacity:1;fill-rule:nonzero;stroke:none" />
      <path
         id="path157"
         d="m 20.242209,-0.66914505 c 0,-0.41015625 -0.339844,-0.67968745 -0.667969,-0.67968745 -0.410156,0 -0.679687,0.328125 -0.679687,0.6679687 0,0.3984375 0.328125,0.6796875 0.667968,0.6796875 0.398438,0 0.679688,-0.33984375 0.679688,-0.66796875 z m 0,0"
         style="fill:#000000;fill-opacity:1;fill-rule:nonzero;stroke:none" />
      <path
         id="path158"
         d="m 23.250998,-7.9933638 c 0.597656,0.1992188 1.089844,0.2109375 1.242187,0.2109375 1.582032,0 2.578125,-1.1601562 2.578125,-1.3476562 0,-0.058594 -0.02344,-0.1289063 -0.105468,-0.1289063 -0.03516,0 -0.05859,0 -0.1875,0.058594 -0.773438,0.328125 -1.441407,0.375 -1.804688,0.375 -0.925781,0 -1.582031,-0.28125 -1.839844,-0.3984375 -0.105468,-0.035156 -0.128906,-0.035156 -0.140625,-0.035156 -0.117187,0 -0.117187,0.082031 -0.117187,0.3046875 v 4.1367188 c 0,0.2578125 0,0.3398437 0.164062,0.3398437 0.07031,0 0.09375,-0.011719 0.234375,-0.1757812 0.386719,-0.5742188 1.042969,-0.9140625 1.734375,-0.9140625 0.738282,0 1.101563,0.6796875 1.21875,0.9257812 0.234375,0.5390625 0.246094,1.21875 0.246094,1.7578125 0,0.5273438 0,1.3242188 -0.386719,1.9453125 -0.304687,0.50390625 -0.855468,0.85546875 -1.464843,0.85546875 -0.925782,0 -1.828125,-0.6328125 -2.074219,-1.65234375 0.07031,0.035156 0.152344,0.046875 0.222656,0.046875 0.234375,0 0.609375,-0.140625 0.609375,-0.609375 0,-0.3984375 -0.269531,-0.6210937 -0.609375,-0.6210937 -0.257812,0 -0.621094,0.1289062 -0.621094,0.6679687 0,1.1953125 0.949219,2.54296875 2.496094,2.54296875 1.582031,0 2.964844,-1.32421875 2.964844,-3.09374995 0,-1.6640625 -1.125,-3.046875 -2.589844,-3.046875 -0.785156,0 -1.40625,0.3515625 -1.769531,0.7382812 z m 0,0"
         style="fill:#000000;fill-opacity:1;fill-rule:nonzero;stroke:none" />
    </g>
    <path
       id="path159"
       d="m 559.32076,60.714389 0.95862,-2.896344"
       style="fill:none;stroke:#000000;stroke-width:0.8;stroke-linecap:square;stroke-linejoin:round;stroke-miterlimit:10;stroke-dasharray:none;stroke-opacity:1"
       transform="matrix(1.3333333,0,0,-1.3333333,0,480)" />
    <g
       id="g159"
       aria-label="0.0"
       transform="matrix(1.3333333,0,0,1.3333333,738.0515,436.59162)">
      <path
         id="path160"
         d="m 6.2455528,-4.4661748 c 0,-1.1601562 -0.070312,-2.2851562 -0.5742187,-3.3398437 -0.5625,-1.1601563 -1.5703125,-1.4648438 -2.25,-1.4648438 -0.8085938,0 -1.8046875,0.3984375 -2.3203125,1.5585938 -0.38671876,0.8789062 -0.52734376,1.7460937 -0.52734376,3.2460937 0,1.359375 0.09375,2.3671875 0.59765626,3.3632813 0.5390625,1.05468748 1.5,1.39453123 2.2265625,1.39453123 1.21875,0 1.9101562,-0.7265625 2.3203125,-1.53515623 0.5039062,-1.0429688 0.5273437,-2.4140625 0.5273437,-3.2226563 z M 3.3978966,0.01038773 c -0.4453125,0 -1.3476563,-0.24609375 -1.6171875,-1.76953123 -0.1523438,-0.8320313 -0.1523438,-1.8984375 -0.1523438,-2.8710938 0,-1.1484375 0,-2.1796875 0.2226563,-3 0.2460937,-0.9375 0.9492187,-1.3710937 1.546875,-1.3710937 0.5390625,0 1.3476562,0.328125 1.6054687,1.5234375 0.1875,0.796875 0.1875,1.8984375 0.1875,2.8476562 0,0.9375 0,1.9921875 -0.1523437,2.8476563 -0.2695313,1.53515623 -1.1484375,1.79296873 -1.640625,1.79296873 z m 0,0"
         style="fill:#000000;fill-opacity:1;fill-rule:nonzero;stroke:none" />
      <path
         id="path161"
         d="m 9.3949669,-0.66929977 c 0,-0.41015623 -0.3398437,-0.67968753 -0.6679687,-0.67968753 -0.4101563,0 -0.6796875,0.328125 -0.6796875,0.66796878 0,0.3984375 0.328125,0.6796875 0.6679687,0.6796875 0.3984375,0 0.6796875,-0.33984375 0.6796875,-0.66796875 z m 0,0"
         style="fill:#000000;fill-opacity:1;fill-rule:nonzero;stroke:none" />
      <path
         id="path162"
         d="m 16.8686,-4.4661748 c 0,-1.1601562 -0.07031,-2.2851562 -0.574219,-3.3398437 -0.5625,-1.1601563 -1.570313,-1.4648438 -2.25,-1.4648438 -0.808594,0 -1.804688,0.3984375 -2.320313,1.5585938 -0.386718,0.8789062 -0.527343,1.7460937 -0.527343,3.2460937 0,1.359375 0.09375,2.3671875 0.597656,3.3632813 0.539062,1.05468748 1.5,1.39453123 2.226562,1.39453123 1.21875,0 1.910157,-0.7265625 2.320313,-1.53515623 0.503906,-1.0429688 0.527344,-2.4140625 0.527344,-3.2226563 z m -2.847657,4.47656253 c -0.445312,0 -1.347656,-0.24609375 -1.617187,-1.76953123 -0.152344,-0.8320313 -0.152344,-1.8984375 -0.152344,-2.8710938 0,-1.1484375 0,-2.1796875 0.222656,-3 0.246094,-0.9375 0.949219,-1.3710937 1.546875,-1.3710937 0.539063,0 1.347657,0.328125 1.605469,1.5234375 0.1875,0.796875 0.1875,1.8984375 0.1875,2.8476562 0,0.9375 0,1.9921875 -0.152344,2.8476563 -0.269531,1.53515623 -1.148437,1.79296873 -1.640625,1.79296873 z m 0,0"
         style="fill:#000000;fill-opacity:1;fill-rule:nonzero;stroke:none" />
    </g>
    <path
       id="path163"
       d="M 605.94923,65.326985 607.02067,62.4538"
       style="fill:none;stroke:#000000;stroke-width:0.8;stroke-linecap:square;stroke-linejoin:round;stroke-miterlimit:10;stroke-dasharray:none;stroke-opacity:1"
       transform="matrix(1.3333333,0,0,-1.3333333,0,480)" />
    <g
       id="g163"
       aria-label="0.5"
       transform="matrix(1.3333333,0,0,1.3333333,800.50272,430.31458)">
      <path
         id="path164"
         d="m 6.2469862,-4.4634715 c 0,-1.1601563 -0.070312,-2.2851563 -0.5742187,-3.3398438 -0.5625,-1.1601562 -1.5703125,-1.4648437 -2.25,-1.4648437 -0.8085938,0 -1.8046875,0.3984375 -2.3203125,1.5585937 -0.38671878,0.8789063 -0.52734378,1.7460938 -0.52734378,3.2460938 0,1.359375 0.09375,2.3671875 0.59765628,3.3632812 0.5390625,1.05468755 1.5,1.3945313 2.2265625,1.3945313 1.21875,0 1.9101562,-0.7265625 2.3203125,-1.5351563 0.5039062,-1.0429687 0.5273437,-2.4140625 0.5273437,-3.2226562 z M 3.39933,0.013091 c -0.4453125,0 -1.3476563,-0.24609375 -1.6171875,-1.7695313 -0.1523438,-0.8320312 -0.1523438,-1.8984375 -0.1523438,-2.8710937 0,-1.1484375 0,-2.1796875 0.2226563,-3 0.2460937,-0.9375 0.9492187,-1.3710938 1.546875,-1.3710938 0.5390625,0 1.3476562,0.328125 1.6054687,1.5234375 0.1875,0.796875 0.1875,1.8984375 0.1875,2.8476563 0,0.9375 0,1.9921875 -0.1523437,2.8476562 C 4.7704237,-0.2447215 3.8915175,0.013091 3.39933,0.013091 Z m 0,0"
         style="fill:#000000;fill-opacity:1;fill-rule:nonzero;stroke:none" />
      <path
         id="path165"
         d="m 9.3934706,-0.6665965 c 0,-0.4101563 -0.3398438,-0.6796875 -0.6679688,-0.6796875 -0.4101562,0 -0.6796875,0.328125 -0.6796875,0.66796875 0,0.3984375 0.328125,0.6796875 0.6679688,0.6796875 0.3984375,0 0.6796875,-0.33984375 0.6796875,-0.66796875 z m 0,0"
         style="fill:#000000;fill-opacity:1;fill-rule:nonzero;stroke:none" />
      <path
         id="path166"
         d="m 12.40226,-7.9908153 c 0.597656,0.1992188 1.089843,0.2109375 1.242187,0.2109375 1.582031,0 2.578125,-1.1601562 2.578125,-1.3476562 0,-0.058594 -0.02344,-0.1289063 -0.105469,-0.1289063 -0.03516,0 -0.05859,0 -0.1875,0.058594 -0.773437,0.328125 -1.441406,0.375 -1.804687,0.375 -0.925781,0 -1.582031,-0.28125 -1.839844,-0.3984375 -0.105469,-0.035156 -0.128906,-0.035156 -0.140625,-0.035156 -0.117187,0 -0.117187,0.082031 -0.117187,0.3046875 v 4.1367188 c 0,0.2578125 0,0.3398437 0.164062,0.3398437 0.07031,0 0.09375,-0.011719 0.234375,-0.1757812 0.386719,-0.5742188 1.042969,-0.9140625 1.734375,-0.9140625 0.738281,0 1.101563,0.6796875 1.21875,0.9257812 0.234375,0.5390625 0.246094,1.21875 0.246094,1.7578125 0,0.5273438 0,1.3242188 -0.386719,1.94531255 -0.304687,0.50390625 -0.855469,0.85546875 -1.464844,0.85546875 -0.925781,0 -1.828125,-0.6328125 -2.074218,-1.6523438 0.07031,0.035156 0.152343,0.046875 0.222656,0.046875 0.234375,0 0.609375,-0.140625 0.609375,-0.609375 0,-0.3984375 -0.269531,-0.6210937 -0.609375,-0.6210937 -0.257813,0 -0.621094,0.1289062 -0.621094,0.6679687 0,1.1953125 0.949219,2.5429688 2.496094,2.5429688 1.582031,0 2.964844,-1.3242188 2.964844,-3.09375 0,-1.6640625 -1.125,-3.046875 -2.589844,-3.046875 -0.785156,0 -1.40625,0.3515625 -1.769531,0.7382812 z m 0,0"
         style="fill:#000000;fill-opacity:1;fill-rule:nonzero;stroke:none" />
    </g>
    <path
       id="path167"
       d="m 652.20606,69.902818 1.18244,-2.850303"
       style="fill:none;stroke:#000000;stroke-width:0.8;stroke-linecap:square;stroke-linejoin:round;stroke-miterlimit:10;stroke-dasharray:none;stroke-opacity:1"
       transform="matrix(1.3333333,0,0,-1.3333333,0,480)" />
    <g
       id="g167"
       aria-label="1.0"
       transform="matrix(1.3333333,0,0,1.3333333,862.45383,424.0878)">
      <path
         id="path168"
         d="m 4.0190032,-8.9428035 c 0,-0.3164062 0,-0.328125 -0.28125,-0.328125 -0.3398438,0.375 -1.03125,0.890625 -2.4726563,0.890625 v 0.3984375 c 0.328125,0 1.0195313,0 1.7929688,-0.3632812 v 7.265625 c 0,0.50390624 -0.046875,0.66796874 -1.2773438,0.66796874 H 1.3471282 v 0.41015625 c 0.3867187,-0.0234375 1.734375,-0.0234375 2.1914062,-0.0234375 0.46875,0 1.8046875,0 2.1796875,0.0234375 V -0.41155346 H 5.2846282 c -1.2304688,0 -1.265625,-0.1640625 -1.265625,-0.66796874 z m 0,0"
         style="fill:#000000;fill-opacity:1;fill-rule:nonzero;stroke:none" />
      <path
         id="path169"
         d="m 9.3949797,-0.66936596 c 0,-0.41015624 -0.3398437,-0.67968754 -0.6679687,-0.67968754 -0.4101563,0 -0.6796875,0.328125 -0.6796875,0.66796879 0,0.3984375 0.328125,0.6796875 0.6679687,0.6796875 0.3984375,0 0.6796875,-0.33984375 0.6796875,-0.66796875 z m 0,0"
         style="fill:#000000;fill-opacity:1;fill-rule:nonzero;stroke:none" />
      <path
         id="path170"
         d="m 16.868613,-4.466241 c 0,-1.1601562 -0.07031,-2.2851562 -0.574219,-3.3398437 -0.5625,-1.1601563 -1.570313,-1.4648438 -2.25,-1.4648438 -0.808594,0 -1.804688,0.3984375 -2.320313,1.5585938 -0.386718,0.8789062 -0.527343,1.7460937 -0.527343,3.2460937 0,1.359375 0.09375,2.3671875 0.597656,3.3632813 0.539062,1.05468749 1.5,1.39453124 2.226562,1.39453124 1.21875,0 1.910157,-0.7265625 2.320313,-1.53515624 0.503906,-1.0429688 0.527344,-2.4140625 0.527344,-3.2226563 z m -2.847657,4.47656254 c -0.445312,0 -1.347656,-0.24609375 -1.617187,-1.76953124 -0.152344,-0.8320313 -0.152344,-1.8984375 -0.152344,-2.8710938 0,-1.1484375 0,-2.1796875 0.222656,-3 0.246094,-0.9375 0.949219,-1.3710937 1.546875,-1.3710937 0.539063,0 1.347657,0.328125 1.605469,1.5234375 0.1875,0.796875 0.1875,1.8984375 0.1875,2.8476562 0,0.9375 0,1.9921875 -0.152344,2.8476563 -0.269531,1.53515624 -1.148437,1.79296874 -1.640625,1.79296874 z m 0,0"
         style="fill:#000000;fill-opacity:1;fill-rule:nonzero;stroke:none" />
    </g>
    <path
       id="path171"
       d="m 6.6060545,-5.7038051 c -0.4453393,0.097221 -0.5965947,0.4355264 -0.5998271,0.7060555 0.00266,0.3299923 0.2511323,0.4370257 0.4505363,0.4449921 0.4244408,-0.00508 0.7191008,-0.3645171 0.7094011,-0.742311 0.011083,-0.587705 -0.6689926,-0.8552305 -1.2461904,-0.8534974 -0.8593887,-0.00265 -1.330821,0.8338743 -1.4506707,1.0928573 -0.3333429,-1.0339675 -1.1869586,-1.0949299 -1.4469805,-1.085346 -1.4249248,2.34e-4 -2.15891708,1.8235066 -2.16561326,2.1290209 0.005889,0.059463 0.0467626,0.1223903 0.15171826,0.1327817 0.1061102,-0.00127 0.1503322,-0.0911 0.1677669,-0.1482544 0.4602309,-1.555976 1.4079478,-1.8507542 1.8195723,-1.8453283 0.6238448,0.00289 0.7421953,0.5916291 0.7320353,0.9321285 0.00497,0.3066689 -0.072856,0.6169172 -0.234271,1.2957226 l -0.4832072,1.9069825 c -0.2114103,0.82694411 -0.6059446,1.60042938 -1.3475613,1.59765987 -0.071125,0.004734 -0.4244408,0.005081 -0.71263603,-0.17654089 0.49314083,-0.10426385 0.60467693,-0.5171586 0.61033423,-0.69323918 -0.00958,-0.2600219 -0.2161471,-0.4335619 -0.4633527,-0.434485 -0.34165401,0.0015 -0.71101848,0.282885 -0.70824642,0.73064926 5.7858e-4,0.58885962 0.65733082,0.85407596 1.24619042,0.85349738 0.6833081,-0.003003 1.1585513,-0.52120098 1.4518253,-1.10451902 0.2246921,0.82301743 0.9152749,1.10335931 1.4330095,1.10751486 1.4249248,-2.3399e-4 2.1705788,-1.82235198 2.1656133,-2.12902078 0.00693,-0.06997 -0.05727,-0.1352067 -0.1400565,-0.1316272 -0.1177719,1.157e-4 -0.1363613,0.068931 -0.1712308,0.1832396 -0.3684387,1.22355874 -1.1782927,1.79105951 -1.8149538,1.79868141 -0.4944112,-0.001846 -0.752471,-0.36890162 -0.7542042,-0.94609951 -0.00612,-0.2950071 0.063619,-0.5236233 0.2831114,-1.4321996 l 0.4820526,-1.8953207 c 0.2137196,-0.8502676 0.6981996,-1.4617589 1.3348607,-1.4693808 0.034985,0.00346 0.4116245,0.00543 0.7009743,0.1753863 z m 0,0"
       style="fill:#000000;fill-opacity:1;fill-rule:nonzero;stroke:none"
       aria-label="x"
       transform="matrix(1.326846,-0.13136801,0.13136801,1.326846,745.8083,456.04527)" />
    <path
       id="path172"
       d="m 2.9708862,-6.2304875 c 9.232e-4,-0.2472056 -0.020091,-0.2728383 -0.255635,-0.2726069 -0.6034065,0.6232688 -1.5105967,0.6276584 -1.80444923,0.6221168 l -0.005542,0.2938525 c 0.18774233,0.00681 0.77660193,0.00623 1.30807613,-0.2473239 l -0.00438,5.03971467 c -8.075e-4,0.3649775 -0.02517,0.49210195 -0.9428671,0.48367515 l -0.3066689,0.004966 0.004966,0.30666884043 C 1.3083525,-0.02425 2.1910646,-0.019287 2.5921819,-0.02667747 c 0.3999627,0.0042713 1.2721677,-0.0035821 1.6220197,0.03105597 l -0.00497,-0.30666884 -0.3171759,-0.007851 c -0.8955285,0.005544 -0.9306294,-0.1156916 -0.9298219,-0.4806691 z m 0,0"
       style="fill:#000000;fill-opacity:1;fill-rule:nonzero;stroke:none"
       aria-label="1"
       transform="matrix(1.326846,-0.13136801,0.13136801,1.326846,756.38048,457.80171)" />
    <path
       id="path173"
       d="M 425.1716,160.13409 451.26838,49.02095"
       style="fill:none;stroke:#000000;stroke-width:0.8;stroke-linecap:square;stroke-linejoin:round;stroke-miterlimit:10;stroke-dasharray:none;stroke-opacity:1"
       transform="matrix(1.3333333,0,0,-1.3333333,0,480)" />
    <path
       id="path174"
       d="M 451.18316,56.956418 445.96639,56.44344"
       style="fill:none;stroke:#000000;stroke-width:0.8;stroke-linecap:square;stroke-linejoin:round;stroke-miterlimit:10;stroke-dasharray:none;stroke-opacity:1"
       transform="matrix(1.3333333,0,0,-1.3333333,0,480)" />
    <g
       id="g174"
       aria-label="−1.0"
       transform="matrix(1.3333333,0,0,1.3333333,561.40121,431.59083)">
      <path
         id="path175"
         d="m 9.1883509,-3.2116757 c 0.234375,0 0.4921875,0 0.4921875,-0.28125 0,-0.2695312 -0.2578125,-0.2695312 -0.4921875,-0.2695312 h -7.546875 c -0.234375,0 -0.4804687,0 -0.4804687,0.2695312 0,0.28125 0.2460937,0.28125 0.4804687,0.28125 z m 0,0"
         style="fill:#000000;fill-opacity:1;fill-rule:nonzero;stroke:none" />
      <path
         id="path176"
         d="m 14.869015,-8.9421444 c 0,-0.3164063 0,-0.328125 -0.28125,-0.328125 -0.339844,0.375 -1.03125,0.890625 -2.472656,0.890625 v 0.3984375 c 0.328125,0 1.019531,0 1.792969,-0.3632813 v 7.265625 c 0,0.50390626 -0.04687,0.66796876 -1.277344,0.66796876 H 12.19714 V -7.381916e-4 C 12.583859,-0.02417569 13.931515,-0.02417569 14.388546,-0.02417569 c 0.46875,0 1.804688,0 2.179688,0.0234374984 V -0.41089444 H 16.13464 c -1.230469,0 -1.265625,-0.1640625 -1.265625,-0.66796876 z m 0,0"
         style="fill:#000000;fill-opacity:1;fill-rule:nonzero;stroke:none" />
      <path
         id="path177"
         d="m 20.242062,-0.66870694 c 0,-0.41015626 -0.339844,-0.67968746 -0.667969,-0.67968746 -0.410156,0 -0.679687,0.328125 -0.679687,0.66796871 0,0.3984375 0.328125,0.6796874984 0.667968,0.6796874984 0.398438,0 0.679688,-0.3398437484 0.679688,-0.6679687484 z m 0,0"
         style="fill:#000000;fill-opacity:1;fill-rule:nonzero;stroke:none" />
      <path
         id="path178"
         d="m 27.715695,-4.4655819 c 0,-1.1601563 -0.07031,-2.2851563 -0.574219,-3.3398438 -0.5625,-1.1601562 -1.570313,-1.4648437 -2.25,-1.4648437 -0.808594,0 -1.804688,0.3984375 -2.320313,1.5585937 -0.386718,0.8789063 -0.527343,1.7460938 -0.527343,3.2460938 0,1.359375 0.09375,2.3671875 0.597656,3.3632812 0.539062,1.05468751 1.5,1.39453126 2.226562,1.39453126 1.21875,0 1.910157,-0.7265625 2.320313,-1.53515626 0.503906,-1.0429687 0.527344,-2.4140625 0.527344,-3.2226562 z m -2.847657,4.47656246 c -0.445312,0 -1.347656,-0.24609375 -1.617187,-1.76953126 -0.152344,-0.8320312 -0.152344,-1.8984375 -0.152344,-2.8710937 0,-1.1484375 0,-2.1796875 0.222656,-3 0.246094,-0.9375 0.949219,-1.3710938 1.546875,-1.3710938 0.539063,0 1.347657,0.328125 1.605469,1.5234375 0.1875,0.796875 0.1875,1.8984375 0.1875,2.8476563 0,0.9375 0,1.9921875 -0.152344,2.8476562 -0.269531,1.53515626 -1.148437,1.79296876 -1.640625,1.79296876 z m 0,0"
         style="fill:#000000;fill-opacity:1;fill-rule:nonzero;stroke:none" />
    </g>
    <path
       id="path179"
       d="m 445.07324,82.801617 -5.1028,-0.490304"
       style="fill:none;stroke:#000000;stroke-width:0.8;stroke-linecap:square;stroke-linejoin:round;stroke-miterlimit:10;stroke-dasharray:none;stroke-opacity:1"
       transform="matrix(1.3333333,0,0,-1.3333333,0,480)" />
    <g
       id="g179"
       aria-label="−0.5"
       transform="matrix(1.3333333,0,0,1.3333333,553.74356,396.86911)">
      <path
         id="path180"
         d="m 9.1864669,-3.2123763 c 0.234375,0 0.4921875,0 0.4921875,-0.28125 0,-0.2695313 -0.2578125,-0.2695313 -0.4921875,-0.2695313 h -7.546875 c -0.234375,0 -0.4804687,0 -0.4804687,0.2695313 0,0.28125 0.2460937,0.28125 0.4804687,0.28125 z m 0,0"
         style="fill:#000000;fill-opacity:1;fill-rule:nonzero;stroke:none" />
      <path
         id="path181"
         d="m 17.093694,-4.4662826 c 0,-1.1601562 -0.07031,-2.2851562 -0.574219,-3.3398437 -0.5625,-1.1601563 -1.570313,-1.4648438 -2.25,-1.4648438 -0.808594,0 -1.804688,0.3984375 -2.320313,1.5585938 -0.386718,0.8789062 -0.527343,1.7460937 -0.527343,3.2460937 0,1.359375 0.09375,2.3671875 0.597656,3.3632813 0.539062,1.0546875 1.5,1.39453125 2.226562,1.39453125 1.21875,0 1.910157,-0.7265625 2.320313,-1.53515625 0.503906,-1.0429688 0.527344,-2.4140625 0.527344,-3.2226563 z m -2.847657,4.47656255 c -0.445312,0 -1.347656,-0.24609375 -1.617187,-1.76953125 -0.152344,-0.8320313 -0.152344,-1.8984375 -0.152344,-2.8710938 0,-1.1484375 0,-2.1796875 0.222656,-3 0.246094,-0.9375 0.949219,-1.3710937 1.546875,-1.3710937 0.539063,0 1.347657,0.328125 1.605469,1.5234375 0.1875,0.796875 0.1875,1.8984375 0.1875,2.8476562 0,0.9375 0,1.9921875 -0.152344,2.8476563 -0.269531,1.53515625 -1.148437,1.79296875 -1.640625,1.79296875 z m 0,0"
         style="fill:#000000;fill-opacity:1;fill-rule:nonzero;stroke:none" />
      <path
         id="path182"
         d="m 20.243108,-0.66940755 c 0,-0.41015625 -0.339844,-0.67968755 -0.667969,-0.67968755 -0.410156,0 -0.679688,0.328125 -0.679688,0.6679688 0,0.3984375 0.328125,0.6796875 0.667969,0.6796875 0.398438,0 0.679688,-0.33984375 0.679688,-0.66796875 z m 0,0"
         style="fill:#000000;fill-opacity:1;fill-rule:nonzero;stroke:none" />
      <path
         id="path183"
         d="m 23.251897,-7.9936263 c 0.597656,0.1992187 1.089843,0.2109375 1.242187,0.2109375 1.582031,0 2.578125,-1.1601563 2.578125,-1.3476563 0,-0.058594 -0.02344,-0.1289062 -0.105469,-0.1289062 -0.03516,0 -0.05859,0 -0.1875,0.058594 -0.773437,0.328125 -1.441406,0.375 -1.804687,0.375 -0.925781,0 -1.582031,-0.28125 -1.839844,-0.3984375 -0.105469,-0.035156 -0.128906,-0.035156 -0.140625,-0.035156 -0.117187,0 -0.117187,0.082031 -0.117187,0.3046875 v 4.1367187 c 0,0.2578125 0,0.3398438 0.164062,0.3398438 0.07031,0 0.09375,-0.011719 0.234375,-0.1757813 0.386719,-0.5742187 1.042969,-0.9140625 1.734375,-0.9140625 0.738281,0 1.101563,0.6796875 1.21875,0.9257813 0.234375,0.5390625 0.246094,1.21875 0.246094,1.7578125 0,0.5273437 0,1.3242187 -0.386719,1.9453125 -0.304687,0.50390625 -0.855469,0.85546875 -1.464844,0.85546875 -0.925781,0 -1.828125,-0.6328125 -2.074218,-1.65234375 0.07031,0.035156 0.152343,0.046875 0.222656,0.046875 0.234375,0 0.609375,-0.140625 0.609375,-0.609375 0,-0.3984375 -0.269531,-0.6210938 -0.609375,-0.6210938 -0.257813,0 -0.621094,0.1289063 -0.621094,0.6679688 0,1.1953125 0.949219,2.54296875 2.496094,2.54296875 1.582031,0 2.964844,-1.32421875 2.964844,-3.09375005 0,-1.6640625 -1.125,-3.046875 -2.589844,-3.046875 -0.785156,0 -1.40625,0.3515625 -1.769531,0.7382813 z m 0,0"
         style="fill:#000000;fill-opacity:1;fill-rule:nonzero;stroke:none" />
    </g>
    <path
       id="path184"
       d="m 439.23041,107.51702 -4.9937,-0.4691"
       style="fill:none;stroke:#000000;stroke-width:0.8;stroke-linecap:square;stroke-linejoin:round;stroke-miterlimit:10;stroke-dasharray:none;stroke-opacity:1"
       transform="matrix(1.3333333,0,0,-1.3333333,0,480)" />
    <g
       id="g184"
       aria-label="0.0"
       transform="matrix(1.3333333,0,0,1.3333333,553.65228,363.66275)">
      <path
         id="path185"
         d="m 6.2461404,-4.4638602 c 0,-1.1601563 -0.070312,-2.2851563 -0.5742188,-3.3398438 -0.5625,-1.1601562 -1.5703125,-1.4648437 -2.25,-1.4648437 -0.8085937,0 -1.8046875,0.3984375 -2.3203125,1.5585937 -0.38671872,0.8789063 -0.52734372,1.7460938 -0.52734372,3.2460938 0,1.359375 0.09375,2.3671875 0.59765622,3.3632812 0.5390625,1.05468754 1.5,1.39453129 2.2265625,1.39453129 1.21875,0 1.9101563,-0.7265625 2.3203125,-1.53515629 0.5039063,-1.0429687 0.5273438,-2.4140625 0.5273438,-3.2226562 z M 3.3984841,0.01270229 c -0.4453125,0 -1.3476562,-0.24609375 -1.6171875,-1.76953129 -0.1523437,-0.8320312 -0.1523437,-1.8984375 -0.1523437,-2.8710937 0,-1.1484375 0,-2.1796875 0.2226562,-3 0.2460938,-0.9375 0.9492188,-1.3710938 1.546875,-1.3710938 0.5390625,0 1.3476563,0.328125 1.6054688,1.5234375 0.1875,0.796875 0.1875,1.8984375 0.1875,2.8476563 0,0.9375 0,1.9921875 -0.1523438,2.8476562 -0.2695312,1.53515629 -1.1484375,1.79296879 -1.640625,1.79296879 z m 0,0"
         style="fill:#000000;fill-opacity:1;fill-rule:nonzero;stroke:none" />
      <path
         id="path186"
         d="m 9.3955544,-0.66698521 c 0,-0.41015629 -0.3398437,-0.67968749 -0.6679687,-0.67968749 -0.4101563,0 -0.6796875,0.328125 -0.6796875,0.66796874 0,0.3984375 0.328125,0.6796874958 0.6679687,0.6796874958 0.3984375,0 0.6796875,-0.3398437458 0.6796875,-0.6679687458 z m 0,0"
         style="fill:#000000;fill-opacity:1;fill-rule:nonzero;stroke:none" />
      <path
         id="path187"
         d="m 16.869187,-4.4638602 c 0,-1.1601563 -0.07031,-2.2851563 -0.574218,-3.3398438 -0.5625,-1.1601562 -1.570313,-1.4648437 -2.25,-1.4648437 -0.808594,0 -1.804688,0.3984375 -2.320313,1.5585937 -0.386719,0.8789063 -0.527344,1.7460938 -0.527344,3.2460938 0,1.359375 0.09375,2.3671875 0.597657,3.3632812 0.539062,1.05468754 1.5,1.39453129 2.226562,1.39453129 1.21875,0 1.910156,-0.7265625 2.320313,-1.53515629 0.503906,-1.0429687 0.527343,-2.4140625 0.527343,-3.2226562 z m -2.847656,4.47656249 c -0.445312,0 -1.347656,-0.24609375 -1.617187,-1.76953129 C 12.252,-2.5888602 12.252,-3.6552665 12.252,-4.6279227 c 0,-1.1484375 0,-2.1796875 0.222656,-3 0.246094,-0.9375 0.949219,-1.3710938 1.546875,-1.3710938 0.539063,0 1.347656,0.328125 1.605469,1.5234375 0.1875,0.796875 0.1875,1.8984375 0.1875,2.8476563 0,0.9375 0,1.9921875 -0.152344,2.8476562 -0.269531,1.53515629 -1.148437,1.79296879 -1.640625,1.79296879 z m 0,0"
         style="fill:#000000;fill-opacity:1;fill-rule:nonzero;stroke:none" />
    </g>
    <path
       id="path188"
       d="m 433.63753,131.17511 -4.88916,-0.44924"
       style="fill:none;stroke:#000000;stroke-width:0.8;stroke-linecap:square;stroke-linejoin:round;stroke-miterlimit:10;stroke-dasharray:none;stroke-opacity:1"
       transform="matrix(1.3333333,0,0,-1.3333333,0,480)" />
    <g
       id="g188"
       aria-label="0.5"
       transform="matrix(1.3333333,0,0,1.3333333,546.64163,331.87468)">
      <path
         id="path189"
         d="m 6.2453368,-4.464603 c 0,-1.1601562 -0.070312,-2.2851562 -0.5742187,-3.3398437 -0.5625,-1.1601563 -1.5703125,-1.4648438 -2.25,-1.4648438 -0.8085938,0 -1.8046875,0.3984375 -2.3203125,1.5585938 -0.3867188,0.8789062 -0.5273438,1.7460937 -0.5273438,3.2460937 0,1.359375 0.09375,2.3671875 0.5976563,3.3632813 0.5390625,1.05468748 1.5,1.39453123 2.2265625,1.39453123 1.21875,0 1.9101562,-0.7265625 2.3203125,-1.53515623 0.5039062,-1.0429688 0.5273437,-2.4140625 0.5273437,-3.2226563 z M 3.3976806,0.01195953 c -0.4453125,0 -1.3476563,-0.24609375 -1.6171875,-1.76953123 -0.1523438,-0.8320313 -0.1523438,-1.8984375 -0.1523438,-2.8710938 0,-1.1484375 0,-2.1796875 0.2226563,-3 0.2460937,-0.9375 0.9492187,-1.3710937 1.546875,-1.3710937 0.5390625,0 1.3476562,0.328125 1.6054687,1.5234375 0.1875,0.796875 0.1875,1.8984375 0.1875,2.8476562 0,0.9375 0,1.9921875 -0.1523437,2.8476563 -0.2695313,1.53515623 -1.1484375,1.79296873 -1.640625,1.79296873 z m 0,0"
         style="fill:#000000;fill-opacity:1;fill-rule:nonzero;stroke:none" />
      <path
         id="path190"
         d="m 9.3947509,-0.66772797 c 0,-0.41015623 -0.3398438,-0.67968753 -0.6679688,-0.67968753 -0.4101562,0 -0.6796875,0.328125 -0.6796875,0.66796878 0,0.3984375 0.328125,0.6796874979 0.6679688,0.6796874979 0.3984375,0 0.6796875,-0.3398437479 0.6796875,-0.6679687479 z m 0,0"
         style="fill:#000000;fill-opacity:1;fill-rule:nonzero;stroke:none" />
      <path
         id="path191"
         d="m 12.40354,-7.9919467 c 0.597656,0.1992187 1.089844,0.2109375 1.242187,0.2109375 1.582032,0 2.578125,-1.1601563 2.578125,-1.3476563 0,-0.058594 -0.02344,-0.1289062 -0.105468,-0.1289062 -0.03516,0 -0.05859,0 -0.1875,0.058594 -0.773438,0.328125 -1.441407,0.375 -1.804688,0.375 -0.925781,0 -1.582031,-0.28125 -1.839844,-0.3984375 -0.105468,-0.035156 -0.128906,-0.035156 -0.140625,-0.035156 -0.117187,0 -0.117187,0.082031 -0.117187,0.3046875 v 4.1367187 c 0,0.2578125 0,0.3398438 0.164062,0.3398438 0.07031,0 0.09375,-0.011719 0.234375,-0.1757813 0.386719,-0.5742187 1.042969,-0.9140625 1.734375,-0.9140625 0.738282,0 1.101563,0.6796875 1.21875,0.9257813 0.234375,0.5390625 0.246094,1.21875 0.246094,1.7578125 0,0.5273437 0,1.3242187 -0.386719,1.94531248 -0.304687,0.50390625 -0.855468,0.85546875 -1.464843,0.85546875 -0.925782,0 -1.828125,-0.6328125 -2.074219,-1.65234373 0.07031,0.035156 0.152344,0.046875 0.222656,0.046875 0.234375,0 0.609375,-0.140625 0.609375,-0.609375 0,-0.3984375 -0.269531,-0.6210938 -0.609375,-0.6210938 -0.257812,0 -0.621094,0.1289063 -0.621094,0.6679688 0,1.1953125 0.949219,2.54296873 2.496094,2.54296873 1.582031,0 2.964844,-1.32421873 2.964844,-3.09375003 0,-1.6640625 -1.125,-3.046875 -2.589844,-3.046875 -0.785156,0 -1.40625,0.3515625 -1.769531,0.7382813 z m 0,0"
         style="fill:#000000;fill-opacity:1;fill-rule:nonzero;stroke:none" />
    </g>
    <path
       id="path192"
       d="m 428.2789,153.84233 -4.78891,-0.43062"
       style="fill:none;stroke:#000000;stroke-width:0.8;stroke-linecap:square;stroke-linejoin:round;stroke-miterlimit:10;stroke-dasharray:none;stroke-opacity:1"
       transform="matrix(1.3333333,0,0,-1.3333333,0,480)" />
    <g
       id="g192"
       aria-label="1.0"
       transform="matrix(1.3333333,0,0,1.3333333,539.92416,301.41592)">
      <path
         id="path193"
         d="m 4.0207479,-8.9428028 c 0,-0.3164062 0,-0.328125 -0.28125,-0.328125 -0.3398438,0.375 -1.03125,0.890625 -2.4726563,0.890625 v 0.3984375 c 0.328125,0 1.0195313,0 1.7929688,-0.3632812 v 7.265625 c 0,0.50390622 -0.046875,0.66796872 -1.2773438,0.66796872 H 1.3488729 v 0.41015625 c 0.3867187,-0.0234375 1.734375,-0.0234375 2.1914062,-0.0234375 0.46875,0 1.8046875,0 2.1796875,0.0234375 V -0.41155278 H 5.2863729 c -1.2304688,0 -1.265625,-0.1640625 -1.265625,-0.66796872 z m 0,0"
         style="fill:#000000;fill-opacity:1;fill-rule:nonzero;stroke:none" />
      <path
         id="path194"
         d="m 9.3937947,-0.66936528 c 0,-0.41015622 -0.3398437,-0.67968752 -0.6679687,-0.67968752 -0.4101563,0 -0.6796875,0.328125 -0.6796875,0.66796877 0,0.3984375 0.328125,0.6796875 0.6679687,0.6796875 0.3984375,0 0.6796875,-0.33984375 0.6796875,-0.66796875 z m 0,0"
         style="fill:#000000;fill-opacity:1;fill-rule:nonzero;stroke:none" />
      <path
         id="path195"
         d="m 16.867428,-4.4662403 c 0,-1.1601562 -0.07031,-2.2851562 -0.574219,-3.3398437 -0.5625,-1.1601563 -1.570313,-1.4648438 -2.25,-1.4648438 -0.808594,0 -1.804688,0.3984375 -2.320313,1.5585938 -0.386718,0.8789062 -0.527343,1.7460937 -0.527343,3.2460937 0,1.359375 0.09375,2.3671875 0.597656,3.3632813 0.539062,1.05468747 1.5,1.39453122 2.226562,1.39453122 1.21875,0 1.910157,-0.7265625 2.320313,-1.53515622 0.503906,-1.0429688 0.527344,-2.4140625 0.527344,-3.2226563 z m -2.847657,4.47656252 c -0.445312,0 -1.347656,-0.24609375 -1.617187,-1.76953122 -0.152344,-0.8320313 -0.152344,-1.8984375 -0.152344,-2.8710938 0,-1.1484375 0,-2.1796875 0.222656,-3 0.246094,-0.9375 0.949219,-1.3710937 1.546875,-1.3710937 0.539063,0 1.347657,0.328125 1.605469,1.5234375 0.1875,0.796875 0.1875,1.8984375 0.1875,2.8476562 0,0.9375 0,1.9921875 -0.152344,2.8476563 -0.269531,1.53515622 -1.148437,1.79296872 -1.640625,1.79296872 z m 0,0"
         style="fill:#000000;fill-opacity:1;fill-rule:nonzero;stroke:none" />
    </g>
    <path
       id="path196"
       d="m 6.6100562,-5.6949405 c -0.4448415,0.1001612 -0.6164911,0.4209753 -0.618397,0.6853555 0.00483,0.338189 0.2679159,0.4481287 0.4611668,0.4453663 0.4207266,0.00251 0.722536,-0.3599559 0.7257402,-0.7323699 -0.00561,-0.5911608 -0.6774,-0.8572812 -1.2571525,-0.8489942 -0.8528616,-0.00771 -1.3269283,0.8319234 -1.4596846,1.0896465 -0.3218362,-1.0385989 -1.1753884,-1.0946184 -1.4397686,-1.0965244 -1.4212057,0.00326 -2.16260813,1.8273752 -2.16114408,2.1286598 -0.001989,0.059721 0.0416556,0.1301598 0.14968928,0.1314581 0.096625,-0.00138 0.1267898,-0.07856 0.1542747,-0.1443305 0.4697574,-1.5388247 1.406372,-1.8364631 1.8156904,-1.8366289 0.6253857,0.00243 0.7645231,0.5888405 0.7693571,0.9270294 -0.00994,0.2986052 -0.087648,0.6294464 -0.2544634,1.2884494 L 3.0109946,-1.7492642 C 2.8013081,-0.90772802 2.4057185,-0.14596722 1.6582112,-0.14096739 1.5870819,-0.14563568 1.2374846,-0.14348105 0.95357493,-0.31850065 1.4581375,-0.416673 1.5545971,-0.82737247 1.5491554,-1.009215 1.5510613,-1.2735952 1.3523688,-1.4526754 1.0993969,-1.4519019 0.75247905,-1.4611556 0.38152918,-1.1630753 0.38506497,-0.71685256 0.38194362,-0.13977949 1.0483773,0.14915752 1.6395381,0.14355 c 0.6851068,0.00442 1.1465497,-0.52519709 1.4395474,-1.10641364 0.2278073,0.82391259 0.9311453,1.10947959 1.4484974,1.11061209 1.4212057,-0.00326 2.1652876,-1.83878355 2.1638235,-2.14006815 0.00467,-0.071129 -0.055743,-0.1214309 -0.1382809,-0.1287786 -0.1194421,-0.00398 -0.1381981,0.07588 -0.1764008,0.1872843 -0.3833249,1.22207123 -1.1909951,1.79074696 -1.8163809,1.78831618 -0.4945354,0.004226 -0.7583908,-0.35868519 -0.7552694,-0.93575828 -0.00146,-0.3012846 0.060853,-0.5153632 0.289296,-1.4367575 l 0.4816905,-1.8971509 c 0.1982782,-0.8442156 0.6811566,-1.4650989 1.3179507,-1.4599887 0.036904,-0.00337 0.4207266,0.00251 0.7160446,0.1802127 z m 0,0"
       style="fill:#000000;fill-opacity:1;fill-rule:nonzero;stroke:none"
       aria-label="x"
       transform="matrix(0.30486011,1.2980131,-1.2980131,0.30486011,537.60838,359.03903)" />
    <path
       id="path197"
       d="m 4.5087259,-1.7210652 -0.2757885,-0.00459 c -0.018065,0.128171 -0.092316,0.7005757 -0.2264537,0.86167336 -0.05566,0.0832282 -0.7179506,0.0841675 -0.9226097,0.0842504 l -1.7338987,0.002044 0.961862,-0.91766526 c 1.6004793,-1.3815945 2.2041809,-1.9018746 2.1984076,-2.9023537 -0.0018,-1.1199212 -0.9254275,-1.9026202 -2.1305658,-1.896764 -1.1313295,-8.838e-4 -1.89190236,0.8797942 -1.88483078,1.7722396 -0.004503,0.4804477 0.41691469,0.531274 0.51354008,0.5298929 0.2046592,-8.29e-5 0.503872,-0.1464851 0.5017174,-0.4960824 0.00994,-0.2986051 -0.2035267,-0.5172691 -0.5048112,-0.5158051 -0.0483128,6.906e-4 -0.0852171,0.00406 -0.11339265,0.021518 0.22584595,-0.7053269 0.85244715,-1.015589 1.38120755,-1.0117771 1.0004791,-0.00577 1.3350219,0.9274713 1.3332817,1.6011698 0.00577,1.0004791 -0.7360436,1.8012989 -1.2149443,2.3027401 l -1.7800842,1.94129266 c -0.12074032,0.10405603 -0.11469088,0.1295521 -0.11728742,0.34561957 l 3.74358582,4.969e-4 z m 0,0"
       style="fill:#000000;fill-opacity:1;fill-rule:nonzero;stroke:none"
       aria-label="2"
       transform="matrix(0.30486011,1.2980131,-1.2980131,0.30486011,537.25869,369.75042)" />
    <path
       id="path198"
       d="m 425.1716,160.13409 -5.05786,134.12806"
       style="fill:none;stroke:#000000;stroke-width:0.8;stroke-linecap:square;stroke-linejoin:round;stroke-miterlimit:10;stroke-dasharray:none;stroke-opacity:1"
       transform="matrix(1.3333333,0,0,-1.3333333,0,480)" />
    <path
       id="path199"
       d="m 426.45309,168.47436 -4.77332,-0.42323"
       style="fill:none;stroke:#000000;stroke-width:0.8;stroke-linecap:square;stroke-linejoin:round;stroke-miterlimit:10;stroke-dasharray:none;stroke-opacity:1"
       transform="matrix(1.3333333,0,0,-1.3333333,0,480)" />
    <g
       id="g199"
       aria-label="−1.0"
       transform="matrix(1.3333333,0,0,1.3333333,527.85731,261.49113)">
      <path
         id="path200"
         d="m 9.186118,-3.2101466 c 0.234375,0 0.4921875,0 0.4921875,-0.28125 0,-0.2695313 -0.2578125,-0.2695313 -0.4921875,-0.2695313 H 1.639243 c -0.234375,0 -0.4804688,0 -0.4804688,0.2695313 0,0.28125 0.2460938,0.28125 0.4804688,0.28125 z m 0,0"
         style="fill:#000000;fill-opacity:1;fill-rule:nonzero;stroke:none" />
      <path
         id="path201"
         d="m 14.866782,-8.9406154 c 0,-0.3164062 0,-0.328125 -0.28125,-0.328125 -0.339844,0.375 -1.03125,0.890625 -2.472656,0.890625 v 0.3984375 c 0.328125,0 1.019531,0 1.792969,-0.3632812 v 7.265625 c 0,0.50390621 -0.04687,0.66796871 -1.277344,0.66796871 H 12.194907 V 7.908628e-4 C 12.581626,-0.02264664 13.929282,-0.02264664 14.386313,-0.02264664 c 0.46875,0 1.804688,0 2.179688,0.0234375028 V -0.40936539 h -0.433594 c -1.230469,0 -1.265625,-0.1640625 -1.265625,-0.66796871 z m 0,0"
         style="fill:#000000;fill-opacity:1;fill-rule:nonzero;stroke:none" />
      <path
         id="path202"
         d="m 20.242759,-0.66717789 c 0,-0.41015621 -0.339844,-0.67968751 -0.667969,-0.67968751 -0.410156,0 -0.679688,0.328125 -0.679688,0.66796876 0,0.3984375 0.328125,0.6796875028 0.667969,0.6796875028 0.398438,0 0.679688,-0.3398437528 0.679688,-0.6679687528 z m 0,0"
         style="fill:#000000;fill-opacity:1;fill-rule:nonzero;stroke:none" />
      <path
         id="path203"
         d="m 27.716391,-4.4640529 c 0,-1.1601562 -0.07031,-2.2851562 -0.574218,-3.3398437 -0.5625,-1.1601563 -1.570313,-1.4648438 -2.25,-1.4648438 -0.808594,0 -1.804688,0.3984375 -2.320313,1.5585938 -0.386719,0.8789062 -0.527344,1.7460937 -0.527344,3.2460937 0,1.359375 0.09375,2.3671875 0.597657,3.3632813 0.539062,1.05468746 1.5,1.39453121 2.226562,1.39453121 1.21875,0 1.910156,-0.7265625 2.320313,-1.53515621 0.503906,-1.0429688 0.527343,-2.4140625 0.527343,-3.2226563 z m -2.847656,4.47656251 c -0.445312,0 -1.347656,-0.24609375 -1.617187,-1.76953121 -0.152344,-0.8320313 -0.152344,-1.8984375 -0.152344,-2.8710938 0,-1.1484375 0,-2.1796875 0.222656,-3 0.246094,-0.9375 0.949219,-1.3710937 1.546875,-1.3710937 0.539063,0 1.347656,0.328125 1.605469,1.5234375 0.1875,0.796875 0.1875,1.8984375 0.1875,2.8476562 0,0.9375 0,1.9921875 -0.152344,2.8476563 -0.269531,1.53515621 -1.148437,1.79296871 -1.640625,1.79296871 z m 0,0"
         style="fill:#000000;fill-opacity:1;fill-rule:nonzero;stroke:none" />
    </g>
    <path
       id="path204"
       d="m 425.39521,196.91978 -4.81797,-0.41552"
       style="fill:none;stroke:#000000;stroke-width:0.8;stroke-linecap:square;stroke-linejoin:round;stroke-miterlimit:10;stroke-dasharray:none;stroke-opacity:1"
       transform="matrix(1.3333333,0,0,-1.3333333,0,480)" />
    <g
       id="g204"
       aria-label="−0.5"
       transform="matrix(1.3333333,0,0,1.3333333,526.25249,223.694)">
      <path
         id="path205"
         d="m 9.1885615,-3.2099543 c 0.234375,0 0.4921875,0 0.4921875,-0.28125 0,-0.2695313 -0.2578125,-0.2695313 -0.4921875,-0.2695313 h -7.546875 c -0.234375,0 -0.4804688,0 -0.4804688,0.2695313 0,0.28125 0.2460938,0.28125 0.4804688,0.28125 z m 0,0"
         style="fill:#000000;fill-opacity:1;fill-rule:nonzero;stroke:none" />
      <path
         id="path206"
         d="m 17.095788,-4.4638606 c 0,-1.1601562 -0.07031,-2.2851562 -0.574219,-3.3398437 -0.5625,-1.1601563 -1.570312,-1.4648438 -2.25,-1.4648438 -0.808593,0 -1.804687,0.3984375 -2.320312,1.5585938 -0.386719,0.8789062 -0.527344,1.7460937 -0.527344,3.2460937 0,1.359375 0.09375,2.3671875 0.597656,3.3632813 0.539063,1.05468748 1.5,1.39453123 2.226563,1.39453123 1.21875,0 1.910156,-0.7265625 2.320312,-1.53515623 0.503907,-1.0429688 0.527344,-2.4140625 0.527344,-3.2226563 z m -2.847656,4.47656253 c -0.445313,0 -1.347656,-0.24609375 -1.617188,-1.76953123 -0.152343,-0.8320313 -0.152343,-1.8984375 -0.152343,-2.8710938 0,-1.1484375 0,-2.1796875 0.222656,-3 0.246094,-0.9375 0.949219,-1.3710937 1.546875,-1.3710937 0.539062,0 1.347656,0.328125 1.605469,1.5234375 0.1875,0.796875 0.1875,1.8984375 0.1875,2.8476562 0,0.9375 0,1.9921875 -0.152344,2.8476563 -0.269531,1.53515623 -1.148438,1.79296873 -1.640625,1.79296873 z m 0,0"
         style="fill:#000000;fill-opacity:1;fill-rule:nonzero;stroke:none" />
      <path
         id="path207"
         d="m 20.242272,-0.66698557 c 0,-0.41015623 -0.339843,-0.67968753 -0.667968,-0.67968753 -0.410157,0 -0.679688,0.328125 -0.679688,0.66796878 0,0.3984375 0.328125,0.6796875015 0.667969,0.6796875015 0.398437,0 0.679687,-0.3398437515 0.679687,-0.6679687515 z m 0,0"
         style="fill:#000000;fill-opacity:1;fill-rule:nonzero;stroke:none" />
      <path
         id="path208"
         d="m 23.251061,-7.9912043 c 0.597657,0.1992187 1.089844,0.2109375 1.242188,0.2109375 1.582031,0 2.578125,-1.1601563 2.578125,-1.3476563 0,-0.058594 -0.02344,-0.1289062 -0.105469,-0.1289062 -0.03516,0 -0.05859,0 -0.1875,0.058594 -0.773437,0.328125 -1.441406,0.375 -1.804687,0.375 -0.925782,0 -1.582032,-0.28125 -1.839844,-0.3984375 -0.105469,-0.035156 -0.128906,-0.035156 -0.140625,-0.035156 -0.117188,0 -0.117188,0.082031 -0.117188,0.3046875 v 4.1367187 c 0,0.2578125 0,0.3398438 0.164063,0.3398438 0.07031,0 0.09375,-0.011719 0.234375,-0.1757813 0.386719,-0.5742187 1.042969,-0.9140625 1.734375,-0.9140625 0.738281,0 1.101562,0.6796875 1.21875,0.9257813 0.234375,0.5390625 0.246094,1.21875 0.246094,1.7578125 0,0.5273437 0,1.3242187 -0.386719,1.94531248 -0.304688,0.50390625 -0.855469,0.85546875 -1.464844,0.85546875 -0.925781,0 -1.828125,-0.6328125 -2.074219,-1.65234373 0.07031,0.035156 0.152344,0.046875 0.222657,0.046875 0.234375,0 0.609375,-0.140625 0.609375,-0.609375 0,-0.3984375 -0.269532,-0.6210938 -0.609375,-0.6210938 -0.257813,0 -0.621094,0.1289063 -0.621094,0.6679688 0,1.1953125 0.949219,2.54296873 2.496094,2.54296873 1.582031,0 2.964843,-1.32421873 2.964843,-3.09375003 0,-1.6640625 -1.125,-3.046875 -2.589843,-3.046875 -0.785157,0 -1.40625,0.3515625 -1.769532,0.7382813 z m 0,0"
         style="fill:#000000;fill-opacity:1;fill-rule:nonzero;stroke:none" />
    </g>
    <path
       id="path209"
       d="m 424.31756,225.89702 -4.86347,-0.40746"
       style="fill:none;stroke:#000000;stroke-width:0.8;stroke-linecap:square;stroke-linejoin:round;stroke-miterlimit:10;stroke-dasharray:none;stroke-opacity:1"
       transform="matrix(1.3333333,0,0,-1.3333333,0,480)" />
    <g
       id="g209"
       aria-label="0.0"
       transform="matrix(1.3333333,0,0,1.3333333,531.84998,185.19389)">
      <path
         id="path210"
         d="m 6.2472809,-4.4637795 c 0,-1.1601562 -0.070312,-2.2851562 -0.5742187,-3.3398437 -0.5625,-1.1601563 -1.5703125,-1.4648438 -2.25,-1.4648438 -0.8085938,0 -1.8046875,0.3984375 -2.3203125,1.5585938 -0.38671879,0.8789062 -0.52734379,1.7460937 -0.52734379,3.2460937 0,1.359375 0.09375,2.3671875 0.59765629,3.3632813 0.5390625,1.05468746 1.5,1.39453121 2.2265625,1.39453121 1.21875,0 1.9101562,-0.7265625 2.3203125,-1.53515621 0.5039062,-1.0429688 0.5273437,-2.4140625 0.5273437,-3.2226563 z M 3.3996247,0.01278301 c -0.4453125,0 -1.3476563,-0.24609375 -1.6171875,-1.76953121 -0.1523438,-0.8320313 -0.1523438,-1.8984375 -0.1523438,-2.8710938 0,-1.1484375 0,-2.1796875 0.2226563,-3 0.2460937,-0.9375 0.9492187,-1.3710937 1.546875,-1.3710937 0.5390625,0 1.3476562,0.328125 1.6054687,1.5234375 0.1875,0.796875 0.1875,1.8984375 0.1875,2.8476562 0,0.9375 0,1.9921875 -0.1523437,2.8476563 -0.2695313,1.53515621 -1.1484375,1.79296871 -1.640625,1.79296871 z m 0,0"
         style="fill:#000000;fill-opacity:1;fill-rule:nonzero;stroke:none" />
      <path
         id="path211"
         d="m 9.3937653,-0.66690449 c 0,-0.41015621 -0.3398438,-0.67968751 -0.6679688,-0.67968751 -0.4101562,0 -0.6796875,0.328125 -0.6796875,0.66796876 0,0.3984375 0.328125,0.6796875 0.6679688,0.6796875 0.3984375,0 0.6796875,-0.33984375 0.6796875,-0.66796875 z m 0,0"
         style="fill:#000000;fill-opacity:1;fill-rule:nonzero;stroke:none" />
      <path
         id="path212"
         d="m 16.867398,-4.4637795 c 0,-1.1601562 -0.07031,-2.2851562 -0.574219,-3.3398437 -0.5625,-1.1601563 -1.570312,-1.4648438 -2.25,-1.4648438 -0.808593,0 -1.804687,0.3984375 -2.320312,1.5585938 -0.386719,0.8789062 -0.527344,1.7460937 -0.527344,3.2460937 0,1.359375 0.09375,2.3671875 0.597656,3.3632813 0.539063,1.05468746 1.5,1.39453121 2.226563,1.39453121 1.21875,0 1.910156,-0.7265625 2.320312,-1.53515621 0.503907,-1.0429688 0.527344,-2.4140625 0.527344,-3.2226563 z m -2.847656,4.47656251 c -0.445313,0 -1.347656,-0.24609375 -1.617188,-1.76953121 -0.152343,-0.8320313 -0.152343,-1.8984375 -0.152343,-2.8710938 0,-1.1484375 0,-2.1796875 0.222656,-3 0.246094,-0.9375 0.949219,-1.3710937 1.546875,-1.3710937 0.539062,0 1.347656,0.328125 1.605469,1.5234375 0.1875,0.796875 0.1875,1.8984375 0.1875,2.8476562 0,0.9375 0,1.9921875 -0.152344,2.8476563 -0.269531,1.53515621 -1.148438,1.79296871 -1.640625,1.79296871 z m 0,0"
         style="fill:#000000;fill-opacity:1;fill-rule:nonzero;stroke:none" />
    </g>
    <path
       id="path213"
       d="m 423.21957,255.42113 -4.90984,-0.39901"
       style="fill:none;stroke:#000000;stroke-width:0.8;stroke-linecap:square;stroke-linejoin:round;stroke-miterlimit:10;stroke-dasharray:none;stroke-opacity:1"
       transform="matrix(1.3333333,0,0,-1.3333333,0,480)" />
    <g
       id="g213"
       aria-label="0.5"
       transform="matrix(1.3333333,0,0,1.3333333,530.18462,145.97101)">
      <path
         id="path214"
         d="m 6.2453214,-4.4636113 c 0,-1.1601562 -0.070312,-2.2851562 -0.5742187,-3.3398437 -0.5625,-1.1601563 -1.5703125,-1.4648438 -2.25,-1.4648438 -0.8085938,0 -1.8046875,0.3984375 -2.3203125,1.5585938 -0.38671877,0.8789062 -0.52734377,1.7460937 -0.52734377,3.2460937 0,1.359375 0.09375,2.3671875 0.59765627,3.3632813 0.5390625,1.05468748 1.5,1.39453123 2.2265625,1.39453123 1.21875,0 1.9101562,-0.7265625 2.3203125,-1.53515623 0.5039062,-1.0429688 0.5273437,-2.4140625 0.5273437,-3.2226563 z M 3.3976652,0.01295123 c -0.4453125,0 -1.3476563,-0.24609375 -1.6171875,-1.76953123 -0.1523438,-0.8320313 -0.1523438,-1.8984375 -0.1523438,-2.8710938 0,-1.1484375 0,-2.1796875 0.2226563,-3 0.2460937,-0.9375 0.9492187,-1.3710937 1.546875,-1.3710937 0.5390625,0 1.3476562,0.328125 1.6054687,1.5234375 0.1875,0.796875 0.1875,1.8984375 0.1875,2.8476562 0,0.9375 0,1.9921875 -0.1523437,2.8476563 -0.2695313,1.53515623 -1.1484375,1.79296873 -1.640625,1.79296873 z m 0,0"
         style="fill:#000000;fill-opacity:1;fill-rule:nonzero;stroke:none" />
      <path
         id="path215"
         d="m 9.3947355,-0.66673627 c 0,-0.41015623 -0.3398438,-0.67968753 -0.6679688,-0.67968753 -0.4101562,0 -0.6796875,0.328125 -0.6796875,0.66796878 0,0.3984375 0.328125,0.6796875 0.6679688,0.6796875 0.3984375,0 0.6796875,-0.33984375 0.6796875,-0.66796875 z m 0,0"
         style="fill:#000000;fill-opacity:1;fill-rule:nonzero;stroke:none" />
      <path
         id="path216"
         d="m 12.403525,-7.990955 c 0.597656,0.1992187 1.089843,0.2109375 1.242187,0.2109375 1.582031,0 2.578125,-1.1601563 2.578125,-1.3476563 0,-0.058594 -0.02344,-0.1289062 -0.105469,-0.1289062 -0.03516,0 -0.05859,0 -0.1875,0.058594 -0.773437,0.328125 -1.441406,0.375 -1.804687,0.375 -0.925781,0 -1.582031,-0.28125 -1.839844,-0.3984375 -0.105469,-0.035156 -0.128906,-0.035156 -0.140625,-0.035156 -0.117187,0 -0.117187,0.082031 -0.117187,0.3046875 v 4.1367187 c 0,0.2578125 0,0.3398438 0.164062,0.3398438 0.07031,0 0.09375,-0.011719 0.234375,-0.1757813 0.386719,-0.5742187 1.042969,-0.9140625 1.734375,-0.9140625 0.738281,0 1.101563,0.6796875 1.21875,0.9257813 0.234375,0.5390625 0.246094,1.21875 0.246094,1.7578125 0,0.5273437 0,1.3242187 -0.386719,1.94531248 -0.304687,0.50390625 -0.855469,0.85546875 -1.464844,0.85546875 -0.925781,0 -1.828125,-0.6328125 -2.074218,-1.65234373 0.07031,0.035156 0.152343,0.046875 0.222656,0.046875 0.234375,0 0.609375,-0.140625 0.609375,-0.609375 0,-0.3984375 -0.269531,-0.6210938 -0.609375,-0.6210938 -0.257813,0 -0.621094,0.1289063 -0.621094,0.6679688 0,1.1953125 0.949219,2.54296873 2.496094,2.54296873 1.582031,0 2.964844,-1.32421873 2.964844,-3.09375003 0,-1.6640625 -1.125,-3.046875 -2.589844,-3.046875 -0.785156,0 -1.40625,0.3515625 -1.769531,0.7382813 z m 0,0"
         style="fill:#000000;fill-opacity:1;fill-rule:nonzero;stroke:none" />
    </g>
    <path
       id="path217"
       d="m 422.10067,285.50774 -4.95711,-0.39016"
       style="fill:none;stroke:#000000;stroke-width:0.8;stroke-linecap:square;stroke-linejoin:round;stroke-miterlimit:10;stroke-dasharray:none;stroke-opacity:1"
       transform="matrix(1.3333333,0,0,-1.3333333,0,480)" />
    <g
       id="g217"
       aria-label="1.0"
       transform="matrix(1.3333333,0,0,1.3333333,528.48771,106.00481)">
      <path
         id="path218"
         d="m 4.019962,-8.942087 c 0,-0.3164063 0,-0.328125 -0.28125,-0.328125 -0.3398438,0.375 -1.03125,0.890625 -2.4726563,0.890625 v 0.3984375 c 0.328125,0 1.0195313,0 1.7929688,-0.3632813 v 7.265625 c 0,0.50390629 -0.046875,0.66796879 -1.2773438,0.66796879 H 1.348087 V -6.807649e-4 C 1.7348057,-0.02411826 3.082462,-0.02411826 3.5394932,-0.02411826 c 0.46875,0 1.8046875,0 2.1796875,0.0234374951 V -0.41083701 H 5.285587 c -1.2304688,0 -1.265625,-0.1640625 -1.265625,-0.66796879 z m 0,0"
         style="fill:#000000;fill-opacity:1;fill-rule:nonzero;stroke:none" />
      <path
         id="path219"
         d="m 9.3959385,-0.66864951 c 0,-0.41015629 -0.3398437,-0.67968749 -0.6679687,-0.67968749 -0.4101563,0 -0.6796875,0.328125 -0.6796875,0.66796874 0,0.3984375 0.328125,0.6796874951 0.6679687,0.6796874951 0.3984375,0 0.6796875,-0.3398437451 0.6796875,-0.6679687451 z m 0,0"
         style="fill:#000000;fill-opacity:1;fill-rule:nonzero;stroke:none" />
      <path
         id="path220"
         d="m 16.869571,-4.4655245 c 0,-1.1601563 -0.07031,-2.2851563 -0.574218,-3.3398438 -0.5625,-1.1601562 -1.570313,-1.4648437 -2.25,-1.4648437 -0.808594,0 -1.804688,0.3984375 -2.320313,1.5585937 -0.386719,0.8789063 -0.527344,1.7460938 -0.527344,3.2460938 0,1.359375 0.09375,2.3671875 0.597657,3.3632812 0.539062,1.05468754 1.5,1.39453129 2.226562,1.39453129 1.21875,0 1.910156,-0.7265625 2.320313,-1.53515629 0.503906,-1.0429687 0.527343,-2.4140625 0.527343,-3.2226562 z m -2.847656,4.47656249 c -0.445312,0 -1.347656,-0.24609375 -1.617187,-1.76953129 -0.152344,-0.8320312 -0.152344,-1.8984375 -0.152344,-2.8710937 0,-1.1484375 0,-2.1796875 0.222656,-3 0.246094,-0.9375 0.949219,-1.3710938 1.546875,-1.3710938 0.539063,0 1.347656,0.328125 1.605469,1.5234375 0.1875,0.796875 0.1875,1.8984375 0.1875,2.8476563 0,0.9375 0,1.9921875 -0.152344,2.8476562 -0.269531,1.53515629 -1.148437,1.79296879 -1.640625,1.79296879 z m 0,0"
         style="fill:#000000;fill-opacity:1;fill-rule:nonzero;stroke:none" />
    </g>
    <path
       id="path221"
       d="m 6.6191335,-5.6955402 c -0.4489706,0.088613 -0.6140122,0.4224751 -0.6124584,0.6922565 -6.541e-4,0.3283335 0.2530009,0.4434424 0.4525198,0.439239 0.422017,0.00419 0.7171981,-0.3599486 0.7196186,-0.7351239 -0.00134,-0.5864045 -0.6712727,-0.8579358 -1.2576772,-0.8565945 -0.8561859,0.0029 -1.3217079,0.8414175 -1.4489687,1.1063414 -0.3358737,-1.0446485 -1.1894101,-1.1120159 -1.4474811,-1.1100205 -1.4191696,0.00512 -2.1681457,1.8297549 -2.16791664,2.1346676 -0.002208,0.058552 0.0419842,0.130581 0.14737804,0.1345553 0.1058354,-0.00774 0.1440579,-0.088384 0.1696867,-0.1460532 0.4685965,-1.5420312 1.4060848,-1.8350374 1.8168329,-1.8430026 0.6215358,-1.65e-5 0.7516918,0.5912455 0.7505961,0.9312895 2.291e-4,0.3049127 -0.081956,0.6184446 -0.2480938,1.2923503 L 3.0108839,-1.750581 c -0.2078925,0.84823735 -0.6000608,1.60743621 -1.3391424,1.61474727 -0.070263,-0.00265 -0.422017,-0.004187 -0.72030583,-0.17961419 C 1.4598415,-0.42527421 1.5572702,-0.83204801 1.5638941,-1.0077044 1.5623402,-1.2774858 1.3460244,-1.449822 1.088395,-1.459537 c -0.34048557,0.010615 -0.70327974,0.3018381 -0.69663934,0.74771746 0.001341,0.58640453 0.64785184,0.85705259 1.24596674,0.85615287 0.680088,0.002191 1.1575494,-0.5309766 1.4489688,-1.10634136 0.2271596,0.81773446 0.9200702,1.10185931 1.4362122,1.09786845 1.418728,0.006591 2.1798561,-1.82931322 2.1796271,-2.13422592 -0.00906,-0.070704 -0.065847,-0.1197538 -0.1478197,-0.1228449 -0.1171042,-0.00442 -0.1431746,0.064963 -0.171453,0.1928949 C 6.0089988,-0.71108518 5.2018791,-0.14344 4.5686328,-0.14386505 4.0759117,-0.13899102 3.8081092,-0.500902 3.8180367,-1.0751545 3.8178077,-1.3800672 3.8730396,-1.600799 4.0952921,-2.5188572 L 4.577578,-4.4239116 c 0.2074509,-0.8365268 0.6880035,-1.4516679 1.3212497,-1.4512428 0.035131,0.00132 0.422017,0.00419 0.7203058,0.1796142 z m 0,0"
       style="fill:#000000;fill-opacity:1;fill-rule:nonzero;stroke:none"
       aria-label="x"
       transform="matrix(0.05024323,1.3323864,-1.3323864,0.05024323,515.18424,155.43567)" />
    <path
       id="path222"
       d="M 2.9806575,-3.4398064 C 3.8964912,-3.7805376 4.3220244,-4.49157 4.3125054,-5.1720995 4.3173463,-5.92245 3.4832399,-6.5050762 2.4748185,-6.5079217 c -1.020132,-0.00329 -1.78085158,0.5778348 -1.78569255,1.3281853 -2.1253e-4,0.3166231 0.21566172,0.5006698 0.50886395,0.4999991 0.2814919,-0.00111 0.4763658,-0.193124 0.4756951,-0.4863263 0.0011,-0.340044 -0.2278137,-0.4894009 -0.5561473,-0.490055 0.2613747,-0.4005916 0.8435758,-0.6014517 1.3245865,-0.6067673 0.8089026,0.00705 0.9724236,0.6464774 0.9669119,1.1036256 6.707e-4,0.2932023 -0.052124,0.7602946 -0.3009053,1.1379069 -0.3095411,0.4339564 -0.6387578,0.4567232 -0.9211328,0.4812562 -0.2468022,0.014147 -0.270223,0.013264 -0.3404856,0.010615 -0.094125,0.00818 -0.1769812,0.028507 -0.1809555,0.1339012 -0.00486,0.1288147 0.077557,0.1201954 0.2415031,0.1263777 l 0.4575898,-0.0062 c 0.8557443,0.00882 1.2408802,0.6800549 1.2411258,1.6065034 -4.085e-4,1.25478201 -0.6707649,1.61649701 -1.1747549,1.60921903 C 2.2549227,-0.0545933 1.3068197,-0.10207259 0.85362927,-0.83451386 1.2036173,-0.78613486 1.493941,-1.0214556 1.4950367,-1.3614996 1.4952492,-1.6781227 1.2451269,-1.886915 0.96363502,-1.8858027 0.71727446,-1.8833657 0.41833151,-1.7304595 0.42629669,-1.3197114 0.42875024,-0.45181503 1.3300281,0.21543371 2.4677058,0.21142631 3.6873566,0.21051006 4.6000827,-0.66978392 4.6024867,-1.666495 4.5991499,-2.5109705 3.9230198,-3.2400916 2.9806575,-3.4398064 Z m 0,0"
       style="fill:#000000;fill-opacity:1;fill-rule:nonzero;stroke:none"
       aria-label="3"
       transform="matrix(0.05024323,1.3323864,-1.3323864,0.05024323,512.78662,165.88113)" />
    <path
       id="path223"
       d="m 463.03146,66.839707 186.77042,18.227004 -39.0334,93.315659 -171.67552,-15.31682 23.9385,-96.225843"
       style="fill:none;stroke:#1f77b4;stroke-width:2;stroke-linecap:square;stroke-linejoin:round;stroke-miterlimit:10;stroke-dasharray:none;stroke-opacity:1"
       transform="matrix(1.3333333,0,0,-1.3333333,0,480)"
       clip-path="url(#clipPath224)" />
    <path
       id="path225"
       d="m 459.77305,191.46689 194.53257,16.91658 -40.89258,86.25471 -178.21166,-14.11756 24.57167,-89.05373"
       style="fill:none;stroke:#1f77b4;stroke-width:2;stroke-linecap:square;stroke-linejoin:round;stroke-miterlimit:10;stroke-dasharray:none;stroke-opacity:0.1"
       transform="matrix(1.3333333,0,0,-1.3333333,0,480)"
       clip-path="url(#clipPath226)" />
    <path
       id="path227"
       d="M 463.03146,66.839707 649.80188,85.066711 654.30562,208.38347 459.77305,191.46689 463.03146,66.839707"
       style="fill:none;stroke:#1f77b4;stroke-width:2;stroke-linecap:square;stroke-linejoin:round;stroke-miterlimit:10;stroke-dasharray:none;stroke-opacity:0.1"
       transform="matrix(1.3333333,0,0,-1.3333333,0,480)"
       clip-path="url(#clipPath228)" />
    <path
       id="path229"
       d="m 439.09296,163.06555 171.67552,15.31682 2.64456,116.25581 -178.21166,-14.11756 3.89158,-117.45507"
       style="fill:none;stroke:#1f77b4;stroke-width:2;stroke-linecap:square;stroke-linejoin:round;stroke-miterlimit:10;stroke-dasharray:none;stroke-opacity:0.1"
       transform="matrix(1.3333333,0,0,-1.3333333,0,480)"
       clip-path="url(#clipPath230)" />
    <path
       id="path231"
       d="m 463.03146,66.839707 -23.9385,96.225843 -3.89158,117.45507 24.57167,-89.05373 3.25841,-124.627183"
       style="fill:none;stroke:#1f77b4;stroke-width:2;stroke-linecap:square;stroke-linejoin:round;stroke-miterlimit:10;stroke-dasharray:none;stroke-opacity:0.1"
       transform="matrix(1.3333333,0,0,-1.3333333,0,480)"
       clip-path="url(#clipPath232)" />
    <path
       id="path233"
       d="m 649.80188,85.066711 -39.0334,93.315659 2.64456,116.25581 40.89258,-86.25471 -4.50374,-123.316759"
       style="fill:none;stroke:#1f77b4;stroke-width:2;stroke-linecap:square;stroke-linejoin:round;stroke-miterlimit:10;stroke-dasharray:none;stroke-opacity:0.1"
       transform="matrix(1.3333333,0,0,-1.3333333,0,480)"
       clip-path="url(#clipPath234)" />
    <path
       id="path235"
       d="m 455.80952,122.29018 184.55484,17.12934 v 0 L 455.80952,122.29018 v 0"
       style="fill:none;stroke:#ff7f0e;stroke-width:2;stroke-linecap:square;stroke-linejoin:round;stroke-miterlimit:10;stroke-dasharray:none;stroke-opacity:1"
       transform="matrix(1.3333333,0,0,-1.3333333,0,480)"
       clip-path="url(#clipPath236)" />
    <path
       id="path237"
       d="M 462.24172,97.045788 650.89401,114.97029 611.41143,206.64652 438.14724,191.6092 462.24172,97.045788"
       style="fill:none;stroke:#d62728;stroke-width:2;stroke-linecap:square;stroke-linejoin:round;stroke-miterlimit:10;stroke-dasharray:none;stroke-opacity:1"
       transform="matrix(1.3333333,0,0,-1.3333333,0,480)"
       clip-path="url(#clipPath238)" />
    <path
       id="path239"
       d="M 462.24172,97.045788 650.89401,114.97029 611.41143,206.64652 438.14724,191.6092 462.24172,97.045788"
       style="fill:none;stroke:#d62728;stroke-width:2;stroke-linecap:square;stroke-linejoin:round;stroke-miterlimit:10;stroke-dasharray:none;stroke-opacity:0.1"
       transform="matrix(1.3333333,0,0,-1.3333333,0,480)"
       clip-path="url(#clipPath240)" />
    <path
       id="path241"
       d="m 462.24172,97.045788 188.65229,17.924502 v 0 L 462.24172,97.045788 v 0"
       style="fill:none;stroke:#d62728;stroke-width:2;stroke-linecap:square;stroke-linejoin:round;stroke-miterlimit:10;stroke-dasharray:none;stroke-opacity:0.1"
       transform="matrix(1.3333333,0,0,-1.3333333,0,480)"
       clip-path="url(#clipPath242)" />
    <path
       id="path243"
       d="m 438.14724,191.6092 173.26419,15.03732 v 0 L 438.14724,191.6092 v 0"
       style="fill:none;stroke:#d62728;stroke-width:2;stroke-linecap:square;stroke-linejoin:round;stroke-miterlimit:10;stroke-dasharray:none;stroke-opacity:0.1"
       transform="matrix(1.3333333,0,0,-1.3333333,0,480)"
       clip-path="url(#clipPath244)" />
    <path
       id="path245"
       d="M 462.24172,97.045788 438.14724,191.6092 v 0 l 24.09448,-94.563412 v 0"
       style="fill:none;stroke:#d62728;stroke-width:2;stroke-linecap:square;stroke-linejoin:round;stroke-miterlimit:10;stroke-dasharray:none;stroke-opacity:0.1"
       transform="matrix(1.3333333,0,0,-1.3333333,0,480)"
       clip-path="url(#clipPath246)" />
    <path
       id="path247"
       d="m 650.89401,114.97029 -39.48258,91.67623 v 0 l 39.48258,-91.67623 v 0"
       style="fill:none;stroke:#d62728;stroke-width:2;stroke-linecap:square;stroke-linejoin:round;stroke-miterlimit:10;stroke-dasharray:none;stroke-opacity:0.1"
       transform="matrix(1.3333333,0,0,-1.3333333,0,480)"
       clip-path="url(#clipPath248)" />
    <path
       id="path249"
       d="m 502.49786,126.62353 92.27309,8.56427"
       style="fill:none;stroke:#000000;stroke-width:5;stroke-linecap:square;stroke-linejoin:round;stroke-miterlimit:10;stroke-dasharray:none;stroke-opacity:1"
       transform="matrix(1.3333333,0,0,-1.3333333,0,480)"
       clip-path="url(#clipPath250)" />
    <path
       id="path251"
       d="M 594.77095,135.1878 576.9336,181.31433"
       style="fill:none;stroke:#000000;stroke-width:5;stroke-linecap:square;stroke-linejoin:round;stroke-miterlimit:10;stroke-dasharray:none;stroke-opacity:1"
       transform="matrix(1.3333333,0,0,-1.3333333,0,480)"
       clip-path="url(#clipPath252)" />
    <path
       id="path253"
       d="m 576.9336,181.31433 0.69497,59.11742"
       style="fill:none;stroke:#000000;stroke-width:5;stroke-linecap:square;stroke-linejoin:round;stroke-miterlimit:10;stroke-dasharray:none;stroke-opacity:1"
       transform="matrix(1.3333333,0,0,-1.3333333,0,480)"
       clip-path="url(#clipPath254)" />
    <path
       id="path255"
       d="m 438.14724,191.6092 173.26419,15.03732 v 0 z"
       style="fill:#d62728;fill-opacity:0.1;fill-rule:nonzero;stroke:#d62728;stroke-width:2;stroke-linecap:butt;stroke-linejoin:round;stroke-miterlimit:10;stroke-dasharray:none;stroke-opacity:1"
       transform="matrix(1.3333333,0,0,-1.3333333,0,480)"
       clip-path="url(#clipPath256)" />
    <g
       id="g256"
       aria-label="x&#10;0"
       transform="matrix(1.3333333,0,0,1.3333333,649.15931,342.73385)">
      <path
         id="path257"
         d="m 9.4459466,-8.1324198 c -0.6445312,0.1289062 -0.8789062,0.5976562 -0.8789062,0.984375 0,0.4804687 0.375,0.6328125 0.65625,0.6328125 0.5976562,0 1.0195316,-0.515625 1.0195316,-1.0546875 0,-0.8320313 -0.9609379,-1.21875 -1.7929691,-1.21875 -1.21875,0 -1.8984375,1.1953125 -2.0742188,1.5820312 -0.4570312,-1.5 -1.6992187,-1.5820312 -2.0507812,-1.5820312 -2.0390625,0 -3.1054688,2.6132812 -3.1054688,3.046875 0,0.082031 0.070312,0.1875 0.2109375,0.1875 0.1640625,0 0.1992188,-0.1171875 0.2460938,-0.1992188 0.6796875,-2.2148437 2.0039062,-2.6367187 2.5898437,-2.6367187 0.890625,0 1.078125,0.84375 1.078125,1.3242187 0,0.4335938 -0.1289062,0.890625 -0.3632812,1.8515625 l -0.6796875,2.7304688 c -0.2929688,1.1953125 -0.8789063,2.28515624 -1.9335938,2.28515624 -0.09375,0 -0.5976562,0 -1.0078125,-0.2578125 0.7148438,-0.140625 0.8671875,-0.73828124 0.8671875,-0.97265624 0,-0.3984375 -0.2929687,-0.6445313 -0.6679687,-0.6445313 -0.4804688,0 -0.99609378,0.421875 -0.99609378,1.0546875 0,0.84375004 0.92578128,1.21875004 1.79296878,1.21875004 0.9492187,0 1.6289062,-0.76171875 2.0507812,-1.57031254 0.3164063,1.17187504 1.3125,1.57031254 2.0507813,1.57031254 2.0273437,0 3.1054687,-2.61328124 3.1054687,-3.04687504 0,-0.1054687 -0.082031,-0.1757812 -0.1992187,-0.1757812 -0.1757813,0 -0.1992188,0.09375 -0.2578125,0.2578125 -0.5390625,1.7460937 -1.6992188,2.56640624 -2.5898438,2.56640624 -0.703125,0 -1.078125,-0.515625 -1.078125,-1.33593754 0,-0.4335937 0.082031,-0.75 0.3984375,-2.0742187 l 0.703125,-2.7070313 c 0.2929688,-1.1953125 0.9726563,-2.0742187 1.8867188,-2.0742187 0.035156,0 0.5976562,0 1.0195312,0.2578125 z m 0,0"
         style="fill:#000000;fill-opacity:1;fill-rule:nonzero;stroke:none" />
      <path
         id="path258"
         d="m 14.613915,-13.85117 c 0.07031,-0.175781 0.128907,-0.292969 0.128907,-0.433594 0,-0.410156 -0.363282,-0.738281 -0.796875,-0.738281 -0.386719,0 -0.644532,0.257813 -0.738282,0.621094 l -1.664062,6.0937499 c 0,0.035156 -0.04687,0.1875 -0.04687,0.1992188 0,0.1523437 0.351562,0.2460937 0.46875,0.2460937 0.08203,0 0.09375,-0.035156 0.175781,-0.2226562 z m 0,0"
         style="fill:#000000;fill-opacity:1;fill-rule:nonzero;stroke:none" />
    </g>
    <path
       id="path259"
       d="m 9.4451642,-8.1320923 c -0.6445313,0.1289063 -0.8789063,0.5976563 -0.8789063,0.984375 0,0.4804688 0.375,0.6328125 0.65625,0.6328125 0.5976563,0 1.0195311,-0.515625 1.0195311,-1.0546875 0,-0.8320312 -0.9609373,-1.21875 -1.7929686,-1.21875 -1.21875,0 -1.8984375,1.1953125 -2.0742187,1.5820313 -0.4570313,-1.5 -1.6992188,-1.5820313 -2.0507813,-1.5820313 -2.0390625,0 -3.1054687,2.6132813 -3.1054687,3.046875 0,0.082031 0.070312,0.1875 0.2109375,0.1875 0.1640625,0 0.1992187,-0.1171875 0.2460937,-0.1992187 0.6796875,-2.2148438 2.0039063,-2.6367188 2.5898438,-2.6367188 0.890625,0 1.078125,0.84375 1.078125,1.3242188 0,0.4335937 -0.1289063,0.890625 -0.3632813,1.8515625 l -0.6796875,2.7304687 c -0.2929687,1.1953125 -0.8789062,2.28515629 -1.9335937,2.28515629 -0.09375,0 -0.5976563,0 -1.0078125,-0.2578125 0.7148437,-0.140625 0.8671875,-0.73828129 0.8671875,-0.97265629 0,-0.3984375 -0.2929688,-0.6445312 -0.6679688,-0.6445312 -0.4804687,0 -0.99609373,0.421875 -0.99609373,1.0546875 0,0.84374999 0.92578123,1.21874999 1.79296873,1.21874999 0.9492188,0 1.6289063,-0.76171875 2.0507813,-1.57031249 0.3164062,1.17187499 1.3125,1.57031249 2.0507812,1.57031249 2.0273438,0 3.1054688,-2.61328129 3.1054688,-3.04687499 0,-0.1054688 -0.082031,-0.1757813 -0.1992188,-0.1757813 -0.1757812,0 -0.1992187,0.09375 -0.2578125,0.2578125 -0.5390625,1.7460938 -1.6992187,2.56640629 -2.5898437,2.56640629 -0.703125,0 -1.078125,-0.515625 -1.078125,-1.33593749 0,-0.4335938 0.082031,-0.75 0.3984375,-2.0742188 l 0.703125,-2.7070312 c 0.2929687,-1.1953125 0.9726562,-2.0742188 1.8867187,-2.0742188 0.035156,0 0.5976563,0 1.0195313,0.2578125 z m 0,0"
       style="fill:#000000;fill-opacity:1;fill-rule:nonzero;stroke:none"
       aria-label="x"
       transform="matrix(1.3333333,0,0,1.3333333,779.83614,144.7842)" />
    <path
       id="path260"
       d="m 439.09296,163.06555 171.67552,15.31682 2.64456,116.25581 -178.21166,-14.11756 z"
       style="fill:#1f77b4;fill-opacity:0.1;fill-rule:nonzero;stroke:#1f77b4;stroke-width:2;stroke-linecap:butt;stroke-linejoin:round;stroke-miterlimit:10;stroke-dasharray:none;stroke-opacity:1"
       transform="matrix(1.3333333,0,0,-1.3333333,0,480)"
       clip-path="url(#clipPath261)" />
    <path
       id="path262"
       d="m 577.62857,235.43175 c 1.32601,0 2.5979,0.52683 3.53553,1.46447 0.93764,0.93763 1.46447,2.20952 1.46447,3.53553 0,1.32602 -0.52683,2.5979 -1.46447,3.53554 -0.93763,0.93763 -2.20952,1.46446 -3.53553,1.46446 -1.32602,0 -2.5979,-0.52683 -3.53553,-1.46446 -0.93764,-0.93764 -1.46447,-2.20952 -1.46447,-3.53554 0,-1.32601 0.52683,-2.5979 1.46447,-3.53553 0.93763,-0.93764 2.20951,-1.46447 3.53553,-1.46447 z"
       style="fill:#000000;fill-opacity:1;fill-rule:nonzero;stroke:#000000;stroke-width:1;stroke-linecap:butt;stroke-linejoin:round;stroke-miterlimit:10;stroke-dasharray:none;stroke-opacity:1"
       transform="matrix(1.3333333,0,0,-1.3333333,0,480)"
       clip-path="url(#clipPath263)" />
    <path
       id="path264"
       d="M 640.36436,139.41952 Z"
       style="fill:none;stroke:#ff7f0e;stroke-width:2;stroke-linecap:butt;stroke-linejoin:round;stroke-miterlimit:10;stroke-dasharray:none;stroke-opacity:1"
       transform="matrix(1.3333333,0,0,-1.3333333,0,480)"
       clip-path="url(#clipPath265)" />
    <path
       id="path266"
       d="m 502.49786,121.62353 c 1.32602,0 2.5979,0.52683 3.53554,1.46447 0.93763,0.93763 1.46446,2.20951 1.46446,3.53553 0,1.32601 -0.52683,2.5979 -1.46446,3.53553 -0.93764,0.93764 -2.20952,1.46447 -3.53554,1.46447 -1.32601,0 -2.5979,-0.52683 -3.53553,-1.46447 -0.93764,-0.93763 -1.46447,-2.20952 -1.46447,-3.53553 0,-1.32602 0.52683,-2.5979 1.46447,-3.53553 0.93763,-0.93764 2.20952,-1.46447 3.53553,-1.46447 z"
       style="fill:#000000;fill-opacity:1;fill-rule:nonzero;stroke:#000000;stroke-width:1;stroke-linecap:butt;stroke-linejoin:round;stroke-miterlimit:10;stroke-dasharray:none;stroke-opacity:1"
       transform="matrix(1.3333333,0,0,-1.3333333,0,480)"
       clip-path="url(#clipPath267)" />
    <path
       id="path268"
       d="m 455.80952,122.29018 184.55484,17.12934 v 0 z"
       style="fill:none;stroke:#ff7f0e;stroke-width:2;stroke-linecap:butt;stroke-linejoin:round;stroke-miterlimit:10;stroke-dasharray:none;stroke-opacity:1"
       transform="matrix(1.3333333,0,0,-1.3333333,0,480)"
       clip-path="url(#clipPath269)" />
    <path
       id="path270"
       d="m 455.80952,122.29018 184.55484,17.12934 v 0 z"
       style="fill:none;stroke:#ff7f0e;stroke-width:2;stroke-linecap:butt;stroke-linejoin:round;stroke-miterlimit:10;stroke-dasharray:none;stroke-opacity:1"
       transform="matrix(1.3333333,0,0,-1.3333333,0,480)"
       clip-path="url(#clipPath271)" />
    <path
       id="path272"
       d="m 455.80952,122.29018 184.55484,17.12934 v 0 z"
       style="fill:none;stroke:#ff7f0e;stroke-width:2;stroke-linecap:butt;stroke-linejoin:round;stroke-miterlimit:10;stroke-dasharray:none;stroke-opacity:1"
       transform="matrix(1.3333333,0,0,-1.3333333,0,480)"
       clip-path="url(#clipPath273)" />
    <path
       id="path274"
       d="m 455.80952,122.29018 184.55484,17.12934 v 0 z"
       style="fill:none;stroke:#ff7f0e;stroke-width:2;stroke-linecap:butt;stroke-linejoin:round;stroke-miterlimit:10;stroke-dasharray:none;stroke-opacity:1"
       transform="matrix(1.3333333,0,0,-1.3333333,0,480)"
       clip-path="url(#clipPath275)" />
    <path
       id="path276"
       d="M 455.80952,122.29018 Z"
       style="fill:none;stroke:#ff7f0e;stroke-width:2;stroke-linecap:butt;stroke-linejoin:round;stroke-miterlimit:10;stroke-dasharray:none;stroke-opacity:1"
       transform="matrix(1.3333333,0,0,-1.3333333,0,480)"
       clip-path="url(#clipPath277)" />
    <path
       id="path278"
       d="m 650.89401,114.97029 -39.48258,91.67623 v 0 z"
       style="fill:#d62728;fill-opacity:0.1;fill-rule:nonzero;stroke:#d62728;stroke-width:2;stroke-linecap:butt;stroke-linejoin:round;stroke-miterlimit:10;stroke-dasharray:none;stroke-opacity:1"
       transform="matrix(1.3333333,0,0,-1.3333333,0,480)"
       clip-path="url(#clipPath279)" />
    <path
       id="path280"
       d="M 463.03146,66.839707 649.80188,85.066711 610.76848,178.38237 439.09296,163.06555 Z"
       style="fill:#1f77b4;fill-opacity:0.1;fill-rule:nonzero;stroke:#1f77b4;stroke-width:2;stroke-linecap:butt;stroke-linejoin:round;stroke-miterlimit:10;stroke-dasharray:none;stroke-opacity:1"
       transform="matrix(1.3333333,0,0,-1.3333333,0,480)"
       clip-path="url(#clipPath281)" />
    <path
       id="path282"
       d="M 462.24172,97.045788 650.89401,114.97029 611.41143,206.64652 438.14724,191.6092 Z"
       style="fill:#d62728;fill-opacity:0.1;fill-rule:nonzero;stroke:#d62728;stroke-width:2;stroke-linecap:butt;stroke-linejoin:round;stroke-miterlimit:10;stroke-dasharray:none;stroke-opacity:1"
       transform="matrix(1.3333333,0,0,-1.3333333,0,480)"
       clip-path="url(#clipPath283)" />
    <path
       id="path284"
       d="M 462.24172,97.045788 650.89401,114.97029 611.41143,206.64652 438.14724,191.6092 Z"
       style="fill:#d62728;fill-opacity:0.1;fill-rule:nonzero;stroke:#d62728;stroke-width:2;stroke-linecap:butt;stroke-linejoin:round;stroke-miterlimit:10;stroke-dasharray:none;stroke-opacity:1"
       transform="matrix(1.3333333,0,0,-1.3333333,0,480)"
       clip-path="url(#clipPath285)" />
    <path
       id="path286"
       d="m 462.24172,97.045788 188.65229,17.924502 v 0 z"
       style="fill:#d62728;fill-opacity:0.1;fill-rule:nonzero;stroke:#d62728;stroke-width:2;stroke-linecap:butt;stroke-linejoin:round;stroke-miterlimit:10;stroke-dasharray:none;stroke-opacity:1"
       transform="matrix(1.3333333,0,0,-1.3333333,0,480)"
       clip-path="url(#clipPath287)" />
    <path
       id="path288"
       d="M 462.24172,97.045788 438.14724,191.6092 v 0 z"
       style="fill:#d62728;fill-opacity:0.1;fill-rule:nonzero;stroke:#d62728;stroke-width:2;stroke-linecap:butt;stroke-linejoin:round;stroke-miterlimit:10;stroke-dasharray:none;stroke-opacity:1"
       transform="matrix(1.3333333,0,0,-1.3333333,0,480)"
       clip-path="url(#clipPath289)" />
    <path
       id="path290"
       d="m 649.80188,85.066711 -39.0334,93.315659 2.64456,116.25581 40.89258,-86.25471 z"
       style="fill:#1f77b4;fill-opacity:0.1;fill-rule:nonzero;stroke:#1f77b4;stroke-width:2;stroke-linecap:butt;stroke-linejoin:round;stroke-miterlimit:10;stroke-dasharray:none;stroke-opacity:1"
       transform="matrix(1.3333333,0,0,-1.3333333,0,480)"
       clip-path="url(#clipPath291)" />
    <path
       id="path292"
       d="m 459.77305,191.46689 194.53257,16.91658 -40.89258,86.25471 -178.21166,-14.11756 z"
       style="fill:#1f77b4;fill-opacity:0.1;fill-rule:nonzero;stroke:#1f77b4;stroke-width:2;stroke-linecap:butt;stroke-linejoin:round;stroke-miterlimit:10;stroke-dasharray:none;stroke-opacity:1"
       transform="matrix(1.3333333,0,0,-1.3333333,0,480)"
       clip-path="url(#clipPath293)" />
    <path
       id="path294"
       d="M 463.03146,66.839707 649.80188,85.066711 654.30562,208.38347 459.77305,191.46689 Z"
       style="fill:#1f77b4;fill-opacity:0.1;fill-rule:nonzero;stroke:#1f77b4;stroke-width:2;stroke-linecap:butt;stroke-linejoin:round;stroke-miterlimit:10;stroke-dasharray:none;stroke-opacity:1"
       transform="matrix(1.3333333,0,0,-1.3333333,0,480)"
       clip-path="url(#clipPath295)" />
    <path
       id="path296"
       d="m 463.03146,66.839707 -23.9385,96.225843 -3.89158,117.45507 24.57167,-89.05373 z"
       style="fill:#1f77b4;fill-opacity:0.1;fill-rule:nonzero;stroke:#1f77b4;stroke-width:2;stroke-linecap:butt;stroke-linejoin:round;stroke-miterlimit:10;stroke-dasharray:none;stroke-opacity:1"
       transform="matrix(1.3333333,0,0,-1.3333333,0,480)"
       clip-path="url(#clipPath297)" />
  </g>
</svg>
